G04 #@! TF.GenerationSoftware,KiCad,Pcbnew,(5.1.5)-3*
G04 #@! TF.CreationDate,2020-06-22T17:40:46-04:00*
G04 #@! TF.ProjectId,lab-supply-usb-boost-buck,6c61622d-7375-4707-906c-792d7573622d,rev?*
G04 #@! TF.SameCoordinates,Original*
G04 #@! TF.FileFunction,Copper,L1,Top*
G04 #@! TF.FilePolarity,Positive*
%FSLAX46Y46*%
G04 Gerber Fmt 4.6, Leading zero omitted, Abs format (unit mm)*
G04 Created by KiCad (PCBNEW (5.1.5)-3) date 2020-06-22 17:40:46*
%MOMM*%
%LPD*%
G04 APERTURE LIST*
%ADD10R,2.006600X3.403600*%
%ADD11R,2.000000X3.500000*%
%ADD12C,6.985000*%
%ADD13R,1.700000X1.700000*%
%ADD14O,1.700000X1.700000*%
%ADD15C,0.100000*%
%ADD16O,1.700000X1.950000*%
%ADD17R,0.762000X0.762000*%
%ADD18R,0.863600X0.762000*%
%ADD19R,0.800000X0.900000*%
%ADD20R,1.300000X1.300000*%
%ADD21R,2.000000X0.650000*%
%ADD22R,0.762000X0.863600*%
%ADD23R,0.650000X0.300000*%
%ADD24R,2.050000X2.860000*%
%ADD25R,1.560000X0.650000*%
%ADD26R,0.650000X1.560000*%
%ADD27R,0.700000X0.241300*%
%ADD28R,1.780000X2.350000*%
%ADD29C,0.762000*%
%ADD30C,0.635000*%
%ADD31C,0.508000*%
%ADD32C,0.254000*%
%ADD33C,0.762000*%
%ADD34C,0.203200*%
%ADD35C,0.279400*%
%ADD36C,0.584200*%
%ADD37C,0.635000*%
%ADD38C,0.381000*%
%ADD39C,0.304800*%
%ADD40C,0.152400*%
%ADD41C,1.270000*%
%ADD42C,1.905000*%
%ADD43C,0.889000*%
%ADD44C,0.228600*%
%ADD45C,0.025400*%
G04 APERTURE END LIST*
D10*
X132334000Y-74066400D03*
X128879600Y-74066400D03*
D11*
X109502600Y-71577200D03*
X116252600Y-71577200D03*
D12*
X120650000Y-91440000D03*
X78740000Y-114300000D03*
X78740000Y-58420000D03*
X162560000Y-58420000D03*
X162560000Y-114300000D03*
D13*
X77546200Y-92710000D03*
D14*
X77546200Y-90170000D03*
X77546200Y-87630000D03*
X77546200Y-85090000D03*
X77546200Y-82550000D03*
X77546200Y-80010000D03*
G04 #@! TA.AperFunction,ComponentPad*
D15*
G36*
X153888104Y-113288104D02*
G01*
X153912373Y-113291704D01*
X153936171Y-113297665D01*
X153959271Y-113305930D01*
X153981449Y-113316420D01*
X154002493Y-113329033D01*
X154022198Y-113343647D01*
X154040377Y-113360123D01*
X154056853Y-113378302D01*
X154071467Y-113398007D01*
X154084080Y-113419051D01*
X154094570Y-113441229D01*
X154102835Y-113464329D01*
X154108796Y-113488127D01*
X154112396Y-113512396D01*
X154113600Y-113536900D01*
X154113600Y-114986900D01*
X154112396Y-115011404D01*
X154108796Y-115035673D01*
X154102835Y-115059471D01*
X154094570Y-115082571D01*
X154084080Y-115104749D01*
X154071467Y-115125793D01*
X154056853Y-115145498D01*
X154040377Y-115163677D01*
X154022198Y-115180153D01*
X154002493Y-115194767D01*
X153981449Y-115207380D01*
X153959271Y-115217870D01*
X153936171Y-115226135D01*
X153912373Y-115232096D01*
X153888104Y-115235696D01*
X153863600Y-115236900D01*
X152663600Y-115236900D01*
X152639096Y-115235696D01*
X152614827Y-115232096D01*
X152591029Y-115226135D01*
X152567929Y-115217870D01*
X152545751Y-115207380D01*
X152524707Y-115194767D01*
X152505002Y-115180153D01*
X152486823Y-115163677D01*
X152470347Y-115145498D01*
X152455733Y-115125793D01*
X152443120Y-115104749D01*
X152432630Y-115082571D01*
X152424365Y-115059471D01*
X152418404Y-115035673D01*
X152414804Y-115011404D01*
X152413600Y-114986900D01*
X152413600Y-113536900D01*
X152414804Y-113512396D01*
X152418404Y-113488127D01*
X152424365Y-113464329D01*
X152432630Y-113441229D01*
X152443120Y-113419051D01*
X152455733Y-113398007D01*
X152470347Y-113378302D01*
X152486823Y-113360123D01*
X152505002Y-113343647D01*
X152524707Y-113329033D01*
X152545751Y-113316420D01*
X152567929Y-113305930D01*
X152591029Y-113297665D01*
X152614827Y-113291704D01*
X152639096Y-113288104D01*
X152663600Y-113286900D01*
X153863600Y-113286900D01*
X153888104Y-113288104D01*
G37*
G04 #@! TD.AperFunction*
D16*
X150763600Y-114261900D03*
X148263600Y-114261900D03*
X145763600Y-114261900D03*
X143263600Y-114261900D03*
D13*
X77851000Y-72771000D03*
D14*
X77851000Y-70231000D03*
X94919800Y-115443000D03*
D13*
X92379800Y-115443000D03*
G04 #@! TA.AperFunction,SMDPad,CuDef*
D15*
G36*
X132516810Y-58650002D02*
G01*
X132541035Y-58653595D01*
X132564791Y-58659546D01*
X132587849Y-58667796D01*
X132609987Y-58678267D01*
X132630993Y-58690857D01*
X132650663Y-58705445D01*
X132668808Y-58721892D01*
X132685255Y-58740037D01*
X132699843Y-58759707D01*
X132712433Y-58780713D01*
X132722904Y-58802851D01*
X132731154Y-58825909D01*
X132737105Y-58849665D01*
X132740698Y-58873890D01*
X132741900Y-58898350D01*
X132741900Y-59549250D01*
X132740698Y-59573710D01*
X132737105Y-59597935D01*
X132731154Y-59621691D01*
X132722904Y-59644749D01*
X132712433Y-59666887D01*
X132699843Y-59687893D01*
X132685255Y-59707563D01*
X132668808Y-59725708D01*
X132650663Y-59742155D01*
X132630993Y-59756743D01*
X132609987Y-59769333D01*
X132587849Y-59779804D01*
X132564791Y-59788054D01*
X132541035Y-59794005D01*
X132516810Y-59797598D01*
X132492350Y-59798800D01*
X131591450Y-59798800D01*
X131566990Y-59797598D01*
X131542765Y-59794005D01*
X131519009Y-59788054D01*
X131495951Y-59779804D01*
X131473813Y-59769333D01*
X131452807Y-59756743D01*
X131433137Y-59742155D01*
X131414992Y-59725708D01*
X131398545Y-59707563D01*
X131383957Y-59687893D01*
X131371367Y-59666887D01*
X131360896Y-59644749D01*
X131352646Y-59621691D01*
X131346695Y-59597935D01*
X131343102Y-59573710D01*
X131341900Y-59549250D01*
X131341900Y-58898350D01*
X131343102Y-58873890D01*
X131346695Y-58849665D01*
X131352646Y-58825909D01*
X131360896Y-58802851D01*
X131371367Y-58780713D01*
X131383957Y-58759707D01*
X131398545Y-58740037D01*
X131414992Y-58721892D01*
X131433137Y-58705445D01*
X131452807Y-58690857D01*
X131473813Y-58678267D01*
X131495951Y-58667796D01*
X131519009Y-58659546D01*
X131542765Y-58653595D01*
X131566990Y-58650002D01*
X131591450Y-58648800D01*
X132492350Y-58648800D01*
X132516810Y-58650002D01*
G37*
G04 #@! TD.AperFunction*
G04 #@! TA.AperFunction,SMDPad,CuDef*
G36*
X132516810Y-60700002D02*
G01*
X132541035Y-60703595D01*
X132564791Y-60709546D01*
X132587849Y-60717796D01*
X132609987Y-60728267D01*
X132630993Y-60740857D01*
X132650663Y-60755445D01*
X132668808Y-60771892D01*
X132685255Y-60790037D01*
X132699843Y-60809707D01*
X132712433Y-60830713D01*
X132722904Y-60852851D01*
X132731154Y-60875909D01*
X132737105Y-60899665D01*
X132740698Y-60923890D01*
X132741900Y-60948350D01*
X132741900Y-61599250D01*
X132740698Y-61623710D01*
X132737105Y-61647935D01*
X132731154Y-61671691D01*
X132722904Y-61694749D01*
X132712433Y-61716887D01*
X132699843Y-61737893D01*
X132685255Y-61757563D01*
X132668808Y-61775708D01*
X132650663Y-61792155D01*
X132630993Y-61806743D01*
X132609987Y-61819333D01*
X132587849Y-61829804D01*
X132564791Y-61838054D01*
X132541035Y-61844005D01*
X132516810Y-61847598D01*
X132492350Y-61848800D01*
X131591450Y-61848800D01*
X131566990Y-61847598D01*
X131542765Y-61844005D01*
X131519009Y-61838054D01*
X131495951Y-61829804D01*
X131473813Y-61819333D01*
X131452807Y-61806743D01*
X131433137Y-61792155D01*
X131414992Y-61775708D01*
X131398545Y-61757563D01*
X131383957Y-61737893D01*
X131371367Y-61716887D01*
X131360896Y-61694749D01*
X131352646Y-61671691D01*
X131346695Y-61647935D01*
X131343102Y-61623710D01*
X131341900Y-61599250D01*
X131341900Y-60948350D01*
X131343102Y-60923890D01*
X131346695Y-60899665D01*
X131352646Y-60875909D01*
X131360896Y-60852851D01*
X131371367Y-60830713D01*
X131383957Y-60809707D01*
X131398545Y-60790037D01*
X131414992Y-60771892D01*
X131433137Y-60755445D01*
X131452807Y-60740857D01*
X131473813Y-60728267D01*
X131495951Y-60717796D01*
X131519009Y-60709546D01*
X131542765Y-60703595D01*
X131566990Y-60700002D01*
X131591450Y-60698800D01*
X132492350Y-60698800D01*
X132516810Y-60700002D01*
G37*
G04 #@! TD.AperFunction*
G04 #@! TA.AperFunction,SMDPad,CuDef*
G36*
X124185610Y-58319802D02*
G01*
X124209835Y-58323395D01*
X124233591Y-58329346D01*
X124256649Y-58337596D01*
X124278787Y-58348067D01*
X124299793Y-58360657D01*
X124319463Y-58375245D01*
X124337608Y-58391692D01*
X124354055Y-58409837D01*
X124368643Y-58429507D01*
X124381233Y-58450513D01*
X124391704Y-58472651D01*
X124399954Y-58495709D01*
X124405905Y-58519465D01*
X124409498Y-58543690D01*
X124410700Y-58568150D01*
X124410700Y-59219050D01*
X124409498Y-59243510D01*
X124405905Y-59267735D01*
X124399954Y-59291491D01*
X124391704Y-59314549D01*
X124381233Y-59336687D01*
X124368643Y-59357693D01*
X124354055Y-59377363D01*
X124337608Y-59395508D01*
X124319463Y-59411955D01*
X124299793Y-59426543D01*
X124278787Y-59439133D01*
X124256649Y-59449604D01*
X124233591Y-59457854D01*
X124209835Y-59463805D01*
X124185610Y-59467398D01*
X124161150Y-59468600D01*
X123260250Y-59468600D01*
X123235790Y-59467398D01*
X123211565Y-59463805D01*
X123187809Y-59457854D01*
X123164751Y-59449604D01*
X123142613Y-59439133D01*
X123121607Y-59426543D01*
X123101937Y-59411955D01*
X123083792Y-59395508D01*
X123067345Y-59377363D01*
X123052757Y-59357693D01*
X123040167Y-59336687D01*
X123029696Y-59314549D01*
X123021446Y-59291491D01*
X123015495Y-59267735D01*
X123011902Y-59243510D01*
X123010700Y-59219050D01*
X123010700Y-58568150D01*
X123011902Y-58543690D01*
X123015495Y-58519465D01*
X123021446Y-58495709D01*
X123029696Y-58472651D01*
X123040167Y-58450513D01*
X123052757Y-58429507D01*
X123067345Y-58409837D01*
X123083792Y-58391692D01*
X123101937Y-58375245D01*
X123121607Y-58360657D01*
X123142613Y-58348067D01*
X123164751Y-58337596D01*
X123187809Y-58329346D01*
X123211565Y-58323395D01*
X123235790Y-58319802D01*
X123260250Y-58318600D01*
X124161150Y-58318600D01*
X124185610Y-58319802D01*
G37*
G04 #@! TD.AperFunction*
G04 #@! TA.AperFunction,SMDPad,CuDef*
G36*
X124185610Y-60369802D02*
G01*
X124209835Y-60373395D01*
X124233591Y-60379346D01*
X124256649Y-60387596D01*
X124278787Y-60398067D01*
X124299793Y-60410657D01*
X124319463Y-60425245D01*
X124337608Y-60441692D01*
X124354055Y-60459837D01*
X124368643Y-60479507D01*
X124381233Y-60500513D01*
X124391704Y-60522651D01*
X124399954Y-60545709D01*
X124405905Y-60569465D01*
X124409498Y-60593690D01*
X124410700Y-60618150D01*
X124410700Y-61269050D01*
X124409498Y-61293510D01*
X124405905Y-61317735D01*
X124399954Y-61341491D01*
X124391704Y-61364549D01*
X124381233Y-61386687D01*
X124368643Y-61407693D01*
X124354055Y-61427363D01*
X124337608Y-61445508D01*
X124319463Y-61461955D01*
X124299793Y-61476543D01*
X124278787Y-61489133D01*
X124256649Y-61499604D01*
X124233591Y-61507854D01*
X124209835Y-61513805D01*
X124185610Y-61517398D01*
X124161150Y-61518600D01*
X123260250Y-61518600D01*
X123235790Y-61517398D01*
X123211565Y-61513805D01*
X123187809Y-61507854D01*
X123164751Y-61499604D01*
X123142613Y-61489133D01*
X123121607Y-61476543D01*
X123101937Y-61461955D01*
X123083792Y-61445508D01*
X123067345Y-61427363D01*
X123052757Y-61407693D01*
X123040167Y-61386687D01*
X123029696Y-61364549D01*
X123021446Y-61341491D01*
X123015495Y-61317735D01*
X123011902Y-61293510D01*
X123010700Y-61269050D01*
X123010700Y-60618150D01*
X123011902Y-60593690D01*
X123015495Y-60569465D01*
X123021446Y-60545709D01*
X123029696Y-60522651D01*
X123040167Y-60500513D01*
X123052757Y-60479507D01*
X123067345Y-60459837D01*
X123083792Y-60441692D01*
X123101937Y-60425245D01*
X123121607Y-60410657D01*
X123142613Y-60398067D01*
X123164751Y-60387596D01*
X123187809Y-60379346D01*
X123211565Y-60373395D01*
X123235790Y-60369802D01*
X123260250Y-60368600D01*
X124161150Y-60368600D01*
X124185610Y-60369802D01*
G37*
G04 #@! TD.AperFunction*
G04 #@! TA.AperFunction,SMDPad,CuDef*
G36*
X130477810Y-62648802D02*
G01*
X130502035Y-62652395D01*
X130525791Y-62658346D01*
X130548849Y-62666596D01*
X130570987Y-62677067D01*
X130591993Y-62689657D01*
X130611663Y-62704245D01*
X130629808Y-62720692D01*
X130646255Y-62738837D01*
X130660843Y-62758507D01*
X130673433Y-62779513D01*
X130683904Y-62801651D01*
X130692154Y-62824709D01*
X130698105Y-62848465D01*
X130701698Y-62872690D01*
X130702900Y-62897150D01*
X130702900Y-63798050D01*
X130701698Y-63822510D01*
X130698105Y-63846735D01*
X130692154Y-63870491D01*
X130683904Y-63893549D01*
X130673433Y-63915687D01*
X130660843Y-63936693D01*
X130646255Y-63956363D01*
X130629808Y-63974508D01*
X130611663Y-63990955D01*
X130591993Y-64005543D01*
X130570987Y-64018133D01*
X130548849Y-64028604D01*
X130525791Y-64036854D01*
X130502035Y-64042805D01*
X130477810Y-64046398D01*
X130453350Y-64047600D01*
X129802450Y-64047600D01*
X129777990Y-64046398D01*
X129753765Y-64042805D01*
X129730009Y-64036854D01*
X129706951Y-64028604D01*
X129684813Y-64018133D01*
X129663807Y-64005543D01*
X129644137Y-63990955D01*
X129625992Y-63974508D01*
X129609545Y-63956363D01*
X129594957Y-63936693D01*
X129582367Y-63915687D01*
X129571896Y-63893549D01*
X129563646Y-63870491D01*
X129557695Y-63846735D01*
X129554102Y-63822510D01*
X129552900Y-63798050D01*
X129552900Y-62897150D01*
X129554102Y-62872690D01*
X129557695Y-62848465D01*
X129563646Y-62824709D01*
X129571896Y-62801651D01*
X129582367Y-62779513D01*
X129594957Y-62758507D01*
X129609545Y-62738837D01*
X129625992Y-62720692D01*
X129644137Y-62704245D01*
X129663807Y-62689657D01*
X129684813Y-62677067D01*
X129706951Y-62666596D01*
X129730009Y-62658346D01*
X129753765Y-62652395D01*
X129777990Y-62648802D01*
X129802450Y-62647600D01*
X130453350Y-62647600D01*
X130477810Y-62648802D01*
G37*
G04 #@! TD.AperFunction*
G04 #@! TA.AperFunction,SMDPad,CuDef*
G36*
X132527810Y-62648802D02*
G01*
X132552035Y-62652395D01*
X132575791Y-62658346D01*
X132598849Y-62666596D01*
X132620987Y-62677067D01*
X132641993Y-62689657D01*
X132661663Y-62704245D01*
X132679808Y-62720692D01*
X132696255Y-62738837D01*
X132710843Y-62758507D01*
X132723433Y-62779513D01*
X132733904Y-62801651D01*
X132742154Y-62824709D01*
X132748105Y-62848465D01*
X132751698Y-62872690D01*
X132752900Y-62897150D01*
X132752900Y-63798050D01*
X132751698Y-63822510D01*
X132748105Y-63846735D01*
X132742154Y-63870491D01*
X132733904Y-63893549D01*
X132723433Y-63915687D01*
X132710843Y-63936693D01*
X132696255Y-63956363D01*
X132679808Y-63974508D01*
X132661663Y-63990955D01*
X132641993Y-64005543D01*
X132620987Y-64018133D01*
X132598849Y-64028604D01*
X132575791Y-64036854D01*
X132552035Y-64042805D01*
X132527810Y-64046398D01*
X132503350Y-64047600D01*
X131852450Y-64047600D01*
X131827990Y-64046398D01*
X131803765Y-64042805D01*
X131780009Y-64036854D01*
X131756951Y-64028604D01*
X131734813Y-64018133D01*
X131713807Y-64005543D01*
X131694137Y-63990955D01*
X131675992Y-63974508D01*
X131659545Y-63956363D01*
X131644957Y-63936693D01*
X131632367Y-63915687D01*
X131621896Y-63893549D01*
X131613646Y-63870491D01*
X131607695Y-63846735D01*
X131604102Y-63822510D01*
X131602900Y-63798050D01*
X131602900Y-62897150D01*
X131604102Y-62872690D01*
X131607695Y-62848465D01*
X131613646Y-62824709D01*
X131621896Y-62801651D01*
X131632367Y-62779513D01*
X131644957Y-62758507D01*
X131659545Y-62738837D01*
X131675992Y-62720692D01*
X131694137Y-62704245D01*
X131713807Y-62689657D01*
X131734813Y-62677067D01*
X131756951Y-62666596D01*
X131780009Y-62658346D01*
X131803765Y-62652395D01*
X131827990Y-62648802D01*
X131852450Y-62647600D01*
X132503350Y-62647600D01*
X132527810Y-62648802D01*
G37*
G04 #@! TD.AperFunction*
D17*
X139928600Y-61747400D03*
D18*
X140944600Y-61747400D03*
D17*
X141960600Y-61747400D03*
X141960600Y-59715400D03*
D18*
X140944600Y-59715400D03*
D17*
X139928600Y-59715400D03*
D19*
X128978700Y-65268600D03*
X127078700Y-65268600D03*
X128028700Y-67268600D03*
D20*
X84970000Y-69011800D03*
X82670000Y-69011800D03*
X82670000Y-71043800D03*
X84970000Y-71043800D03*
D11*
X138353800Y-74066400D03*
X145103800Y-74066400D03*
D20*
X150095600Y-74066400D03*
X147795600Y-74066400D03*
X129184400Y-77520800D03*
X126884400Y-77520800D03*
X126866000Y-79603600D03*
X129166000Y-79603600D03*
X134200900Y-61881400D03*
X134200900Y-59581400D03*
X123221100Y-63347600D03*
X125521100Y-63347600D03*
D13*
X163779200Y-81280000D03*
D14*
X163779200Y-83820000D03*
D13*
X163779200Y-88900000D03*
D14*
X163779200Y-91440000D03*
X163779200Y-99060000D03*
D13*
X163779200Y-96520000D03*
G04 #@! TA.AperFunction,SMDPad,CuDef*
D15*
G36*
X142026951Y-63801161D02*
G01*
X142034232Y-63802241D01*
X142041371Y-63804029D01*
X142048301Y-63806509D01*
X142054955Y-63809656D01*
X142061268Y-63813440D01*
X142067179Y-63817824D01*
X142072633Y-63822767D01*
X142077576Y-63828221D01*
X142081960Y-63834132D01*
X142085744Y-63840445D01*
X142088891Y-63847099D01*
X142091371Y-63854029D01*
X142093159Y-63861168D01*
X142094239Y-63868449D01*
X142094600Y-63875800D01*
X142094600Y-65175800D01*
X142094239Y-65183151D01*
X142093159Y-65190432D01*
X142091371Y-65197571D01*
X142088891Y-65204501D01*
X142085744Y-65211155D01*
X142081960Y-65217468D01*
X142077576Y-65223379D01*
X142072633Y-65228833D01*
X142067179Y-65233776D01*
X142061268Y-65238160D01*
X142054955Y-65241944D01*
X142048301Y-65245091D01*
X142041371Y-65247571D01*
X142034232Y-65249359D01*
X142026951Y-65250439D01*
X142019600Y-65250800D01*
X141869600Y-65250800D01*
X141862249Y-65250439D01*
X141854968Y-65249359D01*
X141847829Y-65247571D01*
X141840899Y-65245091D01*
X141834245Y-65241944D01*
X141827932Y-65238160D01*
X141822021Y-65233776D01*
X141816567Y-65228833D01*
X141811624Y-65223379D01*
X141807240Y-65217468D01*
X141803456Y-65211155D01*
X141800309Y-65204501D01*
X141797829Y-65197571D01*
X141796041Y-65190432D01*
X141794961Y-65183151D01*
X141794600Y-65175800D01*
X141794600Y-63875800D01*
X141794961Y-63868449D01*
X141796041Y-63861168D01*
X141797829Y-63854029D01*
X141800309Y-63847099D01*
X141803456Y-63840445D01*
X141807240Y-63834132D01*
X141811624Y-63828221D01*
X141816567Y-63822767D01*
X141822021Y-63817824D01*
X141827932Y-63813440D01*
X141834245Y-63809656D01*
X141840899Y-63806509D01*
X141847829Y-63804029D01*
X141854968Y-63802241D01*
X141862249Y-63801161D01*
X141869600Y-63800800D01*
X142019600Y-63800800D01*
X142026951Y-63801161D01*
G37*
G04 #@! TD.AperFunction*
G04 #@! TA.AperFunction,SMDPad,CuDef*
G36*
X141526951Y-63801161D02*
G01*
X141534232Y-63802241D01*
X141541371Y-63804029D01*
X141548301Y-63806509D01*
X141554955Y-63809656D01*
X141561268Y-63813440D01*
X141567179Y-63817824D01*
X141572633Y-63822767D01*
X141577576Y-63828221D01*
X141581960Y-63834132D01*
X141585744Y-63840445D01*
X141588891Y-63847099D01*
X141591371Y-63854029D01*
X141593159Y-63861168D01*
X141594239Y-63868449D01*
X141594600Y-63875800D01*
X141594600Y-65175800D01*
X141594239Y-65183151D01*
X141593159Y-65190432D01*
X141591371Y-65197571D01*
X141588891Y-65204501D01*
X141585744Y-65211155D01*
X141581960Y-65217468D01*
X141577576Y-65223379D01*
X141572633Y-65228833D01*
X141567179Y-65233776D01*
X141561268Y-65238160D01*
X141554955Y-65241944D01*
X141548301Y-65245091D01*
X141541371Y-65247571D01*
X141534232Y-65249359D01*
X141526951Y-65250439D01*
X141519600Y-65250800D01*
X141369600Y-65250800D01*
X141362249Y-65250439D01*
X141354968Y-65249359D01*
X141347829Y-65247571D01*
X141340899Y-65245091D01*
X141334245Y-65241944D01*
X141327932Y-65238160D01*
X141322021Y-65233776D01*
X141316567Y-65228833D01*
X141311624Y-65223379D01*
X141307240Y-65217468D01*
X141303456Y-65211155D01*
X141300309Y-65204501D01*
X141297829Y-65197571D01*
X141296041Y-65190432D01*
X141294961Y-65183151D01*
X141294600Y-65175800D01*
X141294600Y-63875800D01*
X141294961Y-63868449D01*
X141296041Y-63861168D01*
X141297829Y-63854029D01*
X141300309Y-63847099D01*
X141303456Y-63840445D01*
X141307240Y-63834132D01*
X141311624Y-63828221D01*
X141316567Y-63822767D01*
X141322021Y-63817824D01*
X141327932Y-63813440D01*
X141334245Y-63809656D01*
X141340899Y-63806509D01*
X141347829Y-63804029D01*
X141354968Y-63802241D01*
X141362249Y-63801161D01*
X141369600Y-63800800D01*
X141519600Y-63800800D01*
X141526951Y-63801161D01*
G37*
G04 #@! TD.AperFunction*
G04 #@! TA.AperFunction,SMDPad,CuDef*
G36*
X141026951Y-63801161D02*
G01*
X141034232Y-63802241D01*
X141041371Y-63804029D01*
X141048301Y-63806509D01*
X141054955Y-63809656D01*
X141061268Y-63813440D01*
X141067179Y-63817824D01*
X141072633Y-63822767D01*
X141077576Y-63828221D01*
X141081960Y-63834132D01*
X141085744Y-63840445D01*
X141088891Y-63847099D01*
X141091371Y-63854029D01*
X141093159Y-63861168D01*
X141094239Y-63868449D01*
X141094600Y-63875800D01*
X141094600Y-65175800D01*
X141094239Y-65183151D01*
X141093159Y-65190432D01*
X141091371Y-65197571D01*
X141088891Y-65204501D01*
X141085744Y-65211155D01*
X141081960Y-65217468D01*
X141077576Y-65223379D01*
X141072633Y-65228833D01*
X141067179Y-65233776D01*
X141061268Y-65238160D01*
X141054955Y-65241944D01*
X141048301Y-65245091D01*
X141041371Y-65247571D01*
X141034232Y-65249359D01*
X141026951Y-65250439D01*
X141019600Y-65250800D01*
X140869600Y-65250800D01*
X140862249Y-65250439D01*
X140854968Y-65249359D01*
X140847829Y-65247571D01*
X140840899Y-65245091D01*
X140834245Y-65241944D01*
X140827932Y-65238160D01*
X140822021Y-65233776D01*
X140816567Y-65228833D01*
X140811624Y-65223379D01*
X140807240Y-65217468D01*
X140803456Y-65211155D01*
X140800309Y-65204501D01*
X140797829Y-65197571D01*
X140796041Y-65190432D01*
X140794961Y-65183151D01*
X140794600Y-65175800D01*
X140794600Y-63875800D01*
X140794961Y-63868449D01*
X140796041Y-63861168D01*
X140797829Y-63854029D01*
X140800309Y-63847099D01*
X140803456Y-63840445D01*
X140807240Y-63834132D01*
X140811624Y-63828221D01*
X140816567Y-63822767D01*
X140822021Y-63817824D01*
X140827932Y-63813440D01*
X140834245Y-63809656D01*
X140840899Y-63806509D01*
X140847829Y-63804029D01*
X140854968Y-63802241D01*
X140862249Y-63801161D01*
X140869600Y-63800800D01*
X141019600Y-63800800D01*
X141026951Y-63801161D01*
G37*
G04 #@! TD.AperFunction*
G04 #@! TA.AperFunction,SMDPad,CuDef*
G36*
X140526951Y-63801161D02*
G01*
X140534232Y-63802241D01*
X140541371Y-63804029D01*
X140548301Y-63806509D01*
X140554955Y-63809656D01*
X140561268Y-63813440D01*
X140567179Y-63817824D01*
X140572633Y-63822767D01*
X140577576Y-63828221D01*
X140581960Y-63834132D01*
X140585744Y-63840445D01*
X140588891Y-63847099D01*
X140591371Y-63854029D01*
X140593159Y-63861168D01*
X140594239Y-63868449D01*
X140594600Y-63875800D01*
X140594600Y-65175800D01*
X140594239Y-65183151D01*
X140593159Y-65190432D01*
X140591371Y-65197571D01*
X140588891Y-65204501D01*
X140585744Y-65211155D01*
X140581960Y-65217468D01*
X140577576Y-65223379D01*
X140572633Y-65228833D01*
X140567179Y-65233776D01*
X140561268Y-65238160D01*
X140554955Y-65241944D01*
X140548301Y-65245091D01*
X140541371Y-65247571D01*
X140534232Y-65249359D01*
X140526951Y-65250439D01*
X140519600Y-65250800D01*
X140369600Y-65250800D01*
X140362249Y-65250439D01*
X140354968Y-65249359D01*
X140347829Y-65247571D01*
X140340899Y-65245091D01*
X140334245Y-65241944D01*
X140327932Y-65238160D01*
X140322021Y-65233776D01*
X140316567Y-65228833D01*
X140311624Y-65223379D01*
X140307240Y-65217468D01*
X140303456Y-65211155D01*
X140300309Y-65204501D01*
X140297829Y-65197571D01*
X140296041Y-65190432D01*
X140294961Y-65183151D01*
X140294600Y-65175800D01*
X140294600Y-63875800D01*
X140294961Y-63868449D01*
X140296041Y-63861168D01*
X140297829Y-63854029D01*
X140300309Y-63847099D01*
X140303456Y-63840445D01*
X140307240Y-63834132D01*
X140311624Y-63828221D01*
X140316567Y-63822767D01*
X140322021Y-63817824D01*
X140327932Y-63813440D01*
X140334245Y-63809656D01*
X140340899Y-63806509D01*
X140347829Y-63804029D01*
X140354968Y-63802241D01*
X140362249Y-63801161D01*
X140369600Y-63800800D01*
X140519600Y-63800800D01*
X140526951Y-63801161D01*
G37*
G04 #@! TD.AperFunction*
G04 #@! TA.AperFunction,SMDPad,CuDef*
G36*
X140026951Y-63801161D02*
G01*
X140034232Y-63802241D01*
X140041371Y-63804029D01*
X140048301Y-63806509D01*
X140054955Y-63809656D01*
X140061268Y-63813440D01*
X140067179Y-63817824D01*
X140072633Y-63822767D01*
X140077576Y-63828221D01*
X140081960Y-63834132D01*
X140085744Y-63840445D01*
X140088891Y-63847099D01*
X140091371Y-63854029D01*
X140093159Y-63861168D01*
X140094239Y-63868449D01*
X140094600Y-63875800D01*
X140094600Y-65175800D01*
X140094239Y-65183151D01*
X140093159Y-65190432D01*
X140091371Y-65197571D01*
X140088891Y-65204501D01*
X140085744Y-65211155D01*
X140081960Y-65217468D01*
X140077576Y-65223379D01*
X140072633Y-65228833D01*
X140067179Y-65233776D01*
X140061268Y-65238160D01*
X140054955Y-65241944D01*
X140048301Y-65245091D01*
X140041371Y-65247571D01*
X140034232Y-65249359D01*
X140026951Y-65250439D01*
X140019600Y-65250800D01*
X139869600Y-65250800D01*
X139862249Y-65250439D01*
X139854968Y-65249359D01*
X139847829Y-65247571D01*
X139840899Y-65245091D01*
X139834245Y-65241944D01*
X139827932Y-65238160D01*
X139822021Y-65233776D01*
X139816567Y-65228833D01*
X139811624Y-65223379D01*
X139807240Y-65217468D01*
X139803456Y-65211155D01*
X139800309Y-65204501D01*
X139797829Y-65197571D01*
X139796041Y-65190432D01*
X139794961Y-65183151D01*
X139794600Y-65175800D01*
X139794600Y-63875800D01*
X139794961Y-63868449D01*
X139796041Y-63861168D01*
X139797829Y-63854029D01*
X139800309Y-63847099D01*
X139803456Y-63840445D01*
X139807240Y-63834132D01*
X139811624Y-63828221D01*
X139816567Y-63822767D01*
X139822021Y-63817824D01*
X139827932Y-63813440D01*
X139834245Y-63809656D01*
X139840899Y-63806509D01*
X139847829Y-63804029D01*
X139854968Y-63802241D01*
X139862249Y-63801161D01*
X139869600Y-63800800D01*
X140019600Y-63800800D01*
X140026951Y-63801161D01*
G37*
G04 #@! TD.AperFunction*
G04 #@! TA.AperFunction,SMDPad,CuDef*
G36*
X140026951Y-68201161D02*
G01*
X140034232Y-68202241D01*
X140041371Y-68204029D01*
X140048301Y-68206509D01*
X140054955Y-68209656D01*
X140061268Y-68213440D01*
X140067179Y-68217824D01*
X140072633Y-68222767D01*
X140077576Y-68228221D01*
X140081960Y-68234132D01*
X140085744Y-68240445D01*
X140088891Y-68247099D01*
X140091371Y-68254029D01*
X140093159Y-68261168D01*
X140094239Y-68268449D01*
X140094600Y-68275800D01*
X140094600Y-69575800D01*
X140094239Y-69583151D01*
X140093159Y-69590432D01*
X140091371Y-69597571D01*
X140088891Y-69604501D01*
X140085744Y-69611155D01*
X140081960Y-69617468D01*
X140077576Y-69623379D01*
X140072633Y-69628833D01*
X140067179Y-69633776D01*
X140061268Y-69638160D01*
X140054955Y-69641944D01*
X140048301Y-69645091D01*
X140041371Y-69647571D01*
X140034232Y-69649359D01*
X140026951Y-69650439D01*
X140019600Y-69650800D01*
X139869600Y-69650800D01*
X139862249Y-69650439D01*
X139854968Y-69649359D01*
X139847829Y-69647571D01*
X139840899Y-69645091D01*
X139834245Y-69641944D01*
X139827932Y-69638160D01*
X139822021Y-69633776D01*
X139816567Y-69628833D01*
X139811624Y-69623379D01*
X139807240Y-69617468D01*
X139803456Y-69611155D01*
X139800309Y-69604501D01*
X139797829Y-69597571D01*
X139796041Y-69590432D01*
X139794961Y-69583151D01*
X139794600Y-69575800D01*
X139794600Y-68275800D01*
X139794961Y-68268449D01*
X139796041Y-68261168D01*
X139797829Y-68254029D01*
X139800309Y-68247099D01*
X139803456Y-68240445D01*
X139807240Y-68234132D01*
X139811624Y-68228221D01*
X139816567Y-68222767D01*
X139822021Y-68217824D01*
X139827932Y-68213440D01*
X139834245Y-68209656D01*
X139840899Y-68206509D01*
X139847829Y-68204029D01*
X139854968Y-68202241D01*
X139862249Y-68201161D01*
X139869600Y-68200800D01*
X140019600Y-68200800D01*
X140026951Y-68201161D01*
G37*
G04 #@! TD.AperFunction*
G04 #@! TA.AperFunction,SMDPad,CuDef*
G36*
X140526951Y-68201161D02*
G01*
X140534232Y-68202241D01*
X140541371Y-68204029D01*
X140548301Y-68206509D01*
X140554955Y-68209656D01*
X140561268Y-68213440D01*
X140567179Y-68217824D01*
X140572633Y-68222767D01*
X140577576Y-68228221D01*
X140581960Y-68234132D01*
X140585744Y-68240445D01*
X140588891Y-68247099D01*
X140591371Y-68254029D01*
X140593159Y-68261168D01*
X140594239Y-68268449D01*
X140594600Y-68275800D01*
X140594600Y-69575800D01*
X140594239Y-69583151D01*
X140593159Y-69590432D01*
X140591371Y-69597571D01*
X140588891Y-69604501D01*
X140585744Y-69611155D01*
X140581960Y-69617468D01*
X140577576Y-69623379D01*
X140572633Y-69628833D01*
X140567179Y-69633776D01*
X140561268Y-69638160D01*
X140554955Y-69641944D01*
X140548301Y-69645091D01*
X140541371Y-69647571D01*
X140534232Y-69649359D01*
X140526951Y-69650439D01*
X140519600Y-69650800D01*
X140369600Y-69650800D01*
X140362249Y-69650439D01*
X140354968Y-69649359D01*
X140347829Y-69647571D01*
X140340899Y-69645091D01*
X140334245Y-69641944D01*
X140327932Y-69638160D01*
X140322021Y-69633776D01*
X140316567Y-69628833D01*
X140311624Y-69623379D01*
X140307240Y-69617468D01*
X140303456Y-69611155D01*
X140300309Y-69604501D01*
X140297829Y-69597571D01*
X140296041Y-69590432D01*
X140294961Y-69583151D01*
X140294600Y-69575800D01*
X140294600Y-68275800D01*
X140294961Y-68268449D01*
X140296041Y-68261168D01*
X140297829Y-68254029D01*
X140300309Y-68247099D01*
X140303456Y-68240445D01*
X140307240Y-68234132D01*
X140311624Y-68228221D01*
X140316567Y-68222767D01*
X140322021Y-68217824D01*
X140327932Y-68213440D01*
X140334245Y-68209656D01*
X140340899Y-68206509D01*
X140347829Y-68204029D01*
X140354968Y-68202241D01*
X140362249Y-68201161D01*
X140369600Y-68200800D01*
X140519600Y-68200800D01*
X140526951Y-68201161D01*
G37*
G04 #@! TD.AperFunction*
G04 #@! TA.AperFunction,SMDPad,CuDef*
G36*
X141026951Y-68201161D02*
G01*
X141034232Y-68202241D01*
X141041371Y-68204029D01*
X141048301Y-68206509D01*
X141054955Y-68209656D01*
X141061268Y-68213440D01*
X141067179Y-68217824D01*
X141072633Y-68222767D01*
X141077576Y-68228221D01*
X141081960Y-68234132D01*
X141085744Y-68240445D01*
X141088891Y-68247099D01*
X141091371Y-68254029D01*
X141093159Y-68261168D01*
X141094239Y-68268449D01*
X141094600Y-68275800D01*
X141094600Y-69575800D01*
X141094239Y-69583151D01*
X141093159Y-69590432D01*
X141091371Y-69597571D01*
X141088891Y-69604501D01*
X141085744Y-69611155D01*
X141081960Y-69617468D01*
X141077576Y-69623379D01*
X141072633Y-69628833D01*
X141067179Y-69633776D01*
X141061268Y-69638160D01*
X141054955Y-69641944D01*
X141048301Y-69645091D01*
X141041371Y-69647571D01*
X141034232Y-69649359D01*
X141026951Y-69650439D01*
X141019600Y-69650800D01*
X140869600Y-69650800D01*
X140862249Y-69650439D01*
X140854968Y-69649359D01*
X140847829Y-69647571D01*
X140840899Y-69645091D01*
X140834245Y-69641944D01*
X140827932Y-69638160D01*
X140822021Y-69633776D01*
X140816567Y-69628833D01*
X140811624Y-69623379D01*
X140807240Y-69617468D01*
X140803456Y-69611155D01*
X140800309Y-69604501D01*
X140797829Y-69597571D01*
X140796041Y-69590432D01*
X140794961Y-69583151D01*
X140794600Y-69575800D01*
X140794600Y-68275800D01*
X140794961Y-68268449D01*
X140796041Y-68261168D01*
X140797829Y-68254029D01*
X140800309Y-68247099D01*
X140803456Y-68240445D01*
X140807240Y-68234132D01*
X140811624Y-68228221D01*
X140816567Y-68222767D01*
X140822021Y-68217824D01*
X140827932Y-68213440D01*
X140834245Y-68209656D01*
X140840899Y-68206509D01*
X140847829Y-68204029D01*
X140854968Y-68202241D01*
X140862249Y-68201161D01*
X140869600Y-68200800D01*
X141019600Y-68200800D01*
X141026951Y-68201161D01*
G37*
G04 #@! TD.AperFunction*
G04 #@! TA.AperFunction,SMDPad,CuDef*
G36*
X141526951Y-68201161D02*
G01*
X141534232Y-68202241D01*
X141541371Y-68204029D01*
X141548301Y-68206509D01*
X141554955Y-68209656D01*
X141561268Y-68213440D01*
X141567179Y-68217824D01*
X141572633Y-68222767D01*
X141577576Y-68228221D01*
X141581960Y-68234132D01*
X141585744Y-68240445D01*
X141588891Y-68247099D01*
X141591371Y-68254029D01*
X141593159Y-68261168D01*
X141594239Y-68268449D01*
X141594600Y-68275800D01*
X141594600Y-69575800D01*
X141594239Y-69583151D01*
X141593159Y-69590432D01*
X141591371Y-69597571D01*
X141588891Y-69604501D01*
X141585744Y-69611155D01*
X141581960Y-69617468D01*
X141577576Y-69623379D01*
X141572633Y-69628833D01*
X141567179Y-69633776D01*
X141561268Y-69638160D01*
X141554955Y-69641944D01*
X141548301Y-69645091D01*
X141541371Y-69647571D01*
X141534232Y-69649359D01*
X141526951Y-69650439D01*
X141519600Y-69650800D01*
X141369600Y-69650800D01*
X141362249Y-69650439D01*
X141354968Y-69649359D01*
X141347829Y-69647571D01*
X141340899Y-69645091D01*
X141334245Y-69641944D01*
X141327932Y-69638160D01*
X141322021Y-69633776D01*
X141316567Y-69628833D01*
X141311624Y-69623379D01*
X141307240Y-69617468D01*
X141303456Y-69611155D01*
X141300309Y-69604501D01*
X141297829Y-69597571D01*
X141296041Y-69590432D01*
X141294961Y-69583151D01*
X141294600Y-69575800D01*
X141294600Y-68275800D01*
X141294961Y-68268449D01*
X141296041Y-68261168D01*
X141297829Y-68254029D01*
X141300309Y-68247099D01*
X141303456Y-68240445D01*
X141307240Y-68234132D01*
X141311624Y-68228221D01*
X141316567Y-68222767D01*
X141322021Y-68217824D01*
X141327932Y-68213440D01*
X141334245Y-68209656D01*
X141340899Y-68206509D01*
X141347829Y-68204029D01*
X141354968Y-68202241D01*
X141362249Y-68201161D01*
X141369600Y-68200800D01*
X141519600Y-68200800D01*
X141526951Y-68201161D01*
G37*
G04 #@! TD.AperFunction*
G04 #@! TA.AperFunction,SMDPad,CuDef*
G36*
X142026951Y-68201161D02*
G01*
X142034232Y-68202241D01*
X142041371Y-68204029D01*
X142048301Y-68206509D01*
X142054955Y-68209656D01*
X142061268Y-68213440D01*
X142067179Y-68217824D01*
X142072633Y-68222767D01*
X142077576Y-68228221D01*
X142081960Y-68234132D01*
X142085744Y-68240445D01*
X142088891Y-68247099D01*
X142091371Y-68254029D01*
X142093159Y-68261168D01*
X142094239Y-68268449D01*
X142094600Y-68275800D01*
X142094600Y-69575800D01*
X142094239Y-69583151D01*
X142093159Y-69590432D01*
X142091371Y-69597571D01*
X142088891Y-69604501D01*
X142085744Y-69611155D01*
X142081960Y-69617468D01*
X142077576Y-69623379D01*
X142072633Y-69628833D01*
X142067179Y-69633776D01*
X142061268Y-69638160D01*
X142054955Y-69641944D01*
X142048301Y-69645091D01*
X142041371Y-69647571D01*
X142034232Y-69649359D01*
X142026951Y-69650439D01*
X142019600Y-69650800D01*
X141869600Y-69650800D01*
X141862249Y-69650439D01*
X141854968Y-69649359D01*
X141847829Y-69647571D01*
X141840899Y-69645091D01*
X141834245Y-69641944D01*
X141827932Y-69638160D01*
X141822021Y-69633776D01*
X141816567Y-69628833D01*
X141811624Y-69623379D01*
X141807240Y-69617468D01*
X141803456Y-69611155D01*
X141800309Y-69604501D01*
X141797829Y-69597571D01*
X141796041Y-69590432D01*
X141794961Y-69583151D01*
X141794600Y-69575800D01*
X141794600Y-68275800D01*
X141794961Y-68268449D01*
X141796041Y-68261168D01*
X141797829Y-68254029D01*
X141800309Y-68247099D01*
X141803456Y-68240445D01*
X141807240Y-68234132D01*
X141811624Y-68228221D01*
X141816567Y-68222767D01*
X141822021Y-68217824D01*
X141827932Y-68213440D01*
X141834245Y-68209656D01*
X141840899Y-68206509D01*
X141847829Y-68204029D01*
X141854968Y-68202241D01*
X141862249Y-68201161D01*
X141869600Y-68200800D01*
X142019600Y-68200800D01*
X142026951Y-68201161D01*
G37*
G04 #@! TD.AperFunction*
D21*
X129637100Y-61198800D03*
X129637100Y-60248800D03*
X129637100Y-59298800D03*
X126217100Y-59298800D03*
X126217100Y-60248800D03*
X126217100Y-61198800D03*
G04 #@! TA.AperFunction,SMDPad,CuDef*
D15*
G36*
X123904510Y-72199202D02*
G01*
X123928735Y-72202795D01*
X123952491Y-72208746D01*
X123975549Y-72216996D01*
X123997687Y-72227467D01*
X124018693Y-72240057D01*
X124038363Y-72254645D01*
X124056508Y-72271092D01*
X124072955Y-72289237D01*
X124087543Y-72308907D01*
X124100133Y-72329913D01*
X124110604Y-72352051D01*
X124118854Y-72375109D01*
X124124805Y-72398865D01*
X124128398Y-72423090D01*
X124129600Y-72447550D01*
X124129600Y-73348450D01*
X124128398Y-73372910D01*
X124124805Y-73397135D01*
X124118854Y-73420891D01*
X124110604Y-73443949D01*
X124100133Y-73466087D01*
X124087543Y-73487093D01*
X124072955Y-73506763D01*
X124056508Y-73524908D01*
X124038363Y-73541355D01*
X124018693Y-73555943D01*
X123997687Y-73568533D01*
X123975549Y-73579004D01*
X123952491Y-73587254D01*
X123928735Y-73593205D01*
X123904510Y-73596798D01*
X123880050Y-73598000D01*
X123229150Y-73598000D01*
X123204690Y-73596798D01*
X123180465Y-73593205D01*
X123156709Y-73587254D01*
X123133651Y-73579004D01*
X123111513Y-73568533D01*
X123090507Y-73555943D01*
X123070837Y-73541355D01*
X123052692Y-73524908D01*
X123036245Y-73506763D01*
X123021657Y-73487093D01*
X123009067Y-73466087D01*
X122998596Y-73443949D01*
X122990346Y-73420891D01*
X122984395Y-73397135D01*
X122980802Y-73372910D01*
X122979600Y-73348450D01*
X122979600Y-72447550D01*
X122980802Y-72423090D01*
X122984395Y-72398865D01*
X122990346Y-72375109D01*
X122998596Y-72352051D01*
X123009067Y-72329913D01*
X123021657Y-72308907D01*
X123036245Y-72289237D01*
X123052692Y-72271092D01*
X123070837Y-72254645D01*
X123090507Y-72240057D01*
X123111513Y-72227467D01*
X123133651Y-72216996D01*
X123156709Y-72208746D01*
X123180465Y-72202795D01*
X123204690Y-72199202D01*
X123229150Y-72198000D01*
X123880050Y-72198000D01*
X123904510Y-72199202D01*
G37*
G04 #@! TD.AperFunction*
G04 #@! TA.AperFunction,SMDPad,CuDef*
G36*
X121854510Y-72199202D02*
G01*
X121878735Y-72202795D01*
X121902491Y-72208746D01*
X121925549Y-72216996D01*
X121947687Y-72227467D01*
X121968693Y-72240057D01*
X121988363Y-72254645D01*
X122006508Y-72271092D01*
X122022955Y-72289237D01*
X122037543Y-72308907D01*
X122050133Y-72329913D01*
X122060604Y-72352051D01*
X122068854Y-72375109D01*
X122074805Y-72398865D01*
X122078398Y-72423090D01*
X122079600Y-72447550D01*
X122079600Y-73348450D01*
X122078398Y-73372910D01*
X122074805Y-73397135D01*
X122068854Y-73420891D01*
X122060604Y-73443949D01*
X122050133Y-73466087D01*
X122037543Y-73487093D01*
X122022955Y-73506763D01*
X122006508Y-73524908D01*
X121988363Y-73541355D01*
X121968693Y-73555943D01*
X121947687Y-73568533D01*
X121925549Y-73579004D01*
X121902491Y-73587254D01*
X121878735Y-73593205D01*
X121854510Y-73596798D01*
X121830050Y-73598000D01*
X121179150Y-73598000D01*
X121154690Y-73596798D01*
X121130465Y-73593205D01*
X121106709Y-73587254D01*
X121083651Y-73579004D01*
X121061513Y-73568533D01*
X121040507Y-73555943D01*
X121020837Y-73541355D01*
X121002692Y-73524908D01*
X120986245Y-73506763D01*
X120971657Y-73487093D01*
X120959067Y-73466087D01*
X120948596Y-73443949D01*
X120940346Y-73420891D01*
X120934395Y-73397135D01*
X120930802Y-73372910D01*
X120929600Y-73348450D01*
X120929600Y-72447550D01*
X120930802Y-72423090D01*
X120934395Y-72398865D01*
X120940346Y-72375109D01*
X120948596Y-72352051D01*
X120959067Y-72329913D01*
X120971657Y-72308907D01*
X120986245Y-72289237D01*
X121002692Y-72271092D01*
X121020837Y-72254645D01*
X121040507Y-72240057D01*
X121061513Y-72227467D01*
X121083651Y-72216996D01*
X121106709Y-72208746D01*
X121130465Y-72202795D01*
X121154690Y-72199202D01*
X121179150Y-72198000D01*
X121830050Y-72198000D01*
X121854510Y-72199202D01*
G37*
G04 #@! TD.AperFunction*
G04 #@! TA.AperFunction,SMDPad,CuDef*
G36*
X119905710Y-77353402D02*
G01*
X119929935Y-77356995D01*
X119953691Y-77362946D01*
X119976749Y-77371196D01*
X119998887Y-77381667D01*
X120019893Y-77394257D01*
X120039563Y-77408845D01*
X120057708Y-77425292D01*
X120074155Y-77443437D01*
X120088743Y-77463107D01*
X120101333Y-77484113D01*
X120111804Y-77506251D01*
X120120054Y-77529309D01*
X120126005Y-77553065D01*
X120129598Y-77577290D01*
X120130800Y-77601750D01*
X120130800Y-78252650D01*
X120129598Y-78277110D01*
X120126005Y-78301335D01*
X120120054Y-78325091D01*
X120111804Y-78348149D01*
X120101333Y-78370287D01*
X120088743Y-78391293D01*
X120074155Y-78410963D01*
X120057708Y-78429108D01*
X120039563Y-78445555D01*
X120019893Y-78460143D01*
X119998887Y-78472733D01*
X119976749Y-78483204D01*
X119953691Y-78491454D01*
X119929935Y-78497405D01*
X119905710Y-78500998D01*
X119881250Y-78502200D01*
X118980350Y-78502200D01*
X118955890Y-78500998D01*
X118931665Y-78497405D01*
X118907909Y-78491454D01*
X118884851Y-78483204D01*
X118862713Y-78472733D01*
X118841707Y-78460143D01*
X118822037Y-78445555D01*
X118803892Y-78429108D01*
X118787445Y-78410963D01*
X118772857Y-78391293D01*
X118760267Y-78370287D01*
X118749796Y-78348149D01*
X118741546Y-78325091D01*
X118735595Y-78301335D01*
X118732002Y-78277110D01*
X118730800Y-78252650D01*
X118730800Y-77601750D01*
X118732002Y-77577290D01*
X118735595Y-77553065D01*
X118741546Y-77529309D01*
X118749796Y-77506251D01*
X118760267Y-77484113D01*
X118772857Y-77463107D01*
X118787445Y-77443437D01*
X118803892Y-77425292D01*
X118822037Y-77408845D01*
X118841707Y-77394257D01*
X118862713Y-77381667D01*
X118884851Y-77371196D01*
X118907909Y-77362946D01*
X118931665Y-77356995D01*
X118955890Y-77353402D01*
X118980350Y-77352200D01*
X119881250Y-77352200D01*
X119905710Y-77353402D01*
G37*
G04 #@! TD.AperFunction*
G04 #@! TA.AperFunction,SMDPad,CuDef*
G36*
X119905710Y-75303402D02*
G01*
X119929935Y-75306995D01*
X119953691Y-75312946D01*
X119976749Y-75321196D01*
X119998887Y-75331667D01*
X120019893Y-75344257D01*
X120039563Y-75358845D01*
X120057708Y-75375292D01*
X120074155Y-75393437D01*
X120088743Y-75413107D01*
X120101333Y-75434113D01*
X120111804Y-75456251D01*
X120120054Y-75479309D01*
X120126005Y-75503065D01*
X120129598Y-75527290D01*
X120130800Y-75551750D01*
X120130800Y-76202650D01*
X120129598Y-76227110D01*
X120126005Y-76251335D01*
X120120054Y-76275091D01*
X120111804Y-76298149D01*
X120101333Y-76320287D01*
X120088743Y-76341293D01*
X120074155Y-76360963D01*
X120057708Y-76379108D01*
X120039563Y-76395555D01*
X120019893Y-76410143D01*
X119998887Y-76422733D01*
X119976749Y-76433204D01*
X119953691Y-76441454D01*
X119929935Y-76447405D01*
X119905710Y-76450998D01*
X119881250Y-76452200D01*
X118980350Y-76452200D01*
X118955890Y-76450998D01*
X118931665Y-76447405D01*
X118907909Y-76441454D01*
X118884851Y-76433204D01*
X118862713Y-76422733D01*
X118841707Y-76410143D01*
X118822037Y-76395555D01*
X118803892Y-76379108D01*
X118787445Y-76360963D01*
X118772857Y-76341293D01*
X118760267Y-76320287D01*
X118749796Y-76298149D01*
X118741546Y-76275091D01*
X118735595Y-76251335D01*
X118732002Y-76227110D01*
X118730800Y-76202650D01*
X118730800Y-75551750D01*
X118732002Y-75527290D01*
X118735595Y-75503065D01*
X118741546Y-75479309D01*
X118749796Y-75456251D01*
X118760267Y-75434113D01*
X118772857Y-75413107D01*
X118787445Y-75393437D01*
X118803892Y-75375292D01*
X118822037Y-75358845D01*
X118841707Y-75344257D01*
X118862713Y-75331667D01*
X118884851Y-75321196D01*
X118907909Y-75312946D01*
X118931665Y-75306995D01*
X118955890Y-75303402D01*
X118980350Y-75302200D01*
X119881250Y-75302200D01*
X119905710Y-75303402D01*
G37*
G04 #@! TD.AperFunction*
G04 #@! TA.AperFunction,SMDPad,CuDef*
G36*
X117695910Y-76319402D02*
G01*
X117720135Y-76322995D01*
X117743891Y-76328946D01*
X117766949Y-76337196D01*
X117789087Y-76347667D01*
X117810093Y-76360257D01*
X117829763Y-76374845D01*
X117847908Y-76391292D01*
X117864355Y-76409437D01*
X117878943Y-76429107D01*
X117891533Y-76450113D01*
X117902004Y-76472251D01*
X117910254Y-76495309D01*
X117916205Y-76519065D01*
X117919798Y-76543290D01*
X117921000Y-76567750D01*
X117921000Y-77218650D01*
X117919798Y-77243110D01*
X117916205Y-77267335D01*
X117910254Y-77291091D01*
X117902004Y-77314149D01*
X117891533Y-77336287D01*
X117878943Y-77357293D01*
X117864355Y-77376963D01*
X117847908Y-77395108D01*
X117829763Y-77411555D01*
X117810093Y-77426143D01*
X117789087Y-77438733D01*
X117766949Y-77449204D01*
X117743891Y-77457454D01*
X117720135Y-77463405D01*
X117695910Y-77466998D01*
X117671450Y-77468200D01*
X116770550Y-77468200D01*
X116746090Y-77466998D01*
X116721865Y-77463405D01*
X116698109Y-77457454D01*
X116675051Y-77449204D01*
X116652913Y-77438733D01*
X116631907Y-77426143D01*
X116612237Y-77411555D01*
X116594092Y-77395108D01*
X116577645Y-77376963D01*
X116563057Y-77357293D01*
X116550467Y-77336287D01*
X116539996Y-77314149D01*
X116531746Y-77291091D01*
X116525795Y-77267335D01*
X116522202Y-77243110D01*
X116521000Y-77218650D01*
X116521000Y-76567750D01*
X116522202Y-76543290D01*
X116525795Y-76519065D01*
X116531746Y-76495309D01*
X116539996Y-76472251D01*
X116550467Y-76450113D01*
X116563057Y-76429107D01*
X116577645Y-76409437D01*
X116594092Y-76391292D01*
X116612237Y-76374845D01*
X116631907Y-76360257D01*
X116652913Y-76347667D01*
X116675051Y-76337196D01*
X116698109Y-76328946D01*
X116721865Y-76322995D01*
X116746090Y-76319402D01*
X116770550Y-76318200D01*
X117671450Y-76318200D01*
X117695910Y-76319402D01*
G37*
G04 #@! TD.AperFunction*
G04 #@! TA.AperFunction,SMDPad,CuDef*
G36*
X117695910Y-78369402D02*
G01*
X117720135Y-78372995D01*
X117743891Y-78378946D01*
X117766949Y-78387196D01*
X117789087Y-78397667D01*
X117810093Y-78410257D01*
X117829763Y-78424845D01*
X117847908Y-78441292D01*
X117864355Y-78459437D01*
X117878943Y-78479107D01*
X117891533Y-78500113D01*
X117902004Y-78522251D01*
X117910254Y-78545309D01*
X117916205Y-78569065D01*
X117919798Y-78593290D01*
X117921000Y-78617750D01*
X117921000Y-79268650D01*
X117919798Y-79293110D01*
X117916205Y-79317335D01*
X117910254Y-79341091D01*
X117902004Y-79364149D01*
X117891533Y-79386287D01*
X117878943Y-79407293D01*
X117864355Y-79426963D01*
X117847908Y-79445108D01*
X117829763Y-79461555D01*
X117810093Y-79476143D01*
X117789087Y-79488733D01*
X117766949Y-79499204D01*
X117743891Y-79507454D01*
X117720135Y-79513405D01*
X117695910Y-79516998D01*
X117671450Y-79518200D01*
X116770550Y-79518200D01*
X116746090Y-79516998D01*
X116721865Y-79513405D01*
X116698109Y-79507454D01*
X116675051Y-79499204D01*
X116652913Y-79488733D01*
X116631907Y-79476143D01*
X116612237Y-79461555D01*
X116594092Y-79445108D01*
X116577645Y-79426963D01*
X116563057Y-79407293D01*
X116550467Y-79386287D01*
X116539996Y-79364149D01*
X116531746Y-79341091D01*
X116525795Y-79317335D01*
X116522202Y-79293110D01*
X116521000Y-79268650D01*
X116521000Y-78617750D01*
X116522202Y-78593290D01*
X116525795Y-78569065D01*
X116531746Y-78545309D01*
X116539996Y-78522251D01*
X116550467Y-78500113D01*
X116563057Y-78479107D01*
X116577645Y-78459437D01*
X116594092Y-78441292D01*
X116612237Y-78424845D01*
X116631907Y-78410257D01*
X116652913Y-78397667D01*
X116675051Y-78387196D01*
X116698109Y-78378946D01*
X116721865Y-78372995D01*
X116746090Y-78369402D01*
X116770550Y-78368200D01*
X117671450Y-78368200D01*
X117695910Y-78369402D01*
G37*
G04 #@! TD.AperFunction*
G04 #@! TA.AperFunction,SMDPad,CuDef*
G36*
X101200379Y-63292344D02*
G01*
X101223434Y-63295763D01*
X101246043Y-63301427D01*
X101267987Y-63309279D01*
X101289057Y-63319244D01*
X101309048Y-63331226D01*
X101327768Y-63345110D01*
X101345038Y-63360762D01*
X101360690Y-63378032D01*
X101374574Y-63396752D01*
X101386556Y-63416743D01*
X101396521Y-63437813D01*
X101404373Y-63459757D01*
X101410037Y-63482366D01*
X101413456Y-63505421D01*
X101414600Y-63528700D01*
X101414600Y-64103700D01*
X101413456Y-64126979D01*
X101410037Y-64150034D01*
X101404373Y-64172643D01*
X101396521Y-64194587D01*
X101386556Y-64215657D01*
X101374574Y-64235648D01*
X101360690Y-64254368D01*
X101345038Y-64271638D01*
X101327768Y-64287290D01*
X101309048Y-64301174D01*
X101289057Y-64313156D01*
X101267987Y-64323121D01*
X101246043Y-64330973D01*
X101223434Y-64336637D01*
X101200379Y-64340056D01*
X101177100Y-64341200D01*
X100702100Y-64341200D01*
X100678821Y-64340056D01*
X100655766Y-64336637D01*
X100633157Y-64330973D01*
X100611213Y-64323121D01*
X100590143Y-64313156D01*
X100570152Y-64301174D01*
X100551432Y-64287290D01*
X100534162Y-64271638D01*
X100518510Y-64254368D01*
X100504626Y-64235648D01*
X100492644Y-64215657D01*
X100482679Y-64194587D01*
X100474827Y-64172643D01*
X100469163Y-64150034D01*
X100465744Y-64126979D01*
X100464600Y-64103700D01*
X100464600Y-63528700D01*
X100465744Y-63505421D01*
X100469163Y-63482366D01*
X100474827Y-63459757D01*
X100482679Y-63437813D01*
X100492644Y-63416743D01*
X100504626Y-63396752D01*
X100518510Y-63378032D01*
X100534162Y-63360762D01*
X100551432Y-63345110D01*
X100570152Y-63331226D01*
X100590143Y-63319244D01*
X100611213Y-63309279D01*
X100633157Y-63301427D01*
X100655766Y-63295763D01*
X100678821Y-63292344D01*
X100702100Y-63291200D01*
X101177100Y-63291200D01*
X101200379Y-63292344D01*
G37*
G04 #@! TD.AperFunction*
G04 #@! TA.AperFunction,SMDPad,CuDef*
G36*
X101200379Y-61542344D02*
G01*
X101223434Y-61545763D01*
X101246043Y-61551427D01*
X101267987Y-61559279D01*
X101289057Y-61569244D01*
X101309048Y-61581226D01*
X101327768Y-61595110D01*
X101345038Y-61610762D01*
X101360690Y-61628032D01*
X101374574Y-61646752D01*
X101386556Y-61666743D01*
X101396521Y-61687813D01*
X101404373Y-61709757D01*
X101410037Y-61732366D01*
X101413456Y-61755421D01*
X101414600Y-61778700D01*
X101414600Y-62353700D01*
X101413456Y-62376979D01*
X101410037Y-62400034D01*
X101404373Y-62422643D01*
X101396521Y-62444587D01*
X101386556Y-62465657D01*
X101374574Y-62485648D01*
X101360690Y-62504368D01*
X101345038Y-62521638D01*
X101327768Y-62537290D01*
X101309048Y-62551174D01*
X101289057Y-62563156D01*
X101267987Y-62573121D01*
X101246043Y-62580973D01*
X101223434Y-62586637D01*
X101200379Y-62590056D01*
X101177100Y-62591200D01*
X100702100Y-62591200D01*
X100678821Y-62590056D01*
X100655766Y-62586637D01*
X100633157Y-62580973D01*
X100611213Y-62573121D01*
X100590143Y-62563156D01*
X100570152Y-62551174D01*
X100551432Y-62537290D01*
X100534162Y-62521638D01*
X100518510Y-62504368D01*
X100504626Y-62485648D01*
X100492644Y-62465657D01*
X100482679Y-62444587D01*
X100474827Y-62422643D01*
X100469163Y-62400034D01*
X100465744Y-62376979D01*
X100464600Y-62353700D01*
X100464600Y-61778700D01*
X100465744Y-61755421D01*
X100469163Y-61732366D01*
X100474827Y-61709757D01*
X100482679Y-61687813D01*
X100492644Y-61666743D01*
X100504626Y-61646752D01*
X100518510Y-61628032D01*
X100534162Y-61610762D01*
X100551432Y-61595110D01*
X100570152Y-61581226D01*
X100590143Y-61569244D01*
X100611213Y-61559279D01*
X100633157Y-61551427D01*
X100655766Y-61545763D01*
X100678821Y-61542344D01*
X100702100Y-61541200D01*
X101177100Y-61541200D01*
X101200379Y-61542344D01*
G37*
G04 #@! TD.AperFunction*
G04 #@! TA.AperFunction,SMDPad,CuDef*
G36*
X98910910Y-61632802D02*
G01*
X98935135Y-61636395D01*
X98958891Y-61642346D01*
X98981949Y-61650596D01*
X99004087Y-61661067D01*
X99025093Y-61673657D01*
X99044763Y-61688245D01*
X99062908Y-61704692D01*
X99079355Y-61722837D01*
X99093943Y-61742507D01*
X99106533Y-61763513D01*
X99117004Y-61785651D01*
X99125254Y-61808709D01*
X99131205Y-61832465D01*
X99134798Y-61856690D01*
X99136000Y-61881150D01*
X99136000Y-62782050D01*
X99134798Y-62806510D01*
X99131205Y-62830735D01*
X99125254Y-62854491D01*
X99117004Y-62877549D01*
X99106533Y-62899687D01*
X99093943Y-62920693D01*
X99079355Y-62940363D01*
X99062908Y-62958508D01*
X99044763Y-62974955D01*
X99025093Y-62989543D01*
X99004087Y-63002133D01*
X98981949Y-63012604D01*
X98958891Y-63020854D01*
X98935135Y-63026805D01*
X98910910Y-63030398D01*
X98886450Y-63031600D01*
X98235550Y-63031600D01*
X98211090Y-63030398D01*
X98186865Y-63026805D01*
X98163109Y-63020854D01*
X98140051Y-63012604D01*
X98117913Y-63002133D01*
X98096907Y-62989543D01*
X98077237Y-62974955D01*
X98059092Y-62958508D01*
X98042645Y-62940363D01*
X98028057Y-62920693D01*
X98015467Y-62899687D01*
X98004996Y-62877549D01*
X97996746Y-62854491D01*
X97990795Y-62830735D01*
X97987202Y-62806510D01*
X97986000Y-62782050D01*
X97986000Y-61881150D01*
X97987202Y-61856690D01*
X97990795Y-61832465D01*
X97996746Y-61808709D01*
X98004996Y-61785651D01*
X98015467Y-61763513D01*
X98028057Y-61742507D01*
X98042645Y-61722837D01*
X98059092Y-61704692D01*
X98077237Y-61688245D01*
X98096907Y-61673657D01*
X98117913Y-61661067D01*
X98140051Y-61650596D01*
X98163109Y-61642346D01*
X98186865Y-61636395D01*
X98211090Y-61632802D01*
X98235550Y-61631600D01*
X98886450Y-61631600D01*
X98910910Y-61632802D01*
G37*
G04 #@! TD.AperFunction*
G04 #@! TA.AperFunction,SMDPad,CuDef*
G36*
X96860910Y-61632802D02*
G01*
X96885135Y-61636395D01*
X96908891Y-61642346D01*
X96931949Y-61650596D01*
X96954087Y-61661067D01*
X96975093Y-61673657D01*
X96994763Y-61688245D01*
X97012908Y-61704692D01*
X97029355Y-61722837D01*
X97043943Y-61742507D01*
X97056533Y-61763513D01*
X97067004Y-61785651D01*
X97075254Y-61808709D01*
X97081205Y-61832465D01*
X97084798Y-61856690D01*
X97086000Y-61881150D01*
X97086000Y-62782050D01*
X97084798Y-62806510D01*
X97081205Y-62830735D01*
X97075254Y-62854491D01*
X97067004Y-62877549D01*
X97056533Y-62899687D01*
X97043943Y-62920693D01*
X97029355Y-62940363D01*
X97012908Y-62958508D01*
X96994763Y-62974955D01*
X96975093Y-62989543D01*
X96954087Y-63002133D01*
X96931949Y-63012604D01*
X96908891Y-63020854D01*
X96885135Y-63026805D01*
X96860910Y-63030398D01*
X96836450Y-63031600D01*
X96185550Y-63031600D01*
X96161090Y-63030398D01*
X96136865Y-63026805D01*
X96113109Y-63020854D01*
X96090051Y-63012604D01*
X96067913Y-63002133D01*
X96046907Y-62989543D01*
X96027237Y-62974955D01*
X96009092Y-62958508D01*
X95992645Y-62940363D01*
X95978057Y-62920693D01*
X95965467Y-62899687D01*
X95954996Y-62877549D01*
X95946746Y-62854491D01*
X95940795Y-62830735D01*
X95937202Y-62806510D01*
X95936000Y-62782050D01*
X95936000Y-61881150D01*
X95937202Y-61856690D01*
X95940795Y-61832465D01*
X95946746Y-61808709D01*
X95954996Y-61785651D01*
X95965467Y-61763513D01*
X95978057Y-61742507D01*
X95992645Y-61722837D01*
X96009092Y-61704692D01*
X96027237Y-61688245D01*
X96046907Y-61673657D01*
X96067913Y-61661067D01*
X96090051Y-61650596D01*
X96113109Y-61642346D01*
X96136865Y-61636395D01*
X96161090Y-61632802D01*
X96185550Y-61631600D01*
X96836450Y-61631600D01*
X96860910Y-61632802D01*
G37*
G04 #@! TD.AperFunction*
D17*
X115443000Y-61366400D03*
D22*
X115443000Y-62382400D03*
D17*
X115443000Y-63398400D03*
X112395000Y-60071000D03*
D18*
X113411000Y-60071000D03*
D17*
X114427000Y-60071000D03*
D20*
X123933600Y-79146400D03*
X121633600Y-79146400D03*
X126866000Y-81889600D03*
X129166000Y-81889600D03*
X107315000Y-74211800D03*
X107315000Y-76511800D03*
X105194100Y-80396700D03*
X105194100Y-82696700D03*
X102659800Y-76809600D03*
X104959800Y-76809600D03*
X98990800Y-76809600D03*
X96690800Y-76809600D03*
D23*
X121284400Y-74899200D03*
X121284400Y-75399200D03*
X121284400Y-75899200D03*
X121284400Y-76399200D03*
X121284400Y-76899200D03*
X124384400Y-76899200D03*
X124384400Y-76399200D03*
X124384400Y-75899200D03*
X124384400Y-75399200D03*
X124384400Y-74899200D03*
D24*
X122834400Y-76149200D03*
D23*
X121284400Y-77399200D03*
X124384400Y-77399200D03*
D25*
X118360200Y-83604100D03*
X118360200Y-84554100D03*
X118360200Y-82654100D03*
X121060200Y-82654100D03*
X121060200Y-83604100D03*
X121060200Y-84554100D03*
G04 #@! TA.AperFunction,SMDPad,CuDef*
D15*
G36*
X113985351Y-61134161D02*
G01*
X113992632Y-61135241D01*
X113999771Y-61137029D01*
X114006701Y-61139509D01*
X114013355Y-61142656D01*
X114019668Y-61146440D01*
X114025579Y-61150824D01*
X114031033Y-61155767D01*
X114035976Y-61161221D01*
X114040360Y-61167132D01*
X114044144Y-61173445D01*
X114047291Y-61180099D01*
X114049771Y-61187029D01*
X114051559Y-61194168D01*
X114052639Y-61201449D01*
X114053000Y-61208800D01*
X114053000Y-62508800D01*
X114052639Y-62516151D01*
X114051559Y-62523432D01*
X114049771Y-62530571D01*
X114047291Y-62537501D01*
X114044144Y-62544155D01*
X114040360Y-62550468D01*
X114035976Y-62556379D01*
X114031033Y-62561833D01*
X114025579Y-62566776D01*
X114019668Y-62571160D01*
X114013355Y-62574944D01*
X114006701Y-62578091D01*
X113999771Y-62580571D01*
X113992632Y-62582359D01*
X113985351Y-62583439D01*
X113978000Y-62583800D01*
X113828000Y-62583800D01*
X113820649Y-62583439D01*
X113813368Y-62582359D01*
X113806229Y-62580571D01*
X113799299Y-62578091D01*
X113792645Y-62574944D01*
X113786332Y-62571160D01*
X113780421Y-62566776D01*
X113774967Y-62561833D01*
X113770024Y-62556379D01*
X113765640Y-62550468D01*
X113761856Y-62544155D01*
X113758709Y-62537501D01*
X113756229Y-62530571D01*
X113754441Y-62523432D01*
X113753361Y-62516151D01*
X113753000Y-62508800D01*
X113753000Y-61208800D01*
X113753361Y-61201449D01*
X113754441Y-61194168D01*
X113756229Y-61187029D01*
X113758709Y-61180099D01*
X113761856Y-61173445D01*
X113765640Y-61167132D01*
X113770024Y-61161221D01*
X113774967Y-61155767D01*
X113780421Y-61150824D01*
X113786332Y-61146440D01*
X113792645Y-61142656D01*
X113799299Y-61139509D01*
X113806229Y-61137029D01*
X113813368Y-61135241D01*
X113820649Y-61134161D01*
X113828000Y-61133800D01*
X113978000Y-61133800D01*
X113985351Y-61134161D01*
G37*
G04 #@! TD.AperFunction*
G04 #@! TA.AperFunction,SMDPad,CuDef*
G36*
X113485351Y-61134161D02*
G01*
X113492632Y-61135241D01*
X113499771Y-61137029D01*
X113506701Y-61139509D01*
X113513355Y-61142656D01*
X113519668Y-61146440D01*
X113525579Y-61150824D01*
X113531033Y-61155767D01*
X113535976Y-61161221D01*
X113540360Y-61167132D01*
X113544144Y-61173445D01*
X113547291Y-61180099D01*
X113549771Y-61187029D01*
X113551559Y-61194168D01*
X113552639Y-61201449D01*
X113553000Y-61208800D01*
X113553000Y-62508800D01*
X113552639Y-62516151D01*
X113551559Y-62523432D01*
X113549771Y-62530571D01*
X113547291Y-62537501D01*
X113544144Y-62544155D01*
X113540360Y-62550468D01*
X113535976Y-62556379D01*
X113531033Y-62561833D01*
X113525579Y-62566776D01*
X113519668Y-62571160D01*
X113513355Y-62574944D01*
X113506701Y-62578091D01*
X113499771Y-62580571D01*
X113492632Y-62582359D01*
X113485351Y-62583439D01*
X113478000Y-62583800D01*
X113328000Y-62583800D01*
X113320649Y-62583439D01*
X113313368Y-62582359D01*
X113306229Y-62580571D01*
X113299299Y-62578091D01*
X113292645Y-62574944D01*
X113286332Y-62571160D01*
X113280421Y-62566776D01*
X113274967Y-62561833D01*
X113270024Y-62556379D01*
X113265640Y-62550468D01*
X113261856Y-62544155D01*
X113258709Y-62537501D01*
X113256229Y-62530571D01*
X113254441Y-62523432D01*
X113253361Y-62516151D01*
X113253000Y-62508800D01*
X113253000Y-61208800D01*
X113253361Y-61201449D01*
X113254441Y-61194168D01*
X113256229Y-61187029D01*
X113258709Y-61180099D01*
X113261856Y-61173445D01*
X113265640Y-61167132D01*
X113270024Y-61161221D01*
X113274967Y-61155767D01*
X113280421Y-61150824D01*
X113286332Y-61146440D01*
X113292645Y-61142656D01*
X113299299Y-61139509D01*
X113306229Y-61137029D01*
X113313368Y-61135241D01*
X113320649Y-61134161D01*
X113328000Y-61133800D01*
X113478000Y-61133800D01*
X113485351Y-61134161D01*
G37*
G04 #@! TD.AperFunction*
G04 #@! TA.AperFunction,SMDPad,CuDef*
G36*
X112985351Y-61134161D02*
G01*
X112992632Y-61135241D01*
X112999771Y-61137029D01*
X113006701Y-61139509D01*
X113013355Y-61142656D01*
X113019668Y-61146440D01*
X113025579Y-61150824D01*
X113031033Y-61155767D01*
X113035976Y-61161221D01*
X113040360Y-61167132D01*
X113044144Y-61173445D01*
X113047291Y-61180099D01*
X113049771Y-61187029D01*
X113051559Y-61194168D01*
X113052639Y-61201449D01*
X113053000Y-61208800D01*
X113053000Y-62508800D01*
X113052639Y-62516151D01*
X113051559Y-62523432D01*
X113049771Y-62530571D01*
X113047291Y-62537501D01*
X113044144Y-62544155D01*
X113040360Y-62550468D01*
X113035976Y-62556379D01*
X113031033Y-62561833D01*
X113025579Y-62566776D01*
X113019668Y-62571160D01*
X113013355Y-62574944D01*
X113006701Y-62578091D01*
X112999771Y-62580571D01*
X112992632Y-62582359D01*
X112985351Y-62583439D01*
X112978000Y-62583800D01*
X112828000Y-62583800D01*
X112820649Y-62583439D01*
X112813368Y-62582359D01*
X112806229Y-62580571D01*
X112799299Y-62578091D01*
X112792645Y-62574944D01*
X112786332Y-62571160D01*
X112780421Y-62566776D01*
X112774967Y-62561833D01*
X112770024Y-62556379D01*
X112765640Y-62550468D01*
X112761856Y-62544155D01*
X112758709Y-62537501D01*
X112756229Y-62530571D01*
X112754441Y-62523432D01*
X112753361Y-62516151D01*
X112753000Y-62508800D01*
X112753000Y-61208800D01*
X112753361Y-61201449D01*
X112754441Y-61194168D01*
X112756229Y-61187029D01*
X112758709Y-61180099D01*
X112761856Y-61173445D01*
X112765640Y-61167132D01*
X112770024Y-61161221D01*
X112774967Y-61155767D01*
X112780421Y-61150824D01*
X112786332Y-61146440D01*
X112792645Y-61142656D01*
X112799299Y-61139509D01*
X112806229Y-61137029D01*
X112813368Y-61135241D01*
X112820649Y-61134161D01*
X112828000Y-61133800D01*
X112978000Y-61133800D01*
X112985351Y-61134161D01*
G37*
G04 #@! TD.AperFunction*
G04 #@! TA.AperFunction,SMDPad,CuDef*
G36*
X112485351Y-61134161D02*
G01*
X112492632Y-61135241D01*
X112499771Y-61137029D01*
X112506701Y-61139509D01*
X112513355Y-61142656D01*
X112519668Y-61146440D01*
X112525579Y-61150824D01*
X112531033Y-61155767D01*
X112535976Y-61161221D01*
X112540360Y-61167132D01*
X112544144Y-61173445D01*
X112547291Y-61180099D01*
X112549771Y-61187029D01*
X112551559Y-61194168D01*
X112552639Y-61201449D01*
X112553000Y-61208800D01*
X112553000Y-62508800D01*
X112552639Y-62516151D01*
X112551559Y-62523432D01*
X112549771Y-62530571D01*
X112547291Y-62537501D01*
X112544144Y-62544155D01*
X112540360Y-62550468D01*
X112535976Y-62556379D01*
X112531033Y-62561833D01*
X112525579Y-62566776D01*
X112519668Y-62571160D01*
X112513355Y-62574944D01*
X112506701Y-62578091D01*
X112499771Y-62580571D01*
X112492632Y-62582359D01*
X112485351Y-62583439D01*
X112478000Y-62583800D01*
X112328000Y-62583800D01*
X112320649Y-62583439D01*
X112313368Y-62582359D01*
X112306229Y-62580571D01*
X112299299Y-62578091D01*
X112292645Y-62574944D01*
X112286332Y-62571160D01*
X112280421Y-62566776D01*
X112274967Y-62561833D01*
X112270024Y-62556379D01*
X112265640Y-62550468D01*
X112261856Y-62544155D01*
X112258709Y-62537501D01*
X112256229Y-62530571D01*
X112254441Y-62523432D01*
X112253361Y-62516151D01*
X112253000Y-62508800D01*
X112253000Y-61208800D01*
X112253361Y-61201449D01*
X112254441Y-61194168D01*
X112256229Y-61187029D01*
X112258709Y-61180099D01*
X112261856Y-61173445D01*
X112265640Y-61167132D01*
X112270024Y-61161221D01*
X112274967Y-61155767D01*
X112280421Y-61150824D01*
X112286332Y-61146440D01*
X112292645Y-61142656D01*
X112299299Y-61139509D01*
X112306229Y-61137029D01*
X112313368Y-61135241D01*
X112320649Y-61134161D01*
X112328000Y-61133800D01*
X112478000Y-61133800D01*
X112485351Y-61134161D01*
G37*
G04 #@! TD.AperFunction*
G04 #@! TA.AperFunction,SMDPad,CuDef*
G36*
X111985351Y-61134161D02*
G01*
X111992632Y-61135241D01*
X111999771Y-61137029D01*
X112006701Y-61139509D01*
X112013355Y-61142656D01*
X112019668Y-61146440D01*
X112025579Y-61150824D01*
X112031033Y-61155767D01*
X112035976Y-61161221D01*
X112040360Y-61167132D01*
X112044144Y-61173445D01*
X112047291Y-61180099D01*
X112049771Y-61187029D01*
X112051559Y-61194168D01*
X112052639Y-61201449D01*
X112053000Y-61208800D01*
X112053000Y-62508800D01*
X112052639Y-62516151D01*
X112051559Y-62523432D01*
X112049771Y-62530571D01*
X112047291Y-62537501D01*
X112044144Y-62544155D01*
X112040360Y-62550468D01*
X112035976Y-62556379D01*
X112031033Y-62561833D01*
X112025579Y-62566776D01*
X112019668Y-62571160D01*
X112013355Y-62574944D01*
X112006701Y-62578091D01*
X111999771Y-62580571D01*
X111992632Y-62582359D01*
X111985351Y-62583439D01*
X111978000Y-62583800D01*
X111828000Y-62583800D01*
X111820649Y-62583439D01*
X111813368Y-62582359D01*
X111806229Y-62580571D01*
X111799299Y-62578091D01*
X111792645Y-62574944D01*
X111786332Y-62571160D01*
X111780421Y-62566776D01*
X111774967Y-62561833D01*
X111770024Y-62556379D01*
X111765640Y-62550468D01*
X111761856Y-62544155D01*
X111758709Y-62537501D01*
X111756229Y-62530571D01*
X111754441Y-62523432D01*
X111753361Y-62516151D01*
X111753000Y-62508800D01*
X111753000Y-61208800D01*
X111753361Y-61201449D01*
X111754441Y-61194168D01*
X111756229Y-61187029D01*
X111758709Y-61180099D01*
X111761856Y-61173445D01*
X111765640Y-61167132D01*
X111770024Y-61161221D01*
X111774967Y-61155767D01*
X111780421Y-61150824D01*
X111786332Y-61146440D01*
X111792645Y-61142656D01*
X111799299Y-61139509D01*
X111806229Y-61137029D01*
X111813368Y-61135241D01*
X111820649Y-61134161D01*
X111828000Y-61133800D01*
X111978000Y-61133800D01*
X111985351Y-61134161D01*
G37*
G04 #@! TD.AperFunction*
G04 #@! TA.AperFunction,SMDPad,CuDef*
G36*
X111985351Y-65534161D02*
G01*
X111992632Y-65535241D01*
X111999771Y-65537029D01*
X112006701Y-65539509D01*
X112013355Y-65542656D01*
X112019668Y-65546440D01*
X112025579Y-65550824D01*
X112031033Y-65555767D01*
X112035976Y-65561221D01*
X112040360Y-65567132D01*
X112044144Y-65573445D01*
X112047291Y-65580099D01*
X112049771Y-65587029D01*
X112051559Y-65594168D01*
X112052639Y-65601449D01*
X112053000Y-65608800D01*
X112053000Y-66908800D01*
X112052639Y-66916151D01*
X112051559Y-66923432D01*
X112049771Y-66930571D01*
X112047291Y-66937501D01*
X112044144Y-66944155D01*
X112040360Y-66950468D01*
X112035976Y-66956379D01*
X112031033Y-66961833D01*
X112025579Y-66966776D01*
X112019668Y-66971160D01*
X112013355Y-66974944D01*
X112006701Y-66978091D01*
X111999771Y-66980571D01*
X111992632Y-66982359D01*
X111985351Y-66983439D01*
X111978000Y-66983800D01*
X111828000Y-66983800D01*
X111820649Y-66983439D01*
X111813368Y-66982359D01*
X111806229Y-66980571D01*
X111799299Y-66978091D01*
X111792645Y-66974944D01*
X111786332Y-66971160D01*
X111780421Y-66966776D01*
X111774967Y-66961833D01*
X111770024Y-66956379D01*
X111765640Y-66950468D01*
X111761856Y-66944155D01*
X111758709Y-66937501D01*
X111756229Y-66930571D01*
X111754441Y-66923432D01*
X111753361Y-66916151D01*
X111753000Y-66908800D01*
X111753000Y-65608800D01*
X111753361Y-65601449D01*
X111754441Y-65594168D01*
X111756229Y-65587029D01*
X111758709Y-65580099D01*
X111761856Y-65573445D01*
X111765640Y-65567132D01*
X111770024Y-65561221D01*
X111774967Y-65555767D01*
X111780421Y-65550824D01*
X111786332Y-65546440D01*
X111792645Y-65542656D01*
X111799299Y-65539509D01*
X111806229Y-65537029D01*
X111813368Y-65535241D01*
X111820649Y-65534161D01*
X111828000Y-65533800D01*
X111978000Y-65533800D01*
X111985351Y-65534161D01*
G37*
G04 #@! TD.AperFunction*
G04 #@! TA.AperFunction,SMDPad,CuDef*
G36*
X112485351Y-65534161D02*
G01*
X112492632Y-65535241D01*
X112499771Y-65537029D01*
X112506701Y-65539509D01*
X112513355Y-65542656D01*
X112519668Y-65546440D01*
X112525579Y-65550824D01*
X112531033Y-65555767D01*
X112535976Y-65561221D01*
X112540360Y-65567132D01*
X112544144Y-65573445D01*
X112547291Y-65580099D01*
X112549771Y-65587029D01*
X112551559Y-65594168D01*
X112552639Y-65601449D01*
X112553000Y-65608800D01*
X112553000Y-66908800D01*
X112552639Y-66916151D01*
X112551559Y-66923432D01*
X112549771Y-66930571D01*
X112547291Y-66937501D01*
X112544144Y-66944155D01*
X112540360Y-66950468D01*
X112535976Y-66956379D01*
X112531033Y-66961833D01*
X112525579Y-66966776D01*
X112519668Y-66971160D01*
X112513355Y-66974944D01*
X112506701Y-66978091D01*
X112499771Y-66980571D01*
X112492632Y-66982359D01*
X112485351Y-66983439D01*
X112478000Y-66983800D01*
X112328000Y-66983800D01*
X112320649Y-66983439D01*
X112313368Y-66982359D01*
X112306229Y-66980571D01*
X112299299Y-66978091D01*
X112292645Y-66974944D01*
X112286332Y-66971160D01*
X112280421Y-66966776D01*
X112274967Y-66961833D01*
X112270024Y-66956379D01*
X112265640Y-66950468D01*
X112261856Y-66944155D01*
X112258709Y-66937501D01*
X112256229Y-66930571D01*
X112254441Y-66923432D01*
X112253361Y-66916151D01*
X112253000Y-66908800D01*
X112253000Y-65608800D01*
X112253361Y-65601449D01*
X112254441Y-65594168D01*
X112256229Y-65587029D01*
X112258709Y-65580099D01*
X112261856Y-65573445D01*
X112265640Y-65567132D01*
X112270024Y-65561221D01*
X112274967Y-65555767D01*
X112280421Y-65550824D01*
X112286332Y-65546440D01*
X112292645Y-65542656D01*
X112299299Y-65539509D01*
X112306229Y-65537029D01*
X112313368Y-65535241D01*
X112320649Y-65534161D01*
X112328000Y-65533800D01*
X112478000Y-65533800D01*
X112485351Y-65534161D01*
G37*
G04 #@! TD.AperFunction*
G04 #@! TA.AperFunction,SMDPad,CuDef*
G36*
X112985351Y-65534161D02*
G01*
X112992632Y-65535241D01*
X112999771Y-65537029D01*
X113006701Y-65539509D01*
X113013355Y-65542656D01*
X113019668Y-65546440D01*
X113025579Y-65550824D01*
X113031033Y-65555767D01*
X113035976Y-65561221D01*
X113040360Y-65567132D01*
X113044144Y-65573445D01*
X113047291Y-65580099D01*
X113049771Y-65587029D01*
X113051559Y-65594168D01*
X113052639Y-65601449D01*
X113053000Y-65608800D01*
X113053000Y-66908800D01*
X113052639Y-66916151D01*
X113051559Y-66923432D01*
X113049771Y-66930571D01*
X113047291Y-66937501D01*
X113044144Y-66944155D01*
X113040360Y-66950468D01*
X113035976Y-66956379D01*
X113031033Y-66961833D01*
X113025579Y-66966776D01*
X113019668Y-66971160D01*
X113013355Y-66974944D01*
X113006701Y-66978091D01*
X112999771Y-66980571D01*
X112992632Y-66982359D01*
X112985351Y-66983439D01*
X112978000Y-66983800D01*
X112828000Y-66983800D01*
X112820649Y-66983439D01*
X112813368Y-66982359D01*
X112806229Y-66980571D01*
X112799299Y-66978091D01*
X112792645Y-66974944D01*
X112786332Y-66971160D01*
X112780421Y-66966776D01*
X112774967Y-66961833D01*
X112770024Y-66956379D01*
X112765640Y-66950468D01*
X112761856Y-66944155D01*
X112758709Y-66937501D01*
X112756229Y-66930571D01*
X112754441Y-66923432D01*
X112753361Y-66916151D01*
X112753000Y-66908800D01*
X112753000Y-65608800D01*
X112753361Y-65601449D01*
X112754441Y-65594168D01*
X112756229Y-65587029D01*
X112758709Y-65580099D01*
X112761856Y-65573445D01*
X112765640Y-65567132D01*
X112770024Y-65561221D01*
X112774967Y-65555767D01*
X112780421Y-65550824D01*
X112786332Y-65546440D01*
X112792645Y-65542656D01*
X112799299Y-65539509D01*
X112806229Y-65537029D01*
X112813368Y-65535241D01*
X112820649Y-65534161D01*
X112828000Y-65533800D01*
X112978000Y-65533800D01*
X112985351Y-65534161D01*
G37*
G04 #@! TD.AperFunction*
G04 #@! TA.AperFunction,SMDPad,CuDef*
G36*
X113485351Y-65534161D02*
G01*
X113492632Y-65535241D01*
X113499771Y-65537029D01*
X113506701Y-65539509D01*
X113513355Y-65542656D01*
X113519668Y-65546440D01*
X113525579Y-65550824D01*
X113531033Y-65555767D01*
X113535976Y-65561221D01*
X113540360Y-65567132D01*
X113544144Y-65573445D01*
X113547291Y-65580099D01*
X113549771Y-65587029D01*
X113551559Y-65594168D01*
X113552639Y-65601449D01*
X113553000Y-65608800D01*
X113553000Y-66908800D01*
X113552639Y-66916151D01*
X113551559Y-66923432D01*
X113549771Y-66930571D01*
X113547291Y-66937501D01*
X113544144Y-66944155D01*
X113540360Y-66950468D01*
X113535976Y-66956379D01*
X113531033Y-66961833D01*
X113525579Y-66966776D01*
X113519668Y-66971160D01*
X113513355Y-66974944D01*
X113506701Y-66978091D01*
X113499771Y-66980571D01*
X113492632Y-66982359D01*
X113485351Y-66983439D01*
X113478000Y-66983800D01*
X113328000Y-66983800D01*
X113320649Y-66983439D01*
X113313368Y-66982359D01*
X113306229Y-66980571D01*
X113299299Y-66978091D01*
X113292645Y-66974944D01*
X113286332Y-66971160D01*
X113280421Y-66966776D01*
X113274967Y-66961833D01*
X113270024Y-66956379D01*
X113265640Y-66950468D01*
X113261856Y-66944155D01*
X113258709Y-66937501D01*
X113256229Y-66930571D01*
X113254441Y-66923432D01*
X113253361Y-66916151D01*
X113253000Y-66908800D01*
X113253000Y-65608800D01*
X113253361Y-65601449D01*
X113254441Y-65594168D01*
X113256229Y-65587029D01*
X113258709Y-65580099D01*
X113261856Y-65573445D01*
X113265640Y-65567132D01*
X113270024Y-65561221D01*
X113274967Y-65555767D01*
X113280421Y-65550824D01*
X113286332Y-65546440D01*
X113292645Y-65542656D01*
X113299299Y-65539509D01*
X113306229Y-65537029D01*
X113313368Y-65535241D01*
X113320649Y-65534161D01*
X113328000Y-65533800D01*
X113478000Y-65533800D01*
X113485351Y-65534161D01*
G37*
G04 #@! TD.AperFunction*
G04 #@! TA.AperFunction,SMDPad,CuDef*
G36*
X113985351Y-65534161D02*
G01*
X113992632Y-65535241D01*
X113999771Y-65537029D01*
X114006701Y-65539509D01*
X114013355Y-65542656D01*
X114019668Y-65546440D01*
X114025579Y-65550824D01*
X114031033Y-65555767D01*
X114035976Y-65561221D01*
X114040360Y-65567132D01*
X114044144Y-65573445D01*
X114047291Y-65580099D01*
X114049771Y-65587029D01*
X114051559Y-65594168D01*
X114052639Y-65601449D01*
X114053000Y-65608800D01*
X114053000Y-66908800D01*
X114052639Y-66916151D01*
X114051559Y-66923432D01*
X114049771Y-66930571D01*
X114047291Y-66937501D01*
X114044144Y-66944155D01*
X114040360Y-66950468D01*
X114035976Y-66956379D01*
X114031033Y-66961833D01*
X114025579Y-66966776D01*
X114019668Y-66971160D01*
X114013355Y-66974944D01*
X114006701Y-66978091D01*
X113999771Y-66980571D01*
X113992632Y-66982359D01*
X113985351Y-66983439D01*
X113978000Y-66983800D01*
X113828000Y-66983800D01*
X113820649Y-66983439D01*
X113813368Y-66982359D01*
X113806229Y-66980571D01*
X113799299Y-66978091D01*
X113792645Y-66974944D01*
X113786332Y-66971160D01*
X113780421Y-66966776D01*
X113774967Y-66961833D01*
X113770024Y-66956379D01*
X113765640Y-66950468D01*
X113761856Y-66944155D01*
X113758709Y-66937501D01*
X113756229Y-66930571D01*
X113754441Y-66923432D01*
X113753361Y-66916151D01*
X113753000Y-66908800D01*
X113753000Y-65608800D01*
X113753361Y-65601449D01*
X113754441Y-65594168D01*
X113756229Y-65587029D01*
X113758709Y-65580099D01*
X113761856Y-65573445D01*
X113765640Y-65567132D01*
X113770024Y-65561221D01*
X113774967Y-65555767D01*
X113780421Y-65550824D01*
X113786332Y-65546440D01*
X113792645Y-65542656D01*
X113799299Y-65539509D01*
X113806229Y-65537029D01*
X113813368Y-65535241D01*
X113820649Y-65534161D01*
X113828000Y-65533800D01*
X113978000Y-65533800D01*
X113985351Y-65534161D01*
G37*
G04 #@! TD.AperFunction*
D19*
X107393700Y-82483200D03*
X109293700Y-82483200D03*
X108343700Y-80483200D03*
D26*
X99806800Y-79256900D03*
X98856800Y-79256900D03*
X97906800Y-79256900D03*
X97906800Y-81956900D03*
X99806800Y-81956900D03*
X98856800Y-81956900D03*
G04 #@! TA.AperFunction,SMDPad,CuDef*
D15*
G36*
X106537499Y-66799169D02*
G01*
X106565104Y-66803264D01*
X106592175Y-66810045D01*
X106618451Y-66819447D01*
X106643678Y-66831379D01*
X106667615Y-66845726D01*
X106690031Y-66862350D01*
X106710708Y-66881092D01*
X106729450Y-66901769D01*
X106746074Y-66924185D01*
X106760421Y-66948122D01*
X106772353Y-66973349D01*
X106781755Y-66999625D01*
X106788536Y-67026696D01*
X106792631Y-67054301D01*
X106794000Y-67082175D01*
X106794000Y-69163425D01*
X106792631Y-69191299D01*
X106788536Y-69218904D01*
X106781755Y-69245975D01*
X106772353Y-69272251D01*
X106760421Y-69297478D01*
X106746074Y-69321415D01*
X106729450Y-69343831D01*
X106710708Y-69364508D01*
X106690031Y-69383250D01*
X106667615Y-69399874D01*
X106643678Y-69414221D01*
X106618451Y-69426153D01*
X106592175Y-69435555D01*
X106565104Y-69442336D01*
X106537499Y-69446431D01*
X106509625Y-69447800D01*
X105453375Y-69447800D01*
X105425501Y-69446431D01*
X105397896Y-69442336D01*
X105370825Y-69435555D01*
X105344549Y-69426153D01*
X105319322Y-69414221D01*
X105295385Y-69399874D01*
X105272969Y-69383250D01*
X105252292Y-69364508D01*
X105233550Y-69343831D01*
X105216926Y-69321415D01*
X105202579Y-69297478D01*
X105190647Y-69272251D01*
X105181245Y-69245975D01*
X105174464Y-69218904D01*
X105170369Y-69191299D01*
X105169000Y-69163425D01*
X105169000Y-67082175D01*
X105170369Y-67054301D01*
X105174464Y-67026696D01*
X105181245Y-66999625D01*
X105190647Y-66973349D01*
X105202579Y-66948122D01*
X105216926Y-66924185D01*
X105233550Y-66901769D01*
X105252292Y-66881092D01*
X105272969Y-66862350D01*
X105295385Y-66845726D01*
X105319322Y-66831379D01*
X105344549Y-66819447D01*
X105370825Y-66810045D01*
X105397896Y-66803264D01*
X105425501Y-66799169D01*
X105453375Y-66797800D01*
X106509625Y-66797800D01*
X106537499Y-66799169D01*
G37*
G04 #@! TD.AperFunction*
G04 #@! TA.AperFunction,SMDPad,CuDef*
G36*
X103362499Y-66799169D02*
G01*
X103390104Y-66803264D01*
X103417175Y-66810045D01*
X103443451Y-66819447D01*
X103468678Y-66831379D01*
X103492615Y-66845726D01*
X103515031Y-66862350D01*
X103535708Y-66881092D01*
X103554450Y-66901769D01*
X103571074Y-66924185D01*
X103585421Y-66948122D01*
X103597353Y-66973349D01*
X103606755Y-66999625D01*
X103613536Y-67026696D01*
X103617631Y-67054301D01*
X103619000Y-67082175D01*
X103619000Y-69163425D01*
X103617631Y-69191299D01*
X103613536Y-69218904D01*
X103606755Y-69245975D01*
X103597353Y-69272251D01*
X103585421Y-69297478D01*
X103571074Y-69321415D01*
X103554450Y-69343831D01*
X103535708Y-69364508D01*
X103515031Y-69383250D01*
X103492615Y-69399874D01*
X103468678Y-69414221D01*
X103443451Y-69426153D01*
X103417175Y-69435555D01*
X103390104Y-69442336D01*
X103362499Y-69446431D01*
X103334625Y-69447800D01*
X102278375Y-69447800D01*
X102250501Y-69446431D01*
X102222896Y-69442336D01*
X102195825Y-69435555D01*
X102169549Y-69426153D01*
X102144322Y-69414221D01*
X102120385Y-69399874D01*
X102097969Y-69383250D01*
X102077292Y-69364508D01*
X102058550Y-69343831D01*
X102041926Y-69321415D01*
X102027579Y-69297478D01*
X102015647Y-69272251D01*
X102006245Y-69245975D01*
X101999464Y-69218904D01*
X101995369Y-69191299D01*
X101994000Y-69163425D01*
X101994000Y-67082175D01*
X101995369Y-67054301D01*
X101999464Y-67026696D01*
X102006245Y-66999625D01*
X102015647Y-66973349D01*
X102027579Y-66948122D01*
X102041926Y-66924185D01*
X102058550Y-66901769D01*
X102077292Y-66881092D01*
X102097969Y-66862350D01*
X102120385Y-66845726D01*
X102144322Y-66831379D01*
X102169549Y-66819447D01*
X102195825Y-66810045D01*
X102222896Y-66803264D01*
X102250501Y-66799169D01*
X102278375Y-66797800D01*
X103334625Y-66797800D01*
X103362499Y-66799169D01*
G37*
G04 #@! TD.AperFunction*
G04 #@! TA.AperFunction,SMDPad,CuDef*
G36*
X103362499Y-63344769D02*
G01*
X103390104Y-63348864D01*
X103417175Y-63355645D01*
X103443451Y-63365047D01*
X103468678Y-63376979D01*
X103492615Y-63391326D01*
X103515031Y-63407950D01*
X103535708Y-63426692D01*
X103554450Y-63447369D01*
X103571074Y-63469785D01*
X103585421Y-63493722D01*
X103597353Y-63518949D01*
X103606755Y-63545225D01*
X103613536Y-63572296D01*
X103617631Y-63599901D01*
X103619000Y-63627775D01*
X103619000Y-65709025D01*
X103617631Y-65736899D01*
X103613536Y-65764504D01*
X103606755Y-65791575D01*
X103597353Y-65817851D01*
X103585421Y-65843078D01*
X103571074Y-65867015D01*
X103554450Y-65889431D01*
X103535708Y-65910108D01*
X103515031Y-65928850D01*
X103492615Y-65945474D01*
X103468678Y-65959821D01*
X103443451Y-65971753D01*
X103417175Y-65981155D01*
X103390104Y-65987936D01*
X103362499Y-65992031D01*
X103334625Y-65993400D01*
X102278375Y-65993400D01*
X102250501Y-65992031D01*
X102222896Y-65987936D01*
X102195825Y-65981155D01*
X102169549Y-65971753D01*
X102144322Y-65959821D01*
X102120385Y-65945474D01*
X102097969Y-65928850D01*
X102077292Y-65910108D01*
X102058550Y-65889431D01*
X102041926Y-65867015D01*
X102027579Y-65843078D01*
X102015647Y-65817851D01*
X102006245Y-65791575D01*
X101999464Y-65764504D01*
X101995369Y-65736899D01*
X101994000Y-65709025D01*
X101994000Y-63627775D01*
X101995369Y-63599901D01*
X101999464Y-63572296D01*
X102006245Y-63545225D01*
X102015647Y-63518949D01*
X102027579Y-63493722D01*
X102041926Y-63469785D01*
X102058550Y-63447369D01*
X102077292Y-63426692D01*
X102097969Y-63407950D01*
X102120385Y-63391326D01*
X102144322Y-63376979D01*
X102169549Y-63365047D01*
X102195825Y-63355645D01*
X102222896Y-63348864D01*
X102250501Y-63344769D01*
X102278375Y-63343400D01*
X103334625Y-63343400D01*
X103362499Y-63344769D01*
G37*
G04 #@! TD.AperFunction*
G04 #@! TA.AperFunction,SMDPad,CuDef*
G36*
X106537499Y-63344769D02*
G01*
X106565104Y-63348864D01*
X106592175Y-63355645D01*
X106618451Y-63365047D01*
X106643678Y-63376979D01*
X106667615Y-63391326D01*
X106690031Y-63407950D01*
X106710708Y-63426692D01*
X106729450Y-63447369D01*
X106746074Y-63469785D01*
X106760421Y-63493722D01*
X106772353Y-63518949D01*
X106781755Y-63545225D01*
X106788536Y-63572296D01*
X106792631Y-63599901D01*
X106794000Y-63627775D01*
X106794000Y-65709025D01*
X106792631Y-65736899D01*
X106788536Y-65764504D01*
X106781755Y-65791575D01*
X106772353Y-65817851D01*
X106760421Y-65843078D01*
X106746074Y-65867015D01*
X106729450Y-65889431D01*
X106710708Y-65910108D01*
X106690031Y-65928850D01*
X106667615Y-65945474D01*
X106643678Y-65959821D01*
X106618451Y-65971753D01*
X106592175Y-65981155D01*
X106565104Y-65987936D01*
X106537499Y-65992031D01*
X106509625Y-65993400D01*
X105453375Y-65993400D01*
X105425501Y-65992031D01*
X105397896Y-65987936D01*
X105370825Y-65981155D01*
X105344549Y-65971753D01*
X105319322Y-65959821D01*
X105295385Y-65945474D01*
X105272969Y-65928850D01*
X105252292Y-65910108D01*
X105233550Y-65889431D01*
X105216926Y-65867015D01*
X105202579Y-65843078D01*
X105190647Y-65817851D01*
X105181245Y-65791575D01*
X105174464Y-65764504D01*
X105170369Y-65736899D01*
X105169000Y-65709025D01*
X105169000Y-63627775D01*
X105170369Y-63599901D01*
X105174464Y-63572296D01*
X105181245Y-63545225D01*
X105190647Y-63518949D01*
X105202579Y-63493722D01*
X105216926Y-63469785D01*
X105233550Y-63447369D01*
X105252292Y-63426692D01*
X105272969Y-63407950D01*
X105295385Y-63391326D01*
X105319322Y-63376979D01*
X105344549Y-63365047D01*
X105370825Y-63355645D01*
X105397896Y-63348864D01*
X105425501Y-63344769D01*
X105453375Y-63343400D01*
X106509625Y-63343400D01*
X106537499Y-63344769D01*
G37*
G04 #@! TD.AperFunction*
G04 #@! TA.AperFunction,SMDPad,CuDef*
G36*
X127441699Y-68602569D02*
G01*
X127469304Y-68606664D01*
X127496375Y-68613445D01*
X127522651Y-68622847D01*
X127547878Y-68634779D01*
X127571815Y-68649126D01*
X127594231Y-68665750D01*
X127614908Y-68684492D01*
X127633650Y-68705169D01*
X127650274Y-68727585D01*
X127664621Y-68751522D01*
X127676553Y-68776749D01*
X127685955Y-68803025D01*
X127692736Y-68830096D01*
X127696831Y-68857701D01*
X127698200Y-68885575D01*
X127698200Y-70966825D01*
X127696831Y-70994699D01*
X127692736Y-71022304D01*
X127685955Y-71049375D01*
X127676553Y-71075651D01*
X127664621Y-71100878D01*
X127650274Y-71124815D01*
X127633650Y-71147231D01*
X127614908Y-71167908D01*
X127594231Y-71186650D01*
X127571815Y-71203274D01*
X127547878Y-71217621D01*
X127522651Y-71229553D01*
X127496375Y-71238955D01*
X127469304Y-71245736D01*
X127441699Y-71249831D01*
X127413825Y-71251200D01*
X126357575Y-71251200D01*
X126329701Y-71249831D01*
X126302096Y-71245736D01*
X126275025Y-71238955D01*
X126248749Y-71229553D01*
X126223522Y-71217621D01*
X126199585Y-71203274D01*
X126177169Y-71186650D01*
X126156492Y-71167908D01*
X126137750Y-71147231D01*
X126121126Y-71124815D01*
X126106779Y-71100878D01*
X126094847Y-71075651D01*
X126085445Y-71049375D01*
X126078664Y-71022304D01*
X126074569Y-70994699D01*
X126073200Y-70966825D01*
X126073200Y-68885575D01*
X126074569Y-68857701D01*
X126078664Y-68830096D01*
X126085445Y-68803025D01*
X126094847Y-68776749D01*
X126106779Y-68751522D01*
X126121126Y-68727585D01*
X126137750Y-68705169D01*
X126156492Y-68684492D01*
X126177169Y-68665750D01*
X126199585Y-68649126D01*
X126223522Y-68634779D01*
X126248749Y-68622847D01*
X126275025Y-68613445D01*
X126302096Y-68606664D01*
X126329701Y-68602569D01*
X126357575Y-68601200D01*
X127413825Y-68601200D01*
X127441699Y-68602569D01*
G37*
G04 #@! TD.AperFunction*
G04 #@! TA.AperFunction,SMDPad,CuDef*
G36*
X130616699Y-68602569D02*
G01*
X130644304Y-68606664D01*
X130671375Y-68613445D01*
X130697651Y-68622847D01*
X130722878Y-68634779D01*
X130746815Y-68649126D01*
X130769231Y-68665750D01*
X130789908Y-68684492D01*
X130808650Y-68705169D01*
X130825274Y-68727585D01*
X130839621Y-68751522D01*
X130851553Y-68776749D01*
X130860955Y-68803025D01*
X130867736Y-68830096D01*
X130871831Y-68857701D01*
X130873200Y-68885575D01*
X130873200Y-70966825D01*
X130871831Y-70994699D01*
X130867736Y-71022304D01*
X130860955Y-71049375D01*
X130851553Y-71075651D01*
X130839621Y-71100878D01*
X130825274Y-71124815D01*
X130808650Y-71147231D01*
X130789908Y-71167908D01*
X130769231Y-71186650D01*
X130746815Y-71203274D01*
X130722878Y-71217621D01*
X130697651Y-71229553D01*
X130671375Y-71238955D01*
X130644304Y-71245736D01*
X130616699Y-71249831D01*
X130588825Y-71251200D01*
X129532575Y-71251200D01*
X129504701Y-71249831D01*
X129477096Y-71245736D01*
X129450025Y-71238955D01*
X129423749Y-71229553D01*
X129398522Y-71217621D01*
X129374585Y-71203274D01*
X129352169Y-71186650D01*
X129331492Y-71167908D01*
X129312750Y-71147231D01*
X129296126Y-71124815D01*
X129281779Y-71100878D01*
X129269847Y-71075651D01*
X129260445Y-71049375D01*
X129253664Y-71022304D01*
X129249569Y-70994699D01*
X129248200Y-70966825D01*
X129248200Y-68885575D01*
X129249569Y-68857701D01*
X129253664Y-68830096D01*
X129260445Y-68803025D01*
X129269847Y-68776749D01*
X129281779Y-68751522D01*
X129296126Y-68727585D01*
X129312750Y-68705169D01*
X129331492Y-68684492D01*
X129352169Y-68665750D01*
X129374585Y-68649126D01*
X129398522Y-68634779D01*
X129423749Y-68622847D01*
X129450025Y-68613445D01*
X129477096Y-68606664D01*
X129504701Y-68602569D01*
X129532575Y-68601200D01*
X130588825Y-68601200D01*
X130616699Y-68602569D01*
G37*
G04 #@! TD.AperFunction*
G04 #@! TA.AperFunction,SMDPad,CuDef*
G36*
X151266899Y-77009969D02*
G01*
X151294504Y-77014064D01*
X151321575Y-77020845D01*
X151347851Y-77030247D01*
X151373078Y-77042179D01*
X151397015Y-77056526D01*
X151419431Y-77073150D01*
X151440108Y-77091892D01*
X151458850Y-77112569D01*
X151475474Y-77134985D01*
X151489821Y-77158922D01*
X151501753Y-77184149D01*
X151511155Y-77210425D01*
X151517936Y-77237496D01*
X151522031Y-77265101D01*
X151523400Y-77292975D01*
X151523400Y-79374225D01*
X151522031Y-79402099D01*
X151517936Y-79429704D01*
X151511155Y-79456775D01*
X151501753Y-79483051D01*
X151489821Y-79508278D01*
X151475474Y-79532215D01*
X151458850Y-79554631D01*
X151440108Y-79575308D01*
X151419431Y-79594050D01*
X151397015Y-79610674D01*
X151373078Y-79625021D01*
X151347851Y-79636953D01*
X151321575Y-79646355D01*
X151294504Y-79653136D01*
X151266899Y-79657231D01*
X151239025Y-79658600D01*
X150182775Y-79658600D01*
X150154901Y-79657231D01*
X150127296Y-79653136D01*
X150100225Y-79646355D01*
X150073949Y-79636953D01*
X150048722Y-79625021D01*
X150024785Y-79610674D01*
X150002369Y-79594050D01*
X149981692Y-79575308D01*
X149962950Y-79554631D01*
X149946326Y-79532215D01*
X149931979Y-79508278D01*
X149920047Y-79483051D01*
X149910645Y-79456775D01*
X149903864Y-79429704D01*
X149899769Y-79402099D01*
X149898400Y-79374225D01*
X149898400Y-77292975D01*
X149899769Y-77265101D01*
X149903864Y-77237496D01*
X149910645Y-77210425D01*
X149920047Y-77184149D01*
X149931979Y-77158922D01*
X149946326Y-77134985D01*
X149962950Y-77112569D01*
X149981692Y-77091892D01*
X150002369Y-77073150D01*
X150024785Y-77056526D01*
X150048722Y-77042179D01*
X150073949Y-77030247D01*
X150100225Y-77020845D01*
X150127296Y-77014064D01*
X150154901Y-77009969D01*
X150182775Y-77008600D01*
X151239025Y-77008600D01*
X151266899Y-77009969D01*
G37*
G04 #@! TD.AperFunction*
G04 #@! TA.AperFunction,SMDPad,CuDef*
G36*
X148091899Y-77009969D02*
G01*
X148119504Y-77014064D01*
X148146575Y-77020845D01*
X148172851Y-77030247D01*
X148198078Y-77042179D01*
X148222015Y-77056526D01*
X148244431Y-77073150D01*
X148265108Y-77091892D01*
X148283850Y-77112569D01*
X148300474Y-77134985D01*
X148314821Y-77158922D01*
X148326753Y-77184149D01*
X148336155Y-77210425D01*
X148342936Y-77237496D01*
X148347031Y-77265101D01*
X148348400Y-77292975D01*
X148348400Y-79374225D01*
X148347031Y-79402099D01*
X148342936Y-79429704D01*
X148336155Y-79456775D01*
X148326753Y-79483051D01*
X148314821Y-79508278D01*
X148300474Y-79532215D01*
X148283850Y-79554631D01*
X148265108Y-79575308D01*
X148244431Y-79594050D01*
X148222015Y-79610674D01*
X148198078Y-79625021D01*
X148172851Y-79636953D01*
X148146575Y-79646355D01*
X148119504Y-79653136D01*
X148091899Y-79657231D01*
X148064025Y-79658600D01*
X147007775Y-79658600D01*
X146979901Y-79657231D01*
X146952296Y-79653136D01*
X146925225Y-79646355D01*
X146898949Y-79636953D01*
X146873722Y-79625021D01*
X146849785Y-79610674D01*
X146827369Y-79594050D01*
X146806692Y-79575308D01*
X146787950Y-79554631D01*
X146771326Y-79532215D01*
X146756979Y-79508278D01*
X146745047Y-79483051D01*
X146735645Y-79456775D01*
X146728864Y-79429704D01*
X146724769Y-79402099D01*
X146723400Y-79374225D01*
X146723400Y-77292975D01*
X146724769Y-77265101D01*
X146728864Y-77237496D01*
X146735645Y-77210425D01*
X146745047Y-77184149D01*
X146756979Y-77158922D01*
X146771326Y-77134985D01*
X146787950Y-77112569D01*
X146806692Y-77091892D01*
X146827369Y-77073150D01*
X146849785Y-77056526D01*
X146873722Y-77042179D01*
X146898949Y-77030247D01*
X146925225Y-77020845D01*
X146952296Y-77014064D01*
X146979901Y-77009969D01*
X147007775Y-77008600D01*
X148064025Y-77008600D01*
X148091899Y-77009969D01*
G37*
G04 #@! TD.AperFunction*
D13*
X111353600Y-76250800D03*
D14*
X113893600Y-76250800D03*
G04 #@! TA.AperFunction,SMDPad,CuDef*
D15*
G36*
X92000499Y-65317769D02*
G01*
X92028104Y-65321864D01*
X92055175Y-65328645D01*
X92081451Y-65338047D01*
X92106678Y-65349979D01*
X92130615Y-65364326D01*
X92153031Y-65380950D01*
X92173708Y-65399692D01*
X92192450Y-65420369D01*
X92209074Y-65442785D01*
X92223421Y-65466722D01*
X92235353Y-65491949D01*
X92244755Y-65518225D01*
X92251536Y-65545296D01*
X92255631Y-65572901D01*
X92257000Y-65600775D01*
X92257000Y-66657025D01*
X92255631Y-66684899D01*
X92251536Y-66712504D01*
X92244755Y-66739575D01*
X92235353Y-66765851D01*
X92223421Y-66791078D01*
X92209074Y-66815015D01*
X92192450Y-66837431D01*
X92173708Y-66858108D01*
X92153031Y-66876850D01*
X92130615Y-66893474D01*
X92106678Y-66907821D01*
X92081451Y-66919753D01*
X92055175Y-66929155D01*
X92028104Y-66935936D01*
X92000499Y-66940031D01*
X91972625Y-66941400D01*
X89891375Y-66941400D01*
X89863501Y-66940031D01*
X89835896Y-66935936D01*
X89808825Y-66929155D01*
X89782549Y-66919753D01*
X89757322Y-66907821D01*
X89733385Y-66893474D01*
X89710969Y-66876850D01*
X89690292Y-66858108D01*
X89671550Y-66837431D01*
X89654926Y-66815015D01*
X89640579Y-66791078D01*
X89628647Y-66765851D01*
X89619245Y-66739575D01*
X89612464Y-66712504D01*
X89608369Y-66684899D01*
X89607000Y-66657025D01*
X89607000Y-65600775D01*
X89608369Y-65572901D01*
X89612464Y-65545296D01*
X89619245Y-65518225D01*
X89628647Y-65491949D01*
X89640579Y-65466722D01*
X89654926Y-65442785D01*
X89671550Y-65420369D01*
X89690292Y-65399692D01*
X89710969Y-65380950D01*
X89733385Y-65364326D01*
X89757322Y-65349979D01*
X89782549Y-65338047D01*
X89808825Y-65328645D01*
X89835896Y-65321864D01*
X89863501Y-65317769D01*
X89891375Y-65316400D01*
X91972625Y-65316400D01*
X92000499Y-65317769D01*
G37*
G04 #@! TD.AperFunction*
G04 #@! TA.AperFunction,SMDPad,CuDef*
G36*
X92000499Y-68492769D02*
G01*
X92028104Y-68496864D01*
X92055175Y-68503645D01*
X92081451Y-68513047D01*
X92106678Y-68524979D01*
X92130615Y-68539326D01*
X92153031Y-68555950D01*
X92173708Y-68574692D01*
X92192450Y-68595369D01*
X92209074Y-68617785D01*
X92223421Y-68641722D01*
X92235353Y-68666949D01*
X92244755Y-68693225D01*
X92251536Y-68720296D01*
X92255631Y-68747901D01*
X92257000Y-68775775D01*
X92257000Y-69832025D01*
X92255631Y-69859899D01*
X92251536Y-69887504D01*
X92244755Y-69914575D01*
X92235353Y-69940851D01*
X92223421Y-69966078D01*
X92209074Y-69990015D01*
X92192450Y-70012431D01*
X92173708Y-70033108D01*
X92153031Y-70051850D01*
X92130615Y-70068474D01*
X92106678Y-70082821D01*
X92081451Y-70094753D01*
X92055175Y-70104155D01*
X92028104Y-70110936D01*
X92000499Y-70115031D01*
X91972625Y-70116400D01*
X89891375Y-70116400D01*
X89863501Y-70115031D01*
X89835896Y-70110936D01*
X89808825Y-70104155D01*
X89782549Y-70094753D01*
X89757322Y-70082821D01*
X89733385Y-70068474D01*
X89710969Y-70051850D01*
X89690292Y-70033108D01*
X89671550Y-70012431D01*
X89654926Y-69990015D01*
X89640579Y-69966078D01*
X89628647Y-69940851D01*
X89619245Y-69914575D01*
X89612464Y-69887504D01*
X89608369Y-69859899D01*
X89607000Y-69832025D01*
X89607000Y-68775775D01*
X89608369Y-68747901D01*
X89612464Y-68720296D01*
X89619245Y-68693225D01*
X89628647Y-68666949D01*
X89640579Y-68641722D01*
X89654926Y-68617785D01*
X89671550Y-68595369D01*
X89690292Y-68574692D01*
X89710969Y-68555950D01*
X89733385Y-68539326D01*
X89757322Y-68524979D01*
X89782549Y-68513047D01*
X89808825Y-68503645D01*
X89835896Y-68496864D01*
X89863501Y-68492769D01*
X89891375Y-68491400D01*
X91972625Y-68491400D01*
X92000499Y-68492769D01*
G37*
G04 #@! TD.AperFunction*
G04 #@! TA.AperFunction,SMDPad,CuDef*
G36*
X124253999Y-68602569D02*
G01*
X124281604Y-68606664D01*
X124308675Y-68613445D01*
X124334951Y-68622847D01*
X124360178Y-68634779D01*
X124384115Y-68649126D01*
X124406531Y-68665750D01*
X124427208Y-68684492D01*
X124445950Y-68705169D01*
X124462574Y-68727585D01*
X124476921Y-68751522D01*
X124488853Y-68776749D01*
X124498255Y-68803025D01*
X124505036Y-68830096D01*
X124509131Y-68857701D01*
X124510500Y-68885575D01*
X124510500Y-70966825D01*
X124509131Y-70994699D01*
X124505036Y-71022304D01*
X124498255Y-71049375D01*
X124488853Y-71075651D01*
X124476921Y-71100878D01*
X124462574Y-71124815D01*
X124445950Y-71147231D01*
X124427208Y-71167908D01*
X124406531Y-71186650D01*
X124384115Y-71203274D01*
X124360178Y-71217621D01*
X124334951Y-71229553D01*
X124308675Y-71238955D01*
X124281604Y-71245736D01*
X124253999Y-71249831D01*
X124226125Y-71251200D01*
X123169875Y-71251200D01*
X123142001Y-71249831D01*
X123114396Y-71245736D01*
X123087325Y-71238955D01*
X123061049Y-71229553D01*
X123035822Y-71217621D01*
X123011885Y-71203274D01*
X122989469Y-71186650D01*
X122968792Y-71167908D01*
X122950050Y-71147231D01*
X122933426Y-71124815D01*
X122919079Y-71100878D01*
X122907147Y-71075651D01*
X122897745Y-71049375D01*
X122890964Y-71022304D01*
X122886869Y-70994699D01*
X122885500Y-70966825D01*
X122885500Y-68885575D01*
X122886869Y-68857701D01*
X122890964Y-68830096D01*
X122897745Y-68803025D01*
X122907147Y-68776749D01*
X122919079Y-68751522D01*
X122933426Y-68727585D01*
X122950050Y-68705169D01*
X122968792Y-68684492D01*
X122989469Y-68665750D01*
X123011885Y-68649126D01*
X123035822Y-68634779D01*
X123061049Y-68622847D01*
X123087325Y-68613445D01*
X123114396Y-68606664D01*
X123142001Y-68602569D01*
X123169875Y-68601200D01*
X124226125Y-68601200D01*
X124253999Y-68602569D01*
G37*
G04 #@! TD.AperFunction*
G04 #@! TA.AperFunction,SMDPad,CuDef*
G36*
X121078999Y-68602569D02*
G01*
X121106604Y-68606664D01*
X121133675Y-68613445D01*
X121159951Y-68622847D01*
X121185178Y-68634779D01*
X121209115Y-68649126D01*
X121231531Y-68665750D01*
X121252208Y-68684492D01*
X121270950Y-68705169D01*
X121287574Y-68727585D01*
X121301921Y-68751522D01*
X121313853Y-68776749D01*
X121323255Y-68803025D01*
X121330036Y-68830096D01*
X121334131Y-68857701D01*
X121335500Y-68885575D01*
X121335500Y-70966825D01*
X121334131Y-70994699D01*
X121330036Y-71022304D01*
X121323255Y-71049375D01*
X121313853Y-71075651D01*
X121301921Y-71100878D01*
X121287574Y-71124815D01*
X121270950Y-71147231D01*
X121252208Y-71167908D01*
X121231531Y-71186650D01*
X121209115Y-71203274D01*
X121185178Y-71217621D01*
X121159951Y-71229553D01*
X121133675Y-71238955D01*
X121106604Y-71245736D01*
X121078999Y-71249831D01*
X121051125Y-71251200D01*
X119994875Y-71251200D01*
X119967001Y-71249831D01*
X119939396Y-71245736D01*
X119912325Y-71238955D01*
X119886049Y-71229553D01*
X119860822Y-71217621D01*
X119836885Y-71203274D01*
X119814469Y-71186650D01*
X119793792Y-71167908D01*
X119775050Y-71147231D01*
X119758426Y-71124815D01*
X119744079Y-71100878D01*
X119732147Y-71075651D01*
X119722745Y-71049375D01*
X119715964Y-71022304D01*
X119711869Y-70994699D01*
X119710500Y-70966825D01*
X119710500Y-68885575D01*
X119711869Y-68857701D01*
X119715964Y-68830096D01*
X119722745Y-68803025D01*
X119732147Y-68776749D01*
X119744079Y-68751522D01*
X119758426Y-68727585D01*
X119775050Y-68705169D01*
X119793792Y-68684492D01*
X119814469Y-68665750D01*
X119836885Y-68649126D01*
X119860822Y-68634779D01*
X119886049Y-68622847D01*
X119912325Y-68613445D01*
X119939396Y-68606664D01*
X119967001Y-68602569D01*
X119994875Y-68601200D01*
X121051125Y-68601200D01*
X121078999Y-68602569D01*
G37*
G04 #@! TD.AperFunction*
G04 #@! TA.AperFunction,SMDPad,CuDef*
G36*
X99010899Y-71286769D02*
G01*
X99038504Y-71290864D01*
X99065575Y-71297645D01*
X99091851Y-71307047D01*
X99117078Y-71318979D01*
X99141015Y-71333326D01*
X99163431Y-71349950D01*
X99184108Y-71368692D01*
X99202850Y-71389369D01*
X99219474Y-71411785D01*
X99233821Y-71435722D01*
X99245753Y-71460949D01*
X99255155Y-71487225D01*
X99261936Y-71514296D01*
X99266031Y-71541901D01*
X99267400Y-71569775D01*
X99267400Y-72626025D01*
X99266031Y-72653899D01*
X99261936Y-72681504D01*
X99255155Y-72708575D01*
X99245753Y-72734851D01*
X99233821Y-72760078D01*
X99219474Y-72784015D01*
X99202850Y-72806431D01*
X99184108Y-72827108D01*
X99163431Y-72845850D01*
X99141015Y-72862474D01*
X99117078Y-72876821D01*
X99091851Y-72888753D01*
X99065575Y-72898155D01*
X99038504Y-72904936D01*
X99010899Y-72909031D01*
X98983025Y-72910400D01*
X96901775Y-72910400D01*
X96873901Y-72909031D01*
X96846296Y-72904936D01*
X96819225Y-72898155D01*
X96792949Y-72888753D01*
X96767722Y-72876821D01*
X96743785Y-72862474D01*
X96721369Y-72845850D01*
X96700692Y-72827108D01*
X96681950Y-72806431D01*
X96665326Y-72784015D01*
X96650979Y-72760078D01*
X96639047Y-72734851D01*
X96629645Y-72708575D01*
X96622864Y-72681504D01*
X96618769Y-72653899D01*
X96617400Y-72626025D01*
X96617400Y-71569775D01*
X96618769Y-71541901D01*
X96622864Y-71514296D01*
X96629645Y-71487225D01*
X96639047Y-71460949D01*
X96650979Y-71435722D01*
X96665326Y-71411785D01*
X96681950Y-71389369D01*
X96700692Y-71368692D01*
X96721369Y-71349950D01*
X96743785Y-71333326D01*
X96767722Y-71318979D01*
X96792949Y-71307047D01*
X96819225Y-71297645D01*
X96846296Y-71290864D01*
X96873901Y-71286769D01*
X96901775Y-71285400D01*
X98983025Y-71285400D01*
X99010899Y-71286769D01*
G37*
G04 #@! TD.AperFunction*
G04 #@! TA.AperFunction,SMDPad,CuDef*
G36*
X99010899Y-68111769D02*
G01*
X99038504Y-68115864D01*
X99065575Y-68122645D01*
X99091851Y-68132047D01*
X99117078Y-68143979D01*
X99141015Y-68158326D01*
X99163431Y-68174950D01*
X99184108Y-68193692D01*
X99202850Y-68214369D01*
X99219474Y-68236785D01*
X99233821Y-68260722D01*
X99245753Y-68285949D01*
X99255155Y-68312225D01*
X99261936Y-68339296D01*
X99266031Y-68366901D01*
X99267400Y-68394775D01*
X99267400Y-69451025D01*
X99266031Y-69478899D01*
X99261936Y-69506504D01*
X99255155Y-69533575D01*
X99245753Y-69559851D01*
X99233821Y-69585078D01*
X99219474Y-69609015D01*
X99202850Y-69631431D01*
X99184108Y-69652108D01*
X99163431Y-69670850D01*
X99141015Y-69687474D01*
X99117078Y-69701821D01*
X99091851Y-69713753D01*
X99065575Y-69723155D01*
X99038504Y-69729936D01*
X99010899Y-69734031D01*
X98983025Y-69735400D01*
X96901775Y-69735400D01*
X96873901Y-69734031D01*
X96846296Y-69729936D01*
X96819225Y-69723155D01*
X96792949Y-69713753D01*
X96767722Y-69701821D01*
X96743785Y-69687474D01*
X96721369Y-69670850D01*
X96700692Y-69652108D01*
X96681950Y-69631431D01*
X96665326Y-69609015D01*
X96650979Y-69585078D01*
X96639047Y-69559851D01*
X96629645Y-69533575D01*
X96622864Y-69506504D01*
X96618769Y-69478899D01*
X96617400Y-69451025D01*
X96617400Y-68394775D01*
X96618769Y-68366901D01*
X96622864Y-68339296D01*
X96629645Y-68312225D01*
X96639047Y-68285949D01*
X96650979Y-68260722D01*
X96665326Y-68236785D01*
X96681950Y-68214369D01*
X96700692Y-68193692D01*
X96721369Y-68174950D01*
X96743785Y-68158326D01*
X96767722Y-68143979D01*
X96792949Y-68132047D01*
X96819225Y-68122645D01*
X96846296Y-68115864D01*
X96873901Y-68111769D01*
X96901775Y-68110400D01*
X98983025Y-68110400D01*
X99010899Y-68111769D01*
G37*
G04 #@! TD.AperFunction*
D27*
X99442800Y-64154200D03*
X99442800Y-64554200D03*
X99442800Y-64954200D03*
X99442800Y-65354200D03*
X99442800Y-65754200D03*
X99442800Y-66154200D03*
X96492800Y-66154200D03*
X96492800Y-65754200D03*
X96492800Y-65354200D03*
X96492800Y-64954200D03*
X96492800Y-64554200D03*
X96492800Y-64154200D03*
X96492800Y-66554200D03*
X99442800Y-66554200D03*
D28*
X97967800Y-65354200D03*
D13*
X138709400Y-79527400D03*
D14*
X141249400Y-79527400D03*
G04 #@! TA.AperFunction,SMDPad,CuDef*
D15*
G36*
X138168310Y-69361402D02*
G01*
X138192535Y-69364995D01*
X138216291Y-69370946D01*
X138239349Y-69379196D01*
X138261487Y-69389667D01*
X138282493Y-69402257D01*
X138302163Y-69416845D01*
X138320308Y-69433292D01*
X138336755Y-69451437D01*
X138351343Y-69471107D01*
X138363933Y-69492113D01*
X138374404Y-69514251D01*
X138382654Y-69537309D01*
X138388605Y-69561065D01*
X138392198Y-69585290D01*
X138393400Y-69609750D01*
X138393400Y-70260650D01*
X138392198Y-70285110D01*
X138388605Y-70309335D01*
X138382654Y-70333091D01*
X138374404Y-70356149D01*
X138363933Y-70378287D01*
X138351343Y-70399293D01*
X138336755Y-70418963D01*
X138320308Y-70437108D01*
X138302163Y-70453555D01*
X138282493Y-70468143D01*
X138261487Y-70480733D01*
X138239349Y-70491204D01*
X138216291Y-70499454D01*
X138192535Y-70505405D01*
X138168310Y-70508998D01*
X138143850Y-70510200D01*
X137242950Y-70510200D01*
X137218490Y-70508998D01*
X137194265Y-70505405D01*
X137170509Y-70499454D01*
X137147451Y-70491204D01*
X137125313Y-70480733D01*
X137104307Y-70468143D01*
X137084637Y-70453555D01*
X137066492Y-70437108D01*
X137050045Y-70418963D01*
X137035457Y-70399293D01*
X137022867Y-70378287D01*
X137012396Y-70356149D01*
X137004146Y-70333091D01*
X136998195Y-70309335D01*
X136994602Y-70285110D01*
X136993400Y-70260650D01*
X136993400Y-69609750D01*
X136994602Y-69585290D01*
X136998195Y-69561065D01*
X137004146Y-69537309D01*
X137012396Y-69514251D01*
X137022867Y-69492113D01*
X137035457Y-69471107D01*
X137050045Y-69451437D01*
X137066492Y-69433292D01*
X137084637Y-69416845D01*
X137104307Y-69402257D01*
X137125313Y-69389667D01*
X137147451Y-69379196D01*
X137170509Y-69370946D01*
X137194265Y-69364995D01*
X137218490Y-69361402D01*
X137242950Y-69360200D01*
X138143850Y-69360200D01*
X138168310Y-69361402D01*
G37*
G04 #@! TD.AperFunction*
G04 #@! TA.AperFunction,SMDPad,CuDef*
G36*
X138168310Y-67311402D02*
G01*
X138192535Y-67314995D01*
X138216291Y-67320946D01*
X138239349Y-67329196D01*
X138261487Y-67339667D01*
X138282493Y-67352257D01*
X138302163Y-67366845D01*
X138320308Y-67383292D01*
X138336755Y-67401437D01*
X138351343Y-67421107D01*
X138363933Y-67442113D01*
X138374404Y-67464251D01*
X138382654Y-67487309D01*
X138388605Y-67511065D01*
X138392198Y-67535290D01*
X138393400Y-67559750D01*
X138393400Y-68210650D01*
X138392198Y-68235110D01*
X138388605Y-68259335D01*
X138382654Y-68283091D01*
X138374404Y-68306149D01*
X138363933Y-68328287D01*
X138351343Y-68349293D01*
X138336755Y-68368963D01*
X138320308Y-68387108D01*
X138302163Y-68403555D01*
X138282493Y-68418143D01*
X138261487Y-68430733D01*
X138239349Y-68441204D01*
X138216291Y-68449454D01*
X138192535Y-68455405D01*
X138168310Y-68458998D01*
X138143850Y-68460200D01*
X137242950Y-68460200D01*
X137218490Y-68458998D01*
X137194265Y-68455405D01*
X137170509Y-68449454D01*
X137147451Y-68441204D01*
X137125313Y-68430733D01*
X137104307Y-68418143D01*
X137084637Y-68403555D01*
X137066492Y-68387108D01*
X137050045Y-68368963D01*
X137035457Y-68349293D01*
X137022867Y-68328287D01*
X137012396Y-68306149D01*
X137004146Y-68283091D01*
X136998195Y-68259335D01*
X136994602Y-68235110D01*
X136993400Y-68210650D01*
X136993400Y-67559750D01*
X136994602Y-67535290D01*
X136998195Y-67511065D01*
X137004146Y-67487309D01*
X137012396Y-67464251D01*
X137022867Y-67442113D01*
X137035457Y-67421107D01*
X137050045Y-67401437D01*
X137066492Y-67383292D01*
X137084637Y-67366845D01*
X137104307Y-67352257D01*
X137125313Y-67339667D01*
X137147451Y-67329196D01*
X137170509Y-67320946D01*
X137194265Y-67314995D01*
X137218490Y-67311402D01*
X137242950Y-67310200D01*
X138143850Y-67310200D01*
X138168310Y-67311402D01*
G37*
G04 #@! TD.AperFunction*
G04 #@! TA.AperFunction,SMDPad,CuDef*
G36*
X110101310Y-63984002D02*
G01*
X110125535Y-63987595D01*
X110149291Y-63993546D01*
X110172349Y-64001796D01*
X110194487Y-64012267D01*
X110215493Y-64024857D01*
X110235163Y-64039445D01*
X110253308Y-64055892D01*
X110269755Y-64074037D01*
X110284343Y-64093707D01*
X110296933Y-64114713D01*
X110307404Y-64136851D01*
X110315654Y-64159909D01*
X110321605Y-64183665D01*
X110325198Y-64207890D01*
X110326400Y-64232350D01*
X110326400Y-64883250D01*
X110325198Y-64907710D01*
X110321605Y-64931935D01*
X110315654Y-64955691D01*
X110307404Y-64978749D01*
X110296933Y-65000887D01*
X110284343Y-65021893D01*
X110269755Y-65041563D01*
X110253308Y-65059708D01*
X110235163Y-65076155D01*
X110215493Y-65090743D01*
X110194487Y-65103333D01*
X110172349Y-65113804D01*
X110149291Y-65122054D01*
X110125535Y-65128005D01*
X110101310Y-65131598D01*
X110076850Y-65132800D01*
X109175950Y-65132800D01*
X109151490Y-65131598D01*
X109127265Y-65128005D01*
X109103509Y-65122054D01*
X109080451Y-65113804D01*
X109058313Y-65103333D01*
X109037307Y-65090743D01*
X109017637Y-65076155D01*
X108999492Y-65059708D01*
X108983045Y-65041563D01*
X108968457Y-65021893D01*
X108955867Y-65000887D01*
X108945396Y-64978749D01*
X108937146Y-64955691D01*
X108931195Y-64931935D01*
X108927602Y-64907710D01*
X108926400Y-64883250D01*
X108926400Y-64232350D01*
X108927602Y-64207890D01*
X108931195Y-64183665D01*
X108937146Y-64159909D01*
X108945396Y-64136851D01*
X108955867Y-64114713D01*
X108968457Y-64093707D01*
X108983045Y-64074037D01*
X108999492Y-64055892D01*
X109017637Y-64039445D01*
X109037307Y-64024857D01*
X109058313Y-64012267D01*
X109080451Y-64001796D01*
X109103509Y-63993546D01*
X109127265Y-63987595D01*
X109151490Y-63984002D01*
X109175950Y-63982800D01*
X110076850Y-63982800D01*
X110101310Y-63984002D01*
G37*
G04 #@! TD.AperFunction*
G04 #@! TA.AperFunction,SMDPad,CuDef*
G36*
X110101310Y-66034002D02*
G01*
X110125535Y-66037595D01*
X110149291Y-66043546D01*
X110172349Y-66051796D01*
X110194487Y-66062267D01*
X110215493Y-66074857D01*
X110235163Y-66089445D01*
X110253308Y-66105892D01*
X110269755Y-66124037D01*
X110284343Y-66143707D01*
X110296933Y-66164713D01*
X110307404Y-66186851D01*
X110315654Y-66209909D01*
X110321605Y-66233665D01*
X110325198Y-66257890D01*
X110326400Y-66282350D01*
X110326400Y-66933250D01*
X110325198Y-66957710D01*
X110321605Y-66981935D01*
X110315654Y-67005691D01*
X110307404Y-67028749D01*
X110296933Y-67050887D01*
X110284343Y-67071893D01*
X110269755Y-67091563D01*
X110253308Y-67109708D01*
X110235163Y-67126155D01*
X110215493Y-67140743D01*
X110194487Y-67153333D01*
X110172349Y-67163804D01*
X110149291Y-67172054D01*
X110125535Y-67178005D01*
X110101310Y-67181598D01*
X110076850Y-67182800D01*
X109175950Y-67182800D01*
X109151490Y-67181598D01*
X109127265Y-67178005D01*
X109103509Y-67172054D01*
X109080451Y-67163804D01*
X109058313Y-67153333D01*
X109037307Y-67140743D01*
X109017637Y-67126155D01*
X108999492Y-67109708D01*
X108983045Y-67091563D01*
X108968457Y-67071893D01*
X108955867Y-67050887D01*
X108945396Y-67028749D01*
X108937146Y-67005691D01*
X108931195Y-66981935D01*
X108927602Y-66957710D01*
X108926400Y-66933250D01*
X108926400Y-66282350D01*
X108927602Y-66257890D01*
X108931195Y-66233665D01*
X108937146Y-66209909D01*
X108945396Y-66186851D01*
X108955867Y-66164713D01*
X108968457Y-66143707D01*
X108983045Y-66124037D01*
X108999492Y-66105892D01*
X109017637Y-66089445D01*
X109037307Y-66074857D01*
X109058313Y-66062267D01*
X109080451Y-66051796D01*
X109103509Y-66043546D01*
X109127265Y-66037595D01*
X109151490Y-66034002D01*
X109175950Y-66032800D01*
X110076850Y-66032800D01*
X110101310Y-66034002D01*
G37*
G04 #@! TD.AperFunction*
G04 #@! TA.AperFunction,SMDPad,CuDef*
G36*
X102938510Y-81477202D02*
G01*
X102962735Y-81480795D01*
X102986491Y-81486746D01*
X103009549Y-81494996D01*
X103031687Y-81505467D01*
X103052693Y-81518057D01*
X103072363Y-81532645D01*
X103090508Y-81549092D01*
X103106955Y-81567237D01*
X103121543Y-81586907D01*
X103134133Y-81607913D01*
X103144604Y-81630051D01*
X103152854Y-81653109D01*
X103158805Y-81676865D01*
X103162398Y-81701090D01*
X103163600Y-81725550D01*
X103163600Y-82376450D01*
X103162398Y-82400910D01*
X103158805Y-82425135D01*
X103152854Y-82448891D01*
X103144604Y-82471949D01*
X103134133Y-82494087D01*
X103121543Y-82515093D01*
X103106955Y-82534763D01*
X103090508Y-82552908D01*
X103072363Y-82569355D01*
X103052693Y-82583943D01*
X103031687Y-82596533D01*
X103009549Y-82607004D01*
X102986491Y-82615254D01*
X102962735Y-82621205D01*
X102938510Y-82624798D01*
X102914050Y-82626000D01*
X102013150Y-82626000D01*
X101988690Y-82624798D01*
X101964465Y-82621205D01*
X101940709Y-82615254D01*
X101917651Y-82607004D01*
X101895513Y-82596533D01*
X101874507Y-82583943D01*
X101854837Y-82569355D01*
X101836692Y-82552908D01*
X101820245Y-82534763D01*
X101805657Y-82515093D01*
X101793067Y-82494087D01*
X101782596Y-82471949D01*
X101774346Y-82448891D01*
X101768395Y-82425135D01*
X101764802Y-82400910D01*
X101763600Y-82376450D01*
X101763600Y-81725550D01*
X101764802Y-81701090D01*
X101768395Y-81676865D01*
X101774346Y-81653109D01*
X101782596Y-81630051D01*
X101793067Y-81607913D01*
X101805657Y-81586907D01*
X101820245Y-81567237D01*
X101836692Y-81549092D01*
X101854837Y-81532645D01*
X101874507Y-81518057D01*
X101895513Y-81505467D01*
X101917651Y-81494996D01*
X101940709Y-81486746D01*
X101964465Y-81480795D01*
X101988690Y-81477202D01*
X102013150Y-81476000D01*
X102914050Y-81476000D01*
X102938510Y-81477202D01*
G37*
G04 #@! TD.AperFunction*
G04 #@! TA.AperFunction,SMDPad,CuDef*
G36*
X102938510Y-79427202D02*
G01*
X102962735Y-79430795D01*
X102986491Y-79436746D01*
X103009549Y-79444996D01*
X103031687Y-79455467D01*
X103052693Y-79468057D01*
X103072363Y-79482645D01*
X103090508Y-79499092D01*
X103106955Y-79517237D01*
X103121543Y-79536907D01*
X103134133Y-79557913D01*
X103144604Y-79580051D01*
X103152854Y-79603109D01*
X103158805Y-79626865D01*
X103162398Y-79651090D01*
X103163600Y-79675550D01*
X103163600Y-80326450D01*
X103162398Y-80350910D01*
X103158805Y-80375135D01*
X103152854Y-80398891D01*
X103144604Y-80421949D01*
X103134133Y-80444087D01*
X103121543Y-80465093D01*
X103106955Y-80484763D01*
X103090508Y-80502908D01*
X103072363Y-80519355D01*
X103052693Y-80533943D01*
X103031687Y-80546533D01*
X103009549Y-80557004D01*
X102986491Y-80565254D01*
X102962735Y-80571205D01*
X102938510Y-80574798D01*
X102914050Y-80576000D01*
X102013150Y-80576000D01*
X101988690Y-80574798D01*
X101964465Y-80571205D01*
X101940709Y-80565254D01*
X101917651Y-80557004D01*
X101895513Y-80546533D01*
X101874507Y-80533943D01*
X101854837Y-80519355D01*
X101836692Y-80502908D01*
X101820245Y-80484763D01*
X101805657Y-80465093D01*
X101793067Y-80444087D01*
X101782596Y-80421949D01*
X101774346Y-80398891D01*
X101768395Y-80375135D01*
X101764802Y-80350910D01*
X101763600Y-80326450D01*
X101763600Y-79675550D01*
X101764802Y-79651090D01*
X101768395Y-79626865D01*
X101774346Y-79603109D01*
X101782596Y-79580051D01*
X101793067Y-79557913D01*
X101805657Y-79536907D01*
X101820245Y-79517237D01*
X101836692Y-79499092D01*
X101854837Y-79482645D01*
X101874507Y-79468057D01*
X101895513Y-79455467D01*
X101917651Y-79444996D01*
X101940709Y-79436746D01*
X101964465Y-79430795D01*
X101988690Y-79427202D01*
X102013150Y-79426000D01*
X102914050Y-79426000D01*
X102938510Y-79427202D01*
G37*
G04 #@! TD.AperFunction*
G04 #@! TA.AperFunction,SMDPad,CuDef*
G36*
X124884110Y-83979102D02*
G01*
X124908335Y-83982695D01*
X124932091Y-83988646D01*
X124955149Y-83996896D01*
X124977287Y-84007367D01*
X124998293Y-84019957D01*
X125017963Y-84034545D01*
X125036108Y-84050992D01*
X125052555Y-84069137D01*
X125067143Y-84088807D01*
X125079733Y-84109813D01*
X125090204Y-84131951D01*
X125098454Y-84155009D01*
X125104405Y-84178765D01*
X125107998Y-84202990D01*
X125109200Y-84227450D01*
X125109200Y-84878350D01*
X125107998Y-84902810D01*
X125104405Y-84927035D01*
X125098454Y-84950791D01*
X125090204Y-84973849D01*
X125079733Y-84995987D01*
X125067143Y-85016993D01*
X125052555Y-85036663D01*
X125036108Y-85054808D01*
X125017963Y-85071255D01*
X124998293Y-85085843D01*
X124977287Y-85098433D01*
X124955149Y-85108904D01*
X124932091Y-85117154D01*
X124908335Y-85123105D01*
X124884110Y-85126698D01*
X124859650Y-85127900D01*
X123958750Y-85127900D01*
X123934290Y-85126698D01*
X123910065Y-85123105D01*
X123886309Y-85117154D01*
X123863251Y-85108904D01*
X123841113Y-85098433D01*
X123820107Y-85085843D01*
X123800437Y-85071255D01*
X123782292Y-85054808D01*
X123765845Y-85036663D01*
X123751257Y-85016993D01*
X123738667Y-84995987D01*
X123728196Y-84973849D01*
X123719946Y-84950791D01*
X123713995Y-84927035D01*
X123710402Y-84902810D01*
X123709200Y-84878350D01*
X123709200Y-84227450D01*
X123710402Y-84202990D01*
X123713995Y-84178765D01*
X123719946Y-84155009D01*
X123728196Y-84131951D01*
X123738667Y-84109813D01*
X123751257Y-84088807D01*
X123765845Y-84069137D01*
X123782292Y-84050992D01*
X123800437Y-84034545D01*
X123820107Y-84019957D01*
X123841113Y-84007367D01*
X123863251Y-83996896D01*
X123886309Y-83988646D01*
X123910065Y-83982695D01*
X123934290Y-83979102D01*
X123958750Y-83977900D01*
X124859650Y-83977900D01*
X124884110Y-83979102D01*
G37*
G04 #@! TD.AperFunction*
G04 #@! TA.AperFunction,SMDPad,CuDef*
G36*
X124884110Y-81929102D02*
G01*
X124908335Y-81932695D01*
X124932091Y-81938646D01*
X124955149Y-81946896D01*
X124977287Y-81957367D01*
X124998293Y-81969957D01*
X125017963Y-81984545D01*
X125036108Y-82000992D01*
X125052555Y-82019137D01*
X125067143Y-82038807D01*
X125079733Y-82059813D01*
X125090204Y-82081951D01*
X125098454Y-82105009D01*
X125104405Y-82128765D01*
X125107998Y-82152990D01*
X125109200Y-82177450D01*
X125109200Y-82828350D01*
X125107998Y-82852810D01*
X125104405Y-82877035D01*
X125098454Y-82900791D01*
X125090204Y-82923849D01*
X125079733Y-82945987D01*
X125067143Y-82966993D01*
X125052555Y-82986663D01*
X125036108Y-83004808D01*
X125017963Y-83021255D01*
X124998293Y-83035843D01*
X124977287Y-83048433D01*
X124955149Y-83058904D01*
X124932091Y-83067154D01*
X124908335Y-83073105D01*
X124884110Y-83076698D01*
X124859650Y-83077900D01*
X123958750Y-83077900D01*
X123934290Y-83076698D01*
X123910065Y-83073105D01*
X123886309Y-83067154D01*
X123863251Y-83058904D01*
X123841113Y-83048433D01*
X123820107Y-83035843D01*
X123800437Y-83021255D01*
X123782292Y-83004808D01*
X123765845Y-82986663D01*
X123751257Y-82966993D01*
X123738667Y-82945987D01*
X123728196Y-82923849D01*
X123719946Y-82900791D01*
X123713995Y-82877035D01*
X123710402Y-82852810D01*
X123709200Y-82828350D01*
X123709200Y-82177450D01*
X123710402Y-82152990D01*
X123713995Y-82128765D01*
X123719946Y-82105009D01*
X123728196Y-82081951D01*
X123738667Y-82059813D01*
X123751257Y-82038807D01*
X123765845Y-82019137D01*
X123782292Y-82000992D01*
X123800437Y-81984545D01*
X123820107Y-81969957D01*
X123841113Y-81957367D01*
X123863251Y-81946896D01*
X123886309Y-81938646D01*
X123910065Y-81932695D01*
X123934290Y-81929102D01*
X123958750Y-81927900D01*
X124859650Y-81927900D01*
X124884110Y-81929102D01*
G37*
G04 #@! TD.AperFunction*
G04 #@! TA.AperFunction,SMDPad,CuDef*
G36*
X96042410Y-78665202D02*
G01*
X96066635Y-78668795D01*
X96090391Y-78674746D01*
X96113449Y-78682996D01*
X96135587Y-78693467D01*
X96156593Y-78706057D01*
X96176263Y-78720645D01*
X96194408Y-78737092D01*
X96210855Y-78755237D01*
X96225443Y-78774907D01*
X96238033Y-78795913D01*
X96248504Y-78818051D01*
X96256754Y-78841109D01*
X96262705Y-78864865D01*
X96266298Y-78889090D01*
X96267500Y-78913550D01*
X96267500Y-79564450D01*
X96266298Y-79588910D01*
X96262705Y-79613135D01*
X96256754Y-79636891D01*
X96248504Y-79659949D01*
X96238033Y-79682087D01*
X96225443Y-79703093D01*
X96210855Y-79722763D01*
X96194408Y-79740908D01*
X96176263Y-79757355D01*
X96156593Y-79771943D01*
X96135587Y-79784533D01*
X96113449Y-79795004D01*
X96090391Y-79803254D01*
X96066635Y-79809205D01*
X96042410Y-79812798D01*
X96017950Y-79814000D01*
X95117050Y-79814000D01*
X95092590Y-79812798D01*
X95068365Y-79809205D01*
X95044609Y-79803254D01*
X95021551Y-79795004D01*
X94999413Y-79784533D01*
X94978407Y-79771943D01*
X94958737Y-79757355D01*
X94940592Y-79740908D01*
X94924145Y-79722763D01*
X94909557Y-79703093D01*
X94896967Y-79682087D01*
X94886496Y-79659949D01*
X94878246Y-79636891D01*
X94872295Y-79613135D01*
X94868702Y-79588910D01*
X94867500Y-79564450D01*
X94867500Y-78913550D01*
X94868702Y-78889090D01*
X94872295Y-78864865D01*
X94878246Y-78841109D01*
X94886496Y-78818051D01*
X94896967Y-78795913D01*
X94909557Y-78774907D01*
X94924145Y-78755237D01*
X94940592Y-78737092D01*
X94958737Y-78720645D01*
X94978407Y-78706057D01*
X94999413Y-78693467D01*
X95021551Y-78682996D01*
X95044609Y-78674746D01*
X95068365Y-78668795D01*
X95092590Y-78665202D01*
X95117050Y-78664000D01*
X96017950Y-78664000D01*
X96042410Y-78665202D01*
G37*
G04 #@! TD.AperFunction*
G04 #@! TA.AperFunction,SMDPad,CuDef*
G36*
X96042410Y-80715202D02*
G01*
X96066635Y-80718795D01*
X96090391Y-80724746D01*
X96113449Y-80732996D01*
X96135587Y-80743467D01*
X96156593Y-80756057D01*
X96176263Y-80770645D01*
X96194408Y-80787092D01*
X96210855Y-80805237D01*
X96225443Y-80824907D01*
X96238033Y-80845913D01*
X96248504Y-80868051D01*
X96256754Y-80891109D01*
X96262705Y-80914865D01*
X96266298Y-80939090D01*
X96267500Y-80963550D01*
X96267500Y-81614450D01*
X96266298Y-81638910D01*
X96262705Y-81663135D01*
X96256754Y-81686891D01*
X96248504Y-81709949D01*
X96238033Y-81732087D01*
X96225443Y-81753093D01*
X96210855Y-81772763D01*
X96194408Y-81790908D01*
X96176263Y-81807355D01*
X96156593Y-81821943D01*
X96135587Y-81834533D01*
X96113449Y-81845004D01*
X96090391Y-81853254D01*
X96066635Y-81859205D01*
X96042410Y-81862798D01*
X96017950Y-81864000D01*
X95117050Y-81864000D01*
X95092590Y-81862798D01*
X95068365Y-81859205D01*
X95044609Y-81853254D01*
X95021551Y-81845004D01*
X94999413Y-81834533D01*
X94978407Y-81821943D01*
X94958737Y-81807355D01*
X94940592Y-81790908D01*
X94924145Y-81772763D01*
X94909557Y-81753093D01*
X94896967Y-81732087D01*
X94886496Y-81709949D01*
X94878246Y-81686891D01*
X94872295Y-81663135D01*
X94868702Y-81638910D01*
X94867500Y-81614450D01*
X94867500Y-80963550D01*
X94868702Y-80939090D01*
X94872295Y-80914865D01*
X94878246Y-80891109D01*
X94886496Y-80868051D01*
X94896967Y-80845913D01*
X94909557Y-80824907D01*
X94924145Y-80805237D01*
X94940592Y-80787092D01*
X94958737Y-80770645D01*
X94978407Y-80756057D01*
X94999413Y-80743467D01*
X95021551Y-80732996D01*
X95044609Y-80724746D01*
X95068365Y-80718795D01*
X95092590Y-80715202D01*
X95117050Y-80714000D01*
X96017950Y-80714000D01*
X96042410Y-80715202D01*
G37*
G04 #@! TD.AperFunction*
G04 #@! TA.AperFunction,SMDPad,CuDef*
G36*
X161129910Y-94456602D02*
G01*
X161154135Y-94460195D01*
X161177891Y-94466146D01*
X161200949Y-94474396D01*
X161223087Y-94484867D01*
X161244093Y-94497457D01*
X161263763Y-94512045D01*
X161281908Y-94528492D01*
X161298355Y-94546637D01*
X161312943Y-94566307D01*
X161325533Y-94587313D01*
X161336004Y-94609451D01*
X161344254Y-94632509D01*
X161350205Y-94656265D01*
X161353798Y-94680490D01*
X161355000Y-94704950D01*
X161355000Y-95355850D01*
X161353798Y-95380310D01*
X161350205Y-95404535D01*
X161344254Y-95428291D01*
X161336004Y-95451349D01*
X161325533Y-95473487D01*
X161312943Y-95494493D01*
X161298355Y-95514163D01*
X161281908Y-95532308D01*
X161263763Y-95548755D01*
X161244093Y-95563343D01*
X161223087Y-95575933D01*
X161200949Y-95586404D01*
X161177891Y-95594654D01*
X161154135Y-95600605D01*
X161129910Y-95604198D01*
X161105450Y-95605400D01*
X160204550Y-95605400D01*
X160180090Y-95604198D01*
X160155865Y-95600605D01*
X160132109Y-95594654D01*
X160109051Y-95586404D01*
X160086913Y-95575933D01*
X160065907Y-95563343D01*
X160046237Y-95548755D01*
X160028092Y-95532308D01*
X160011645Y-95514163D01*
X159997057Y-95494493D01*
X159984467Y-95473487D01*
X159973996Y-95451349D01*
X159965746Y-95428291D01*
X159959795Y-95404535D01*
X159956202Y-95380310D01*
X159955000Y-95355850D01*
X159955000Y-94704950D01*
X159956202Y-94680490D01*
X159959795Y-94656265D01*
X159965746Y-94632509D01*
X159973996Y-94609451D01*
X159984467Y-94587313D01*
X159997057Y-94566307D01*
X160011645Y-94546637D01*
X160028092Y-94528492D01*
X160046237Y-94512045D01*
X160065907Y-94497457D01*
X160086913Y-94484867D01*
X160109051Y-94474396D01*
X160132109Y-94466146D01*
X160155865Y-94460195D01*
X160180090Y-94456602D01*
X160204550Y-94455400D01*
X161105450Y-94455400D01*
X161129910Y-94456602D01*
G37*
G04 #@! TD.AperFunction*
G04 #@! TA.AperFunction,SMDPad,CuDef*
G36*
X161129910Y-92406602D02*
G01*
X161154135Y-92410195D01*
X161177891Y-92416146D01*
X161200949Y-92424396D01*
X161223087Y-92434867D01*
X161244093Y-92447457D01*
X161263763Y-92462045D01*
X161281908Y-92478492D01*
X161298355Y-92496637D01*
X161312943Y-92516307D01*
X161325533Y-92537313D01*
X161336004Y-92559451D01*
X161344254Y-92582509D01*
X161350205Y-92606265D01*
X161353798Y-92630490D01*
X161355000Y-92654950D01*
X161355000Y-93305850D01*
X161353798Y-93330310D01*
X161350205Y-93354535D01*
X161344254Y-93378291D01*
X161336004Y-93401349D01*
X161325533Y-93423487D01*
X161312943Y-93444493D01*
X161298355Y-93464163D01*
X161281908Y-93482308D01*
X161263763Y-93498755D01*
X161244093Y-93513343D01*
X161223087Y-93525933D01*
X161200949Y-93536404D01*
X161177891Y-93544654D01*
X161154135Y-93550605D01*
X161129910Y-93554198D01*
X161105450Y-93555400D01*
X160204550Y-93555400D01*
X160180090Y-93554198D01*
X160155865Y-93550605D01*
X160132109Y-93544654D01*
X160109051Y-93536404D01*
X160086913Y-93525933D01*
X160065907Y-93513343D01*
X160046237Y-93498755D01*
X160028092Y-93482308D01*
X160011645Y-93464163D01*
X159997057Y-93444493D01*
X159984467Y-93423487D01*
X159973996Y-93401349D01*
X159965746Y-93378291D01*
X159959795Y-93354535D01*
X159956202Y-93330310D01*
X159955000Y-93305850D01*
X159955000Y-92654950D01*
X159956202Y-92630490D01*
X159959795Y-92606265D01*
X159965746Y-92582509D01*
X159973996Y-92559451D01*
X159984467Y-92537313D01*
X159997057Y-92516307D01*
X160011645Y-92496637D01*
X160028092Y-92478492D01*
X160046237Y-92462045D01*
X160065907Y-92447457D01*
X160086913Y-92434867D01*
X160109051Y-92424396D01*
X160132109Y-92416146D01*
X160155865Y-92410195D01*
X160180090Y-92406602D01*
X160204550Y-92405400D01*
X161105450Y-92405400D01*
X161129910Y-92406602D01*
G37*
G04 #@! TD.AperFunction*
G04 #@! TA.AperFunction,SMDPad,CuDef*
G36*
X126712910Y-73102602D02*
G01*
X126737135Y-73106195D01*
X126760891Y-73112146D01*
X126783949Y-73120396D01*
X126806087Y-73130867D01*
X126827093Y-73143457D01*
X126846763Y-73158045D01*
X126864908Y-73174492D01*
X126881355Y-73192637D01*
X126895943Y-73212307D01*
X126908533Y-73233313D01*
X126919004Y-73255451D01*
X126927254Y-73278509D01*
X126933205Y-73302265D01*
X126936798Y-73326490D01*
X126938000Y-73350950D01*
X126938000Y-74001850D01*
X126936798Y-74026310D01*
X126933205Y-74050535D01*
X126927254Y-74074291D01*
X126919004Y-74097349D01*
X126908533Y-74119487D01*
X126895943Y-74140493D01*
X126881355Y-74160163D01*
X126864908Y-74178308D01*
X126846763Y-74194755D01*
X126827093Y-74209343D01*
X126806087Y-74221933D01*
X126783949Y-74232404D01*
X126760891Y-74240654D01*
X126737135Y-74246605D01*
X126712910Y-74250198D01*
X126688450Y-74251400D01*
X125787550Y-74251400D01*
X125763090Y-74250198D01*
X125738865Y-74246605D01*
X125715109Y-74240654D01*
X125692051Y-74232404D01*
X125669913Y-74221933D01*
X125648907Y-74209343D01*
X125629237Y-74194755D01*
X125611092Y-74178308D01*
X125594645Y-74160163D01*
X125580057Y-74140493D01*
X125567467Y-74119487D01*
X125556996Y-74097349D01*
X125548746Y-74074291D01*
X125542795Y-74050535D01*
X125539202Y-74026310D01*
X125538000Y-74001850D01*
X125538000Y-73350950D01*
X125539202Y-73326490D01*
X125542795Y-73302265D01*
X125548746Y-73278509D01*
X125556996Y-73255451D01*
X125567467Y-73233313D01*
X125580057Y-73212307D01*
X125594645Y-73192637D01*
X125611092Y-73174492D01*
X125629237Y-73158045D01*
X125648907Y-73143457D01*
X125669913Y-73130867D01*
X125692051Y-73120396D01*
X125715109Y-73112146D01*
X125738865Y-73106195D01*
X125763090Y-73102602D01*
X125787550Y-73101400D01*
X126688450Y-73101400D01*
X126712910Y-73102602D01*
G37*
G04 #@! TD.AperFunction*
G04 #@! TA.AperFunction,SMDPad,CuDef*
G36*
X126712910Y-75152602D02*
G01*
X126737135Y-75156195D01*
X126760891Y-75162146D01*
X126783949Y-75170396D01*
X126806087Y-75180867D01*
X126827093Y-75193457D01*
X126846763Y-75208045D01*
X126864908Y-75224492D01*
X126881355Y-75242637D01*
X126895943Y-75262307D01*
X126908533Y-75283313D01*
X126919004Y-75305451D01*
X126927254Y-75328509D01*
X126933205Y-75352265D01*
X126936798Y-75376490D01*
X126938000Y-75400950D01*
X126938000Y-76051850D01*
X126936798Y-76076310D01*
X126933205Y-76100535D01*
X126927254Y-76124291D01*
X126919004Y-76147349D01*
X126908533Y-76169487D01*
X126895943Y-76190493D01*
X126881355Y-76210163D01*
X126864908Y-76228308D01*
X126846763Y-76244755D01*
X126827093Y-76259343D01*
X126806087Y-76271933D01*
X126783949Y-76282404D01*
X126760891Y-76290654D01*
X126737135Y-76296605D01*
X126712910Y-76300198D01*
X126688450Y-76301400D01*
X125787550Y-76301400D01*
X125763090Y-76300198D01*
X125738865Y-76296605D01*
X125715109Y-76290654D01*
X125692051Y-76282404D01*
X125669913Y-76271933D01*
X125648907Y-76259343D01*
X125629237Y-76244755D01*
X125611092Y-76228308D01*
X125594645Y-76210163D01*
X125580057Y-76190493D01*
X125567467Y-76169487D01*
X125556996Y-76147349D01*
X125548746Y-76124291D01*
X125542795Y-76100535D01*
X125539202Y-76076310D01*
X125538000Y-76051850D01*
X125538000Y-75400950D01*
X125539202Y-75376490D01*
X125542795Y-75352265D01*
X125548746Y-75328509D01*
X125556996Y-75305451D01*
X125567467Y-75283313D01*
X125580057Y-75262307D01*
X125594645Y-75242637D01*
X125611092Y-75224492D01*
X125629237Y-75208045D01*
X125648907Y-75193457D01*
X125669913Y-75180867D01*
X125692051Y-75170396D01*
X125715109Y-75162146D01*
X125738865Y-75156195D01*
X125763090Y-75152602D01*
X125787550Y-75151400D01*
X126688450Y-75151400D01*
X126712910Y-75152602D01*
G37*
G04 #@! TD.AperFunction*
D13*
X163779200Y-73660000D03*
D14*
X163779200Y-76200000D03*
G04 #@! TA.AperFunction,SMDPad,CuDef*
D15*
G36*
X147847904Y-83529204D02*
G01*
X147872173Y-83532804D01*
X147895971Y-83538765D01*
X147919071Y-83547030D01*
X147941249Y-83557520D01*
X147962293Y-83570133D01*
X147981998Y-83584747D01*
X148000177Y-83601223D01*
X148016653Y-83619402D01*
X148031267Y-83639107D01*
X148043880Y-83660151D01*
X148054370Y-83682329D01*
X148062635Y-83705429D01*
X148068596Y-83729227D01*
X148072196Y-83753496D01*
X148073400Y-83778000D01*
X148073400Y-84878000D01*
X148072196Y-84902504D01*
X148068596Y-84926773D01*
X148062635Y-84950571D01*
X148054370Y-84973671D01*
X148043880Y-84995849D01*
X148031267Y-85016893D01*
X148016653Y-85036598D01*
X148000177Y-85054777D01*
X147981998Y-85071253D01*
X147962293Y-85085867D01*
X147941249Y-85098480D01*
X147919071Y-85108970D01*
X147895971Y-85117235D01*
X147872173Y-85123196D01*
X147847904Y-85126796D01*
X147823400Y-85128000D01*
X144823400Y-85128000D01*
X144798896Y-85126796D01*
X144774627Y-85123196D01*
X144750829Y-85117235D01*
X144727729Y-85108970D01*
X144705551Y-85098480D01*
X144684507Y-85085867D01*
X144664802Y-85071253D01*
X144646623Y-85054777D01*
X144630147Y-85036598D01*
X144615533Y-85016893D01*
X144602920Y-84995849D01*
X144592430Y-84973671D01*
X144584165Y-84950571D01*
X144578204Y-84926773D01*
X144574604Y-84902504D01*
X144573400Y-84878000D01*
X144573400Y-83778000D01*
X144574604Y-83753496D01*
X144578204Y-83729227D01*
X144584165Y-83705429D01*
X144592430Y-83682329D01*
X144602920Y-83660151D01*
X144615533Y-83639107D01*
X144630147Y-83619402D01*
X144646623Y-83601223D01*
X144664802Y-83584747D01*
X144684507Y-83570133D01*
X144705551Y-83557520D01*
X144727729Y-83547030D01*
X144750829Y-83538765D01*
X144774627Y-83532804D01*
X144798896Y-83529204D01*
X144823400Y-83528000D01*
X147823400Y-83528000D01*
X147847904Y-83529204D01*
G37*
G04 #@! TD.AperFunction*
G04 #@! TA.AperFunction,SMDPad,CuDef*
G36*
X153447904Y-83529204D02*
G01*
X153472173Y-83532804D01*
X153495971Y-83538765D01*
X153519071Y-83547030D01*
X153541249Y-83557520D01*
X153562293Y-83570133D01*
X153581998Y-83584747D01*
X153600177Y-83601223D01*
X153616653Y-83619402D01*
X153631267Y-83639107D01*
X153643880Y-83660151D01*
X153654370Y-83682329D01*
X153662635Y-83705429D01*
X153668596Y-83729227D01*
X153672196Y-83753496D01*
X153673400Y-83778000D01*
X153673400Y-84878000D01*
X153672196Y-84902504D01*
X153668596Y-84926773D01*
X153662635Y-84950571D01*
X153654370Y-84973671D01*
X153643880Y-84995849D01*
X153631267Y-85016893D01*
X153616653Y-85036598D01*
X153600177Y-85054777D01*
X153581998Y-85071253D01*
X153562293Y-85085867D01*
X153541249Y-85098480D01*
X153519071Y-85108970D01*
X153495971Y-85117235D01*
X153472173Y-85123196D01*
X153447904Y-85126796D01*
X153423400Y-85128000D01*
X150423400Y-85128000D01*
X150398896Y-85126796D01*
X150374627Y-85123196D01*
X150350829Y-85117235D01*
X150327729Y-85108970D01*
X150305551Y-85098480D01*
X150284507Y-85085867D01*
X150264802Y-85071253D01*
X150246623Y-85054777D01*
X150230147Y-85036598D01*
X150215533Y-85016893D01*
X150202920Y-84995849D01*
X150192430Y-84973671D01*
X150184165Y-84950571D01*
X150178204Y-84926773D01*
X150174604Y-84902504D01*
X150173400Y-84878000D01*
X150173400Y-83778000D01*
X150174604Y-83753496D01*
X150178204Y-83729227D01*
X150184165Y-83705429D01*
X150192430Y-83682329D01*
X150202920Y-83660151D01*
X150215533Y-83639107D01*
X150230147Y-83619402D01*
X150246623Y-83601223D01*
X150264802Y-83584747D01*
X150284507Y-83570133D01*
X150305551Y-83557520D01*
X150327729Y-83547030D01*
X150350829Y-83538765D01*
X150374627Y-83532804D01*
X150398896Y-83529204D01*
X150423400Y-83528000D01*
X153423400Y-83528000D01*
X153447904Y-83529204D01*
G37*
G04 #@! TD.AperFunction*
D20*
X104426400Y-73914000D03*
X102126400Y-73914000D03*
X98635200Y-58953400D03*
X96335200Y-58953400D03*
X103588200Y-58953400D03*
X101288200Y-58953400D03*
D13*
X130886200Y-86398100D03*
X92583000Y-85725000D03*
X112395000Y-85725000D03*
D29*
X141960600Y-60706000D03*
X133438900Y-63347600D03*
X104546400Y-65303400D03*
X104546400Y-67487800D03*
X97536000Y-64617600D03*
X98450400Y-64617600D03*
X98450400Y-65379600D03*
X97536000Y-65379600D03*
X97536000Y-66141600D03*
X98450400Y-66141600D03*
X95427800Y-76809600D03*
X109626400Y-67614800D03*
X140436600Y-70307208D03*
X111480600Y-60070994D03*
X115443000Y-64998600D03*
X97155000Y-74371200D03*
X90957400Y-64846200D03*
X91846400Y-64846200D03*
X90068400Y-64846200D03*
X104546400Y-64033400D03*
X104546400Y-68757800D03*
X98856800Y-80568800D03*
X125806200Y-84556600D03*
X95567500Y-82321400D03*
X110248700Y-81457800D03*
X122339100Y-75184000D03*
X123304300Y-75184000D03*
X123304300Y-76149200D03*
X122339100Y-76149200D03*
X122339100Y-77114400D03*
X123304300Y-77114400D03*
X102463600Y-78993998D03*
X98526600Y-74345800D03*
X145796000Y-77520800D03*
X145796000Y-78790800D03*
X145796000Y-80060800D03*
X145796000Y-81330800D03*
X145796000Y-82600800D03*
X145796000Y-83870800D03*
X127762000Y-59283600D03*
X105079800Y-58953400D03*
D30*
X139585700Y-65824100D03*
D29*
X148259800Y-107962700D03*
X116916200Y-83413600D03*
D30*
X111569490Y-63131698D03*
X140868400Y-65811400D03*
X112649000Y-63131700D03*
D29*
X97904300Y-83413600D03*
X116916190Y-82321400D03*
D30*
X116078000Y-56515000D03*
X112623600Y-64820800D03*
D29*
X122603332Y-83111268D03*
X100901500Y-77508100D03*
X124612400Y-87779932D03*
X144640300Y-107835700D03*
X98898782Y-83442882D03*
D30*
X136613903Y-56515000D03*
D29*
X126212600Y-87744300D03*
X140683005Y-63119000D03*
X140944600Y-60706000D03*
X86817200Y-70789800D03*
X86817200Y-70027800D03*
X86817200Y-69265800D03*
D30*
X95625512Y-69164200D03*
X94970600Y-69164200D03*
X94970600Y-64727727D03*
X95625512Y-64727727D03*
X95612812Y-70688200D03*
X94957900Y-70688200D03*
D29*
X119430794Y-74752200D03*
X114554000Y-67970400D03*
X112445800Y-67970400D03*
D30*
X97053398Y-67449700D03*
D29*
X107645200Y-68884800D03*
D30*
X106705400Y-73075800D03*
X93878400Y-67221100D03*
D29*
X93891098Y-75336400D03*
X92621100Y-81026000D03*
D30*
X140716000Y-71602600D03*
D29*
X142087600Y-72974200D03*
D30*
X100330000Y-65108727D03*
X101015800Y-65100200D03*
D29*
X99237800Y-60528200D03*
D30*
X93865700Y-66217800D03*
X93865700Y-64325500D03*
D29*
X115214400Y-84556600D03*
X113258600Y-89077800D03*
D31*
X141960600Y-61747400D02*
X141960600Y-59715400D01*
D32*
X132177900Y-61409800D02*
X132041900Y-61273800D01*
D33*
X132177900Y-63347600D02*
X132177900Y-61409800D01*
X133438900Y-63347600D02*
X132177900Y-63347600D01*
X132177900Y-64047600D02*
X132177900Y-63347600D01*
X130956900Y-65268600D02*
X132177900Y-64047600D01*
X128978700Y-65268600D02*
X130956900Y-65268600D01*
D34*
X98561000Y-64761000D02*
X97967800Y-65354200D01*
X98767800Y-64554200D02*
X97967800Y-65354200D01*
D33*
X109626400Y-67614800D02*
X109626400Y-66457800D01*
D34*
X123584400Y-76899200D02*
X122834400Y-76149200D01*
X124384400Y-76899200D02*
X123584400Y-76899200D01*
X119430800Y-80822800D02*
X117805200Y-80822800D01*
X123933600Y-80180800D02*
X123933600Y-79146400D01*
X123545600Y-80568800D02*
X123933600Y-80180800D01*
X122834400Y-77216000D02*
X122834400Y-76149200D01*
X123933600Y-79146400D02*
X123933600Y-78315200D01*
X123933600Y-78315200D02*
X122834400Y-77216000D01*
X119430800Y-80772000D02*
X119380000Y-80822800D01*
X119430800Y-77927200D02*
X119430800Y-80772000D01*
X117221000Y-80238600D02*
X117805200Y-80822800D01*
X117144800Y-78943200D02*
X117221000Y-79019400D01*
X117221000Y-79019400D02*
X117221000Y-80238600D01*
D35*
X140444600Y-68925800D02*
X140444600Y-70299208D01*
D34*
X140444600Y-70299208D02*
X140436600Y-70307208D01*
X140422592Y-70293200D02*
X140436600Y-70307208D01*
X111480606Y-60071000D02*
X111480600Y-60070994D01*
X112395000Y-60071000D02*
X111480606Y-60071000D01*
D31*
X115443000Y-63398400D02*
X115443000Y-64998600D01*
D34*
X147154900Y-80463000D02*
X147154900Y-78333600D01*
X147154900Y-81788000D02*
X147154900Y-80463000D01*
X147154900Y-83031300D02*
X147154900Y-81788000D01*
X148477000Y-84353400D02*
X147154900Y-83031300D01*
X97523400Y-66154200D02*
X97536000Y-66141600D01*
X96492800Y-66154200D02*
X97523400Y-66154200D01*
D36*
X98561000Y-62331600D02*
X98561000Y-64761000D01*
D33*
X104546400Y-64033400D02*
X104546400Y-65303400D01*
X104546400Y-65303400D02*
X104546400Y-65201800D01*
X104546400Y-68757800D02*
X104546400Y-67487800D01*
X105346500Y-68757800D02*
X105981500Y-68122800D01*
X104546400Y-68757800D02*
X105346500Y-68757800D01*
X104546400Y-67487800D02*
X105346500Y-67487800D01*
X105346500Y-67487800D02*
X105981500Y-68122800D01*
X105346500Y-65303400D02*
X105981500Y-64668400D01*
X104546400Y-65303400D02*
X105346500Y-65303400D01*
X105346500Y-64033400D02*
X105981500Y-64668400D01*
X104546400Y-64033400D02*
X105346500Y-64033400D01*
D34*
X97967800Y-65076000D02*
X97967800Y-65354200D01*
D31*
X98856800Y-80162400D02*
X98856800Y-80568800D01*
X98856800Y-80162400D02*
X98856800Y-79256900D01*
D34*
X125589000Y-84555300D02*
X125590300Y-84556600D01*
D37*
X95567500Y-81139000D02*
X95567500Y-82321400D01*
D34*
X110248700Y-81623400D02*
X110248700Y-81457800D01*
X123291600Y-80822800D02*
X123545600Y-80568800D01*
X117805200Y-80822800D02*
X123291600Y-80822800D01*
X98513800Y-64554200D02*
X98450400Y-64617600D01*
X99442800Y-64554200D02*
X98513800Y-64554200D01*
D35*
X124384400Y-74546000D02*
X124384400Y-74899200D01*
X123554600Y-72898000D02*
X124384400Y-73727800D01*
X124384400Y-73727800D02*
X124384400Y-74546000D01*
D31*
X102463600Y-80151000D02*
X102463600Y-78993998D01*
D38*
X109293700Y-82412800D02*
X110248700Y-81457800D01*
X109293700Y-82483200D02*
X109293700Y-82412800D01*
D31*
X124390800Y-79603600D02*
X126866000Y-79603600D01*
X123933600Y-79146400D02*
X124390800Y-79603600D01*
D34*
X123589100Y-74899200D02*
X123304300Y-75184000D01*
D39*
X124384400Y-74899200D02*
X123589100Y-74899200D01*
D31*
X124409200Y-84555300D02*
X125804900Y-84555300D01*
X125806200Y-84556600D02*
X125552200Y-84556600D01*
X125804900Y-84555300D02*
X125806200Y-84556600D01*
X138051400Y-70293200D02*
X140422592Y-70293200D01*
X137693400Y-69935200D02*
X138051400Y-70293200D01*
X126217100Y-59298800D02*
X127746800Y-59298800D01*
D32*
X127746800Y-59298800D02*
X127762000Y-59283600D01*
D40*
X103588200Y-58953400D02*
X103555800Y-58953400D01*
D31*
X103555800Y-58953400D02*
X105079800Y-58953400D01*
D41*
X162776800Y-96520000D02*
X163779200Y-96520000D01*
X160655000Y-95030400D02*
X162144600Y-96520000D01*
X162144600Y-96520000D02*
X162776800Y-96520000D01*
D33*
X123221100Y-64255000D02*
X123221100Y-63347600D01*
X127078700Y-65268600D02*
X124234700Y-65268600D01*
X124234700Y-65268600D02*
X123221100Y-64255000D01*
X130127900Y-63347600D02*
X125521100Y-63347600D01*
D37*
X129637100Y-61895300D02*
X129637100Y-61198800D01*
X130127900Y-63347600D02*
X130127900Y-62386100D01*
X130127900Y-62386100D02*
X129637100Y-61895300D01*
D34*
X121278400Y-76893200D02*
X117221000Y-76893200D01*
X121284400Y-76899200D02*
X121278400Y-76893200D01*
D42*
X93717719Y-115443000D02*
X92379800Y-115443000D01*
X94919800Y-115443000D02*
X93717719Y-115443000D01*
X82670000Y-69011800D02*
X82677000Y-70027800D01*
X82677000Y-70027800D02*
X82670000Y-71043800D01*
D38*
X115443000Y-60782200D02*
X115443000Y-61366400D01*
X115443000Y-60502800D02*
X115443000Y-60782200D01*
D42*
X82677000Y-65227200D02*
X93141800Y-54762400D01*
X82677000Y-104636200D02*
X82677000Y-65227200D01*
X93141800Y-54762400D02*
X115112800Y-54762400D01*
X92379800Y-115443000D02*
X92379800Y-114339000D01*
X92379800Y-114339000D02*
X82677000Y-104636200D01*
D31*
X109626400Y-64707800D02*
X109626400Y-54762400D01*
D34*
X114935000Y-54940200D02*
X115112800Y-54762400D01*
D38*
X124052300Y-82296000D02*
X124409200Y-82652900D01*
X121926300Y-82296000D02*
X124052300Y-82296000D01*
X83176100Y-79256900D02*
X82677000Y-79756000D01*
X115443000Y-60071000D02*
X115443000Y-60502800D01*
X114427000Y-60071000D02*
X115443000Y-60071000D01*
X121418300Y-82296000D02*
X121926300Y-82296000D01*
X121060200Y-82654100D02*
X121418300Y-82296000D01*
D35*
X139944600Y-68925800D02*
X139614000Y-68925800D01*
X138573400Y-67885200D02*
X137693400Y-67885200D01*
X139614000Y-68925800D02*
X138573400Y-67885200D01*
D33*
X134200900Y-61881400D02*
X137649600Y-61881400D01*
X137649600Y-61881400D02*
X137693400Y-61925200D01*
D31*
X139928600Y-59715400D02*
X139928600Y-61747400D01*
X137649600Y-61867400D02*
X137649600Y-61881400D01*
X139928600Y-61747400D02*
X137769600Y-61747400D01*
X137769600Y-61747400D02*
X137649600Y-61867400D01*
D35*
X111596200Y-64707800D02*
X109626400Y-64707800D01*
X111903000Y-66258800D02*
X111903000Y-65014600D01*
X111903000Y-65014600D02*
X111596200Y-64707800D01*
D38*
X114427000Y-55448200D02*
X114935000Y-54940200D01*
X114427000Y-60071000D02*
X114427000Y-55448200D01*
D42*
X115112800Y-54762400D02*
X136969500Y-54762400D01*
D33*
X137693400Y-55486300D02*
X136969500Y-54762400D01*
X137693400Y-67885200D02*
X137693400Y-55486300D01*
D32*
X119684800Y-83046300D02*
X119684800Y-85686900D01*
X121060200Y-82654100D02*
X120077000Y-82654100D01*
X120077000Y-82654100D02*
X119684800Y-83046300D01*
D34*
X140944600Y-68200800D02*
X140944600Y-68925800D01*
X150095600Y-72397000D02*
X145237200Y-67538600D01*
X145237200Y-67538600D02*
X141351000Y-67538600D01*
X150095600Y-74041000D02*
X150095600Y-72371600D01*
X141351000Y-67538600D02*
X140944600Y-67945000D01*
X140944600Y-67945000D02*
X140944600Y-68200800D01*
D42*
X163779200Y-88900000D02*
X163779200Y-81280000D01*
D34*
X150291800Y-78295500D02*
X150329900Y-78333600D01*
X150329900Y-79658600D02*
X150329900Y-81788000D01*
X150329900Y-78333600D02*
X150329900Y-79658600D01*
X150329900Y-84250500D02*
X150227000Y-84353400D01*
X150329900Y-81788000D02*
X150329900Y-84250500D01*
D38*
X98856800Y-83413610D02*
X98869500Y-83426310D01*
D31*
X98856800Y-81956900D02*
X98856800Y-83413610D01*
D34*
X139944600Y-65465200D02*
X139585700Y-65824100D01*
X139944600Y-64525800D02*
X139944600Y-65465200D01*
D38*
X148263600Y-113083700D02*
X148259800Y-113079900D01*
X148263600Y-114261900D02*
X148263600Y-113083700D01*
X148259800Y-113079900D02*
X148259800Y-107962700D01*
D32*
X116928900Y-83604100D02*
X116916200Y-83591400D01*
X118360200Y-83604100D02*
X116928900Y-83604100D01*
D34*
X111903000Y-61858800D02*
X111903000Y-62798188D01*
X111903000Y-62798188D02*
X111569490Y-63131698D01*
X112403000Y-61858800D02*
X112403000Y-62885700D01*
X112403000Y-62885700D02*
X112649000Y-63131700D01*
X97906800Y-83411100D02*
X97904300Y-83413600D01*
D31*
X97906800Y-81956900D02*
X97906800Y-83411100D01*
D32*
X140444600Y-65387600D02*
X140868400Y-65811400D01*
X140444600Y-64525800D02*
X140444600Y-65387600D01*
X118360200Y-82654100D02*
X117248890Y-82654100D01*
X117248890Y-82654100D02*
X116916190Y-82321400D01*
D35*
X112403000Y-65041400D02*
X112623600Y-64820800D01*
X112403000Y-66258800D02*
X112403000Y-65041400D01*
D31*
X95427800Y-76809600D02*
X96690800Y-76809600D01*
D34*
X122504192Y-83210408D02*
X122603332Y-83111268D01*
D31*
X121060200Y-83604100D02*
X122348200Y-83604100D01*
X122603332Y-83348968D02*
X122603332Y-83111268D01*
X122348200Y-83604100D02*
X122603332Y-83348968D01*
D33*
X94919800Y-98094800D02*
X94919800Y-115443000D01*
X105194100Y-87820500D02*
X94919800Y-98094800D01*
D31*
X105194100Y-87807800D02*
X105194100Y-82696700D01*
D38*
X117563900Y-87807800D02*
X119684800Y-85686900D01*
X105194100Y-87807800D02*
X117563900Y-87807800D01*
D43*
X82795100Y-79256900D02*
X82677000Y-79375000D01*
X95567500Y-79239000D02*
X95549600Y-79256900D01*
X95549600Y-79256900D02*
X82795100Y-79256900D01*
D31*
X97888900Y-79239000D02*
X97906800Y-79256900D01*
X95567500Y-79239000D02*
X97888900Y-79239000D01*
D42*
X97129600Y-117652800D02*
X94919800Y-115443000D01*
X151739600Y-117652800D02*
X97129600Y-117652800D01*
X153263600Y-114261900D02*
X153263600Y-116128800D01*
X153263600Y-116128800D02*
X151739600Y-117652800D01*
D38*
X124612400Y-87779932D02*
X144640300Y-107807832D01*
X144640300Y-107807832D02*
X144640300Y-107835700D01*
X136436103Y-56337200D02*
X136613903Y-56515000D01*
X116078000Y-56515000D02*
X116255800Y-56337200D01*
X116255800Y-56337200D02*
X136436103Y-56337200D01*
X145763600Y-107295300D02*
X145763600Y-114136900D01*
X126212600Y-87744300D02*
X145763600Y-107295300D01*
X145763600Y-114136900D02*
X145763600Y-114261900D01*
D32*
X140944600Y-62382400D02*
X140944600Y-61747400D01*
X141944600Y-64525800D02*
X141944600Y-63382400D01*
X141944600Y-63382400D02*
X140944600Y-62382400D01*
X141444600Y-63727744D02*
X140835856Y-63119000D01*
X141444600Y-64525800D02*
X141444600Y-63727744D01*
X140835856Y-63119000D02*
X140690600Y-63119000D01*
X140690600Y-63119000D02*
X140683005Y-63126595D01*
D31*
X140944600Y-59715400D02*
X140944600Y-60706000D01*
D34*
X96492800Y-64554200D02*
X96492800Y-64954200D01*
X96319273Y-64727727D02*
X96492800Y-64554200D01*
X95625512Y-64727727D02*
X96319273Y-64727727D01*
X119952800Y-76399200D02*
X119430800Y-75877200D01*
X121284400Y-76399200D02*
X119952800Y-76399200D01*
D31*
X119430800Y-74752206D02*
X119430794Y-74752200D01*
X119430800Y-75877200D02*
X119430800Y-74752206D01*
D32*
X131016900Y-60248800D02*
X129637100Y-60248800D01*
X132041900Y-59223800D02*
X131016900Y-60248800D01*
X133843300Y-59223800D02*
X134200900Y-59581400D01*
X132041900Y-59223800D02*
X133843300Y-59223800D01*
D31*
X126217100Y-60248800D02*
X129637100Y-60248800D01*
D32*
X114795400Y-71577200D02*
X115998600Y-71577200D01*
D34*
X121284400Y-73118200D02*
X121504600Y-72898000D01*
X121284400Y-74899200D02*
X121284400Y-73118200D01*
X120183800Y-71577200D02*
X115998600Y-71577200D01*
X121504600Y-72898000D02*
X120183800Y-71577200D01*
X118541800Y-71577200D02*
X119481600Y-70637400D01*
X115998600Y-71577200D02*
X118541800Y-71577200D01*
D32*
X113893600Y-71577200D02*
X114795400Y-71577200D01*
X113893600Y-75742800D02*
X113893600Y-71577200D01*
X113403000Y-71086600D02*
X113893600Y-71577200D01*
X113403000Y-66258800D02*
X113403000Y-71086600D01*
X113403000Y-66258800D02*
X112903000Y-66258800D01*
D34*
X141944600Y-68925800D02*
X141944600Y-71678800D01*
X141944600Y-71678800D02*
X139557000Y-74066400D01*
X139557000Y-74066400D02*
X138353800Y-74066400D01*
X131826000Y-74879200D02*
X131826000Y-74066400D01*
D38*
X131826000Y-74066400D02*
X138353800Y-74066400D01*
D31*
X131826000Y-70383400D02*
X131826000Y-74066400D01*
X130060700Y-69926200D02*
X131368800Y-69926200D01*
X131368800Y-69926200D02*
X131826000Y-70383400D01*
X128028700Y-67268600D02*
X129117600Y-67268600D01*
X130060700Y-68211700D02*
X130060700Y-69926200D01*
X129117600Y-67268600D02*
X130060700Y-68211700D01*
D40*
X138709400Y-74422000D02*
X138353800Y-74066400D01*
D38*
X138709400Y-79527400D02*
X138709400Y-74422000D01*
X132334000Y-74371200D02*
X132334000Y-74066400D01*
X129184400Y-77520800D02*
X132334000Y-74371200D01*
D32*
X110451800Y-71577200D02*
X109248600Y-71577200D01*
X109179400Y-71646400D02*
X109248600Y-71577200D01*
X111353600Y-71577200D02*
X110451800Y-71577200D01*
X111353600Y-69062600D02*
X111353600Y-71577200D01*
X112445800Y-67970400D02*
X111353600Y-69062600D01*
X114554000Y-66497200D02*
X114554000Y-67970400D01*
X113903000Y-66258800D02*
X114315600Y-66258800D01*
X114315600Y-66258800D02*
X114554000Y-66497200D01*
X111353600Y-76250800D02*
X111353600Y-71577200D01*
D40*
X99442800Y-67756300D02*
X99442800Y-66554200D01*
X100685600Y-68999100D02*
X99442800Y-67756300D01*
X100685600Y-71670800D02*
X100685600Y-68999100D01*
D31*
X102126400Y-71670800D02*
X100685600Y-71670800D01*
X102126400Y-73914000D02*
X102126400Y-71670800D01*
D44*
X96492800Y-66554200D02*
X96492800Y-66889102D01*
X96492800Y-66889102D02*
X97053398Y-67449700D01*
D31*
X107645200Y-68345985D02*
X107645200Y-68884800D01*
X106668600Y-62066200D02*
X107645200Y-63042800D01*
X107645200Y-63042800D02*
X107645200Y-68345985D01*
X100939600Y-62066200D02*
X106668600Y-62066200D01*
D38*
X107210000Y-73075800D02*
X106705400Y-73075800D01*
X107315000Y-74211800D02*
X107315000Y-73180800D01*
X107315000Y-73180800D02*
X107210000Y-73075800D01*
X104426400Y-73914000D02*
X104629600Y-74117200D01*
X107220400Y-74117200D02*
X107315000Y-74211800D01*
X104629600Y-74117200D02*
X107220400Y-74117200D01*
X99806800Y-81956900D02*
X99904600Y-82054700D01*
X107393700Y-81663500D02*
X107393700Y-82483200D01*
X106126900Y-80396700D02*
X107393700Y-81663500D01*
X105194100Y-80650700D02*
X105448100Y-80396700D01*
X105448100Y-80396700D02*
X106126900Y-80396700D01*
X104439100Y-80396700D02*
X105194100Y-80396700D01*
X102878900Y-81956900D02*
X104439100Y-80396700D01*
D31*
X102407700Y-81956900D02*
X102463600Y-81901000D01*
X99806800Y-81956900D02*
X102407700Y-81956900D01*
D38*
X117697300Y-85725000D02*
X118868200Y-84554100D01*
X109880400Y-85725000D02*
X117697300Y-85725000D01*
X107393700Y-82483200D02*
X107393700Y-83238300D01*
X107393700Y-83238300D02*
X109880400Y-85725000D01*
D34*
X114426600Y-62382400D02*
X115443000Y-62382400D01*
X113903000Y-61858800D02*
X114426600Y-62382400D01*
X113403000Y-60079000D02*
X113411000Y-60071000D01*
X113403000Y-61858800D02*
X113403000Y-60079000D01*
D38*
X129166000Y-80456800D02*
X129166000Y-81635600D01*
X129166000Y-79603600D02*
X129166000Y-80456800D01*
D39*
X127083200Y-77520800D02*
X129166000Y-79603600D01*
D34*
X126884400Y-77520800D02*
X127083200Y-77520800D01*
D39*
X126762800Y-77399200D02*
X124384400Y-77399200D01*
D34*
X126884400Y-77520800D02*
X126762800Y-77399200D01*
X121284400Y-78797200D02*
X121633600Y-79146400D01*
D35*
X121284400Y-77399200D02*
X121284400Y-78797200D01*
D38*
X126866000Y-85173200D02*
X126866000Y-81889600D01*
X126111000Y-85928200D02*
X126866000Y-85173200D01*
X123215400Y-85928200D02*
X126111000Y-85928200D01*
X121060200Y-84554100D02*
X121841300Y-84554100D01*
X121841300Y-84554100D02*
X123215400Y-85928200D01*
X128658900Y-85173200D02*
X126866000Y-85173200D01*
X129883800Y-86398100D02*
X128658900Y-85173200D01*
X130886200Y-86398100D02*
X129883800Y-86398100D01*
X105257600Y-76511800D02*
X104959800Y-76809600D01*
X107315000Y-76511800D02*
X105257600Y-76511800D01*
X104959800Y-76809600D02*
X104959800Y-76007200D01*
X104959800Y-76007200D02*
X104292400Y-75336400D01*
D40*
X101266400Y-75336400D02*
X104292400Y-75336400D01*
D44*
X93192600Y-65722500D02*
X93192600Y-66789300D01*
X93624400Y-67221100D02*
X93878400Y-67221100D01*
X93192600Y-66789300D02*
X93624400Y-67221100D01*
X96492800Y-65354200D02*
X93560900Y-65354200D01*
X93560900Y-65354200D02*
X93192600Y-65722500D01*
D38*
X104292400Y-75336400D02*
X93891098Y-75336400D01*
X98990800Y-75336400D02*
X101266400Y-75336400D01*
X98990800Y-76809600D02*
X98990800Y-75336400D01*
X99806800Y-79256900D02*
X99806800Y-78577400D01*
X101574600Y-76809600D02*
X102659800Y-76809600D01*
X99806800Y-78577400D02*
X101574600Y-76809600D01*
X92583000Y-85648800D02*
X92621100Y-85686900D01*
X92621100Y-81026000D02*
X92583000Y-81064100D01*
X92583000Y-81064100D02*
X92583000Y-85648800D01*
D32*
X145103800Y-74066400D02*
X147795600Y-74066400D01*
D34*
X141444600Y-70874000D02*
X140716000Y-71602600D01*
X141444600Y-68925800D02*
X141444600Y-70874000D01*
X143179800Y-74066400D02*
X142087600Y-72974200D01*
X145103800Y-74066400D02*
X143179800Y-74066400D01*
D38*
X141249400Y-75996800D02*
X143179800Y-74066400D01*
X141249400Y-79527400D02*
X141249400Y-75996800D01*
D34*
X126238000Y-73826400D02*
X126238000Y-74091800D01*
X128371600Y-74066400D02*
X128117600Y-74066400D01*
X128131600Y-73826400D02*
X128371600Y-74066400D01*
D43*
X126238000Y-73826400D02*
X128131600Y-73826400D01*
D39*
X124879800Y-75399200D02*
X124384400Y-75399200D01*
X126238000Y-74091800D02*
X126187200Y-74091800D01*
X126187200Y-74091800D02*
X124879800Y-75399200D01*
D34*
X125915200Y-75899200D02*
X126238000Y-75576400D01*
D39*
X124384400Y-75899200D02*
X125915200Y-75899200D01*
D34*
X99442800Y-64954200D02*
X99442800Y-65354200D01*
X99597327Y-65108727D02*
X99442800Y-64954200D01*
X100279200Y-65108727D02*
X99597327Y-65108727D01*
X100934112Y-63821688D02*
X100939600Y-63816200D01*
D40*
X101720700Y-65754200D02*
X102806500Y-64668400D01*
X99442800Y-65754200D02*
X101720700Y-65754200D01*
X99442800Y-65754200D02*
X99442800Y-66154200D01*
X100837900Y-66154200D02*
X102806500Y-68122800D01*
X99442800Y-66154200D02*
X100837900Y-66154200D01*
D31*
X101959788Y-63821688D02*
X100934112Y-63821688D01*
X102806500Y-64668400D02*
X101959788Y-63821688D01*
D34*
X96511000Y-64136000D02*
X96492800Y-64154200D01*
D32*
X96511000Y-62331600D02*
X96511000Y-64136000D01*
D31*
X96316800Y-60375800D02*
X96511000Y-60570000D01*
D40*
X96335200Y-58953400D02*
X96316800Y-58971800D01*
D31*
X96511000Y-60570000D02*
X96511000Y-62331600D01*
X96316800Y-58971800D02*
X96316800Y-60375800D01*
X98635200Y-58953400D02*
X101288200Y-58953400D01*
D38*
X99237800Y-59556000D02*
X98635200Y-58953400D01*
X99237800Y-60528200D02*
X99237800Y-59556000D01*
D44*
X94329300Y-65754200D02*
X93865700Y-66217800D01*
X96492800Y-65754200D02*
X94329300Y-65754200D01*
D38*
X93865700Y-58991500D02*
X93865700Y-64325500D01*
X95211900Y-57645300D02*
X93865700Y-58991500D01*
X98635200Y-57919000D02*
X98374200Y-57658000D01*
X98374200Y-57658000D02*
X95948500Y-57658000D01*
X98635200Y-58953400D02*
X98635200Y-57919000D01*
X95948500Y-57658000D02*
X95935800Y-57645300D01*
X95935800Y-57645300D02*
X95211900Y-57645300D01*
D32*
X115976400Y-83794600D02*
X115214400Y-84556600D01*
X115976400Y-76022200D02*
X115976400Y-83794600D01*
X118160800Y-73837800D02*
X115976400Y-76022200D01*
X121284400Y-75399200D02*
X120662000Y-75399200D01*
X120370600Y-74244200D02*
X119964200Y-73837800D01*
X120662000Y-75399200D02*
X120370600Y-75107800D01*
X120370600Y-75107800D02*
X120370600Y-74244200D01*
X119964200Y-73837800D02*
X118160800Y-73837800D01*
D38*
X135153400Y-115925600D02*
X113258600Y-94030800D01*
X113258600Y-94030800D02*
X113258600Y-89077800D01*
X150455900Y-115925600D02*
X135153400Y-115925600D01*
X150763600Y-114261900D02*
X150763600Y-115617900D01*
X150763600Y-115617900D02*
X150455900Y-115925600D01*
D32*
G36*
X130517900Y-57253406D02*
G01*
X130517900Y-59512200D01*
X128689100Y-59512200D01*
X128689100Y-58267600D01*
X128686660Y-58242824D01*
X128679433Y-58218999D01*
X128667697Y-58197043D01*
X128651903Y-58177797D01*
X128632657Y-58162003D01*
X128610701Y-58150267D01*
X128586876Y-58143040D01*
X128561275Y-58140603D01*
X124649675Y-58166003D01*
X124624915Y-58168604D01*
X124601138Y-58175985D01*
X124579258Y-58187864D01*
X124560697Y-58203197D01*
X124332097Y-58431797D01*
X124316303Y-58451043D01*
X124304567Y-58472999D01*
X124297340Y-58496824D01*
X124294900Y-58521600D01*
X124294900Y-59283600D01*
X123126500Y-59283600D01*
X123126500Y-57177206D01*
X123306106Y-56997600D01*
X130262094Y-56997600D01*
X130517900Y-57253406D01*
G37*
X130517900Y-57253406D02*
X130517900Y-59512200D01*
X128689100Y-59512200D01*
X128689100Y-58267600D01*
X128686660Y-58242824D01*
X128679433Y-58218999D01*
X128667697Y-58197043D01*
X128651903Y-58177797D01*
X128632657Y-58162003D01*
X128610701Y-58150267D01*
X128586876Y-58143040D01*
X128561275Y-58140603D01*
X124649675Y-58166003D01*
X124624915Y-58168604D01*
X124601138Y-58175985D01*
X124579258Y-58187864D01*
X124560697Y-58203197D01*
X124332097Y-58431797D01*
X124316303Y-58451043D01*
X124304567Y-58472999D01*
X124297340Y-58496824D01*
X124294900Y-58521600D01*
X124294900Y-59283600D01*
X123126500Y-59283600D01*
X123126500Y-57177206D01*
X123306106Y-56997600D01*
X130262094Y-56997600D01*
X130517900Y-57253406D01*
G36*
X124294900Y-60579000D02*
G01*
X124297340Y-60603776D01*
X124304567Y-60627601D01*
X124316303Y-60649557D01*
X124339249Y-60675426D01*
X124694849Y-60980226D01*
X124715249Y-60994497D01*
X124738041Y-61004515D01*
X124762350Y-61009893D01*
X124777500Y-61010800D01*
X127114300Y-61010800D01*
X127114300Y-61430295D01*
X123223929Y-61442415D01*
X123101100Y-61295020D01*
X123101100Y-60425491D01*
X124294900Y-60415019D01*
X124294900Y-60579000D01*
G37*
X124294900Y-60579000D02*
X124297340Y-60603776D01*
X124304567Y-60627601D01*
X124316303Y-60649557D01*
X124339249Y-60675426D01*
X124694849Y-60980226D01*
X124715249Y-60994497D01*
X124738041Y-61004515D01*
X124762350Y-61009893D01*
X124777500Y-61010800D01*
X127114300Y-61010800D01*
X127114300Y-61430295D01*
X123223929Y-61442415D01*
X123101100Y-61295020D01*
X123101100Y-60425491D01*
X124294900Y-60415019D01*
X124294900Y-60579000D01*
G36*
X134759700Y-60121800D02*
G01*
X131305300Y-60121800D01*
X131280524Y-60124240D01*
X131256699Y-60131467D01*
X131229964Y-60146558D01*
X130780964Y-60477400D01*
X128765300Y-60477400D01*
X128765300Y-60045600D01*
X130797300Y-60045600D01*
X130822076Y-60043160D01*
X130845901Y-60035933D01*
X130874267Y-60019620D01*
X131407667Y-59613220D01*
X131425897Y-59596263D01*
X131440467Y-59576076D01*
X131450820Y-59553434D01*
X131456556Y-59529208D01*
X131457700Y-59512200D01*
X131457700Y-58699400D01*
X134759700Y-58699400D01*
X134759700Y-60121800D01*
G37*
X134759700Y-60121800D02*
X131305300Y-60121800D01*
X131280524Y-60124240D01*
X131256699Y-60131467D01*
X131229964Y-60146558D01*
X130780964Y-60477400D01*
X128765300Y-60477400D01*
X128765300Y-60045600D01*
X130797300Y-60045600D01*
X130822076Y-60043160D01*
X130845901Y-60035933D01*
X130874267Y-60019620D01*
X131407667Y-59613220D01*
X131425897Y-59596263D01*
X131440467Y-59576076D01*
X131450820Y-59553434D01*
X131456556Y-59529208D01*
X131457700Y-59512200D01*
X131457700Y-58699400D01*
X134759700Y-58699400D01*
X134759700Y-60121800D01*
G36*
X148336000Y-73459913D02*
G01*
X148336000Y-74649120D01*
X146247997Y-75717400D01*
X144221200Y-75717400D01*
X144221200Y-72440800D01*
X146249245Y-72440800D01*
X148336000Y-73459913D01*
G37*
X148336000Y-73459913D02*
X148336000Y-74649120D01*
X146247997Y-75717400D01*
X144221200Y-75717400D01*
X144221200Y-72440800D01*
X146249245Y-72440800D01*
X148336000Y-73459913D01*
G36*
X95834200Y-71665962D02*
G01*
X84429600Y-71653538D01*
X84429600Y-68478055D01*
X93624746Y-68453000D01*
X95834200Y-68453000D01*
X95834200Y-71665962D01*
G37*
X95834200Y-71665962D02*
X84429600Y-71653538D01*
X84429600Y-68478055D01*
X93624746Y-68453000D01*
X95834200Y-68453000D01*
X95834200Y-71665962D01*
G36*
X92125800Y-66827400D02*
G01*
X89738200Y-66827400D01*
X89738200Y-64566800D01*
X92125800Y-64566800D01*
X92125800Y-66827400D01*
G37*
X92125800Y-66827400D02*
X89738200Y-66827400D01*
X89738200Y-64566800D01*
X92125800Y-64566800D01*
X92125800Y-66827400D01*
G36*
X100417489Y-66725870D02*
G01*
X101320600Y-67617098D01*
X101320600Y-69596000D01*
X101323040Y-69620776D01*
X101330267Y-69644601D01*
X101342003Y-69666557D01*
X101357797Y-69685803D01*
X101738797Y-70066803D01*
X101758043Y-70082597D01*
X101779999Y-70094333D01*
X101803824Y-70101560D01*
X101828600Y-70104000D01*
X107619800Y-70104000D01*
X107644576Y-70101560D01*
X107668401Y-70094333D01*
X107690357Y-70082597D01*
X107709603Y-70066803D01*
X108180406Y-69596000D01*
X110439200Y-69596000D01*
X110439200Y-73558400D01*
X108605210Y-73558400D01*
X107791495Y-72234595D01*
X107776441Y-72214765D01*
X107757808Y-72198253D01*
X107736312Y-72185693D01*
X107712779Y-72177569D01*
X107683300Y-72174100D01*
X100814590Y-72174100D01*
X98311826Y-69658822D01*
X98292621Y-69642980D01*
X98270693Y-69631189D01*
X98246887Y-69623902D01*
X98221800Y-69621400D01*
X96734927Y-69621400D01*
X96724180Y-68224400D01*
X97383600Y-68224400D01*
X97408376Y-68221960D01*
X97432201Y-68214733D01*
X97454157Y-68202997D01*
X97472042Y-68188543D01*
X98840124Y-66860997D01*
X98857800Y-66860997D01*
X98922530Y-66854622D01*
X98984773Y-66835740D01*
X99042137Y-66805079D01*
X99092416Y-66763816D01*
X99133679Y-66713537D01*
X99164340Y-66656173D01*
X99179364Y-66606647D01*
X99792800Y-66606647D01*
X99857530Y-66600272D01*
X99892325Y-66589717D01*
X100417489Y-66725870D01*
G37*
X100417489Y-66725870D02*
X101320600Y-67617098D01*
X101320600Y-69596000D01*
X101323040Y-69620776D01*
X101330267Y-69644601D01*
X101342003Y-69666557D01*
X101357797Y-69685803D01*
X101738797Y-70066803D01*
X101758043Y-70082597D01*
X101779999Y-70094333D01*
X101803824Y-70101560D01*
X101828600Y-70104000D01*
X107619800Y-70104000D01*
X107644576Y-70101560D01*
X107668401Y-70094333D01*
X107690357Y-70082597D01*
X107709603Y-70066803D01*
X108180406Y-69596000D01*
X110439200Y-69596000D01*
X110439200Y-73558400D01*
X108605210Y-73558400D01*
X107791495Y-72234595D01*
X107776441Y-72214765D01*
X107757808Y-72198253D01*
X107736312Y-72185693D01*
X107712779Y-72177569D01*
X107683300Y-72174100D01*
X100814590Y-72174100D01*
X98311826Y-69658822D01*
X98292621Y-69642980D01*
X98270693Y-69631189D01*
X98246887Y-69623902D01*
X98221800Y-69621400D01*
X96734927Y-69621400D01*
X96724180Y-68224400D01*
X97383600Y-68224400D01*
X97408376Y-68221960D01*
X97432201Y-68214733D01*
X97454157Y-68202997D01*
X97472042Y-68188543D01*
X98840124Y-66860997D01*
X98857800Y-66860997D01*
X98922530Y-66854622D01*
X98984773Y-66835740D01*
X99042137Y-66805079D01*
X99092416Y-66763816D01*
X99133679Y-66713537D01*
X99164340Y-66656173D01*
X99179364Y-66606647D01*
X99792800Y-66606647D01*
X99857530Y-66600272D01*
X99892325Y-66589717D01*
X100417489Y-66725870D01*
G36*
X97053400Y-63212497D02*
G01*
X96768165Y-63453850D01*
X96750828Y-63471717D01*
X96737309Y-63492623D01*
X96728128Y-63515765D01*
X96723200Y-63550800D01*
X96723200Y-64101753D01*
X96266000Y-64101753D01*
X96266000Y-63550800D01*
X96263560Y-63526024D01*
X96256333Y-63502199D01*
X96244597Y-63480243D01*
X96228803Y-63460997D01*
X96207993Y-63444175D01*
X95834200Y-63202309D01*
X95834200Y-61671200D01*
X97053400Y-61671200D01*
X97053400Y-63212497D01*
G37*
X97053400Y-63212497D02*
X96768165Y-63453850D01*
X96750828Y-63471717D01*
X96737309Y-63492623D01*
X96728128Y-63515765D01*
X96723200Y-63550800D01*
X96723200Y-64101753D01*
X96266000Y-64101753D01*
X96266000Y-63550800D01*
X96263560Y-63526024D01*
X96256333Y-63502199D01*
X96244597Y-63480243D01*
X96228803Y-63460997D01*
X96207993Y-63444175D01*
X95834200Y-63202309D01*
X95834200Y-61671200D01*
X97053400Y-61671200D01*
X97053400Y-63212497D01*
G36*
X121234200Y-71094600D02*
G01*
X121236640Y-71119376D01*
X121243867Y-71143201D01*
X121255603Y-71165157D01*
X121264574Y-71177016D01*
X121970800Y-72005005D01*
X121970800Y-73607394D01*
X121525397Y-74052797D01*
X121509603Y-74072043D01*
X121497867Y-74093999D01*
X121490640Y-74117824D01*
X121488200Y-74142600D01*
X121488200Y-74640553D01*
X121483978Y-74654470D01*
X121477603Y-74719200D01*
X121477603Y-74917403D01*
X120959400Y-74917403D01*
X120942100Y-74919107D01*
X120942100Y-73393300D01*
X120939660Y-73368524D01*
X120932433Y-73344699D01*
X120920697Y-73322743D01*
X120904903Y-73303497D01*
X120885657Y-73287703D01*
X120863701Y-73275967D01*
X120839876Y-73268740D01*
X120815100Y-73266300D01*
X115125500Y-73266300D01*
X115125500Y-69951600D01*
X117170200Y-69951600D01*
X117194976Y-69949160D01*
X117226996Y-69938192D01*
X119689380Y-68707000D01*
X121234200Y-68707000D01*
X121234200Y-71094600D01*
G37*
X121234200Y-71094600D02*
X121236640Y-71119376D01*
X121243867Y-71143201D01*
X121255603Y-71165157D01*
X121264574Y-71177016D01*
X121970800Y-72005005D01*
X121970800Y-73607394D01*
X121525397Y-74052797D01*
X121509603Y-74072043D01*
X121497867Y-74093999D01*
X121490640Y-74117824D01*
X121488200Y-74142600D01*
X121488200Y-74640553D01*
X121483978Y-74654470D01*
X121477603Y-74719200D01*
X121477603Y-74917403D01*
X120959400Y-74917403D01*
X120942100Y-74919107D01*
X120942100Y-73393300D01*
X120939660Y-73368524D01*
X120932433Y-73344699D01*
X120920697Y-73322743D01*
X120904903Y-73303497D01*
X120885657Y-73287703D01*
X120863701Y-73275967D01*
X120839876Y-73268740D01*
X120815100Y-73266300D01*
X115125500Y-73266300D01*
X115125500Y-69951600D01*
X117170200Y-69951600D01*
X117194976Y-69949160D01*
X117226996Y-69938192D01*
X119689380Y-68707000D01*
X121234200Y-68707000D01*
X121234200Y-71094600D01*
G36*
X120040400Y-80416400D02*
G01*
X120042840Y-80441176D01*
X120050067Y-80465001D01*
X120061803Y-80486957D01*
X120077597Y-80506203D01*
X120096843Y-80521997D01*
X120118799Y-80533733D01*
X120142624Y-80540960D01*
X120167400Y-80543400D01*
X123012200Y-80543400D01*
X123036976Y-80540960D01*
X123060801Y-80533733D01*
X123082757Y-80521997D01*
X123102003Y-80506203D01*
X123117797Y-80486957D01*
X123129533Y-80465001D01*
X123136760Y-80441176D01*
X123139200Y-80416400D01*
X123139200Y-78282800D01*
X123136760Y-78258024D01*
X123129533Y-78234199D01*
X123117797Y-78212243D01*
X123102003Y-78192997D01*
X123078889Y-78174718D01*
X122266084Y-77673200D01*
X123751958Y-77673200D01*
X123752860Y-77676173D01*
X123783521Y-77733537D01*
X123824784Y-77783816D01*
X123875063Y-77825079D01*
X123932427Y-77855740D01*
X123938042Y-77857443D01*
X124460000Y-78505391D01*
X124460000Y-81254600D01*
X116636800Y-81254600D01*
X116636800Y-78486000D01*
X118160800Y-78486000D01*
X118185576Y-78483560D01*
X118209401Y-78476333D01*
X118231357Y-78464597D01*
X118250603Y-78448803D01*
X118809403Y-77890003D01*
X118825197Y-77870757D01*
X118836933Y-77848801D01*
X118844160Y-77824976D01*
X118846600Y-77800200D01*
X118846600Y-77470000D01*
X120040400Y-77470000D01*
X120040400Y-80416400D01*
G37*
X120040400Y-80416400D02*
X120042840Y-80441176D01*
X120050067Y-80465001D01*
X120061803Y-80486957D01*
X120077597Y-80506203D01*
X120096843Y-80521997D01*
X120118799Y-80533733D01*
X120142624Y-80540960D01*
X120167400Y-80543400D01*
X123012200Y-80543400D01*
X123036976Y-80540960D01*
X123060801Y-80533733D01*
X123082757Y-80521997D01*
X123102003Y-80506203D01*
X123117797Y-80486957D01*
X123129533Y-80465001D01*
X123136760Y-80441176D01*
X123139200Y-80416400D01*
X123139200Y-78282800D01*
X123136760Y-78258024D01*
X123129533Y-78234199D01*
X123117797Y-78212243D01*
X123102003Y-78192997D01*
X123078889Y-78174718D01*
X122266084Y-77673200D01*
X123751958Y-77673200D01*
X123752860Y-77676173D01*
X123783521Y-77733537D01*
X123824784Y-77783816D01*
X123875063Y-77825079D01*
X123932427Y-77855740D01*
X123938042Y-77857443D01*
X124460000Y-78505391D01*
X124460000Y-81254600D01*
X116636800Y-81254600D01*
X116636800Y-78486000D01*
X118160800Y-78486000D01*
X118185576Y-78483560D01*
X118209401Y-78476333D01*
X118231357Y-78464597D01*
X118250603Y-78448803D01*
X118809403Y-77890003D01*
X118825197Y-77870757D01*
X118836933Y-77848801D01*
X118844160Y-77824976D01*
X118846600Y-77800200D01*
X118846600Y-77470000D01*
X120040400Y-77470000D01*
X120040400Y-80416400D01*
G36*
X139420600Y-72397253D02*
G01*
X139420600Y-75717400D01*
X131113950Y-75717400D01*
X131089397Y-72058948D01*
X131086791Y-72034188D01*
X131079404Y-72010413D01*
X131067521Y-71988535D01*
X131051598Y-71969397D01*
X131032247Y-71953732D01*
X131008679Y-71941532D01*
X129336800Y-71287318D01*
X129336800Y-68707000D01*
X130885321Y-68707000D01*
X139420600Y-72397253D01*
G37*
X139420600Y-72397253D02*
X139420600Y-75717400D01*
X131113950Y-75717400D01*
X131089397Y-72058948D01*
X131086791Y-72034188D01*
X131079404Y-72010413D01*
X131067521Y-71988535D01*
X131051598Y-71969397D01*
X131032247Y-71953732D01*
X131008679Y-71941532D01*
X129336800Y-71287318D01*
X129336800Y-68707000D01*
X130885321Y-68707000D01*
X139420600Y-72397253D01*
G36*
X127584200Y-71202241D02*
G01*
X125179792Y-72714291D01*
X125160117Y-72729547D01*
X125143796Y-72748348D01*
X125131457Y-72769971D01*
X125123574Y-72793586D01*
X125120400Y-72821800D01*
X125120400Y-74107422D01*
X124643336Y-74902529D01*
X123952000Y-74882777D01*
X123952000Y-73710800D01*
X123949560Y-73686024D01*
X123942333Y-73662199D01*
X123930597Y-73640243D01*
X123914803Y-73620997D01*
X123895557Y-73605203D01*
X123873601Y-73593467D01*
X123849776Y-73586240D01*
X123825000Y-73583800D01*
X123012200Y-73583800D01*
X123012200Y-68707000D01*
X127584200Y-68707000D01*
X127584200Y-71202241D01*
G37*
X127584200Y-71202241D02*
X125179792Y-72714291D01*
X125160117Y-72729547D01*
X125143796Y-72748348D01*
X125131457Y-72769971D01*
X125123574Y-72793586D01*
X125120400Y-72821800D01*
X125120400Y-74107422D01*
X124643336Y-74902529D01*
X123952000Y-74882777D01*
X123952000Y-73710800D01*
X123949560Y-73686024D01*
X123942333Y-73662199D01*
X123930597Y-73640243D01*
X123914803Y-73620997D01*
X123895557Y-73605203D01*
X123873601Y-73593467D01*
X123849776Y-73586240D01*
X123825000Y-73583800D01*
X123012200Y-73583800D01*
X123012200Y-68707000D01*
X127584200Y-68707000D01*
X127584200Y-71202241D01*
G36*
X99212400Y-74701400D02*
G01*
X96735900Y-74701400D01*
X96735900Y-71412100D01*
X99212400Y-71412100D01*
X99212400Y-74701400D01*
G37*
X99212400Y-74701400D02*
X96735900Y-74701400D01*
X96735900Y-71412100D01*
X99212400Y-71412100D01*
X99212400Y-74701400D01*
G36*
X161127231Y-79583380D02*
G01*
X161149384Y-79594742D01*
X161173328Y-79601563D01*
X161195984Y-79603600D01*
X164693600Y-79603600D01*
X164693600Y-93446600D01*
X159984530Y-93446600D01*
X149555200Y-85989881D01*
X149555200Y-73482200D01*
X151651451Y-73482200D01*
X161127231Y-79583380D01*
G37*
X161127231Y-79583380D02*
X161149384Y-79594742D01*
X161173328Y-79601563D01*
X161195984Y-79603600D01*
X164693600Y-79603600D01*
X164693600Y-93446600D01*
X159984530Y-93446600D01*
X149555200Y-85989881D01*
X149555200Y-73482200D01*
X151651451Y-73482200D01*
X161127231Y-79583380D01*
G36*
X148640800Y-77126688D02*
G01*
X148640800Y-86182200D01*
X144983200Y-86182200D01*
X144983200Y-77114813D01*
X148640800Y-77126688D01*
G37*
X148640800Y-77126688D02*
X148640800Y-86182200D01*
X144983200Y-86182200D01*
X144983200Y-77114813D01*
X148640800Y-77126688D01*
G36*
X99664520Y-64137293D02*
G01*
X99664520Y-64500760D01*
X98856800Y-64500760D01*
X98841155Y-64501727D01*
X98615500Y-64529739D01*
X98615500Y-64135248D01*
X99664520Y-64137293D01*
G37*
X99664520Y-64137293D02*
X99664520Y-64500760D01*
X98856800Y-64500760D01*
X98841155Y-64501727D01*
X98615500Y-64529739D01*
X98615500Y-64135248D01*
X99664520Y-64137293D01*
G36*
X137947400Y-55587900D02*
G01*
X136029700Y-55587900D01*
X136029700Y-53936900D01*
X137947400Y-53936900D01*
X137947400Y-55587900D01*
G37*
X137947400Y-55587900D02*
X136029700Y-55587900D01*
X136029700Y-53936900D01*
X137947400Y-53936900D01*
X137947400Y-55587900D01*
D45*
G36*
X103593900Y-69430900D02*
G01*
X101968132Y-69430900D01*
X101942899Y-67538431D01*
X101942622Y-67535957D01*
X101941867Y-67533584D01*
X101940665Y-67531404D01*
X101939640Y-67530104D01*
X100796640Y-66260104D01*
X100794801Y-66258426D01*
X100792670Y-66257138D01*
X100790329Y-66256291D01*
X100787200Y-66255900D01*
X99971091Y-66255900D01*
X99850783Y-66224709D01*
X99796600Y-66217800D01*
X99098100Y-66217800D01*
X99098100Y-65646300D01*
X101371400Y-65646300D01*
X101373878Y-65646056D01*
X101376260Y-65645333D01*
X101378741Y-65643964D01*
X101988341Y-65212164D01*
X101990222Y-65210532D01*
X101991748Y-65208565D01*
X101992861Y-65206339D01*
X101993519Y-65203937D01*
X101993700Y-65201800D01*
X101993700Y-63360300D01*
X103593900Y-63360300D01*
X103593900Y-69430900D01*
G37*
X103593900Y-69430900D02*
X101968132Y-69430900D01*
X101942899Y-67538431D01*
X101942622Y-67535957D01*
X101941867Y-67533584D01*
X101940665Y-67531404D01*
X101939640Y-67530104D01*
X100796640Y-66260104D01*
X100794801Y-66258426D01*
X100792670Y-66257138D01*
X100790329Y-66256291D01*
X100787200Y-66255900D01*
X99971091Y-66255900D01*
X99850783Y-66224709D01*
X99796600Y-66217800D01*
X99098100Y-66217800D01*
X99098100Y-65646300D01*
X101371400Y-65646300D01*
X101373878Y-65646056D01*
X101376260Y-65645333D01*
X101378741Y-65643964D01*
X101988341Y-65212164D01*
X101990222Y-65210532D01*
X101991748Y-65208565D01*
X101992861Y-65206339D01*
X101993519Y-65203937D01*
X101993700Y-65201800D01*
X101993700Y-63360300D01*
X103593900Y-63360300D01*
X103593900Y-69430900D01*
D32*
G36*
X95923590Y-64550067D02*
G01*
X95946313Y-64560241D01*
X95970584Y-64565786D01*
X95986600Y-64566800D01*
X95988530Y-64566800D01*
X96015827Y-64581390D01*
X96078070Y-64600272D01*
X96142800Y-64606647D01*
X96723200Y-64606647D01*
X96723200Y-64901753D01*
X96142800Y-64901753D01*
X96078070Y-64908128D01*
X96072888Y-64909700D01*
X94767400Y-64909700D01*
X94767400Y-64516000D01*
X95863973Y-64516000D01*
X95923590Y-64550067D01*
G37*
X95923590Y-64550067D02*
X95946313Y-64560241D01*
X95970584Y-64565786D01*
X95986600Y-64566800D01*
X95988530Y-64566800D01*
X96015827Y-64581390D01*
X96078070Y-64600272D01*
X96142800Y-64606647D01*
X96723200Y-64606647D01*
X96723200Y-64901753D01*
X96142800Y-64901753D01*
X96078070Y-64908128D01*
X96072888Y-64909700D01*
X94767400Y-64909700D01*
X94767400Y-64516000D01*
X95863973Y-64516000D01*
X95923590Y-64550067D01*
M02*
