G04 #@! TF.GenerationSoftware,KiCad,Pcbnew,(5.1.5)-3*
G04 #@! TF.CreationDate,2020-06-22T17:40:47-04:00*
G04 #@! TF.ProjectId,lab-supply-usb-boost-buck,6c61622d-7375-4707-906c-792d7573622d,rev?*
G04 #@! TF.SameCoordinates,Original*
G04 #@! TF.FileFunction,Soldermask,Bot*
G04 #@! TF.FilePolarity,Negative*
%FSLAX46Y46*%
G04 Gerber Fmt 4.6, Leading zero omitted, Abs format (unit mm)*
G04 Created by KiCad (PCBNEW (5.1.5)-3) date 2020-06-22 17:40:47*
%MOMM*%
%LPD*%
G04 APERTURE LIST*
%ADD10C,0.100000*%
G04 APERTURE END LIST*
D10*
G36*
X163593543Y-110892867D02*
G01*
X164238382Y-111159968D01*
X164817414Y-111546865D01*
X164818725Y-111547741D01*
X165312259Y-112041275D01*
X165312261Y-112041278D01*
X165700032Y-112621618D01*
X165967133Y-113266457D01*
X166103300Y-113951015D01*
X166103300Y-114648985D01*
X165967133Y-115333543D01*
X165700032Y-115978382D01*
X165455867Y-116343800D01*
X165312259Y-116558725D01*
X164818725Y-117052259D01*
X164818722Y-117052261D01*
X164238382Y-117440032D01*
X163593543Y-117707133D01*
X162908985Y-117843300D01*
X162211015Y-117843300D01*
X161526457Y-117707133D01*
X160881618Y-117440032D01*
X160301278Y-117052261D01*
X160301275Y-117052259D01*
X159807741Y-116558725D01*
X159664133Y-116343800D01*
X159419968Y-115978382D01*
X159152867Y-115333543D01*
X159016700Y-114648985D01*
X159016700Y-113951015D01*
X159152867Y-113266457D01*
X159419968Y-112621618D01*
X159807739Y-112041278D01*
X159807741Y-112041275D01*
X160301275Y-111547741D01*
X160302586Y-111546865D01*
X160881618Y-111159968D01*
X161526457Y-110892867D01*
X162211015Y-110756700D01*
X162908985Y-110756700D01*
X163593543Y-110892867D01*
G37*
G36*
X79773543Y-110892867D02*
G01*
X80418382Y-111159968D01*
X80997414Y-111546865D01*
X80998725Y-111547741D01*
X81492259Y-112041275D01*
X81492261Y-112041278D01*
X81880032Y-112621618D01*
X82147133Y-113266457D01*
X82283300Y-113951015D01*
X82283300Y-114648985D01*
X82147133Y-115333543D01*
X81880032Y-115978382D01*
X81635867Y-116343800D01*
X81492259Y-116558725D01*
X80998725Y-117052259D01*
X80998722Y-117052261D01*
X80418382Y-117440032D01*
X79773543Y-117707133D01*
X79088985Y-117843300D01*
X78391015Y-117843300D01*
X77706457Y-117707133D01*
X77061618Y-117440032D01*
X76481278Y-117052261D01*
X76481275Y-117052259D01*
X75987741Y-116558725D01*
X75844133Y-116343800D01*
X75599968Y-115978382D01*
X75332867Y-115333543D01*
X75196700Y-114648985D01*
X75196700Y-113951015D01*
X75332867Y-113266457D01*
X75599968Y-112621618D01*
X75987739Y-112041278D01*
X75987741Y-112041275D01*
X76481275Y-111547741D01*
X76482586Y-111546865D01*
X77061618Y-111159968D01*
X77706457Y-110892867D01*
X78391015Y-110756700D01*
X79088985Y-110756700D01*
X79773543Y-110892867D01*
G37*
G36*
X95182554Y-114576817D02*
G01*
X95346489Y-114644721D01*
X95494027Y-114743303D01*
X95619497Y-114868773D01*
X95718079Y-115016311D01*
X95785983Y-115180246D01*
X95820600Y-115354279D01*
X95820600Y-115531721D01*
X95785983Y-115705754D01*
X95718079Y-115869689D01*
X95619497Y-116017227D01*
X95494027Y-116142697D01*
X95346489Y-116241279D01*
X95182554Y-116309183D01*
X95008521Y-116343800D01*
X94831079Y-116343800D01*
X94657046Y-116309183D01*
X94493111Y-116241279D01*
X94345573Y-116142697D01*
X94220103Y-116017227D01*
X94121521Y-115869689D01*
X94053617Y-115705754D01*
X94019000Y-115531721D01*
X94019000Y-115354279D01*
X94053617Y-115180246D01*
X94121521Y-115016311D01*
X94220103Y-114868773D01*
X94345573Y-114743303D01*
X94493111Y-114644721D01*
X94657046Y-114576817D01*
X94831079Y-114542200D01*
X95008521Y-114542200D01*
X95182554Y-114576817D01*
G37*
G36*
X93280600Y-116343800D02*
G01*
X91479000Y-116343800D01*
X91479000Y-114542200D01*
X93280600Y-114542200D01*
X93280600Y-116343800D01*
G37*
G36*
X145940189Y-113249134D02*
G01*
X146109989Y-113300642D01*
X146266479Y-113384288D01*
X146403644Y-113496856D01*
X146516212Y-113634021D01*
X146599858Y-113790512D01*
X146651366Y-113960310D01*
X146664400Y-114092651D01*
X146664400Y-114431150D01*
X146651366Y-114563489D01*
X146599858Y-114733289D01*
X146516212Y-114889779D01*
X146403644Y-115026944D01*
X146266477Y-115139514D01*
X146109991Y-115223157D01*
X145940188Y-115274666D01*
X145763600Y-115292058D01*
X145587011Y-115274666D01*
X145417211Y-115223158D01*
X145260721Y-115139512D01*
X145123556Y-115026944D01*
X145010986Y-114889777D01*
X144927343Y-114733291D01*
X144875834Y-114563488D01*
X144862800Y-114431149D01*
X144862800Y-114092650D01*
X144875834Y-113960311D01*
X144927342Y-113790511D01*
X145010988Y-113634021D01*
X145123557Y-113496856D01*
X145260722Y-113384288D01*
X145417212Y-113300642D01*
X145587012Y-113249134D01*
X145763600Y-113231742D01*
X145940189Y-113249134D01*
G37*
G36*
X148440189Y-113249134D02*
G01*
X148609989Y-113300642D01*
X148766479Y-113384288D01*
X148903644Y-113496856D01*
X149016212Y-113634021D01*
X149099858Y-113790512D01*
X149151366Y-113960310D01*
X149164400Y-114092651D01*
X149164400Y-114431150D01*
X149151366Y-114563489D01*
X149099858Y-114733289D01*
X149016212Y-114889779D01*
X148903644Y-115026944D01*
X148766477Y-115139514D01*
X148609991Y-115223157D01*
X148440188Y-115274666D01*
X148263600Y-115292058D01*
X148087011Y-115274666D01*
X147917211Y-115223158D01*
X147760721Y-115139512D01*
X147623556Y-115026944D01*
X147510986Y-114889777D01*
X147427343Y-114733291D01*
X147375834Y-114563488D01*
X147362800Y-114431149D01*
X147362800Y-114092650D01*
X147375834Y-113960311D01*
X147427342Y-113790511D01*
X147510988Y-113634021D01*
X147623557Y-113496856D01*
X147760722Y-113384288D01*
X147917212Y-113300642D01*
X148087012Y-113249134D01*
X148263600Y-113231742D01*
X148440189Y-113249134D01*
G37*
G36*
X150940189Y-113249134D02*
G01*
X151109989Y-113300642D01*
X151266479Y-113384288D01*
X151403644Y-113496856D01*
X151516212Y-113634021D01*
X151599858Y-113790512D01*
X151651366Y-113960310D01*
X151664400Y-114092651D01*
X151664400Y-114431150D01*
X151651366Y-114563489D01*
X151599858Y-114733289D01*
X151516212Y-114889779D01*
X151403644Y-115026944D01*
X151266477Y-115139514D01*
X151109991Y-115223157D01*
X150940188Y-115274666D01*
X150763600Y-115292058D01*
X150587011Y-115274666D01*
X150417211Y-115223158D01*
X150260721Y-115139512D01*
X150123556Y-115026944D01*
X150010986Y-114889777D01*
X149927343Y-114733291D01*
X149875834Y-114563488D01*
X149862800Y-114431149D01*
X149862800Y-114092650D01*
X149875834Y-113960311D01*
X149927342Y-113790511D01*
X150010988Y-113634021D01*
X150123557Y-113496856D01*
X150260722Y-113384288D01*
X150417212Y-113300642D01*
X150587012Y-113249134D01*
X150763600Y-113231742D01*
X150940189Y-113249134D01*
G37*
G36*
X143440189Y-113249134D02*
G01*
X143609989Y-113300642D01*
X143766479Y-113384288D01*
X143903644Y-113496856D01*
X144016212Y-113634021D01*
X144099858Y-113790512D01*
X144151366Y-113960310D01*
X144164400Y-114092651D01*
X144164400Y-114431150D01*
X144151366Y-114563489D01*
X144099858Y-114733289D01*
X144016212Y-114889779D01*
X143903644Y-115026944D01*
X143766477Y-115139514D01*
X143609991Y-115223157D01*
X143440188Y-115274666D01*
X143263600Y-115292058D01*
X143087011Y-115274666D01*
X142917211Y-115223158D01*
X142760721Y-115139512D01*
X142623556Y-115026944D01*
X142510986Y-114889777D01*
X142427343Y-114733291D01*
X142375834Y-114563488D01*
X142362800Y-114431149D01*
X142362800Y-114092650D01*
X142375834Y-113960311D01*
X142427342Y-113790511D01*
X142510988Y-113634021D01*
X142623557Y-113496856D01*
X142760722Y-113384288D01*
X142917212Y-113300642D01*
X143087012Y-113249134D01*
X143263600Y-113231742D01*
X143440189Y-113249134D01*
G37*
G36*
X154008779Y-113240296D02*
G01*
X154044930Y-113251262D01*
X154078251Y-113269073D01*
X154107458Y-113293042D01*
X154131427Y-113322249D01*
X154149238Y-113355570D01*
X154160204Y-113391721D01*
X154164400Y-113434318D01*
X154164400Y-115089482D01*
X154160204Y-115132079D01*
X154149238Y-115168230D01*
X154131427Y-115201551D01*
X154107458Y-115230758D01*
X154078251Y-115254727D01*
X154044930Y-115272538D01*
X154008779Y-115283504D01*
X153966182Y-115287700D01*
X152561018Y-115287700D01*
X152518421Y-115283504D01*
X152482270Y-115272538D01*
X152448949Y-115254727D01*
X152419742Y-115230758D01*
X152395773Y-115201551D01*
X152377962Y-115168230D01*
X152366996Y-115132079D01*
X152362800Y-115089482D01*
X152362800Y-113434318D01*
X152366996Y-113391721D01*
X152377962Y-113355570D01*
X152395773Y-113322249D01*
X152419742Y-113293042D01*
X152448949Y-113269073D01*
X152482270Y-113251262D01*
X152518421Y-113240296D01*
X152561018Y-113236100D01*
X153966182Y-113236100D01*
X154008779Y-113240296D01*
G37*
G36*
X164041954Y-98193817D02*
G01*
X164205889Y-98261721D01*
X164353427Y-98360303D01*
X164478897Y-98485773D01*
X164577479Y-98633311D01*
X164645383Y-98797246D01*
X164680000Y-98971279D01*
X164680000Y-99148721D01*
X164645383Y-99322754D01*
X164577479Y-99486689D01*
X164478897Y-99634227D01*
X164353427Y-99759697D01*
X164205889Y-99858279D01*
X164041954Y-99926183D01*
X163867921Y-99960800D01*
X163690479Y-99960800D01*
X163516446Y-99926183D01*
X163352511Y-99858279D01*
X163204973Y-99759697D01*
X163079503Y-99634227D01*
X162980921Y-99486689D01*
X162913017Y-99322754D01*
X162878400Y-99148721D01*
X162878400Y-98971279D01*
X162913017Y-98797246D01*
X162980921Y-98633311D01*
X163079503Y-98485773D01*
X163204973Y-98360303D01*
X163352511Y-98261721D01*
X163516446Y-98193817D01*
X163690479Y-98159200D01*
X163867921Y-98159200D01*
X164041954Y-98193817D01*
G37*
G36*
X164680000Y-97420800D02*
G01*
X162878400Y-97420800D01*
X162878400Y-95619200D01*
X164680000Y-95619200D01*
X164680000Y-97420800D01*
G37*
G36*
X121683543Y-88032867D02*
G01*
X122328382Y-88299968D01*
X122907414Y-88686865D01*
X122908725Y-88687741D01*
X123402259Y-89181275D01*
X123402261Y-89181278D01*
X123790032Y-89761618D01*
X124057133Y-90406457D01*
X124193300Y-91091015D01*
X124193300Y-91788985D01*
X124057133Y-92473543D01*
X123790032Y-93118382D01*
X123403135Y-93697414D01*
X123402259Y-93698725D01*
X122908725Y-94192259D01*
X122908722Y-94192261D01*
X122328382Y-94580032D01*
X121683543Y-94847133D01*
X120998985Y-94983300D01*
X120301015Y-94983300D01*
X119616457Y-94847133D01*
X118971618Y-94580032D01*
X118391278Y-94192261D01*
X118391275Y-94192259D01*
X117897741Y-93698725D01*
X117896865Y-93697414D01*
X117509968Y-93118382D01*
X117242867Y-92473543D01*
X117106700Y-91788985D01*
X117106700Y-91091015D01*
X117242867Y-90406457D01*
X117509968Y-89761618D01*
X117897739Y-89181278D01*
X117897741Y-89181275D01*
X118391275Y-88687741D01*
X118392586Y-88686865D01*
X118971618Y-88299968D01*
X119616457Y-88032867D01*
X120301015Y-87896700D01*
X120998985Y-87896700D01*
X121683543Y-88032867D01*
G37*
G36*
X78447000Y-93610800D02*
G01*
X76645400Y-93610800D01*
X76645400Y-91809200D01*
X78447000Y-91809200D01*
X78447000Y-93610800D01*
G37*
G36*
X164041954Y-90573817D02*
G01*
X164205889Y-90641721D01*
X164353427Y-90740303D01*
X164478897Y-90865773D01*
X164577479Y-91013311D01*
X164645383Y-91177246D01*
X164680000Y-91351279D01*
X164680000Y-91528721D01*
X164645383Y-91702754D01*
X164577479Y-91866689D01*
X164478897Y-92014227D01*
X164353427Y-92139697D01*
X164205889Y-92238279D01*
X164041954Y-92306183D01*
X163867921Y-92340800D01*
X163690479Y-92340800D01*
X163516446Y-92306183D01*
X163352511Y-92238279D01*
X163204973Y-92139697D01*
X163079503Y-92014227D01*
X162980921Y-91866689D01*
X162913017Y-91702754D01*
X162878400Y-91528721D01*
X162878400Y-91351279D01*
X162913017Y-91177246D01*
X162980921Y-91013311D01*
X163079503Y-90865773D01*
X163204973Y-90740303D01*
X163352511Y-90641721D01*
X163516446Y-90573817D01*
X163690479Y-90539200D01*
X163867921Y-90539200D01*
X164041954Y-90573817D01*
G37*
G36*
X77808954Y-89303817D02*
G01*
X77972889Y-89371721D01*
X78120427Y-89470303D01*
X78245897Y-89595773D01*
X78344479Y-89743311D01*
X78412383Y-89907246D01*
X78447000Y-90081279D01*
X78447000Y-90258721D01*
X78412383Y-90432754D01*
X78344479Y-90596689D01*
X78245897Y-90744227D01*
X78120427Y-90869697D01*
X77972889Y-90968279D01*
X77808954Y-91036183D01*
X77634921Y-91070800D01*
X77457479Y-91070800D01*
X77283446Y-91036183D01*
X77119511Y-90968279D01*
X76971973Y-90869697D01*
X76846503Y-90744227D01*
X76747921Y-90596689D01*
X76680017Y-90432754D01*
X76645400Y-90258721D01*
X76645400Y-90081279D01*
X76680017Y-89907246D01*
X76747921Y-89743311D01*
X76846503Y-89595773D01*
X76971973Y-89470303D01*
X77119511Y-89371721D01*
X77283446Y-89303817D01*
X77457479Y-89269200D01*
X77634921Y-89269200D01*
X77808954Y-89303817D01*
G37*
G36*
X164680000Y-89800800D02*
G01*
X162878400Y-89800800D01*
X162878400Y-87999200D01*
X164680000Y-87999200D01*
X164680000Y-89800800D01*
G37*
G36*
X77808954Y-86763817D02*
G01*
X77972889Y-86831721D01*
X78120427Y-86930303D01*
X78245897Y-87055773D01*
X78344479Y-87203311D01*
X78412383Y-87367246D01*
X78447000Y-87541279D01*
X78447000Y-87718721D01*
X78412383Y-87892754D01*
X78344479Y-88056689D01*
X78245897Y-88204227D01*
X78120427Y-88329697D01*
X77972889Y-88428279D01*
X77808954Y-88496183D01*
X77634921Y-88530800D01*
X77457479Y-88530800D01*
X77283446Y-88496183D01*
X77119511Y-88428279D01*
X76971973Y-88329697D01*
X76846503Y-88204227D01*
X76747921Y-88056689D01*
X76680017Y-87892754D01*
X76645400Y-87718721D01*
X76645400Y-87541279D01*
X76680017Y-87367246D01*
X76747921Y-87203311D01*
X76846503Y-87055773D01*
X76971973Y-86930303D01*
X77119511Y-86831721D01*
X77283446Y-86763817D01*
X77457479Y-86729200D01*
X77634921Y-86729200D01*
X77808954Y-86763817D01*
G37*
G36*
X131787000Y-87298900D02*
G01*
X129985400Y-87298900D01*
X129985400Y-85497300D01*
X131787000Y-85497300D01*
X131787000Y-87298900D01*
G37*
G36*
X113295800Y-86625800D02*
G01*
X111494200Y-86625800D01*
X111494200Y-84824200D01*
X113295800Y-84824200D01*
X113295800Y-86625800D01*
G37*
G36*
X93483800Y-86625800D02*
G01*
X91682200Y-86625800D01*
X91682200Y-84824200D01*
X93483800Y-84824200D01*
X93483800Y-86625800D01*
G37*
G36*
X77808954Y-84223817D02*
G01*
X77972889Y-84291721D01*
X78120427Y-84390303D01*
X78245897Y-84515773D01*
X78344479Y-84663311D01*
X78412383Y-84827246D01*
X78447000Y-85001279D01*
X78447000Y-85178721D01*
X78412383Y-85352754D01*
X78344479Y-85516689D01*
X78245897Y-85664227D01*
X78120427Y-85789697D01*
X77972889Y-85888279D01*
X77808954Y-85956183D01*
X77634921Y-85990800D01*
X77457479Y-85990800D01*
X77283446Y-85956183D01*
X77119511Y-85888279D01*
X76971973Y-85789697D01*
X76846503Y-85664227D01*
X76747921Y-85516689D01*
X76680017Y-85352754D01*
X76645400Y-85178721D01*
X76645400Y-85001279D01*
X76680017Y-84827246D01*
X76747921Y-84663311D01*
X76846503Y-84515773D01*
X76971973Y-84390303D01*
X77119511Y-84291721D01*
X77283446Y-84223817D01*
X77457479Y-84189200D01*
X77634921Y-84189200D01*
X77808954Y-84223817D01*
G37*
G36*
X164041954Y-82953817D02*
G01*
X164205889Y-83021721D01*
X164353427Y-83120303D01*
X164478897Y-83245773D01*
X164577479Y-83393311D01*
X164645383Y-83557246D01*
X164680000Y-83731279D01*
X164680000Y-83908721D01*
X164645383Y-84082754D01*
X164577479Y-84246689D01*
X164478897Y-84394227D01*
X164353427Y-84519697D01*
X164205889Y-84618279D01*
X164041954Y-84686183D01*
X163867921Y-84720800D01*
X163690479Y-84720800D01*
X163516446Y-84686183D01*
X163352511Y-84618279D01*
X163204973Y-84519697D01*
X163079503Y-84394227D01*
X162980921Y-84246689D01*
X162913017Y-84082754D01*
X162878400Y-83908721D01*
X162878400Y-83731279D01*
X162913017Y-83557246D01*
X162980921Y-83393311D01*
X163079503Y-83245773D01*
X163204973Y-83120303D01*
X163352511Y-83021721D01*
X163516446Y-82953817D01*
X163690479Y-82919200D01*
X163867921Y-82919200D01*
X164041954Y-82953817D01*
G37*
G36*
X77808954Y-81683817D02*
G01*
X77972889Y-81751721D01*
X78120427Y-81850303D01*
X78245897Y-81975773D01*
X78344479Y-82123311D01*
X78412383Y-82287246D01*
X78447000Y-82461279D01*
X78447000Y-82638721D01*
X78412383Y-82812754D01*
X78344479Y-82976689D01*
X78245897Y-83124227D01*
X78120427Y-83249697D01*
X77972889Y-83348279D01*
X77808954Y-83416183D01*
X77634921Y-83450800D01*
X77457479Y-83450800D01*
X77283446Y-83416183D01*
X77119511Y-83348279D01*
X76971973Y-83249697D01*
X76846503Y-83124227D01*
X76747921Y-82976689D01*
X76680017Y-82812754D01*
X76645400Y-82638721D01*
X76645400Y-82461279D01*
X76680017Y-82287246D01*
X76747921Y-82123311D01*
X76846503Y-81975773D01*
X76971973Y-81850303D01*
X77119511Y-81751721D01*
X77283446Y-81683817D01*
X77457479Y-81649200D01*
X77634921Y-81649200D01*
X77808954Y-81683817D01*
G37*
G36*
X164680000Y-82180800D02*
G01*
X162878400Y-82180800D01*
X162878400Y-80379200D01*
X164680000Y-80379200D01*
X164680000Y-82180800D01*
G37*
G36*
X77808954Y-79143817D02*
G01*
X77972889Y-79211721D01*
X78120427Y-79310303D01*
X78245897Y-79435773D01*
X78344479Y-79583311D01*
X78412383Y-79747246D01*
X78447000Y-79921279D01*
X78447000Y-80098721D01*
X78412383Y-80272754D01*
X78344479Y-80436689D01*
X78245897Y-80584227D01*
X78120427Y-80709697D01*
X77972889Y-80808279D01*
X77808954Y-80876183D01*
X77634921Y-80910800D01*
X77457479Y-80910800D01*
X77283446Y-80876183D01*
X77119511Y-80808279D01*
X76971973Y-80709697D01*
X76846503Y-80584227D01*
X76747921Y-80436689D01*
X76680017Y-80272754D01*
X76645400Y-80098721D01*
X76645400Y-79921279D01*
X76680017Y-79747246D01*
X76747921Y-79583311D01*
X76846503Y-79435773D01*
X76971973Y-79310303D01*
X77119511Y-79211721D01*
X77283446Y-79143817D01*
X77457479Y-79109200D01*
X77634921Y-79109200D01*
X77808954Y-79143817D01*
G37*
G36*
X139610200Y-80428200D02*
G01*
X137808600Y-80428200D01*
X137808600Y-78626600D01*
X139610200Y-78626600D01*
X139610200Y-80428200D01*
G37*
G36*
X141512154Y-78661217D02*
G01*
X141676089Y-78729121D01*
X141823627Y-78827703D01*
X141949097Y-78953173D01*
X142047679Y-79100711D01*
X142115583Y-79264646D01*
X142150200Y-79438679D01*
X142150200Y-79616121D01*
X142115583Y-79790154D01*
X142047679Y-79954089D01*
X141949097Y-80101627D01*
X141823627Y-80227097D01*
X141676089Y-80325679D01*
X141512154Y-80393583D01*
X141338121Y-80428200D01*
X141160679Y-80428200D01*
X140986646Y-80393583D01*
X140822711Y-80325679D01*
X140675173Y-80227097D01*
X140549703Y-80101627D01*
X140451121Y-79954089D01*
X140383217Y-79790154D01*
X140348600Y-79616121D01*
X140348600Y-79438679D01*
X140383217Y-79264646D01*
X140451121Y-79100711D01*
X140549703Y-78953173D01*
X140675173Y-78827703D01*
X140822711Y-78729121D01*
X140986646Y-78661217D01*
X141160679Y-78626600D01*
X141338121Y-78626600D01*
X141512154Y-78661217D01*
G37*
G36*
X114156354Y-75384617D02*
G01*
X114320289Y-75452521D01*
X114467827Y-75551103D01*
X114593297Y-75676573D01*
X114691879Y-75824111D01*
X114759783Y-75988046D01*
X114794400Y-76162079D01*
X114794400Y-76339521D01*
X114759783Y-76513554D01*
X114691879Y-76677489D01*
X114593297Y-76825027D01*
X114467827Y-76950497D01*
X114320289Y-77049079D01*
X114156354Y-77116983D01*
X113982321Y-77151600D01*
X113804879Y-77151600D01*
X113630846Y-77116983D01*
X113466911Y-77049079D01*
X113319373Y-76950497D01*
X113193903Y-76825027D01*
X113095321Y-76677489D01*
X113027417Y-76513554D01*
X112992800Y-76339521D01*
X112992800Y-76162079D01*
X113027417Y-75988046D01*
X113095321Y-75824111D01*
X113193903Y-75676573D01*
X113319373Y-75551103D01*
X113466911Y-75452521D01*
X113630846Y-75384617D01*
X113804879Y-75350000D01*
X113982321Y-75350000D01*
X114156354Y-75384617D01*
G37*
G36*
X112254400Y-77151600D02*
G01*
X110452800Y-77151600D01*
X110452800Y-75350000D01*
X112254400Y-75350000D01*
X112254400Y-77151600D01*
G37*
G36*
X164041954Y-75333817D02*
G01*
X164205889Y-75401721D01*
X164353427Y-75500303D01*
X164478897Y-75625773D01*
X164577479Y-75773311D01*
X164645383Y-75937246D01*
X164680000Y-76111279D01*
X164680000Y-76288721D01*
X164645383Y-76462754D01*
X164577479Y-76626689D01*
X164478897Y-76774227D01*
X164353427Y-76899697D01*
X164205889Y-76998279D01*
X164041954Y-77066183D01*
X163867921Y-77100800D01*
X163690479Y-77100800D01*
X163516446Y-77066183D01*
X163352511Y-76998279D01*
X163204973Y-76899697D01*
X163079503Y-76774227D01*
X162980921Y-76626689D01*
X162913017Y-76462754D01*
X162878400Y-76288721D01*
X162878400Y-76111279D01*
X162913017Y-75937246D01*
X162980921Y-75773311D01*
X163079503Y-75625773D01*
X163204973Y-75500303D01*
X163352511Y-75401721D01*
X163516446Y-75333817D01*
X163690479Y-75299200D01*
X163867921Y-75299200D01*
X164041954Y-75333817D01*
G37*
G36*
X164680000Y-74560800D02*
G01*
X162878400Y-74560800D01*
X162878400Y-72759200D01*
X164680000Y-72759200D01*
X164680000Y-74560800D01*
G37*
G36*
X78751800Y-73671800D02*
G01*
X76950200Y-73671800D01*
X76950200Y-71870200D01*
X78751800Y-71870200D01*
X78751800Y-73671800D01*
G37*
G36*
X100774500Y-73583800D02*
G01*
X98666300Y-73583800D01*
X98666300Y-70078600D01*
X100774500Y-70078600D01*
X100774500Y-73583800D01*
G37*
G36*
X97320100Y-73583800D02*
G01*
X95211900Y-73583800D01*
X95211900Y-70078600D01*
X97320100Y-70078600D01*
X97320100Y-73583800D01*
G37*
G36*
X78113754Y-69364817D02*
G01*
X78277689Y-69432721D01*
X78425227Y-69531303D01*
X78550697Y-69656773D01*
X78649279Y-69804311D01*
X78717183Y-69968246D01*
X78751800Y-70142279D01*
X78751800Y-70319721D01*
X78717183Y-70493754D01*
X78649279Y-70657689D01*
X78550697Y-70805227D01*
X78425227Y-70930697D01*
X78277689Y-71029279D01*
X78113754Y-71097183D01*
X77939721Y-71131800D01*
X77762279Y-71131800D01*
X77588246Y-71097183D01*
X77424311Y-71029279D01*
X77276773Y-70930697D01*
X77151303Y-70805227D01*
X77052721Y-70657689D01*
X76984817Y-70493754D01*
X76950200Y-70319721D01*
X76950200Y-70142279D01*
X76984817Y-69968246D01*
X77052721Y-69804311D01*
X77151303Y-69656773D01*
X77276773Y-69531303D01*
X77424311Y-69432721D01*
X77588246Y-69364817D01*
X77762279Y-69330200D01*
X77939721Y-69330200D01*
X78113754Y-69364817D01*
G37*
G36*
X99623981Y-67833796D02*
G01*
X99664052Y-67845952D01*
X99700976Y-67865688D01*
X99733346Y-67892254D01*
X99759912Y-67924624D01*
X99779648Y-67961548D01*
X99791804Y-68001619D01*
X99796400Y-68048286D01*
X99796400Y-69111714D01*
X99791804Y-69158381D01*
X99779648Y-69198452D01*
X99759912Y-69235376D01*
X99733346Y-69267746D01*
X99700976Y-69294312D01*
X99664052Y-69314048D01*
X99623981Y-69326204D01*
X99577314Y-69330800D01*
X98763886Y-69330800D01*
X98717219Y-69326204D01*
X98677148Y-69314048D01*
X98640224Y-69294312D01*
X98607854Y-69267746D01*
X98581288Y-69235376D01*
X98561552Y-69198452D01*
X98549396Y-69158381D01*
X98544800Y-69111714D01*
X98544800Y-68048286D01*
X98549396Y-68001619D01*
X98561552Y-67961548D01*
X98581288Y-67924624D01*
X98607854Y-67892254D01*
X98640224Y-67865688D01*
X98677148Y-67845952D01*
X98717219Y-67833796D01*
X98763886Y-67829200D01*
X99577314Y-67829200D01*
X99623981Y-67833796D01*
G37*
G36*
X97573981Y-67833796D02*
G01*
X97614052Y-67845952D01*
X97650976Y-67865688D01*
X97683346Y-67892254D01*
X97709912Y-67924624D01*
X97729648Y-67961548D01*
X97741804Y-68001619D01*
X97746400Y-68048286D01*
X97746400Y-69111714D01*
X97741804Y-69158381D01*
X97729648Y-69198452D01*
X97709912Y-69235376D01*
X97683346Y-69267746D01*
X97650976Y-69294312D01*
X97614052Y-69314048D01*
X97573981Y-69326204D01*
X97527314Y-69330800D01*
X96713886Y-69330800D01*
X96667219Y-69326204D01*
X96627148Y-69314048D01*
X96590224Y-69294312D01*
X96557854Y-69267746D01*
X96531288Y-69235376D01*
X96511552Y-69198452D01*
X96499396Y-69158381D01*
X96494800Y-69111714D01*
X96494800Y-68048286D01*
X96499396Y-68001619D01*
X96511552Y-67961548D01*
X96531288Y-67924624D01*
X96557854Y-67892254D01*
X96590224Y-67865688D01*
X96627148Y-67845952D01*
X96667219Y-67833796D01*
X96713886Y-67829200D01*
X97527314Y-67829200D01*
X97573981Y-67833796D01*
G37*
G36*
X163593543Y-55012867D02*
G01*
X164238382Y-55279968D01*
X164817414Y-55666865D01*
X164818725Y-55667741D01*
X165312259Y-56161275D01*
X165312261Y-56161278D01*
X165700032Y-56741618D01*
X165967133Y-57386457D01*
X166103300Y-58071015D01*
X166103300Y-58768985D01*
X165967133Y-59453543D01*
X165700032Y-60098382D01*
X165313135Y-60677414D01*
X165312259Y-60678725D01*
X164818725Y-61172259D01*
X164818722Y-61172261D01*
X164238382Y-61560032D01*
X163593543Y-61827133D01*
X162908985Y-61963300D01*
X162211015Y-61963300D01*
X161526457Y-61827133D01*
X160881618Y-61560032D01*
X160301278Y-61172261D01*
X160301275Y-61172259D01*
X159807741Y-60678725D01*
X159806865Y-60677414D01*
X159419968Y-60098382D01*
X159152867Y-59453543D01*
X159016700Y-58768985D01*
X159016700Y-58071015D01*
X159152867Y-57386457D01*
X159419968Y-56741618D01*
X159807739Y-56161278D01*
X159807741Y-56161275D01*
X160301275Y-55667741D01*
X160302586Y-55666865D01*
X160881618Y-55279968D01*
X161526457Y-55012867D01*
X162211015Y-54876700D01*
X162908985Y-54876700D01*
X163593543Y-55012867D01*
G37*
G36*
X79773543Y-55012867D02*
G01*
X80418382Y-55279968D01*
X80997414Y-55666865D01*
X80998725Y-55667741D01*
X81492259Y-56161275D01*
X81492261Y-56161278D01*
X81880032Y-56741618D01*
X82147133Y-57386457D01*
X82283300Y-58071015D01*
X82283300Y-58768985D01*
X82147133Y-59453543D01*
X81880032Y-60098382D01*
X81493135Y-60677414D01*
X81492259Y-60678725D01*
X80998725Y-61172259D01*
X80998722Y-61172261D01*
X80418382Y-61560032D01*
X79773543Y-61827133D01*
X79088985Y-61963300D01*
X78391015Y-61963300D01*
X77706457Y-61827133D01*
X77061618Y-61560032D01*
X76481278Y-61172261D01*
X76481275Y-61172259D01*
X75987741Y-60678725D01*
X75986865Y-60677414D01*
X75599968Y-60098382D01*
X75332867Y-59453543D01*
X75196700Y-58768985D01*
X75196700Y-58071015D01*
X75332867Y-57386457D01*
X75599968Y-56741618D01*
X75987739Y-56161278D01*
X75987741Y-56161275D01*
X76481275Y-55667741D01*
X76482586Y-55666865D01*
X77061618Y-55279968D01*
X77706457Y-55012867D01*
X78391015Y-54876700D01*
X79088985Y-54876700D01*
X79773543Y-55012867D01*
G37*
M02*
