G04 #@! TF.GenerationSoftware,KiCad,Pcbnew,(5.1.5)-3*
G04 #@! TF.CreationDate,2020-06-22T17:40:46-04:00*
G04 #@! TF.ProjectId,lab-supply-usb-boost-buck,6c61622d-7375-4707-906c-792d7573622d,rev?*
G04 #@! TF.SameCoordinates,Original*
G04 #@! TF.FileFunction,Soldermask,Top*
G04 #@! TF.FilePolarity,Negative*
%FSLAX46Y46*%
G04 Gerber Fmt 4.6, Leading zero omitted, Abs format (unit mm)*
G04 Created by KiCad (PCBNEW (5.1.5)-3) date 2020-06-22 17:40:46*
%MOMM*%
%LPD*%
G04 APERTURE LIST*
%ADD10C,0.100000*%
G04 APERTURE END LIST*
D10*
G36*
X140584200Y-62077600D02*
G01*
X140284200Y-62077600D01*
X140284200Y-61417200D01*
X140584200Y-61417200D01*
X140584200Y-62077600D01*
G37*
X140584200Y-62077600D02*
X140284200Y-62077600D01*
X140284200Y-61417200D01*
X140584200Y-61417200D01*
X140584200Y-62077600D01*
G36*
X141602600Y-62077600D02*
G01*
X141302600Y-62077600D01*
X141302600Y-61417200D01*
X141602600Y-61417200D01*
X141602600Y-62077600D01*
G37*
X141602600Y-62077600D02*
X141302600Y-62077600D01*
X141302600Y-61417200D01*
X141602600Y-61417200D01*
X141602600Y-62077600D01*
G36*
X141602600Y-60045600D02*
G01*
X141302600Y-60045600D01*
X141302600Y-59385200D01*
X141602600Y-59385200D01*
X141602600Y-60045600D01*
G37*
X141602600Y-60045600D02*
X141302600Y-60045600D01*
X141302600Y-59385200D01*
X141602600Y-59385200D01*
X141602600Y-60045600D01*
G36*
X140584200Y-60045600D02*
G01*
X140284200Y-60045600D01*
X140284200Y-59385200D01*
X140584200Y-59385200D01*
X140584200Y-60045600D01*
G37*
X140584200Y-60045600D02*
X140284200Y-60045600D01*
X140284200Y-59385200D01*
X140584200Y-59385200D01*
X140584200Y-60045600D01*
G36*
X115112800Y-62022000D02*
G01*
X115112800Y-61722000D01*
X115773200Y-61722000D01*
X115773200Y-62022000D01*
X115112800Y-62022000D01*
G37*
X115112800Y-62022000D02*
X115112800Y-61722000D01*
X115773200Y-61722000D01*
X115773200Y-62022000D01*
X115112800Y-62022000D01*
G36*
X115112800Y-63040400D02*
G01*
X115112800Y-62740400D01*
X115773200Y-62740400D01*
X115773200Y-63040400D01*
X115112800Y-63040400D01*
G37*
X115112800Y-63040400D02*
X115112800Y-62740400D01*
X115773200Y-62740400D01*
X115773200Y-63040400D01*
X115112800Y-63040400D01*
G36*
X112753000Y-59740800D02*
G01*
X113053000Y-59740800D01*
X113053000Y-60401200D01*
X112753000Y-60401200D01*
X112753000Y-59740800D01*
G37*
X112753000Y-59740800D02*
X113053000Y-59740800D01*
X113053000Y-60401200D01*
X112753000Y-60401200D01*
X112753000Y-59740800D01*
G36*
X113771400Y-59740800D02*
G01*
X114071400Y-59740800D01*
X114071400Y-60401200D01*
X113771400Y-60401200D01*
X113771400Y-59740800D01*
G37*
X113771400Y-59740800D02*
X114071400Y-59740800D01*
X114071400Y-60401200D01*
X113771400Y-60401200D01*
X113771400Y-59740800D01*
G36*
X163593543Y-110892867D02*
G01*
X164238382Y-111159968D01*
X164817414Y-111546865D01*
X164818725Y-111547741D01*
X165312259Y-112041275D01*
X165312261Y-112041278D01*
X165700032Y-112621618D01*
X165967133Y-113266457D01*
X166103300Y-113951015D01*
X166103300Y-114648985D01*
X165967133Y-115333543D01*
X165700032Y-115978382D01*
X165455867Y-116343800D01*
X165312259Y-116558725D01*
X164818725Y-117052259D01*
X164818722Y-117052261D01*
X164238382Y-117440032D01*
X163593543Y-117707133D01*
X162908985Y-117843300D01*
X162211015Y-117843300D01*
X161526457Y-117707133D01*
X160881618Y-117440032D01*
X160301278Y-117052261D01*
X160301275Y-117052259D01*
X159807741Y-116558725D01*
X159664133Y-116343800D01*
X159419968Y-115978382D01*
X159152867Y-115333543D01*
X159016700Y-114648985D01*
X159016700Y-113951015D01*
X159152867Y-113266457D01*
X159419968Y-112621618D01*
X159807739Y-112041278D01*
X159807741Y-112041275D01*
X160301275Y-111547741D01*
X160302586Y-111546865D01*
X160881618Y-111159968D01*
X161526457Y-110892867D01*
X162211015Y-110756700D01*
X162908985Y-110756700D01*
X163593543Y-110892867D01*
G37*
G36*
X79773543Y-110892867D02*
G01*
X80418382Y-111159968D01*
X80997414Y-111546865D01*
X80998725Y-111547741D01*
X81492259Y-112041275D01*
X81492261Y-112041278D01*
X81880032Y-112621618D01*
X82147133Y-113266457D01*
X82283300Y-113951015D01*
X82283300Y-114648985D01*
X82147133Y-115333543D01*
X81880032Y-115978382D01*
X81635867Y-116343800D01*
X81492259Y-116558725D01*
X80998725Y-117052259D01*
X80998722Y-117052261D01*
X80418382Y-117440032D01*
X79773543Y-117707133D01*
X79088985Y-117843300D01*
X78391015Y-117843300D01*
X77706457Y-117707133D01*
X77061618Y-117440032D01*
X76481278Y-117052261D01*
X76481275Y-117052259D01*
X75987741Y-116558725D01*
X75844133Y-116343800D01*
X75599968Y-115978382D01*
X75332867Y-115333543D01*
X75196700Y-114648985D01*
X75196700Y-113951015D01*
X75332867Y-113266457D01*
X75599968Y-112621618D01*
X75987739Y-112041278D01*
X75987741Y-112041275D01*
X76481275Y-111547741D01*
X76482586Y-111546865D01*
X77061618Y-111159968D01*
X77706457Y-110892867D01*
X78391015Y-110756700D01*
X79088985Y-110756700D01*
X79773543Y-110892867D01*
G37*
G36*
X95182554Y-114576817D02*
G01*
X95346489Y-114644721D01*
X95494027Y-114743303D01*
X95619497Y-114868773D01*
X95718079Y-115016311D01*
X95785983Y-115180246D01*
X95820600Y-115354279D01*
X95820600Y-115531721D01*
X95785983Y-115705754D01*
X95718079Y-115869689D01*
X95619497Y-116017227D01*
X95494027Y-116142697D01*
X95346489Y-116241279D01*
X95182554Y-116309183D01*
X95008521Y-116343800D01*
X94831079Y-116343800D01*
X94657046Y-116309183D01*
X94493111Y-116241279D01*
X94345573Y-116142697D01*
X94220103Y-116017227D01*
X94121521Y-115869689D01*
X94053617Y-115705754D01*
X94019000Y-115531721D01*
X94019000Y-115354279D01*
X94053617Y-115180246D01*
X94121521Y-115016311D01*
X94220103Y-114868773D01*
X94345573Y-114743303D01*
X94493111Y-114644721D01*
X94657046Y-114576817D01*
X94831079Y-114542200D01*
X95008521Y-114542200D01*
X95182554Y-114576817D01*
G37*
G36*
X93280600Y-116343800D02*
G01*
X91479000Y-116343800D01*
X91479000Y-114542200D01*
X93280600Y-114542200D01*
X93280600Y-116343800D01*
G37*
G36*
X148440189Y-113249134D02*
G01*
X148609989Y-113300642D01*
X148766479Y-113384288D01*
X148903644Y-113496856D01*
X149016212Y-113634021D01*
X149099858Y-113790512D01*
X149151366Y-113960310D01*
X149164400Y-114092651D01*
X149164400Y-114431150D01*
X149151366Y-114563489D01*
X149099858Y-114733289D01*
X149016212Y-114889779D01*
X148903644Y-115026944D01*
X148766477Y-115139514D01*
X148609991Y-115223157D01*
X148440188Y-115274666D01*
X148263600Y-115292058D01*
X148087011Y-115274666D01*
X147917211Y-115223158D01*
X147760721Y-115139512D01*
X147623556Y-115026944D01*
X147510986Y-114889777D01*
X147427343Y-114733291D01*
X147375834Y-114563488D01*
X147362800Y-114431149D01*
X147362800Y-114092650D01*
X147375834Y-113960311D01*
X147427342Y-113790511D01*
X147510988Y-113634021D01*
X147623557Y-113496856D01*
X147760722Y-113384288D01*
X147917212Y-113300642D01*
X148087012Y-113249134D01*
X148263600Y-113231742D01*
X148440189Y-113249134D01*
G37*
G36*
X145940189Y-113249134D02*
G01*
X146109989Y-113300642D01*
X146266479Y-113384288D01*
X146403644Y-113496856D01*
X146516212Y-113634021D01*
X146599858Y-113790512D01*
X146651366Y-113960310D01*
X146664400Y-114092651D01*
X146664400Y-114431150D01*
X146651366Y-114563489D01*
X146599858Y-114733289D01*
X146516212Y-114889779D01*
X146403644Y-115026944D01*
X146266477Y-115139514D01*
X146109991Y-115223157D01*
X145940188Y-115274666D01*
X145763600Y-115292058D01*
X145587011Y-115274666D01*
X145417211Y-115223158D01*
X145260721Y-115139512D01*
X145123556Y-115026944D01*
X145010986Y-114889777D01*
X144927343Y-114733291D01*
X144875834Y-114563488D01*
X144862800Y-114431149D01*
X144862800Y-114092650D01*
X144875834Y-113960311D01*
X144927342Y-113790511D01*
X145010988Y-113634021D01*
X145123557Y-113496856D01*
X145260722Y-113384288D01*
X145417212Y-113300642D01*
X145587012Y-113249134D01*
X145763600Y-113231742D01*
X145940189Y-113249134D01*
G37*
G36*
X143440189Y-113249134D02*
G01*
X143609989Y-113300642D01*
X143766479Y-113384288D01*
X143903644Y-113496856D01*
X144016212Y-113634021D01*
X144099858Y-113790512D01*
X144151366Y-113960310D01*
X144164400Y-114092651D01*
X144164400Y-114431150D01*
X144151366Y-114563489D01*
X144099858Y-114733289D01*
X144016212Y-114889779D01*
X143903644Y-115026944D01*
X143766477Y-115139514D01*
X143609991Y-115223157D01*
X143440188Y-115274666D01*
X143263600Y-115292058D01*
X143087011Y-115274666D01*
X142917211Y-115223158D01*
X142760721Y-115139512D01*
X142623556Y-115026944D01*
X142510986Y-114889777D01*
X142427343Y-114733291D01*
X142375834Y-114563488D01*
X142362800Y-114431149D01*
X142362800Y-114092650D01*
X142375834Y-113960311D01*
X142427342Y-113790511D01*
X142510988Y-113634021D01*
X142623557Y-113496856D01*
X142760722Y-113384288D01*
X142917212Y-113300642D01*
X143087012Y-113249134D01*
X143263600Y-113231742D01*
X143440189Y-113249134D01*
G37*
G36*
X150940189Y-113249134D02*
G01*
X151109989Y-113300642D01*
X151266479Y-113384288D01*
X151403644Y-113496856D01*
X151516212Y-113634021D01*
X151599858Y-113790512D01*
X151651366Y-113960310D01*
X151664400Y-114092651D01*
X151664400Y-114431150D01*
X151651366Y-114563489D01*
X151599858Y-114733289D01*
X151516212Y-114889779D01*
X151403644Y-115026944D01*
X151266477Y-115139514D01*
X151109991Y-115223157D01*
X150940188Y-115274666D01*
X150763600Y-115292058D01*
X150587011Y-115274666D01*
X150417211Y-115223158D01*
X150260721Y-115139512D01*
X150123556Y-115026944D01*
X150010986Y-114889777D01*
X149927343Y-114733291D01*
X149875834Y-114563488D01*
X149862800Y-114431149D01*
X149862800Y-114092650D01*
X149875834Y-113960311D01*
X149927342Y-113790511D01*
X150010988Y-113634021D01*
X150123557Y-113496856D01*
X150260722Y-113384288D01*
X150417212Y-113300642D01*
X150587012Y-113249134D01*
X150763600Y-113231742D01*
X150940189Y-113249134D01*
G37*
G36*
X154008779Y-113240296D02*
G01*
X154044930Y-113251262D01*
X154078251Y-113269073D01*
X154107458Y-113293042D01*
X154131427Y-113322249D01*
X154149238Y-113355570D01*
X154160204Y-113391721D01*
X154164400Y-113434318D01*
X154164400Y-115089482D01*
X154160204Y-115132079D01*
X154149238Y-115168230D01*
X154131427Y-115201551D01*
X154107458Y-115230758D01*
X154078251Y-115254727D01*
X154044930Y-115272538D01*
X154008779Y-115283504D01*
X153966182Y-115287700D01*
X152561018Y-115287700D01*
X152518421Y-115283504D01*
X152482270Y-115272538D01*
X152448949Y-115254727D01*
X152419742Y-115230758D01*
X152395773Y-115201551D01*
X152377962Y-115168230D01*
X152366996Y-115132079D01*
X152362800Y-115089482D01*
X152362800Y-113434318D01*
X152366996Y-113391721D01*
X152377962Y-113355570D01*
X152395773Y-113322249D01*
X152419742Y-113293042D01*
X152448949Y-113269073D01*
X152482270Y-113251262D01*
X152518421Y-113240296D01*
X152561018Y-113236100D01*
X153966182Y-113236100D01*
X154008779Y-113240296D01*
G37*
G36*
X164041954Y-98193817D02*
G01*
X164205889Y-98261721D01*
X164353427Y-98360303D01*
X164478897Y-98485773D01*
X164577479Y-98633311D01*
X164645383Y-98797246D01*
X164680000Y-98971279D01*
X164680000Y-99148721D01*
X164645383Y-99322754D01*
X164577479Y-99486689D01*
X164478897Y-99634227D01*
X164353427Y-99759697D01*
X164205889Y-99858279D01*
X164041954Y-99926183D01*
X163867921Y-99960800D01*
X163690479Y-99960800D01*
X163516446Y-99926183D01*
X163352511Y-99858279D01*
X163204973Y-99759697D01*
X163079503Y-99634227D01*
X162980921Y-99486689D01*
X162913017Y-99322754D01*
X162878400Y-99148721D01*
X162878400Y-98971279D01*
X162913017Y-98797246D01*
X162980921Y-98633311D01*
X163079503Y-98485773D01*
X163204973Y-98360303D01*
X163352511Y-98261721D01*
X163516446Y-98193817D01*
X163690479Y-98159200D01*
X163867921Y-98159200D01*
X164041954Y-98193817D01*
G37*
G36*
X164680000Y-97420800D02*
G01*
X162878400Y-97420800D01*
X162878400Y-95619200D01*
X164680000Y-95619200D01*
X164680000Y-97420800D01*
G37*
G36*
X161233381Y-94409196D02*
G01*
X161273452Y-94421352D01*
X161310376Y-94441088D01*
X161342746Y-94467654D01*
X161369312Y-94500024D01*
X161389048Y-94536948D01*
X161401204Y-94577019D01*
X161405800Y-94623686D01*
X161405800Y-95437114D01*
X161401204Y-95483781D01*
X161389048Y-95523852D01*
X161369312Y-95560776D01*
X161342746Y-95593146D01*
X161310376Y-95619712D01*
X161273452Y-95639448D01*
X161233381Y-95651604D01*
X161186714Y-95656200D01*
X160123286Y-95656200D01*
X160076619Y-95651604D01*
X160036548Y-95639448D01*
X159999624Y-95619712D01*
X159967254Y-95593146D01*
X159940688Y-95560776D01*
X159920952Y-95523852D01*
X159908796Y-95483781D01*
X159904200Y-95437114D01*
X159904200Y-94623686D01*
X159908796Y-94577019D01*
X159920952Y-94536948D01*
X159940688Y-94500024D01*
X159967254Y-94467654D01*
X159999624Y-94441088D01*
X160036548Y-94421352D01*
X160076619Y-94409196D01*
X160123286Y-94404600D01*
X161186714Y-94404600D01*
X161233381Y-94409196D01*
G37*
G36*
X121683543Y-88032867D02*
G01*
X122328382Y-88299968D01*
X122907414Y-88686865D01*
X122908725Y-88687741D01*
X123402259Y-89181275D01*
X123402261Y-89181278D01*
X123790032Y-89761618D01*
X124057133Y-90406457D01*
X124193300Y-91091015D01*
X124193300Y-91788985D01*
X124057133Y-92473543D01*
X123790032Y-93118382D01*
X123403135Y-93697414D01*
X123402259Y-93698725D01*
X122908725Y-94192259D01*
X122908722Y-94192261D01*
X122328382Y-94580032D01*
X121683543Y-94847133D01*
X120998985Y-94983300D01*
X120301015Y-94983300D01*
X119616457Y-94847133D01*
X118971618Y-94580032D01*
X118391278Y-94192261D01*
X118391275Y-94192259D01*
X117897741Y-93698725D01*
X117896865Y-93697414D01*
X117509968Y-93118382D01*
X117242867Y-92473543D01*
X117106700Y-91788985D01*
X117106700Y-91091015D01*
X117242867Y-90406457D01*
X117509968Y-89761618D01*
X117897739Y-89181278D01*
X117897741Y-89181275D01*
X118391275Y-88687741D01*
X118392586Y-88686865D01*
X118971618Y-88299968D01*
X119616457Y-88032867D01*
X120301015Y-87896700D01*
X120998985Y-87896700D01*
X121683543Y-88032867D01*
G37*
G36*
X78447000Y-93610800D02*
G01*
X76645400Y-93610800D01*
X76645400Y-91809200D01*
X78447000Y-91809200D01*
X78447000Y-93610800D01*
G37*
G36*
X161233381Y-92359196D02*
G01*
X161273452Y-92371352D01*
X161310376Y-92391088D01*
X161342746Y-92417654D01*
X161369312Y-92450024D01*
X161389048Y-92486948D01*
X161401204Y-92527019D01*
X161405800Y-92573686D01*
X161405800Y-93387114D01*
X161401204Y-93433781D01*
X161389048Y-93473852D01*
X161369312Y-93510776D01*
X161342746Y-93543146D01*
X161310376Y-93569712D01*
X161273452Y-93589448D01*
X161233381Y-93601604D01*
X161186714Y-93606200D01*
X160123286Y-93606200D01*
X160076619Y-93601604D01*
X160036548Y-93589448D01*
X159999624Y-93569712D01*
X159967254Y-93543146D01*
X159940688Y-93510776D01*
X159920952Y-93473852D01*
X159908796Y-93433781D01*
X159904200Y-93387114D01*
X159904200Y-92573686D01*
X159908796Y-92527019D01*
X159920952Y-92486948D01*
X159940688Y-92450024D01*
X159967254Y-92417654D01*
X159999624Y-92391088D01*
X160036548Y-92371352D01*
X160076619Y-92359196D01*
X160123286Y-92354600D01*
X161186714Y-92354600D01*
X161233381Y-92359196D01*
G37*
G36*
X164041954Y-90573817D02*
G01*
X164205889Y-90641721D01*
X164353427Y-90740303D01*
X164478897Y-90865773D01*
X164577479Y-91013311D01*
X164645383Y-91177246D01*
X164680000Y-91351279D01*
X164680000Y-91528721D01*
X164645383Y-91702754D01*
X164577479Y-91866689D01*
X164478897Y-92014227D01*
X164353427Y-92139697D01*
X164205889Y-92238279D01*
X164041954Y-92306183D01*
X163867921Y-92340800D01*
X163690479Y-92340800D01*
X163516446Y-92306183D01*
X163352511Y-92238279D01*
X163204973Y-92139697D01*
X163079503Y-92014227D01*
X162980921Y-91866689D01*
X162913017Y-91702754D01*
X162878400Y-91528721D01*
X162878400Y-91351279D01*
X162913017Y-91177246D01*
X162980921Y-91013311D01*
X163079503Y-90865773D01*
X163204973Y-90740303D01*
X163352511Y-90641721D01*
X163516446Y-90573817D01*
X163690479Y-90539200D01*
X163867921Y-90539200D01*
X164041954Y-90573817D01*
G37*
G36*
X77808954Y-89303817D02*
G01*
X77972889Y-89371721D01*
X78120427Y-89470303D01*
X78245897Y-89595773D01*
X78344479Y-89743311D01*
X78412383Y-89907246D01*
X78447000Y-90081279D01*
X78447000Y-90258721D01*
X78412383Y-90432754D01*
X78344479Y-90596689D01*
X78245897Y-90744227D01*
X78120427Y-90869697D01*
X77972889Y-90968279D01*
X77808954Y-91036183D01*
X77634921Y-91070800D01*
X77457479Y-91070800D01*
X77283446Y-91036183D01*
X77119511Y-90968279D01*
X76971973Y-90869697D01*
X76846503Y-90744227D01*
X76747921Y-90596689D01*
X76680017Y-90432754D01*
X76645400Y-90258721D01*
X76645400Y-90081279D01*
X76680017Y-89907246D01*
X76747921Y-89743311D01*
X76846503Y-89595773D01*
X76971973Y-89470303D01*
X77119511Y-89371721D01*
X77283446Y-89303817D01*
X77457479Y-89269200D01*
X77634921Y-89269200D01*
X77808954Y-89303817D01*
G37*
G36*
X164680000Y-89800800D02*
G01*
X162878400Y-89800800D01*
X162878400Y-87999200D01*
X164680000Y-87999200D01*
X164680000Y-89800800D01*
G37*
G36*
X77808954Y-86763817D02*
G01*
X77972889Y-86831721D01*
X78120427Y-86930303D01*
X78245897Y-87055773D01*
X78344479Y-87203311D01*
X78412383Y-87367246D01*
X78447000Y-87541279D01*
X78447000Y-87718721D01*
X78412383Y-87892754D01*
X78344479Y-88056689D01*
X78245897Y-88204227D01*
X78120427Y-88329697D01*
X77972889Y-88428279D01*
X77808954Y-88496183D01*
X77634921Y-88530800D01*
X77457479Y-88530800D01*
X77283446Y-88496183D01*
X77119511Y-88428279D01*
X76971973Y-88329697D01*
X76846503Y-88204227D01*
X76747921Y-88056689D01*
X76680017Y-87892754D01*
X76645400Y-87718721D01*
X76645400Y-87541279D01*
X76680017Y-87367246D01*
X76747921Y-87203311D01*
X76846503Y-87055773D01*
X76971973Y-86930303D01*
X77119511Y-86831721D01*
X77283446Y-86763817D01*
X77457479Y-86729200D01*
X77634921Y-86729200D01*
X77808954Y-86763817D01*
G37*
G36*
X131787000Y-87298900D02*
G01*
X129985400Y-87298900D01*
X129985400Y-85497300D01*
X131787000Y-85497300D01*
X131787000Y-87298900D01*
G37*
G36*
X93483800Y-86625800D02*
G01*
X91682200Y-86625800D01*
X91682200Y-84824200D01*
X93483800Y-84824200D01*
X93483800Y-86625800D01*
G37*
G36*
X113295800Y-86625800D02*
G01*
X111494200Y-86625800D01*
X111494200Y-84824200D01*
X113295800Y-84824200D01*
X113295800Y-86625800D01*
G37*
G36*
X77808954Y-84223817D02*
G01*
X77972889Y-84291721D01*
X78120427Y-84390303D01*
X78245897Y-84515773D01*
X78344479Y-84663311D01*
X78412383Y-84827246D01*
X78447000Y-85001279D01*
X78447000Y-85178721D01*
X78412383Y-85352754D01*
X78344479Y-85516689D01*
X78245897Y-85664227D01*
X78120427Y-85789697D01*
X77972889Y-85888279D01*
X77808954Y-85956183D01*
X77634921Y-85990800D01*
X77457479Y-85990800D01*
X77283446Y-85956183D01*
X77119511Y-85888279D01*
X76971973Y-85789697D01*
X76846503Y-85664227D01*
X76747921Y-85516689D01*
X76680017Y-85352754D01*
X76645400Y-85178721D01*
X76645400Y-85001279D01*
X76680017Y-84827246D01*
X76747921Y-84663311D01*
X76846503Y-84515773D01*
X76971973Y-84390303D01*
X77119511Y-84291721D01*
X77283446Y-84223817D01*
X77457479Y-84189200D01*
X77634921Y-84189200D01*
X77808954Y-84223817D01*
G37*
G36*
X147966326Y-83481450D02*
G01*
X148003001Y-83492575D01*
X148036810Y-83510646D01*
X148066438Y-83534962D01*
X148090754Y-83564590D01*
X148108825Y-83598399D01*
X148119950Y-83635074D01*
X148124200Y-83678219D01*
X148124200Y-84977781D01*
X148119950Y-85020926D01*
X148108825Y-85057601D01*
X148090754Y-85091410D01*
X148066438Y-85121038D01*
X148036810Y-85145354D01*
X148003001Y-85163425D01*
X147966326Y-85174550D01*
X147923181Y-85178800D01*
X144723619Y-85178800D01*
X144680474Y-85174550D01*
X144643799Y-85163425D01*
X144609990Y-85145354D01*
X144580362Y-85121038D01*
X144556046Y-85091410D01*
X144537975Y-85057601D01*
X144526850Y-85020926D01*
X144522600Y-84977781D01*
X144522600Y-83678219D01*
X144526850Y-83635074D01*
X144537975Y-83598399D01*
X144556046Y-83564590D01*
X144580362Y-83534962D01*
X144609990Y-83510646D01*
X144643799Y-83492575D01*
X144680474Y-83481450D01*
X144723619Y-83477200D01*
X147923181Y-83477200D01*
X147966326Y-83481450D01*
G37*
G36*
X153566326Y-83481450D02*
G01*
X153603001Y-83492575D01*
X153636810Y-83510646D01*
X153666438Y-83534962D01*
X153690754Y-83564590D01*
X153708825Y-83598399D01*
X153719950Y-83635074D01*
X153724200Y-83678219D01*
X153724200Y-84977781D01*
X153719950Y-85020926D01*
X153708825Y-85057601D01*
X153690754Y-85091410D01*
X153666438Y-85121038D01*
X153636810Y-85145354D01*
X153603001Y-85163425D01*
X153566326Y-85174550D01*
X153523181Y-85178800D01*
X150323619Y-85178800D01*
X150280474Y-85174550D01*
X150243799Y-85163425D01*
X150209990Y-85145354D01*
X150180362Y-85121038D01*
X150156046Y-85091410D01*
X150137975Y-85057601D01*
X150126850Y-85020926D01*
X150122600Y-84977781D01*
X150122600Y-83678219D01*
X150126850Y-83635074D01*
X150137975Y-83598399D01*
X150156046Y-83564590D01*
X150180362Y-83534962D01*
X150209990Y-83510646D01*
X150243799Y-83492575D01*
X150280474Y-83481450D01*
X150323619Y-83477200D01*
X153523181Y-83477200D01*
X153566326Y-83481450D01*
G37*
G36*
X124987581Y-83931696D02*
G01*
X125027652Y-83943852D01*
X125064576Y-83963588D01*
X125096946Y-83990154D01*
X125123512Y-84022524D01*
X125143248Y-84059448D01*
X125155404Y-84099519D01*
X125160000Y-84146186D01*
X125160000Y-84959614D01*
X125155404Y-85006281D01*
X125143248Y-85046352D01*
X125123512Y-85083276D01*
X125096946Y-85115646D01*
X125064576Y-85142212D01*
X125027652Y-85161948D01*
X124987581Y-85174104D01*
X124940914Y-85178700D01*
X123877486Y-85178700D01*
X123830819Y-85174104D01*
X123790748Y-85161948D01*
X123753824Y-85142212D01*
X123721454Y-85115646D01*
X123694888Y-85083276D01*
X123675152Y-85046352D01*
X123662996Y-85006281D01*
X123658400Y-84959614D01*
X123658400Y-84146186D01*
X123662996Y-84099519D01*
X123675152Y-84059448D01*
X123694888Y-84022524D01*
X123721454Y-83990154D01*
X123753824Y-83963588D01*
X123790748Y-83943852D01*
X123830819Y-83931696D01*
X123877486Y-83927100D01*
X124940914Y-83927100D01*
X124987581Y-83931696D01*
G37*
G36*
X119191000Y-84929900D02*
G01*
X117529400Y-84929900D01*
X117529400Y-82278300D01*
X119191000Y-82278300D01*
X119191000Y-84929900D01*
G37*
G36*
X121891000Y-84929900D02*
G01*
X120229400Y-84929900D01*
X120229400Y-82278300D01*
X121891000Y-82278300D01*
X121891000Y-84929900D01*
G37*
G36*
X164041954Y-82953817D02*
G01*
X164205889Y-83021721D01*
X164353427Y-83120303D01*
X164478897Y-83245773D01*
X164577479Y-83393311D01*
X164645383Y-83557246D01*
X164680000Y-83731279D01*
X164680000Y-83908721D01*
X164645383Y-84082754D01*
X164577479Y-84246689D01*
X164478897Y-84394227D01*
X164353427Y-84519697D01*
X164205889Y-84618279D01*
X164041954Y-84686183D01*
X163867921Y-84720800D01*
X163690479Y-84720800D01*
X163516446Y-84686183D01*
X163352511Y-84618279D01*
X163204973Y-84519697D01*
X163079503Y-84394227D01*
X162980921Y-84246689D01*
X162913017Y-84082754D01*
X162878400Y-83908721D01*
X162878400Y-83731279D01*
X162913017Y-83557246D01*
X162980921Y-83393311D01*
X163079503Y-83245773D01*
X163204973Y-83120303D01*
X163352511Y-83021721D01*
X163516446Y-82953817D01*
X163690479Y-82919200D01*
X163867921Y-82919200D01*
X164041954Y-82953817D01*
G37*
G36*
X77808954Y-81683817D02*
G01*
X77972889Y-81751721D01*
X78120427Y-81850303D01*
X78245897Y-81975773D01*
X78344479Y-82123311D01*
X78412383Y-82287246D01*
X78447000Y-82461279D01*
X78447000Y-82638721D01*
X78412383Y-82812754D01*
X78344479Y-82976689D01*
X78245897Y-83124227D01*
X78120427Y-83249697D01*
X77972889Y-83348279D01*
X77808954Y-83416183D01*
X77634921Y-83450800D01*
X77457479Y-83450800D01*
X77283446Y-83416183D01*
X77119511Y-83348279D01*
X76971973Y-83249697D01*
X76846503Y-83124227D01*
X76747921Y-82976689D01*
X76680017Y-82812754D01*
X76645400Y-82638721D01*
X76645400Y-82461279D01*
X76680017Y-82287246D01*
X76747921Y-82123311D01*
X76846503Y-81975773D01*
X76971973Y-81850303D01*
X77119511Y-81751721D01*
X77283446Y-81683817D01*
X77457479Y-81649200D01*
X77634921Y-81649200D01*
X77808954Y-81683817D01*
G37*
G36*
X105894900Y-83397500D02*
G01*
X104493300Y-83397500D01*
X104493300Y-81995900D01*
X105894900Y-81995900D01*
X105894900Y-83397500D01*
G37*
G36*
X124987581Y-81881696D02*
G01*
X125027652Y-81893852D01*
X125064576Y-81913588D01*
X125096946Y-81940154D01*
X125123512Y-81972524D01*
X125143248Y-82009448D01*
X125155404Y-82049519D01*
X125160000Y-82096186D01*
X125160000Y-82909614D01*
X125155404Y-82956281D01*
X125143248Y-82996352D01*
X125123512Y-83033276D01*
X125096946Y-83065646D01*
X125064576Y-83092212D01*
X125027652Y-83111948D01*
X124987581Y-83124104D01*
X124940914Y-83128700D01*
X123877486Y-83128700D01*
X123830819Y-83124104D01*
X123790748Y-83111948D01*
X123753824Y-83092212D01*
X123721454Y-83065646D01*
X123694888Y-83033276D01*
X123675152Y-82996352D01*
X123662996Y-82956281D01*
X123658400Y-82909614D01*
X123658400Y-82096186D01*
X123662996Y-82049519D01*
X123675152Y-82009448D01*
X123694888Y-81972524D01*
X123721454Y-81940154D01*
X123753824Y-81913588D01*
X123790748Y-81893852D01*
X123830819Y-81881696D01*
X123877486Y-81877100D01*
X124940914Y-81877100D01*
X124987581Y-81881696D01*
G37*
G36*
X107844500Y-82984000D02*
G01*
X106942900Y-82984000D01*
X106942900Y-81982400D01*
X107844500Y-81982400D01*
X107844500Y-82984000D01*
G37*
G36*
X109744500Y-82984000D02*
G01*
X108842900Y-82984000D01*
X108842900Y-81982400D01*
X109744500Y-81982400D01*
X109744500Y-82984000D01*
G37*
G36*
X100182600Y-82787700D02*
G01*
X97531000Y-82787700D01*
X97531000Y-81126100D01*
X100182600Y-81126100D01*
X100182600Y-82787700D01*
G37*
G36*
X103041981Y-81429796D02*
G01*
X103082052Y-81441952D01*
X103118976Y-81461688D01*
X103151346Y-81488254D01*
X103177912Y-81520624D01*
X103197648Y-81557548D01*
X103209804Y-81597619D01*
X103214400Y-81644286D01*
X103214400Y-82457714D01*
X103209804Y-82504381D01*
X103197648Y-82544452D01*
X103177912Y-82581376D01*
X103151346Y-82613746D01*
X103118976Y-82640312D01*
X103082052Y-82660048D01*
X103041981Y-82672204D01*
X102995314Y-82676800D01*
X101931886Y-82676800D01*
X101885219Y-82672204D01*
X101845148Y-82660048D01*
X101808224Y-82640312D01*
X101775854Y-82613746D01*
X101749288Y-82581376D01*
X101729552Y-82544452D01*
X101717396Y-82504381D01*
X101712800Y-82457714D01*
X101712800Y-81644286D01*
X101717396Y-81597619D01*
X101729552Y-81557548D01*
X101749288Y-81520624D01*
X101775854Y-81488254D01*
X101808224Y-81461688D01*
X101845148Y-81441952D01*
X101885219Y-81429796D01*
X101931886Y-81425200D01*
X102995314Y-81425200D01*
X103041981Y-81429796D01*
G37*
G36*
X127566800Y-82590400D02*
G01*
X126165200Y-82590400D01*
X126165200Y-81188800D01*
X127566800Y-81188800D01*
X127566800Y-82590400D01*
G37*
G36*
X129866800Y-82590400D02*
G01*
X128465200Y-82590400D01*
X128465200Y-81188800D01*
X129866800Y-81188800D01*
X129866800Y-82590400D01*
G37*
G36*
X164680000Y-82180800D02*
G01*
X162878400Y-82180800D01*
X162878400Y-80379200D01*
X164680000Y-80379200D01*
X164680000Y-82180800D01*
G37*
G36*
X96145881Y-80667796D02*
G01*
X96185952Y-80679952D01*
X96222876Y-80699688D01*
X96255246Y-80726254D01*
X96281812Y-80758624D01*
X96301548Y-80795548D01*
X96313704Y-80835619D01*
X96318300Y-80882286D01*
X96318300Y-81695714D01*
X96313704Y-81742381D01*
X96301548Y-81782452D01*
X96281812Y-81819376D01*
X96255246Y-81851746D01*
X96222876Y-81878312D01*
X96185952Y-81898048D01*
X96145881Y-81910204D01*
X96099214Y-81914800D01*
X95035786Y-81914800D01*
X94989119Y-81910204D01*
X94949048Y-81898048D01*
X94912124Y-81878312D01*
X94879754Y-81851746D01*
X94853188Y-81819376D01*
X94833452Y-81782452D01*
X94821296Y-81742381D01*
X94816700Y-81695714D01*
X94816700Y-80882286D01*
X94821296Y-80835619D01*
X94833452Y-80795548D01*
X94853188Y-80758624D01*
X94879754Y-80726254D01*
X94912124Y-80699688D01*
X94949048Y-80679952D01*
X94989119Y-80667796D01*
X95035786Y-80663200D01*
X96099214Y-80663200D01*
X96145881Y-80667796D01*
G37*
G36*
X105894900Y-81097500D02*
G01*
X104493300Y-81097500D01*
X104493300Y-79695900D01*
X105894900Y-79695900D01*
X105894900Y-81097500D01*
G37*
G36*
X108794500Y-80984000D02*
G01*
X107892900Y-80984000D01*
X107892900Y-79982400D01*
X108794500Y-79982400D01*
X108794500Y-80984000D01*
G37*
G36*
X77808954Y-79143817D02*
G01*
X77972889Y-79211721D01*
X78120427Y-79310303D01*
X78245897Y-79435773D01*
X78344479Y-79583311D01*
X78412383Y-79747246D01*
X78447000Y-79921279D01*
X78447000Y-80098721D01*
X78412383Y-80272754D01*
X78344479Y-80436689D01*
X78245897Y-80584227D01*
X78120427Y-80709697D01*
X77972889Y-80808279D01*
X77808954Y-80876183D01*
X77634921Y-80910800D01*
X77457479Y-80910800D01*
X77283446Y-80876183D01*
X77119511Y-80808279D01*
X76971973Y-80709697D01*
X76846503Y-80584227D01*
X76747921Y-80436689D01*
X76680017Y-80272754D01*
X76645400Y-80098721D01*
X76645400Y-79921279D01*
X76680017Y-79747246D01*
X76747921Y-79583311D01*
X76846503Y-79435773D01*
X76971973Y-79310303D01*
X77119511Y-79211721D01*
X77283446Y-79143817D01*
X77457479Y-79109200D01*
X77634921Y-79109200D01*
X77808954Y-79143817D01*
G37*
G36*
X103041981Y-79379796D02*
G01*
X103082052Y-79391952D01*
X103118976Y-79411688D01*
X103151346Y-79438254D01*
X103177912Y-79470624D01*
X103197648Y-79507548D01*
X103209804Y-79547619D01*
X103214400Y-79594286D01*
X103214400Y-80407714D01*
X103209804Y-80454381D01*
X103197648Y-80494452D01*
X103177912Y-80531376D01*
X103151346Y-80563746D01*
X103118976Y-80590312D01*
X103082052Y-80610048D01*
X103041981Y-80622204D01*
X102995314Y-80626800D01*
X101931886Y-80626800D01*
X101885219Y-80622204D01*
X101845148Y-80610048D01*
X101808224Y-80590312D01*
X101775854Y-80563746D01*
X101749288Y-80531376D01*
X101729552Y-80494452D01*
X101717396Y-80454381D01*
X101712800Y-80407714D01*
X101712800Y-79594286D01*
X101717396Y-79547619D01*
X101729552Y-79507548D01*
X101749288Y-79470624D01*
X101775854Y-79438254D01*
X101808224Y-79411688D01*
X101845148Y-79391952D01*
X101885219Y-79379796D01*
X101931886Y-79375200D01*
X102995314Y-79375200D01*
X103041981Y-79379796D01*
G37*
G36*
X139610200Y-80428200D02*
G01*
X137808600Y-80428200D01*
X137808600Y-78626600D01*
X139610200Y-78626600D01*
X139610200Y-80428200D01*
G37*
G36*
X141512154Y-78661217D02*
G01*
X141676089Y-78729121D01*
X141823627Y-78827703D01*
X141949097Y-78953173D01*
X142047679Y-79100711D01*
X142115583Y-79264646D01*
X142150200Y-79438679D01*
X142150200Y-79616121D01*
X142115583Y-79790154D01*
X142047679Y-79954089D01*
X141949097Y-80101627D01*
X141823627Y-80227097D01*
X141676089Y-80325679D01*
X141512154Y-80393583D01*
X141338121Y-80428200D01*
X141160679Y-80428200D01*
X140986646Y-80393583D01*
X140822711Y-80325679D01*
X140675173Y-80227097D01*
X140549703Y-80101627D01*
X140451121Y-79954089D01*
X140383217Y-79790154D01*
X140348600Y-79616121D01*
X140348600Y-79438679D01*
X140383217Y-79264646D01*
X140451121Y-79100711D01*
X140549703Y-78953173D01*
X140675173Y-78827703D01*
X140822711Y-78729121D01*
X140986646Y-78661217D01*
X141160679Y-78626600D01*
X141338121Y-78626600D01*
X141512154Y-78661217D01*
G37*
G36*
X129866800Y-80304400D02*
G01*
X128465200Y-80304400D01*
X128465200Y-78902800D01*
X129866800Y-78902800D01*
X129866800Y-80304400D01*
G37*
G36*
X127566800Y-80304400D02*
G01*
X126165200Y-80304400D01*
X126165200Y-78902800D01*
X127566800Y-78902800D01*
X127566800Y-80304400D01*
G37*
G36*
X100182600Y-80087700D02*
G01*
X97531000Y-80087700D01*
X97531000Y-78426100D01*
X100182600Y-78426100D01*
X100182600Y-80087700D01*
G37*
G36*
X96145881Y-78617796D02*
G01*
X96185952Y-78629952D01*
X96222876Y-78649688D01*
X96255246Y-78676254D01*
X96281812Y-78708624D01*
X96301548Y-78745548D01*
X96313704Y-78785619D01*
X96318300Y-78832286D01*
X96318300Y-79645714D01*
X96313704Y-79692381D01*
X96301548Y-79732452D01*
X96281812Y-79769376D01*
X96255246Y-79801746D01*
X96222876Y-79828312D01*
X96185952Y-79848048D01*
X96145881Y-79860204D01*
X96099214Y-79864800D01*
X95035786Y-79864800D01*
X94989119Y-79860204D01*
X94949048Y-79848048D01*
X94912124Y-79828312D01*
X94879754Y-79801746D01*
X94853188Y-79769376D01*
X94833452Y-79732452D01*
X94821296Y-79692381D01*
X94816700Y-79645714D01*
X94816700Y-78832286D01*
X94821296Y-78785619D01*
X94833452Y-78745548D01*
X94853188Y-78708624D01*
X94879754Y-78676254D01*
X94912124Y-78649688D01*
X94949048Y-78629952D01*
X94989119Y-78617796D01*
X95035786Y-78613200D01*
X96099214Y-78613200D01*
X96145881Y-78617796D01*
G37*
G36*
X124634400Y-79847200D02*
G01*
X123232800Y-79847200D01*
X123232800Y-78445600D01*
X124634400Y-78445600D01*
X124634400Y-79847200D01*
G37*
G36*
X122334400Y-79847200D02*
G01*
X120932800Y-79847200D01*
X120932800Y-78445600D01*
X122334400Y-78445600D01*
X122334400Y-79847200D01*
G37*
G36*
X151384054Y-76962819D02*
G01*
X151428257Y-76976228D01*
X151468988Y-76997999D01*
X151504696Y-77027304D01*
X151534001Y-77063012D01*
X151555772Y-77103743D01*
X151569181Y-77147946D01*
X151574200Y-77198908D01*
X151574200Y-79468292D01*
X151569181Y-79519254D01*
X151555772Y-79563457D01*
X151534001Y-79604188D01*
X151504696Y-79639896D01*
X151468988Y-79669201D01*
X151428257Y-79690972D01*
X151384054Y-79704381D01*
X151333092Y-79709400D01*
X150088708Y-79709400D01*
X150037746Y-79704381D01*
X149993543Y-79690972D01*
X149952812Y-79669201D01*
X149917104Y-79639896D01*
X149887799Y-79604188D01*
X149866028Y-79563457D01*
X149852619Y-79519254D01*
X149847600Y-79468292D01*
X149847600Y-77198908D01*
X149852619Y-77147946D01*
X149866028Y-77103743D01*
X149887799Y-77063012D01*
X149917104Y-77027304D01*
X149952812Y-76997999D01*
X149993543Y-76976228D01*
X150037746Y-76962819D01*
X150088708Y-76957800D01*
X151333092Y-76957800D01*
X151384054Y-76962819D01*
G37*
G36*
X148209054Y-76962819D02*
G01*
X148253257Y-76976228D01*
X148293988Y-76997999D01*
X148329696Y-77027304D01*
X148359001Y-77063012D01*
X148380772Y-77103743D01*
X148394181Y-77147946D01*
X148399200Y-77198908D01*
X148399200Y-79468292D01*
X148394181Y-79519254D01*
X148380772Y-79563457D01*
X148359001Y-79604188D01*
X148329696Y-79639896D01*
X148293988Y-79669201D01*
X148253257Y-79690972D01*
X148209054Y-79704381D01*
X148158092Y-79709400D01*
X146913708Y-79709400D01*
X146862746Y-79704381D01*
X146818543Y-79690972D01*
X146777812Y-79669201D01*
X146742104Y-79639896D01*
X146712799Y-79604188D01*
X146691028Y-79563457D01*
X146677619Y-79519254D01*
X146672600Y-79468292D01*
X146672600Y-77198908D01*
X146677619Y-77147946D01*
X146691028Y-77103743D01*
X146712799Y-77063012D01*
X146742104Y-77027304D01*
X146777812Y-76997999D01*
X146818543Y-76976228D01*
X146862746Y-76962819D01*
X146913708Y-76957800D01*
X148158092Y-76957800D01*
X148209054Y-76962819D01*
G37*
G36*
X117799381Y-78321996D02*
G01*
X117839452Y-78334152D01*
X117876376Y-78353888D01*
X117908746Y-78380454D01*
X117935312Y-78412824D01*
X117955048Y-78449748D01*
X117967204Y-78489819D01*
X117971800Y-78536486D01*
X117971800Y-79349914D01*
X117967204Y-79396581D01*
X117955048Y-79436652D01*
X117935312Y-79473576D01*
X117908746Y-79505946D01*
X117876376Y-79532512D01*
X117839452Y-79552248D01*
X117799381Y-79564404D01*
X117752714Y-79569000D01*
X116689286Y-79569000D01*
X116642619Y-79564404D01*
X116602548Y-79552248D01*
X116565624Y-79532512D01*
X116533254Y-79505946D01*
X116506688Y-79473576D01*
X116486952Y-79436652D01*
X116474796Y-79396581D01*
X116470200Y-79349914D01*
X116470200Y-78536486D01*
X116474796Y-78489819D01*
X116486952Y-78449748D01*
X116506688Y-78412824D01*
X116533254Y-78380454D01*
X116565624Y-78353888D01*
X116602548Y-78334152D01*
X116642619Y-78321996D01*
X116689286Y-78317400D01*
X117752714Y-78317400D01*
X117799381Y-78321996D01*
G37*
G36*
X120009181Y-77305996D02*
G01*
X120049252Y-77318152D01*
X120086176Y-77337888D01*
X120118546Y-77364454D01*
X120145112Y-77396824D01*
X120164848Y-77433748D01*
X120177004Y-77473819D01*
X120181600Y-77520486D01*
X120181600Y-78333914D01*
X120177004Y-78380581D01*
X120164848Y-78420652D01*
X120145112Y-78457576D01*
X120118546Y-78489946D01*
X120086176Y-78516512D01*
X120049252Y-78536248D01*
X120009181Y-78548404D01*
X119962514Y-78553000D01*
X118899086Y-78553000D01*
X118852419Y-78548404D01*
X118812348Y-78536248D01*
X118775424Y-78516512D01*
X118743054Y-78489946D01*
X118716488Y-78457576D01*
X118696752Y-78420652D01*
X118684596Y-78380581D01*
X118680000Y-78333914D01*
X118680000Y-77520486D01*
X118684596Y-77473819D01*
X118696752Y-77433748D01*
X118716488Y-77396824D01*
X118743054Y-77364454D01*
X118775424Y-77337888D01*
X118812348Y-77318152D01*
X118852419Y-77305996D01*
X118899086Y-77301400D01*
X119962514Y-77301400D01*
X120009181Y-77305996D01*
G37*
G36*
X129885200Y-78221600D02*
G01*
X128483600Y-78221600D01*
X128483600Y-76820000D01*
X129885200Y-76820000D01*
X129885200Y-78221600D01*
G37*
G36*
X127585200Y-78221600D02*
G01*
X126183600Y-78221600D01*
X126183600Y-76820000D01*
X127585200Y-76820000D01*
X127585200Y-78221600D01*
G37*
G36*
X123939958Y-74668642D02*
G01*
X123955354Y-74681277D01*
X123972919Y-74690666D01*
X123991978Y-74696448D01*
X124011799Y-74698400D01*
X124760200Y-74698400D01*
X124760200Y-77600000D01*
X124011799Y-77600000D01*
X123991978Y-77601952D01*
X123972919Y-77607734D01*
X123955354Y-77617123D01*
X123939958Y-77629758D01*
X123939759Y-77630000D01*
X121729041Y-77630000D01*
X121728842Y-77629758D01*
X121713446Y-77617123D01*
X121695881Y-77607734D01*
X121676822Y-77601952D01*
X121657001Y-77600000D01*
X120908600Y-77600000D01*
X120908600Y-74698400D01*
X121657001Y-74698400D01*
X121676822Y-74696448D01*
X121695881Y-74690666D01*
X121713446Y-74681277D01*
X121728842Y-74668642D01*
X121729041Y-74668400D01*
X123939759Y-74668400D01*
X123939958Y-74668642D01*
G37*
G36*
X117799381Y-76271996D02*
G01*
X117839452Y-76284152D01*
X117876376Y-76303888D01*
X117908746Y-76330454D01*
X117935312Y-76362824D01*
X117955048Y-76399748D01*
X117967204Y-76439819D01*
X117971800Y-76486486D01*
X117971800Y-77299914D01*
X117967204Y-77346581D01*
X117955048Y-77386652D01*
X117935312Y-77423576D01*
X117908746Y-77455946D01*
X117876376Y-77482512D01*
X117839452Y-77502248D01*
X117799381Y-77514404D01*
X117752714Y-77519000D01*
X116689286Y-77519000D01*
X116642619Y-77514404D01*
X116602548Y-77502248D01*
X116565624Y-77482512D01*
X116533254Y-77455946D01*
X116506688Y-77423576D01*
X116486952Y-77386652D01*
X116474796Y-77346581D01*
X116470200Y-77299914D01*
X116470200Y-76486486D01*
X116474796Y-76439819D01*
X116486952Y-76399748D01*
X116506688Y-76362824D01*
X116533254Y-76330454D01*
X116565624Y-76303888D01*
X116602548Y-76284152D01*
X116642619Y-76271996D01*
X116689286Y-76267400D01*
X117752714Y-76267400D01*
X117799381Y-76271996D01*
G37*
G36*
X97391600Y-77510400D02*
G01*
X95990000Y-77510400D01*
X95990000Y-76108800D01*
X97391600Y-76108800D01*
X97391600Y-77510400D01*
G37*
G36*
X105660600Y-77510400D02*
G01*
X104259000Y-77510400D01*
X104259000Y-76108800D01*
X105660600Y-76108800D01*
X105660600Y-77510400D01*
G37*
G36*
X103360600Y-77510400D02*
G01*
X101959000Y-77510400D01*
X101959000Y-76108800D01*
X103360600Y-76108800D01*
X103360600Y-77510400D01*
G37*
G36*
X99691600Y-77510400D02*
G01*
X98290000Y-77510400D01*
X98290000Y-76108800D01*
X99691600Y-76108800D01*
X99691600Y-77510400D01*
G37*
G36*
X108015800Y-77212600D02*
G01*
X106614200Y-77212600D01*
X106614200Y-75811000D01*
X108015800Y-75811000D01*
X108015800Y-77212600D01*
G37*
G36*
X112254400Y-77151600D02*
G01*
X110452800Y-77151600D01*
X110452800Y-75350000D01*
X112254400Y-75350000D01*
X112254400Y-77151600D01*
G37*
G36*
X114156354Y-75384617D02*
G01*
X114320289Y-75452521D01*
X114467827Y-75551103D01*
X114593297Y-75676573D01*
X114691879Y-75824111D01*
X114759783Y-75988046D01*
X114794400Y-76162079D01*
X114794400Y-76339521D01*
X114759783Y-76513554D01*
X114691879Y-76677489D01*
X114593297Y-76825027D01*
X114467827Y-76950497D01*
X114320289Y-77049079D01*
X114156354Y-77116983D01*
X113982321Y-77151600D01*
X113804879Y-77151600D01*
X113630846Y-77116983D01*
X113466911Y-77049079D01*
X113319373Y-76950497D01*
X113193903Y-76825027D01*
X113095321Y-76677489D01*
X113027417Y-76513554D01*
X112992800Y-76339521D01*
X112992800Y-76162079D01*
X113027417Y-75988046D01*
X113095321Y-75824111D01*
X113193903Y-75676573D01*
X113319373Y-75551103D01*
X113466911Y-75452521D01*
X113630846Y-75384617D01*
X113804879Y-75350000D01*
X113982321Y-75350000D01*
X114156354Y-75384617D01*
G37*
G36*
X164041954Y-75333817D02*
G01*
X164205889Y-75401721D01*
X164353427Y-75500303D01*
X164478897Y-75625773D01*
X164577479Y-75773311D01*
X164645383Y-75937246D01*
X164680000Y-76111279D01*
X164680000Y-76288721D01*
X164645383Y-76462754D01*
X164577479Y-76626689D01*
X164478897Y-76774227D01*
X164353427Y-76899697D01*
X164205889Y-76998279D01*
X164041954Y-77066183D01*
X163867921Y-77100800D01*
X163690479Y-77100800D01*
X163516446Y-77066183D01*
X163352511Y-76998279D01*
X163204973Y-76899697D01*
X163079503Y-76774227D01*
X162980921Y-76626689D01*
X162913017Y-76462754D01*
X162878400Y-76288721D01*
X162878400Y-76111279D01*
X162913017Y-75937246D01*
X162980921Y-75773311D01*
X163079503Y-75625773D01*
X163204973Y-75500303D01*
X163352511Y-75401721D01*
X163516446Y-75333817D01*
X163690479Y-75299200D01*
X163867921Y-75299200D01*
X164041954Y-75333817D01*
G37*
G36*
X120009181Y-75255996D02*
G01*
X120049252Y-75268152D01*
X120086176Y-75287888D01*
X120118546Y-75314454D01*
X120145112Y-75346824D01*
X120164848Y-75383748D01*
X120177004Y-75423819D01*
X120181600Y-75470486D01*
X120181600Y-76283914D01*
X120177004Y-76330581D01*
X120164848Y-76370652D01*
X120145112Y-76407576D01*
X120118546Y-76439946D01*
X120086176Y-76466512D01*
X120049252Y-76486248D01*
X120009181Y-76498404D01*
X119962514Y-76503000D01*
X118899086Y-76503000D01*
X118852419Y-76498404D01*
X118812348Y-76486248D01*
X118775424Y-76466512D01*
X118743054Y-76439946D01*
X118716488Y-76407576D01*
X118696752Y-76370652D01*
X118684596Y-76330581D01*
X118680000Y-76283914D01*
X118680000Y-75470486D01*
X118684596Y-75423819D01*
X118696752Y-75383748D01*
X118716488Y-75346824D01*
X118743054Y-75314454D01*
X118775424Y-75287888D01*
X118812348Y-75268152D01*
X118852419Y-75255996D01*
X118899086Y-75251400D01*
X119962514Y-75251400D01*
X120009181Y-75255996D01*
G37*
G36*
X126816381Y-75105196D02*
G01*
X126856452Y-75117352D01*
X126893376Y-75137088D01*
X126925746Y-75163654D01*
X126952312Y-75196024D01*
X126972048Y-75232948D01*
X126984204Y-75273019D01*
X126988800Y-75319686D01*
X126988800Y-76133114D01*
X126984204Y-76179781D01*
X126972048Y-76219852D01*
X126952312Y-76256776D01*
X126925746Y-76289146D01*
X126893376Y-76315712D01*
X126856452Y-76335448D01*
X126816381Y-76347604D01*
X126769714Y-76352200D01*
X125706286Y-76352200D01*
X125659619Y-76347604D01*
X125619548Y-76335448D01*
X125582624Y-76315712D01*
X125550254Y-76289146D01*
X125523688Y-76256776D01*
X125503952Y-76219852D01*
X125491796Y-76179781D01*
X125487200Y-76133114D01*
X125487200Y-75319686D01*
X125491796Y-75273019D01*
X125503952Y-75232948D01*
X125523688Y-75196024D01*
X125550254Y-75163654D01*
X125582624Y-75137088D01*
X125619548Y-75117352D01*
X125659619Y-75105196D01*
X125706286Y-75100600D01*
X126769714Y-75100600D01*
X126816381Y-75105196D01*
G37*
G36*
X139404600Y-75867200D02*
G01*
X137303000Y-75867200D01*
X137303000Y-72265600D01*
X139404600Y-72265600D01*
X139404600Y-75867200D01*
G37*
G36*
X146154600Y-75867200D02*
G01*
X144053000Y-75867200D01*
X144053000Y-72265600D01*
X146154600Y-72265600D01*
X146154600Y-75867200D01*
G37*
G36*
X129933700Y-75819000D02*
G01*
X127825500Y-75819000D01*
X127825500Y-72313800D01*
X129933700Y-72313800D01*
X129933700Y-75819000D01*
G37*
G36*
X133388100Y-75819000D02*
G01*
X131279900Y-75819000D01*
X131279900Y-72313800D01*
X133388100Y-72313800D01*
X133388100Y-75819000D01*
G37*
G36*
X108015800Y-74912600D02*
G01*
X106614200Y-74912600D01*
X106614200Y-73511000D01*
X108015800Y-73511000D01*
X108015800Y-74912600D01*
G37*
G36*
X148496400Y-74767200D02*
G01*
X147094800Y-74767200D01*
X147094800Y-73365600D01*
X148496400Y-73365600D01*
X148496400Y-74767200D01*
G37*
G36*
X150796400Y-74767200D02*
G01*
X149394800Y-74767200D01*
X149394800Y-73365600D01*
X150796400Y-73365600D01*
X150796400Y-74767200D01*
G37*
G36*
X105127200Y-74614800D02*
G01*
X103725600Y-74614800D01*
X103725600Y-73213200D01*
X105127200Y-73213200D01*
X105127200Y-74614800D01*
G37*
G36*
X102827200Y-74614800D02*
G01*
X101425600Y-74614800D01*
X101425600Y-73213200D01*
X102827200Y-73213200D01*
X102827200Y-74614800D01*
G37*
G36*
X164680000Y-74560800D02*
G01*
X162878400Y-74560800D01*
X162878400Y-72759200D01*
X164680000Y-72759200D01*
X164680000Y-74560800D01*
G37*
G36*
X126816381Y-73055196D02*
G01*
X126856452Y-73067352D01*
X126893376Y-73087088D01*
X126925746Y-73113654D01*
X126952312Y-73146024D01*
X126972048Y-73182948D01*
X126984204Y-73223019D01*
X126988800Y-73269686D01*
X126988800Y-74083114D01*
X126984204Y-74129781D01*
X126972048Y-74169852D01*
X126952312Y-74206776D01*
X126925746Y-74239146D01*
X126893376Y-74265712D01*
X126856452Y-74285448D01*
X126816381Y-74297604D01*
X126769714Y-74302200D01*
X125706286Y-74302200D01*
X125659619Y-74297604D01*
X125619548Y-74285448D01*
X125582624Y-74265712D01*
X125550254Y-74239146D01*
X125523688Y-74206776D01*
X125503952Y-74169852D01*
X125491796Y-74129781D01*
X125487200Y-74083114D01*
X125487200Y-73269686D01*
X125491796Y-73223019D01*
X125503952Y-73182948D01*
X125523688Y-73146024D01*
X125550254Y-73113654D01*
X125582624Y-73087088D01*
X125619548Y-73067352D01*
X125659619Y-73055196D01*
X125706286Y-73050600D01*
X126769714Y-73050600D01*
X126816381Y-73055196D01*
G37*
G36*
X78751800Y-73671800D02*
G01*
X76950200Y-73671800D01*
X76950200Y-71870200D01*
X78751800Y-71870200D01*
X78751800Y-73671800D01*
G37*
G36*
X124007981Y-72151796D02*
G01*
X124048052Y-72163952D01*
X124084976Y-72183688D01*
X124117346Y-72210254D01*
X124143912Y-72242624D01*
X124163648Y-72279548D01*
X124175804Y-72319619D01*
X124180400Y-72366286D01*
X124180400Y-73429714D01*
X124175804Y-73476381D01*
X124163648Y-73516452D01*
X124143912Y-73553376D01*
X124117346Y-73585746D01*
X124084976Y-73612312D01*
X124048052Y-73632048D01*
X124007981Y-73644204D01*
X123961314Y-73648800D01*
X123147886Y-73648800D01*
X123101219Y-73644204D01*
X123061148Y-73632048D01*
X123024224Y-73612312D01*
X122991854Y-73585746D01*
X122965288Y-73553376D01*
X122945552Y-73516452D01*
X122933396Y-73476381D01*
X122928800Y-73429714D01*
X122928800Y-72366286D01*
X122933396Y-72319619D01*
X122945552Y-72279548D01*
X122965288Y-72242624D01*
X122991854Y-72210254D01*
X123024224Y-72183688D01*
X123061148Y-72163952D01*
X123101219Y-72151796D01*
X123147886Y-72147200D01*
X123961314Y-72147200D01*
X124007981Y-72151796D01*
G37*
G36*
X121957981Y-72151796D02*
G01*
X121998052Y-72163952D01*
X122034976Y-72183688D01*
X122067346Y-72210254D01*
X122093912Y-72242624D01*
X122113648Y-72279548D01*
X122125804Y-72319619D01*
X122130400Y-72366286D01*
X122130400Y-73429714D01*
X122125804Y-73476381D01*
X122113648Y-73516452D01*
X122093912Y-73553376D01*
X122067346Y-73585746D01*
X122034976Y-73612312D01*
X121998052Y-73632048D01*
X121957981Y-73644204D01*
X121911314Y-73648800D01*
X121097886Y-73648800D01*
X121051219Y-73644204D01*
X121011148Y-73632048D01*
X120974224Y-73612312D01*
X120941854Y-73585746D01*
X120915288Y-73553376D01*
X120895552Y-73516452D01*
X120883396Y-73476381D01*
X120878800Y-73429714D01*
X120878800Y-72366286D01*
X120883396Y-72319619D01*
X120895552Y-72279548D01*
X120915288Y-72242624D01*
X120941854Y-72210254D01*
X120974224Y-72183688D01*
X121011148Y-72163952D01*
X121051219Y-72151796D01*
X121097886Y-72147200D01*
X121911314Y-72147200D01*
X121957981Y-72151796D01*
G37*
G36*
X117303400Y-73378000D02*
G01*
X115201800Y-73378000D01*
X115201800Y-69776400D01*
X117303400Y-69776400D01*
X117303400Y-73378000D01*
G37*
G36*
X110553400Y-73378000D02*
G01*
X108451800Y-73378000D01*
X108451800Y-69776400D01*
X110553400Y-69776400D01*
X110553400Y-73378000D01*
G37*
G36*
X99128054Y-71239619D02*
G01*
X99172257Y-71253028D01*
X99212988Y-71274799D01*
X99248696Y-71304104D01*
X99278001Y-71339812D01*
X99299772Y-71380543D01*
X99313181Y-71424746D01*
X99318200Y-71475708D01*
X99318200Y-72720092D01*
X99313181Y-72771054D01*
X99299772Y-72815257D01*
X99278001Y-72855988D01*
X99248696Y-72891696D01*
X99212988Y-72921001D01*
X99172257Y-72942772D01*
X99128054Y-72956181D01*
X99077092Y-72961200D01*
X96807708Y-72961200D01*
X96756746Y-72956181D01*
X96712543Y-72942772D01*
X96671812Y-72921001D01*
X96636104Y-72891696D01*
X96606799Y-72855988D01*
X96585028Y-72815257D01*
X96571619Y-72771054D01*
X96566600Y-72720092D01*
X96566600Y-71475708D01*
X96571619Y-71424746D01*
X96585028Y-71380543D01*
X96606799Y-71339812D01*
X96636104Y-71304104D01*
X96671812Y-71274799D01*
X96712543Y-71253028D01*
X96756746Y-71239619D01*
X96807708Y-71234600D01*
X99077092Y-71234600D01*
X99128054Y-71239619D01*
G37*
G36*
X85670800Y-71744600D02*
G01*
X84269200Y-71744600D01*
X84269200Y-70343000D01*
X85670800Y-70343000D01*
X85670800Y-71744600D01*
G37*
G36*
X83370800Y-71744600D02*
G01*
X81969200Y-71744600D01*
X81969200Y-70343000D01*
X83370800Y-70343000D01*
X83370800Y-71744600D01*
G37*
G36*
X130733854Y-68555419D02*
G01*
X130778057Y-68568828D01*
X130818788Y-68590599D01*
X130854496Y-68619904D01*
X130883801Y-68655612D01*
X130905572Y-68696343D01*
X130918981Y-68740546D01*
X130924000Y-68791508D01*
X130924000Y-71060892D01*
X130918981Y-71111854D01*
X130905572Y-71156057D01*
X130883801Y-71196788D01*
X130854496Y-71232496D01*
X130818788Y-71261801D01*
X130778057Y-71283572D01*
X130733854Y-71296981D01*
X130682892Y-71302000D01*
X129438508Y-71302000D01*
X129387546Y-71296981D01*
X129343343Y-71283572D01*
X129302612Y-71261801D01*
X129266904Y-71232496D01*
X129237599Y-71196788D01*
X129215828Y-71156057D01*
X129202419Y-71111854D01*
X129197400Y-71060892D01*
X129197400Y-68791508D01*
X129202419Y-68740546D01*
X129215828Y-68696343D01*
X129237599Y-68655612D01*
X129266904Y-68619904D01*
X129302612Y-68590599D01*
X129343343Y-68568828D01*
X129387546Y-68555419D01*
X129438508Y-68550400D01*
X130682892Y-68550400D01*
X130733854Y-68555419D01*
G37*
G36*
X121196154Y-68555419D02*
G01*
X121240357Y-68568828D01*
X121281088Y-68590599D01*
X121316796Y-68619904D01*
X121346101Y-68655612D01*
X121367872Y-68696343D01*
X121381281Y-68740546D01*
X121386300Y-68791508D01*
X121386300Y-71060892D01*
X121381281Y-71111854D01*
X121367872Y-71156057D01*
X121346101Y-71196788D01*
X121316796Y-71232496D01*
X121281088Y-71261801D01*
X121240357Y-71283572D01*
X121196154Y-71296981D01*
X121145192Y-71302000D01*
X119900808Y-71302000D01*
X119849846Y-71296981D01*
X119805643Y-71283572D01*
X119764912Y-71261801D01*
X119729204Y-71232496D01*
X119699899Y-71196788D01*
X119678128Y-71156057D01*
X119664719Y-71111854D01*
X119659700Y-71060892D01*
X119659700Y-68791508D01*
X119664719Y-68740546D01*
X119678128Y-68696343D01*
X119699899Y-68655612D01*
X119729204Y-68619904D01*
X119764912Y-68590599D01*
X119805643Y-68568828D01*
X119849846Y-68555419D01*
X119900808Y-68550400D01*
X121145192Y-68550400D01*
X121196154Y-68555419D01*
G37*
G36*
X127558854Y-68555419D02*
G01*
X127603057Y-68568828D01*
X127643788Y-68590599D01*
X127679496Y-68619904D01*
X127708801Y-68655612D01*
X127730572Y-68696343D01*
X127743981Y-68740546D01*
X127749000Y-68791508D01*
X127749000Y-71060892D01*
X127743981Y-71111854D01*
X127730572Y-71156057D01*
X127708801Y-71196788D01*
X127679496Y-71232496D01*
X127643788Y-71261801D01*
X127603057Y-71283572D01*
X127558854Y-71296981D01*
X127507892Y-71302000D01*
X126263508Y-71302000D01*
X126212546Y-71296981D01*
X126168343Y-71283572D01*
X126127612Y-71261801D01*
X126091904Y-71232496D01*
X126062599Y-71196788D01*
X126040828Y-71156057D01*
X126027419Y-71111854D01*
X126022400Y-71060892D01*
X126022400Y-68791508D01*
X126027419Y-68740546D01*
X126040828Y-68696343D01*
X126062599Y-68655612D01*
X126091904Y-68619904D01*
X126127612Y-68590599D01*
X126168343Y-68568828D01*
X126212546Y-68555419D01*
X126263508Y-68550400D01*
X127507892Y-68550400D01*
X127558854Y-68555419D01*
G37*
G36*
X124371154Y-68555419D02*
G01*
X124415357Y-68568828D01*
X124456088Y-68590599D01*
X124491796Y-68619904D01*
X124521101Y-68655612D01*
X124542872Y-68696343D01*
X124556281Y-68740546D01*
X124561300Y-68791508D01*
X124561300Y-71060892D01*
X124556281Y-71111854D01*
X124542872Y-71156057D01*
X124521101Y-71196788D01*
X124491796Y-71232496D01*
X124456088Y-71261801D01*
X124415357Y-71283572D01*
X124371154Y-71296981D01*
X124320192Y-71302000D01*
X123075808Y-71302000D01*
X123024846Y-71296981D01*
X122980643Y-71283572D01*
X122939912Y-71261801D01*
X122904204Y-71232496D01*
X122874899Y-71196788D01*
X122853128Y-71156057D01*
X122839719Y-71111854D01*
X122834700Y-71060892D01*
X122834700Y-68791508D01*
X122839719Y-68740546D01*
X122853128Y-68696343D01*
X122874899Y-68655612D01*
X122904204Y-68619904D01*
X122939912Y-68590599D01*
X122980643Y-68568828D01*
X123024846Y-68555419D01*
X123075808Y-68550400D01*
X124320192Y-68550400D01*
X124371154Y-68555419D01*
G37*
G36*
X78113754Y-69364817D02*
G01*
X78277689Y-69432721D01*
X78425227Y-69531303D01*
X78550697Y-69656773D01*
X78649279Y-69804311D01*
X78717183Y-69968246D01*
X78751800Y-70142279D01*
X78751800Y-70319721D01*
X78717183Y-70493754D01*
X78649279Y-70657689D01*
X78550697Y-70805227D01*
X78425227Y-70930697D01*
X78277689Y-71029279D01*
X78113754Y-71097183D01*
X77939721Y-71131800D01*
X77762279Y-71131800D01*
X77588246Y-71097183D01*
X77424311Y-71029279D01*
X77276773Y-70930697D01*
X77151303Y-70805227D01*
X77052721Y-70657689D01*
X76984817Y-70493754D01*
X76950200Y-70319721D01*
X76950200Y-70142279D01*
X76984817Y-69968246D01*
X77052721Y-69804311D01*
X77151303Y-69656773D01*
X77276773Y-69531303D01*
X77424311Y-69432721D01*
X77588246Y-69364817D01*
X77762279Y-69330200D01*
X77939721Y-69330200D01*
X78113754Y-69364817D01*
G37*
G36*
X138271781Y-69313996D02*
G01*
X138311852Y-69326152D01*
X138348776Y-69345888D01*
X138381146Y-69372454D01*
X138407712Y-69404824D01*
X138427448Y-69441748D01*
X138439604Y-69481819D01*
X138444200Y-69528486D01*
X138444200Y-70341914D01*
X138439604Y-70388581D01*
X138427448Y-70428652D01*
X138407712Y-70465576D01*
X138381146Y-70497946D01*
X138348776Y-70524512D01*
X138311852Y-70544248D01*
X138271781Y-70556404D01*
X138225114Y-70561000D01*
X137161686Y-70561000D01*
X137115019Y-70556404D01*
X137074948Y-70544248D01*
X137038024Y-70524512D01*
X137005654Y-70497946D01*
X136979088Y-70465576D01*
X136959352Y-70428652D01*
X136947196Y-70388581D01*
X136942600Y-70341914D01*
X136942600Y-69528486D01*
X136947196Y-69481819D01*
X136959352Y-69441748D01*
X136979088Y-69404824D01*
X137005654Y-69372454D01*
X137038024Y-69345888D01*
X137074948Y-69326152D01*
X137115019Y-69313996D01*
X137161686Y-69309400D01*
X138225114Y-69309400D01*
X138271781Y-69313996D01*
G37*
G36*
X92117654Y-68445619D02*
G01*
X92161857Y-68459028D01*
X92202588Y-68480799D01*
X92238296Y-68510104D01*
X92267601Y-68545812D01*
X92289372Y-68586543D01*
X92302781Y-68630746D01*
X92307800Y-68681708D01*
X92307800Y-69926092D01*
X92302781Y-69977054D01*
X92289372Y-70021257D01*
X92267601Y-70061988D01*
X92238296Y-70097696D01*
X92202588Y-70127001D01*
X92161857Y-70148772D01*
X92117654Y-70162181D01*
X92066692Y-70167200D01*
X89797308Y-70167200D01*
X89746346Y-70162181D01*
X89702143Y-70148772D01*
X89661412Y-70127001D01*
X89625704Y-70097696D01*
X89596399Y-70061988D01*
X89574628Y-70021257D01*
X89561219Y-69977054D01*
X89556200Y-69926092D01*
X89556200Y-68681708D01*
X89561219Y-68630746D01*
X89574628Y-68586543D01*
X89596399Y-68545812D01*
X89625704Y-68510104D01*
X89661412Y-68480799D01*
X89702143Y-68459028D01*
X89746346Y-68445619D01*
X89797308Y-68440600D01*
X92066692Y-68440600D01*
X92117654Y-68445619D01*
G37*
G36*
X99128054Y-68064619D02*
G01*
X99172257Y-68078028D01*
X99212988Y-68099799D01*
X99248696Y-68129104D01*
X99278001Y-68164812D01*
X99299772Y-68205543D01*
X99313181Y-68249746D01*
X99318200Y-68300708D01*
X99318200Y-69545092D01*
X99313181Y-69596054D01*
X99299772Y-69640257D01*
X99278001Y-69680988D01*
X99248696Y-69716696D01*
X99212988Y-69746001D01*
X99172257Y-69767772D01*
X99128054Y-69781181D01*
X99077092Y-69786200D01*
X96807708Y-69786200D01*
X96756746Y-69781181D01*
X96712543Y-69767772D01*
X96671812Y-69746001D01*
X96636104Y-69716696D01*
X96606799Y-69680988D01*
X96585028Y-69640257D01*
X96571619Y-69596054D01*
X96566600Y-69545092D01*
X96566600Y-68300708D01*
X96571619Y-68249746D01*
X96585028Y-68205543D01*
X96606799Y-68164812D01*
X96636104Y-68129104D01*
X96671812Y-68099799D01*
X96712543Y-68078028D01*
X96756746Y-68064619D01*
X96807708Y-68059600D01*
X99077092Y-68059600D01*
X99128054Y-68064619D01*
G37*
G36*
X85670800Y-69712600D02*
G01*
X84269200Y-69712600D01*
X84269200Y-68311000D01*
X85670800Y-68311000D01*
X85670800Y-69712600D01*
G37*
G36*
X83370800Y-69712600D02*
G01*
X81969200Y-69712600D01*
X81969200Y-68311000D01*
X83370800Y-68311000D01*
X83370800Y-69712600D01*
G37*
G36*
X140105383Y-68151436D02*
G01*
X140114591Y-68154229D01*
X140123086Y-68158769D01*
X140130148Y-68164565D01*
X140146708Y-68175630D01*
X140165109Y-68183252D01*
X140184643Y-68187137D01*
X140204560Y-68187137D01*
X140224094Y-68183251D01*
X140242495Y-68175629D01*
X140259052Y-68164565D01*
X140266114Y-68158769D01*
X140274609Y-68154229D01*
X140283817Y-68151436D01*
X140298393Y-68150000D01*
X140590807Y-68150000D01*
X140605383Y-68151436D01*
X140614591Y-68154229D01*
X140623086Y-68158769D01*
X140630148Y-68164565D01*
X140646708Y-68175630D01*
X140665109Y-68183252D01*
X140684643Y-68187137D01*
X140704560Y-68187137D01*
X140724094Y-68183251D01*
X140742495Y-68175629D01*
X140759052Y-68164565D01*
X140766114Y-68158769D01*
X140774609Y-68154229D01*
X140783817Y-68151436D01*
X140798393Y-68150000D01*
X141090807Y-68150000D01*
X141105383Y-68151436D01*
X141114591Y-68154229D01*
X141123086Y-68158769D01*
X141130148Y-68164565D01*
X141146708Y-68175630D01*
X141165109Y-68183252D01*
X141184643Y-68187137D01*
X141204560Y-68187137D01*
X141224094Y-68183251D01*
X141242495Y-68175629D01*
X141259052Y-68164565D01*
X141266114Y-68158769D01*
X141274609Y-68154229D01*
X141283817Y-68151436D01*
X141298393Y-68150000D01*
X141590807Y-68150000D01*
X141605383Y-68151436D01*
X141614591Y-68154229D01*
X141623086Y-68158769D01*
X141630148Y-68164565D01*
X141646708Y-68175630D01*
X141665109Y-68183252D01*
X141684643Y-68187137D01*
X141704560Y-68187137D01*
X141724094Y-68183251D01*
X141742495Y-68175629D01*
X141759052Y-68164565D01*
X141766114Y-68158769D01*
X141774609Y-68154229D01*
X141783817Y-68151436D01*
X141798393Y-68150000D01*
X142090807Y-68150000D01*
X142105383Y-68151436D01*
X142114591Y-68154229D01*
X142123082Y-68158767D01*
X142130525Y-68164875D01*
X142136633Y-68172318D01*
X142141171Y-68180809D01*
X142143964Y-68190017D01*
X142145400Y-68204593D01*
X142145400Y-69647007D01*
X142143964Y-69661583D01*
X142141171Y-69670791D01*
X142136633Y-69679282D01*
X142130525Y-69686725D01*
X142123082Y-69692833D01*
X142114591Y-69697371D01*
X142105383Y-69700164D01*
X142090807Y-69701600D01*
X141798393Y-69701600D01*
X141783817Y-69700164D01*
X141774609Y-69697371D01*
X141766114Y-69692831D01*
X141759052Y-69687035D01*
X141742492Y-69675970D01*
X141724091Y-69668348D01*
X141704557Y-69664463D01*
X141684640Y-69664463D01*
X141665106Y-69668349D01*
X141646705Y-69675971D01*
X141630148Y-69687035D01*
X141623086Y-69692831D01*
X141614591Y-69697371D01*
X141605383Y-69700164D01*
X141590807Y-69701600D01*
X141298393Y-69701600D01*
X141283817Y-69700164D01*
X141274609Y-69697371D01*
X141266114Y-69692831D01*
X141259052Y-69687035D01*
X141242492Y-69675970D01*
X141224091Y-69668348D01*
X141204557Y-69664463D01*
X141184640Y-69664463D01*
X141165106Y-69668349D01*
X141146705Y-69675971D01*
X141130148Y-69687035D01*
X141123086Y-69692831D01*
X141114591Y-69697371D01*
X141105383Y-69700164D01*
X141090807Y-69701600D01*
X140798393Y-69701600D01*
X140783817Y-69700164D01*
X140774609Y-69697371D01*
X140766114Y-69692831D01*
X140759052Y-69687035D01*
X140742492Y-69675970D01*
X140724091Y-69668348D01*
X140704557Y-69664463D01*
X140684640Y-69664463D01*
X140665106Y-69668349D01*
X140646705Y-69675971D01*
X140630148Y-69687035D01*
X140623086Y-69692831D01*
X140614591Y-69697371D01*
X140605383Y-69700164D01*
X140590807Y-69701600D01*
X140298393Y-69701600D01*
X140283817Y-69700164D01*
X140274609Y-69697371D01*
X140266114Y-69692831D01*
X140259052Y-69687035D01*
X140242492Y-69675970D01*
X140224091Y-69668348D01*
X140204557Y-69664463D01*
X140184640Y-69664463D01*
X140165106Y-69668349D01*
X140146705Y-69675971D01*
X140130148Y-69687035D01*
X140123086Y-69692831D01*
X140114591Y-69697371D01*
X140105383Y-69700164D01*
X140090807Y-69701600D01*
X139798393Y-69701600D01*
X139783817Y-69700164D01*
X139774609Y-69697371D01*
X139766118Y-69692833D01*
X139758675Y-69686725D01*
X139752567Y-69679282D01*
X139748029Y-69670791D01*
X139745236Y-69661583D01*
X139743800Y-69647007D01*
X139743800Y-68204593D01*
X139745236Y-68190017D01*
X139748029Y-68180809D01*
X139752567Y-68172318D01*
X139758675Y-68164875D01*
X139766118Y-68158767D01*
X139774609Y-68154229D01*
X139783817Y-68151436D01*
X139798393Y-68150000D01*
X140090807Y-68150000D01*
X140105383Y-68151436D01*
G37*
G36*
X106654654Y-66752019D02*
G01*
X106698857Y-66765428D01*
X106739588Y-66787199D01*
X106775296Y-66816504D01*
X106804601Y-66852212D01*
X106826372Y-66892943D01*
X106839781Y-66937146D01*
X106844800Y-66988108D01*
X106844800Y-69257492D01*
X106839781Y-69308454D01*
X106826372Y-69352657D01*
X106804601Y-69393388D01*
X106775296Y-69429096D01*
X106739588Y-69458401D01*
X106698857Y-69480172D01*
X106654654Y-69493581D01*
X106603692Y-69498600D01*
X105359308Y-69498600D01*
X105308346Y-69493581D01*
X105264143Y-69480172D01*
X105223412Y-69458401D01*
X105187704Y-69429096D01*
X105158399Y-69393388D01*
X105136628Y-69352657D01*
X105123219Y-69308454D01*
X105118200Y-69257492D01*
X105118200Y-66988108D01*
X105123219Y-66937146D01*
X105136628Y-66892943D01*
X105158399Y-66852212D01*
X105187704Y-66816504D01*
X105223412Y-66787199D01*
X105264143Y-66765428D01*
X105308346Y-66752019D01*
X105359308Y-66747000D01*
X106603692Y-66747000D01*
X106654654Y-66752019D01*
G37*
G36*
X103479654Y-66752019D02*
G01*
X103523857Y-66765428D01*
X103564588Y-66787199D01*
X103600296Y-66816504D01*
X103629601Y-66852212D01*
X103651372Y-66892943D01*
X103664781Y-66937146D01*
X103669800Y-66988108D01*
X103669800Y-69257492D01*
X103664781Y-69308454D01*
X103651372Y-69352657D01*
X103629601Y-69393388D01*
X103600296Y-69429096D01*
X103564588Y-69458401D01*
X103523857Y-69480172D01*
X103479654Y-69493581D01*
X103428692Y-69498600D01*
X102184308Y-69498600D01*
X102133346Y-69493581D01*
X102089143Y-69480172D01*
X102048412Y-69458401D01*
X102012704Y-69429096D01*
X101983399Y-69393388D01*
X101961628Y-69352657D01*
X101948219Y-69308454D01*
X101943200Y-69257492D01*
X101943200Y-66988108D01*
X101948219Y-66937146D01*
X101961628Y-66892943D01*
X101983399Y-66852212D01*
X102012704Y-66816504D01*
X102048412Y-66787199D01*
X102089143Y-66765428D01*
X102133346Y-66752019D01*
X102184308Y-66747000D01*
X103428692Y-66747000D01*
X103479654Y-66752019D01*
G37*
G36*
X138271781Y-67263996D02*
G01*
X138311852Y-67276152D01*
X138348776Y-67295888D01*
X138381146Y-67322454D01*
X138407712Y-67354824D01*
X138427448Y-67391748D01*
X138439604Y-67431819D01*
X138444200Y-67478486D01*
X138444200Y-68291914D01*
X138439604Y-68338581D01*
X138427448Y-68378652D01*
X138407712Y-68415576D01*
X138381146Y-68447946D01*
X138348776Y-68474512D01*
X138311852Y-68494248D01*
X138271781Y-68506404D01*
X138225114Y-68511000D01*
X137161686Y-68511000D01*
X137115019Y-68506404D01*
X137074948Y-68494248D01*
X137038024Y-68474512D01*
X137005654Y-68447946D01*
X136979088Y-68415576D01*
X136959352Y-68378652D01*
X136947196Y-68338581D01*
X136942600Y-68291914D01*
X136942600Y-67478486D01*
X136947196Y-67431819D01*
X136959352Y-67391748D01*
X136979088Y-67354824D01*
X137005654Y-67322454D01*
X137038024Y-67295888D01*
X137074948Y-67276152D01*
X137115019Y-67263996D01*
X137161686Y-67259400D01*
X138225114Y-67259400D01*
X138271781Y-67263996D01*
G37*
G36*
X128479500Y-67769400D02*
G01*
X127577900Y-67769400D01*
X127577900Y-66767800D01*
X128479500Y-66767800D01*
X128479500Y-67769400D01*
G37*
G36*
X110204781Y-65986596D02*
G01*
X110244852Y-65998752D01*
X110281776Y-66018488D01*
X110314146Y-66045054D01*
X110340712Y-66077424D01*
X110360448Y-66114348D01*
X110372604Y-66154419D01*
X110377200Y-66201086D01*
X110377200Y-67014514D01*
X110372604Y-67061181D01*
X110360448Y-67101252D01*
X110340712Y-67138176D01*
X110314146Y-67170546D01*
X110281776Y-67197112D01*
X110244852Y-67216848D01*
X110204781Y-67229004D01*
X110158114Y-67233600D01*
X109094686Y-67233600D01*
X109048019Y-67229004D01*
X109007948Y-67216848D01*
X108971024Y-67197112D01*
X108938654Y-67170546D01*
X108912088Y-67138176D01*
X108892352Y-67101252D01*
X108880196Y-67061181D01*
X108875600Y-67014514D01*
X108875600Y-66201086D01*
X108880196Y-66154419D01*
X108892352Y-66114348D01*
X108912088Y-66077424D01*
X108938654Y-66045054D01*
X108971024Y-66018488D01*
X109007948Y-65998752D01*
X109048019Y-65986596D01*
X109094686Y-65982000D01*
X110158114Y-65982000D01*
X110204781Y-65986596D01*
G37*
G36*
X112063783Y-65484436D02*
G01*
X112072991Y-65487229D01*
X112081486Y-65491769D01*
X112088548Y-65497565D01*
X112105108Y-65508630D01*
X112123509Y-65516252D01*
X112143043Y-65520137D01*
X112162960Y-65520137D01*
X112182494Y-65516251D01*
X112200895Y-65508629D01*
X112217452Y-65497565D01*
X112224514Y-65491769D01*
X112233009Y-65487229D01*
X112242217Y-65484436D01*
X112256793Y-65483000D01*
X112549207Y-65483000D01*
X112563783Y-65484436D01*
X112572991Y-65487229D01*
X112581486Y-65491769D01*
X112588548Y-65497565D01*
X112605108Y-65508630D01*
X112623509Y-65516252D01*
X112643043Y-65520137D01*
X112662960Y-65520137D01*
X112682494Y-65516251D01*
X112700895Y-65508629D01*
X112717452Y-65497565D01*
X112724514Y-65491769D01*
X112733009Y-65487229D01*
X112742217Y-65484436D01*
X112756793Y-65483000D01*
X113049207Y-65483000D01*
X113063783Y-65484436D01*
X113072991Y-65487229D01*
X113081486Y-65491769D01*
X113088548Y-65497565D01*
X113105108Y-65508630D01*
X113123509Y-65516252D01*
X113143043Y-65520137D01*
X113162960Y-65520137D01*
X113182494Y-65516251D01*
X113200895Y-65508629D01*
X113217452Y-65497565D01*
X113224514Y-65491769D01*
X113233009Y-65487229D01*
X113242217Y-65484436D01*
X113256793Y-65483000D01*
X113549207Y-65483000D01*
X113563783Y-65484436D01*
X113572991Y-65487229D01*
X113581486Y-65491769D01*
X113588548Y-65497565D01*
X113605108Y-65508630D01*
X113623509Y-65516252D01*
X113643043Y-65520137D01*
X113662960Y-65520137D01*
X113682494Y-65516251D01*
X113700895Y-65508629D01*
X113717452Y-65497565D01*
X113724514Y-65491769D01*
X113733009Y-65487229D01*
X113742217Y-65484436D01*
X113756793Y-65483000D01*
X114049207Y-65483000D01*
X114063783Y-65484436D01*
X114072991Y-65487229D01*
X114081482Y-65491767D01*
X114088925Y-65497875D01*
X114095033Y-65505318D01*
X114099571Y-65513809D01*
X114102364Y-65523017D01*
X114103800Y-65537593D01*
X114103800Y-66980007D01*
X114102364Y-66994583D01*
X114099571Y-67003791D01*
X114095033Y-67012282D01*
X114088925Y-67019725D01*
X114081482Y-67025833D01*
X114072991Y-67030371D01*
X114063783Y-67033164D01*
X114049207Y-67034600D01*
X113756793Y-67034600D01*
X113742217Y-67033164D01*
X113733009Y-67030371D01*
X113724514Y-67025831D01*
X113717452Y-67020035D01*
X113700892Y-67008970D01*
X113682491Y-67001348D01*
X113662957Y-66997463D01*
X113643040Y-66997463D01*
X113623506Y-67001349D01*
X113605105Y-67008971D01*
X113588548Y-67020035D01*
X113581486Y-67025831D01*
X113572991Y-67030371D01*
X113563783Y-67033164D01*
X113549207Y-67034600D01*
X113256793Y-67034600D01*
X113242217Y-67033164D01*
X113233009Y-67030371D01*
X113224514Y-67025831D01*
X113217452Y-67020035D01*
X113200892Y-67008970D01*
X113182491Y-67001348D01*
X113162957Y-66997463D01*
X113143040Y-66997463D01*
X113123506Y-67001349D01*
X113105105Y-67008971D01*
X113088548Y-67020035D01*
X113081486Y-67025831D01*
X113072991Y-67030371D01*
X113063783Y-67033164D01*
X113049207Y-67034600D01*
X112756793Y-67034600D01*
X112742217Y-67033164D01*
X112733009Y-67030371D01*
X112724514Y-67025831D01*
X112717452Y-67020035D01*
X112700892Y-67008970D01*
X112682491Y-67001348D01*
X112662957Y-66997463D01*
X112643040Y-66997463D01*
X112623506Y-67001349D01*
X112605105Y-67008971D01*
X112588548Y-67020035D01*
X112581486Y-67025831D01*
X112572991Y-67030371D01*
X112563783Y-67033164D01*
X112549207Y-67034600D01*
X112256793Y-67034600D01*
X112242217Y-67033164D01*
X112233009Y-67030371D01*
X112224514Y-67025831D01*
X112217452Y-67020035D01*
X112200892Y-67008970D01*
X112182491Y-67001348D01*
X112162957Y-66997463D01*
X112143040Y-66997463D01*
X112123506Y-67001349D01*
X112105105Y-67008971D01*
X112088548Y-67020035D01*
X112081486Y-67025831D01*
X112072991Y-67030371D01*
X112063783Y-67033164D01*
X112049207Y-67034600D01*
X111756793Y-67034600D01*
X111742217Y-67033164D01*
X111733009Y-67030371D01*
X111724518Y-67025833D01*
X111717075Y-67019725D01*
X111710967Y-67012282D01*
X111706429Y-67003791D01*
X111703636Y-66994583D01*
X111702200Y-66980007D01*
X111702200Y-65537593D01*
X111703636Y-65523017D01*
X111706429Y-65513809D01*
X111710967Y-65505318D01*
X111717075Y-65497875D01*
X111724518Y-65491767D01*
X111733009Y-65487229D01*
X111742217Y-65484436D01*
X111756793Y-65483000D01*
X112049207Y-65483000D01*
X112063783Y-65484436D01*
G37*
G36*
X92117654Y-65270619D02*
G01*
X92161857Y-65284028D01*
X92202588Y-65305799D01*
X92238296Y-65335104D01*
X92267601Y-65370812D01*
X92289372Y-65411543D01*
X92302781Y-65455746D01*
X92307800Y-65506708D01*
X92307800Y-66751092D01*
X92302781Y-66802054D01*
X92289372Y-66846257D01*
X92267601Y-66886988D01*
X92238296Y-66922696D01*
X92202588Y-66952001D01*
X92161857Y-66973772D01*
X92117654Y-66987181D01*
X92066692Y-66992200D01*
X89797308Y-66992200D01*
X89746346Y-66987181D01*
X89702143Y-66973772D01*
X89661412Y-66952001D01*
X89625704Y-66922696D01*
X89596399Y-66886988D01*
X89574628Y-66846257D01*
X89561219Y-66802054D01*
X89556200Y-66751092D01*
X89556200Y-65506708D01*
X89561219Y-65455746D01*
X89574628Y-65411543D01*
X89596399Y-65370812D01*
X89625704Y-65335104D01*
X89661412Y-65305799D01*
X89702143Y-65284028D01*
X89746346Y-65270619D01*
X89797308Y-65265600D01*
X92066692Y-65265600D01*
X92117654Y-65270619D01*
G37*
G36*
X96893600Y-64026801D02*
G01*
X96895552Y-64046622D01*
X96901334Y-64065681D01*
X96910723Y-64083246D01*
X96923358Y-64098642D01*
X96938754Y-64111277D01*
X96956319Y-64120666D01*
X96975378Y-64126448D01*
X96995199Y-64128400D01*
X98940401Y-64128400D01*
X98960222Y-64126448D01*
X98979281Y-64120666D01*
X98996846Y-64111277D01*
X99012242Y-64098642D01*
X99024877Y-64083246D01*
X99034266Y-64065681D01*
X99040048Y-64046622D01*
X99042000Y-64026801D01*
X99042000Y-63982750D01*
X99843600Y-63982750D01*
X99843600Y-66725650D01*
X99042000Y-66725650D01*
X99042000Y-66681599D01*
X99040048Y-66661778D01*
X99034266Y-66642719D01*
X99024877Y-66625154D01*
X99012242Y-66609758D01*
X98996846Y-66597123D01*
X98979281Y-66587734D01*
X98960222Y-66581952D01*
X98940401Y-66580000D01*
X96995199Y-66580000D01*
X96975378Y-66581952D01*
X96956319Y-66587734D01*
X96938754Y-66597123D01*
X96923358Y-66609758D01*
X96910723Y-66625154D01*
X96901334Y-66642719D01*
X96895552Y-66661778D01*
X96893600Y-66681599D01*
X96893600Y-66725650D01*
X96092000Y-66725650D01*
X96092000Y-63982750D01*
X96893600Y-63982750D01*
X96893600Y-64026801D01*
G37*
G36*
X103479654Y-63297619D02*
G01*
X103523857Y-63311028D01*
X103564588Y-63332799D01*
X103600296Y-63362104D01*
X103629601Y-63397812D01*
X103651372Y-63438543D01*
X103664781Y-63482746D01*
X103669800Y-63533708D01*
X103669800Y-65803092D01*
X103664781Y-65854054D01*
X103651372Y-65898257D01*
X103629601Y-65938988D01*
X103600296Y-65974696D01*
X103564588Y-66004001D01*
X103523857Y-66025772D01*
X103479654Y-66039181D01*
X103428692Y-66044200D01*
X102184308Y-66044200D01*
X102133346Y-66039181D01*
X102089143Y-66025772D01*
X102048412Y-66004001D01*
X102012704Y-65974696D01*
X101983399Y-65938988D01*
X101961628Y-65898257D01*
X101948219Y-65854054D01*
X101943200Y-65803092D01*
X101943200Y-63533708D01*
X101948219Y-63482746D01*
X101961628Y-63438543D01*
X101983399Y-63397812D01*
X102012704Y-63362104D01*
X102048412Y-63332799D01*
X102089143Y-63311028D01*
X102133346Y-63297619D01*
X102184308Y-63292600D01*
X103428692Y-63292600D01*
X103479654Y-63297619D01*
G37*
G36*
X106654654Y-63297619D02*
G01*
X106698857Y-63311028D01*
X106739588Y-63332799D01*
X106775296Y-63362104D01*
X106804601Y-63397812D01*
X106826372Y-63438543D01*
X106839781Y-63482746D01*
X106844800Y-63533708D01*
X106844800Y-65803092D01*
X106839781Y-65854054D01*
X106826372Y-65898257D01*
X106804601Y-65938988D01*
X106775296Y-65974696D01*
X106739588Y-66004001D01*
X106698857Y-66025772D01*
X106654654Y-66039181D01*
X106603692Y-66044200D01*
X105359308Y-66044200D01*
X105308346Y-66039181D01*
X105264143Y-66025772D01*
X105223412Y-66004001D01*
X105187704Y-65974696D01*
X105158399Y-65938988D01*
X105136628Y-65898257D01*
X105123219Y-65854054D01*
X105118200Y-65803092D01*
X105118200Y-63533708D01*
X105123219Y-63482746D01*
X105136628Y-63438543D01*
X105158399Y-63397812D01*
X105187704Y-63362104D01*
X105223412Y-63332799D01*
X105264143Y-63311028D01*
X105308346Y-63297619D01*
X105359308Y-63292600D01*
X106603692Y-63292600D01*
X106654654Y-63297619D01*
G37*
G36*
X129429500Y-65769400D02*
G01*
X128527900Y-65769400D01*
X128527900Y-64767800D01*
X129429500Y-64767800D01*
X129429500Y-65769400D01*
G37*
G36*
X127529500Y-65769400D02*
G01*
X126627900Y-65769400D01*
X126627900Y-64767800D01*
X127529500Y-64767800D01*
X127529500Y-65769400D01*
G37*
G36*
X140105383Y-63751436D02*
G01*
X140114591Y-63754229D01*
X140123086Y-63758769D01*
X140130148Y-63764565D01*
X140146708Y-63775630D01*
X140165109Y-63783252D01*
X140184643Y-63787137D01*
X140204560Y-63787137D01*
X140224094Y-63783251D01*
X140242495Y-63775629D01*
X140259052Y-63764565D01*
X140266114Y-63758769D01*
X140274609Y-63754229D01*
X140283817Y-63751436D01*
X140298393Y-63750000D01*
X140590807Y-63750000D01*
X140605383Y-63751436D01*
X140614591Y-63754229D01*
X140623086Y-63758769D01*
X140630148Y-63764565D01*
X140646708Y-63775630D01*
X140665109Y-63783252D01*
X140684643Y-63787137D01*
X140704560Y-63787137D01*
X140724094Y-63783251D01*
X140742495Y-63775629D01*
X140759052Y-63764565D01*
X140766114Y-63758769D01*
X140774609Y-63754229D01*
X140783817Y-63751436D01*
X140798393Y-63750000D01*
X141090807Y-63750000D01*
X141105383Y-63751436D01*
X141114591Y-63754229D01*
X141123086Y-63758769D01*
X141130148Y-63764565D01*
X141146708Y-63775630D01*
X141165109Y-63783252D01*
X141184643Y-63787137D01*
X141204560Y-63787137D01*
X141224094Y-63783251D01*
X141242495Y-63775629D01*
X141259052Y-63764565D01*
X141266114Y-63758769D01*
X141274609Y-63754229D01*
X141283817Y-63751436D01*
X141298393Y-63750000D01*
X141590807Y-63750000D01*
X141605383Y-63751436D01*
X141614591Y-63754229D01*
X141623086Y-63758769D01*
X141630148Y-63764565D01*
X141646708Y-63775630D01*
X141665109Y-63783252D01*
X141684643Y-63787137D01*
X141704560Y-63787137D01*
X141724094Y-63783251D01*
X141742495Y-63775629D01*
X141759052Y-63764565D01*
X141766114Y-63758769D01*
X141774609Y-63754229D01*
X141783817Y-63751436D01*
X141798393Y-63750000D01*
X142090807Y-63750000D01*
X142105383Y-63751436D01*
X142114591Y-63754229D01*
X142123082Y-63758767D01*
X142130525Y-63764875D01*
X142136633Y-63772318D01*
X142141171Y-63780809D01*
X142143964Y-63790017D01*
X142145400Y-63804593D01*
X142145400Y-65247007D01*
X142143964Y-65261583D01*
X142141171Y-65270791D01*
X142136633Y-65279282D01*
X142130525Y-65286725D01*
X142123082Y-65292833D01*
X142114591Y-65297371D01*
X142105383Y-65300164D01*
X142090807Y-65301600D01*
X141798393Y-65301600D01*
X141783817Y-65300164D01*
X141774609Y-65297371D01*
X141766114Y-65292831D01*
X141759052Y-65287035D01*
X141742492Y-65275970D01*
X141724091Y-65268348D01*
X141704557Y-65264463D01*
X141684640Y-65264463D01*
X141665106Y-65268349D01*
X141646705Y-65275971D01*
X141630148Y-65287035D01*
X141623086Y-65292831D01*
X141614591Y-65297371D01*
X141605383Y-65300164D01*
X141590807Y-65301600D01*
X141298393Y-65301600D01*
X141283817Y-65300164D01*
X141274609Y-65297371D01*
X141266114Y-65292831D01*
X141259052Y-65287035D01*
X141242492Y-65275970D01*
X141224091Y-65268348D01*
X141204557Y-65264463D01*
X141184640Y-65264463D01*
X141165106Y-65268349D01*
X141146705Y-65275971D01*
X141130148Y-65287035D01*
X141123086Y-65292831D01*
X141114591Y-65297371D01*
X141105383Y-65300164D01*
X141090807Y-65301600D01*
X140798393Y-65301600D01*
X140783817Y-65300164D01*
X140774609Y-65297371D01*
X140766114Y-65292831D01*
X140759052Y-65287035D01*
X140742492Y-65275970D01*
X140724091Y-65268348D01*
X140704557Y-65264463D01*
X140684640Y-65264463D01*
X140665106Y-65268349D01*
X140646705Y-65275971D01*
X140630148Y-65287035D01*
X140623086Y-65292831D01*
X140614591Y-65297371D01*
X140605383Y-65300164D01*
X140590807Y-65301600D01*
X140298393Y-65301600D01*
X140283817Y-65300164D01*
X140274609Y-65297371D01*
X140266114Y-65292831D01*
X140259052Y-65287035D01*
X140242492Y-65275970D01*
X140224091Y-65268348D01*
X140204557Y-65264463D01*
X140184640Y-65264463D01*
X140165106Y-65268349D01*
X140146705Y-65275971D01*
X140130148Y-65287035D01*
X140123086Y-65292831D01*
X140114591Y-65297371D01*
X140105383Y-65300164D01*
X140090807Y-65301600D01*
X139798393Y-65301600D01*
X139783817Y-65300164D01*
X139774609Y-65297371D01*
X139766118Y-65292833D01*
X139758675Y-65286725D01*
X139752567Y-65279282D01*
X139748029Y-65270791D01*
X139745236Y-65261583D01*
X139743800Y-65247007D01*
X139743800Y-63804593D01*
X139745236Y-63790017D01*
X139748029Y-63780809D01*
X139752567Y-63772318D01*
X139758675Y-63764875D01*
X139766118Y-63758767D01*
X139774609Y-63754229D01*
X139783817Y-63751436D01*
X139798393Y-63750000D01*
X140090807Y-63750000D01*
X140105383Y-63751436D01*
G37*
G36*
X110204781Y-63936596D02*
G01*
X110244852Y-63948752D01*
X110281776Y-63968488D01*
X110314146Y-63995054D01*
X110340712Y-64027424D01*
X110360448Y-64064348D01*
X110372604Y-64104419D01*
X110377200Y-64151086D01*
X110377200Y-64964514D01*
X110372604Y-65011181D01*
X110360448Y-65051252D01*
X110340712Y-65088176D01*
X110314146Y-65120546D01*
X110281776Y-65147112D01*
X110244852Y-65166848D01*
X110204781Y-65179004D01*
X110158114Y-65183600D01*
X109094686Y-65183600D01*
X109048019Y-65179004D01*
X109007948Y-65166848D01*
X108971024Y-65147112D01*
X108938654Y-65120546D01*
X108912088Y-65088176D01*
X108892352Y-65051252D01*
X108880196Y-65011181D01*
X108875600Y-64964514D01*
X108875600Y-64151086D01*
X108880196Y-64104419D01*
X108892352Y-64064348D01*
X108912088Y-64027424D01*
X108938654Y-63995054D01*
X108971024Y-63968488D01*
X109007948Y-63948752D01*
X109048019Y-63936596D01*
X109094686Y-63932000D01*
X110158114Y-63932000D01*
X110204781Y-63936596D01*
G37*
G36*
X101294585Y-63244958D02*
G01*
X101334281Y-63257000D01*
X101370861Y-63276552D01*
X101402930Y-63302870D01*
X101429248Y-63334939D01*
X101448800Y-63371519D01*
X101460842Y-63411215D01*
X101465400Y-63457494D01*
X101465400Y-64174906D01*
X101460842Y-64221185D01*
X101448800Y-64260881D01*
X101429248Y-64297461D01*
X101402930Y-64329530D01*
X101370861Y-64355848D01*
X101334281Y-64375400D01*
X101294585Y-64387442D01*
X101248306Y-64392000D01*
X100630894Y-64392000D01*
X100584615Y-64387442D01*
X100544919Y-64375400D01*
X100508339Y-64355848D01*
X100476270Y-64329530D01*
X100449952Y-64297461D01*
X100430400Y-64260881D01*
X100418358Y-64221185D01*
X100413800Y-64174906D01*
X100413800Y-63457494D01*
X100418358Y-63411215D01*
X100430400Y-63371519D01*
X100449952Y-63334939D01*
X100476270Y-63302870D01*
X100508339Y-63276552D01*
X100544919Y-63257000D01*
X100584615Y-63244958D01*
X100630894Y-63240400D01*
X101248306Y-63240400D01*
X101294585Y-63244958D01*
G37*
G36*
X130581281Y-62601396D02*
G01*
X130621352Y-62613552D01*
X130658276Y-62633288D01*
X130690646Y-62659854D01*
X130717212Y-62692224D01*
X130736948Y-62729148D01*
X130749104Y-62769219D01*
X130753700Y-62815886D01*
X130753700Y-63879314D01*
X130749104Y-63925981D01*
X130736948Y-63966052D01*
X130717212Y-64002976D01*
X130690646Y-64035346D01*
X130658276Y-64061912D01*
X130621352Y-64081648D01*
X130581281Y-64093804D01*
X130534614Y-64098400D01*
X129721186Y-64098400D01*
X129674519Y-64093804D01*
X129634448Y-64081648D01*
X129597524Y-64061912D01*
X129565154Y-64035346D01*
X129538588Y-64002976D01*
X129518852Y-63966052D01*
X129506696Y-63925981D01*
X129502100Y-63879314D01*
X129502100Y-62815886D01*
X129506696Y-62769219D01*
X129518852Y-62729148D01*
X129538588Y-62692224D01*
X129565154Y-62659854D01*
X129597524Y-62633288D01*
X129634448Y-62613552D01*
X129674519Y-62601396D01*
X129721186Y-62596800D01*
X130534614Y-62596800D01*
X130581281Y-62601396D01*
G37*
G36*
X132631281Y-62601396D02*
G01*
X132671352Y-62613552D01*
X132708276Y-62633288D01*
X132740646Y-62659854D01*
X132767212Y-62692224D01*
X132786948Y-62729148D01*
X132799104Y-62769219D01*
X132803700Y-62815886D01*
X132803700Y-63879314D01*
X132799104Y-63925981D01*
X132786948Y-63966052D01*
X132767212Y-64002976D01*
X132740646Y-64035346D01*
X132708276Y-64061912D01*
X132671352Y-64081648D01*
X132631281Y-64093804D01*
X132584614Y-64098400D01*
X131771186Y-64098400D01*
X131724519Y-64093804D01*
X131684448Y-64081648D01*
X131647524Y-64061912D01*
X131615154Y-64035346D01*
X131588588Y-64002976D01*
X131568852Y-63966052D01*
X131556696Y-63925981D01*
X131552100Y-63879314D01*
X131552100Y-62815886D01*
X131556696Y-62769219D01*
X131568852Y-62729148D01*
X131588588Y-62692224D01*
X131615154Y-62659854D01*
X131647524Y-62633288D01*
X131684448Y-62613552D01*
X131724519Y-62601396D01*
X131771186Y-62596800D01*
X132584614Y-62596800D01*
X132631281Y-62601396D01*
G37*
G36*
X126221900Y-64048400D02*
G01*
X124820300Y-64048400D01*
X124820300Y-62646800D01*
X126221900Y-62646800D01*
X126221900Y-64048400D01*
G37*
G36*
X123921900Y-64048400D02*
G01*
X122520300Y-64048400D01*
X122520300Y-62646800D01*
X123921900Y-62646800D01*
X123921900Y-64048400D01*
G37*
G36*
X115874800Y-63830200D02*
G01*
X115011200Y-63830200D01*
X115011200Y-60934600D01*
X115874800Y-60934600D01*
X115874800Y-63830200D01*
G37*
G36*
X99014381Y-61585396D02*
G01*
X99054452Y-61597552D01*
X99091376Y-61617288D01*
X99123746Y-61643854D01*
X99150312Y-61676224D01*
X99170048Y-61713148D01*
X99182204Y-61753219D01*
X99186800Y-61799886D01*
X99186800Y-62863314D01*
X99182204Y-62909981D01*
X99170048Y-62950052D01*
X99150312Y-62986976D01*
X99123746Y-63019346D01*
X99091376Y-63045912D01*
X99054452Y-63065648D01*
X99014381Y-63077804D01*
X98967714Y-63082400D01*
X98154286Y-63082400D01*
X98107619Y-63077804D01*
X98067548Y-63065648D01*
X98030624Y-63045912D01*
X97998254Y-63019346D01*
X97971688Y-62986976D01*
X97951952Y-62950052D01*
X97939796Y-62909981D01*
X97935200Y-62863314D01*
X97935200Y-61799886D01*
X97939796Y-61753219D01*
X97951952Y-61713148D01*
X97971688Y-61676224D01*
X97998254Y-61643854D01*
X98030624Y-61617288D01*
X98067548Y-61597552D01*
X98107619Y-61585396D01*
X98154286Y-61580800D01*
X98967714Y-61580800D01*
X99014381Y-61585396D01*
G37*
G36*
X96964381Y-61585396D02*
G01*
X97004452Y-61597552D01*
X97041376Y-61617288D01*
X97073746Y-61643854D01*
X97100312Y-61676224D01*
X97120048Y-61713148D01*
X97132204Y-61753219D01*
X97136800Y-61799886D01*
X97136800Y-62863314D01*
X97132204Y-62909981D01*
X97120048Y-62950052D01*
X97100312Y-62986976D01*
X97073746Y-63019346D01*
X97041376Y-63045912D01*
X97004452Y-63065648D01*
X96964381Y-63077804D01*
X96917714Y-63082400D01*
X96104286Y-63082400D01*
X96057619Y-63077804D01*
X96017548Y-63065648D01*
X95980624Y-63045912D01*
X95948254Y-63019346D01*
X95921688Y-62986976D01*
X95901952Y-62950052D01*
X95889796Y-62909981D01*
X95885200Y-62863314D01*
X95885200Y-61799886D01*
X95889796Y-61753219D01*
X95901952Y-61713148D01*
X95921688Y-61676224D01*
X95948254Y-61643854D01*
X95980624Y-61617288D01*
X96017548Y-61597552D01*
X96057619Y-61585396D01*
X96104286Y-61580800D01*
X96917714Y-61580800D01*
X96964381Y-61585396D01*
G37*
G36*
X101294585Y-61494958D02*
G01*
X101334281Y-61507000D01*
X101370861Y-61526552D01*
X101402930Y-61552870D01*
X101429248Y-61584939D01*
X101448800Y-61621519D01*
X101460842Y-61661215D01*
X101465400Y-61707494D01*
X101465400Y-62424906D01*
X101460842Y-62471185D01*
X101448800Y-62510881D01*
X101429248Y-62547461D01*
X101402930Y-62579530D01*
X101370861Y-62605848D01*
X101334281Y-62625400D01*
X101294585Y-62637442D01*
X101248306Y-62642000D01*
X100630894Y-62642000D01*
X100584615Y-62637442D01*
X100544919Y-62625400D01*
X100508339Y-62605848D01*
X100476270Y-62579530D01*
X100449952Y-62547461D01*
X100430400Y-62510881D01*
X100418358Y-62471185D01*
X100413800Y-62424906D01*
X100413800Y-61707494D01*
X100418358Y-61661215D01*
X100430400Y-61621519D01*
X100449952Y-61584939D01*
X100476270Y-61552870D01*
X100508339Y-61526552D01*
X100544919Y-61507000D01*
X100584615Y-61494958D01*
X100630894Y-61490400D01*
X101248306Y-61490400D01*
X101294585Y-61494958D01*
G37*
G36*
X112063783Y-61084436D02*
G01*
X112072991Y-61087229D01*
X112081486Y-61091769D01*
X112088548Y-61097565D01*
X112105108Y-61108630D01*
X112123509Y-61116252D01*
X112143043Y-61120137D01*
X112162960Y-61120137D01*
X112182494Y-61116251D01*
X112200895Y-61108629D01*
X112217452Y-61097565D01*
X112224514Y-61091769D01*
X112233009Y-61087229D01*
X112242217Y-61084436D01*
X112256793Y-61083000D01*
X112549207Y-61083000D01*
X112563783Y-61084436D01*
X112572991Y-61087229D01*
X112581486Y-61091769D01*
X112588548Y-61097565D01*
X112605108Y-61108630D01*
X112623509Y-61116252D01*
X112643043Y-61120137D01*
X112662960Y-61120137D01*
X112682494Y-61116251D01*
X112700895Y-61108629D01*
X112717452Y-61097565D01*
X112724514Y-61091769D01*
X112733009Y-61087229D01*
X112742217Y-61084436D01*
X112756793Y-61083000D01*
X113049207Y-61083000D01*
X113063783Y-61084436D01*
X113072991Y-61087229D01*
X113081486Y-61091769D01*
X113088548Y-61097565D01*
X113105108Y-61108630D01*
X113123509Y-61116252D01*
X113143043Y-61120137D01*
X113162960Y-61120137D01*
X113182494Y-61116251D01*
X113200895Y-61108629D01*
X113217452Y-61097565D01*
X113224514Y-61091769D01*
X113233009Y-61087229D01*
X113242217Y-61084436D01*
X113256793Y-61083000D01*
X113549207Y-61083000D01*
X113563783Y-61084436D01*
X113572991Y-61087229D01*
X113581486Y-61091769D01*
X113588548Y-61097565D01*
X113605108Y-61108630D01*
X113623509Y-61116252D01*
X113643043Y-61120137D01*
X113662960Y-61120137D01*
X113682494Y-61116251D01*
X113700895Y-61108629D01*
X113717452Y-61097565D01*
X113724514Y-61091769D01*
X113733009Y-61087229D01*
X113742217Y-61084436D01*
X113756793Y-61083000D01*
X114049207Y-61083000D01*
X114063783Y-61084436D01*
X114072991Y-61087229D01*
X114081482Y-61091767D01*
X114088925Y-61097875D01*
X114095033Y-61105318D01*
X114099571Y-61113809D01*
X114102364Y-61123017D01*
X114103800Y-61137593D01*
X114103800Y-62580007D01*
X114102364Y-62594583D01*
X114099571Y-62603791D01*
X114095033Y-62612282D01*
X114088925Y-62619725D01*
X114081482Y-62625833D01*
X114072991Y-62630371D01*
X114063783Y-62633164D01*
X114049207Y-62634600D01*
X113756793Y-62634600D01*
X113742217Y-62633164D01*
X113733009Y-62630371D01*
X113724514Y-62625831D01*
X113717452Y-62620035D01*
X113700892Y-62608970D01*
X113682491Y-62601348D01*
X113662957Y-62597463D01*
X113643040Y-62597463D01*
X113623506Y-62601349D01*
X113605105Y-62608971D01*
X113588548Y-62620035D01*
X113581486Y-62625831D01*
X113572991Y-62630371D01*
X113563783Y-62633164D01*
X113549207Y-62634600D01*
X113256793Y-62634600D01*
X113242217Y-62633164D01*
X113233009Y-62630371D01*
X113224514Y-62625831D01*
X113217452Y-62620035D01*
X113200892Y-62608970D01*
X113182491Y-62601348D01*
X113162957Y-62597463D01*
X113143040Y-62597463D01*
X113123506Y-62601349D01*
X113105105Y-62608971D01*
X113088548Y-62620035D01*
X113081486Y-62625831D01*
X113072991Y-62630371D01*
X113063783Y-62633164D01*
X113049207Y-62634600D01*
X112756793Y-62634600D01*
X112742217Y-62633164D01*
X112733009Y-62630371D01*
X112724514Y-62625831D01*
X112717452Y-62620035D01*
X112700892Y-62608970D01*
X112682491Y-62601348D01*
X112662957Y-62597463D01*
X112643040Y-62597463D01*
X112623506Y-62601349D01*
X112605105Y-62608971D01*
X112588548Y-62620035D01*
X112581486Y-62625831D01*
X112572991Y-62630371D01*
X112563783Y-62633164D01*
X112549207Y-62634600D01*
X112256793Y-62634600D01*
X112242217Y-62633164D01*
X112233009Y-62630371D01*
X112224514Y-62625831D01*
X112217452Y-62620035D01*
X112200892Y-62608970D01*
X112182491Y-62601348D01*
X112162957Y-62597463D01*
X112143040Y-62597463D01*
X112123506Y-62601349D01*
X112105105Y-62608971D01*
X112088548Y-62620035D01*
X112081486Y-62625831D01*
X112072991Y-62630371D01*
X112063783Y-62633164D01*
X112049207Y-62634600D01*
X111756793Y-62634600D01*
X111742217Y-62633164D01*
X111733009Y-62630371D01*
X111724518Y-62625833D01*
X111717075Y-62619725D01*
X111710967Y-62612282D01*
X111706429Y-62603791D01*
X111703636Y-62594583D01*
X111702200Y-62580007D01*
X111702200Y-61137593D01*
X111703636Y-61123017D01*
X111706429Y-61113809D01*
X111710967Y-61105318D01*
X111717075Y-61097875D01*
X111724518Y-61091767D01*
X111733009Y-61087229D01*
X111742217Y-61084436D01*
X111756793Y-61083000D01*
X112049207Y-61083000D01*
X112063783Y-61084436D01*
G37*
G36*
X134901700Y-62582200D02*
G01*
X133500100Y-62582200D01*
X133500100Y-61180600D01*
X134901700Y-61180600D01*
X134901700Y-62582200D01*
G37*
G36*
X142392400Y-62179200D02*
G01*
X139496800Y-62179200D01*
X139496800Y-61315600D01*
X142392400Y-61315600D01*
X142392400Y-62179200D01*
G37*
G36*
X79773543Y-55012867D02*
G01*
X80418382Y-55279968D01*
X80997414Y-55666865D01*
X80998725Y-55667741D01*
X81492259Y-56161275D01*
X81492261Y-56161278D01*
X81880032Y-56741618D01*
X82147133Y-57386457D01*
X82283300Y-58071015D01*
X82283300Y-58768985D01*
X82147133Y-59453543D01*
X81880032Y-60098382D01*
X81501595Y-60664752D01*
X81492259Y-60678725D01*
X80998725Y-61172259D01*
X80998722Y-61172261D01*
X80418382Y-61560032D01*
X79773543Y-61827133D01*
X79088985Y-61963300D01*
X78391015Y-61963300D01*
X77706457Y-61827133D01*
X77061618Y-61560032D01*
X76481278Y-61172261D01*
X76481275Y-61172259D01*
X75987741Y-60678725D01*
X75978405Y-60664752D01*
X75599968Y-60098382D01*
X75332867Y-59453543D01*
X75196700Y-58768985D01*
X75196700Y-58071015D01*
X75332867Y-57386457D01*
X75599968Y-56741618D01*
X75987739Y-56161278D01*
X75987741Y-56161275D01*
X76481275Y-55667741D01*
X76482586Y-55666865D01*
X77061618Y-55279968D01*
X77706457Y-55012867D01*
X78391015Y-54876700D01*
X79088985Y-54876700D01*
X79773543Y-55012867D01*
G37*
G36*
X163593543Y-55012867D02*
G01*
X164238382Y-55279968D01*
X164817414Y-55666865D01*
X164818725Y-55667741D01*
X165312259Y-56161275D01*
X165312261Y-56161278D01*
X165700032Y-56741618D01*
X165967133Y-57386457D01*
X166103300Y-58071015D01*
X166103300Y-58768985D01*
X165967133Y-59453543D01*
X165700032Y-60098382D01*
X165321595Y-60664752D01*
X165312259Y-60678725D01*
X164818725Y-61172259D01*
X164818722Y-61172261D01*
X164238382Y-61560032D01*
X163593543Y-61827133D01*
X162908985Y-61963300D01*
X162211015Y-61963300D01*
X161526457Y-61827133D01*
X160881618Y-61560032D01*
X160301278Y-61172261D01*
X160301275Y-61172259D01*
X159807741Y-60678725D01*
X159798405Y-60664752D01*
X159419968Y-60098382D01*
X159152867Y-59453543D01*
X159016700Y-58768985D01*
X159016700Y-58071015D01*
X159152867Y-57386457D01*
X159419968Y-56741618D01*
X159807739Y-56161278D01*
X159807741Y-56161275D01*
X160301275Y-55667741D01*
X160302586Y-55666865D01*
X160881618Y-55279968D01*
X161526457Y-55012867D01*
X162211015Y-54876700D01*
X162908985Y-54876700D01*
X163593543Y-55012867D01*
G37*
G36*
X132620281Y-60652596D02*
G01*
X132660352Y-60664752D01*
X132697276Y-60684488D01*
X132729646Y-60711054D01*
X132756212Y-60743424D01*
X132775948Y-60780348D01*
X132788104Y-60820419D01*
X132792700Y-60867086D01*
X132792700Y-61680514D01*
X132788104Y-61727181D01*
X132775948Y-61767252D01*
X132756212Y-61804176D01*
X132729646Y-61836546D01*
X132697276Y-61863112D01*
X132660352Y-61882848D01*
X132620281Y-61895004D01*
X132573614Y-61899600D01*
X131510186Y-61899600D01*
X131463519Y-61895004D01*
X131423448Y-61882848D01*
X131386524Y-61863112D01*
X131354154Y-61836546D01*
X131327588Y-61804176D01*
X131307852Y-61767252D01*
X131295696Y-61727181D01*
X131291100Y-61680514D01*
X131291100Y-60867086D01*
X131295696Y-60820419D01*
X131307852Y-60780348D01*
X131327588Y-60743424D01*
X131354154Y-60711054D01*
X131386524Y-60684488D01*
X131423448Y-60664752D01*
X131463519Y-60652596D01*
X131510186Y-60648000D01*
X132573614Y-60648000D01*
X132620281Y-60652596D01*
G37*
G36*
X130687900Y-61574600D02*
G01*
X128586300Y-61574600D01*
X128586300Y-58923000D01*
X130687900Y-58923000D01*
X130687900Y-61574600D01*
G37*
G36*
X127267900Y-61574600D02*
G01*
X125166300Y-61574600D01*
X125166300Y-58923000D01*
X127267900Y-58923000D01*
X127267900Y-61574600D01*
G37*
G36*
X124289081Y-60322396D02*
G01*
X124329152Y-60334552D01*
X124366076Y-60354288D01*
X124398446Y-60380854D01*
X124425012Y-60413224D01*
X124444748Y-60450148D01*
X124456904Y-60490219D01*
X124461500Y-60536886D01*
X124461500Y-61350314D01*
X124456904Y-61396981D01*
X124444748Y-61437052D01*
X124425012Y-61473976D01*
X124398446Y-61506346D01*
X124366076Y-61532912D01*
X124329152Y-61552648D01*
X124289081Y-61564804D01*
X124242414Y-61569400D01*
X123178986Y-61569400D01*
X123132319Y-61564804D01*
X123092248Y-61552648D01*
X123055324Y-61532912D01*
X123022954Y-61506346D01*
X122996388Y-61473976D01*
X122976652Y-61437052D01*
X122964496Y-61396981D01*
X122959900Y-61350314D01*
X122959900Y-60536886D01*
X122964496Y-60490219D01*
X122976652Y-60450148D01*
X122996388Y-60413224D01*
X123022954Y-60380854D01*
X123055324Y-60354288D01*
X123092248Y-60334552D01*
X123132319Y-60322396D01*
X123178986Y-60317800D01*
X124242414Y-60317800D01*
X124289081Y-60322396D01*
G37*
G36*
X114858800Y-60502800D02*
G01*
X111963200Y-60502800D01*
X111963200Y-59639200D01*
X114858800Y-59639200D01*
X114858800Y-60502800D01*
G37*
G36*
X134901700Y-60282200D02*
G01*
X133500100Y-60282200D01*
X133500100Y-58880600D01*
X134901700Y-58880600D01*
X134901700Y-60282200D01*
G37*
G36*
X142392400Y-60147200D02*
G01*
X139496800Y-60147200D01*
X139496800Y-59283600D01*
X142392400Y-59283600D01*
X142392400Y-60147200D01*
G37*
G36*
X132620281Y-58602596D02*
G01*
X132660352Y-58614752D01*
X132697276Y-58634488D01*
X132729646Y-58661054D01*
X132756212Y-58693424D01*
X132775948Y-58730348D01*
X132788104Y-58770419D01*
X132792700Y-58817086D01*
X132792700Y-59630514D01*
X132788104Y-59677181D01*
X132775948Y-59717252D01*
X132756212Y-59754176D01*
X132729646Y-59786546D01*
X132697276Y-59813112D01*
X132660352Y-59832848D01*
X132620281Y-59845004D01*
X132573614Y-59849600D01*
X131510186Y-59849600D01*
X131463519Y-59845004D01*
X131423448Y-59832848D01*
X131386524Y-59813112D01*
X131354154Y-59786546D01*
X131327588Y-59754176D01*
X131307852Y-59717252D01*
X131295696Y-59677181D01*
X131291100Y-59630514D01*
X131291100Y-58817086D01*
X131295696Y-58770419D01*
X131307852Y-58730348D01*
X131327588Y-58693424D01*
X131354154Y-58661054D01*
X131386524Y-58634488D01*
X131423448Y-58614752D01*
X131463519Y-58602596D01*
X131510186Y-58598000D01*
X132573614Y-58598000D01*
X132620281Y-58602596D01*
G37*
G36*
X97036000Y-59654200D02*
G01*
X95634400Y-59654200D01*
X95634400Y-58252600D01*
X97036000Y-58252600D01*
X97036000Y-59654200D01*
G37*
G36*
X99336000Y-59654200D02*
G01*
X97934400Y-59654200D01*
X97934400Y-58252600D01*
X99336000Y-58252600D01*
X99336000Y-59654200D01*
G37*
G36*
X104289000Y-59654200D02*
G01*
X102887400Y-59654200D01*
X102887400Y-58252600D01*
X104289000Y-58252600D01*
X104289000Y-59654200D01*
G37*
G36*
X101989000Y-59654200D02*
G01*
X100587400Y-59654200D01*
X100587400Y-58252600D01*
X101989000Y-58252600D01*
X101989000Y-59654200D01*
G37*
G36*
X124289081Y-58272396D02*
G01*
X124329152Y-58284552D01*
X124366076Y-58304288D01*
X124398446Y-58330854D01*
X124425012Y-58363224D01*
X124444748Y-58400148D01*
X124456904Y-58440219D01*
X124461500Y-58486886D01*
X124461500Y-59300314D01*
X124456904Y-59346981D01*
X124444748Y-59387052D01*
X124425012Y-59423976D01*
X124398446Y-59456346D01*
X124366076Y-59482912D01*
X124329152Y-59502648D01*
X124289081Y-59514804D01*
X124242414Y-59519400D01*
X123178986Y-59519400D01*
X123132319Y-59514804D01*
X123092248Y-59502648D01*
X123055324Y-59482912D01*
X123022954Y-59456346D01*
X122996388Y-59423976D01*
X122976652Y-59387052D01*
X122964496Y-59346981D01*
X122959900Y-59300314D01*
X122959900Y-58486886D01*
X122964496Y-58440219D01*
X122976652Y-58400148D01*
X122996388Y-58363224D01*
X123022954Y-58330854D01*
X123055324Y-58304288D01*
X123092248Y-58284552D01*
X123132319Y-58272396D01*
X123178986Y-58267800D01*
X124242414Y-58267800D01*
X124289081Y-58272396D01*
G37*
M02*
