G04 #@! TF.GenerationSoftware,KiCad,Pcbnew,(5.1.5)-3*
G04 #@! TF.CreationDate,2020-06-22T17:40:46-04:00*
G04 #@! TF.ProjectId,lab-supply-usb-boost-buck,6c61622d-7375-4707-906c-792d7573622d,rev?*
G04 #@! TF.SameCoordinates,Original*
G04 #@! TF.FileFunction,Copper,L2,Bot*
G04 #@! TF.FilePolarity,Positive*
%FSLAX46Y46*%
G04 Gerber Fmt 4.6, Leading zero omitted, Abs format (unit mm)*
G04 Created by KiCad (PCBNEW (5.1.5)-3) date 2020-06-22 17:40:46*
%MOMM*%
%LPD*%
G04 APERTURE LIST*
%ADD10R,2.006600X3.403600*%
%ADD11C,6.985000*%
%ADD12R,1.700000X1.700000*%
%ADD13O,1.700000X1.700000*%
%ADD14C,0.100000*%
%ADD15O,1.700000X1.950000*%
%ADD16C,0.762000*%
%ADD17C,0.635000*%
%ADD18C,0.203200*%
%ADD19C,0.381000*%
%ADD20C,0.508000*%
%ADD21C,1.905000*%
%ADD22C,2.540000*%
%ADD23C,0.254000*%
G04 APERTURE END LIST*
D10*
X99720400Y-71831200D03*
X96266000Y-71831200D03*
D11*
X120650000Y-91440000D03*
X78740000Y-114300000D03*
X78740000Y-58420000D03*
X162560000Y-58420000D03*
X162560000Y-114300000D03*
D12*
X77546200Y-92710000D03*
D13*
X77546200Y-90170000D03*
X77546200Y-87630000D03*
X77546200Y-85090000D03*
X77546200Y-82550000D03*
X77546200Y-80010000D03*
G04 #@! TA.AperFunction,ComponentPad*
D14*
G36*
X153888104Y-113288104D02*
G01*
X153912373Y-113291704D01*
X153936171Y-113297665D01*
X153959271Y-113305930D01*
X153981449Y-113316420D01*
X154002493Y-113329033D01*
X154022198Y-113343647D01*
X154040377Y-113360123D01*
X154056853Y-113378302D01*
X154071467Y-113398007D01*
X154084080Y-113419051D01*
X154094570Y-113441229D01*
X154102835Y-113464329D01*
X154108796Y-113488127D01*
X154112396Y-113512396D01*
X154113600Y-113536900D01*
X154113600Y-114986900D01*
X154112396Y-115011404D01*
X154108796Y-115035673D01*
X154102835Y-115059471D01*
X154094570Y-115082571D01*
X154084080Y-115104749D01*
X154071467Y-115125793D01*
X154056853Y-115145498D01*
X154040377Y-115163677D01*
X154022198Y-115180153D01*
X154002493Y-115194767D01*
X153981449Y-115207380D01*
X153959271Y-115217870D01*
X153936171Y-115226135D01*
X153912373Y-115232096D01*
X153888104Y-115235696D01*
X153863600Y-115236900D01*
X152663600Y-115236900D01*
X152639096Y-115235696D01*
X152614827Y-115232096D01*
X152591029Y-115226135D01*
X152567929Y-115217870D01*
X152545751Y-115207380D01*
X152524707Y-115194767D01*
X152505002Y-115180153D01*
X152486823Y-115163677D01*
X152470347Y-115145498D01*
X152455733Y-115125793D01*
X152443120Y-115104749D01*
X152432630Y-115082571D01*
X152424365Y-115059471D01*
X152418404Y-115035673D01*
X152414804Y-115011404D01*
X152413600Y-114986900D01*
X152413600Y-113536900D01*
X152414804Y-113512396D01*
X152418404Y-113488127D01*
X152424365Y-113464329D01*
X152432630Y-113441229D01*
X152443120Y-113419051D01*
X152455733Y-113398007D01*
X152470347Y-113378302D01*
X152486823Y-113360123D01*
X152505002Y-113343647D01*
X152524707Y-113329033D01*
X152545751Y-113316420D01*
X152567929Y-113305930D01*
X152591029Y-113297665D01*
X152614827Y-113291704D01*
X152639096Y-113288104D01*
X152663600Y-113286900D01*
X153863600Y-113286900D01*
X153888104Y-113288104D01*
G37*
G04 #@! TD.AperFunction*
D15*
X150763600Y-114261900D03*
X148263600Y-114261900D03*
X145763600Y-114261900D03*
X143263600Y-114261900D03*
D12*
X77851000Y-72771000D03*
D13*
X77851000Y-70231000D03*
X94919800Y-115443000D03*
D12*
X92379800Y-115443000D03*
X163779200Y-81280000D03*
D13*
X163779200Y-83820000D03*
D12*
X163779200Y-88900000D03*
D13*
X163779200Y-91440000D03*
X163779200Y-99060000D03*
D12*
X163779200Y-96520000D03*
X111353600Y-76250800D03*
D13*
X113893600Y-76250800D03*
D12*
X138709400Y-79527400D03*
D13*
X141249400Y-79527400D03*
G04 #@! TA.AperFunction,SMDPad,CuDef*
D14*
G36*
X97470510Y-67881202D02*
G01*
X97494735Y-67884795D01*
X97518491Y-67890746D01*
X97541549Y-67898996D01*
X97563687Y-67909467D01*
X97584693Y-67922057D01*
X97604363Y-67936645D01*
X97622508Y-67953092D01*
X97638955Y-67971237D01*
X97653543Y-67990907D01*
X97666133Y-68011913D01*
X97676604Y-68034051D01*
X97684854Y-68057109D01*
X97690805Y-68080865D01*
X97694398Y-68105090D01*
X97695600Y-68129550D01*
X97695600Y-69030450D01*
X97694398Y-69054910D01*
X97690805Y-69079135D01*
X97684854Y-69102891D01*
X97676604Y-69125949D01*
X97666133Y-69148087D01*
X97653543Y-69169093D01*
X97638955Y-69188763D01*
X97622508Y-69206908D01*
X97604363Y-69223355D01*
X97584693Y-69237943D01*
X97563687Y-69250533D01*
X97541549Y-69261004D01*
X97518491Y-69269254D01*
X97494735Y-69275205D01*
X97470510Y-69278798D01*
X97446050Y-69280000D01*
X96795150Y-69280000D01*
X96770690Y-69278798D01*
X96746465Y-69275205D01*
X96722709Y-69269254D01*
X96699651Y-69261004D01*
X96677513Y-69250533D01*
X96656507Y-69237943D01*
X96636837Y-69223355D01*
X96618692Y-69206908D01*
X96602245Y-69188763D01*
X96587657Y-69169093D01*
X96575067Y-69148087D01*
X96564596Y-69125949D01*
X96556346Y-69102891D01*
X96550395Y-69079135D01*
X96546802Y-69054910D01*
X96545600Y-69030450D01*
X96545600Y-68129550D01*
X96546802Y-68105090D01*
X96550395Y-68080865D01*
X96556346Y-68057109D01*
X96564596Y-68034051D01*
X96575067Y-68011913D01*
X96587657Y-67990907D01*
X96602245Y-67971237D01*
X96618692Y-67953092D01*
X96636837Y-67936645D01*
X96656507Y-67922057D01*
X96677513Y-67909467D01*
X96699651Y-67898996D01*
X96722709Y-67890746D01*
X96746465Y-67884795D01*
X96770690Y-67881202D01*
X96795150Y-67880000D01*
X97446050Y-67880000D01*
X97470510Y-67881202D01*
G37*
G04 #@! TD.AperFunction*
G04 #@! TA.AperFunction,SMDPad,CuDef*
G36*
X99520510Y-67881202D02*
G01*
X99544735Y-67884795D01*
X99568491Y-67890746D01*
X99591549Y-67898996D01*
X99613687Y-67909467D01*
X99634693Y-67922057D01*
X99654363Y-67936645D01*
X99672508Y-67953092D01*
X99688955Y-67971237D01*
X99703543Y-67990907D01*
X99716133Y-68011913D01*
X99726604Y-68034051D01*
X99734854Y-68057109D01*
X99740805Y-68080865D01*
X99744398Y-68105090D01*
X99745600Y-68129550D01*
X99745600Y-69030450D01*
X99744398Y-69054910D01*
X99740805Y-69079135D01*
X99734854Y-69102891D01*
X99726604Y-69125949D01*
X99716133Y-69148087D01*
X99703543Y-69169093D01*
X99688955Y-69188763D01*
X99672508Y-69206908D01*
X99654363Y-69223355D01*
X99634693Y-69237943D01*
X99613687Y-69250533D01*
X99591549Y-69261004D01*
X99568491Y-69269254D01*
X99544735Y-69275205D01*
X99520510Y-69278798D01*
X99496050Y-69280000D01*
X98845150Y-69280000D01*
X98820690Y-69278798D01*
X98796465Y-69275205D01*
X98772709Y-69269254D01*
X98749651Y-69261004D01*
X98727513Y-69250533D01*
X98706507Y-69237943D01*
X98686837Y-69223355D01*
X98668692Y-69206908D01*
X98652245Y-69188763D01*
X98637657Y-69169093D01*
X98625067Y-69148087D01*
X98614596Y-69125949D01*
X98606346Y-69102891D01*
X98600395Y-69079135D01*
X98596802Y-69054910D01*
X98595600Y-69030450D01*
X98595600Y-68129550D01*
X98596802Y-68105090D01*
X98600395Y-68080865D01*
X98606346Y-68057109D01*
X98614596Y-68034051D01*
X98625067Y-68011913D01*
X98637657Y-67990907D01*
X98652245Y-67971237D01*
X98668692Y-67953092D01*
X98686837Y-67936645D01*
X98706507Y-67922057D01*
X98727513Y-67909467D01*
X98749651Y-67898996D01*
X98772709Y-67890746D01*
X98796465Y-67884795D01*
X98820690Y-67881202D01*
X98845150Y-67880000D01*
X99496050Y-67880000D01*
X99520510Y-67881202D01*
G37*
G04 #@! TD.AperFunction*
D12*
X163779200Y-73660000D03*
D13*
X163779200Y-76200000D03*
D12*
X130886200Y-86398100D03*
X92583000Y-85725000D03*
X112395000Y-85725000D03*
D16*
X141960600Y-60706000D03*
X133438900Y-63347600D03*
X104546400Y-65303400D03*
X104546400Y-67487800D03*
X97536000Y-64617600D03*
X98450400Y-64617600D03*
X98450400Y-65379600D03*
X97536000Y-65379600D03*
X97536000Y-66141600D03*
X98450400Y-66141600D03*
X95427800Y-76809600D03*
X109626400Y-67614800D03*
X140436600Y-70307208D03*
X111480600Y-60070994D03*
X115443000Y-64998600D03*
X97155000Y-74371200D03*
X90957400Y-64846200D03*
X91846400Y-64846200D03*
X90068400Y-64846200D03*
X104546400Y-64033400D03*
X104546400Y-68757800D03*
X98856800Y-80568800D03*
X125806200Y-84556600D03*
X95567500Y-82321400D03*
X110248700Y-81457800D03*
X122339100Y-75184000D03*
X123304300Y-75184000D03*
X123304300Y-76149200D03*
X122339100Y-76149200D03*
X122339100Y-77114400D03*
X123304300Y-77114400D03*
X102463600Y-78993998D03*
X98526600Y-74345800D03*
X145796000Y-77520800D03*
X145796000Y-78790800D03*
X145796000Y-80060800D03*
X145796000Y-81330800D03*
X145796000Y-82600800D03*
X145796000Y-83870800D03*
X127762000Y-59283600D03*
X105079800Y-58953400D03*
D17*
X139585700Y-65824100D03*
D16*
X148259800Y-107962700D03*
X116916200Y-83413600D03*
D17*
X111569490Y-63131698D03*
X140868400Y-65811400D03*
X112649000Y-63131700D03*
D16*
X97904300Y-83413600D03*
X116916190Y-82321400D03*
D17*
X116078000Y-56515000D03*
X112623600Y-64820800D03*
D16*
X122603332Y-83111268D03*
X100901500Y-77508100D03*
X124612400Y-87779932D03*
X144640300Y-107835700D03*
X98898782Y-83442882D03*
D17*
X136613903Y-56515000D03*
D16*
X126212600Y-87744300D03*
X140683005Y-63119000D03*
X140944600Y-60706000D03*
X86817200Y-70789800D03*
X86817200Y-70027800D03*
X86817200Y-69265800D03*
D17*
X95625512Y-69164200D03*
X94970600Y-69164200D03*
X94970600Y-64727727D03*
X95625512Y-64727727D03*
X95612812Y-70688200D03*
X94957900Y-70688200D03*
D16*
X119430794Y-74752200D03*
X114554000Y-67970400D03*
X112445800Y-67970400D03*
D17*
X97053398Y-67449700D03*
D16*
X107645200Y-68884800D03*
D17*
X106705400Y-73075800D03*
X93878400Y-67221100D03*
D16*
X93891098Y-75336400D03*
X92621100Y-81026000D03*
D17*
X140716000Y-71602600D03*
D16*
X142087600Y-72974200D03*
D17*
X100330000Y-65108727D03*
X101015800Y-65100200D03*
D16*
X99237800Y-60528200D03*
D17*
X93865700Y-66217800D03*
X93865700Y-64325500D03*
D16*
X115214400Y-84556600D03*
X113258600Y-89077800D03*
D18*
X117271820Y-83413600D02*
X117259110Y-83426310D01*
D19*
X116078000Y-59702700D02*
X116078000Y-56515000D01*
X112649000Y-63131700D02*
X116078000Y-59702700D01*
X111569490Y-63131698D02*
X111569490Y-61417210D01*
X115595400Y-54343300D02*
X137769600Y-54343300D01*
X114579400Y-55359300D02*
X115595400Y-54343300D01*
X114579400Y-58407300D02*
X114579400Y-55359300D01*
X111569490Y-61417210D02*
X114579400Y-58407300D01*
X148263600Y-113083700D02*
X148263600Y-114261900D01*
X150654100Y-110693200D02*
X148263600Y-113083700D01*
X156006800Y-110693200D02*
X150654100Y-110693200D01*
X167081200Y-99618800D02*
X156006800Y-110693200D01*
X167081200Y-70802500D02*
X167081200Y-99618800D01*
X135788400Y-56057800D02*
X137502900Y-54343300D01*
X135788400Y-62026800D02*
X135788400Y-56057800D01*
X137502900Y-54343300D02*
X150622000Y-54343300D01*
X139585700Y-65824100D02*
X135788400Y-62026800D01*
X150622000Y-54343300D02*
X167081200Y-70802500D01*
X120246068Y-83413600D02*
X124612400Y-87779932D01*
X117271820Y-83413600D02*
X120246068Y-83413600D01*
X144767300Y-107962700D02*
X144640300Y-107835700D01*
X148259800Y-107962700D02*
X144767300Y-107962700D01*
X116916200Y-83413600D02*
X98928064Y-83413600D01*
X98928064Y-83413600D02*
X98898782Y-83442882D01*
X166344600Y-71145400D02*
X151384000Y-56184800D01*
X145763600Y-113083700D02*
X148979600Y-109867700D01*
X148979600Y-109867700D02*
X155816300Y-109867700D01*
X145763600Y-114261900D02*
X145763600Y-113083700D01*
X166344600Y-99339400D02*
X166344600Y-71145400D01*
X155816300Y-109867700D02*
X166344600Y-99339400D01*
X151383990Y-56184810D02*
X151384000Y-56184800D01*
X136524997Y-56514997D02*
X136855184Y-56184810D01*
X136855184Y-56184810D02*
X151383990Y-56184810D01*
D18*
X136525000Y-56515000D02*
X136613903Y-56515000D01*
X136524997Y-56514997D02*
X136525000Y-56515000D01*
D19*
X136613903Y-61556903D02*
X136613903Y-56964012D01*
X136613903Y-56964012D02*
X136613903Y-56515000D01*
X140881100Y-65824100D02*
X136613903Y-61556903D01*
X97904300Y-82994500D02*
X97904300Y-83413600D01*
X126212600Y-87744300D02*
X120789700Y-82321400D01*
X98577400Y-82321400D02*
X97904300Y-82994500D01*
X120789700Y-82321400D02*
X98577400Y-82321400D01*
D20*
X140683005Y-60967595D02*
X140944600Y-60706000D01*
X140683005Y-63126595D02*
X140683005Y-60967595D01*
D21*
X77546200Y-85090000D02*
X77546200Y-80010000D01*
D22*
X84937600Y-70027800D02*
X86817200Y-70027800D01*
D21*
X77546200Y-80010000D02*
X77546200Y-77419200D01*
X77546200Y-77419200D02*
X84937600Y-70027800D01*
D19*
X114554000Y-67970400D02*
X112445800Y-67970400D01*
X97053398Y-68529198D02*
X97104200Y-68580000D01*
X97053398Y-67449700D02*
X97053398Y-68529198D01*
X107645200Y-72136000D02*
X106705400Y-73075800D01*
X107645200Y-68884800D02*
X107645200Y-72136000D01*
X93891098Y-67233798D02*
X93878400Y-67221100D01*
X93891098Y-75336400D02*
X93891098Y-67233798D01*
X93002099Y-80645001D02*
X92621100Y-81026000D01*
X96139000Y-77508100D02*
X93002099Y-80645001D01*
X100901500Y-77508100D02*
X96139000Y-77508100D01*
D18*
X142036800Y-72923400D02*
X142087600Y-72974200D01*
X140716000Y-71602600D02*
X142036800Y-72923400D01*
D23*
X93865700Y-66217800D02*
X93865700Y-64325500D01*
D19*
X115214400Y-87122000D02*
X113258600Y-89077800D01*
X115214400Y-84556600D02*
X115214400Y-87122000D01*
D23*
G36*
X115276355Y-53865816D02*
G01*
X115189333Y-53937233D01*
X115171434Y-53959043D01*
X114195144Y-54935334D01*
X114173334Y-54953233D01*
X114145336Y-54987349D01*
X114101916Y-55040256D01*
X114048848Y-55139539D01*
X114016169Y-55247267D01*
X114005135Y-55359300D01*
X114007901Y-55387384D01*
X114007900Y-58170577D01*
X111185234Y-60993244D01*
X111163424Y-61011143D01*
X111122924Y-61060493D01*
X111092006Y-61098166D01*
X111038938Y-61197449D01*
X111006259Y-61305177D01*
X110995225Y-61417210D01*
X110997991Y-61445294D01*
X110997990Y-62729740D01*
X110950487Y-62800834D01*
X110897833Y-62927953D01*
X110870990Y-63062902D01*
X110870990Y-63200494D01*
X110897833Y-63335443D01*
X110950487Y-63462562D01*
X111026929Y-63576966D01*
X111124222Y-63674259D01*
X111238626Y-63750701D01*
X111365745Y-63803355D01*
X111500694Y-63830198D01*
X111638286Y-63830198D01*
X111773235Y-63803355D01*
X111900354Y-63750701D01*
X112014758Y-63674259D01*
X112109244Y-63579773D01*
X112203732Y-63674261D01*
X112318136Y-63750703D01*
X112445255Y-63803357D01*
X112580204Y-63830200D01*
X112717796Y-63830200D01*
X112852745Y-63803357D01*
X112979864Y-63750703D01*
X113094268Y-63674261D01*
X113191561Y-63576968D01*
X113268003Y-63462564D01*
X113320657Y-63335445D01*
X113337338Y-63251584D01*
X116462258Y-60126665D01*
X116484067Y-60108767D01*
X116555484Y-60021745D01*
X116608552Y-59922462D01*
X116641231Y-59814734D01*
X116649500Y-59730774D01*
X116649500Y-59730773D01*
X116652265Y-59702701D01*
X116649500Y-59674629D01*
X116649500Y-56916958D01*
X116697003Y-56845864D01*
X116749657Y-56718745D01*
X116776500Y-56583796D01*
X116776500Y-56446204D01*
X116749657Y-56311255D01*
X116697003Y-56184136D01*
X116620561Y-56069732D01*
X116523268Y-55972439D01*
X116408864Y-55895997D01*
X116281745Y-55843343D01*
X116146796Y-55816500D01*
X116009204Y-55816500D01*
X115874255Y-55843343D01*
X115747136Y-55895997D01*
X115632732Y-55972439D01*
X115535439Y-56069732D01*
X115458997Y-56184136D01*
X115406343Y-56311255D01*
X115379500Y-56446204D01*
X115379500Y-56583796D01*
X115406343Y-56718745D01*
X115458997Y-56845864D01*
X115506501Y-56916959D01*
X115506500Y-59465977D01*
X112529116Y-62443362D01*
X112445255Y-62460043D01*
X112318136Y-62512697D01*
X112203732Y-62589139D01*
X112140990Y-62651881D01*
X112140990Y-61653932D01*
X114963658Y-58831265D01*
X114985467Y-58813367D01*
X115056884Y-58726345D01*
X115109952Y-58627062D01*
X115142631Y-58519334D01*
X115150900Y-58435374D01*
X115150900Y-58435373D01*
X115153665Y-58407300D01*
X115150900Y-58379226D01*
X115150900Y-55596022D01*
X115832123Y-54914800D01*
X136123178Y-54914800D01*
X135404144Y-55633834D01*
X135382334Y-55651733D01*
X135360495Y-55678344D01*
X135310916Y-55738756D01*
X135257848Y-55838039D01*
X135225169Y-55945767D01*
X135214135Y-56057800D01*
X135216901Y-56085884D01*
X135216900Y-61998726D01*
X135214135Y-62026800D01*
X135216900Y-62054873D01*
X135225169Y-62138833D01*
X135257848Y-62246561D01*
X135310916Y-62345844D01*
X135382333Y-62432867D01*
X135404148Y-62450770D01*
X138897362Y-65943985D01*
X138914043Y-66027845D01*
X138966697Y-66154964D01*
X139043139Y-66269368D01*
X139140432Y-66366661D01*
X139254836Y-66443103D01*
X139381955Y-66495757D01*
X139516904Y-66522600D01*
X139654496Y-66522600D01*
X139789445Y-66495757D01*
X139916564Y-66443103D01*
X140030968Y-66366661D01*
X140128261Y-66269368D01*
X140204703Y-66154964D01*
X140229680Y-66094663D01*
X140249397Y-66142264D01*
X140325839Y-66256668D01*
X140423132Y-66353961D01*
X140537536Y-66430403D01*
X140664655Y-66483057D01*
X140799604Y-66509900D01*
X140937196Y-66509900D01*
X141072145Y-66483057D01*
X141199264Y-66430403D01*
X141313668Y-66353961D01*
X141410961Y-66256668D01*
X141487403Y-66142264D01*
X141540057Y-66015145D01*
X141566900Y-65880196D01*
X141566900Y-65742604D01*
X141540057Y-65607655D01*
X141487403Y-65480536D01*
X141410961Y-65366132D01*
X141313668Y-65268839D01*
X141199264Y-65192397D01*
X141072145Y-65139743D01*
X140988285Y-65123062D01*
X138909173Y-63043950D01*
X139921005Y-63043950D01*
X139921005Y-63194050D01*
X139950288Y-63341267D01*
X140007729Y-63479942D01*
X140091121Y-63604747D01*
X140197258Y-63710884D01*
X140322063Y-63794276D01*
X140460738Y-63851717D01*
X140607955Y-63881000D01*
X140758055Y-63881000D01*
X140905272Y-63851717D01*
X141043947Y-63794276D01*
X141168752Y-63710884D01*
X141274889Y-63604747D01*
X141358281Y-63479942D01*
X141415722Y-63341267D01*
X141445005Y-63194050D01*
X141445005Y-63043950D01*
X141415722Y-62896733D01*
X141358281Y-62758058D01*
X141318005Y-62697781D01*
X141318005Y-61372948D01*
X141430347Y-61297884D01*
X141536484Y-61191747D01*
X141619876Y-61066942D01*
X141677317Y-60928267D01*
X141706600Y-60781050D01*
X141706600Y-60630950D01*
X141677317Y-60483733D01*
X141619876Y-60345058D01*
X141536484Y-60220253D01*
X141430347Y-60114116D01*
X141305542Y-60030724D01*
X141166867Y-59973283D01*
X141019650Y-59944000D01*
X140869550Y-59944000D01*
X140722333Y-59973283D01*
X140583658Y-60030724D01*
X140458853Y-60114116D01*
X140352716Y-60220253D01*
X140269324Y-60345058D01*
X140211883Y-60483733D01*
X140196925Y-60558931D01*
X140152468Y-60613102D01*
X140093503Y-60723416D01*
X140057194Y-60843114D01*
X140044934Y-60967595D01*
X140048006Y-60998786D01*
X140048005Y-62697780D01*
X140007729Y-62758058D01*
X139950288Y-62896733D01*
X139921005Y-63043950D01*
X138909173Y-63043950D01*
X137185403Y-61320181D01*
X137185403Y-56916958D01*
X137232906Y-56845864D01*
X137270000Y-56756310D01*
X151147288Y-56756310D01*
X165773101Y-71382124D01*
X165773100Y-99102677D01*
X165052645Y-99823132D01*
X165176025Y-99564099D01*
X165220676Y-99416890D01*
X165099355Y-99187000D01*
X163906200Y-99187000D01*
X163906200Y-100380814D01*
X164136091Y-100501481D01*
X164410452Y-100404157D01*
X164561735Y-100314042D01*
X155579578Y-109296200D01*
X149007674Y-109296200D01*
X148979600Y-109293435D01*
X148951526Y-109296200D01*
X148867566Y-109304469D01*
X148759838Y-109337148D01*
X148660555Y-109390216D01*
X148573533Y-109461633D01*
X148555634Y-109483443D01*
X145379344Y-112659734D01*
X145357534Y-112677633D01*
X145299941Y-112747810D01*
X145286116Y-112764656D01*
X145233048Y-112863939D01*
X145200369Y-112971667D01*
X145193043Y-113046054D01*
X145076385Y-113108409D01*
X144888941Y-113262240D01*
X144735109Y-113449684D01*
X144650065Y-113608790D01*
X144528653Y-113359330D01*
X144352649Y-113127471D01*
X144134793Y-112934404D01*
X143883458Y-112787548D01*
X143620490Y-112695424D01*
X143390600Y-112816745D01*
X143390600Y-114134900D01*
X143410600Y-114134900D01*
X143410600Y-114388900D01*
X143390600Y-114388900D01*
X143390600Y-115707055D01*
X143620490Y-115828376D01*
X143883458Y-115736252D01*
X144134793Y-115589396D01*
X144352649Y-115396329D01*
X144528653Y-115164470D01*
X144650065Y-114915010D01*
X144735109Y-115074115D01*
X144888940Y-115261560D01*
X145076384Y-115415391D01*
X145290237Y-115529698D01*
X145522282Y-115600088D01*
X145763600Y-115623856D01*
X146004917Y-115600088D01*
X146236962Y-115529698D01*
X146450815Y-115415391D01*
X146638260Y-115261560D01*
X146792091Y-115074116D01*
X146906398Y-114860263D01*
X146976788Y-114628218D01*
X146994600Y-114447372D01*
X146994600Y-114076429D01*
X146976788Y-113895583D01*
X146906398Y-113663538D01*
X146792091Y-113449685D01*
X146638260Y-113262240D01*
X146503707Y-113151815D01*
X149216323Y-110439200D01*
X150099877Y-110439200D01*
X147879348Y-112659730D01*
X147857533Y-112677633D01*
X147786117Y-112764655D01*
X147786116Y-112764656D01*
X147733048Y-112863939D01*
X147700369Y-112971667D01*
X147693043Y-113046054D01*
X147576385Y-113108409D01*
X147388941Y-113262240D01*
X147235109Y-113449684D01*
X147120802Y-113663537D01*
X147050412Y-113895582D01*
X147032600Y-114076428D01*
X147032600Y-114447371D01*
X147050412Y-114628217D01*
X147120802Y-114860262D01*
X147235109Y-115074115D01*
X147388940Y-115261560D01*
X147576384Y-115415391D01*
X147790237Y-115529698D01*
X148022282Y-115600088D01*
X148263600Y-115623856D01*
X148504917Y-115600088D01*
X148736962Y-115529698D01*
X148950815Y-115415391D01*
X149138260Y-115261560D01*
X149292091Y-115074116D01*
X149406398Y-114860263D01*
X149476788Y-114628218D01*
X149494600Y-114447372D01*
X149494600Y-114076429D01*
X149494600Y-114076428D01*
X149532600Y-114076428D01*
X149532600Y-114447371D01*
X149550412Y-114628217D01*
X149620802Y-114860262D01*
X149735109Y-115074115D01*
X149888940Y-115261560D01*
X150076384Y-115415391D01*
X150290237Y-115529698D01*
X150522282Y-115600088D01*
X150763600Y-115623856D01*
X151004917Y-115600088D01*
X151236962Y-115529698D01*
X151450815Y-115415391D01*
X151638260Y-115261560D01*
X151792091Y-115074116D01*
X151906398Y-114860263D01*
X151976788Y-114628218D01*
X151994600Y-114447372D01*
X151994600Y-114076429D01*
X151976788Y-113895583D01*
X151906398Y-113663538D01*
X151838709Y-113536900D01*
X152030757Y-113536900D01*
X152030757Y-114986900D01*
X152042917Y-115110362D01*
X152078929Y-115229079D01*
X152137410Y-115338489D01*
X152216112Y-115434388D01*
X152312011Y-115513090D01*
X152421421Y-115571571D01*
X152540138Y-115607583D01*
X152663600Y-115619743D01*
X153863600Y-115619743D01*
X153987062Y-115607583D01*
X154105779Y-115571571D01*
X154215189Y-115513090D01*
X154311088Y-115434388D01*
X154389790Y-115338489D01*
X154448271Y-115229079D01*
X154484283Y-115110362D01*
X154496443Y-114986900D01*
X154496443Y-113918494D01*
X158686500Y-113918494D01*
X158686500Y-114681506D01*
X158835357Y-115429858D01*
X159127349Y-116134790D01*
X159551256Y-116769212D01*
X160090788Y-117308744D01*
X160725210Y-117732651D01*
X161430142Y-118024643D01*
X162178494Y-118173500D01*
X162941506Y-118173500D01*
X163689858Y-118024643D01*
X164394790Y-117732651D01*
X165029212Y-117308744D01*
X165568744Y-116769212D01*
X165992651Y-116134790D01*
X166284643Y-115429858D01*
X166433500Y-114681506D01*
X166433500Y-113918494D01*
X166284643Y-113170142D01*
X165992651Y-112465210D01*
X165568744Y-111830788D01*
X165029212Y-111291256D01*
X164394790Y-110867349D01*
X163689858Y-110575357D01*
X162941506Y-110426500D01*
X162178494Y-110426500D01*
X161430142Y-110575357D01*
X160725210Y-110867349D01*
X160090788Y-111291256D01*
X159551256Y-111830788D01*
X159127349Y-112465210D01*
X158835357Y-113170142D01*
X158686500Y-113918494D01*
X154496443Y-113918494D01*
X154496443Y-113536900D01*
X154484283Y-113413438D01*
X154448271Y-113294721D01*
X154389790Y-113185311D01*
X154311088Y-113089412D01*
X154215189Y-113010710D01*
X154105779Y-112952229D01*
X153987062Y-112916217D01*
X153863600Y-112904057D01*
X152663600Y-112904057D01*
X152540138Y-112916217D01*
X152421421Y-112952229D01*
X152312011Y-113010710D01*
X152216112Y-113089412D01*
X152137410Y-113185311D01*
X152078929Y-113294721D01*
X152042917Y-113413438D01*
X152030757Y-113536900D01*
X151838709Y-113536900D01*
X151792091Y-113449685D01*
X151638260Y-113262240D01*
X151450816Y-113108409D01*
X151236963Y-112994102D01*
X151004918Y-112923712D01*
X150763600Y-112899944D01*
X150522283Y-112923712D01*
X150290238Y-112994102D01*
X150076385Y-113108409D01*
X149888941Y-113262240D01*
X149735109Y-113449684D01*
X149620802Y-113663537D01*
X149550412Y-113895582D01*
X149532600Y-114076428D01*
X149494600Y-114076428D01*
X149476788Y-113895583D01*
X149406398Y-113663538D01*
X149292091Y-113449685D01*
X149138260Y-113262240D01*
X149003707Y-113151815D01*
X150890823Y-111264700D01*
X155978726Y-111264700D01*
X156006800Y-111267465D01*
X156034874Y-111264700D01*
X156118834Y-111256431D01*
X156226562Y-111223752D01*
X156325845Y-111170684D01*
X156412867Y-111099267D01*
X156430770Y-111077452D01*
X167159000Y-100349223D01*
X167159000Y-118899000D01*
X74141000Y-118899000D01*
X74141000Y-113918494D01*
X74866500Y-113918494D01*
X74866500Y-114681506D01*
X75015357Y-115429858D01*
X75307349Y-116134790D01*
X75731256Y-116769212D01*
X76270788Y-117308744D01*
X76905210Y-117732651D01*
X77610142Y-118024643D01*
X78358494Y-118173500D01*
X79121506Y-118173500D01*
X79869858Y-118024643D01*
X80574790Y-117732651D01*
X81209212Y-117308744D01*
X81748744Y-116769212D01*
X82172651Y-116134790D01*
X82464643Y-115429858D01*
X82613500Y-114681506D01*
X82613500Y-114593000D01*
X91146957Y-114593000D01*
X91146957Y-116293000D01*
X91154313Y-116367689D01*
X91176099Y-116439508D01*
X91211478Y-116505696D01*
X91259089Y-116563711D01*
X91317104Y-116611322D01*
X91383292Y-116646701D01*
X91455111Y-116668487D01*
X91529800Y-116675843D01*
X93229800Y-116675843D01*
X93304489Y-116668487D01*
X93376308Y-116646701D01*
X93442496Y-116611322D01*
X93500511Y-116563711D01*
X93548122Y-116505696D01*
X93583501Y-116439508D01*
X93605287Y-116367689D01*
X93612643Y-116293000D01*
X93612643Y-115321757D01*
X93688800Y-115321757D01*
X93688800Y-115564243D01*
X93736107Y-115802069D01*
X93828902Y-116026097D01*
X93963620Y-116227717D01*
X94135083Y-116399180D01*
X94336703Y-116533898D01*
X94560731Y-116626693D01*
X94798557Y-116674000D01*
X95041043Y-116674000D01*
X95278869Y-116626693D01*
X95502897Y-116533898D01*
X95704517Y-116399180D01*
X95875980Y-116227717D01*
X96010698Y-116026097D01*
X96103493Y-115802069D01*
X96150800Y-115564243D01*
X96150800Y-115321757D01*
X96103493Y-115083931D01*
X96010698Y-114859903D01*
X95875980Y-114658283D01*
X95838864Y-114621167D01*
X141797280Y-114621167D01*
X141871158Y-114902730D01*
X141998547Y-115164470D01*
X142174551Y-115396329D01*
X142392407Y-115589396D01*
X142643742Y-115736252D01*
X142906710Y-115828376D01*
X143136600Y-115707055D01*
X143136600Y-114388900D01*
X141937435Y-114388900D01*
X141797280Y-114621167D01*
X95838864Y-114621167D01*
X95704517Y-114486820D01*
X95502897Y-114352102D01*
X95278869Y-114259307D01*
X95041043Y-114212000D01*
X94798557Y-114212000D01*
X94560731Y-114259307D01*
X94336703Y-114352102D01*
X94135083Y-114486820D01*
X93963620Y-114658283D01*
X93828902Y-114859903D01*
X93736107Y-115083931D01*
X93688800Y-115321757D01*
X93612643Y-115321757D01*
X93612643Y-114593000D01*
X93605287Y-114518311D01*
X93583501Y-114446492D01*
X93548122Y-114380304D01*
X93500511Y-114322289D01*
X93442496Y-114274678D01*
X93376308Y-114239299D01*
X93304489Y-114217513D01*
X93229800Y-114210157D01*
X91529800Y-114210157D01*
X91455111Y-114217513D01*
X91383292Y-114239299D01*
X91317104Y-114274678D01*
X91259089Y-114322289D01*
X91211478Y-114380304D01*
X91176099Y-114446492D01*
X91154313Y-114518311D01*
X91146957Y-114593000D01*
X82613500Y-114593000D01*
X82613500Y-113918494D01*
X82610346Y-113902633D01*
X141797280Y-113902633D01*
X141937435Y-114134900D01*
X143136600Y-114134900D01*
X143136600Y-112816745D01*
X142906710Y-112695424D01*
X142643742Y-112787548D01*
X142392407Y-112934404D01*
X142174551Y-113127471D01*
X141998547Y-113359330D01*
X141871158Y-113621070D01*
X141797280Y-113902633D01*
X82610346Y-113902633D01*
X82464643Y-113170142D01*
X82172651Y-112465210D01*
X81748744Y-111830788D01*
X81209212Y-111291256D01*
X80574790Y-110867349D01*
X79869858Y-110575357D01*
X79121506Y-110426500D01*
X78358494Y-110426500D01*
X77610142Y-110575357D01*
X76905210Y-110867349D01*
X76270788Y-111291256D01*
X75731256Y-111830788D01*
X75307349Y-112465210D01*
X75015357Y-113170142D01*
X74866500Y-113918494D01*
X74141000Y-113918494D01*
X74141000Y-107760650D01*
X143878300Y-107760650D01*
X143878300Y-107910750D01*
X143907583Y-108057967D01*
X143965024Y-108196642D01*
X144048416Y-108321447D01*
X144154553Y-108427584D01*
X144279358Y-108510976D01*
X144418033Y-108568417D01*
X144565250Y-108597700D01*
X144715350Y-108597700D01*
X144862567Y-108568417D01*
X144945174Y-108534200D01*
X147753669Y-108534200D01*
X147774053Y-108554584D01*
X147898858Y-108637976D01*
X148037533Y-108695417D01*
X148184750Y-108724700D01*
X148334850Y-108724700D01*
X148482067Y-108695417D01*
X148620742Y-108637976D01*
X148745547Y-108554584D01*
X148851684Y-108448447D01*
X148935076Y-108323642D01*
X148992517Y-108184967D01*
X149021800Y-108037750D01*
X149021800Y-107887650D01*
X148992517Y-107740433D01*
X148935076Y-107601758D01*
X148851684Y-107476953D01*
X148745547Y-107370816D01*
X148620742Y-107287424D01*
X148482067Y-107229983D01*
X148334850Y-107200700D01*
X148184750Y-107200700D01*
X148037533Y-107229983D01*
X147898858Y-107287424D01*
X147774053Y-107370816D01*
X147753669Y-107391200D01*
X145259744Y-107391200D01*
X145232184Y-107349953D01*
X145126047Y-107243816D01*
X145001242Y-107160424D01*
X144862567Y-107102983D01*
X144715350Y-107073700D01*
X144565250Y-107073700D01*
X144418033Y-107102983D01*
X144279358Y-107160424D01*
X144154553Y-107243816D01*
X144048416Y-107349953D01*
X143965024Y-107474758D01*
X143907583Y-107613433D01*
X143878300Y-107760650D01*
X74141000Y-107760650D01*
X74141000Y-99416890D01*
X162337724Y-99416890D01*
X162382375Y-99564099D01*
X162507559Y-99826920D01*
X162681612Y-100060269D01*
X162897845Y-100255178D01*
X163147948Y-100404157D01*
X163422309Y-100501481D01*
X163652200Y-100380814D01*
X163652200Y-99187000D01*
X162459045Y-99187000D01*
X162337724Y-99416890D01*
X74141000Y-99416890D01*
X74141000Y-97370000D01*
X162291128Y-97370000D01*
X162303388Y-97494482D01*
X162339698Y-97614180D01*
X162398663Y-97724494D01*
X162478015Y-97821185D01*
X162574706Y-97900537D01*
X162685020Y-97959502D01*
X162765666Y-97983966D01*
X162681612Y-98059731D01*
X162507559Y-98293080D01*
X162382375Y-98555901D01*
X162337724Y-98703110D01*
X162459045Y-98933000D01*
X163652200Y-98933000D01*
X163652200Y-96647000D01*
X163906200Y-96647000D01*
X163906200Y-98933000D01*
X165099355Y-98933000D01*
X165220676Y-98703110D01*
X165176025Y-98555901D01*
X165050841Y-98293080D01*
X164876788Y-98059731D01*
X164792734Y-97983966D01*
X164873380Y-97959502D01*
X164983694Y-97900537D01*
X165080385Y-97821185D01*
X165159737Y-97724494D01*
X165218702Y-97614180D01*
X165255012Y-97494482D01*
X165267272Y-97370000D01*
X165264200Y-96805750D01*
X165105450Y-96647000D01*
X163906200Y-96647000D01*
X163652200Y-96647000D01*
X162452950Y-96647000D01*
X162294200Y-96805750D01*
X162291128Y-97370000D01*
X74141000Y-97370000D01*
X74141000Y-95670000D01*
X162291128Y-95670000D01*
X162294200Y-96234250D01*
X162452950Y-96393000D01*
X163652200Y-96393000D01*
X163652200Y-95193750D01*
X163906200Y-95193750D01*
X163906200Y-96393000D01*
X165105450Y-96393000D01*
X165264200Y-96234250D01*
X165267272Y-95670000D01*
X165255012Y-95545518D01*
X165218702Y-95425820D01*
X165159737Y-95315506D01*
X165080385Y-95218815D01*
X164983694Y-95139463D01*
X164873380Y-95080498D01*
X164753682Y-95044188D01*
X164629200Y-95031928D01*
X164064950Y-95035000D01*
X163906200Y-95193750D01*
X163652200Y-95193750D01*
X163493450Y-95035000D01*
X162929200Y-95031928D01*
X162804718Y-95044188D01*
X162685020Y-95080498D01*
X162574706Y-95139463D01*
X162478015Y-95218815D01*
X162398663Y-95315506D01*
X162339698Y-95425820D01*
X162303388Y-95545518D01*
X162291128Y-95670000D01*
X74141000Y-95670000D01*
X74141000Y-93560000D01*
X76058128Y-93560000D01*
X76070388Y-93684482D01*
X76106698Y-93804180D01*
X76165663Y-93914494D01*
X76245015Y-94011185D01*
X76341706Y-94090537D01*
X76452020Y-94149502D01*
X76571718Y-94185812D01*
X76696200Y-94198072D01*
X77260450Y-94195000D01*
X77419200Y-94036250D01*
X77419200Y-92837000D01*
X77673200Y-92837000D01*
X77673200Y-94036250D01*
X77831950Y-94195000D01*
X78396200Y-94198072D01*
X78520682Y-94185812D01*
X78640380Y-94149502D01*
X78750694Y-94090537D01*
X78847385Y-94011185D01*
X78926737Y-93914494D01*
X78985702Y-93804180D01*
X79022012Y-93684482D01*
X79034272Y-93560000D01*
X79031200Y-92995750D01*
X78872450Y-92837000D01*
X77673200Y-92837000D01*
X77419200Y-92837000D01*
X76219950Y-92837000D01*
X76061200Y-92995750D01*
X76058128Y-93560000D01*
X74141000Y-93560000D01*
X74141000Y-91860000D01*
X76058128Y-91860000D01*
X76061200Y-92424250D01*
X76219950Y-92583000D01*
X77419200Y-92583000D01*
X77419200Y-90297000D01*
X77673200Y-90297000D01*
X77673200Y-92583000D01*
X78872450Y-92583000D01*
X79031200Y-92424250D01*
X79034272Y-91860000D01*
X79022012Y-91735518D01*
X78985702Y-91615820D01*
X78926737Y-91505506D01*
X78847385Y-91408815D01*
X78750694Y-91329463D01*
X78640380Y-91270498D01*
X78559734Y-91246034D01*
X78643788Y-91170269D01*
X78727160Y-91058494D01*
X116776500Y-91058494D01*
X116776500Y-91821506D01*
X116925357Y-92569858D01*
X117217349Y-93274790D01*
X117641256Y-93909212D01*
X118180788Y-94448744D01*
X118815210Y-94872651D01*
X119520142Y-95164643D01*
X120268494Y-95313500D01*
X121031506Y-95313500D01*
X121779858Y-95164643D01*
X122484790Y-94872651D01*
X123119212Y-94448744D01*
X123658744Y-93909212D01*
X124082651Y-93274790D01*
X124374643Y-92569858D01*
X124523500Y-91821506D01*
X124523500Y-91318757D01*
X162548200Y-91318757D01*
X162548200Y-91561243D01*
X162595507Y-91799069D01*
X162688302Y-92023097D01*
X162823020Y-92224717D01*
X162994483Y-92396180D01*
X163196103Y-92530898D01*
X163420131Y-92623693D01*
X163657957Y-92671000D01*
X163900443Y-92671000D01*
X164138269Y-92623693D01*
X164362297Y-92530898D01*
X164563917Y-92396180D01*
X164735380Y-92224717D01*
X164870098Y-92023097D01*
X164962893Y-91799069D01*
X165010200Y-91561243D01*
X165010200Y-91318757D01*
X164962893Y-91080931D01*
X164870098Y-90856903D01*
X164735380Y-90655283D01*
X164563917Y-90483820D01*
X164362297Y-90349102D01*
X164138269Y-90256307D01*
X163900443Y-90209000D01*
X163657957Y-90209000D01*
X163420131Y-90256307D01*
X163196103Y-90349102D01*
X162994483Y-90483820D01*
X162823020Y-90655283D01*
X162688302Y-90856903D01*
X162595507Y-91080931D01*
X162548200Y-91318757D01*
X124523500Y-91318757D01*
X124523500Y-91058494D01*
X124374643Y-90310142D01*
X124082651Y-89605210D01*
X123658744Y-88970788D01*
X123119212Y-88431256D01*
X122484790Y-88007349D01*
X121779858Y-87715357D01*
X121031506Y-87566500D01*
X120268494Y-87566500D01*
X119520142Y-87715357D01*
X118815210Y-88007349D01*
X118180788Y-88431256D01*
X117641256Y-88970788D01*
X117217349Y-89605210D01*
X116925357Y-90310142D01*
X116776500Y-91058494D01*
X78727160Y-91058494D01*
X78817841Y-90936920D01*
X78943025Y-90674099D01*
X78987676Y-90526890D01*
X78866355Y-90297000D01*
X77673200Y-90297000D01*
X77419200Y-90297000D01*
X76226045Y-90297000D01*
X76104724Y-90526890D01*
X76149375Y-90674099D01*
X76274559Y-90936920D01*
X76448612Y-91170269D01*
X76532666Y-91246034D01*
X76452020Y-91270498D01*
X76341706Y-91329463D01*
X76245015Y-91408815D01*
X76165663Y-91505506D01*
X76106698Y-91615820D01*
X76070388Y-91735518D01*
X76058128Y-91860000D01*
X74141000Y-91860000D01*
X74141000Y-87986890D01*
X76104724Y-87986890D01*
X76149375Y-88134099D01*
X76274559Y-88396920D01*
X76448612Y-88630269D01*
X76664845Y-88825178D01*
X76790455Y-88900000D01*
X76664845Y-88974822D01*
X76448612Y-89169731D01*
X76274559Y-89403080D01*
X76149375Y-89665901D01*
X76104724Y-89813110D01*
X76226045Y-90043000D01*
X77419200Y-90043000D01*
X77419200Y-87757000D01*
X77673200Y-87757000D01*
X77673200Y-90043000D01*
X78866355Y-90043000D01*
X78987676Y-89813110D01*
X78943025Y-89665901D01*
X78817841Y-89403080D01*
X78643788Y-89169731D01*
X78427555Y-88974822D01*
X78301945Y-88900000D01*
X78427555Y-88825178D01*
X78643788Y-88630269D01*
X78817841Y-88396920D01*
X78943025Y-88134099D01*
X78987676Y-87986890D01*
X78866355Y-87757000D01*
X77673200Y-87757000D01*
X77419200Y-87757000D01*
X76226045Y-87757000D01*
X76104724Y-87986890D01*
X74141000Y-87986890D01*
X74141000Y-87273110D01*
X76104724Y-87273110D01*
X76226045Y-87503000D01*
X77419200Y-87503000D01*
X77419200Y-87483000D01*
X77673200Y-87483000D01*
X77673200Y-87503000D01*
X78866355Y-87503000D01*
X78987676Y-87273110D01*
X78943025Y-87125901D01*
X78817841Y-86863080D01*
X78643788Y-86629731D01*
X78427555Y-86434822D01*
X78177452Y-86285843D01*
X78153594Y-86277380D01*
X78290636Y-86204129D01*
X78493689Y-86037489D01*
X78660329Y-85834437D01*
X78784154Y-85602777D01*
X78860405Y-85351412D01*
X78879700Y-85155508D01*
X78879700Y-84875000D01*
X91350157Y-84875000D01*
X91350157Y-86575000D01*
X91357513Y-86649689D01*
X91379299Y-86721508D01*
X91414678Y-86787696D01*
X91462289Y-86845711D01*
X91520304Y-86893322D01*
X91586492Y-86928701D01*
X91658311Y-86950487D01*
X91733000Y-86957843D01*
X93433000Y-86957843D01*
X93507689Y-86950487D01*
X93579508Y-86928701D01*
X93645696Y-86893322D01*
X93703711Y-86845711D01*
X93751322Y-86787696D01*
X93786701Y-86721508D01*
X93808487Y-86649689D01*
X93815843Y-86575000D01*
X93815843Y-84875000D01*
X111162157Y-84875000D01*
X111162157Y-86575000D01*
X111169513Y-86649689D01*
X111191299Y-86721508D01*
X111226678Y-86787696D01*
X111274289Y-86845711D01*
X111332304Y-86893322D01*
X111398492Y-86928701D01*
X111470311Y-86950487D01*
X111545000Y-86957843D01*
X113245000Y-86957843D01*
X113319689Y-86950487D01*
X113391508Y-86928701D01*
X113457696Y-86893322D01*
X113515711Y-86845711D01*
X113563322Y-86787696D01*
X113598701Y-86721508D01*
X113620487Y-86649689D01*
X113627843Y-86575000D01*
X113627843Y-84875000D01*
X113620487Y-84800311D01*
X113598701Y-84728492D01*
X113563322Y-84662304D01*
X113515711Y-84604289D01*
X113457696Y-84556678D01*
X113391508Y-84521299D01*
X113319689Y-84499513D01*
X113245000Y-84492157D01*
X111545000Y-84492157D01*
X111470311Y-84499513D01*
X111398492Y-84521299D01*
X111332304Y-84556678D01*
X111274289Y-84604289D01*
X111226678Y-84662304D01*
X111191299Y-84728492D01*
X111169513Y-84800311D01*
X111162157Y-84875000D01*
X93815843Y-84875000D01*
X93808487Y-84800311D01*
X93786701Y-84728492D01*
X93751322Y-84662304D01*
X93703711Y-84604289D01*
X93645696Y-84556678D01*
X93579508Y-84521299D01*
X93507689Y-84499513D01*
X93433000Y-84492157D01*
X91733000Y-84492157D01*
X91658311Y-84499513D01*
X91586492Y-84521299D01*
X91520304Y-84556678D01*
X91462289Y-84604289D01*
X91414678Y-84662304D01*
X91379299Y-84728492D01*
X91357513Y-84800311D01*
X91350157Y-84875000D01*
X78879700Y-84875000D01*
X78879700Y-83338550D01*
X97142300Y-83338550D01*
X97142300Y-83488650D01*
X97171583Y-83635867D01*
X97229024Y-83774542D01*
X97312416Y-83899347D01*
X97418553Y-84005484D01*
X97543358Y-84088876D01*
X97682033Y-84146317D01*
X97829250Y-84175600D01*
X97979350Y-84175600D01*
X98126567Y-84146317D01*
X98265242Y-84088876D01*
X98386274Y-84008005D01*
X98413035Y-84034766D01*
X98537840Y-84118158D01*
X98676515Y-84175599D01*
X98823732Y-84204882D01*
X98973832Y-84204882D01*
X99121049Y-84175599D01*
X99259724Y-84118158D01*
X99384529Y-84034766D01*
X99434195Y-83985100D01*
X114708269Y-83985100D01*
X114622516Y-84070853D01*
X114539124Y-84195658D01*
X114481683Y-84334333D01*
X114452400Y-84481550D01*
X114452400Y-84631650D01*
X114481683Y-84778867D01*
X114539124Y-84917542D01*
X114622516Y-85042347D01*
X114642900Y-85062731D01*
X114642901Y-86885276D01*
X113212378Y-88315800D01*
X113183550Y-88315800D01*
X113036333Y-88345083D01*
X112897658Y-88402524D01*
X112772853Y-88485916D01*
X112666716Y-88592053D01*
X112583324Y-88716858D01*
X112525883Y-88855533D01*
X112496600Y-89002750D01*
X112496600Y-89152850D01*
X112525883Y-89300067D01*
X112583324Y-89438742D01*
X112666716Y-89563547D01*
X112772853Y-89669684D01*
X112897658Y-89753076D01*
X113036333Y-89810517D01*
X113183550Y-89839800D01*
X113333650Y-89839800D01*
X113480867Y-89810517D01*
X113619542Y-89753076D01*
X113744347Y-89669684D01*
X113850484Y-89563547D01*
X113933876Y-89438742D01*
X113991317Y-89300067D01*
X114020600Y-89152850D01*
X114020600Y-89124022D01*
X115598657Y-87545966D01*
X115620467Y-87528067D01*
X115691884Y-87441045D01*
X115744952Y-87341762D01*
X115777631Y-87234034D01*
X115785900Y-87150074D01*
X115788665Y-87122000D01*
X115785900Y-87093926D01*
X115785900Y-85062731D01*
X115806284Y-85042347D01*
X115889676Y-84917542D01*
X115947117Y-84778867D01*
X115976400Y-84631650D01*
X115976400Y-84481550D01*
X115947117Y-84334333D01*
X115889676Y-84195658D01*
X115806284Y-84070853D01*
X115720531Y-83985100D01*
X116410069Y-83985100D01*
X116430453Y-84005484D01*
X116555258Y-84088876D01*
X116693933Y-84146317D01*
X116841150Y-84175600D01*
X116991250Y-84175600D01*
X117138467Y-84146317D01*
X117277142Y-84088876D01*
X117401947Y-84005484D01*
X117422331Y-83985100D01*
X120009346Y-83985100D01*
X123850400Y-87826155D01*
X123850400Y-87854982D01*
X123879683Y-88002199D01*
X123937124Y-88140874D01*
X124020516Y-88265679D01*
X124126653Y-88371816D01*
X124251458Y-88455208D01*
X124390133Y-88512649D01*
X124537350Y-88541932D01*
X124687450Y-88541932D01*
X124834667Y-88512649D01*
X124973342Y-88455208D01*
X125098147Y-88371816D01*
X125204284Y-88265679D01*
X125287676Y-88140874D01*
X125345117Y-88002199D01*
X125374400Y-87854982D01*
X125374400Y-87714324D01*
X125450600Y-87790524D01*
X125450600Y-87819350D01*
X125479883Y-87966567D01*
X125537324Y-88105242D01*
X125620716Y-88230047D01*
X125726853Y-88336184D01*
X125851658Y-88419576D01*
X125990333Y-88477017D01*
X126137550Y-88506300D01*
X126287650Y-88506300D01*
X126434867Y-88477017D01*
X126573542Y-88419576D01*
X126698347Y-88336184D01*
X126804484Y-88230047D01*
X126887876Y-88105242D01*
X126910757Y-88050000D01*
X162546357Y-88050000D01*
X162546357Y-89750000D01*
X162553713Y-89824689D01*
X162575499Y-89896508D01*
X162610878Y-89962696D01*
X162658489Y-90020711D01*
X162716504Y-90068322D01*
X162782692Y-90103701D01*
X162854511Y-90125487D01*
X162929200Y-90132843D01*
X164629200Y-90132843D01*
X164703889Y-90125487D01*
X164775708Y-90103701D01*
X164841896Y-90068322D01*
X164899911Y-90020711D01*
X164947522Y-89962696D01*
X164982901Y-89896508D01*
X165004687Y-89824689D01*
X165012043Y-89750000D01*
X165012043Y-88050000D01*
X165004687Y-87975311D01*
X164982901Y-87903492D01*
X164947522Y-87837304D01*
X164899911Y-87779289D01*
X164841896Y-87731678D01*
X164775708Y-87696299D01*
X164703889Y-87674513D01*
X164629200Y-87667157D01*
X162929200Y-87667157D01*
X162854511Y-87674513D01*
X162782692Y-87696299D01*
X162716504Y-87731678D01*
X162658489Y-87779289D01*
X162610878Y-87837304D01*
X162575499Y-87903492D01*
X162553713Y-87975311D01*
X162546357Y-88050000D01*
X126910757Y-88050000D01*
X126945317Y-87966567D01*
X126974600Y-87819350D01*
X126974600Y-87669250D01*
X126945317Y-87522033D01*
X126887876Y-87383358D01*
X126804484Y-87258553D01*
X126698347Y-87152416D01*
X126573542Y-87069024D01*
X126434867Y-87011583D01*
X126287650Y-86982300D01*
X126258824Y-86982300D01*
X124824624Y-85548100D01*
X129653357Y-85548100D01*
X129653357Y-87248100D01*
X129660713Y-87322789D01*
X129682499Y-87394608D01*
X129717878Y-87460796D01*
X129765489Y-87518811D01*
X129823504Y-87566422D01*
X129889692Y-87601801D01*
X129961511Y-87623587D01*
X130036200Y-87630943D01*
X131736200Y-87630943D01*
X131810889Y-87623587D01*
X131882708Y-87601801D01*
X131948896Y-87566422D01*
X132006911Y-87518811D01*
X132054522Y-87460796D01*
X132089901Y-87394608D01*
X132111687Y-87322789D01*
X132119043Y-87248100D01*
X132119043Y-85548100D01*
X132111687Y-85473411D01*
X132089901Y-85401592D01*
X132054522Y-85335404D01*
X132006911Y-85277389D01*
X131948896Y-85229778D01*
X131882708Y-85194399D01*
X131810889Y-85172613D01*
X131736200Y-85165257D01*
X130036200Y-85165257D01*
X129961511Y-85172613D01*
X129889692Y-85194399D01*
X129823504Y-85229778D01*
X129765489Y-85277389D01*
X129717878Y-85335404D01*
X129682499Y-85401592D01*
X129660713Y-85473411D01*
X129653357Y-85548100D01*
X124824624Y-85548100D01*
X122975280Y-83698757D01*
X162548200Y-83698757D01*
X162548200Y-83941243D01*
X162595507Y-84179069D01*
X162688302Y-84403097D01*
X162823020Y-84604717D01*
X162994483Y-84776180D01*
X163196103Y-84910898D01*
X163420131Y-85003693D01*
X163657957Y-85051000D01*
X163900443Y-85051000D01*
X164138269Y-85003693D01*
X164362297Y-84910898D01*
X164563917Y-84776180D01*
X164735380Y-84604717D01*
X164870098Y-84403097D01*
X164962893Y-84179069D01*
X165010200Y-83941243D01*
X165010200Y-83698757D01*
X164962893Y-83460931D01*
X164870098Y-83236903D01*
X164735380Y-83035283D01*
X164563917Y-82863820D01*
X164362297Y-82729102D01*
X164138269Y-82636307D01*
X163900443Y-82589000D01*
X163657957Y-82589000D01*
X163420131Y-82636307D01*
X163196103Y-82729102D01*
X162994483Y-82863820D01*
X162823020Y-83035283D01*
X162688302Y-83236903D01*
X162595507Y-83460931D01*
X162548200Y-83698757D01*
X122975280Y-83698757D01*
X121213670Y-81937148D01*
X121195767Y-81915333D01*
X121108745Y-81843916D01*
X121009462Y-81790848D01*
X120901734Y-81758169D01*
X120817774Y-81749900D01*
X120789700Y-81747135D01*
X120761626Y-81749900D01*
X117422321Y-81749900D01*
X117401937Y-81729516D01*
X117277132Y-81646124D01*
X117138457Y-81588683D01*
X116991240Y-81559400D01*
X116841140Y-81559400D01*
X116693923Y-81588683D01*
X116555248Y-81646124D01*
X116430443Y-81729516D01*
X116410059Y-81749900D01*
X98605471Y-81749900D01*
X98577399Y-81747135D01*
X98549327Y-81749900D01*
X98549326Y-81749900D01*
X98465366Y-81758169D01*
X98357638Y-81790848D01*
X98258355Y-81843916D01*
X98171333Y-81915333D01*
X98153434Y-81937143D01*
X97520048Y-82570530D01*
X97498233Y-82588433D01*
X97426817Y-82675455D01*
X97426816Y-82675456D01*
X97373748Y-82774739D01*
X97341069Y-82882467D01*
X97339241Y-82901028D01*
X97312416Y-82927853D01*
X97229024Y-83052658D01*
X97171583Y-83191333D01*
X97142300Y-83338550D01*
X78879700Y-83338550D01*
X78879700Y-80950950D01*
X91859100Y-80950950D01*
X91859100Y-81101050D01*
X91888383Y-81248267D01*
X91945824Y-81386942D01*
X92029216Y-81511747D01*
X92135353Y-81617884D01*
X92260158Y-81701276D01*
X92398833Y-81758717D01*
X92546050Y-81788000D01*
X92696150Y-81788000D01*
X92843367Y-81758717D01*
X92982042Y-81701276D01*
X93106847Y-81617884D01*
X93212984Y-81511747D01*
X93296376Y-81386942D01*
X93353817Y-81248267D01*
X93383100Y-81101050D01*
X93383100Y-81072222D01*
X93426061Y-81029261D01*
X95777922Y-78677400D01*
X137476557Y-78677400D01*
X137476557Y-80377400D01*
X137483913Y-80452089D01*
X137505699Y-80523908D01*
X137541078Y-80590096D01*
X137588689Y-80648111D01*
X137646704Y-80695722D01*
X137712892Y-80731101D01*
X137784711Y-80752887D01*
X137859400Y-80760243D01*
X139559400Y-80760243D01*
X139634089Y-80752887D01*
X139705908Y-80731101D01*
X139772096Y-80695722D01*
X139830111Y-80648111D01*
X139877722Y-80590096D01*
X139913101Y-80523908D01*
X139934887Y-80452089D01*
X139942243Y-80377400D01*
X139942243Y-79406157D01*
X140018400Y-79406157D01*
X140018400Y-79648643D01*
X140065707Y-79886469D01*
X140158502Y-80110497D01*
X140293220Y-80312117D01*
X140464683Y-80483580D01*
X140666303Y-80618298D01*
X140890331Y-80711093D01*
X141128157Y-80758400D01*
X141370643Y-80758400D01*
X141608469Y-80711093D01*
X141832497Y-80618298D01*
X142034117Y-80483580D01*
X142087697Y-80430000D01*
X162546357Y-80430000D01*
X162546357Y-82130000D01*
X162553713Y-82204689D01*
X162575499Y-82276508D01*
X162610878Y-82342696D01*
X162658489Y-82400711D01*
X162716504Y-82448322D01*
X162782692Y-82483701D01*
X162854511Y-82505487D01*
X162929200Y-82512843D01*
X164629200Y-82512843D01*
X164703889Y-82505487D01*
X164775708Y-82483701D01*
X164841896Y-82448322D01*
X164899911Y-82400711D01*
X164947522Y-82342696D01*
X164982901Y-82276508D01*
X165004687Y-82204689D01*
X165012043Y-82130000D01*
X165012043Y-80430000D01*
X165004687Y-80355311D01*
X164982901Y-80283492D01*
X164947522Y-80217304D01*
X164899911Y-80159289D01*
X164841896Y-80111678D01*
X164775708Y-80076299D01*
X164703889Y-80054513D01*
X164629200Y-80047157D01*
X162929200Y-80047157D01*
X162854511Y-80054513D01*
X162782692Y-80076299D01*
X162716504Y-80111678D01*
X162658489Y-80159289D01*
X162610878Y-80217304D01*
X162575499Y-80283492D01*
X162553713Y-80355311D01*
X162546357Y-80430000D01*
X142087697Y-80430000D01*
X142205580Y-80312117D01*
X142340298Y-80110497D01*
X142433093Y-79886469D01*
X142480400Y-79648643D01*
X142480400Y-79406157D01*
X142433093Y-79168331D01*
X142340298Y-78944303D01*
X142205580Y-78742683D01*
X142034117Y-78571220D01*
X141832497Y-78436502D01*
X141608469Y-78343707D01*
X141370643Y-78296400D01*
X141128157Y-78296400D01*
X140890331Y-78343707D01*
X140666303Y-78436502D01*
X140464683Y-78571220D01*
X140293220Y-78742683D01*
X140158502Y-78944303D01*
X140065707Y-79168331D01*
X140018400Y-79406157D01*
X139942243Y-79406157D01*
X139942243Y-78677400D01*
X139934887Y-78602711D01*
X139913101Y-78530892D01*
X139877722Y-78464704D01*
X139830111Y-78406689D01*
X139772096Y-78359078D01*
X139705908Y-78323699D01*
X139634089Y-78301913D01*
X139559400Y-78294557D01*
X137859400Y-78294557D01*
X137784711Y-78301913D01*
X137712892Y-78323699D01*
X137646704Y-78359078D01*
X137588689Y-78406689D01*
X137541078Y-78464704D01*
X137505699Y-78530892D01*
X137483913Y-78602711D01*
X137476557Y-78677400D01*
X95777922Y-78677400D01*
X96375723Y-78079600D01*
X100395369Y-78079600D01*
X100415753Y-78099984D01*
X100540558Y-78183376D01*
X100679233Y-78240817D01*
X100826450Y-78270100D01*
X100976550Y-78270100D01*
X101123767Y-78240817D01*
X101262442Y-78183376D01*
X101387247Y-78099984D01*
X101493384Y-77993847D01*
X101576776Y-77869042D01*
X101634217Y-77730367D01*
X101663500Y-77583150D01*
X101663500Y-77433050D01*
X101634217Y-77285833D01*
X101576776Y-77147158D01*
X101493384Y-77022353D01*
X101387247Y-76916216D01*
X101262442Y-76832824D01*
X101123767Y-76775383D01*
X100976550Y-76746100D01*
X100826450Y-76746100D01*
X100679233Y-76775383D01*
X100540558Y-76832824D01*
X100415753Y-76916216D01*
X100395369Y-76936600D01*
X96167074Y-76936600D01*
X96139000Y-76933835D01*
X96110926Y-76936600D01*
X96026966Y-76944869D01*
X95919238Y-76977548D01*
X95819955Y-77030616D01*
X95732933Y-77102033D01*
X95715034Y-77123843D01*
X92617839Y-80221039D01*
X92574878Y-80264000D01*
X92546050Y-80264000D01*
X92398833Y-80293283D01*
X92260158Y-80350724D01*
X92135353Y-80434116D01*
X92029216Y-80540253D01*
X91945824Y-80665058D01*
X91888383Y-80803733D01*
X91859100Y-80950950D01*
X78879700Y-80950950D01*
X78879700Y-77971553D01*
X81589903Y-75261350D01*
X93129098Y-75261350D01*
X93129098Y-75411450D01*
X93158381Y-75558667D01*
X93215822Y-75697342D01*
X93299214Y-75822147D01*
X93405351Y-75928284D01*
X93530156Y-76011676D01*
X93668831Y-76069117D01*
X93816048Y-76098400D01*
X93966148Y-76098400D01*
X94113365Y-76069117D01*
X94252040Y-76011676D01*
X94376845Y-75928284D01*
X94482982Y-75822147D01*
X94566374Y-75697342D01*
X94623815Y-75558667D01*
X94653098Y-75411450D01*
X94653098Y-75400800D01*
X110120757Y-75400800D01*
X110120757Y-77100800D01*
X110128113Y-77175489D01*
X110149899Y-77247308D01*
X110185278Y-77313496D01*
X110232889Y-77371511D01*
X110290904Y-77419122D01*
X110357092Y-77454501D01*
X110428911Y-77476287D01*
X110503600Y-77483643D01*
X112203600Y-77483643D01*
X112278289Y-77476287D01*
X112350108Y-77454501D01*
X112416296Y-77419122D01*
X112474311Y-77371511D01*
X112521922Y-77313496D01*
X112557301Y-77247308D01*
X112579087Y-77175489D01*
X112586443Y-77100800D01*
X112586443Y-76129557D01*
X112662600Y-76129557D01*
X112662600Y-76372043D01*
X112709907Y-76609869D01*
X112802702Y-76833897D01*
X112937420Y-77035517D01*
X113108883Y-77206980D01*
X113310503Y-77341698D01*
X113534531Y-77434493D01*
X113772357Y-77481800D01*
X114014843Y-77481800D01*
X114252669Y-77434493D01*
X114476697Y-77341698D01*
X114678317Y-77206980D01*
X114849780Y-77035517D01*
X114984498Y-76833897D01*
X115077293Y-76609869D01*
X115087831Y-76556890D01*
X162337724Y-76556890D01*
X162382375Y-76704099D01*
X162507559Y-76966920D01*
X162681612Y-77200269D01*
X162897845Y-77395178D01*
X163147948Y-77544157D01*
X163422309Y-77641481D01*
X163652200Y-77520814D01*
X163652200Y-76327000D01*
X163906200Y-76327000D01*
X163906200Y-77520814D01*
X164136091Y-77641481D01*
X164410452Y-77544157D01*
X164660555Y-77395178D01*
X164876788Y-77200269D01*
X165050841Y-76966920D01*
X165176025Y-76704099D01*
X165220676Y-76556890D01*
X165099355Y-76327000D01*
X163906200Y-76327000D01*
X163652200Y-76327000D01*
X162459045Y-76327000D01*
X162337724Y-76556890D01*
X115087831Y-76556890D01*
X115124600Y-76372043D01*
X115124600Y-76129557D01*
X115077293Y-75891731D01*
X114984498Y-75667703D01*
X114849780Y-75466083D01*
X114678317Y-75294620D01*
X114476697Y-75159902D01*
X114252669Y-75067107D01*
X114014843Y-75019800D01*
X113772357Y-75019800D01*
X113534531Y-75067107D01*
X113310503Y-75159902D01*
X113108883Y-75294620D01*
X112937420Y-75466083D01*
X112802702Y-75667703D01*
X112709907Y-75891731D01*
X112662600Y-76129557D01*
X112586443Y-76129557D01*
X112586443Y-75400800D01*
X112579087Y-75326111D01*
X112557301Y-75254292D01*
X112521922Y-75188104D01*
X112474311Y-75130089D01*
X112416296Y-75082478D01*
X112350108Y-75047099D01*
X112278289Y-75025313D01*
X112203600Y-75017957D01*
X110503600Y-75017957D01*
X110428911Y-75025313D01*
X110357092Y-75047099D01*
X110290904Y-75082478D01*
X110232889Y-75130089D01*
X110185278Y-75188104D01*
X110149899Y-75254292D01*
X110128113Y-75326111D01*
X110120757Y-75400800D01*
X94653098Y-75400800D01*
X94653098Y-75261350D01*
X94623815Y-75114133D01*
X94566374Y-74975458D01*
X94482982Y-74850653D01*
X94462598Y-74830269D01*
X94462598Y-74677150D01*
X118668794Y-74677150D01*
X118668794Y-74827250D01*
X118698077Y-74974467D01*
X118755518Y-75113142D01*
X118838910Y-75237947D01*
X118945047Y-75344084D01*
X119069852Y-75427476D01*
X119208527Y-75484917D01*
X119355744Y-75514200D01*
X119505844Y-75514200D01*
X119653061Y-75484917D01*
X119791736Y-75427476D01*
X119916541Y-75344084D01*
X120022678Y-75237947D01*
X120106070Y-75113142D01*
X120163511Y-74974467D01*
X120192794Y-74827250D01*
X120192794Y-74677150D01*
X120163511Y-74529933D01*
X120155255Y-74510000D01*
X162291128Y-74510000D01*
X162303388Y-74634482D01*
X162339698Y-74754180D01*
X162398663Y-74864494D01*
X162478015Y-74961185D01*
X162574706Y-75040537D01*
X162685020Y-75099502D01*
X162765666Y-75123966D01*
X162681612Y-75199731D01*
X162507559Y-75433080D01*
X162382375Y-75695901D01*
X162337724Y-75843110D01*
X162459045Y-76073000D01*
X163652200Y-76073000D01*
X163652200Y-73787000D01*
X163906200Y-73787000D01*
X163906200Y-76073000D01*
X165099355Y-76073000D01*
X165220676Y-75843110D01*
X165176025Y-75695901D01*
X165050841Y-75433080D01*
X164876788Y-75199731D01*
X164792734Y-75123966D01*
X164873380Y-75099502D01*
X164983694Y-75040537D01*
X165080385Y-74961185D01*
X165159737Y-74864494D01*
X165218702Y-74754180D01*
X165255012Y-74634482D01*
X165267272Y-74510000D01*
X165264200Y-73945750D01*
X165105450Y-73787000D01*
X163906200Y-73787000D01*
X163652200Y-73787000D01*
X162452950Y-73787000D01*
X162294200Y-73945750D01*
X162291128Y-74510000D01*
X120155255Y-74510000D01*
X120106070Y-74391258D01*
X120022678Y-74266453D01*
X119916541Y-74160316D01*
X119791736Y-74076924D01*
X119653061Y-74019483D01*
X119505844Y-73990200D01*
X119355744Y-73990200D01*
X119208527Y-74019483D01*
X119069852Y-74076924D01*
X118945047Y-74160316D01*
X118838910Y-74266453D01*
X118755518Y-74391258D01*
X118698077Y-74529933D01*
X118668794Y-74677150D01*
X94462598Y-74677150D01*
X94462598Y-73867894D01*
X94494598Y-73884998D01*
X94566071Y-73906679D01*
X94640400Y-73914000D01*
X95243987Y-73914000D01*
X95262700Y-73915843D01*
X97269300Y-73915843D01*
X97343989Y-73908487D01*
X97346882Y-73907610D01*
X97356329Y-73906679D01*
X97427802Y-73884998D01*
X97493672Y-73849790D01*
X97551408Y-73802408D01*
X97598790Y-73744672D01*
X97633998Y-73678802D01*
X97655679Y-73607329D01*
X97663000Y-73533000D01*
X97663000Y-70129400D01*
X97658335Y-70069964D01*
X97639509Y-69997686D01*
X97606943Y-69930471D01*
X97561890Y-69870900D01*
X97506081Y-69821263D01*
X97441661Y-69783467D01*
X97180309Y-69662843D01*
X97446050Y-69662843D01*
X97569424Y-69650692D01*
X97688056Y-69614705D01*
X97797389Y-69556266D01*
X97893219Y-69477619D01*
X97971866Y-69381789D01*
X98030305Y-69272456D01*
X98066292Y-69153824D01*
X98078443Y-69030450D01*
X98078443Y-68129550D01*
X98070274Y-68046600D01*
X98196400Y-68046600D01*
X98196400Y-73583800D01*
X98203721Y-73658129D01*
X98225402Y-73729602D01*
X98260610Y-73795472D01*
X98307992Y-73853208D01*
X98365728Y-73900590D01*
X98431598Y-73935798D01*
X98503071Y-73957479D01*
X98577400Y-73964800D01*
X100736400Y-73964800D01*
X100810729Y-73957479D01*
X100882202Y-73935798D01*
X100948072Y-73900590D01*
X101005808Y-73853208D01*
X101053190Y-73795472D01*
X101088398Y-73729602D01*
X101110079Y-73658129D01*
X101117400Y-73583800D01*
X101117400Y-73007004D01*
X106006900Y-73007004D01*
X106006900Y-73144596D01*
X106033743Y-73279545D01*
X106086397Y-73406664D01*
X106162839Y-73521068D01*
X106260132Y-73618361D01*
X106374536Y-73694803D01*
X106501655Y-73747457D01*
X106636604Y-73774300D01*
X106774196Y-73774300D01*
X106909145Y-73747457D01*
X107036264Y-73694803D01*
X107150668Y-73618361D01*
X107247961Y-73521068D01*
X107324403Y-73406664D01*
X107377057Y-73279545D01*
X107393738Y-73195684D01*
X108029457Y-72559966D01*
X108051267Y-72542067D01*
X108122684Y-72455045D01*
X108175752Y-72355762D01*
X108208431Y-72248034D01*
X108215624Y-72175000D01*
X108219465Y-72136000D01*
X108216700Y-72107926D01*
X108216700Y-71533804D01*
X140017500Y-71533804D01*
X140017500Y-71671396D01*
X140044343Y-71806345D01*
X140096997Y-71933464D01*
X140173439Y-72047868D01*
X140270732Y-72145161D01*
X140385136Y-72221603D01*
X140512255Y-72274257D01*
X140647204Y-72301100D01*
X140732001Y-72301100D01*
X141326338Y-72895437D01*
X141325600Y-72899150D01*
X141325600Y-73049250D01*
X141354883Y-73196467D01*
X141412324Y-73335142D01*
X141495716Y-73459947D01*
X141601853Y-73566084D01*
X141726658Y-73649476D01*
X141865333Y-73706917D01*
X142012550Y-73736200D01*
X142162650Y-73736200D01*
X142309867Y-73706917D01*
X142448542Y-73649476D01*
X142573347Y-73566084D01*
X142679484Y-73459947D01*
X142762876Y-73335142D01*
X142820317Y-73196467D01*
X142849600Y-73049250D01*
X142849600Y-72899150D01*
X142831868Y-72810000D01*
X162291128Y-72810000D01*
X162294200Y-73374250D01*
X162452950Y-73533000D01*
X163652200Y-73533000D01*
X163652200Y-72333750D01*
X163906200Y-72333750D01*
X163906200Y-73533000D01*
X165105450Y-73533000D01*
X165264200Y-73374250D01*
X165267272Y-72810000D01*
X165255012Y-72685518D01*
X165218702Y-72565820D01*
X165159737Y-72455506D01*
X165080385Y-72358815D01*
X164983694Y-72279463D01*
X164873380Y-72220498D01*
X164753682Y-72184188D01*
X164629200Y-72171928D01*
X164064950Y-72175000D01*
X163906200Y-72333750D01*
X163652200Y-72333750D01*
X163493450Y-72175000D01*
X162929200Y-72171928D01*
X162804718Y-72184188D01*
X162685020Y-72220498D01*
X162574706Y-72279463D01*
X162478015Y-72358815D01*
X162398663Y-72455506D01*
X162339698Y-72565820D01*
X162303388Y-72685518D01*
X162291128Y-72810000D01*
X142831868Y-72810000D01*
X142820317Y-72751933D01*
X142762876Y-72613258D01*
X142679484Y-72488453D01*
X142573347Y-72382316D01*
X142448542Y-72298924D01*
X142309867Y-72241483D01*
X142162650Y-72212200D01*
X142012550Y-72212200D01*
X142008837Y-72212938D01*
X141414500Y-71618601D01*
X141414500Y-71533804D01*
X141387657Y-71398855D01*
X141335003Y-71271736D01*
X141258561Y-71157332D01*
X141161268Y-71060039D01*
X141046864Y-70983597D01*
X140919745Y-70930943D01*
X140784796Y-70904100D01*
X140647204Y-70904100D01*
X140512255Y-70930943D01*
X140385136Y-70983597D01*
X140270732Y-71060039D01*
X140173439Y-71157332D01*
X140096997Y-71271736D01*
X140044343Y-71398855D01*
X140017500Y-71533804D01*
X108216700Y-71533804D01*
X108216700Y-69390931D01*
X108237084Y-69370547D01*
X108320476Y-69245742D01*
X108377917Y-69107067D01*
X108407200Y-68959850D01*
X108407200Y-68809750D01*
X108377917Y-68662533D01*
X108320476Y-68523858D01*
X108237084Y-68399053D01*
X108130947Y-68292916D01*
X108006142Y-68209524D01*
X107867467Y-68152083D01*
X107720250Y-68122800D01*
X107570150Y-68122800D01*
X107422933Y-68152083D01*
X107284258Y-68209524D01*
X107159453Y-68292916D01*
X107053316Y-68399053D01*
X106969924Y-68523858D01*
X106912483Y-68662533D01*
X106883200Y-68809750D01*
X106883200Y-68959850D01*
X106912483Y-69107067D01*
X106969924Y-69245742D01*
X107053316Y-69370547D01*
X107073700Y-69390931D01*
X107073701Y-71899276D01*
X106585516Y-72387462D01*
X106501655Y-72404143D01*
X106374536Y-72456797D01*
X106260132Y-72533239D01*
X106162839Y-72630532D01*
X106086397Y-72744936D01*
X106033743Y-72872055D01*
X106006900Y-73007004D01*
X101117400Y-73007004D01*
X101117400Y-68571452D01*
X101587194Y-68300417D01*
X101666208Y-68239808D01*
X101713590Y-68182072D01*
X101748798Y-68116202D01*
X101770479Y-68044729D01*
X101777800Y-67970400D01*
X101777800Y-67895350D01*
X111683800Y-67895350D01*
X111683800Y-68045450D01*
X111713083Y-68192667D01*
X111770524Y-68331342D01*
X111853916Y-68456147D01*
X111960053Y-68562284D01*
X112084858Y-68645676D01*
X112223533Y-68703117D01*
X112370750Y-68732400D01*
X112520850Y-68732400D01*
X112668067Y-68703117D01*
X112806742Y-68645676D01*
X112931547Y-68562284D01*
X112951931Y-68541900D01*
X114047869Y-68541900D01*
X114068253Y-68562284D01*
X114193058Y-68645676D01*
X114331733Y-68703117D01*
X114478950Y-68732400D01*
X114629050Y-68732400D01*
X114776267Y-68703117D01*
X114914942Y-68645676D01*
X115039747Y-68562284D01*
X115145884Y-68456147D01*
X115229276Y-68331342D01*
X115286717Y-68192667D01*
X115316000Y-68045450D01*
X115316000Y-67895350D01*
X115286717Y-67748133D01*
X115229276Y-67609458D01*
X115145884Y-67484653D01*
X115039747Y-67378516D01*
X114914942Y-67295124D01*
X114776267Y-67237683D01*
X114629050Y-67208400D01*
X114478950Y-67208400D01*
X114331733Y-67237683D01*
X114193058Y-67295124D01*
X114068253Y-67378516D01*
X114047869Y-67398900D01*
X112951931Y-67398900D01*
X112931547Y-67378516D01*
X112806742Y-67295124D01*
X112668067Y-67237683D01*
X112520850Y-67208400D01*
X112370750Y-67208400D01*
X112223533Y-67237683D01*
X112084858Y-67295124D01*
X111960053Y-67378516D01*
X111853916Y-67484653D01*
X111770524Y-67609458D01*
X111713083Y-67748133D01*
X111683800Y-67895350D01*
X101777800Y-67895350D01*
X101777800Y-64745864D01*
X101770479Y-64671535D01*
X101748798Y-64600062D01*
X101713590Y-64534192D01*
X101666208Y-64476456D01*
X101608472Y-64429074D01*
X101542602Y-64393866D01*
X101471129Y-64372185D01*
X101396800Y-64364864D01*
X99796600Y-64364864D01*
X99722271Y-64372185D01*
X99650798Y-64393866D01*
X99584928Y-64429074D01*
X99527192Y-64476456D01*
X99479810Y-64534192D01*
X99444602Y-64600062D01*
X99422921Y-64671535D01*
X99415600Y-64745864D01*
X99415600Y-66953695D01*
X98518459Y-67551789D01*
X98440523Y-67620848D01*
X98288123Y-67798648D01*
X98260610Y-67834928D01*
X98225402Y-67900798D01*
X98203721Y-67972271D01*
X98196400Y-68046600D01*
X98070274Y-68046600D01*
X98066292Y-68006176D01*
X98030305Y-67887544D01*
X97971866Y-67778211D01*
X97893219Y-67682381D01*
X97797389Y-67603734D01*
X97740944Y-67573564D01*
X97751898Y-67518496D01*
X97751898Y-67380904D01*
X97725055Y-67245955D01*
X97672401Y-67118836D01*
X97595959Y-67004432D01*
X97498666Y-66907139D01*
X97384262Y-66830697D01*
X97257143Y-66778043D01*
X97122194Y-66751200D01*
X96984602Y-66751200D01*
X96849653Y-66778043D01*
X96722534Y-66830697D01*
X96608130Y-66907139D01*
X96510837Y-67004432D01*
X96434395Y-67118836D01*
X96381741Y-67245955D01*
X96354898Y-67380904D01*
X96354898Y-67518496D01*
X96381741Y-67653445D01*
X96382121Y-67654363D01*
X96347981Y-67682381D01*
X96342200Y-67689425D01*
X96342200Y-64389000D01*
X96334879Y-64314671D01*
X96313198Y-64243198D01*
X96277990Y-64177328D01*
X96230608Y-64119592D01*
X96172872Y-64072210D01*
X96107002Y-64037002D01*
X96035529Y-64015321D01*
X95961200Y-64008000D01*
X94640400Y-64008000D01*
X94566071Y-64015321D01*
X94501397Y-64034940D01*
X94484703Y-63994636D01*
X94408261Y-63880232D01*
X94310968Y-63782939D01*
X94196564Y-63706497D01*
X94069445Y-63653843D01*
X93934496Y-63627000D01*
X93796904Y-63627000D01*
X93661955Y-63653843D01*
X93534836Y-63706497D01*
X93420432Y-63782939D01*
X93323139Y-63880232D01*
X93246697Y-63994636D01*
X93194043Y-64121755D01*
X93167200Y-64256704D01*
X93167200Y-64394296D01*
X93194043Y-64529245D01*
X93246697Y-64656364D01*
X93323139Y-64770768D01*
X93357701Y-64805330D01*
X93357700Y-65737971D01*
X93323139Y-65772532D01*
X93246697Y-65886936D01*
X93194043Y-66014055D01*
X93167200Y-66149004D01*
X93167200Y-66286596D01*
X93194043Y-66421545D01*
X93246697Y-66548664D01*
X93323139Y-66663068D01*
X93385871Y-66725800D01*
X93335839Y-66775832D01*
X93259397Y-66890236D01*
X93206743Y-67017355D01*
X93179900Y-67152304D01*
X93179900Y-67289896D01*
X93206743Y-67424845D01*
X93259397Y-67551964D01*
X93319599Y-67642063D01*
X93319598Y-74830269D01*
X93299214Y-74850653D01*
X93215822Y-74975458D01*
X93158381Y-75114133D01*
X93129098Y-75261350D01*
X81589903Y-75261350D01*
X85172453Y-71678800D01*
X86898304Y-71678800D01*
X87140853Y-71654911D01*
X87452067Y-71560505D01*
X87738884Y-71407198D01*
X87990282Y-71200882D01*
X88196598Y-70949484D01*
X88349905Y-70662667D01*
X88444311Y-70351453D01*
X88476188Y-70027800D01*
X88444311Y-69704147D01*
X88349905Y-69392933D01*
X88196598Y-69106116D01*
X87990282Y-68854718D01*
X87738884Y-68648402D01*
X87452067Y-68495095D01*
X87140853Y-68400689D01*
X86898304Y-68376800D01*
X84856496Y-68376800D01*
X84613947Y-68400689D01*
X84302733Y-68495095D01*
X84015916Y-68648402D01*
X83764518Y-68854718D01*
X83558202Y-69106116D01*
X83404895Y-69392933D01*
X83310489Y-69704147D01*
X83303397Y-69776150D01*
X79323654Y-73755893D01*
X79326812Y-73745482D01*
X79339072Y-73621000D01*
X79336000Y-73056750D01*
X79177250Y-72898000D01*
X77978000Y-72898000D01*
X77978000Y-74097250D01*
X78136750Y-74256000D01*
X78701000Y-74259072D01*
X78825482Y-74246812D01*
X78835893Y-74243654D01*
X76649592Y-76429955D01*
X76598712Y-76471711D01*
X76556956Y-76522591D01*
X76556952Y-76522595D01*
X76432071Y-76674763D01*
X76347013Y-76833897D01*
X76308247Y-76906423D01*
X76231996Y-77157788D01*
X76228916Y-77189056D01*
X76206249Y-77419200D01*
X76212701Y-77484707D01*
X76212700Y-80075507D01*
X76212701Y-80075517D01*
X76212700Y-85155507D01*
X76231995Y-85351411D01*
X76308246Y-85602776D01*
X76432071Y-85834436D01*
X76598711Y-86037489D01*
X76801763Y-86204129D01*
X76938806Y-86277380D01*
X76914948Y-86285843D01*
X76664845Y-86434822D01*
X76448612Y-86629731D01*
X76274559Y-86863080D01*
X76149375Y-87125901D01*
X76104724Y-87273110D01*
X74141000Y-87273110D01*
X74141000Y-73621000D01*
X76362928Y-73621000D01*
X76375188Y-73745482D01*
X76411498Y-73865180D01*
X76470463Y-73975494D01*
X76549815Y-74072185D01*
X76646506Y-74151537D01*
X76756820Y-74210502D01*
X76876518Y-74246812D01*
X77001000Y-74259072D01*
X77565250Y-74256000D01*
X77724000Y-74097250D01*
X77724000Y-72898000D01*
X76524750Y-72898000D01*
X76366000Y-73056750D01*
X76362928Y-73621000D01*
X74141000Y-73621000D01*
X74141000Y-71921000D01*
X76362928Y-71921000D01*
X76366000Y-72485250D01*
X76524750Y-72644000D01*
X77724000Y-72644000D01*
X77724000Y-70358000D01*
X77978000Y-70358000D01*
X77978000Y-72644000D01*
X79177250Y-72644000D01*
X79336000Y-72485250D01*
X79339072Y-71921000D01*
X79326812Y-71796518D01*
X79290502Y-71676820D01*
X79231537Y-71566506D01*
X79152185Y-71469815D01*
X79055494Y-71390463D01*
X78945180Y-71331498D01*
X78864534Y-71307034D01*
X78948588Y-71231269D01*
X79122641Y-70997920D01*
X79247825Y-70735099D01*
X79292476Y-70587890D01*
X79171155Y-70358000D01*
X77978000Y-70358000D01*
X77724000Y-70358000D01*
X76530845Y-70358000D01*
X76409524Y-70587890D01*
X76454175Y-70735099D01*
X76579359Y-70997920D01*
X76753412Y-71231269D01*
X76837466Y-71307034D01*
X76756820Y-71331498D01*
X76646506Y-71390463D01*
X76549815Y-71469815D01*
X76470463Y-71566506D01*
X76411498Y-71676820D01*
X76375188Y-71796518D01*
X76362928Y-71921000D01*
X74141000Y-71921000D01*
X74141000Y-69874110D01*
X76409524Y-69874110D01*
X76530845Y-70104000D01*
X77724000Y-70104000D01*
X77724000Y-68910186D01*
X77978000Y-68910186D01*
X77978000Y-70104000D01*
X79171155Y-70104000D01*
X79292476Y-69874110D01*
X79247825Y-69726901D01*
X79122641Y-69464080D01*
X78948588Y-69230731D01*
X78732355Y-69035822D01*
X78482252Y-68886843D01*
X78207891Y-68789519D01*
X77978000Y-68910186D01*
X77724000Y-68910186D01*
X77494109Y-68789519D01*
X77219748Y-68886843D01*
X76969645Y-69035822D01*
X76753412Y-69230731D01*
X76579359Y-69464080D01*
X76454175Y-69726901D01*
X76409524Y-69874110D01*
X74141000Y-69874110D01*
X74141000Y-58038494D01*
X74866500Y-58038494D01*
X74866500Y-58801506D01*
X75015357Y-59549858D01*
X75307349Y-60254790D01*
X75731256Y-60889212D01*
X76270788Y-61428744D01*
X76905210Y-61852651D01*
X77610142Y-62144643D01*
X78358494Y-62293500D01*
X79121506Y-62293500D01*
X79869858Y-62144643D01*
X80574790Y-61852651D01*
X81209212Y-61428744D01*
X81748744Y-60889212D01*
X82040111Y-60453150D01*
X98475800Y-60453150D01*
X98475800Y-60603250D01*
X98505083Y-60750467D01*
X98562524Y-60889142D01*
X98645916Y-61013947D01*
X98752053Y-61120084D01*
X98876858Y-61203476D01*
X99015533Y-61260917D01*
X99162750Y-61290200D01*
X99312850Y-61290200D01*
X99460067Y-61260917D01*
X99598742Y-61203476D01*
X99723547Y-61120084D01*
X99829684Y-61013947D01*
X99913076Y-60889142D01*
X99970517Y-60750467D01*
X99999800Y-60603250D01*
X99999800Y-60453150D01*
X99970517Y-60305933D01*
X99913076Y-60167258D01*
X99829684Y-60042453D01*
X99723547Y-59936316D01*
X99598742Y-59852924D01*
X99460067Y-59795483D01*
X99312850Y-59766200D01*
X99162750Y-59766200D01*
X99015533Y-59795483D01*
X98876858Y-59852924D01*
X98752053Y-59936316D01*
X98645916Y-60042453D01*
X98562524Y-60167258D01*
X98505083Y-60305933D01*
X98475800Y-60453150D01*
X82040111Y-60453150D01*
X82172651Y-60254790D01*
X82464643Y-59549858D01*
X82613500Y-58801506D01*
X82613500Y-58038494D01*
X82464643Y-57290142D01*
X82172651Y-56585210D01*
X81748744Y-55950788D01*
X81209212Y-55411256D01*
X80574790Y-54987349D01*
X79869858Y-54695357D01*
X79121506Y-54546500D01*
X78358494Y-54546500D01*
X77610142Y-54695357D01*
X76905210Y-54987349D01*
X76270788Y-55411256D01*
X75731256Y-55950788D01*
X75307349Y-56585210D01*
X75015357Y-57290142D01*
X74866500Y-58038494D01*
X74141000Y-58038494D01*
X74141000Y-53821000D01*
X115360200Y-53821000D01*
X115276355Y-53865816D01*
G37*
X115276355Y-53865816D02*
X115189333Y-53937233D01*
X115171434Y-53959043D01*
X114195144Y-54935334D01*
X114173334Y-54953233D01*
X114145336Y-54987349D01*
X114101916Y-55040256D01*
X114048848Y-55139539D01*
X114016169Y-55247267D01*
X114005135Y-55359300D01*
X114007901Y-55387384D01*
X114007900Y-58170577D01*
X111185234Y-60993244D01*
X111163424Y-61011143D01*
X111122924Y-61060493D01*
X111092006Y-61098166D01*
X111038938Y-61197449D01*
X111006259Y-61305177D01*
X110995225Y-61417210D01*
X110997991Y-61445294D01*
X110997990Y-62729740D01*
X110950487Y-62800834D01*
X110897833Y-62927953D01*
X110870990Y-63062902D01*
X110870990Y-63200494D01*
X110897833Y-63335443D01*
X110950487Y-63462562D01*
X111026929Y-63576966D01*
X111124222Y-63674259D01*
X111238626Y-63750701D01*
X111365745Y-63803355D01*
X111500694Y-63830198D01*
X111638286Y-63830198D01*
X111773235Y-63803355D01*
X111900354Y-63750701D01*
X112014758Y-63674259D01*
X112109244Y-63579773D01*
X112203732Y-63674261D01*
X112318136Y-63750703D01*
X112445255Y-63803357D01*
X112580204Y-63830200D01*
X112717796Y-63830200D01*
X112852745Y-63803357D01*
X112979864Y-63750703D01*
X113094268Y-63674261D01*
X113191561Y-63576968D01*
X113268003Y-63462564D01*
X113320657Y-63335445D01*
X113337338Y-63251584D01*
X116462258Y-60126665D01*
X116484067Y-60108767D01*
X116555484Y-60021745D01*
X116608552Y-59922462D01*
X116641231Y-59814734D01*
X116649500Y-59730774D01*
X116649500Y-59730773D01*
X116652265Y-59702701D01*
X116649500Y-59674629D01*
X116649500Y-56916958D01*
X116697003Y-56845864D01*
X116749657Y-56718745D01*
X116776500Y-56583796D01*
X116776500Y-56446204D01*
X116749657Y-56311255D01*
X116697003Y-56184136D01*
X116620561Y-56069732D01*
X116523268Y-55972439D01*
X116408864Y-55895997D01*
X116281745Y-55843343D01*
X116146796Y-55816500D01*
X116009204Y-55816500D01*
X115874255Y-55843343D01*
X115747136Y-55895997D01*
X115632732Y-55972439D01*
X115535439Y-56069732D01*
X115458997Y-56184136D01*
X115406343Y-56311255D01*
X115379500Y-56446204D01*
X115379500Y-56583796D01*
X115406343Y-56718745D01*
X115458997Y-56845864D01*
X115506501Y-56916959D01*
X115506500Y-59465977D01*
X112529116Y-62443362D01*
X112445255Y-62460043D01*
X112318136Y-62512697D01*
X112203732Y-62589139D01*
X112140990Y-62651881D01*
X112140990Y-61653932D01*
X114963658Y-58831265D01*
X114985467Y-58813367D01*
X115056884Y-58726345D01*
X115109952Y-58627062D01*
X115142631Y-58519334D01*
X115150900Y-58435374D01*
X115150900Y-58435373D01*
X115153665Y-58407300D01*
X115150900Y-58379226D01*
X115150900Y-55596022D01*
X115832123Y-54914800D01*
X136123178Y-54914800D01*
X135404144Y-55633834D01*
X135382334Y-55651733D01*
X135360495Y-55678344D01*
X135310916Y-55738756D01*
X135257848Y-55838039D01*
X135225169Y-55945767D01*
X135214135Y-56057800D01*
X135216901Y-56085884D01*
X135216900Y-61998726D01*
X135214135Y-62026800D01*
X135216900Y-62054873D01*
X135225169Y-62138833D01*
X135257848Y-62246561D01*
X135310916Y-62345844D01*
X135382333Y-62432867D01*
X135404148Y-62450770D01*
X138897362Y-65943985D01*
X138914043Y-66027845D01*
X138966697Y-66154964D01*
X139043139Y-66269368D01*
X139140432Y-66366661D01*
X139254836Y-66443103D01*
X139381955Y-66495757D01*
X139516904Y-66522600D01*
X139654496Y-66522600D01*
X139789445Y-66495757D01*
X139916564Y-66443103D01*
X140030968Y-66366661D01*
X140128261Y-66269368D01*
X140204703Y-66154964D01*
X140229680Y-66094663D01*
X140249397Y-66142264D01*
X140325839Y-66256668D01*
X140423132Y-66353961D01*
X140537536Y-66430403D01*
X140664655Y-66483057D01*
X140799604Y-66509900D01*
X140937196Y-66509900D01*
X141072145Y-66483057D01*
X141199264Y-66430403D01*
X141313668Y-66353961D01*
X141410961Y-66256668D01*
X141487403Y-66142264D01*
X141540057Y-66015145D01*
X141566900Y-65880196D01*
X141566900Y-65742604D01*
X141540057Y-65607655D01*
X141487403Y-65480536D01*
X141410961Y-65366132D01*
X141313668Y-65268839D01*
X141199264Y-65192397D01*
X141072145Y-65139743D01*
X140988285Y-65123062D01*
X138909173Y-63043950D01*
X139921005Y-63043950D01*
X139921005Y-63194050D01*
X139950288Y-63341267D01*
X140007729Y-63479942D01*
X140091121Y-63604747D01*
X140197258Y-63710884D01*
X140322063Y-63794276D01*
X140460738Y-63851717D01*
X140607955Y-63881000D01*
X140758055Y-63881000D01*
X140905272Y-63851717D01*
X141043947Y-63794276D01*
X141168752Y-63710884D01*
X141274889Y-63604747D01*
X141358281Y-63479942D01*
X141415722Y-63341267D01*
X141445005Y-63194050D01*
X141445005Y-63043950D01*
X141415722Y-62896733D01*
X141358281Y-62758058D01*
X141318005Y-62697781D01*
X141318005Y-61372948D01*
X141430347Y-61297884D01*
X141536484Y-61191747D01*
X141619876Y-61066942D01*
X141677317Y-60928267D01*
X141706600Y-60781050D01*
X141706600Y-60630950D01*
X141677317Y-60483733D01*
X141619876Y-60345058D01*
X141536484Y-60220253D01*
X141430347Y-60114116D01*
X141305542Y-60030724D01*
X141166867Y-59973283D01*
X141019650Y-59944000D01*
X140869550Y-59944000D01*
X140722333Y-59973283D01*
X140583658Y-60030724D01*
X140458853Y-60114116D01*
X140352716Y-60220253D01*
X140269324Y-60345058D01*
X140211883Y-60483733D01*
X140196925Y-60558931D01*
X140152468Y-60613102D01*
X140093503Y-60723416D01*
X140057194Y-60843114D01*
X140044934Y-60967595D01*
X140048006Y-60998786D01*
X140048005Y-62697780D01*
X140007729Y-62758058D01*
X139950288Y-62896733D01*
X139921005Y-63043950D01*
X138909173Y-63043950D01*
X137185403Y-61320181D01*
X137185403Y-56916958D01*
X137232906Y-56845864D01*
X137270000Y-56756310D01*
X151147288Y-56756310D01*
X165773101Y-71382124D01*
X165773100Y-99102677D01*
X165052645Y-99823132D01*
X165176025Y-99564099D01*
X165220676Y-99416890D01*
X165099355Y-99187000D01*
X163906200Y-99187000D01*
X163906200Y-100380814D01*
X164136091Y-100501481D01*
X164410452Y-100404157D01*
X164561735Y-100314042D01*
X155579578Y-109296200D01*
X149007674Y-109296200D01*
X148979600Y-109293435D01*
X148951526Y-109296200D01*
X148867566Y-109304469D01*
X148759838Y-109337148D01*
X148660555Y-109390216D01*
X148573533Y-109461633D01*
X148555634Y-109483443D01*
X145379344Y-112659734D01*
X145357534Y-112677633D01*
X145299941Y-112747810D01*
X145286116Y-112764656D01*
X145233048Y-112863939D01*
X145200369Y-112971667D01*
X145193043Y-113046054D01*
X145076385Y-113108409D01*
X144888941Y-113262240D01*
X144735109Y-113449684D01*
X144650065Y-113608790D01*
X144528653Y-113359330D01*
X144352649Y-113127471D01*
X144134793Y-112934404D01*
X143883458Y-112787548D01*
X143620490Y-112695424D01*
X143390600Y-112816745D01*
X143390600Y-114134900D01*
X143410600Y-114134900D01*
X143410600Y-114388900D01*
X143390600Y-114388900D01*
X143390600Y-115707055D01*
X143620490Y-115828376D01*
X143883458Y-115736252D01*
X144134793Y-115589396D01*
X144352649Y-115396329D01*
X144528653Y-115164470D01*
X144650065Y-114915010D01*
X144735109Y-115074115D01*
X144888940Y-115261560D01*
X145076384Y-115415391D01*
X145290237Y-115529698D01*
X145522282Y-115600088D01*
X145763600Y-115623856D01*
X146004917Y-115600088D01*
X146236962Y-115529698D01*
X146450815Y-115415391D01*
X146638260Y-115261560D01*
X146792091Y-115074116D01*
X146906398Y-114860263D01*
X146976788Y-114628218D01*
X146994600Y-114447372D01*
X146994600Y-114076429D01*
X146976788Y-113895583D01*
X146906398Y-113663538D01*
X146792091Y-113449685D01*
X146638260Y-113262240D01*
X146503707Y-113151815D01*
X149216323Y-110439200D01*
X150099877Y-110439200D01*
X147879348Y-112659730D01*
X147857533Y-112677633D01*
X147786117Y-112764655D01*
X147786116Y-112764656D01*
X147733048Y-112863939D01*
X147700369Y-112971667D01*
X147693043Y-113046054D01*
X147576385Y-113108409D01*
X147388941Y-113262240D01*
X147235109Y-113449684D01*
X147120802Y-113663537D01*
X147050412Y-113895582D01*
X147032600Y-114076428D01*
X147032600Y-114447371D01*
X147050412Y-114628217D01*
X147120802Y-114860262D01*
X147235109Y-115074115D01*
X147388940Y-115261560D01*
X147576384Y-115415391D01*
X147790237Y-115529698D01*
X148022282Y-115600088D01*
X148263600Y-115623856D01*
X148504917Y-115600088D01*
X148736962Y-115529698D01*
X148950815Y-115415391D01*
X149138260Y-115261560D01*
X149292091Y-115074116D01*
X149406398Y-114860263D01*
X149476788Y-114628218D01*
X149494600Y-114447372D01*
X149494600Y-114076429D01*
X149494600Y-114076428D01*
X149532600Y-114076428D01*
X149532600Y-114447371D01*
X149550412Y-114628217D01*
X149620802Y-114860262D01*
X149735109Y-115074115D01*
X149888940Y-115261560D01*
X150076384Y-115415391D01*
X150290237Y-115529698D01*
X150522282Y-115600088D01*
X150763600Y-115623856D01*
X151004917Y-115600088D01*
X151236962Y-115529698D01*
X151450815Y-115415391D01*
X151638260Y-115261560D01*
X151792091Y-115074116D01*
X151906398Y-114860263D01*
X151976788Y-114628218D01*
X151994600Y-114447372D01*
X151994600Y-114076429D01*
X151976788Y-113895583D01*
X151906398Y-113663538D01*
X151838709Y-113536900D01*
X152030757Y-113536900D01*
X152030757Y-114986900D01*
X152042917Y-115110362D01*
X152078929Y-115229079D01*
X152137410Y-115338489D01*
X152216112Y-115434388D01*
X152312011Y-115513090D01*
X152421421Y-115571571D01*
X152540138Y-115607583D01*
X152663600Y-115619743D01*
X153863600Y-115619743D01*
X153987062Y-115607583D01*
X154105779Y-115571571D01*
X154215189Y-115513090D01*
X154311088Y-115434388D01*
X154389790Y-115338489D01*
X154448271Y-115229079D01*
X154484283Y-115110362D01*
X154496443Y-114986900D01*
X154496443Y-113918494D01*
X158686500Y-113918494D01*
X158686500Y-114681506D01*
X158835357Y-115429858D01*
X159127349Y-116134790D01*
X159551256Y-116769212D01*
X160090788Y-117308744D01*
X160725210Y-117732651D01*
X161430142Y-118024643D01*
X162178494Y-118173500D01*
X162941506Y-118173500D01*
X163689858Y-118024643D01*
X164394790Y-117732651D01*
X165029212Y-117308744D01*
X165568744Y-116769212D01*
X165992651Y-116134790D01*
X166284643Y-115429858D01*
X166433500Y-114681506D01*
X166433500Y-113918494D01*
X166284643Y-113170142D01*
X165992651Y-112465210D01*
X165568744Y-111830788D01*
X165029212Y-111291256D01*
X164394790Y-110867349D01*
X163689858Y-110575357D01*
X162941506Y-110426500D01*
X162178494Y-110426500D01*
X161430142Y-110575357D01*
X160725210Y-110867349D01*
X160090788Y-111291256D01*
X159551256Y-111830788D01*
X159127349Y-112465210D01*
X158835357Y-113170142D01*
X158686500Y-113918494D01*
X154496443Y-113918494D01*
X154496443Y-113536900D01*
X154484283Y-113413438D01*
X154448271Y-113294721D01*
X154389790Y-113185311D01*
X154311088Y-113089412D01*
X154215189Y-113010710D01*
X154105779Y-112952229D01*
X153987062Y-112916217D01*
X153863600Y-112904057D01*
X152663600Y-112904057D01*
X152540138Y-112916217D01*
X152421421Y-112952229D01*
X152312011Y-113010710D01*
X152216112Y-113089412D01*
X152137410Y-113185311D01*
X152078929Y-113294721D01*
X152042917Y-113413438D01*
X152030757Y-113536900D01*
X151838709Y-113536900D01*
X151792091Y-113449685D01*
X151638260Y-113262240D01*
X151450816Y-113108409D01*
X151236963Y-112994102D01*
X151004918Y-112923712D01*
X150763600Y-112899944D01*
X150522283Y-112923712D01*
X150290238Y-112994102D01*
X150076385Y-113108409D01*
X149888941Y-113262240D01*
X149735109Y-113449684D01*
X149620802Y-113663537D01*
X149550412Y-113895582D01*
X149532600Y-114076428D01*
X149494600Y-114076428D01*
X149476788Y-113895583D01*
X149406398Y-113663538D01*
X149292091Y-113449685D01*
X149138260Y-113262240D01*
X149003707Y-113151815D01*
X150890823Y-111264700D01*
X155978726Y-111264700D01*
X156006800Y-111267465D01*
X156034874Y-111264700D01*
X156118834Y-111256431D01*
X156226562Y-111223752D01*
X156325845Y-111170684D01*
X156412867Y-111099267D01*
X156430770Y-111077452D01*
X167159000Y-100349223D01*
X167159000Y-118899000D01*
X74141000Y-118899000D01*
X74141000Y-113918494D01*
X74866500Y-113918494D01*
X74866500Y-114681506D01*
X75015357Y-115429858D01*
X75307349Y-116134790D01*
X75731256Y-116769212D01*
X76270788Y-117308744D01*
X76905210Y-117732651D01*
X77610142Y-118024643D01*
X78358494Y-118173500D01*
X79121506Y-118173500D01*
X79869858Y-118024643D01*
X80574790Y-117732651D01*
X81209212Y-117308744D01*
X81748744Y-116769212D01*
X82172651Y-116134790D01*
X82464643Y-115429858D01*
X82613500Y-114681506D01*
X82613500Y-114593000D01*
X91146957Y-114593000D01*
X91146957Y-116293000D01*
X91154313Y-116367689D01*
X91176099Y-116439508D01*
X91211478Y-116505696D01*
X91259089Y-116563711D01*
X91317104Y-116611322D01*
X91383292Y-116646701D01*
X91455111Y-116668487D01*
X91529800Y-116675843D01*
X93229800Y-116675843D01*
X93304489Y-116668487D01*
X93376308Y-116646701D01*
X93442496Y-116611322D01*
X93500511Y-116563711D01*
X93548122Y-116505696D01*
X93583501Y-116439508D01*
X93605287Y-116367689D01*
X93612643Y-116293000D01*
X93612643Y-115321757D01*
X93688800Y-115321757D01*
X93688800Y-115564243D01*
X93736107Y-115802069D01*
X93828902Y-116026097D01*
X93963620Y-116227717D01*
X94135083Y-116399180D01*
X94336703Y-116533898D01*
X94560731Y-116626693D01*
X94798557Y-116674000D01*
X95041043Y-116674000D01*
X95278869Y-116626693D01*
X95502897Y-116533898D01*
X95704517Y-116399180D01*
X95875980Y-116227717D01*
X96010698Y-116026097D01*
X96103493Y-115802069D01*
X96150800Y-115564243D01*
X96150800Y-115321757D01*
X96103493Y-115083931D01*
X96010698Y-114859903D01*
X95875980Y-114658283D01*
X95838864Y-114621167D01*
X141797280Y-114621167D01*
X141871158Y-114902730D01*
X141998547Y-115164470D01*
X142174551Y-115396329D01*
X142392407Y-115589396D01*
X142643742Y-115736252D01*
X142906710Y-115828376D01*
X143136600Y-115707055D01*
X143136600Y-114388900D01*
X141937435Y-114388900D01*
X141797280Y-114621167D01*
X95838864Y-114621167D01*
X95704517Y-114486820D01*
X95502897Y-114352102D01*
X95278869Y-114259307D01*
X95041043Y-114212000D01*
X94798557Y-114212000D01*
X94560731Y-114259307D01*
X94336703Y-114352102D01*
X94135083Y-114486820D01*
X93963620Y-114658283D01*
X93828902Y-114859903D01*
X93736107Y-115083931D01*
X93688800Y-115321757D01*
X93612643Y-115321757D01*
X93612643Y-114593000D01*
X93605287Y-114518311D01*
X93583501Y-114446492D01*
X93548122Y-114380304D01*
X93500511Y-114322289D01*
X93442496Y-114274678D01*
X93376308Y-114239299D01*
X93304489Y-114217513D01*
X93229800Y-114210157D01*
X91529800Y-114210157D01*
X91455111Y-114217513D01*
X91383292Y-114239299D01*
X91317104Y-114274678D01*
X91259089Y-114322289D01*
X91211478Y-114380304D01*
X91176099Y-114446492D01*
X91154313Y-114518311D01*
X91146957Y-114593000D01*
X82613500Y-114593000D01*
X82613500Y-113918494D01*
X82610346Y-113902633D01*
X141797280Y-113902633D01*
X141937435Y-114134900D01*
X143136600Y-114134900D01*
X143136600Y-112816745D01*
X142906710Y-112695424D01*
X142643742Y-112787548D01*
X142392407Y-112934404D01*
X142174551Y-113127471D01*
X141998547Y-113359330D01*
X141871158Y-113621070D01*
X141797280Y-113902633D01*
X82610346Y-113902633D01*
X82464643Y-113170142D01*
X82172651Y-112465210D01*
X81748744Y-111830788D01*
X81209212Y-111291256D01*
X80574790Y-110867349D01*
X79869858Y-110575357D01*
X79121506Y-110426500D01*
X78358494Y-110426500D01*
X77610142Y-110575357D01*
X76905210Y-110867349D01*
X76270788Y-111291256D01*
X75731256Y-111830788D01*
X75307349Y-112465210D01*
X75015357Y-113170142D01*
X74866500Y-113918494D01*
X74141000Y-113918494D01*
X74141000Y-107760650D01*
X143878300Y-107760650D01*
X143878300Y-107910750D01*
X143907583Y-108057967D01*
X143965024Y-108196642D01*
X144048416Y-108321447D01*
X144154553Y-108427584D01*
X144279358Y-108510976D01*
X144418033Y-108568417D01*
X144565250Y-108597700D01*
X144715350Y-108597700D01*
X144862567Y-108568417D01*
X144945174Y-108534200D01*
X147753669Y-108534200D01*
X147774053Y-108554584D01*
X147898858Y-108637976D01*
X148037533Y-108695417D01*
X148184750Y-108724700D01*
X148334850Y-108724700D01*
X148482067Y-108695417D01*
X148620742Y-108637976D01*
X148745547Y-108554584D01*
X148851684Y-108448447D01*
X148935076Y-108323642D01*
X148992517Y-108184967D01*
X149021800Y-108037750D01*
X149021800Y-107887650D01*
X148992517Y-107740433D01*
X148935076Y-107601758D01*
X148851684Y-107476953D01*
X148745547Y-107370816D01*
X148620742Y-107287424D01*
X148482067Y-107229983D01*
X148334850Y-107200700D01*
X148184750Y-107200700D01*
X148037533Y-107229983D01*
X147898858Y-107287424D01*
X147774053Y-107370816D01*
X147753669Y-107391200D01*
X145259744Y-107391200D01*
X145232184Y-107349953D01*
X145126047Y-107243816D01*
X145001242Y-107160424D01*
X144862567Y-107102983D01*
X144715350Y-107073700D01*
X144565250Y-107073700D01*
X144418033Y-107102983D01*
X144279358Y-107160424D01*
X144154553Y-107243816D01*
X144048416Y-107349953D01*
X143965024Y-107474758D01*
X143907583Y-107613433D01*
X143878300Y-107760650D01*
X74141000Y-107760650D01*
X74141000Y-99416890D01*
X162337724Y-99416890D01*
X162382375Y-99564099D01*
X162507559Y-99826920D01*
X162681612Y-100060269D01*
X162897845Y-100255178D01*
X163147948Y-100404157D01*
X163422309Y-100501481D01*
X163652200Y-100380814D01*
X163652200Y-99187000D01*
X162459045Y-99187000D01*
X162337724Y-99416890D01*
X74141000Y-99416890D01*
X74141000Y-97370000D01*
X162291128Y-97370000D01*
X162303388Y-97494482D01*
X162339698Y-97614180D01*
X162398663Y-97724494D01*
X162478015Y-97821185D01*
X162574706Y-97900537D01*
X162685020Y-97959502D01*
X162765666Y-97983966D01*
X162681612Y-98059731D01*
X162507559Y-98293080D01*
X162382375Y-98555901D01*
X162337724Y-98703110D01*
X162459045Y-98933000D01*
X163652200Y-98933000D01*
X163652200Y-96647000D01*
X163906200Y-96647000D01*
X163906200Y-98933000D01*
X165099355Y-98933000D01*
X165220676Y-98703110D01*
X165176025Y-98555901D01*
X165050841Y-98293080D01*
X164876788Y-98059731D01*
X164792734Y-97983966D01*
X164873380Y-97959502D01*
X164983694Y-97900537D01*
X165080385Y-97821185D01*
X165159737Y-97724494D01*
X165218702Y-97614180D01*
X165255012Y-97494482D01*
X165267272Y-97370000D01*
X165264200Y-96805750D01*
X165105450Y-96647000D01*
X163906200Y-96647000D01*
X163652200Y-96647000D01*
X162452950Y-96647000D01*
X162294200Y-96805750D01*
X162291128Y-97370000D01*
X74141000Y-97370000D01*
X74141000Y-95670000D01*
X162291128Y-95670000D01*
X162294200Y-96234250D01*
X162452950Y-96393000D01*
X163652200Y-96393000D01*
X163652200Y-95193750D01*
X163906200Y-95193750D01*
X163906200Y-96393000D01*
X165105450Y-96393000D01*
X165264200Y-96234250D01*
X165267272Y-95670000D01*
X165255012Y-95545518D01*
X165218702Y-95425820D01*
X165159737Y-95315506D01*
X165080385Y-95218815D01*
X164983694Y-95139463D01*
X164873380Y-95080498D01*
X164753682Y-95044188D01*
X164629200Y-95031928D01*
X164064950Y-95035000D01*
X163906200Y-95193750D01*
X163652200Y-95193750D01*
X163493450Y-95035000D01*
X162929200Y-95031928D01*
X162804718Y-95044188D01*
X162685020Y-95080498D01*
X162574706Y-95139463D01*
X162478015Y-95218815D01*
X162398663Y-95315506D01*
X162339698Y-95425820D01*
X162303388Y-95545518D01*
X162291128Y-95670000D01*
X74141000Y-95670000D01*
X74141000Y-93560000D01*
X76058128Y-93560000D01*
X76070388Y-93684482D01*
X76106698Y-93804180D01*
X76165663Y-93914494D01*
X76245015Y-94011185D01*
X76341706Y-94090537D01*
X76452020Y-94149502D01*
X76571718Y-94185812D01*
X76696200Y-94198072D01*
X77260450Y-94195000D01*
X77419200Y-94036250D01*
X77419200Y-92837000D01*
X77673200Y-92837000D01*
X77673200Y-94036250D01*
X77831950Y-94195000D01*
X78396200Y-94198072D01*
X78520682Y-94185812D01*
X78640380Y-94149502D01*
X78750694Y-94090537D01*
X78847385Y-94011185D01*
X78926737Y-93914494D01*
X78985702Y-93804180D01*
X79022012Y-93684482D01*
X79034272Y-93560000D01*
X79031200Y-92995750D01*
X78872450Y-92837000D01*
X77673200Y-92837000D01*
X77419200Y-92837000D01*
X76219950Y-92837000D01*
X76061200Y-92995750D01*
X76058128Y-93560000D01*
X74141000Y-93560000D01*
X74141000Y-91860000D01*
X76058128Y-91860000D01*
X76061200Y-92424250D01*
X76219950Y-92583000D01*
X77419200Y-92583000D01*
X77419200Y-90297000D01*
X77673200Y-90297000D01*
X77673200Y-92583000D01*
X78872450Y-92583000D01*
X79031200Y-92424250D01*
X79034272Y-91860000D01*
X79022012Y-91735518D01*
X78985702Y-91615820D01*
X78926737Y-91505506D01*
X78847385Y-91408815D01*
X78750694Y-91329463D01*
X78640380Y-91270498D01*
X78559734Y-91246034D01*
X78643788Y-91170269D01*
X78727160Y-91058494D01*
X116776500Y-91058494D01*
X116776500Y-91821506D01*
X116925357Y-92569858D01*
X117217349Y-93274790D01*
X117641256Y-93909212D01*
X118180788Y-94448744D01*
X118815210Y-94872651D01*
X119520142Y-95164643D01*
X120268494Y-95313500D01*
X121031506Y-95313500D01*
X121779858Y-95164643D01*
X122484790Y-94872651D01*
X123119212Y-94448744D01*
X123658744Y-93909212D01*
X124082651Y-93274790D01*
X124374643Y-92569858D01*
X124523500Y-91821506D01*
X124523500Y-91318757D01*
X162548200Y-91318757D01*
X162548200Y-91561243D01*
X162595507Y-91799069D01*
X162688302Y-92023097D01*
X162823020Y-92224717D01*
X162994483Y-92396180D01*
X163196103Y-92530898D01*
X163420131Y-92623693D01*
X163657957Y-92671000D01*
X163900443Y-92671000D01*
X164138269Y-92623693D01*
X164362297Y-92530898D01*
X164563917Y-92396180D01*
X164735380Y-92224717D01*
X164870098Y-92023097D01*
X164962893Y-91799069D01*
X165010200Y-91561243D01*
X165010200Y-91318757D01*
X164962893Y-91080931D01*
X164870098Y-90856903D01*
X164735380Y-90655283D01*
X164563917Y-90483820D01*
X164362297Y-90349102D01*
X164138269Y-90256307D01*
X163900443Y-90209000D01*
X163657957Y-90209000D01*
X163420131Y-90256307D01*
X163196103Y-90349102D01*
X162994483Y-90483820D01*
X162823020Y-90655283D01*
X162688302Y-90856903D01*
X162595507Y-91080931D01*
X162548200Y-91318757D01*
X124523500Y-91318757D01*
X124523500Y-91058494D01*
X124374643Y-90310142D01*
X124082651Y-89605210D01*
X123658744Y-88970788D01*
X123119212Y-88431256D01*
X122484790Y-88007349D01*
X121779858Y-87715357D01*
X121031506Y-87566500D01*
X120268494Y-87566500D01*
X119520142Y-87715357D01*
X118815210Y-88007349D01*
X118180788Y-88431256D01*
X117641256Y-88970788D01*
X117217349Y-89605210D01*
X116925357Y-90310142D01*
X116776500Y-91058494D01*
X78727160Y-91058494D01*
X78817841Y-90936920D01*
X78943025Y-90674099D01*
X78987676Y-90526890D01*
X78866355Y-90297000D01*
X77673200Y-90297000D01*
X77419200Y-90297000D01*
X76226045Y-90297000D01*
X76104724Y-90526890D01*
X76149375Y-90674099D01*
X76274559Y-90936920D01*
X76448612Y-91170269D01*
X76532666Y-91246034D01*
X76452020Y-91270498D01*
X76341706Y-91329463D01*
X76245015Y-91408815D01*
X76165663Y-91505506D01*
X76106698Y-91615820D01*
X76070388Y-91735518D01*
X76058128Y-91860000D01*
X74141000Y-91860000D01*
X74141000Y-87986890D01*
X76104724Y-87986890D01*
X76149375Y-88134099D01*
X76274559Y-88396920D01*
X76448612Y-88630269D01*
X76664845Y-88825178D01*
X76790455Y-88900000D01*
X76664845Y-88974822D01*
X76448612Y-89169731D01*
X76274559Y-89403080D01*
X76149375Y-89665901D01*
X76104724Y-89813110D01*
X76226045Y-90043000D01*
X77419200Y-90043000D01*
X77419200Y-87757000D01*
X77673200Y-87757000D01*
X77673200Y-90043000D01*
X78866355Y-90043000D01*
X78987676Y-89813110D01*
X78943025Y-89665901D01*
X78817841Y-89403080D01*
X78643788Y-89169731D01*
X78427555Y-88974822D01*
X78301945Y-88900000D01*
X78427555Y-88825178D01*
X78643788Y-88630269D01*
X78817841Y-88396920D01*
X78943025Y-88134099D01*
X78987676Y-87986890D01*
X78866355Y-87757000D01*
X77673200Y-87757000D01*
X77419200Y-87757000D01*
X76226045Y-87757000D01*
X76104724Y-87986890D01*
X74141000Y-87986890D01*
X74141000Y-87273110D01*
X76104724Y-87273110D01*
X76226045Y-87503000D01*
X77419200Y-87503000D01*
X77419200Y-87483000D01*
X77673200Y-87483000D01*
X77673200Y-87503000D01*
X78866355Y-87503000D01*
X78987676Y-87273110D01*
X78943025Y-87125901D01*
X78817841Y-86863080D01*
X78643788Y-86629731D01*
X78427555Y-86434822D01*
X78177452Y-86285843D01*
X78153594Y-86277380D01*
X78290636Y-86204129D01*
X78493689Y-86037489D01*
X78660329Y-85834437D01*
X78784154Y-85602777D01*
X78860405Y-85351412D01*
X78879700Y-85155508D01*
X78879700Y-84875000D01*
X91350157Y-84875000D01*
X91350157Y-86575000D01*
X91357513Y-86649689D01*
X91379299Y-86721508D01*
X91414678Y-86787696D01*
X91462289Y-86845711D01*
X91520304Y-86893322D01*
X91586492Y-86928701D01*
X91658311Y-86950487D01*
X91733000Y-86957843D01*
X93433000Y-86957843D01*
X93507689Y-86950487D01*
X93579508Y-86928701D01*
X93645696Y-86893322D01*
X93703711Y-86845711D01*
X93751322Y-86787696D01*
X93786701Y-86721508D01*
X93808487Y-86649689D01*
X93815843Y-86575000D01*
X93815843Y-84875000D01*
X111162157Y-84875000D01*
X111162157Y-86575000D01*
X111169513Y-86649689D01*
X111191299Y-86721508D01*
X111226678Y-86787696D01*
X111274289Y-86845711D01*
X111332304Y-86893322D01*
X111398492Y-86928701D01*
X111470311Y-86950487D01*
X111545000Y-86957843D01*
X113245000Y-86957843D01*
X113319689Y-86950487D01*
X113391508Y-86928701D01*
X113457696Y-86893322D01*
X113515711Y-86845711D01*
X113563322Y-86787696D01*
X113598701Y-86721508D01*
X113620487Y-86649689D01*
X113627843Y-86575000D01*
X113627843Y-84875000D01*
X113620487Y-84800311D01*
X113598701Y-84728492D01*
X113563322Y-84662304D01*
X113515711Y-84604289D01*
X113457696Y-84556678D01*
X113391508Y-84521299D01*
X113319689Y-84499513D01*
X113245000Y-84492157D01*
X111545000Y-84492157D01*
X111470311Y-84499513D01*
X111398492Y-84521299D01*
X111332304Y-84556678D01*
X111274289Y-84604289D01*
X111226678Y-84662304D01*
X111191299Y-84728492D01*
X111169513Y-84800311D01*
X111162157Y-84875000D01*
X93815843Y-84875000D01*
X93808487Y-84800311D01*
X93786701Y-84728492D01*
X93751322Y-84662304D01*
X93703711Y-84604289D01*
X93645696Y-84556678D01*
X93579508Y-84521299D01*
X93507689Y-84499513D01*
X93433000Y-84492157D01*
X91733000Y-84492157D01*
X91658311Y-84499513D01*
X91586492Y-84521299D01*
X91520304Y-84556678D01*
X91462289Y-84604289D01*
X91414678Y-84662304D01*
X91379299Y-84728492D01*
X91357513Y-84800311D01*
X91350157Y-84875000D01*
X78879700Y-84875000D01*
X78879700Y-83338550D01*
X97142300Y-83338550D01*
X97142300Y-83488650D01*
X97171583Y-83635867D01*
X97229024Y-83774542D01*
X97312416Y-83899347D01*
X97418553Y-84005484D01*
X97543358Y-84088876D01*
X97682033Y-84146317D01*
X97829250Y-84175600D01*
X97979350Y-84175600D01*
X98126567Y-84146317D01*
X98265242Y-84088876D01*
X98386274Y-84008005D01*
X98413035Y-84034766D01*
X98537840Y-84118158D01*
X98676515Y-84175599D01*
X98823732Y-84204882D01*
X98973832Y-84204882D01*
X99121049Y-84175599D01*
X99259724Y-84118158D01*
X99384529Y-84034766D01*
X99434195Y-83985100D01*
X114708269Y-83985100D01*
X114622516Y-84070853D01*
X114539124Y-84195658D01*
X114481683Y-84334333D01*
X114452400Y-84481550D01*
X114452400Y-84631650D01*
X114481683Y-84778867D01*
X114539124Y-84917542D01*
X114622516Y-85042347D01*
X114642900Y-85062731D01*
X114642901Y-86885276D01*
X113212378Y-88315800D01*
X113183550Y-88315800D01*
X113036333Y-88345083D01*
X112897658Y-88402524D01*
X112772853Y-88485916D01*
X112666716Y-88592053D01*
X112583324Y-88716858D01*
X112525883Y-88855533D01*
X112496600Y-89002750D01*
X112496600Y-89152850D01*
X112525883Y-89300067D01*
X112583324Y-89438742D01*
X112666716Y-89563547D01*
X112772853Y-89669684D01*
X112897658Y-89753076D01*
X113036333Y-89810517D01*
X113183550Y-89839800D01*
X113333650Y-89839800D01*
X113480867Y-89810517D01*
X113619542Y-89753076D01*
X113744347Y-89669684D01*
X113850484Y-89563547D01*
X113933876Y-89438742D01*
X113991317Y-89300067D01*
X114020600Y-89152850D01*
X114020600Y-89124022D01*
X115598657Y-87545966D01*
X115620467Y-87528067D01*
X115691884Y-87441045D01*
X115744952Y-87341762D01*
X115777631Y-87234034D01*
X115785900Y-87150074D01*
X115788665Y-87122000D01*
X115785900Y-87093926D01*
X115785900Y-85062731D01*
X115806284Y-85042347D01*
X115889676Y-84917542D01*
X115947117Y-84778867D01*
X115976400Y-84631650D01*
X115976400Y-84481550D01*
X115947117Y-84334333D01*
X115889676Y-84195658D01*
X115806284Y-84070853D01*
X115720531Y-83985100D01*
X116410069Y-83985100D01*
X116430453Y-84005484D01*
X116555258Y-84088876D01*
X116693933Y-84146317D01*
X116841150Y-84175600D01*
X116991250Y-84175600D01*
X117138467Y-84146317D01*
X117277142Y-84088876D01*
X117401947Y-84005484D01*
X117422331Y-83985100D01*
X120009346Y-83985100D01*
X123850400Y-87826155D01*
X123850400Y-87854982D01*
X123879683Y-88002199D01*
X123937124Y-88140874D01*
X124020516Y-88265679D01*
X124126653Y-88371816D01*
X124251458Y-88455208D01*
X124390133Y-88512649D01*
X124537350Y-88541932D01*
X124687450Y-88541932D01*
X124834667Y-88512649D01*
X124973342Y-88455208D01*
X125098147Y-88371816D01*
X125204284Y-88265679D01*
X125287676Y-88140874D01*
X125345117Y-88002199D01*
X125374400Y-87854982D01*
X125374400Y-87714324D01*
X125450600Y-87790524D01*
X125450600Y-87819350D01*
X125479883Y-87966567D01*
X125537324Y-88105242D01*
X125620716Y-88230047D01*
X125726853Y-88336184D01*
X125851658Y-88419576D01*
X125990333Y-88477017D01*
X126137550Y-88506300D01*
X126287650Y-88506300D01*
X126434867Y-88477017D01*
X126573542Y-88419576D01*
X126698347Y-88336184D01*
X126804484Y-88230047D01*
X126887876Y-88105242D01*
X126910757Y-88050000D01*
X162546357Y-88050000D01*
X162546357Y-89750000D01*
X162553713Y-89824689D01*
X162575499Y-89896508D01*
X162610878Y-89962696D01*
X162658489Y-90020711D01*
X162716504Y-90068322D01*
X162782692Y-90103701D01*
X162854511Y-90125487D01*
X162929200Y-90132843D01*
X164629200Y-90132843D01*
X164703889Y-90125487D01*
X164775708Y-90103701D01*
X164841896Y-90068322D01*
X164899911Y-90020711D01*
X164947522Y-89962696D01*
X164982901Y-89896508D01*
X165004687Y-89824689D01*
X165012043Y-89750000D01*
X165012043Y-88050000D01*
X165004687Y-87975311D01*
X164982901Y-87903492D01*
X164947522Y-87837304D01*
X164899911Y-87779289D01*
X164841896Y-87731678D01*
X164775708Y-87696299D01*
X164703889Y-87674513D01*
X164629200Y-87667157D01*
X162929200Y-87667157D01*
X162854511Y-87674513D01*
X162782692Y-87696299D01*
X162716504Y-87731678D01*
X162658489Y-87779289D01*
X162610878Y-87837304D01*
X162575499Y-87903492D01*
X162553713Y-87975311D01*
X162546357Y-88050000D01*
X126910757Y-88050000D01*
X126945317Y-87966567D01*
X126974600Y-87819350D01*
X126974600Y-87669250D01*
X126945317Y-87522033D01*
X126887876Y-87383358D01*
X126804484Y-87258553D01*
X126698347Y-87152416D01*
X126573542Y-87069024D01*
X126434867Y-87011583D01*
X126287650Y-86982300D01*
X126258824Y-86982300D01*
X124824624Y-85548100D01*
X129653357Y-85548100D01*
X129653357Y-87248100D01*
X129660713Y-87322789D01*
X129682499Y-87394608D01*
X129717878Y-87460796D01*
X129765489Y-87518811D01*
X129823504Y-87566422D01*
X129889692Y-87601801D01*
X129961511Y-87623587D01*
X130036200Y-87630943D01*
X131736200Y-87630943D01*
X131810889Y-87623587D01*
X131882708Y-87601801D01*
X131948896Y-87566422D01*
X132006911Y-87518811D01*
X132054522Y-87460796D01*
X132089901Y-87394608D01*
X132111687Y-87322789D01*
X132119043Y-87248100D01*
X132119043Y-85548100D01*
X132111687Y-85473411D01*
X132089901Y-85401592D01*
X132054522Y-85335404D01*
X132006911Y-85277389D01*
X131948896Y-85229778D01*
X131882708Y-85194399D01*
X131810889Y-85172613D01*
X131736200Y-85165257D01*
X130036200Y-85165257D01*
X129961511Y-85172613D01*
X129889692Y-85194399D01*
X129823504Y-85229778D01*
X129765489Y-85277389D01*
X129717878Y-85335404D01*
X129682499Y-85401592D01*
X129660713Y-85473411D01*
X129653357Y-85548100D01*
X124824624Y-85548100D01*
X122975280Y-83698757D01*
X162548200Y-83698757D01*
X162548200Y-83941243D01*
X162595507Y-84179069D01*
X162688302Y-84403097D01*
X162823020Y-84604717D01*
X162994483Y-84776180D01*
X163196103Y-84910898D01*
X163420131Y-85003693D01*
X163657957Y-85051000D01*
X163900443Y-85051000D01*
X164138269Y-85003693D01*
X164362297Y-84910898D01*
X164563917Y-84776180D01*
X164735380Y-84604717D01*
X164870098Y-84403097D01*
X164962893Y-84179069D01*
X165010200Y-83941243D01*
X165010200Y-83698757D01*
X164962893Y-83460931D01*
X164870098Y-83236903D01*
X164735380Y-83035283D01*
X164563917Y-82863820D01*
X164362297Y-82729102D01*
X164138269Y-82636307D01*
X163900443Y-82589000D01*
X163657957Y-82589000D01*
X163420131Y-82636307D01*
X163196103Y-82729102D01*
X162994483Y-82863820D01*
X162823020Y-83035283D01*
X162688302Y-83236903D01*
X162595507Y-83460931D01*
X162548200Y-83698757D01*
X122975280Y-83698757D01*
X121213670Y-81937148D01*
X121195767Y-81915333D01*
X121108745Y-81843916D01*
X121009462Y-81790848D01*
X120901734Y-81758169D01*
X120817774Y-81749900D01*
X120789700Y-81747135D01*
X120761626Y-81749900D01*
X117422321Y-81749900D01*
X117401937Y-81729516D01*
X117277132Y-81646124D01*
X117138457Y-81588683D01*
X116991240Y-81559400D01*
X116841140Y-81559400D01*
X116693923Y-81588683D01*
X116555248Y-81646124D01*
X116430443Y-81729516D01*
X116410059Y-81749900D01*
X98605471Y-81749900D01*
X98577399Y-81747135D01*
X98549327Y-81749900D01*
X98549326Y-81749900D01*
X98465366Y-81758169D01*
X98357638Y-81790848D01*
X98258355Y-81843916D01*
X98171333Y-81915333D01*
X98153434Y-81937143D01*
X97520048Y-82570530D01*
X97498233Y-82588433D01*
X97426817Y-82675455D01*
X97426816Y-82675456D01*
X97373748Y-82774739D01*
X97341069Y-82882467D01*
X97339241Y-82901028D01*
X97312416Y-82927853D01*
X97229024Y-83052658D01*
X97171583Y-83191333D01*
X97142300Y-83338550D01*
X78879700Y-83338550D01*
X78879700Y-80950950D01*
X91859100Y-80950950D01*
X91859100Y-81101050D01*
X91888383Y-81248267D01*
X91945824Y-81386942D01*
X92029216Y-81511747D01*
X92135353Y-81617884D01*
X92260158Y-81701276D01*
X92398833Y-81758717D01*
X92546050Y-81788000D01*
X92696150Y-81788000D01*
X92843367Y-81758717D01*
X92982042Y-81701276D01*
X93106847Y-81617884D01*
X93212984Y-81511747D01*
X93296376Y-81386942D01*
X93353817Y-81248267D01*
X93383100Y-81101050D01*
X93383100Y-81072222D01*
X93426061Y-81029261D01*
X95777922Y-78677400D01*
X137476557Y-78677400D01*
X137476557Y-80377400D01*
X137483913Y-80452089D01*
X137505699Y-80523908D01*
X137541078Y-80590096D01*
X137588689Y-80648111D01*
X137646704Y-80695722D01*
X137712892Y-80731101D01*
X137784711Y-80752887D01*
X137859400Y-80760243D01*
X139559400Y-80760243D01*
X139634089Y-80752887D01*
X139705908Y-80731101D01*
X139772096Y-80695722D01*
X139830111Y-80648111D01*
X139877722Y-80590096D01*
X139913101Y-80523908D01*
X139934887Y-80452089D01*
X139942243Y-80377400D01*
X139942243Y-79406157D01*
X140018400Y-79406157D01*
X140018400Y-79648643D01*
X140065707Y-79886469D01*
X140158502Y-80110497D01*
X140293220Y-80312117D01*
X140464683Y-80483580D01*
X140666303Y-80618298D01*
X140890331Y-80711093D01*
X141128157Y-80758400D01*
X141370643Y-80758400D01*
X141608469Y-80711093D01*
X141832497Y-80618298D01*
X142034117Y-80483580D01*
X142087697Y-80430000D01*
X162546357Y-80430000D01*
X162546357Y-82130000D01*
X162553713Y-82204689D01*
X162575499Y-82276508D01*
X162610878Y-82342696D01*
X162658489Y-82400711D01*
X162716504Y-82448322D01*
X162782692Y-82483701D01*
X162854511Y-82505487D01*
X162929200Y-82512843D01*
X164629200Y-82512843D01*
X164703889Y-82505487D01*
X164775708Y-82483701D01*
X164841896Y-82448322D01*
X164899911Y-82400711D01*
X164947522Y-82342696D01*
X164982901Y-82276508D01*
X165004687Y-82204689D01*
X165012043Y-82130000D01*
X165012043Y-80430000D01*
X165004687Y-80355311D01*
X164982901Y-80283492D01*
X164947522Y-80217304D01*
X164899911Y-80159289D01*
X164841896Y-80111678D01*
X164775708Y-80076299D01*
X164703889Y-80054513D01*
X164629200Y-80047157D01*
X162929200Y-80047157D01*
X162854511Y-80054513D01*
X162782692Y-80076299D01*
X162716504Y-80111678D01*
X162658489Y-80159289D01*
X162610878Y-80217304D01*
X162575499Y-80283492D01*
X162553713Y-80355311D01*
X162546357Y-80430000D01*
X142087697Y-80430000D01*
X142205580Y-80312117D01*
X142340298Y-80110497D01*
X142433093Y-79886469D01*
X142480400Y-79648643D01*
X142480400Y-79406157D01*
X142433093Y-79168331D01*
X142340298Y-78944303D01*
X142205580Y-78742683D01*
X142034117Y-78571220D01*
X141832497Y-78436502D01*
X141608469Y-78343707D01*
X141370643Y-78296400D01*
X141128157Y-78296400D01*
X140890331Y-78343707D01*
X140666303Y-78436502D01*
X140464683Y-78571220D01*
X140293220Y-78742683D01*
X140158502Y-78944303D01*
X140065707Y-79168331D01*
X140018400Y-79406157D01*
X139942243Y-79406157D01*
X139942243Y-78677400D01*
X139934887Y-78602711D01*
X139913101Y-78530892D01*
X139877722Y-78464704D01*
X139830111Y-78406689D01*
X139772096Y-78359078D01*
X139705908Y-78323699D01*
X139634089Y-78301913D01*
X139559400Y-78294557D01*
X137859400Y-78294557D01*
X137784711Y-78301913D01*
X137712892Y-78323699D01*
X137646704Y-78359078D01*
X137588689Y-78406689D01*
X137541078Y-78464704D01*
X137505699Y-78530892D01*
X137483913Y-78602711D01*
X137476557Y-78677400D01*
X95777922Y-78677400D01*
X96375723Y-78079600D01*
X100395369Y-78079600D01*
X100415753Y-78099984D01*
X100540558Y-78183376D01*
X100679233Y-78240817D01*
X100826450Y-78270100D01*
X100976550Y-78270100D01*
X101123767Y-78240817D01*
X101262442Y-78183376D01*
X101387247Y-78099984D01*
X101493384Y-77993847D01*
X101576776Y-77869042D01*
X101634217Y-77730367D01*
X101663500Y-77583150D01*
X101663500Y-77433050D01*
X101634217Y-77285833D01*
X101576776Y-77147158D01*
X101493384Y-77022353D01*
X101387247Y-76916216D01*
X101262442Y-76832824D01*
X101123767Y-76775383D01*
X100976550Y-76746100D01*
X100826450Y-76746100D01*
X100679233Y-76775383D01*
X100540558Y-76832824D01*
X100415753Y-76916216D01*
X100395369Y-76936600D01*
X96167074Y-76936600D01*
X96139000Y-76933835D01*
X96110926Y-76936600D01*
X96026966Y-76944869D01*
X95919238Y-76977548D01*
X95819955Y-77030616D01*
X95732933Y-77102033D01*
X95715034Y-77123843D01*
X92617839Y-80221039D01*
X92574878Y-80264000D01*
X92546050Y-80264000D01*
X92398833Y-80293283D01*
X92260158Y-80350724D01*
X92135353Y-80434116D01*
X92029216Y-80540253D01*
X91945824Y-80665058D01*
X91888383Y-80803733D01*
X91859100Y-80950950D01*
X78879700Y-80950950D01*
X78879700Y-77971553D01*
X81589903Y-75261350D01*
X93129098Y-75261350D01*
X93129098Y-75411450D01*
X93158381Y-75558667D01*
X93215822Y-75697342D01*
X93299214Y-75822147D01*
X93405351Y-75928284D01*
X93530156Y-76011676D01*
X93668831Y-76069117D01*
X93816048Y-76098400D01*
X93966148Y-76098400D01*
X94113365Y-76069117D01*
X94252040Y-76011676D01*
X94376845Y-75928284D01*
X94482982Y-75822147D01*
X94566374Y-75697342D01*
X94623815Y-75558667D01*
X94653098Y-75411450D01*
X94653098Y-75400800D01*
X110120757Y-75400800D01*
X110120757Y-77100800D01*
X110128113Y-77175489D01*
X110149899Y-77247308D01*
X110185278Y-77313496D01*
X110232889Y-77371511D01*
X110290904Y-77419122D01*
X110357092Y-77454501D01*
X110428911Y-77476287D01*
X110503600Y-77483643D01*
X112203600Y-77483643D01*
X112278289Y-77476287D01*
X112350108Y-77454501D01*
X112416296Y-77419122D01*
X112474311Y-77371511D01*
X112521922Y-77313496D01*
X112557301Y-77247308D01*
X112579087Y-77175489D01*
X112586443Y-77100800D01*
X112586443Y-76129557D01*
X112662600Y-76129557D01*
X112662600Y-76372043D01*
X112709907Y-76609869D01*
X112802702Y-76833897D01*
X112937420Y-77035517D01*
X113108883Y-77206980D01*
X113310503Y-77341698D01*
X113534531Y-77434493D01*
X113772357Y-77481800D01*
X114014843Y-77481800D01*
X114252669Y-77434493D01*
X114476697Y-77341698D01*
X114678317Y-77206980D01*
X114849780Y-77035517D01*
X114984498Y-76833897D01*
X115077293Y-76609869D01*
X115087831Y-76556890D01*
X162337724Y-76556890D01*
X162382375Y-76704099D01*
X162507559Y-76966920D01*
X162681612Y-77200269D01*
X162897845Y-77395178D01*
X163147948Y-77544157D01*
X163422309Y-77641481D01*
X163652200Y-77520814D01*
X163652200Y-76327000D01*
X163906200Y-76327000D01*
X163906200Y-77520814D01*
X164136091Y-77641481D01*
X164410452Y-77544157D01*
X164660555Y-77395178D01*
X164876788Y-77200269D01*
X165050841Y-76966920D01*
X165176025Y-76704099D01*
X165220676Y-76556890D01*
X165099355Y-76327000D01*
X163906200Y-76327000D01*
X163652200Y-76327000D01*
X162459045Y-76327000D01*
X162337724Y-76556890D01*
X115087831Y-76556890D01*
X115124600Y-76372043D01*
X115124600Y-76129557D01*
X115077293Y-75891731D01*
X114984498Y-75667703D01*
X114849780Y-75466083D01*
X114678317Y-75294620D01*
X114476697Y-75159902D01*
X114252669Y-75067107D01*
X114014843Y-75019800D01*
X113772357Y-75019800D01*
X113534531Y-75067107D01*
X113310503Y-75159902D01*
X113108883Y-75294620D01*
X112937420Y-75466083D01*
X112802702Y-75667703D01*
X112709907Y-75891731D01*
X112662600Y-76129557D01*
X112586443Y-76129557D01*
X112586443Y-75400800D01*
X112579087Y-75326111D01*
X112557301Y-75254292D01*
X112521922Y-75188104D01*
X112474311Y-75130089D01*
X112416296Y-75082478D01*
X112350108Y-75047099D01*
X112278289Y-75025313D01*
X112203600Y-75017957D01*
X110503600Y-75017957D01*
X110428911Y-75025313D01*
X110357092Y-75047099D01*
X110290904Y-75082478D01*
X110232889Y-75130089D01*
X110185278Y-75188104D01*
X110149899Y-75254292D01*
X110128113Y-75326111D01*
X110120757Y-75400800D01*
X94653098Y-75400800D01*
X94653098Y-75261350D01*
X94623815Y-75114133D01*
X94566374Y-74975458D01*
X94482982Y-74850653D01*
X94462598Y-74830269D01*
X94462598Y-74677150D01*
X118668794Y-74677150D01*
X118668794Y-74827250D01*
X118698077Y-74974467D01*
X118755518Y-75113142D01*
X118838910Y-75237947D01*
X118945047Y-75344084D01*
X119069852Y-75427476D01*
X119208527Y-75484917D01*
X119355744Y-75514200D01*
X119505844Y-75514200D01*
X119653061Y-75484917D01*
X119791736Y-75427476D01*
X119916541Y-75344084D01*
X120022678Y-75237947D01*
X120106070Y-75113142D01*
X120163511Y-74974467D01*
X120192794Y-74827250D01*
X120192794Y-74677150D01*
X120163511Y-74529933D01*
X120155255Y-74510000D01*
X162291128Y-74510000D01*
X162303388Y-74634482D01*
X162339698Y-74754180D01*
X162398663Y-74864494D01*
X162478015Y-74961185D01*
X162574706Y-75040537D01*
X162685020Y-75099502D01*
X162765666Y-75123966D01*
X162681612Y-75199731D01*
X162507559Y-75433080D01*
X162382375Y-75695901D01*
X162337724Y-75843110D01*
X162459045Y-76073000D01*
X163652200Y-76073000D01*
X163652200Y-73787000D01*
X163906200Y-73787000D01*
X163906200Y-76073000D01*
X165099355Y-76073000D01*
X165220676Y-75843110D01*
X165176025Y-75695901D01*
X165050841Y-75433080D01*
X164876788Y-75199731D01*
X164792734Y-75123966D01*
X164873380Y-75099502D01*
X164983694Y-75040537D01*
X165080385Y-74961185D01*
X165159737Y-74864494D01*
X165218702Y-74754180D01*
X165255012Y-74634482D01*
X165267272Y-74510000D01*
X165264200Y-73945750D01*
X165105450Y-73787000D01*
X163906200Y-73787000D01*
X163652200Y-73787000D01*
X162452950Y-73787000D01*
X162294200Y-73945750D01*
X162291128Y-74510000D01*
X120155255Y-74510000D01*
X120106070Y-74391258D01*
X120022678Y-74266453D01*
X119916541Y-74160316D01*
X119791736Y-74076924D01*
X119653061Y-74019483D01*
X119505844Y-73990200D01*
X119355744Y-73990200D01*
X119208527Y-74019483D01*
X119069852Y-74076924D01*
X118945047Y-74160316D01*
X118838910Y-74266453D01*
X118755518Y-74391258D01*
X118698077Y-74529933D01*
X118668794Y-74677150D01*
X94462598Y-74677150D01*
X94462598Y-73867894D01*
X94494598Y-73884998D01*
X94566071Y-73906679D01*
X94640400Y-73914000D01*
X95243987Y-73914000D01*
X95262700Y-73915843D01*
X97269300Y-73915843D01*
X97343989Y-73908487D01*
X97346882Y-73907610D01*
X97356329Y-73906679D01*
X97427802Y-73884998D01*
X97493672Y-73849790D01*
X97551408Y-73802408D01*
X97598790Y-73744672D01*
X97633998Y-73678802D01*
X97655679Y-73607329D01*
X97663000Y-73533000D01*
X97663000Y-70129400D01*
X97658335Y-70069964D01*
X97639509Y-69997686D01*
X97606943Y-69930471D01*
X97561890Y-69870900D01*
X97506081Y-69821263D01*
X97441661Y-69783467D01*
X97180309Y-69662843D01*
X97446050Y-69662843D01*
X97569424Y-69650692D01*
X97688056Y-69614705D01*
X97797389Y-69556266D01*
X97893219Y-69477619D01*
X97971866Y-69381789D01*
X98030305Y-69272456D01*
X98066292Y-69153824D01*
X98078443Y-69030450D01*
X98078443Y-68129550D01*
X98070274Y-68046600D01*
X98196400Y-68046600D01*
X98196400Y-73583800D01*
X98203721Y-73658129D01*
X98225402Y-73729602D01*
X98260610Y-73795472D01*
X98307992Y-73853208D01*
X98365728Y-73900590D01*
X98431598Y-73935798D01*
X98503071Y-73957479D01*
X98577400Y-73964800D01*
X100736400Y-73964800D01*
X100810729Y-73957479D01*
X100882202Y-73935798D01*
X100948072Y-73900590D01*
X101005808Y-73853208D01*
X101053190Y-73795472D01*
X101088398Y-73729602D01*
X101110079Y-73658129D01*
X101117400Y-73583800D01*
X101117400Y-73007004D01*
X106006900Y-73007004D01*
X106006900Y-73144596D01*
X106033743Y-73279545D01*
X106086397Y-73406664D01*
X106162839Y-73521068D01*
X106260132Y-73618361D01*
X106374536Y-73694803D01*
X106501655Y-73747457D01*
X106636604Y-73774300D01*
X106774196Y-73774300D01*
X106909145Y-73747457D01*
X107036264Y-73694803D01*
X107150668Y-73618361D01*
X107247961Y-73521068D01*
X107324403Y-73406664D01*
X107377057Y-73279545D01*
X107393738Y-73195684D01*
X108029457Y-72559966D01*
X108051267Y-72542067D01*
X108122684Y-72455045D01*
X108175752Y-72355762D01*
X108208431Y-72248034D01*
X108215624Y-72175000D01*
X108219465Y-72136000D01*
X108216700Y-72107926D01*
X108216700Y-71533804D01*
X140017500Y-71533804D01*
X140017500Y-71671396D01*
X140044343Y-71806345D01*
X140096997Y-71933464D01*
X140173439Y-72047868D01*
X140270732Y-72145161D01*
X140385136Y-72221603D01*
X140512255Y-72274257D01*
X140647204Y-72301100D01*
X140732001Y-72301100D01*
X141326338Y-72895437D01*
X141325600Y-72899150D01*
X141325600Y-73049250D01*
X141354883Y-73196467D01*
X141412324Y-73335142D01*
X141495716Y-73459947D01*
X141601853Y-73566084D01*
X141726658Y-73649476D01*
X141865333Y-73706917D01*
X142012550Y-73736200D01*
X142162650Y-73736200D01*
X142309867Y-73706917D01*
X142448542Y-73649476D01*
X142573347Y-73566084D01*
X142679484Y-73459947D01*
X142762876Y-73335142D01*
X142820317Y-73196467D01*
X142849600Y-73049250D01*
X142849600Y-72899150D01*
X142831868Y-72810000D01*
X162291128Y-72810000D01*
X162294200Y-73374250D01*
X162452950Y-73533000D01*
X163652200Y-73533000D01*
X163652200Y-72333750D01*
X163906200Y-72333750D01*
X163906200Y-73533000D01*
X165105450Y-73533000D01*
X165264200Y-73374250D01*
X165267272Y-72810000D01*
X165255012Y-72685518D01*
X165218702Y-72565820D01*
X165159737Y-72455506D01*
X165080385Y-72358815D01*
X164983694Y-72279463D01*
X164873380Y-72220498D01*
X164753682Y-72184188D01*
X164629200Y-72171928D01*
X164064950Y-72175000D01*
X163906200Y-72333750D01*
X163652200Y-72333750D01*
X163493450Y-72175000D01*
X162929200Y-72171928D01*
X162804718Y-72184188D01*
X162685020Y-72220498D01*
X162574706Y-72279463D01*
X162478015Y-72358815D01*
X162398663Y-72455506D01*
X162339698Y-72565820D01*
X162303388Y-72685518D01*
X162291128Y-72810000D01*
X142831868Y-72810000D01*
X142820317Y-72751933D01*
X142762876Y-72613258D01*
X142679484Y-72488453D01*
X142573347Y-72382316D01*
X142448542Y-72298924D01*
X142309867Y-72241483D01*
X142162650Y-72212200D01*
X142012550Y-72212200D01*
X142008837Y-72212938D01*
X141414500Y-71618601D01*
X141414500Y-71533804D01*
X141387657Y-71398855D01*
X141335003Y-71271736D01*
X141258561Y-71157332D01*
X141161268Y-71060039D01*
X141046864Y-70983597D01*
X140919745Y-70930943D01*
X140784796Y-70904100D01*
X140647204Y-70904100D01*
X140512255Y-70930943D01*
X140385136Y-70983597D01*
X140270732Y-71060039D01*
X140173439Y-71157332D01*
X140096997Y-71271736D01*
X140044343Y-71398855D01*
X140017500Y-71533804D01*
X108216700Y-71533804D01*
X108216700Y-69390931D01*
X108237084Y-69370547D01*
X108320476Y-69245742D01*
X108377917Y-69107067D01*
X108407200Y-68959850D01*
X108407200Y-68809750D01*
X108377917Y-68662533D01*
X108320476Y-68523858D01*
X108237084Y-68399053D01*
X108130947Y-68292916D01*
X108006142Y-68209524D01*
X107867467Y-68152083D01*
X107720250Y-68122800D01*
X107570150Y-68122800D01*
X107422933Y-68152083D01*
X107284258Y-68209524D01*
X107159453Y-68292916D01*
X107053316Y-68399053D01*
X106969924Y-68523858D01*
X106912483Y-68662533D01*
X106883200Y-68809750D01*
X106883200Y-68959850D01*
X106912483Y-69107067D01*
X106969924Y-69245742D01*
X107053316Y-69370547D01*
X107073700Y-69390931D01*
X107073701Y-71899276D01*
X106585516Y-72387462D01*
X106501655Y-72404143D01*
X106374536Y-72456797D01*
X106260132Y-72533239D01*
X106162839Y-72630532D01*
X106086397Y-72744936D01*
X106033743Y-72872055D01*
X106006900Y-73007004D01*
X101117400Y-73007004D01*
X101117400Y-68571452D01*
X101587194Y-68300417D01*
X101666208Y-68239808D01*
X101713590Y-68182072D01*
X101748798Y-68116202D01*
X101770479Y-68044729D01*
X101777800Y-67970400D01*
X101777800Y-67895350D01*
X111683800Y-67895350D01*
X111683800Y-68045450D01*
X111713083Y-68192667D01*
X111770524Y-68331342D01*
X111853916Y-68456147D01*
X111960053Y-68562284D01*
X112084858Y-68645676D01*
X112223533Y-68703117D01*
X112370750Y-68732400D01*
X112520850Y-68732400D01*
X112668067Y-68703117D01*
X112806742Y-68645676D01*
X112931547Y-68562284D01*
X112951931Y-68541900D01*
X114047869Y-68541900D01*
X114068253Y-68562284D01*
X114193058Y-68645676D01*
X114331733Y-68703117D01*
X114478950Y-68732400D01*
X114629050Y-68732400D01*
X114776267Y-68703117D01*
X114914942Y-68645676D01*
X115039747Y-68562284D01*
X115145884Y-68456147D01*
X115229276Y-68331342D01*
X115286717Y-68192667D01*
X115316000Y-68045450D01*
X115316000Y-67895350D01*
X115286717Y-67748133D01*
X115229276Y-67609458D01*
X115145884Y-67484653D01*
X115039747Y-67378516D01*
X114914942Y-67295124D01*
X114776267Y-67237683D01*
X114629050Y-67208400D01*
X114478950Y-67208400D01*
X114331733Y-67237683D01*
X114193058Y-67295124D01*
X114068253Y-67378516D01*
X114047869Y-67398900D01*
X112951931Y-67398900D01*
X112931547Y-67378516D01*
X112806742Y-67295124D01*
X112668067Y-67237683D01*
X112520850Y-67208400D01*
X112370750Y-67208400D01*
X112223533Y-67237683D01*
X112084858Y-67295124D01*
X111960053Y-67378516D01*
X111853916Y-67484653D01*
X111770524Y-67609458D01*
X111713083Y-67748133D01*
X111683800Y-67895350D01*
X101777800Y-67895350D01*
X101777800Y-64745864D01*
X101770479Y-64671535D01*
X101748798Y-64600062D01*
X101713590Y-64534192D01*
X101666208Y-64476456D01*
X101608472Y-64429074D01*
X101542602Y-64393866D01*
X101471129Y-64372185D01*
X101396800Y-64364864D01*
X99796600Y-64364864D01*
X99722271Y-64372185D01*
X99650798Y-64393866D01*
X99584928Y-64429074D01*
X99527192Y-64476456D01*
X99479810Y-64534192D01*
X99444602Y-64600062D01*
X99422921Y-64671535D01*
X99415600Y-64745864D01*
X99415600Y-66953695D01*
X98518459Y-67551789D01*
X98440523Y-67620848D01*
X98288123Y-67798648D01*
X98260610Y-67834928D01*
X98225402Y-67900798D01*
X98203721Y-67972271D01*
X98196400Y-68046600D01*
X98070274Y-68046600D01*
X98066292Y-68006176D01*
X98030305Y-67887544D01*
X97971866Y-67778211D01*
X97893219Y-67682381D01*
X97797389Y-67603734D01*
X97740944Y-67573564D01*
X97751898Y-67518496D01*
X97751898Y-67380904D01*
X97725055Y-67245955D01*
X97672401Y-67118836D01*
X97595959Y-67004432D01*
X97498666Y-66907139D01*
X97384262Y-66830697D01*
X97257143Y-66778043D01*
X97122194Y-66751200D01*
X96984602Y-66751200D01*
X96849653Y-66778043D01*
X96722534Y-66830697D01*
X96608130Y-66907139D01*
X96510837Y-67004432D01*
X96434395Y-67118836D01*
X96381741Y-67245955D01*
X96354898Y-67380904D01*
X96354898Y-67518496D01*
X96381741Y-67653445D01*
X96382121Y-67654363D01*
X96347981Y-67682381D01*
X96342200Y-67689425D01*
X96342200Y-64389000D01*
X96334879Y-64314671D01*
X96313198Y-64243198D01*
X96277990Y-64177328D01*
X96230608Y-64119592D01*
X96172872Y-64072210D01*
X96107002Y-64037002D01*
X96035529Y-64015321D01*
X95961200Y-64008000D01*
X94640400Y-64008000D01*
X94566071Y-64015321D01*
X94501397Y-64034940D01*
X94484703Y-63994636D01*
X94408261Y-63880232D01*
X94310968Y-63782939D01*
X94196564Y-63706497D01*
X94069445Y-63653843D01*
X93934496Y-63627000D01*
X93796904Y-63627000D01*
X93661955Y-63653843D01*
X93534836Y-63706497D01*
X93420432Y-63782939D01*
X93323139Y-63880232D01*
X93246697Y-63994636D01*
X93194043Y-64121755D01*
X93167200Y-64256704D01*
X93167200Y-64394296D01*
X93194043Y-64529245D01*
X93246697Y-64656364D01*
X93323139Y-64770768D01*
X93357701Y-64805330D01*
X93357700Y-65737971D01*
X93323139Y-65772532D01*
X93246697Y-65886936D01*
X93194043Y-66014055D01*
X93167200Y-66149004D01*
X93167200Y-66286596D01*
X93194043Y-66421545D01*
X93246697Y-66548664D01*
X93323139Y-66663068D01*
X93385871Y-66725800D01*
X93335839Y-66775832D01*
X93259397Y-66890236D01*
X93206743Y-67017355D01*
X93179900Y-67152304D01*
X93179900Y-67289896D01*
X93206743Y-67424845D01*
X93259397Y-67551964D01*
X93319599Y-67642063D01*
X93319598Y-74830269D01*
X93299214Y-74850653D01*
X93215822Y-74975458D01*
X93158381Y-75114133D01*
X93129098Y-75261350D01*
X81589903Y-75261350D01*
X85172453Y-71678800D01*
X86898304Y-71678800D01*
X87140853Y-71654911D01*
X87452067Y-71560505D01*
X87738884Y-71407198D01*
X87990282Y-71200882D01*
X88196598Y-70949484D01*
X88349905Y-70662667D01*
X88444311Y-70351453D01*
X88476188Y-70027800D01*
X88444311Y-69704147D01*
X88349905Y-69392933D01*
X88196598Y-69106116D01*
X87990282Y-68854718D01*
X87738884Y-68648402D01*
X87452067Y-68495095D01*
X87140853Y-68400689D01*
X86898304Y-68376800D01*
X84856496Y-68376800D01*
X84613947Y-68400689D01*
X84302733Y-68495095D01*
X84015916Y-68648402D01*
X83764518Y-68854718D01*
X83558202Y-69106116D01*
X83404895Y-69392933D01*
X83310489Y-69704147D01*
X83303397Y-69776150D01*
X79323654Y-73755893D01*
X79326812Y-73745482D01*
X79339072Y-73621000D01*
X79336000Y-73056750D01*
X79177250Y-72898000D01*
X77978000Y-72898000D01*
X77978000Y-74097250D01*
X78136750Y-74256000D01*
X78701000Y-74259072D01*
X78825482Y-74246812D01*
X78835893Y-74243654D01*
X76649592Y-76429955D01*
X76598712Y-76471711D01*
X76556956Y-76522591D01*
X76556952Y-76522595D01*
X76432071Y-76674763D01*
X76347013Y-76833897D01*
X76308247Y-76906423D01*
X76231996Y-77157788D01*
X76228916Y-77189056D01*
X76206249Y-77419200D01*
X76212701Y-77484707D01*
X76212700Y-80075507D01*
X76212701Y-80075517D01*
X76212700Y-85155507D01*
X76231995Y-85351411D01*
X76308246Y-85602776D01*
X76432071Y-85834436D01*
X76598711Y-86037489D01*
X76801763Y-86204129D01*
X76938806Y-86277380D01*
X76914948Y-86285843D01*
X76664845Y-86434822D01*
X76448612Y-86629731D01*
X76274559Y-86863080D01*
X76149375Y-87125901D01*
X76104724Y-87273110D01*
X74141000Y-87273110D01*
X74141000Y-73621000D01*
X76362928Y-73621000D01*
X76375188Y-73745482D01*
X76411498Y-73865180D01*
X76470463Y-73975494D01*
X76549815Y-74072185D01*
X76646506Y-74151537D01*
X76756820Y-74210502D01*
X76876518Y-74246812D01*
X77001000Y-74259072D01*
X77565250Y-74256000D01*
X77724000Y-74097250D01*
X77724000Y-72898000D01*
X76524750Y-72898000D01*
X76366000Y-73056750D01*
X76362928Y-73621000D01*
X74141000Y-73621000D01*
X74141000Y-71921000D01*
X76362928Y-71921000D01*
X76366000Y-72485250D01*
X76524750Y-72644000D01*
X77724000Y-72644000D01*
X77724000Y-70358000D01*
X77978000Y-70358000D01*
X77978000Y-72644000D01*
X79177250Y-72644000D01*
X79336000Y-72485250D01*
X79339072Y-71921000D01*
X79326812Y-71796518D01*
X79290502Y-71676820D01*
X79231537Y-71566506D01*
X79152185Y-71469815D01*
X79055494Y-71390463D01*
X78945180Y-71331498D01*
X78864534Y-71307034D01*
X78948588Y-71231269D01*
X79122641Y-70997920D01*
X79247825Y-70735099D01*
X79292476Y-70587890D01*
X79171155Y-70358000D01*
X77978000Y-70358000D01*
X77724000Y-70358000D01*
X76530845Y-70358000D01*
X76409524Y-70587890D01*
X76454175Y-70735099D01*
X76579359Y-70997920D01*
X76753412Y-71231269D01*
X76837466Y-71307034D01*
X76756820Y-71331498D01*
X76646506Y-71390463D01*
X76549815Y-71469815D01*
X76470463Y-71566506D01*
X76411498Y-71676820D01*
X76375188Y-71796518D01*
X76362928Y-71921000D01*
X74141000Y-71921000D01*
X74141000Y-69874110D01*
X76409524Y-69874110D01*
X76530845Y-70104000D01*
X77724000Y-70104000D01*
X77724000Y-68910186D01*
X77978000Y-68910186D01*
X77978000Y-70104000D01*
X79171155Y-70104000D01*
X79292476Y-69874110D01*
X79247825Y-69726901D01*
X79122641Y-69464080D01*
X78948588Y-69230731D01*
X78732355Y-69035822D01*
X78482252Y-68886843D01*
X78207891Y-68789519D01*
X77978000Y-68910186D01*
X77724000Y-68910186D01*
X77494109Y-68789519D01*
X77219748Y-68886843D01*
X76969645Y-69035822D01*
X76753412Y-69230731D01*
X76579359Y-69464080D01*
X76454175Y-69726901D01*
X76409524Y-69874110D01*
X74141000Y-69874110D01*
X74141000Y-58038494D01*
X74866500Y-58038494D01*
X74866500Y-58801506D01*
X75015357Y-59549858D01*
X75307349Y-60254790D01*
X75731256Y-60889212D01*
X76270788Y-61428744D01*
X76905210Y-61852651D01*
X77610142Y-62144643D01*
X78358494Y-62293500D01*
X79121506Y-62293500D01*
X79869858Y-62144643D01*
X80574790Y-61852651D01*
X81209212Y-61428744D01*
X81748744Y-60889212D01*
X82040111Y-60453150D01*
X98475800Y-60453150D01*
X98475800Y-60603250D01*
X98505083Y-60750467D01*
X98562524Y-60889142D01*
X98645916Y-61013947D01*
X98752053Y-61120084D01*
X98876858Y-61203476D01*
X99015533Y-61260917D01*
X99162750Y-61290200D01*
X99312850Y-61290200D01*
X99460067Y-61260917D01*
X99598742Y-61203476D01*
X99723547Y-61120084D01*
X99829684Y-61013947D01*
X99913076Y-60889142D01*
X99970517Y-60750467D01*
X99999800Y-60603250D01*
X99999800Y-60453150D01*
X99970517Y-60305933D01*
X99913076Y-60167258D01*
X99829684Y-60042453D01*
X99723547Y-59936316D01*
X99598742Y-59852924D01*
X99460067Y-59795483D01*
X99312850Y-59766200D01*
X99162750Y-59766200D01*
X99015533Y-59795483D01*
X98876858Y-59852924D01*
X98752053Y-59936316D01*
X98645916Y-60042453D01*
X98562524Y-60167258D01*
X98505083Y-60305933D01*
X98475800Y-60453150D01*
X82040111Y-60453150D01*
X82172651Y-60254790D01*
X82464643Y-59549858D01*
X82613500Y-58801506D01*
X82613500Y-58038494D01*
X82464643Y-57290142D01*
X82172651Y-56585210D01*
X81748744Y-55950788D01*
X81209212Y-55411256D01*
X80574790Y-54987349D01*
X79869858Y-54695357D01*
X79121506Y-54546500D01*
X78358494Y-54546500D01*
X77610142Y-54695357D01*
X76905210Y-54987349D01*
X76270788Y-55411256D01*
X75731256Y-55950788D01*
X75307349Y-56585210D01*
X75015357Y-57290142D01*
X74866500Y-58038494D01*
X74141000Y-58038494D01*
X74141000Y-53821000D01*
X115360200Y-53821000D01*
X115276355Y-53865816D01*
G36*
X101269800Y-67897049D02*
G01*
X100672935Y-68241394D01*
X100652694Y-68255890D01*
X100635669Y-68274055D01*
X100622515Y-68295193D01*
X100613738Y-68318491D01*
X100609400Y-68351400D01*
X100609400Y-73456800D01*
X98704400Y-73456800D01*
X98704400Y-68093581D01*
X98814827Y-67964750D01*
X99867047Y-67263270D01*
X99886309Y-67247496D01*
X99902123Y-67228268D01*
X99913882Y-67206324D01*
X99921134Y-67182507D01*
X99923600Y-67157600D01*
X99923600Y-64872864D01*
X101269800Y-64872864D01*
X101269800Y-67897049D01*
G37*
X101269800Y-67897049D02*
X100672935Y-68241394D01*
X100652694Y-68255890D01*
X100635669Y-68274055D01*
X100622515Y-68295193D01*
X100613738Y-68318491D01*
X100609400Y-68351400D01*
X100609400Y-73456800D01*
X98704400Y-73456800D01*
X98704400Y-68093581D01*
X98814827Y-67964750D01*
X99867047Y-67263270D01*
X99886309Y-67247496D01*
X99902123Y-67228268D01*
X99913882Y-67206324D01*
X99921134Y-67182507D01*
X99923600Y-67157600D01*
X99923600Y-64872864D01*
X101269800Y-64872864D01*
X101269800Y-67897049D01*
G36*
X95834200Y-69519800D02*
G01*
X95836640Y-69544576D01*
X95843867Y-69568401D01*
X95855603Y-69590357D01*
X95871397Y-69609603D01*
X95890643Y-69625397D01*
X95907980Y-69635111D01*
X97155000Y-70210659D01*
X97155000Y-73406000D01*
X94767400Y-73406000D01*
X94767400Y-64516000D01*
X95834200Y-64516000D01*
X95834200Y-69519800D01*
G37*
X95834200Y-69519800D02*
X95836640Y-69544576D01*
X95843867Y-69568401D01*
X95855603Y-69590357D01*
X95871397Y-69609603D01*
X95890643Y-69625397D01*
X95907980Y-69635111D01*
X97155000Y-70210659D01*
X97155000Y-73406000D01*
X94767400Y-73406000D01*
X94767400Y-64516000D01*
X95834200Y-64516000D01*
X95834200Y-69519800D01*
M02*
