G04 #@! TF.GenerationSoftware,KiCad,Pcbnew,(5.1.5)-3*
G04 #@! TF.CreationDate,2020-06-22T17:40:46-04:00*
G04 #@! TF.ProjectId,lab-supply-usb-boost-buck,6c61622d-7375-4707-906c-792d7573622d,rev?*
G04 #@! TF.SameCoordinates,Original*
G04 #@! TF.FileFunction,Legend,Top*
G04 #@! TF.FilePolarity,Positive*
%FSLAX46Y46*%
G04 Gerber Fmt 4.6, Leading zero omitted, Abs format (unit mm)*
G04 Created by KiCad (PCBNEW (5.1.5)-3) date 2020-06-22 17:40:46*
%MOMM*%
%LPD*%
G04 APERTURE LIST*
%ADD10C,0.177800*%
%ADD11C,0.203200*%
%ADD12C,0.304800*%
%ADD13C,0.120000*%
%ADD14C,0.127000*%
%ADD15C,0.150000*%
%ADD16C,0.152400*%
G04 APERTURE END LIST*
D10*
X110186953Y-87690476D02*
X110247430Y-87630000D01*
X110368382Y-87569523D01*
X110670763Y-87569523D01*
X110791715Y-87630000D01*
X110852191Y-87690476D01*
X110912668Y-87811428D01*
X110912668Y-87932380D01*
X110852191Y-88113809D01*
X110126477Y-88839523D01*
X110912668Y-88839523D01*
X111456953Y-88718571D02*
X111517430Y-88779047D01*
X111456953Y-88839523D01*
X111396477Y-88779047D01*
X111456953Y-88718571D01*
X111456953Y-88839523D01*
X112666477Y-87569523D02*
X112061715Y-87569523D01*
X112001239Y-88174285D01*
X112061715Y-88113809D01*
X112182668Y-88053333D01*
X112485049Y-88053333D01*
X112606001Y-88113809D01*
X112666477Y-88174285D01*
X112726953Y-88295238D01*
X112726953Y-88597619D01*
X112666477Y-88718571D01*
X112606001Y-88779047D01*
X112485049Y-88839523D01*
X112182668Y-88839523D01*
X112061715Y-88779047D01*
X112001239Y-88718571D01*
X113089810Y-87569523D02*
X113513144Y-88839523D01*
X113936477Y-87569523D01*
X90217715Y-88839523D02*
X90217715Y-87569523D01*
X90520096Y-87569523D01*
X90701525Y-87630000D01*
X90822477Y-87750952D01*
X90882953Y-87871904D01*
X90943430Y-88113809D01*
X90943430Y-88295238D01*
X90882953Y-88537142D01*
X90822477Y-88658095D01*
X90701525Y-88779047D01*
X90520096Y-88839523D01*
X90217715Y-88839523D01*
X91427239Y-88476666D02*
X92032001Y-88476666D01*
X91306287Y-88839523D02*
X91729620Y-87569523D01*
X92152953Y-88839523D01*
X93302001Y-88718571D02*
X93241525Y-88779047D01*
X93060096Y-88839523D01*
X92939144Y-88839523D01*
X92757715Y-88779047D01*
X92636763Y-88658095D01*
X92576287Y-88537142D01*
X92515810Y-88295238D01*
X92515810Y-88113809D01*
X92576287Y-87871904D01*
X92636763Y-87750952D01*
X92757715Y-87630000D01*
X92939144Y-87569523D01*
X93060096Y-87569523D01*
X93241525Y-87630000D01*
X93302001Y-87690476D01*
X94511525Y-88839523D02*
X93785810Y-88839523D01*
X94148668Y-88839523D02*
X94148668Y-87569523D01*
X94027715Y-87750952D01*
X93906763Y-87871904D01*
X93785810Y-87932380D01*
X128571715Y-89474523D02*
X128571715Y-88204523D01*
X128874096Y-88204523D01*
X129055525Y-88265000D01*
X129176477Y-88385952D01*
X129236953Y-88506904D01*
X129297430Y-88748809D01*
X129297430Y-88930238D01*
X129236953Y-89172142D01*
X129176477Y-89293095D01*
X129055525Y-89414047D01*
X128874096Y-89474523D01*
X128571715Y-89474523D01*
X129781239Y-89111666D02*
X130386001Y-89111666D01*
X129660287Y-89474523D02*
X130083620Y-88204523D01*
X130506953Y-89474523D01*
X131656001Y-89353571D02*
X131595525Y-89414047D01*
X131414096Y-89474523D01*
X131293144Y-89474523D01*
X131111715Y-89414047D01*
X130990763Y-89293095D01*
X130930287Y-89172142D01*
X130869810Y-88930238D01*
X130869810Y-88748809D01*
X130930287Y-88506904D01*
X130990763Y-88385952D01*
X131111715Y-88265000D01*
X131293144Y-88204523D01*
X131414096Y-88204523D01*
X131595525Y-88265000D01*
X131656001Y-88325476D01*
X132139810Y-88325476D02*
X132200287Y-88265000D01*
X132321239Y-88204523D01*
X132623620Y-88204523D01*
X132744572Y-88265000D01*
X132805049Y-88325476D01*
X132865525Y-88446428D01*
X132865525Y-88567380D01*
X132805049Y-88748809D01*
X132079334Y-89474523D01*
X132865525Y-89474523D01*
D11*
X165735000Y-75932937D02*
X165674523Y-76053889D01*
X165674523Y-76235318D01*
X165735000Y-76416746D01*
X165855952Y-76537699D01*
X165976904Y-76598175D01*
X166218809Y-76658651D01*
X166400238Y-76658651D01*
X166642142Y-76598175D01*
X166763095Y-76537699D01*
X166884047Y-76416746D01*
X166944523Y-76235318D01*
X166944523Y-76114365D01*
X166884047Y-75932937D01*
X166823571Y-75872460D01*
X166400238Y-75872460D01*
X166400238Y-76114365D01*
X166944523Y-75328175D02*
X165674523Y-75328175D01*
X166944523Y-74602460D01*
X165674523Y-74602460D01*
X166944523Y-73997699D02*
X165674523Y-73997699D01*
X165674523Y-73695318D01*
X165735000Y-73513889D01*
X165855952Y-73392937D01*
X165976904Y-73332460D01*
X166218809Y-73271984D01*
X166400238Y-73271984D01*
X166642142Y-73332460D01*
X166763095Y-73392937D01*
X166884047Y-73513889D01*
X166944523Y-73695318D01*
X166944523Y-73997699D01*
D10*
X137250049Y-81473523D02*
X137673382Y-82743523D01*
X138096715Y-81473523D01*
X138459572Y-82683047D02*
X138580525Y-82743523D01*
X138822430Y-82743523D01*
X138943382Y-82683047D01*
X139003858Y-82562095D01*
X139003858Y-82501619D01*
X138943382Y-82380666D01*
X138822430Y-82320190D01*
X138641001Y-82320190D01*
X138520049Y-82259714D01*
X138459572Y-82138761D01*
X138459572Y-82078285D01*
X138520049Y-81957333D01*
X138641001Y-81896857D01*
X138822430Y-81896857D01*
X138943382Y-81957333D01*
X139548144Y-81896857D02*
X139548144Y-82743523D01*
X139548144Y-82017809D02*
X139608620Y-81957333D01*
X139729572Y-81896857D01*
X139911001Y-81896857D01*
X140031953Y-81957333D01*
X140092430Y-82078285D01*
X140092430Y-82743523D01*
X140636715Y-82683047D02*
X140757668Y-82743523D01*
X140999572Y-82743523D01*
X141120525Y-82683047D01*
X141181001Y-82562095D01*
X141181001Y-82501619D01*
X141120525Y-82380666D01*
X140999572Y-82320190D01*
X140818144Y-82320190D01*
X140697191Y-82259714D01*
X140636715Y-82138761D01*
X140636715Y-82078285D01*
X140697191Y-81957333D01*
X140818144Y-81896857D01*
X140999572Y-81896857D01*
X141120525Y-81957333D01*
X141664810Y-81594476D02*
X141725287Y-81534000D01*
X141846239Y-81473523D01*
X142148620Y-81473523D01*
X142269572Y-81534000D01*
X142330049Y-81594476D01*
X142390525Y-81715428D01*
X142390525Y-81836380D01*
X142330049Y-82017809D01*
X141604334Y-82743523D01*
X142390525Y-82743523D01*
X110072049Y-78044523D02*
X110495382Y-79314523D01*
X110918715Y-78044523D01*
X111281572Y-79254047D02*
X111402525Y-79314523D01*
X111644430Y-79314523D01*
X111765382Y-79254047D01*
X111825858Y-79133095D01*
X111825858Y-79072619D01*
X111765382Y-78951666D01*
X111644430Y-78891190D01*
X111463001Y-78891190D01*
X111342049Y-78830714D01*
X111281572Y-78709761D01*
X111281572Y-78649285D01*
X111342049Y-78528333D01*
X111463001Y-78467857D01*
X111644430Y-78467857D01*
X111765382Y-78528333D01*
X112370144Y-78467857D02*
X112370144Y-79314523D01*
X112370144Y-78588809D02*
X112430620Y-78528333D01*
X112551572Y-78467857D01*
X112733001Y-78467857D01*
X112853953Y-78528333D01*
X112914430Y-78649285D01*
X112914430Y-79314523D01*
X113458715Y-79254047D02*
X113579668Y-79314523D01*
X113821572Y-79314523D01*
X113942525Y-79254047D01*
X114003001Y-79133095D01*
X114003001Y-79072619D01*
X113942525Y-78951666D01*
X113821572Y-78891190D01*
X113640144Y-78891190D01*
X113519191Y-78830714D01*
X113458715Y-78709761D01*
X113458715Y-78649285D01*
X113519191Y-78528333D01*
X113640144Y-78467857D01*
X113821572Y-78467857D01*
X113942525Y-78528333D01*
X115212525Y-79314523D02*
X114486810Y-79314523D01*
X114849668Y-79314523D02*
X114849668Y-78044523D01*
X114728715Y-78225952D01*
X114607763Y-78346904D01*
X114486810Y-78407380D01*
D11*
X112492729Y-58936466D02*
X113097491Y-58936466D01*
X112371777Y-59299323D02*
X112795110Y-58029323D01*
X113218443Y-59299323D01*
X113883681Y-58029323D02*
X114004634Y-58029323D01*
X114125586Y-58089800D01*
X114186062Y-58150276D01*
X114246539Y-58271228D01*
X114307015Y-58513133D01*
X114307015Y-58815514D01*
X114246539Y-59057419D01*
X114186062Y-59178371D01*
X114125586Y-59238847D01*
X114004634Y-59299323D01*
X113883681Y-59299323D01*
X113762729Y-59238847D01*
X113702253Y-59178371D01*
X113641777Y-59057419D01*
X113581300Y-58815514D01*
X113581300Y-58513133D01*
X113641777Y-58271228D01*
X113702253Y-58150276D01*
X113762729Y-58089800D01*
X113883681Y-58029323D01*
X116277329Y-62619466D02*
X116882091Y-62619466D01*
X116156377Y-62982323D02*
X116579710Y-61712323D01*
X117003043Y-62982323D01*
X118091615Y-62982323D02*
X117365900Y-62982323D01*
X117728758Y-62982323D02*
X117728758Y-61712323D01*
X117607805Y-61893752D01*
X117486853Y-62014704D01*
X117365900Y-62075180D01*
X142998129Y-59901666D02*
X143602891Y-59901666D01*
X142877177Y-60264523D02*
X143300510Y-58994523D01*
X143723843Y-60264523D01*
X144389081Y-58994523D02*
X144510034Y-58994523D01*
X144630986Y-59055000D01*
X144691462Y-59115476D01*
X144751939Y-59236428D01*
X144812415Y-59478333D01*
X144812415Y-59780714D01*
X144751939Y-60022619D01*
X144691462Y-60143571D01*
X144630986Y-60204047D01*
X144510034Y-60264523D01*
X144389081Y-60264523D01*
X144268129Y-60204047D01*
X144207653Y-60143571D01*
X144147177Y-60022619D01*
X144086700Y-59780714D01*
X144086700Y-59478333D01*
X144147177Y-59236428D01*
X144207653Y-59115476D01*
X144268129Y-59055000D01*
X144389081Y-58994523D01*
D10*
X73932142Y-78286972D02*
X75746428Y-78286972D01*
X74839285Y-79194115D02*
X74839285Y-80161734D01*
X75625476Y-80585068D02*
X74355476Y-81008401D01*
X75625476Y-81431734D01*
X74355476Y-81855068D02*
X75625476Y-81855068D01*
X74355476Y-82459830D02*
X75625476Y-82459830D01*
X74355476Y-83185544D01*
X75625476Y-83185544D01*
X74839285Y-83790306D02*
X74839285Y-84757925D01*
X73932142Y-85665068D02*
X75746428Y-85665068D01*
X73932142Y-86330306D02*
X75746428Y-86330306D01*
X74839285Y-87237449D02*
X74839285Y-88205068D01*
X75565000Y-89475068D02*
X75625476Y-89354115D01*
X75625476Y-89172687D01*
X75565000Y-88991258D01*
X75444047Y-88870306D01*
X75323095Y-88809830D01*
X75081190Y-88749353D01*
X74899761Y-88749353D01*
X74657857Y-88809830D01*
X74536904Y-88870306D01*
X74415952Y-88991258D01*
X74355476Y-89172687D01*
X74355476Y-89293639D01*
X74415952Y-89475068D01*
X74476428Y-89535544D01*
X74899761Y-89535544D01*
X74899761Y-89293639D01*
X74355476Y-90079830D02*
X75625476Y-90079830D01*
X74355476Y-90805544D01*
X75625476Y-90805544D01*
X74355476Y-91410306D02*
X75625476Y-91410306D01*
X75625476Y-91712687D01*
X75565000Y-91894115D01*
X75444047Y-92015068D01*
X75323095Y-92075544D01*
X75081190Y-92136020D01*
X74899761Y-92136020D01*
X74657857Y-92075544D01*
X74536904Y-92015068D01*
X74415952Y-91894115D01*
X74355476Y-91712687D01*
X74355476Y-91410306D01*
X74839285Y-92680306D02*
X74839285Y-93647925D01*
X73932142Y-94555068D02*
X75746428Y-94555068D01*
D11*
X165674523Y-92007508D02*
X166944523Y-91584175D01*
X165674523Y-91160841D01*
X166944523Y-90556080D02*
X166884047Y-90677032D01*
X166823571Y-90737508D01*
X166702619Y-90797984D01*
X166339761Y-90797984D01*
X166218809Y-90737508D01*
X166158333Y-90677032D01*
X166097857Y-90556080D01*
X166097857Y-90374651D01*
X166158333Y-90253699D01*
X166218809Y-90193222D01*
X166339761Y-90132746D01*
X166702619Y-90132746D01*
X166823571Y-90193222D01*
X166884047Y-90253699D01*
X166944523Y-90374651D01*
X166944523Y-90556080D01*
X166097857Y-89044175D02*
X166944523Y-89044175D01*
X166097857Y-89588460D02*
X166763095Y-89588460D01*
X166884047Y-89527984D01*
X166944523Y-89407032D01*
X166944523Y-89225603D01*
X166884047Y-89104651D01*
X166823571Y-89044175D01*
X166097857Y-88620841D02*
X166097857Y-88137032D01*
X165674523Y-88439413D02*
X166763095Y-88439413D01*
X166884047Y-88378937D01*
X166944523Y-88257984D01*
X166944523Y-88137032D01*
X165735000Y-98792937D02*
X165674523Y-98913889D01*
X165674523Y-99095318D01*
X165735000Y-99276746D01*
X165855952Y-99397699D01*
X165976904Y-99458175D01*
X166218809Y-99518651D01*
X166400238Y-99518651D01*
X166642142Y-99458175D01*
X166763095Y-99397699D01*
X166884047Y-99276746D01*
X166944523Y-99095318D01*
X166944523Y-98974365D01*
X166884047Y-98792937D01*
X166823571Y-98732460D01*
X166400238Y-98732460D01*
X166400238Y-98974365D01*
X166944523Y-98188175D02*
X165674523Y-98188175D01*
X166944523Y-97462460D01*
X165674523Y-97462460D01*
X166944523Y-96857699D02*
X165674523Y-96857699D01*
X165674523Y-96555318D01*
X165735000Y-96373889D01*
X165855952Y-96252937D01*
X165976904Y-96192460D01*
X166218809Y-96131984D01*
X166400238Y-96131984D01*
X166642142Y-96192460D01*
X166763095Y-96252937D01*
X166884047Y-96373889D01*
X166944523Y-96555318D01*
X166944523Y-96857699D01*
X165674523Y-84387508D02*
X166944523Y-83964175D01*
X165674523Y-83540841D01*
X166944523Y-82936080D02*
X166884047Y-83057032D01*
X166823571Y-83117508D01*
X166702619Y-83177984D01*
X166339761Y-83177984D01*
X166218809Y-83117508D01*
X166158333Y-83057032D01*
X166097857Y-82936080D01*
X166097857Y-82754651D01*
X166158333Y-82633699D01*
X166218809Y-82573222D01*
X166339761Y-82512746D01*
X166702619Y-82512746D01*
X166823571Y-82573222D01*
X166884047Y-82633699D01*
X166944523Y-82754651D01*
X166944523Y-82936080D01*
X166097857Y-81424175D02*
X166944523Y-81424175D01*
X166097857Y-81968460D02*
X166763095Y-81968460D01*
X166884047Y-81907984D01*
X166944523Y-81787032D01*
X166944523Y-81605603D01*
X166884047Y-81484651D01*
X166823571Y-81424175D01*
X166097857Y-81000841D02*
X166097857Y-80517032D01*
X165674523Y-80819413D02*
X166763095Y-80819413D01*
X166884047Y-80758937D01*
X166944523Y-80637984D01*
X166944523Y-80517032D01*
X142998129Y-61933666D02*
X143602891Y-61933666D01*
X142877177Y-62296523D02*
X143300510Y-61026523D01*
X143723843Y-62296523D01*
X144812415Y-62296523D02*
X144086700Y-62296523D01*
X144449558Y-62296523D02*
X144449558Y-61026523D01*
X144328605Y-61207952D01*
X144207653Y-61328904D01*
X144086700Y-61389380D01*
D10*
X91185334Y-118429314D02*
X92152953Y-118429314D01*
X91669144Y-118913123D02*
X91669144Y-117945504D01*
X93362477Y-117643123D02*
X92757715Y-117643123D01*
X92697239Y-118247885D01*
X92757715Y-118187409D01*
X92878668Y-118126933D01*
X93181049Y-118126933D01*
X93302001Y-118187409D01*
X93362477Y-118247885D01*
X93422953Y-118368838D01*
X93422953Y-118671219D01*
X93362477Y-118792171D01*
X93302001Y-118852647D01*
X93181049Y-118913123D01*
X92878668Y-118913123D01*
X92757715Y-118852647D01*
X92697239Y-118792171D01*
X93785810Y-117643123D02*
X94209144Y-118913123D01*
X94632477Y-117643123D01*
X75742800Y-70451072D02*
X75803276Y-70330120D01*
X75803276Y-70148691D01*
X75742800Y-69967263D01*
X75621847Y-69846310D01*
X75500895Y-69785834D01*
X75258990Y-69725358D01*
X75077561Y-69725358D01*
X74835657Y-69785834D01*
X74714704Y-69846310D01*
X74593752Y-69967263D01*
X74533276Y-70148691D01*
X74533276Y-70269644D01*
X74593752Y-70451072D01*
X74654228Y-70511549D01*
X75077561Y-70511549D01*
X75077561Y-70269644D01*
X74533276Y-71055834D02*
X75803276Y-71055834D01*
X74533276Y-71781549D01*
X75803276Y-71781549D01*
X74533276Y-72386310D02*
X75803276Y-72386310D01*
X75803276Y-72688691D01*
X75742800Y-72870120D01*
X75621847Y-72991072D01*
X75500895Y-73051549D01*
X75258990Y-73112025D01*
X75077561Y-73112025D01*
X74835657Y-73051549D01*
X74714704Y-72991072D01*
X74593752Y-72870120D01*
X74533276Y-72688691D01*
X74533276Y-72386310D01*
D11*
X142369177Y-118792171D02*
X142308700Y-118852647D01*
X142127272Y-118913123D01*
X142006320Y-118913123D01*
X141824891Y-118852647D01*
X141703939Y-118731695D01*
X141643462Y-118610742D01*
X141582986Y-118368838D01*
X141582986Y-118187409D01*
X141643462Y-117945504D01*
X141703939Y-117824552D01*
X141824891Y-117703600D01*
X142006320Y-117643123D01*
X142127272Y-117643123D01*
X142308700Y-117703600D01*
X142369177Y-117764076D01*
X143094891Y-118913123D02*
X142973939Y-118852647D01*
X142913462Y-118792171D01*
X142852986Y-118671219D01*
X142852986Y-118308361D01*
X142913462Y-118187409D01*
X142973939Y-118126933D01*
X143094891Y-118066457D01*
X143276320Y-118066457D01*
X143397272Y-118126933D01*
X143457748Y-118187409D01*
X143518224Y-118308361D01*
X143518224Y-118671219D01*
X143457748Y-118792171D01*
X143397272Y-118852647D01*
X143276320Y-118913123D01*
X143094891Y-118913123D01*
X144062510Y-118066457D02*
X144062510Y-118913123D01*
X144062510Y-118187409D02*
X144122986Y-118126933D01*
X144243939Y-118066457D01*
X144425367Y-118066457D01*
X144546320Y-118126933D01*
X144606796Y-118247885D01*
X144606796Y-118913123D01*
X145030129Y-118066457D02*
X145513939Y-118066457D01*
X145211558Y-117643123D02*
X145211558Y-118731695D01*
X145272034Y-118852647D01*
X145392986Y-118913123D01*
X145513939Y-118913123D01*
X145937272Y-118913123D02*
X145937272Y-118066457D01*
X145937272Y-118308361D02*
X145997748Y-118187409D01*
X146058224Y-118126933D01*
X146179177Y-118066457D01*
X146300129Y-118066457D01*
X146904891Y-118913123D02*
X146783939Y-118852647D01*
X146723462Y-118792171D01*
X146662986Y-118671219D01*
X146662986Y-118308361D01*
X146723462Y-118187409D01*
X146783939Y-118126933D01*
X146904891Y-118066457D01*
X147086320Y-118066457D01*
X147207272Y-118126933D01*
X147267748Y-118187409D01*
X147328224Y-118308361D01*
X147328224Y-118671219D01*
X147267748Y-118792171D01*
X147207272Y-118852647D01*
X147086320Y-118913123D01*
X146904891Y-118913123D01*
X148053939Y-118913123D02*
X147932986Y-118852647D01*
X147872510Y-118731695D01*
X147872510Y-117643123D01*
X149928700Y-118247885D02*
X150110129Y-118308361D01*
X150170605Y-118368838D01*
X150231081Y-118489790D01*
X150231081Y-118671219D01*
X150170605Y-118792171D01*
X150110129Y-118852647D01*
X149989177Y-118913123D01*
X149505367Y-118913123D01*
X149505367Y-117643123D01*
X149928700Y-117643123D01*
X150049653Y-117703600D01*
X150110129Y-117764076D01*
X150170605Y-117885028D01*
X150170605Y-118005980D01*
X150110129Y-118126933D01*
X150049653Y-118187409D01*
X149928700Y-118247885D01*
X149505367Y-118247885D01*
X150956796Y-118913123D02*
X150835843Y-118852647D01*
X150775367Y-118792171D01*
X150714891Y-118671219D01*
X150714891Y-118308361D01*
X150775367Y-118187409D01*
X150835843Y-118126933D01*
X150956796Y-118066457D01*
X151138224Y-118066457D01*
X151259177Y-118126933D01*
X151319653Y-118187409D01*
X151380129Y-118308361D01*
X151380129Y-118671219D01*
X151319653Y-118792171D01*
X151259177Y-118852647D01*
X151138224Y-118913123D01*
X150956796Y-118913123D01*
X152468700Y-118913123D02*
X152468700Y-118247885D01*
X152408224Y-118126933D01*
X152287272Y-118066457D01*
X152045367Y-118066457D01*
X151924415Y-118126933D01*
X152468700Y-118852647D02*
X152347748Y-118913123D01*
X152045367Y-118913123D01*
X151924415Y-118852647D01*
X151863939Y-118731695D01*
X151863939Y-118610742D01*
X151924415Y-118489790D01*
X152045367Y-118429314D01*
X152347748Y-118429314D01*
X152468700Y-118368838D01*
X153073462Y-118913123D02*
X153073462Y-118066457D01*
X153073462Y-118308361D02*
X153133939Y-118187409D01*
X153194415Y-118126933D01*
X153315367Y-118066457D01*
X153436320Y-118066457D01*
X154403939Y-118913123D02*
X154403939Y-117643123D01*
X154403939Y-118852647D02*
X154282986Y-118913123D01*
X154041081Y-118913123D01*
X153920129Y-118852647D01*
X153859653Y-118792171D01*
X153799177Y-118671219D01*
X153799177Y-118308361D01*
X153859653Y-118187409D01*
X153920129Y-118126933D01*
X154041081Y-118066457D01*
X154282986Y-118066457D01*
X154403939Y-118126933D01*
X143764000Y-107277262D02*
X143824476Y-107156310D01*
X143824476Y-106974881D01*
X143764000Y-106793453D01*
X143643047Y-106672500D01*
X143522095Y-106612024D01*
X143280190Y-106551548D01*
X143098761Y-106551548D01*
X142856857Y-106612024D01*
X142735904Y-106672500D01*
X142614952Y-106793453D01*
X142554476Y-106974881D01*
X142554476Y-107095834D01*
X142614952Y-107277262D01*
X142675428Y-107337739D01*
X143098761Y-107337739D01*
X143098761Y-107095834D01*
X142554476Y-107882024D02*
X143824476Y-107882024D01*
X142554476Y-108607739D01*
X143824476Y-108607739D01*
X142554476Y-109212500D02*
X143824476Y-109212500D01*
X143824476Y-109514881D01*
X143764000Y-109696310D01*
X143643047Y-109817262D01*
X143522095Y-109877739D01*
X143280190Y-109938215D01*
X143098761Y-109938215D01*
X142856857Y-109877739D01*
X142735904Y-109817262D01*
X142614952Y-109696310D01*
X142554476Y-109514881D01*
X142554476Y-109212500D01*
X150839714Y-102216615D02*
X150779238Y-102398043D01*
X150718761Y-102458520D01*
X150597809Y-102518996D01*
X150416380Y-102518996D01*
X150295428Y-102458520D01*
X150234952Y-102398043D01*
X150174476Y-102277091D01*
X150174476Y-101793281D01*
X151444476Y-101793281D01*
X151444476Y-102216615D01*
X151384000Y-102337567D01*
X151323523Y-102398043D01*
X151202571Y-102458520D01*
X151081619Y-102458520D01*
X150960666Y-102398043D01*
X150900190Y-102337567D01*
X150839714Y-102216615D01*
X150839714Y-101793281D01*
X151444476Y-103063281D02*
X150416380Y-103063281D01*
X150295428Y-103123758D01*
X150234952Y-103184234D01*
X150174476Y-103305186D01*
X150174476Y-103547091D01*
X150234952Y-103668043D01*
X150295428Y-103728520D01*
X150416380Y-103788996D01*
X151444476Y-103788996D01*
X150295428Y-105119472D02*
X150234952Y-105058996D01*
X150174476Y-104877567D01*
X150174476Y-104756615D01*
X150234952Y-104575186D01*
X150355904Y-104454234D01*
X150476857Y-104393758D01*
X150718761Y-104333281D01*
X150900190Y-104333281D01*
X151142095Y-104393758D01*
X151263047Y-104454234D01*
X151384000Y-104575186D01*
X151444476Y-104756615D01*
X151444476Y-104877567D01*
X151384000Y-105058996D01*
X151323523Y-105119472D01*
X150174476Y-105663758D02*
X151444476Y-105663758D01*
X150174476Y-106389472D02*
X150900190Y-105845186D01*
X151444476Y-106389472D02*
X150718761Y-105663758D01*
X150053523Y-106631377D02*
X150053523Y-107598996D01*
X150839714Y-107901377D02*
X150839714Y-108324710D01*
X150174476Y-108506139D02*
X150174476Y-107901377D01*
X151444476Y-107901377D01*
X151444476Y-108506139D01*
X150174476Y-109050424D02*
X151444476Y-109050424D01*
X150174476Y-109776139D01*
X151444476Y-109776139D01*
X147694952Y-106812805D02*
X147634476Y-106994234D01*
X147634476Y-107296615D01*
X147694952Y-107417567D01*
X147755428Y-107478043D01*
X147876380Y-107538520D01*
X147997333Y-107538520D01*
X148118285Y-107478043D01*
X148178761Y-107417567D01*
X148239238Y-107296615D01*
X148299714Y-107054710D01*
X148360190Y-106933758D01*
X148420666Y-106873281D01*
X148541619Y-106812805D01*
X148662571Y-106812805D01*
X148783523Y-106873281D01*
X148844000Y-106933758D01*
X148904476Y-107054710D01*
X148904476Y-107357091D01*
X148844000Y-107538520D01*
X147755428Y-108808520D02*
X147694952Y-108748043D01*
X147634476Y-108566615D01*
X147634476Y-108445662D01*
X147694952Y-108264234D01*
X147815904Y-108143281D01*
X147936857Y-108082805D01*
X148178761Y-108022329D01*
X148360190Y-108022329D01*
X148602095Y-108082805D01*
X148723047Y-108143281D01*
X148844000Y-108264234D01*
X148904476Y-108445662D01*
X148904476Y-108566615D01*
X148844000Y-108748043D01*
X148783523Y-108808520D01*
X147634476Y-109957567D02*
X147634476Y-109352805D01*
X148904476Y-109352805D01*
X145154952Y-106752329D02*
X145094476Y-106933758D01*
X145094476Y-107236139D01*
X145154952Y-107357091D01*
X145215428Y-107417567D01*
X145336380Y-107478043D01*
X145457333Y-107478043D01*
X145578285Y-107417567D01*
X145638761Y-107357091D01*
X145699238Y-107236139D01*
X145759714Y-106994234D01*
X145820190Y-106873281D01*
X145880666Y-106812805D01*
X146001619Y-106752329D01*
X146122571Y-106752329D01*
X146243523Y-106812805D01*
X146304000Y-106873281D01*
X146364476Y-106994234D01*
X146364476Y-107296615D01*
X146304000Y-107478043D01*
X145094476Y-108022329D02*
X146364476Y-108022329D01*
X146364476Y-108324710D01*
X146304000Y-108506139D01*
X146183047Y-108627091D01*
X146062095Y-108687567D01*
X145820190Y-108748043D01*
X145638761Y-108748043D01*
X145396857Y-108687567D01*
X145275904Y-108627091D01*
X145154952Y-108506139D01*
X145094476Y-108324710D01*
X145094476Y-108022329D01*
X145457333Y-109231853D02*
X145457333Y-109836615D01*
X145094476Y-109110900D02*
X146364476Y-109534234D01*
X145094476Y-109957567D01*
X153198285Y-106485024D02*
X153198285Y-107452643D01*
X152714476Y-106968834D02*
X153682095Y-106968834D01*
X153984476Y-108662167D02*
X153984476Y-108057405D01*
X153379714Y-107996929D01*
X153440190Y-108057405D01*
X153500666Y-108178358D01*
X153500666Y-108480739D01*
X153440190Y-108601691D01*
X153379714Y-108662167D01*
X153258761Y-108722643D01*
X152956380Y-108722643D01*
X152835428Y-108662167D01*
X152774952Y-108601691D01*
X152714476Y-108480739D01*
X152714476Y-108178358D01*
X152774952Y-108057405D01*
X152835428Y-107996929D01*
X153984476Y-109085500D02*
X152714476Y-109508834D01*
X153984476Y-109932167D01*
D12*
X99500266Y-114814047D02*
X99500266Y-116870238D01*
X99621219Y-117112142D01*
X99742171Y-117233095D01*
X99984076Y-117354047D01*
X100467885Y-117354047D01*
X100709790Y-117233095D01*
X100830742Y-117112142D01*
X100951695Y-116870238D01*
X100951695Y-114814047D01*
X102040266Y-117233095D02*
X102403123Y-117354047D01*
X103007885Y-117354047D01*
X103249790Y-117233095D01*
X103370742Y-117112142D01*
X103491695Y-116870238D01*
X103491695Y-116628333D01*
X103370742Y-116386428D01*
X103249790Y-116265476D01*
X103007885Y-116144523D01*
X102524076Y-116023571D01*
X102282171Y-115902619D01*
X102161219Y-115781666D01*
X102040266Y-115539761D01*
X102040266Y-115297857D01*
X102161219Y-115055952D01*
X102282171Y-114935000D01*
X102524076Y-114814047D01*
X103128838Y-114814047D01*
X103491695Y-114935000D01*
X105426933Y-116023571D02*
X105789790Y-116144523D01*
X105910742Y-116265476D01*
X106031695Y-116507380D01*
X106031695Y-116870238D01*
X105910742Y-117112142D01*
X105789790Y-117233095D01*
X105547885Y-117354047D01*
X104580266Y-117354047D01*
X104580266Y-114814047D01*
X105426933Y-114814047D01*
X105668838Y-114935000D01*
X105789790Y-115055952D01*
X105910742Y-115297857D01*
X105910742Y-115539761D01*
X105789790Y-115781666D01*
X105668838Y-115902619D01*
X105426933Y-116023571D01*
X104580266Y-116023571D01*
X107120266Y-116386428D02*
X109055504Y-116386428D01*
X111111695Y-116023571D02*
X111474552Y-116144523D01*
X111595504Y-116265476D01*
X111716457Y-116507380D01*
X111716457Y-116870238D01*
X111595504Y-117112142D01*
X111474552Y-117233095D01*
X111232647Y-117354047D01*
X110265028Y-117354047D01*
X110265028Y-114814047D01*
X111111695Y-114814047D01*
X111353600Y-114935000D01*
X111474552Y-115055952D01*
X111595504Y-115297857D01*
X111595504Y-115539761D01*
X111474552Y-115781666D01*
X111353600Y-115902619D01*
X111111695Y-116023571D01*
X110265028Y-116023571D01*
X113167885Y-117354047D02*
X112925980Y-117233095D01*
X112805028Y-117112142D01*
X112684076Y-116870238D01*
X112684076Y-116144523D01*
X112805028Y-115902619D01*
X112925980Y-115781666D01*
X113167885Y-115660714D01*
X113530742Y-115660714D01*
X113772647Y-115781666D01*
X113893600Y-115902619D01*
X114014552Y-116144523D01*
X114014552Y-116870238D01*
X113893600Y-117112142D01*
X113772647Y-117233095D01*
X113530742Y-117354047D01*
X113167885Y-117354047D01*
X115465980Y-117354047D02*
X115224076Y-117233095D01*
X115103123Y-117112142D01*
X114982171Y-116870238D01*
X114982171Y-116144523D01*
X115103123Y-115902619D01*
X115224076Y-115781666D01*
X115465980Y-115660714D01*
X115828838Y-115660714D01*
X116070742Y-115781666D01*
X116191695Y-115902619D01*
X116312647Y-116144523D01*
X116312647Y-116870238D01*
X116191695Y-117112142D01*
X116070742Y-117233095D01*
X115828838Y-117354047D01*
X115465980Y-117354047D01*
X117280266Y-117233095D02*
X117522171Y-117354047D01*
X118005980Y-117354047D01*
X118247885Y-117233095D01*
X118368838Y-116991190D01*
X118368838Y-116870238D01*
X118247885Y-116628333D01*
X118005980Y-116507380D01*
X117643123Y-116507380D01*
X117401219Y-116386428D01*
X117280266Y-116144523D01*
X117280266Y-116023571D01*
X117401219Y-115781666D01*
X117643123Y-115660714D01*
X118005980Y-115660714D01*
X118247885Y-115781666D01*
X119094552Y-115660714D02*
X120062171Y-115660714D01*
X119457409Y-114814047D02*
X119457409Y-116991190D01*
X119578361Y-117233095D01*
X119820266Y-117354047D01*
X120062171Y-117354047D01*
X120908838Y-116386428D02*
X122844076Y-116386428D01*
X124900266Y-116023571D02*
X125263123Y-116144523D01*
X125384076Y-116265476D01*
X125505028Y-116507380D01*
X125505028Y-116870238D01*
X125384076Y-117112142D01*
X125263123Y-117233095D01*
X125021219Y-117354047D01*
X124053600Y-117354047D01*
X124053600Y-114814047D01*
X124900266Y-114814047D01*
X125142171Y-114935000D01*
X125263123Y-115055952D01*
X125384076Y-115297857D01*
X125384076Y-115539761D01*
X125263123Y-115781666D01*
X125142171Y-115902619D01*
X124900266Y-116023571D01*
X124053600Y-116023571D01*
X127682171Y-115660714D02*
X127682171Y-117354047D01*
X126593600Y-115660714D02*
X126593600Y-116991190D01*
X126714552Y-117233095D01*
X126956457Y-117354047D01*
X127319314Y-117354047D01*
X127561219Y-117233095D01*
X127682171Y-117112142D01*
X129980266Y-117233095D02*
X129738361Y-117354047D01*
X129254552Y-117354047D01*
X129012647Y-117233095D01*
X128891695Y-117112142D01*
X128770742Y-116870238D01*
X128770742Y-116144523D01*
X128891695Y-115902619D01*
X129012647Y-115781666D01*
X129254552Y-115660714D01*
X129738361Y-115660714D01*
X129980266Y-115781666D01*
X131068838Y-117354047D02*
X131068838Y-114814047D01*
X131310742Y-116386428D02*
X132036457Y-117354047D01*
X132036457Y-115660714D02*
X131068838Y-116628333D01*
X134697409Y-114814047D02*
X135544076Y-117354047D01*
X136390742Y-114814047D01*
X138567885Y-117354047D02*
X137116457Y-117354047D01*
X137842171Y-117354047D02*
X137842171Y-114814047D01*
X137600266Y-115176904D01*
X137358361Y-115418809D01*
X137116457Y-115539761D01*
D13*
X128600200Y-75971400D02*
X128600200Y-76073000D01*
X128600200Y-72059800D02*
X128600200Y-72161400D01*
X132613400Y-72059800D02*
X132613400Y-72161400D01*
X128600200Y-72059800D02*
X132613400Y-72059800D01*
X132613400Y-75971400D02*
X132613400Y-76073000D01*
X132613400Y-76073000D02*
X128600200Y-76073000D01*
D14*
X114727600Y-69545200D02*
X111027600Y-69545200D01*
X114727600Y-73609200D02*
X111027600Y-73609200D01*
D13*
X78876200Y-78680000D02*
X76216200Y-78680000D01*
X78876200Y-91440000D02*
X78876200Y-78680000D01*
X76216200Y-91440000D02*
X76216200Y-78680000D01*
X78876200Y-91440000D02*
X76216200Y-91440000D01*
X78876200Y-92710000D02*
X78876200Y-94040000D01*
X78876200Y-94040000D02*
X77546200Y-94040000D01*
X155823600Y-116721900D02*
X155823600Y-110751900D01*
X155823600Y-110751900D02*
X140703600Y-110751900D01*
X140703600Y-110751900D02*
X140703600Y-116721900D01*
X140703600Y-116721900D02*
X155823600Y-116721900D01*
X152513600Y-116711900D02*
X152513600Y-115961900D01*
X152513600Y-115961900D02*
X144013600Y-115961900D01*
X144013600Y-115961900D02*
X144013600Y-116711900D01*
X144013600Y-116711900D02*
X152513600Y-116711900D01*
X155813600Y-116711900D02*
X155813600Y-115961900D01*
X155813600Y-115961900D02*
X154013600Y-115961900D01*
X154013600Y-115961900D02*
X154013600Y-116711900D01*
X154013600Y-116711900D02*
X155813600Y-116711900D01*
X142513600Y-116711900D02*
X142513600Y-115961900D01*
X142513600Y-115961900D02*
X140713600Y-115961900D01*
X140713600Y-115961900D02*
X140713600Y-116711900D01*
X140713600Y-116711900D02*
X142513600Y-116711900D01*
X155813600Y-114461900D02*
X155063600Y-114461900D01*
X155063600Y-114461900D02*
X155063600Y-111511900D01*
X155063600Y-111511900D02*
X148263600Y-111511900D01*
X140713600Y-114461900D02*
X141463600Y-114461900D01*
X141463600Y-114461900D02*
X141463600Y-111511900D01*
X141463600Y-111511900D02*
X148263600Y-111511900D01*
X154863600Y-117011900D02*
X156113600Y-117011900D01*
X156113600Y-117011900D02*
X156113600Y-115761900D01*
X79181000Y-68901000D02*
X76521000Y-68901000D01*
X79181000Y-71501000D02*
X79181000Y-68901000D01*
X76521000Y-71501000D02*
X76521000Y-68901000D01*
X79181000Y-71501000D02*
X76521000Y-71501000D01*
X79181000Y-72771000D02*
X79181000Y-74101000D01*
X79181000Y-74101000D02*
X77851000Y-74101000D01*
X91049800Y-116773000D02*
X91049800Y-115443000D01*
X92379800Y-116773000D02*
X91049800Y-116773000D01*
X93649800Y-116773000D02*
X93649800Y-114113000D01*
X93649800Y-114113000D02*
X96249800Y-114113000D01*
X93649800Y-116773000D02*
X96249800Y-116773000D01*
X96249800Y-116773000D02*
X96249800Y-114113000D01*
X132751900Y-59987548D02*
X132751900Y-60510052D01*
X131331900Y-59987548D02*
X131331900Y-60510052D01*
X124420700Y-60179852D02*
X124420700Y-59657348D01*
X123000700Y-60179852D02*
X123000700Y-59657348D01*
X130891648Y-62637600D02*
X131414152Y-62637600D01*
X130891648Y-64057600D02*
X131414152Y-64057600D01*
X126448700Y-67028600D02*
X127378700Y-67028600D01*
X129608700Y-67028600D02*
X128678700Y-67028600D01*
X129608700Y-67028600D02*
X129608700Y-64868600D01*
X126448700Y-67028600D02*
X126448700Y-65568600D01*
X83220000Y-68131800D02*
X84420000Y-68131800D01*
X84420000Y-69891800D02*
X83220000Y-69891800D01*
X84420000Y-71923800D02*
X83220000Y-71923800D01*
X83220000Y-70163800D02*
X84420000Y-70163800D01*
D14*
X143578800Y-72034400D02*
X139878800Y-72034400D01*
X143578800Y-76098400D02*
X139878800Y-76098400D01*
D13*
X148345600Y-73186400D02*
X149545600Y-73186400D01*
X149545600Y-74946400D02*
X148345600Y-74946400D01*
X127434400Y-76640800D02*
X128634400Y-76640800D01*
X128634400Y-78400800D02*
X127434400Y-78400800D01*
X128616000Y-80483600D02*
X127416000Y-80483600D01*
X127416000Y-78723600D02*
X128616000Y-78723600D01*
X135080900Y-60131400D02*
X135080900Y-61331400D01*
X133320900Y-61331400D02*
X133320900Y-60131400D01*
X124971100Y-64227600D02*
X123771100Y-64227600D01*
X123771100Y-62467600D02*
X124971100Y-62467600D01*
X162449200Y-85150000D02*
X165109200Y-85150000D01*
X162449200Y-82550000D02*
X162449200Y-85150000D01*
X165109200Y-82550000D02*
X165109200Y-85150000D01*
X162449200Y-82550000D02*
X165109200Y-82550000D01*
X162449200Y-81280000D02*
X162449200Y-79950000D01*
X162449200Y-79950000D02*
X163779200Y-79950000D01*
X162449200Y-92770000D02*
X165109200Y-92770000D01*
X162449200Y-90170000D02*
X162449200Y-92770000D01*
X165109200Y-90170000D02*
X165109200Y-92770000D01*
X162449200Y-90170000D02*
X165109200Y-90170000D01*
X162449200Y-88900000D02*
X162449200Y-87570000D01*
X162449200Y-87570000D02*
X163779200Y-87570000D01*
X162449200Y-95190000D02*
X163779200Y-95190000D01*
X162449200Y-96520000D02*
X162449200Y-95190000D01*
X162449200Y-97790000D02*
X165109200Y-97790000D01*
X165109200Y-97790000D02*
X165109200Y-100390000D01*
X162449200Y-97790000D02*
X162449200Y-100390000D01*
X162449200Y-100390000D02*
X165109200Y-100390000D01*
X139334600Y-66725800D02*
X139334600Y-68225800D01*
X139334600Y-66725800D02*
X139334600Y-65225800D01*
X142554600Y-66725800D02*
X142554600Y-68225800D01*
X142554600Y-66725800D02*
X142554600Y-63800800D01*
X128807100Y-58688800D02*
X127047100Y-58688800D01*
X127047100Y-61758800D02*
X129477100Y-61758800D01*
X122790852Y-73608000D02*
X122268348Y-73608000D01*
X122790852Y-72188000D02*
X122268348Y-72188000D01*
X118720800Y-77163452D02*
X118720800Y-76640948D01*
X120140800Y-77163452D02*
X120140800Y-76640948D01*
X117931000Y-78179452D02*
X117931000Y-77656948D01*
X116511000Y-78179452D02*
X116511000Y-77656948D01*
X100429600Y-62769933D02*
X100429600Y-63112467D01*
X101449600Y-62769933D02*
X101449600Y-63112467D01*
X97797252Y-63041600D02*
X97274748Y-63041600D01*
X97797252Y-61621600D02*
X97274748Y-61621600D01*
X122183600Y-78266400D02*
X123383600Y-78266400D01*
X123383600Y-80026400D02*
X122183600Y-80026400D01*
X128616000Y-82769600D02*
X127416000Y-82769600D01*
X127416000Y-81009600D02*
X128616000Y-81009600D01*
X106435000Y-75961800D02*
X106435000Y-74761800D01*
X108195000Y-74761800D02*
X108195000Y-75961800D01*
X104314100Y-82146700D02*
X104314100Y-80946700D01*
X106074100Y-80946700D02*
X106074100Y-82146700D01*
X104409800Y-77689600D02*
X103209800Y-77689600D01*
X103209800Y-75929600D02*
X104409800Y-75929600D01*
X97240800Y-75929600D02*
X98440800Y-75929600D01*
X98440800Y-77689600D02*
X97240800Y-77689600D01*
D15*
X121609400Y-77799200D02*
X124059400Y-77799200D01*
X120884400Y-74499200D02*
X124059400Y-74499200D01*
D13*
X118810200Y-85214100D02*
X121760200Y-85214100D01*
X120610200Y-81994100D02*
X118810200Y-81994100D01*
X111293000Y-64058800D02*
X111293000Y-65558800D01*
X111293000Y-64058800D02*
X111293000Y-62558800D01*
X114513000Y-64058800D02*
X114513000Y-65558800D01*
X114513000Y-64058800D02*
X114513000Y-61133800D01*
X109923700Y-80723200D02*
X108993700Y-80723200D01*
X106763700Y-80723200D02*
X107693700Y-80723200D01*
X106763700Y-80723200D02*
X106763700Y-82883200D01*
X109923700Y-80723200D02*
X109923700Y-82183200D01*
X97246800Y-79706900D02*
X97246800Y-81506900D01*
X100466800Y-81506900D02*
X100466800Y-78556900D01*
X104996064Y-69482800D02*
X103791936Y-69482800D01*
X104996064Y-66762800D02*
X103791936Y-66762800D01*
X104996064Y-63308400D02*
X103791936Y-63308400D01*
X104996064Y-66028400D02*
X103791936Y-66028400D01*
X127871136Y-68566200D02*
X129075264Y-68566200D01*
X127871136Y-71286200D02*
X129075264Y-71286200D01*
X148521336Y-79693600D02*
X149725464Y-79693600D01*
X148521336Y-76973600D02*
X149725464Y-76973600D01*
X115223600Y-77580800D02*
X115223600Y-74920800D01*
X112623600Y-77580800D02*
X115223600Y-77580800D01*
X112623600Y-74920800D02*
X115223600Y-74920800D01*
X112623600Y-77580800D02*
X112623600Y-74920800D01*
X111353600Y-77580800D02*
X110023600Y-77580800D01*
X110023600Y-77580800D02*
X110023600Y-76250800D01*
X92292000Y-67114336D02*
X92292000Y-68318464D01*
X89572000Y-67114336D02*
X89572000Y-68318464D01*
X122712564Y-71286200D02*
X121508436Y-71286200D01*
X122712564Y-68566200D02*
X121508436Y-68566200D01*
X96582400Y-71112464D02*
X96582400Y-69908336D01*
X99302400Y-71112464D02*
X99302400Y-69908336D01*
D15*
X96142800Y-63729200D02*
X99017800Y-63729200D01*
X96917800Y-66979200D02*
X99017800Y-66979200D01*
D13*
X142579400Y-80857400D02*
X142579400Y-78197400D01*
X139979400Y-80857400D02*
X142579400Y-80857400D01*
X139979400Y-78197400D02*
X142579400Y-78197400D01*
X139979400Y-80857400D02*
X139979400Y-78197400D01*
X138709400Y-80857400D02*
X137379400Y-80857400D01*
X137379400Y-80857400D02*
X137379400Y-79527400D01*
X136983400Y-69171452D02*
X136983400Y-68648948D01*
X138403400Y-69171452D02*
X138403400Y-68648948D01*
X110336400Y-65844052D02*
X110336400Y-65321548D01*
X108916400Y-65844052D02*
X108916400Y-65321548D01*
X101753600Y-80764748D02*
X101753600Y-81287252D01*
X103173600Y-80764748D02*
X103173600Y-81287252D01*
X123699200Y-83789152D02*
X123699200Y-83266648D01*
X125119200Y-83789152D02*
X125119200Y-83266648D01*
X96277500Y-80525252D02*
X96277500Y-80002748D01*
X94857500Y-80525252D02*
X94857500Y-80002748D01*
X159945000Y-94266652D02*
X159945000Y-93744148D01*
X161365000Y-94266652D02*
X161365000Y-93744148D01*
X126948000Y-74440148D02*
X126948000Y-74962652D01*
X125528000Y-74440148D02*
X125528000Y-74962652D01*
X162449200Y-77530000D02*
X165109200Y-77530000D01*
X162449200Y-74930000D02*
X162449200Y-77530000D01*
X165109200Y-74930000D02*
X165109200Y-77530000D01*
X162449200Y-74930000D02*
X165109200Y-74930000D01*
X162449200Y-73660000D02*
X162449200Y-72330000D01*
X162449200Y-72330000D02*
X163779200Y-72330000D01*
X152533400Y-87738000D02*
X152533400Y-85388000D01*
X152533400Y-80918000D02*
X152533400Y-83268000D01*
X146777837Y-80918000D02*
X152533400Y-80918000D01*
X146777837Y-87738000D02*
X152533400Y-87738000D01*
X145713400Y-86673563D02*
X145713400Y-85388000D01*
X145713400Y-81982437D02*
X145713400Y-83268000D01*
X145713400Y-81982437D02*
X146777837Y-80918000D01*
X145713400Y-86673563D02*
X146777837Y-87738000D01*
X144685900Y-82480500D02*
X145473400Y-82480500D01*
X145079650Y-82086750D02*
X145079650Y-82874250D01*
X102676400Y-73034000D02*
X103876400Y-73034000D01*
X103876400Y-74794000D02*
X102676400Y-74794000D01*
X96885200Y-58073400D02*
X98085200Y-58073400D01*
X98085200Y-59833400D02*
X96885200Y-59833400D01*
X101838200Y-58073400D02*
X103038200Y-58073400D01*
X103038200Y-59833400D02*
X101838200Y-59833400D01*
X129556200Y-87728100D02*
X132216200Y-87728100D01*
X129556200Y-87668100D02*
X129556200Y-87728100D01*
X132216200Y-87668100D02*
X132216200Y-87728100D01*
X129556200Y-87668100D02*
X132216200Y-87668100D01*
X129556200Y-86398100D02*
X129556200Y-85068100D01*
X129556200Y-85068100D02*
X130886200Y-85068100D01*
X91253000Y-84395000D02*
X92583000Y-84395000D01*
X91253000Y-85725000D02*
X91253000Y-84395000D01*
X91253000Y-86995000D02*
X93913000Y-86995000D01*
X93913000Y-86995000D02*
X93913000Y-87055000D01*
X91253000Y-86995000D02*
X91253000Y-87055000D01*
X91253000Y-87055000D02*
X93913000Y-87055000D01*
X111065000Y-87055000D02*
X113725000Y-87055000D01*
X111065000Y-86995000D02*
X111065000Y-87055000D01*
X113725000Y-86995000D02*
X113725000Y-87055000D01*
X111065000Y-86995000D02*
X113725000Y-86995000D01*
X111065000Y-85725000D02*
X111065000Y-84395000D01*
X111065000Y-84395000D02*
X112395000Y-84395000D01*
D15*
X133589733Y-72029580D02*
X133113542Y-72029580D01*
X133113542Y-71029580D01*
X134446876Y-72029580D02*
X133875447Y-72029580D01*
X134161161Y-72029580D02*
X134161161Y-71029580D01*
X134065923Y-71172438D01*
X133970685Y-71267676D01*
X133875447Y-71315295D01*
X112234742Y-68930780D02*
X111901409Y-68454590D01*
X111663314Y-68930780D02*
X111663314Y-67930780D01*
X112044266Y-67930780D01*
X112139504Y-67978400D01*
X112187123Y-68026019D01*
X112234742Y-68121257D01*
X112234742Y-68264114D01*
X112187123Y-68359352D01*
X112139504Y-68406971D01*
X112044266Y-68454590D01*
X111663314Y-68454590D01*
X113187123Y-68930780D02*
X112615695Y-68930780D01*
X112901409Y-68930780D02*
X112901409Y-67930780D01*
X112806171Y-68073638D01*
X112710933Y-68168876D01*
X112615695Y-68216495D01*
X114139504Y-68930780D02*
X113568076Y-68930780D01*
X113853790Y-68930780D02*
X113853790Y-67930780D01*
X113758552Y-68073638D01*
X113663314Y-68168876D01*
X113568076Y-68216495D01*
X118935714Y-92392380D02*
X118935714Y-91392380D01*
X119269047Y-92106666D01*
X119602380Y-91392380D01*
X119602380Y-92392380D01*
X119935714Y-91392380D02*
X120507142Y-91392380D01*
X120221428Y-92392380D02*
X120221428Y-91392380D01*
X120840476Y-92392380D02*
X120840476Y-91392380D01*
X120840476Y-91868571D02*
X121411904Y-91868571D01*
X121411904Y-92392380D02*
X121411904Y-91392380D01*
X122364285Y-91392380D02*
X121888095Y-91392380D01*
X121840476Y-91868571D01*
X121888095Y-91820952D01*
X121983333Y-91773333D01*
X122221428Y-91773333D01*
X122316666Y-91820952D01*
X122364285Y-91868571D01*
X122411904Y-91963809D01*
X122411904Y-92201904D01*
X122364285Y-92297142D01*
X122316666Y-92344761D01*
X122221428Y-92392380D01*
X121983333Y-92392380D01*
X121888095Y-92344761D01*
X121840476Y-92297142D01*
X132373642Y-57615057D02*
X132421261Y-57662676D01*
X132468880Y-57805533D01*
X132468880Y-57900771D01*
X132421261Y-58043628D01*
X132326023Y-58138866D01*
X132230785Y-58186485D01*
X132040309Y-58234104D01*
X131897452Y-58234104D01*
X131706976Y-58186485D01*
X131611738Y-58138866D01*
X131516500Y-58043628D01*
X131468880Y-57900771D01*
X131468880Y-57805533D01*
X131516500Y-57662676D01*
X131564119Y-57615057D01*
X132468880Y-56662676D02*
X132468880Y-57234104D01*
X132468880Y-56948390D02*
X131468880Y-56948390D01*
X131611738Y-57043628D01*
X131706976Y-57138866D01*
X131754595Y-57234104D01*
X132468880Y-55710295D02*
X132468880Y-56281723D01*
X132468880Y-55996009D02*
X131468880Y-55996009D01*
X131611738Y-56091247D01*
X131706976Y-56186485D01*
X131754595Y-56281723D01*
X122417842Y-60561457D02*
X122465461Y-60609076D01*
X122513080Y-60751933D01*
X122513080Y-60847171D01*
X122465461Y-60990028D01*
X122370223Y-61085266D01*
X122274985Y-61132885D01*
X122084509Y-61180504D01*
X121941652Y-61180504D01*
X121751176Y-61132885D01*
X121655938Y-61085266D01*
X121560700Y-60990028D01*
X121513080Y-60847171D01*
X121513080Y-60751933D01*
X121560700Y-60609076D01*
X121608319Y-60561457D01*
X122513080Y-59609076D02*
X122513080Y-60180504D01*
X122513080Y-59894790D02*
X121513080Y-59894790D01*
X121655938Y-59990028D01*
X121751176Y-60085266D01*
X121798795Y-60180504D01*
X121608319Y-59228123D02*
X121560700Y-59180504D01*
X121513080Y-59085266D01*
X121513080Y-58847171D01*
X121560700Y-58751933D01*
X121608319Y-58704314D01*
X121703557Y-58656695D01*
X121798795Y-58656695D01*
X121941652Y-58704314D01*
X122513080Y-59275742D01*
X122513080Y-58656695D01*
X130637042Y-65584342D02*
X130589423Y-65631961D01*
X130446566Y-65679580D01*
X130351328Y-65679580D01*
X130208471Y-65631961D01*
X130113233Y-65536723D01*
X130065614Y-65441485D01*
X130017995Y-65251009D01*
X130017995Y-65108152D01*
X130065614Y-64917676D01*
X130113233Y-64822438D01*
X130208471Y-64727200D01*
X130351328Y-64679580D01*
X130446566Y-64679580D01*
X130589423Y-64727200D01*
X130637042Y-64774819D01*
X131589423Y-65679580D02*
X131017995Y-65679580D01*
X131303709Y-65679580D02*
X131303709Y-64679580D01*
X131208471Y-64822438D01*
X131113233Y-64917676D01*
X131017995Y-64965295D01*
X131922757Y-64679580D02*
X132541804Y-64679580D01*
X132208471Y-65060533D01*
X132351328Y-65060533D01*
X132446566Y-65108152D01*
X132494185Y-65155771D01*
X132541804Y-65251009D01*
X132541804Y-65489104D01*
X132494185Y-65584342D01*
X132446566Y-65631961D01*
X132351328Y-65679580D01*
X132065614Y-65679580D01*
X131970376Y-65631961D01*
X131922757Y-65584342D01*
X125291861Y-67400419D02*
X125196623Y-67352800D01*
X125101385Y-67257561D01*
X124958528Y-67114704D01*
X124863290Y-67067085D01*
X124768052Y-67067085D01*
X124815671Y-67305180D02*
X124720433Y-67257561D01*
X124625195Y-67162323D01*
X124577576Y-66971847D01*
X124577576Y-66638514D01*
X124625195Y-66448038D01*
X124720433Y-66352800D01*
X124815671Y-66305180D01*
X125006147Y-66305180D01*
X125101385Y-66352800D01*
X125196623Y-66448038D01*
X125244242Y-66638514D01*
X125244242Y-66971847D01*
X125196623Y-67162323D01*
X125101385Y-67257561D01*
X125006147Y-67305180D01*
X124815671Y-67305180D01*
X126196623Y-67305180D02*
X125625195Y-67305180D01*
X125910909Y-67305180D02*
X125910909Y-66305180D01*
X125815671Y-66448038D01*
X125720433Y-66543276D01*
X125625195Y-66590895D01*
X83653333Y-67764180D02*
X83320000Y-67287990D01*
X83081904Y-67764180D02*
X83081904Y-66764180D01*
X83462857Y-66764180D01*
X83558095Y-66811800D01*
X83605714Y-66859419D01*
X83653333Y-66954657D01*
X83653333Y-67097514D01*
X83605714Y-67192752D01*
X83558095Y-67240371D01*
X83462857Y-67287990D01*
X83081904Y-67287990D01*
X84605714Y-67764180D02*
X84034285Y-67764180D01*
X84320000Y-67764180D02*
X84320000Y-66764180D01*
X84224761Y-66907038D01*
X84129523Y-67002276D01*
X84034285Y-67049895D01*
X83653333Y-73274180D02*
X83320000Y-72797990D01*
X83081904Y-73274180D02*
X83081904Y-72274180D01*
X83462857Y-72274180D01*
X83558095Y-72321800D01*
X83605714Y-72369419D01*
X83653333Y-72464657D01*
X83653333Y-72607514D01*
X83605714Y-72702752D01*
X83558095Y-72750371D01*
X83462857Y-72797990D01*
X83081904Y-72797990D01*
X84034285Y-72369419D02*
X84081904Y-72321800D01*
X84177142Y-72274180D01*
X84415238Y-72274180D01*
X84510476Y-72321800D01*
X84558095Y-72369419D01*
X84605714Y-72464657D01*
X84605714Y-72559895D01*
X84558095Y-72702752D01*
X83986666Y-73274180D01*
X84605714Y-73274180D01*
X141565333Y-71623180D02*
X141232000Y-71146990D01*
X140993904Y-71623180D02*
X140993904Y-70623180D01*
X141374857Y-70623180D01*
X141470095Y-70670800D01*
X141517714Y-70718419D01*
X141565333Y-70813657D01*
X141565333Y-70956514D01*
X141517714Y-71051752D01*
X141470095Y-71099371D01*
X141374857Y-71146990D01*
X140993904Y-71146990D01*
X141898666Y-70623180D02*
X142517714Y-70623180D01*
X142184380Y-71004133D01*
X142327238Y-71004133D01*
X142422476Y-71051752D01*
X142470095Y-71099371D01*
X142517714Y-71194609D01*
X142517714Y-71432704D01*
X142470095Y-71527942D01*
X142422476Y-71575561D01*
X142327238Y-71623180D01*
X142041523Y-71623180D01*
X141946285Y-71575561D01*
X141898666Y-71527942D01*
X148778933Y-72791580D02*
X148302742Y-72791580D01*
X148302742Y-71791580D01*
X149017028Y-71791580D02*
X149636076Y-71791580D01*
X149302742Y-72172533D01*
X149445600Y-72172533D01*
X149540838Y-72220152D01*
X149588457Y-72267771D01*
X149636076Y-72363009D01*
X149636076Y-72601104D01*
X149588457Y-72696342D01*
X149540838Y-72743961D01*
X149445600Y-72791580D01*
X149159885Y-72791580D01*
X149064647Y-72743961D01*
X149017028Y-72696342D01*
X131151333Y-78074780D02*
X130818000Y-77598590D01*
X130579904Y-78074780D02*
X130579904Y-77074780D01*
X130960857Y-77074780D01*
X131056095Y-77122400D01*
X131103714Y-77170019D01*
X131151333Y-77265257D01*
X131151333Y-77408114D01*
X131103714Y-77503352D01*
X131056095Y-77550971D01*
X130960857Y-77598590D01*
X130579904Y-77598590D01*
X132056095Y-77074780D02*
X131579904Y-77074780D01*
X131532285Y-77550971D01*
X131579904Y-77503352D01*
X131675142Y-77455733D01*
X131913238Y-77455733D01*
X132008476Y-77503352D01*
X132056095Y-77550971D01*
X132103714Y-77646209D01*
X132103714Y-77884304D01*
X132056095Y-77979542D01*
X132008476Y-78027161D01*
X131913238Y-78074780D01*
X131675142Y-78074780D01*
X131579904Y-78027161D01*
X131532285Y-77979542D01*
X131151333Y-80055980D02*
X130818000Y-79579790D01*
X130579904Y-80055980D02*
X130579904Y-79055980D01*
X130960857Y-79055980D01*
X131056095Y-79103600D01*
X131103714Y-79151219D01*
X131151333Y-79246457D01*
X131151333Y-79389314D01*
X131103714Y-79484552D01*
X131056095Y-79532171D01*
X130960857Y-79579790D01*
X130579904Y-79579790D01*
X132008476Y-79055980D02*
X131818000Y-79055980D01*
X131722761Y-79103600D01*
X131675142Y-79151219D01*
X131579904Y-79294076D01*
X131532285Y-79484552D01*
X131532285Y-79865504D01*
X131579904Y-79960742D01*
X131627523Y-80008361D01*
X131722761Y-80055980D01*
X131913238Y-80055980D01*
X132008476Y-80008361D01*
X132056095Y-79960742D01*
X132103714Y-79865504D01*
X132103714Y-79627409D01*
X132056095Y-79532171D01*
X132008476Y-79484552D01*
X131913238Y-79436933D01*
X131722761Y-79436933D01*
X131627523Y-79484552D01*
X131579904Y-79532171D01*
X131532285Y-79627409D01*
X134627880Y-57596066D02*
X134151690Y-57929400D01*
X134627880Y-58167495D02*
X133627880Y-58167495D01*
X133627880Y-57786542D01*
X133675500Y-57691304D01*
X133723119Y-57643685D01*
X133818357Y-57596066D01*
X133961214Y-57596066D01*
X134056452Y-57643685D01*
X134104071Y-57691304D01*
X134151690Y-57786542D01*
X134151690Y-58167495D01*
X133627880Y-57262733D02*
X133627880Y-56596066D01*
X134627880Y-57024638D01*
X124179033Y-65628780D02*
X123845700Y-65152590D01*
X123607604Y-65628780D02*
X123607604Y-64628780D01*
X123988557Y-64628780D01*
X124083795Y-64676400D01*
X124131414Y-64724019D01*
X124179033Y-64819257D01*
X124179033Y-64962114D01*
X124131414Y-65057352D01*
X124083795Y-65104971D01*
X123988557Y-65152590D01*
X123607604Y-65152590D01*
X124750461Y-65057352D02*
X124655223Y-65009733D01*
X124607604Y-64962114D01*
X124559985Y-64866876D01*
X124559985Y-64819257D01*
X124607604Y-64724019D01*
X124655223Y-64676400D01*
X124750461Y-64628780D01*
X124940938Y-64628780D01*
X125036176Y-64676400D01*
X125083795Y-64724019D01*
X125131414Y-64819257D01*
X125131414Y-64866876D01*
X125083795Y-64962114D01*
X125036176Y-65009733D01*
X124940938Y-65057352D01*
X124750461Y-65057352D01*
X124655223Y-65104971D01*
X124607604Y-65152590D01*
X124559985Y-65247828D01*
X124559985Y-65438304D01*
X124607604Y-65533542D01*
X124655223Y-65581161D01*
X124750461Y-65628780D01*
X124940938Y-65628780D01*
X125036176Y-65581161D01*
X125083795Y-65533542D01*
X125131414Y-65438304D01*
X125131414Y-65247828D01*
X125083795Y-65152590D01*
X125036176Y-65104971D01*
X124940938Y-65057352D01*
X143063980Y-67487704D02*
X143873504Y-67487704D01*
X143968742Y-67440085D01*
X144016361Y-67392466D01*
X144063980Y-67297228D01*
X144063980Y-67106752D01*
X144016361Y-67011514D01*
X143968742Y-66963895D01*
X143873504Y-66916276D01*
X143063980Y-66916276D01*
X144063980Y-65916276D02*
X144063980Y-66487704D01*
X144063980Y-66201990D02*
X143063980Y-66201990D01*
X143206838Y-66297228D01*
X143302076Y-66392466D01*
X143349695Y-66487704D01*
X127165195Y-62151180D02*
X127165195Y-62960704D01*
X127212814Y-63055942D01*
X127260433Y-63103561D01*
X127355671Y-63151180D01*
X127546147Y-63151180D01*
X127641385Y-63103561D01*
X127689004Y-63055942D01*
X127736623Y-62960704D01*
X127736623Y-62151180D01*
X128117576Y-62151180D02*
X128736623Y-62151180D01*
X128403290Y-62532133D01*
X128546147Y-62532133D01*
X128641385Y-62579752D01*
X128689004Y-62627371D01*
X128736623Y-62722609D01*
X128736623Y-62960704D01*
X128689004Y-63055942D01*
X128641385Y-63103561D01*
X128546147Y-63151180D01*
X128260433Y-63151180D01*
X128165195Y-63103561D01*
X128117576Y-63055942D01*
X121905733Y-67997342D02*
X121858114Y-68044961D01*
X121715257Y-68092580D01*
X121620019Y-68092580D01*
X121477161Y-68044961D01*
X121381923Y-67949723D01*
X121334304Y-67854485D01*
X121286685Y-67664009D01*
X121286685Y-67521152D01*
X121334304Y-67330676D01*
X121381923Y-67235438D01*
X121477161Y-67140200D01*
X121620019Y-67092580D01*
X121715257Y-67092580D01*
X121858114Y-67140200D01*
X121905733Y-67187819D01*
X122286685Y-67187819D02*
X122334304Y-67140200D01*
X122429542Y-67092580D01*
X122667638Y-67092580D01*
X122762876Y-67140200D01*
X122810495Y-67187819D01*
X122858114Y-67283057D01*
X122858114Y-67378295D01*
X122810495Y-67521152D01*
X122239066Y-68092580D01*
X122858114Y-68092580D01*
X119787942Y-80847057D02*
X119835561Y-80894676D01*
X119883180Y-81037533D01*
X119883180Y-81132771D01*
X119835561Y-81275628D01*
X119740323Y-81370866D01*
X119645085Y-81418485D01*
X119454609Y-81466104D01*
X119311752Y-81466104D01*
X119121276Y-81418485D01*
X119026038Y-81370866D01*
X118930800Y-81275628D01*
X118883180Y-81132771D01*
X118883180Y-81037533D01*
X118930800Y-80894676D01*
X118978419Y-80847057D01*
X119883180Y-79894676D02*
X119883180Y-80466104D01*
X119883180Y-80180390D02*
X118883180Y-80180390D01*
X119026038Y-80275628D01*
X119121276Y-80370866D01*
X119168895Y-80466104D01*
X118883180Y-79275628D02*
X118883180Y-79180390D01*
X118930800Y-79085152D01*
X118978419Y-79037533D01*
X119073657Y-78989914D01*
X119264133Y-78942295D01*
X119502228Y-78942295D01*
X119692704Y-78989914D01*
X119787942Y-79037533D01*
X119835561Y-79085152D01*
X119883180Y-79180390D01*
X119883180Y-79275628D01*
X119835561Y-79370866D01*
X119787942Y-79418485D01*
X119692704Y-79466104D01*
X119502228Y-79513723D01*
X119264133Y-79513723D01*
X119073657Y-79466104D01*
X118978419Y-79418485D01*
X118930800Y-79370866D01*
X118883180Y-79275628D01*
X117578142Y-80938666D02*
X117625761Y-80986285D01*
X117673380Y-81129142D01*
X117673380Y-81224380D01*
X117625761Y-81367238D01*
X117530523Y-81462476D01*
X117435285Y-81510095D01*
X117244809Y-81557714D01*
X117101952Y-81557714D01*
X116911476Y-81510095D01*
X116816238Y-81462476D01*
X116721000Y-81367238D01*
X116673380Y-81224380D01*
X116673380Y-81129142D01*
X116721000Y-80986285D01*
X116768619Y-80938666D01*
X117006714Y-80081523D02*
X117673380Y-80081523D01*
X116625761Y-80319619D02*
X117340047Y-80557714D01*
X117340047Y-79938666D01*
X100296742Y-61037742D02*
X100249123Y-61085361D01*
X100106266Y-61132980D01*
X100011028Y-61132980D01*
X99868171Y-61085361D01*
X99772933Y-60990123D01*
X99725314Y-60894885D01*
X99677695Y-60704409D01*
X99677695Y-60561552D01*
X99725314Y-60371076D01*
X99772933Y-60275838D01*
X99868171Y-60180600D01*
X100011028Y-60132980D01*
X100106266Y-60132980D01*
X100249123Y-60180600D01*
X100296742Y-60228219D01*
X101249123Y-61132980D02*
X100677695Y-61132980D01*
X100963409Y-61132980D02*
X100963409Y-60132980D01*
X100868171Y-60275838D01*
X100772933Y-60371076D01*
X100677695Y-60418695D01*
X102153885Y-60132980D02*
X101677695Y-60132980D01*
X101630076Y-60609171D01*
X101677695Y-60561552D01*
X101772933Y-60513933D01*
X102011028Y-60513933D01*
X102106266Y-60561552D01*
X102153885Y-60609171D01*
X102201504Y-60704409D01*
X102201504Y-60942504D01*
X102153885Y-61037742D01*
X102106266Y-61085361D01*
X102011028Y-61132980D01*
X101772933Y-61132980D01*
X101677695Y-61085361D01*
X101630076Y-61037742D01*
X96893142Y-61113942D02*
X96845523Y-61161561D01*
X96702666Y-61209180D01*
X96607428Y-61209180D01*
X96464571Y-61161561D01*
X96369333Y-61066323D01*
X96321714Y-60971085D01*
X96274095Y-60780609D01*
X96274095Y-60637752D01*
X96321714Y-60447276D01*
X96369333Y-60352038D01*
X96464571Y-60256800D01*
X96607428Y-60209180D01*
X96702666Y-60209180D01*
X96845523Y-60256800D01*
X96893142Y-60304419D01*
X97845523Y-61209180D02*
X97274095Y-61209180D01*
X97559809Y-61209180D02*
X97559809Y-60209180D01*
X97464571Y-60352038D01*
X97369333Y-60447276D01*
X97274095Y-60494895D01*
X98321714Y-61209180D02*
X98512190Y-61209180D01*
X98607428Y-61161561D01*
X98655047Y-61113942D01*
X98750285Y-60971085D01*
X98797904Y-60780609D01*
X98797904Y-60399657D01*
X98750285Y-60304419D01*
X98702666Y-60256800D01*
X98607428Y-60209180D01*
X98416952Y-60209180D01*
X98321714Y-60256800D01*
X98274095Y-60304419D01*
X98226476Y-60399657D01*
X98226476Y-60637752D01*
X98274095Y-60732990D01*
X98321714Y-60780609D01*
X98416952Y-60828228D01*
X98607428Y-60828228D01*
X98702666Y-60780609D01*
X98750285Y-60732990D01*
X98797904Y-60637752D01*
X122616933Y-81298780D02*
X122283600Y-80822590D01*
X122045504Y-81298780D02*
X122045504Y-80298780D01*
X122426457Y-80298780D01*
X122521695Y-80346400D01*
X122569314Y-80394019D01*
X122616933Y-80489257D01*
X122616933Y-80632114D01*
X122569314Y-80727352D01*
X122521695Y-80774971D01*
X122426457Y-80822590D01*
X122045504Y-80822590D01*
X123093123Y-81298780D02*
X123283600Y-81298780D01*
X123378838Y-81251161D01*
X123426457Y-81203542D01*
X123521695Y-81060685D01*
X123569314Y-80870209D01*
X123569314Y-80489257D01*
X123521695Y-80394019D01*
X123474076Y-80346400D01*
X123378838Y-80298780D01*
X123188361Y-80298780D01*
X123093123Y-80346400D01*
X123045504Y-80394019D01*
X122997885Y-80489257D01*
X122997885Y-80727352D01*
X123045504Y-80822590D01*
X123093123Y-80870209D01*
X123188361Y-80917828D01*
X123378838Y-80917828D01*
X123474076Y-80870209D01*
X123521695Y-80822590D01*
X123569314Y-80727352D01*
X131132342Y-82316580D02*
X130799009Y-81840390D01*
X130560914Y-82316580D02*
X130560914Y-81316580D01*
X130941866Y-81316580D01*
X131037104Y-81364200D01*
X131084723Y-81411819D01*
X131132342Y-81507057D01*
X131132342Y-81649914D01*
X131084723Y-81745152D01*
X131037104Y-81792771D01*
X130941866Y-81840390D01*
X130560914Y-81840390D01*
X132084723Y-82316580D02*
X131513295Y-82316580D01*
X131799009Y-82316580D02*
X131799009Y-81316580D01*
X131703771Y-81459438D01*
X131608533Y-81554676D01*
X131513295Y-81602295D01*
X132703771Y-81316580D02*
X132799009Y-81316580D01*
X132894247Y-81364200D01*
X132941866Y-81411819D01*
X132989485Y-81507057D01*
X133037104Y-81697533D01*
X133037104Y-81935628D01*
X132989485Y-82126104D01*
X132941866Y-82221342D01*
X132894247Y-82268961D01*
X132799009Y-82316580D01*
X132703771Y-82316580D01*
X132608533Y-82268961D01*
X132560914Y-82221342D01*
X132513295Y-82126104D01*
X132465676Y-81935628D01*
X132465676Y-81697533D01*
X132513295Y-81507057D01*
X132560914Y-81411819D01*
X132608533Y-81364200D01*
X132703771Y-81316580D01*
X109545380Y-76004657D02*
X109069190Y-76337990D01*
X109545380Y-76576085D02*
X108545380Y-76576085D01*
X108545380Y-76195133D01*
X108593000Y-76099895D01*
X108640619Y-76052276D01*
X108735857Y-76004657D01*
X108878714Y-76004657D01*
X108973952Y-76052276D01*
X109021571Y-76099895D01*
X109069190Y-76195133D01*
X109069190Y-76576085D01*
X109545380Y-75052276D02*
X109545380Y-75623704D01*
X109545380Y-75337990D02*
X108545380Y-75337990D01*
X108688238Y-75433228D01*
X108783476Y-75528466D01*
X108831095Y-75623704D01*
X108640619Y-74671323D02*
X108593000Y-74623704D01*
X108545380Y-74528466D01*
X108545380Y-74290371D01*
X108593000Y-74195133D01*
X108640619Y-74147514D01*
X108735857Y-74099895D01*
X108831095Y-74099895D01*
X108973952Y-74147514D01*
X109545380Y-74718942D01*
X109545380Y-74099895D01*
X104513142Y-85085180D02*
X104179809Y-84608990D01*
X103941714Y-85085180D02*
X103941714Y-84085180D01*
X104322666Y-84085180D01*
X104417904Y-84132800D01*
X104465523Y-84180419D01*
X104513142Y-84275657D01*
X104513142Y-84418514D01*
X104465523Y-84513752D01*
X104417904Y-84561371D01*
X104322666Y-84608990D01*
X103941714Y-84608990D01*
X105465523Y-85085180D02*
X104894095Y-85085180D01*
X105179809Y-85085180D02*
X105179809Y-84085180D01*
X105084571Y-84228038D01*
X104989333Y-84323276D01*
X104894095Y-84370895D01*
X105798857Y-84085180D02*
X106417904Y-84085180D01*
X106084571Y-84466133D01*
X106227428Y-84466133D01*
X106322666Y-84513752D01*
X106370285Y-84561371D01*
X106417904Y-84656609D01*
X106417904Y-84894704D01*
X106370285Y-84989942D01*
X106322666Y-85037561D01*
X106227428Y-85085180D01*
X105941714Y-85085180D01*
X105846476Y-85037561D01*
X105798857Y-84989942D01*
X103166942Y-78961980D02*
X102833609Y-78485790D01*
X102595514Y-78961980D02*
X102595514Y-77961980D01*
X102976466Y-77961980D01*
X103071704Y-78009600D01*
X103119323Y-78057219D01*
X103166942Y-78152457D01*
X103166942Y-78295314D01*
X103119323Y-78390552D01*
X103071704Y-78438171D01*
X102976466Y-78485790D01*
X102595514Y-78485790D01*
X104119323Y-78961980D02*
X103547895Y-78961980D01*
X103833609Y-78961980D02*
X103833609Y-77961980D01*
X103738371Y-78104838D01*
X103643133Y-78200076D01*
X103547895Y-78247695D01*
X104976466Y-78295314D02*
X104976466Y-78961980D01*
X104738371Y-77914361D02*
X104500276Y-78628647D01*
X105119323Y-78628647D01*
X93807019Y-76141342D02*
X94283209Y-75808009D01*
X93807019Y-75569914D02*
X94807019Y-75569914D01*
X94807019Y-75950866D01*
X94759400Y-76046104D01*
X94711780Y-76093723D01*
X94616542Y-76141342D01*
X94473685Y-76141342D01*
X94378447Y-76093723D01*
X94330828Y-76046104D01*
X94283209Y-75950866D01*
X94283209Y-75569914D01*
X93807019Y-77093723D02*
X93807019Y-76522295D01*
X93807019Y-76808009D02*
X94807019Y-76808009D01*
X94664161Y-76712771D01*
X94568923Y-76617533D01*
X94521304Y-76522295D01*
X94807019Y-77998485D02*
X94807019Y-77522295D01*
X94330828Y-77474676D01*
X94378447Y-77522295D01*
X94426066Y-77617533D01*
X94426066Y-77855628D01*
X94378447Y-77950866D01*
X94330828Y-77998485D01*
X94235590Y-78046104D01*
X93997495Y-78046104D01*
X93902257Y-77998485D01*
X93854638Y-77950866D01*
X93807019Y-77855628D01*
X93807019Y-77617533D01*
X93854638Y-77522295D01*
X93902257Y-77474676D01*
X118694295Y-73493380D02*
X118694295Y-74302904D01*
X118741914Y-74398142D01*
X118789533Y-74445761D01*
X118884771Y-74493380D01*
X119075247Y-74493380D01*
X119170485Y-74445761D01*
X119218104Y-74398142D01*
X119265723Y-74302904D01*
X119265723Y-73493380D01*
X119694295Y-73588619D02*
X119741914Y-73541000D01*
X119837152Y-73493380D01*
X120075247Y-73493380D01*
X120170485Y-73541000D01*
X120218104Y-73588619D01*
X120265723Y-73683857D01*
X120265723Y-73779095D01*
X120218104Y-73921952D01*
X119646676Y-74493380D01*
X120265723Y-74493380D01*
X118935595Y-85621880D02*
X118935595Y-86431404D01*
X118983214Y-86526642D01*
X119030833Y-86574261D01*
X119126071Y-86621880D01*
X119316547Y-86621880D01*
X119411785Y-86574261D01*
X119459404Y-86526642D01*
X119507023Y-86431404D01*
X119507023Y-85621880D01*
X120459404Y-85621880D02*
X119983214Y-85621880D01*
X119935595Y-86098071D01*
X119983214Y-86050452D01*
X120078452Y-86002833D01*
X120316547Y-86002833D01*
X120411785Y-86050452D01*
X120459404Y-86098071D01*
X120507023Y-86193309D01*
X120507023Y-86431404D01*
X120459404Y-86526642D01*
X120411785Y-86574261D01*
X120316547Y-86621880D01*
X120078452Y-86621880D01*
X119983214Y-86574261D01*
X119935595Y-86526642D01*
X114869980Y-67132104D02*
X115679504Y-67132104D01*
X115774742Y-67084485D01*
X115822361Y-67036866D01*
X115869980Y-66941628D01*
X115869980Y-66751152D01*
X115822361Y-66655914D01*
X115774742Y-66608295D01*
X115679504Y-66560676D01*
X114869980Y-66560676D01*
X114869980Y-65655914D02*
X114869980Y-65846390D01*
X114917600Y-65941628D01*
X114965219Y-65989247D01*
X115108076Y-66084485D01*
X115298552Y-66132104D01*
X115679504Y-66132104D01*
X115774742Y-66084485D01*
X115822361Y-66036866D01*
X115869980Y-65941628D01*
X115869980Y-65751152D01*
X115822361Y-65655914D01*
X115774742Y-65608295D01*
X115679504Y-65560676D01*
X115441409Y-65560676D01*
X115346171Y-65608295D01*
X115298552Y-65655914D01*
X115250933Y-65751152D01*
X115250933Y-65941628D01*
X115298552Y-66036866D01*
X115346171Y-66084485D01*
X115441409Y-66132104D01*
X107569095Y-78573380D02*
X107569095Y-79382904D01*
X107616714Y-79478142D01*
X107664333Y-79525761D01*
X107759571Y-79573380D01*
X107950047Y-79573380D01*
X108045285Y-79525761D01*
X108092904Y-79478142D01*
X108140523Y-79382904D01*
X108140523Y-78573380D01*
X108521476Y-78573380D02*
X109188142Y-78573380D01*
X108759571Y-79573380D01*
X98120295Y-76973180D02*
X98120295Y-77782704D01*
X98167914Y-77877942D01*
X98215533Y-77925561D01*
X98310771Y-77973180D01*
X98501247Y-77973180D01*
X98596485Y-77925561D01*
X98644104Y-77877942D01*
X98691723Y-77782704D01*
X98691723Y-76973180D01*
X99310771Y-77401752D02*
X99215533Y-77354133D01*
X99167914Y-77306514D01*
X99120295Y-77211276D01*
X99120295Y-77163657D01*
X99167914Y-77068419D01*
X99215533Y-77020800D01*
X99310771Y-76973180D01*
X99501247Y-76973180D01*
X99596485Y-77020800D01*
X99644104Y-77068419D01*
X99691723Y-77163657D01*
X99691723Y-77211276D01*
X99644104Y-77306514D01*
X99596485Y-77354133D01*
X99501247Y-77401752D01*
X99310771Y-77401752D01*
X99215533Y-77449371D01*
X99167914Y-77496990D01*
X99120295Y-77592228D01*
X99120295Y-77782704D01*
X99167914Y-77877942D01*
X99215533Y-77925561D01*
X99310771Y-77973180D01*
X99501247Y-77973180D01*
X99596485Y-77925561D01*
X99644104Y-77877942D01*
X99691723Y-77782704D01*
X99691723Y-77592228D01*
X99644104Y-77496990D01*
X99596485Y-77449371D01*
X99501247Y-77401752D01*
X108103942Y-68765657D02*
X108151561Y-68813276D01*
X108199180Y-68956133D01*
X108199180Y-69051371D01*
X108151561Y-69194228D01*
X108056323Y-69289466D01*
X107961085Y-69337085D01*
X107770609Y-69384704D01*
X107627752Y-69384704D01*
X107437276Y-69337085D01*
X107342038Y-69289466D01*
X107246800Y-69194228D01*
X107199180Y-69051371D01*
X107199180Y-68956133D01*
X107246800Y-68813276D01*
X107294419Y-68765657D01*
X108199180Y-67813276D02*
X108199180Y-68384704D01*
X108199180Y-68098990D02*
X107199180Y-68098990D01*
X107342038Y-68194228D01*
X107437276Y-68289466D01*
X107484895Y-68384704D01*
X107199180Y-66956133D02*
X107199180Y-67146609D01*
X107246800Y-67241847D01*
X107294419Y-67289466D01*
X107437276Y-67384704D01*
X107627752Y-67432323D01*
X108008704Y-67432323D01*
X108103942Y-67384704D01*
X108151561Y-67337085D01*
X108199180Y-67241847D01*
X108199180Y-67051371D01*
X108151561Y-66956133D01*
X108103942Y-66908514D01*
X108008704Y-66860895D01*
X107770609Y-66860895D01*
X107675371Y-66908514D01*
X107627752Y-66956133D01*
X107580133Y-67051371D01*
X107580133Y-67241847D01*
X107627752Y-67337085D01*
X107675371Y-67384704D01*
X107770609Y-67432323D01*
X108103942Y-65362057D02*
X108151561Y-65409676D01*
X108199180Y-65552533D01*
X108199180Y-65647771D01*
X108151561Y-65790628D01*
X108056323Y-65885866D01*
X107961085Y-65933485D01*
X107770609Y-65981104D01*
X107627752Y-65981104D01*
X107437276Y-65933485D01*
X107342038Y-65885866D01*
X107246800Y-65790628D01*
X107199180Y-65647771D01*
X107199180Y-65552533D01*
X107246800Y-65409676D01*
X107294419Y-65362057D01*
X108199180Y-64409676D02*
X108199180Y-64981104D01*
X108199180Y-64695390D02*
X107199180Y-64695390D01*
X107342038Y-64790628D01*
X107437276Y-64885866D01*
X107484895Y-64981104D01*
X107199180Y-64076342D02*
X107199180Y-63409676D01*
X108199180Y-63838247D01*
X131979942Y-70296066D02*
X132027561Y-70343685D01*
X132075180Y-70486542D01*
X132075180Y-70581780D01*
X132027561Y-70724638D01*
X131932323Y-70819876D01*
X131837085Y-70867495D01*
X131646609Y-70915114D01*
X131503752Y-70915114D01*
X131313276Y-70867495D01*
X131218038Y-70819876D01*
X131122800Y-70724638D01*
X131075180Y-70581780D01*
X131075180Y-70486542D01*
X131122800Y-70343685D01*
X131170419Y-70296066D01*
X131075180Y-69438923D02*
X131075180Y-69629400D01*
X131122800Y-69724638D01*
X131170419Y-69772257D01*
X131313276Y-69867495D01*
X131503752Y-69915114D01*
X131884704Y-69915114D01*
X131979942Y-69867495D01*
X132027561Y-69819876D01*
X132075180Y-69724638D01*
X132075180Y-69534161D01*
X132027561Y-69438923D01*
X131979942Y-69391304D01*
X131884704Y-69343685D01*
X131646609Y-69343685D01*
X131551371Y-69391304D01*
X131503752Y-69438923D01*
X131456133Y-69534161D01*
X131456133Y-69724638D01*
X131503752Y-69819876D01*
X131551371Y-69867495D01*
X131646609Y-69915114D01*
X144359333Y-78716142D02*
X144311714Y-78763761D01*
X144168857Y-78811380D01*
X144073619Y-78811380D01*
X143930761Y-78763761D01*
X143835523Y-78668523D01*
X143787904Y-78573285D01*
X143740285Y-78382809D01*
X143740285Y-78239952D01*
X143787904Y-78049476D01*
X143835523Y-77954238D01*
X143930761Y-77859000D01*
X144073619Y-77811380D01*
X144168857Y-77811380D01*
X144311714Y-77859000D01*
X144359333Y-77906619D01*
X144930761Y-78239952D02*
X144835523Y-78192333D01*
X144787904Y-78144714D01*
X144740285Y-78049476D01*
X144740285Y-78001857D01*
X144787904Y-77906619D01*
X144835523Y-77859000D01*
X144930761Y-77811380D01*
X145121238Y-77811380D01*
X145216476Y-77859000D01*
X145264095Y-77906619D01*
X145311714Y-78001857D01*
X145311714Y-78049476D01*
X145264095Y-78144714D01*
X145216476Y-78192333D01*
X145121238Y-78239952D01*
X144930761Y-78239952D01*
X144835523Y-78287571D01*
X144787904Y-78335190D01*
X144740285Y-78430428D01*
X144740285Y-78620904D01*
X144787904Y-78716142D01*
X144835523Y-78763761D01*
X144930761Y-78811380D01*
X145121238Y-78811380D01*
X145216476Y-78763761D01*
X145264095Y-78716142D01*
X145311714Y-78620904D01*
X145311714Y-78430428D01*
X145264095Y-78335190D01*
X145216476Y-78287571D01*
X145121238Y-78239952D01*
X90816133Y-64212742D02*
X90768514Y-64260361D01*
X90625657Y-64307980D01*
X90530419Y-64307980D01*
X90387561Y-64260361D01*
X90292323Y-64165123D01*
X90244704Y-64069885D01*
X90197085Y-63879409D01*
X90197085Y-63736552D01*
X90244704Y-63546076D01*
X90292323Y-63450838D01*
X90387561Y-63355600D01*
X90530419Y-63307980D01*
X90625657Y-63307980D01*
X90768514Y-63355600D01*
X90816133Y-63403219D01*
X91768514Y-64307980D02*
X91197085Y-64307980D01*
X91482800Y-64307980D02*
X91482800Y-63307980D01*
X91387561Y-63450838D01*
X91292323Y-63546076D01*
X91197085Y-63593695D01*
X118533942Y-72899542D02*
X118486323Y-72947161D01*
X118343466Y-72994780D01*
X118248228Y-72994780D01*
X118105371Y-72947161D01*
X118010133Y-72851923D01*
X117962514Y-72756685D01*
X117914895Y-72566209D01*
X117914895Y-72423352D01*
X117962514Y-72232876D01*
X118010133Y-72137638D01*
X118105371Y-72042400D01*
X118248228Y-71994780D01*
X118343466Y-71994780D01*
X118486323Y-72042400D01*
X118533942Y-72090019D01*
X118914895Y-72090019D02*
X118962514Y-72042400D01*
X119057752Y-71994780D01*
X119295847Y-71994780D01*
X119391085Y-72042400D01*
X119438704Y-72090019D01*
X119486323Y-72185257D01*
X119486323Y-72280495D01*
X119438704Y-72423352D01*
X118867276Y-72994780D01*
X119486323Y-72994780D01*
X119819657Y-71994780D02*
X120438704Y-71994780D01*
X120105371Y-72375733D01*
X120248228Y-72375733D01*
X120343466Y-72423352D01*
X120391085Y-72470971D01*
X120438704Y-72566209D01*
X120438704Y-72804304D01*
X120391085Y-72899542D01*
X120343466Y-72947161D01*
X120248228Y-72994780D01*
X119962514Y-72994780D01*
X119867276Y-72947161D01*
X119819657Y-72899542D01*
X100687142Y-71127857D02*
X100734761Y-71175476D01*
X100782380Y-71318333D01*
X100782380Y-71413571D01*
X100734761Y-71556428D01*
X100639523Y-71651666D01*
X100544285Y-71699285D01*
X100353809Y-71746904D01*
X100210952Y-71746904D01*
X100020476Y-71699285D01*
X99925238Y-71651666D01*
X99830000Y-71556428D01*
X99782380Y-71413571D01*
X99782380Y-71318333D01*
X99830000Y-71175476D01*
X99877619Y-71127857D01*
X100782380Y-70175476D02*
X100782380Y-70746904D01*
X100782380Y-70461190D02*
X99782380Y-70461190D01*
X99925238Y-70556428D01*
X100020476Y-70651666D01*
X100068095Y-70746904D01*
X100115714Y-69318333D02*
X100782380Y-69318333D01*
X99734761Y-69556428D02*
X100449047Y-69794523D01*
X100449047Y-69175476D01*
X94234095Y-63206380D02*
X94234095Y-64015904D01*
X94281714Y-64111142D01*
X94329333Y-64158761D01*
X94424571Y-64206380D01*
X94615047Y-64206380D01*
X94710285Y-64158761D01*
X94757904Y-64111142D01*
X94805523Y-64015904D01*
X94805523Y-63206380D01*
X95710285Y-63539714D02*
X95710285Y-64206380D01*
X95472190Y-63158761D02*
X95234095Y-63873047D01*
X95853142Y-63873047D01*
X136400542Y-69076866D02*
X136448161Y-69124485D01*
X136495780Y-69267342D01*
X136495780Y-69362580D01*
X136448161Y-69505438D01*
X136352923Y-69600676D01*
X136257685Y-69648295D01*
X136067209Y-69695914D01*
X135924352Y-69695914D01*
X135733876Y-69648295D01*
X135638638Y-69600676D01*
X135543400Y-69505438D01*
X135495780Y-69362580D01*
X135495780Y-69267342D01*
X135543400Y-69124485D01*
X135591019Y-69076866D01*
X135495780Y-68743533D02*
X135495780Y-68124485D01*
X135876733Y-68457819D01*
X135876733Y-68314961D01*
X135924352Y-68219723D01*
X135971971Y-68172104D01*
X136067209Y-68124485D01*
X136305304Y-68124485D01*
X136400542Y-68172104D01*
X136448161Y-68219723D01*
X136495780Y-68314961D01*
X136495780Y-68600676D01*
X136448161Y-68695914D01*
X136400542Y-68743533D01*
X109983542Y-62974457D02*
X110031161Y-63022076D01*
X110078780Y-63164933D01*
X110078780Y-63260171D01*
X110031161Y-63403028D01*
X109935923Y-63498266D01*
X109840685Y-63545885D01*
X109650209Y-63593504D01*
X109507352Y-63593504D01*
X109316876Y-63545885D01*
X109221638Y-63498266D01*
X109126400Y-63403028D01*
X109078780Y-63260171D01*
X109078780Y-63164933D01*
X109126400Y-63022076D01*
X109174019Y-62974457D01*
X110078780Y-62022076D02*
X110078780Y-62593504D01*
X110078780Y-62307790D02*
X109078780Y-62307790D01*
X109221638Y-62403028D01*
X109316876Y-62498266D01*
X109364495Y-62593504D01*
X109507352Y-61450647D02*
X109459733Y-61545885D01*
X109412114Y-61593504D01*
X109316876Y-61641123D01*
X109269257Y-61641123D01*
X109174019Y-61593504D01*
X109126400Y-61545885D01*
X109078780Y-61450647D01*
X109078780Y-61260171D01*
X109126400Y-61164933D01*
X109174019Y-61117314D01*
X109269257Y-61069695D01*
X109316876Y-61069695D01*
X109412114Y-61117314D01*
X109459733Y-61164933D01*
X109507352Y-61260171D01*
X109507352Y-61450647D01*
X109554971Y-61545885D01*
X109602590Y-61593504D01*
X109697828Y-61641123D01*
X109888304Y-61641123D01*
X109983542Y-61593504D01*
X110031161Y-61545885D01*
X110078780Y-61450647D01*
X110078780Y-61260171D01*
X110031161Y-61164933D01*
X109983542Y-61117314D01*
X109888304Y-61069695D01*
X109697828Y-61069695D01*
X109602590Y-61117314D01*
X109554971Y-61164933D01*
X109507352Y-61260171D01*
X101820742Y-83948542D02*
X101773123Y-83996161D01*
X101630266Y-84043780D01*
X101535028Y-84043780D01*
X101392171Y-83996161D01*
X101296933Y-83900923D01*
X101249314Y-83805685D01*
X101201695Y-83615209D01*
X101201695Y-83472352D01*
X101249314Y-83281876D01*
X101296933Y-83186638D01*
X101392171Y-83091400D01*
X101535028Y-83043780D01*
X101630266Y-83043780D01*
X101773123Y-83091400D01*
X101820742Y-83139019D01*
X102201695Y-83139019D02*
X102249314Y-83091400D01*
X102344552Y-83043780D01*
X102582647Y-83043780D01*
X102677885Y-83091400D01*
X102725504Y-83139019D01*
X102773123Y-83234257D01*
X102773123Y-83329495D01*
X102725504Y-83472352D01*
X102154076Y-84043780D01*
X102773123Y-84043780D01*
X103392171Y-83043780D02*
X103487409Y-83043780D01*
X103582647Y-83091400D01*
X103630266Y-83139019D01*
X103677885Y-83234257D01*
X103725504Y-83424733D01*
X103725504Y-83662828D01*
X103677885Y-83853304D01*
X103630266Y-83948542D01*
X103582647Y-83996161D01*
X103487409Y-84043780D01*
X103392171Y-84043780D01*
X103296933Y-83996161D01*
X103249314Y-83948542D01*
X103201695Y-83853304D01*
X103154076Y-83662828D01*
X103154076Y-83424733D01*
X103201695Y-83234257D01*
X103249314Y-83139019D01*
X103296933Y-83091400D01*
X103392171Y-83043780D01*
X123817142Y-86488542D02*
X123769523Y-86536161D01*
X123626666Y-86583780D01*
X123531428Y-86583780D01*
X123388571Y-86536161D01*
X123293333Y-86440923D01*
X123245714Y-86345685D01*
X123198095Y-86155209D01*
X123198095Y-86012352D01*
X123245714Y-85821876D01*
X123293333Y-85726638D01*
X123388571Y-85631400D01*
X123531428Y-85583780D01*
X123626666Y-85583780D01*
X123769523Y-85631400D01*
X123817142Y-85679019D01*
X124198095Y-85679019D02*
X124245714Y-85631400D01*
X124340952Y-85583780D01*
X124579047Y-85583780D01*
X124674285Y-85631400D01*
X124721904Y-85679019D01*
X124769523Y-85774257D01*
X124769523Y-85869495D01*
X124721904Y-86012352D01*
X124150476Y-86583780D01*
X124769523Y-86583780D01*
X125721904Y-86583780D02*
X125150476Y-86583780D01*
X125436190Y-86583780D02*
X125436190Y-85583780D01*
X125340952Y-85726638D01*
X125245714Y-85821876D01*
X125150476Y-85869495D01*
X94274642Y-81008457D02*
X94322261Y-81056076D01*
X94369880Y-81198933D01*
X94369880Y-81294171D01*
X94322261Y-81437028D01*
X94227023Y-81532266D01*
X94131785Y-81579885D01*
X93941309Y-81627504D01*
X93798452Y-81627504D01*
X93607976Y-81579885D01*
X93512738Y-81532266D01*
X93417500Y-81437028D01*
X93369880Y-81294171D01*
X93369880Y-81198933D01*
X93417500Y-81056076D01*
X93465119Y-81008457D01*
X93465119Y-80627504D02*
X93417500Y-80579885D01*
X93369880Y-80484647D01*
X93369880Y-80246552D01*
X93417500Y-80151314D01*
X93465119Y-80103695D01*
X93560357Y-80056076D01*
X93655595Y-80056076D01*
X93798452Y-80103695D01*
X94369880Y-80675123D01*
X94369880Y-80056076D01*
X93465119Y-79675123D02*
X93417500Y-79627504D01*
X93369880Y-79532266D01*
X93369880Y-79294171D01*
X93417500Y-79198933D01*
X93465119Y-79151314D01*
X93560357Y-79103695D01*
X93655595Y-79103695D01*
X93798452Y-79151314D01*
X94369880Y-79722742D01*
X94369880Y-79103695D01*
X159361142Y-94273666D02*
X159408761Y-94321285D01*
X159456380Y-94464142D01*
X159456380Y-94559380D01*
X159408761Y-94702238D01*
X159313523Y-94797476D01*
X159218285Y-94845095D01*
X159027809Y-94892714D01*
X158884952Y-94892714D01*
X158694476Y-94845095D01*
X158599238Y-94797476D01*
X158504000Y-94702238D01*
X158456380Y-94559380D01*
X158456380Y-94464142D01*
X158504000Y-94321285D01*
X158551619Y-94273666D01*
X158456380Y-93368904D02*
X158456380Y-93845095D01*
X158932571Y-93892714D01*
X158884952Y-93845095D01*
X158837333Y-93749857D01*
X158837333Y-93511761D01*
X158884952Y-93416523D01*
X158932571Y-93368904D01*
X159027809Y-93321285D01*
X159265904Y-93321285D01*
X159361142Y-93368904D01*
X159408761Y-93416523D01*
X159456380Y-93511761D01*
X159456380Y-93749857D01*
X159408761Y-93845095D01*
X159361142Y-93892714D01*
X125620542Y-72620142D02*
X125572923Y-72667761D01*
X125430066Y-72715380D01*
X125334828Y-72715380D01*
X125191971Y-72667761D01*
X125096733Y-72572523D01*
X125049114Y-72477285D01*
X125001495Y-72286809D01*
X125001495Y-72143952D01*
X125049114Y-71953476D01*
X125096733Y-71858238D01*
X125191971Y-71763000D01*
X125334828Y-71715380D01*
X125430066Y-71715380D01*
X125572923Y-71763000D01*
X125620542Y-71810619D01*
X126001495Y-71810619D02*
X126049114Y-71763000D01*
X126144352Y-71715380D01*
X126382447Y-71715380D01*
X126477685Y-71763000D01*
X126525304Y-71810619D01*
X126572923Y-71905857D01*
X126572923Y-72001095D01*
X126525304Y-72143952D01*
X125953876Y-72715380D01*
X126572923Y-72715380D01*
X127430066Y-72048714D02*
X127430066Y-72715380D01*
X127191971Y-71667761D02*
X126953876Y-72382047D01*
X127572923Y-72382047D01*
X148956733Y-76430142D02*
X148909114Y-76477761D01*
X148766257Y-76525380D01*
X148671019Y-76525380D01*
X148528161Y-76477761D01*
X148432923Y-76382523D01*
X148385304Y-76287285D01*
X148337685Y-76096809D01*
X148337685Y-75953952D01*
X148385304Y-75763476D01*
X148432923Y-75668238D01*
X148528161Y-75573000D01*
X148671019Y-75525380D01*
X148766257Y-75525380D01*
X148909114Y-75573000D01*
X148956733Y-75620619D01*
X149290066Y-75525380D02*
X149956733Y-75525380D01*
X149528161Y-76525380D01*
D16*
X103132466Y-72824219D02*
X102793800Y-72340409D01*
X102551895Y-72824219D02*
X102551895Y-71808219D01*
X102938942Y-71808219D01*
X103035704Y-71856600D01*
X103084085Y-71904980D01*
X103132466Y-72001742D01*
X103132466Y-72146885D01*
X103084085Y-72243647D01*
X103035704Y-72292028D01*
X102938942Y-72340409D01*
X102551895Y-72340409D01*
X104003323Y-72146885D02*
X104003323Y-72824219D01*
X103761419Y-71759838D02*
X103519514Y-72485552D01*
X104148466Y-72485552D01*
D15*
X96842342Y-57705780D02*
X96509009Y-57229590D01*
X96270914Y-57705780D02*
X96270914Y-56705780D01*
X96651866Y-56705780D01*
X96747104Y-56753400D01*
X96794723Y-56801019D01*
X96842342Y-56896257D01*
X96842342Y-57039114D01*
X96794723Y-57134352D01*
X96747104Y-57181971D01*
X96651866Y-57229590D01*
X96270914Y-57229590D01*
X97794723Y-57705780D02*
X97223295Y-57705780D01*
X97509009Y-57705780D02*
X97509009Y-56705780D01*
X97413771Y-56848638D01*
X97318533Y-56943876D01*
X97223295Y-56991495D01*
X98651866Y-56705780D02*
X98461390Y-56705780D01*
X98366152Y-56753400D01*
X98318533Y-56801019D01*
X98223295Y-56943876D01*
X98175676Y-57134352D01*
X98175676Y-57515304D01*
X98223295Y-57610542D01*
X98270914Y-57658161D01*
X98366152Y-57705780D01*
X98556628Y-57705780D01*
X98651866Y-57658161D01*
X98699485Y-57610542D01*
X98747104Y-57515304D01*
X98747104Y-57277209D01*
X98699485Y-57181971D01*
X98651866Y-57134352D01*
X98556628Y-57086733D01*
X98366152Y-57086733D01*
X98270914Y-57134352D01*
X98223295Y-57181971D01*
X98175676Y-57277209D01*
X101795342Y-57678580D02*
X101462009Y-57202390D01*
X101223914Y-57678580D02*
X101223914Y-56678580D01*
X101604866Y-56678580D01*
X101700104Y-56726200D01*
X101747723Y-56773819D01*
X101795342Y-56869057D01*
X101795342Y-57011914D01*
X101747723Y-57107152D01*
X101700104Y-57154771D01*
X101604866Y-57202390D01*
X101223914Y-57202390D01*
X102747723Y-57678580D02*
X102176295Y-57678580D01*
X102462009Y-57678580D02*
X102462009Y-56678580D01*
X102366771Y-56821438D01*
X102271533Y-56916676D01*
X102176295Y-56964295D01*
X103081057Y-56678580D02*
X103747723Y-56678580D01*
X103319152Y-57678580D01*
M02*
