M48
; DRILL file {KiCad (5.1.5)-3} date 6/22/2020 5:40:48 PM
; FORMAT={-:-/ absolute / inch / decimal}
; #@! TF.CreationDate,2020-06-22T17:40:48-04:00
; #@! TF.GenerationSoftware,Kicad,Pcbnew,(5.1.5)-3
; #@! TF.FileFunction,Plated,1,2,PTH
FMAT,2
INCH
T1C0.0120
T2C0.0150
T3C0.0374
T4C0.0394
T5C0.1440
%
G90
G05
T1
X3.6955Y-2.5325
X3.6955Y-2.607
X3.696Y-2.6465
X3.7385Y-2.783
X3.739Y-2.5483
X3.739Y-2.723
X3.7643Y-2.783
X3.7648Y-2.5483
X3.7648Y-2.723
X3.821Y-2.6555
X3.95Y-2.5633
X3.977Y-2.563
X4.3925Y-2.4855
X4.434Y-2.552
X4.435Y-2.4855
X4.57Y-2.225
X5.3785Y-2.225
X5.4955Y-2.5915
X5.54Y-2.819
X5.546Y-2.591
T2
X3.418Y-2.727
X3.418Y-2.757
X3.418Y-2.787
X3.546Y-2.553
X3.581Y-2.553
X3.616Y-2.553
X3.6465Y-3.19
X3.6965Y-2.966
X3.757Y-3.024
X3.7625Y-3.241
X3.825Y-2.928
X3.84Y-2.544
X3.84Y-2.574
X3.84Y-2.604
X3.8545Y-3.284
X3.876Y-2.544
X3.876Y-2.574
X3.876Y-2.604
X3.879Y-2.927
X3.892Y-3.172
X3.8937Y-3.2852
X3.907Y-2.383
X3.9725Y-3.0515
X4.034Y-3.11
X4.116Y-2.521
X4.116Y-2.571
X4.116Y-2.657
X4.116Y-2.707
X4.137Y-2.321
X4.201Y-2.877
X4.238Y-2.712
X4.316Y-2.662
X4.3405Y-3.207
X4.389Y-2.365
X4.427Y-2.676
X4.459Y-3.507
X4.51Y-2.676
X4.536Y-3.329
X4.545Y-2.559
X4.603Y-3.241
X4.603Y-3.284
X4.702Y-2.943
X4.8165Y-2.96
X4.8165Y-2.998
X4.8165Y-3.036
X4.8269Y-3.2721
X4.8545Y-2.96
X4.8545Y-2.998
X4.8545Y-3.036
X4.906Y-3.4559
X4.953Y-3.329
X4.969Y-3.4545
X5.03Y-2.334
X5.2535Y-2.494
X5.529Y-2.768
X5.5387Y-2.485
X5.549Y-2.39
X5.589Y-2.39
X5.594Y-2.873
X5.6945Y-4.2455
X5.74Y-3.052
X5.74Y-3.102
X5.74Y-3.152
X5.74Y-3.202
X5.74Y-3.252
X5.74Y-3.302
X5.837Y-4.2505
T3
X5.6403Y-4.4985
X5.7387Y-4.4985
X5.8371Y-4.4985
X5.9356Y-4.4985
X6.034Y-4.4985
T4
X3.645Y-3.375
X4.384Y-3.002
X4.484Y-3.002
X4.425Y-3.375
X6.448Y-3.8
X6.448Y-3.9
X3.065Y-2.765
X3.065Y-2.865
X3.637Y-4.545
X3.737Y-4.545
X6.448Y-2.9
X6.448Y-3.0
X6.448Y-3.2
X6.448Y-3.3
X5.153Y-3.4015
X5.461Y-3.131
X5.561Y-3.131
X3.053Y-3.15
X3.053Y-3.25
X3.053Y-3.35
X3.053Y-3.45
X3.053Y-3.55
X3.053Y-3.65
X6.448Y-3.5
X6.448Y-3.6
T5
X4.75Y-3.6
X3.1Y-4.5
X6.4Y-4.5
X3.1Y-2.3
X6.4Y-2.3
T0
M30
