G04 #@! TF.GenerationSoftware,KiCad,Pcbnew,(5.1.5)-3*
G04 #@! TF.CreationDate,2020-01-12T00:37:19-05:00*
G04 #@! TF.ProjectId,MAX17595_offline_20V_supply_v1,4d415831-3735-4393-955f-6f66666c696e,rev?*
G04 #@! TF.SameCoordinates,Original*
G04 #@! TF.FileFunction,Legend,Top*
G04 #@! TF.FilePolarity,Positive*
%FSLAX46Y46*%
G04 Gerber Fmt 4.6, Leading zero omitted, Abs format (unit mm)*
G04 Created by KiCad (PCBNEW (5.1.5)-3) date 2020-01-12 00:37:19*
%MOMM*%
%LPD*%
G04 APERTURE LIST*
%ADD10C,0.177800*%
%ADD11C,0.203200*%
%ADD12C,0.254000*%
%ADD13C,0.120000*%
%ADD14C,0.127000*%
%ADD15C,0.304800*%
%ADD16C,0.150000*%
%ADD17C,0.381000*%
%ADD18C,0.152400*%
G04 APERTURE END LIST*
D10*
X153149904Y-58589333D02*
X153633714Y-58589333D01*
X153053142Y-58879619D02*
X153391809Y-57863619D01*
X153730476Y-58879619D01*
X154601333Y-57912000D02*
X154504571Y-57863619D01*
X154359428Y-57863619D01*
X154214285Y-57912000D01*
X154117523Y-58008761D01*
X154069142Y-58105523D01*
X154020761Y-58299047D01*
X154020761Y-58444190D01*
X154069142Y-58637714D01*
X154117523Y-58734476D01*
X154214285Y-58831238D01*
X154359428Y-58879619D01*
X154456190Y-58879619D01*
X154601333Y-58831238D01*
X154649714Y-58782857D01*
X154649714Y-58444190D01*
X154456190Y-58444190D01*
X155085142Y-58879619D02*
X155085142Y-57863619D01*
X155665714Y-58879619D01*
X155665714Y-57863619D01*
X156149523Y-58879619D02*
X156149523Y-57863619D01*
X156391428Y-57863619D01*
X156536571Y-57912000D01*
X156633333Y-58008761D01*
X156681714Y-58105523D01*
X156730095Y-58299047D01*
X156730095Y-58444190D01*
X156681714Y-58637714D01*
X156633333Y-58734476D01*
X156536571Y-58831238D01*
X156391428Y-58879619D01*
X156149523Y-58879619D01*
X82791904Y-119380000D02*
X82695142Y-119331619D01*
X82550000Y-119331619D01*
X82404857Y-119380000D01*
X82308095Y-119476761D01*
X82259714Y-119573523D01*
X82211333Y-119767047D01*
X82211333Y-119912190D01*
X82259714Y-120105714D01*
X82308095Y-120202476D01*
X82404857Y-120299238D01*
X82550000Y-120347619D01*
X82646761Y-120347619D01*
X82791904Y-120299238D01*
X82840285Y-120250857D01*
X82840285Y-119912190D01*
X82646761Y-119912190D01*
X83275714Y-120347619D02*
X83275714Y-119331619D01*
X83856285Y-120347619D01*
X83856285Y-119331619D01*
X84340095Y-120347619D02*
X84340095Y-119331619D01*
X84582000Y-119331619D01*
X84727142Y-119380000D01*
X84823904Y-119476761D01*
X84872285Y-119573523D01*
X84920666Y-119767047D01*
X84920666Y-119912190D01*
X84872285Y-120105714D01*
X84823904Y-120202476D01*
X84727142Y-120299238D01*
X84582000Y-120347619D01*
X84340095Y-120347619D01*
D11*
X74936047Y-62169523D02*
X74210333Y-62169523D01*
X74573190Y-62169523D02*
X74573190Y-60899523D01*
X74452238Y-61080952D01*
X74331285Y-61201904D01*
X74210333Y-61262380D01*
X76145571Y-62169523D02*
X75419857Y-62169523D01*
X75782714Y-62169523D02*
X75782714Y-60899523D01*
X75661761Y-61080952D01*
X75540809Y-61201904D01*
X75419857Y-61262380D01*
X76931761Y-60899523D02*
X77052714Y-60899523D01*
X77173666Y-60960000D01*
X77234142Y-61020476D01*
X77294619Y-61141428D01*
X77355095Y-61383333D01*
X77355095Y-61685714D01*
X77294619Y-61927619D01*
X77234142Y-62048571D01*
X77173666Y-62109047D01*
X77052714Y-62169523D01*
X76931761Y-62169523D01*
X76810809Y-62109047D01*
X76750333Y-62048571D01*
X76689857Y-61927619D01*
X76629380Y-61685714D01*
X76629380Y-61383333D01*
X76689857Y-61141428D01*
X76750333Y-61020476D01*
X76810809Y-60960000D01*
X76931761Y-60899523D01*
X77717952Y-60899523D02*
X78141285Y-62169523D01*
X78564619Y-60899523D01*
X74198238Y-72075523D02*
X74198238Y-70805523D01*
X74923952Y-72075523D01*
X74923952Y-70805523D01*
X76012523Y-72015047D02*
X75891571Y-72075523D01*
X75649666Y-72075523D01*
X75528714Y-72015047D01*
X75468238Y-71894095D01*
X75468238Y-71410285D01*
X75528714Y-71289333D01*
X75649666Y-71228857D01*
X75891571Y-71228857D01*
X76012523Y-71289333D01*
X76073000Y-71410285D01*
X76073000Y-71531238D01*
X75468238Y-71652190D01*
X77161571Y-71228857D02*
X77161571Y-72075523D01*
X76617285Y-71228857D02*
X76617285Y-71894095D01*
X76677761Y-72015047D01*
X76798714Y-72075523D01*
X76980142Y-72075523D01*
X77101095Y-72015047D01*
X77161571Y-71954571D01*
X77584904Y-71228857D02*
X78068714Y-71228857D01*
X77766333Y-70805523D02*
X77766333Y-71894095D01*
X77826809Y-72015047D01*
X77947761Y-72075523D01*
X78068714Y-72075523D01*
X78492047Y-72075523D02*
X78492047Y-71228857D01*
X78492047Y-71470761D02*
X78552523Y-71349809D01*
X78613000Y-71289333D01*
X78733952Y-71228857D01*
X78854904Y-71228857D01*
X79822523Y-72075523D02*
X79822523Y-71410285D01*
X79762047Y-71289333D01*
X79641095Y-71228857D01*
X79399190Y-71228857D01*
X79278238Y-71289333D01*
X79822523Y-72015047D02*
X79701571Y-72075523D01*
X79399190Y-72075523D01*
X79278238Y-72015047D01*
X79217761Y-71894095D01*
X79217761Y-71773142D01*
X79278238Y-71652190D01*
X79399190Y-71591714D01*
X79701571Y-71591714D01*
X79822523Y-71531238D01*
X80608714Y-72075523D02*
X80487761Y-72015047D01*
X80427285Y-71894095D01*
X80427285Y-70805523D01*
D10*
X85676619Y-58625619D02*
X86305571Y-58625619D01*
X85966904Y-59012666D01*
X86112047Y-59012666D01*
X86208809Y-59061047D01*
X86257190Y-59109428D01*
X86305571Y-59206190D01*
X86305571Y-59448095D01*
X86257190Y-59544857D01*
X86208809Y-59593238D01*
X86112047Y-59641619D01*
X85821761Y-59641619D01*
X85725000Y-59593238D01*
X85676619Y-59544857D01*
X86644238Y-59641619D02*
X87176428Y-58964285D01*
X86644238Y-58964285D02*
X87176428Y-59641619D01*
X88095666Y-59641619D02*
X87515095Y-59641619D01*
X87805380Y-59641619D02*
X87805380Y-58625619D01*
X87708619Y-58770761D01*
X87611857Y-58867523D01*
X87515095Y-58915904D01*
X88724619Y-58625619D02*
X88821380Y-58625619D01*
X88918142Y-58674000D01*
X88966523Y-58722380D01*
X89014904Y-58819142D01*
X89063285Y-59012666D01*
X89063285Y-59254571D01*
X89014904Y-59448095D01*
X88966523Y-59544857D01*
X88918142Y-59593238D01*
X88821380Y-59641619D01*
X88724619Y-59641619D01*
X88627857Y-59593238D01*
X88579476Y-59544857D01*
X88531095Y-59448095D01*
X88482714Y-59254571D01*
X88482714Y-59012666D01*
X88531095Y-58819142D01*
X88579476Y-58722380D01*
X88627857Y-58674000D01*
X88724619Y-58625619D01*
X89547095Y-59593238D02*
X89547095Y-59641619D01*
X89498714Y-59738380D01*
X89450333Y-59786761D01*
X89934142Y-58722380D02*
X89982523Y-58674000D01*
X90079285Y-58625619D01*
X90321190Y-58625619D01*
X90417952Y-58674000D01*
X90466333Y-58722380D01*
X90514714Y-58819142D01*
X90514714Y-58915904D01*
X90466333Y-59061047D01*
X89885761Y-59641619D01*
X90514714Y-59641619D01*
X90950142Y-59544857D02*
X90998523Y-59593238D01*
X90950142Y-59641619D01*
X90901761Y-59593238D01*
X90950142Y-59544857D01*
X90950142Y-59641619D01*
X91917761Y-58625619D02*
X91433952Y-58625619D01*
X91385571Y-59109428D01*
X91433952Y-59061047D01*
X91530714Y-59012666D01*
X91772619Y-59012666D01*
X91869380Y-59061047D01*
X91917761Y-59109428D01*
X91966142Y-59206190D01*
X91966142Y-59448095D01*
X91917761Y-59544857D01*
X91869380Y-59593238D01*
X91772619Y-59641619D01*
X91530714Y-59641619D01*
X91433952Y-59593238D01*
X91385571Y-59544857D01*
X92353190Y-59351333D02*
X92837000Y-59351333D01*
X92256428Y-59641619D02*
X92595095Y-58625619D01*
X92933761Y-59641619D01*
D12*
X156645428Y-99132571D02*
X156718000Y-99060000D01*
X156863142Y-98987428D01*
X157226000Y-98987428D01*
X157371142Y-99060000D01*
X157443714Y-99132571D01*
X157516285Y-99277714D01*
X157516285Y-99422857D01*
X157443714Y-99640571D01*
X156572857Y-100511428D01*
X157516285Y-100511428D01*
X158459714Y-98987428D02*
X158604857Y-98987428D01*
X158750000Y-99060000D01*
X158822571Y-99132571D01*
X158895142Y-99277714D01*
X158967714Y-99568000D01*
X158967714Y-99930857D01*
X158895142Y-100221142D01*
X158822571Y-100366285D01*
X158750000Y-100438857D01*
X158604857Y-100511428D01*
X158459714Y-100511428D01*
X158314571Y-100438857D01*
X158242000Y-100366285D01*
X158169428Y-100221142D01*
X158096857Y-99930857D01*
X158096857Y-99568000D01*
X158169428Y-99277714D01*
X158242000Y-99132571D01*
X158314571Y-99060000D01*
X158459714Y-98987428D01*
X159403142Y-98987428D02*
X159911142Y-100511428D01*
X160419142Y-98987428D01*
X160999714Y-100438857D02*
X160999714Y-100511428D01*
X160927142Y-100656571D01*
X160854571Y-100729142D01*
X162668857Y-98987428D02*
X163612285Y-98987428D01*
X163104285Y-99568000D01*
X163322000Y-99568000D01*
X163467142Y-99640571D01*
X163539714Y-99713142D01*
X163612285Y-99858285D01*
X163612285Y-100221142D01*
X163539714Y-100366285D01*
X163467142Y-100438857D01*
X163322000Y-100511428D01*
X162886571Y-100511428D01*
X162741428Y-100438857D01*
X162668857Y-100366285D01*
X164192857Y-100076000D02*
X164918571Y-100076000D01*
X164047714Y-100511428D02*
X164555714Y-98987428D01*
X165063714Y-100511428D01*
X106752571Y-120553238D02*
X106752571Y-118521238D01*
X107429904Y-119972666D01*
X108107238Y-118521238D01*
X108107238Y-120553238D01*
X108978095Y-119972666D02*
X109945714Y-119972666D01*
X108784571Y-120553238D02*
X109461904Y-118521238D01*
X110139238Y-120553238D01*
X110623047Y-118521238D02*
X111977714Y-120553238D01*
X111977714Y-118521238D02*
X110623047Y-120553238D01*
X113816190Y-120553238D02*
X112655047Y-120553238D01*
X113235619Y-120553238D02*
X113235619Y-118521238D01*
X113042095Y-118811523D01*
X112848571Y-119005047D01*
X112655047Y-119101809D01*
X114493523Y-118521238D02*
X115848190Y-118521238D01*
X114977333Y-120553238D01*
X117589904Y-118521238D02*
X116622285Y-118521238D01*
X116525523Y-119488857D01*
X116622285Y-119392095D01*
X116815809Y-119295333D01*
X117299619Y-119295333D01*
X117493142Y-119392095D01*
X117589904Y-119488857D01*
X117686666Y-119682380D01*
X117686666Y-120166190D01*
X117589904Y-120359714D01*
X117493142Y-120456476D01*
X117299619Y-120553238D01*
X116815809Y-120553238D01*
X116622285Y-120456476D01*
X116525523Y-120359714D01*
X118654285Y-120553238D02*
X119041333Y-120553238D01*
X119234857Y-120456476D01*
X119331619Y-120359714D01*
X119525142Y-120069428D01*
X119621904Y-119682380D01*
X119621904Y-118908285D01*
X119525142Y-118714761D01*
X119428380Y-118618000D01*
X119234857Y-118521238D01*
X118847809Y-118521238D01*
X118654285Y-118618000D01*
X118557523Y-118714761D01*
X118460761Y-118908285D01*
X118460761Y-119392095D01*
X118557523Y-119585619D01*
X118654285Y-119682380D01*
X118847809Y-119779142D01*
X119234857Y-119779142D01*
X119428380Y-119682380D01*
X119525142Y-119585619D01*
X119621904Y-119392095D01*
X121460380Y-118521238D02*
X120492761Y-118521238D01*
X120395999Y-119488857D01*
X120492761Y-119392095D01*
X120686285Y-119295333D01*
X121170095Y-119295333D01*
X121363619Y-119392095D01*
X121460380Y-119488857D01*
X121557142Y-119682380D01*
X121557142Y-120166190D01*
X121460380Y-120359714D01*
X121363619Y-120456476D01*
X121170095Y-120553238D01*
X120686285Y-120553238D01*
X120492761Y-120456476D01*
X120395999Y-120359714D01*
X124363238Y-118521238D02*
X124750285Y-118521238D01*
X124943809Y-118618000D01*
X125137333Y-118811523D01*
X125234095Y-119198571D01*
X125234095Y-119875904D01*
X125137333Y-120262952D01*
X124943809Y-120456476D01*
X124750285Y-120553238D01*
X124363238Y-120553238D01*
X124169714Y-120456476D01*
X123976190Y-120262952D01*
X123879428Y-119875904D01*
X123879428Y-119198571D01*
X123976190Y-118811523D01*
X124169714Y-118618000D01*
X124363238Y-118521238D01*
X125814666Y-119198571D02*
X126588761Y-119198571D01*
X126104952Y-120553238D02*
X126104952Y-118811523D01*
X126201714Y-118618000D01*
X126395238Y-118521238D01*
X126588761Y-118521238D01*
X126975809Y-119198571D02*
X127749904Y-119198571D01*
X127266095Y-120553238D02*
X127266095Y-118811523D01*
X127362857Y-118618000D01*
X127556380Y-118521238D01*
X127749904Y-118521238D01*
X128717523Y-120553238D02*
X128524000Y-120456476D01*
X128427238Y-120262952D01*
X128427238Y-118521238D01*
X129491619Y-120553238D02*
X129491619Y-119198571D01*
X129491619Y-118521238D02*
X129394857Y-118618000D01*
X129491619Y-118714761D01*
X129588380Y-118618000D01*
X129491619Y-118521238D01*
X129491619Y-118714761D01*
X130459238Y-119198571D02*
X130459238Y-120553238D01*
X130459238Y-119392095D02*
X130556000Y-119295333D01*
X130749523Y-119198571D01*
X131039809Y-119198571D01*
X131233333Y-119295333D01*
X131330095Y-119488857D01*
X131330095Y-120553238D01*
X133071809Y-120456476D02*
X132878285Y-120553238D01*
X132491238Y-120553238D01*
X132297714Y-120456476D01*
X132200952Y-120262952D01*
X132200952Y-119488857D01*
X132297714Y-119295333D01*
X132491238Y-119198571D01*
X132878285Y-119198571D01*
X133071809Y-119295333D01*
X133168571Y-119488857D01*
X133168571Y-119682380D01*
X132200952Y-119875904D01*
X135490857Y-118714761D02*
X135587619Y-118618000D01*
X135781142Y-118521238D01*
X136264952Y-118521238D01*
X136458476Y-118618000D01*
X136555238Y-118714761D01*
X136652000Y-118908285D01*
X136652000Y-119101809D01*
X136555238Y-119392095D01*
X135394095Y-120553238D01*
X136652000Y-120553238D01*
X137909904Y-118521238D02*
X138103428Y-118521238D01*
X138296952Y-118618000D01*
X138393714Y-118714761D01*
X138490476Y-118908285D01*
X138587238Y-119295333D01*
X138587238Y-119779142D01*
X138490476Y-120166190D01*
X138393714Y-120359714D01*
X138296952Y-120456476D01*
X138103428Y-120553238D01*
X137909904Y-120553238D01*
X137716380Y-120456476D01*
X137619619Y-120359714D01*
X137522857Y-120166190D01*
X137426095Y-119779142D01*
X137426095Y-119295333D01*
X137522857Y-118908285D01*
X137619619Y-118714761D01*
X137716380Y-118618000D01*
X137909904Y-118521238D01*
X139167809Y-118521238D02*
X139845142Y-120553238D01*
X140522476Y-118521238D01*
X143425333Y-119488857D02*
X142748000Y-119488857D01*
X142748000Y-120553238D02*
X142748000Y-118521238D01*
X143715619Y-118521238D01*
X144780000Y-120553238D02*
X144586476Y-120456476D01*
X144489714Y-120262952D01*
X144489714Y-118521238D01*
X145360571Y-119198571D02*
X145844380Y-120553238D01*
X146328190Y-119198571D02*
X145844380Y-120553238D01*
X145650857Y-121037047D01*
X145554095Y-121133809D01*
X145360571Y-121230571D01*
X147102285Y-120553238D02*
X147102285Y-118521238D01*
X147102285Y-119295333D02*
X147295809Y-119198571D01*
X147682857Y-119198571D01*
X147876380Y-119295333D01*
X147973142Y-119392095D01*
X148069904Y-119585619D01*
X148069904Y-120166190D01*
X147973142Y-120359714D01*
X147876380Y-120456476D01*
X147682857Y-120553238D01*
X147295809Y-120553238D01*
X147102285Y-120456476D01*
X149811619Y-120553238D02*
X149811619Y-119488857D01*
X149714857Y-119295333D01*
X149521333Y-119198571D01*
X149134285Y-119198571D01*
X148940761Y-119295333D01*
X149811619Y-120456476D02*
X149618095Y-120553238D01*
X149134285Y-120553238D01*
X148940761Y-120456476D01*
X148844000Y-120262952D01*
X148844000Y-120069428D01*
X148940761Y-119875904D01*
X149134285Y-119779142D01*
X149618095Y-119779142D01*
X149811619Y-119682380D01*
X151650095Y-120456476D02*
X151456571Y-120553238D01*
X151069523Y-120553238D01*
X150876000Y-120456476D01*
X150779238Y-120359714D01*
X150682476Y-120166190D01*
X150682476Y-119585619D01*
X150779238Y-119392095D01*
X150876000Y-119295333D01*
X151069523Y-119198571D01*
X151456571Y-119198571D01*
X151650095Y-119295333D01*
X152520952Y-120553238D02*
X152520952Y-118521238D01*
X152714476Y-119779142D02*
X153295047Y-120553238D01*
X153295047Y-119198571D02*
X152520952Y-119972666D01*
X155423809Y-118521238D02*
X156101142Y-120553238D01*
X156778476Y-118521238D01*
X158520190Y-120553238D02*
X157359047Y-120553238D01*
X157939619Y-120553238D02*
X157939619Y-118521238D01*
X157746095Y-118811523D01*
X157552571Y-119005047D01*
X157359047Y-119101809D01*
D10*
X96429285Y-54053619D02*
X96767952Y-55069619D01*
X97106619Y-54053619D01*
X97590428Y-55069619D02*
X97493666Y-55021238D01*
X97445285Y-54924476D01*
X97445285Y-54053619D01*
X97977476Y-55069619D02*
X97977476Y-54392285D01*
X97977476Y-54053619D02*
X97929095Y-54102000D01*
X97977476Y-54150380D01*
X98025857Y-54102000D01*
X97977476Y-54053619D01*
X97977476Y-54150380D01*
X98461285Y-54392285D02*
X98461285Y-55069619D01*
X98461285Y-54489047D02*
X98509666Y-54440666D01*
X98606428Y-54392285D01*
X98751571Y-54392285D01*
X98848333Y-54440666D01*
X98896714Y-54537428D01*
X98896714Y-55069619D01*
X99767571Y-55021238D02*
X99670809Y-55069619D01*
X99477285Y-55069619D01*
X99380523Y-55021238D01*
X99332142Y-54924476D01*
X99332142Y-54537428D01*
X99380523Y-54440666D01*
X99477285Y-54392285D01*
X99670809Y-54392285D01*
X99767571Y-54440666D01*
X99815952Y-54537428D01*
X99815952Y-54634190D01*
X99332142Y-54730952D01*
D12*
X159874857Y-84582000D02*
X159729714Y-84509428D01*
X159512000Y-84509428D01*
X159294285Y-84582000D01*
X159149142Y-84727142D01*
X159076571Y-84872285D01*
X159004000Y-85162571D01*
X159004000Y-85380285D01*
X159076571Y-85670571D01*
X159149142Y-85815714D01*
X159294285Y-85960857D01*
X159512000Y-86033428D01*
X159657142Y-86033428D01*
X159874857Y-85960857D01*
X159947428Y-85888285D01*
X159947428Y-85380285D01*
X159657142Y-85380285D01*
X160600571Y-86033428D02*
X160600571Y-84509428D01*
X161471428Y-86033428D01*
X161471428Y-84509428D01*
X162197142Y-86033428D02*
X162197142Y-84509428D01*
X162560000Y-84509428D01*
X162777714Y-84582000D01*
X162922857Y-84727142D01*
X162995428Y-84872285D01*
X163068000Y-85162571D01*
X163068000Y-85380285D01*
X162995428Y-85670571D01*
X162922857Y-85815714D01*
X162777714Y-85960857D01*
X162560000Y-86033428D01*
X162197142Y-86033428D01*
X158586714Y-96574428D02*
X159094714Y-98098428D01*
X159602714Y-96574428D01*
X160328428Y-98098428D02*
X160183285Y-98025857D01*
X160110714Y-97953285D01*
X160038142Y-97808142D01*
X160038142Y-97372714D01*
X160110714Y-97227571D01*
X160183285Y-97155000D01*
X160328428Y-97082428D01*
X160546142Y-97082428D01*
X160691285Y-97155000D01*
X160763857Y-97227571D01*
X160836428Y-97372714D01*
X160836428Y-97808142D01*
X160763857Y-97953285D01*
X160691285Y-98025857D01*
X160546142Y-98098428D01*
X160328428Y-98098428D01*
X162142714Y-97082428D02*
X162142714Y-98098428D01*
X161489571Y-97082428D02*
X161489571Y-97880714D01*
X161562142Y-98025857D01*
X161707285Y-98098428D01*
X161925000Y-98098428D01*
X162070142Y-98025857D01*
X162142714Y-97953285D01*
X162650714Y-97082428D02*
X163231285Y-97082428D01*
X162868428Y-96574428D02*
X162868428Y-97880714D01*
X162941000Y-98025857D01*
X163086142Y-98098428D01*
X163231285Y-98098428D01*
D10*
X100082047Y-117807619D02*
X99501476Y-117807619D01*
X99791761Y-117807619D02*
X99791761Y-116791619D01*
X99695000Y-116936761D01*
X99598238Y-117033523D01*
X99501476Y-117081904D01*
X100469095Y-116888380D02*
X100517476Y-116840000D01*
X100614238Y-116791619D01*
X100856142Y-116791619D01*
X100952904Y-116840000D01*
X101001285Y-116888380D01*
X101049666Y-116985142D01*
X101049666Y-117081904D01*
X101001285Y-117227047D01*
X100420714Y-117807619D01*
X101049666Y-117807619D01*
X101339952Y-116791619D02*
X101678619Y-117807619D01*
X102017285Y-116791619D01*
X139754428Y-71609857D02*
X139754428Y-71948523D01*
X140286619Y-71948523D02*
X139270619Y-71948523D01*
X139270619Y-71464714D01*
X139754428Y-70739000D02*
X139802809Y-70593857D01*
X139851190Y-70545476D01*
X139947952Y-70497095D01*
X140093095Y-70497095D01*
X140189857Y-70545476D01*
X140238238Y-70593857D01*
X140286619Y-70690619D01*
X140286619Y-71077666D01*
X139270619Y-71077666D01*
X139270619Y-70739000D01*
X139319000Y-70642238D01*
X139367380Y-70593857D01*
X139464142Y-70545476D01*
X139560904Y-70545476D01*
X139657666Y-70593857D01*
X139706047Y-70642238D01*
X139754428Y-70739000D01*
X139754428Y-71077666D01*
X138103428Y-63772142D02*
X138103428Y-63433476D01*
X138635619Y-63288333D02*
X138635619Y-63772142D01*
X137619619Y-63772142D01*
X137619619Y-63288333D01*
X138635619Y-62852904D02*
X137619619Y-62852904D01*
X138635619Y-62272333D01*
X137619619Y-62272333D01*
X137571238Y-61062809D02*
X138877523Y-61933666D01*
X137619619Y-60724142D02*
X138442095Y-60724142D01*
X138538857Y-60675761D01*
X138587238Y-60627380D01*
X138635619Y-60530619D01*
X138635619Y-60337095D01*
X138587238Y-60240333D01*
X138538857Y-60191952D01*
X138442095Y-60143571D01*
X137619619Y-60143571D01*
X137619619Y-59804904D02*
X138635619Y-59466238D01*
X137619619Y-59127571D01*
X138635619Y-58305095D02*
X138635619Y-58788904D01*
X137619619Y-58788904D01*
X137619619Y-57772904D02*
X137619619Y-57579380D01*
X137668000Y-57482619D01*
X137764761Y-57385857D01*
X137958285Y-57337476D01*
X138296952Y-57337476D01*
X138490476Y-57385857D01*
X138587238Y-57482619D01*
X138635619Y-57579380D01*
X138635619Y-57772904D01*
X138587238Y-57869666D01*
X138490476Y-57966428D01*
X138296952Y-58014809D01*
X137958285Y-58014809D01*
X137764761Y-57966428D01*
X137668000Y-57869666D01*
X137619619Y-57772904D01*
X140286619Y-59188047D02*
X140286619Y-58994523D01*
X140335000Y-58897761D01*
X140431761Y-58801000D01*
X140625285Y-58752619D01*
X140963952Y-58752619D01*
X141157476Y-58801000D01*
X141254238Y-58897761D01*
X141302619Y-58994523D01*
X141302619Y-59188047D01*
X141254238Y-59284809D01*
X141157476Y-59381571D01*
X140963952Y-59429952D01*
X140625285Y-59429952D01*
X140431761Y-59381571D01*
X140335000Y-59284809D01*
X140286619Y-59188047D01*
X140286619Y-58462333D02*
X141302619Y-58123666D01*
X140286619Y-57785000D01*
X141302619Y-57446333D02*
X140286619Y-57446333D01*
X142991719Y-61268428D02*
X141975719Y-61268428D01*
X141975719Y-61026523D01*
X142024100Y-60881380D01*
X142120861Y-60784619D01*
X142217623Y-60736238D01*
X142411147Y-60687857D01*
X142556290Y-60687857D01*
X142749814Y-60736238D01*
X142846576Y-60784619D01*
X142943338Y-60881380D01*
X142991719Y-61026523D01*
X142991719Y-61268428D01*
X142991719Y-60252428D02*
X141975719Y-60252428D01*
X141975719Y-59913761D02*
X141975719Y-59333190D01*
X142991719Y-59623476D02*
X141975719Y-59623476D01*
X142991719Y-58994523D02*
X141975719Y-58994523D01*
X142459528Y-58994523D02*
X142459528Y-58413952D01*
X142991719Y-58413952D02*
X141975719Y-58413952D01*
X141927338Y-57204428D02*
X143233623Y-58075285D01*
X144645138Y-61074904D02*
X144693519Y-60929761D01*
X144693519Y-60687857D01*
X144645138Y-60591095D01*
X144596757Y-60542714D01*
X144499995Y-60494333D01*
X144403233Y-60494333D01*
X144306471Y-60542714D01*
X144258090Y-60591095D01*
X144209709Y-60687857D01*
X144161328Y-60881380D01*
X144112947Y-60978142D01*
X144064566Y-61026523D01*
X143967804Y-61074904D01*
X143871042Y-61074904D01*
X143774280Y-61026523D01*
X143725900Y-60978142D01*
X143677519Y-60881380D01*
X143677519Y-60639476D01*
X143725900Y-60494333D01*
X144209709Y-59865380D02*
X144693519Y-59865380D01*
X143677519Y-60204047D02*
X144209709Y-59865380D01*
X143677519Y-59526714D01*
X144693519Y-59188047D02*
X143677519Y-59188047D01*
X144693519Y-58607476D01*
X143677519Y-58607476D01*
X144596757Y-57543095D02*
X144645138Y-57591476D01*
X144693519Y-57736619D01*
X144693519Y-57833380D01*
X144645138Y-57978523D01*
X144548376Y-58075285D01*
X144451614Y-58123666D01*
X144258090Y-58172047D01*
X144112947Y-58172047D01*
X143919423Y-58123666D01*
X143822661Y-58075285D01*
X143725900Y-57978523D01*
X143677519Y-57833380D01*
X143677519Y-57736619D01*
X143725900Y-57591476D01*
X143774280Y-57543095D01*
X146092333Y-60845095D02*
X146092333Y-60361285D01*
X146382619Y-60941857D02*
X145366619Y-60603190D01*
X146382619Y-60264523D01*
X145415000Y-59393666D02*
X145366619Y-59490428D01*
X145366619Y-59635571D01*
X145415000Y-59780714D01*
X145511761Y-59877476D01*
X145608523Y-59925857D01*
X145802047Y-59974238D01*
X145947190Y-59974238D01*
X146140714Y-59925857D01*
X146237476Y-59877476D01*
X146334238Y-59780714D01*
X146382619Y-59635571D01*
X146382619Y-59538809D01*
X146334238Y-59393666D01*
X146285857Y-59345285D01*
X145947190Y-59345285D01*
X145947190Y-59538809D01*
X146382619Y-58909857D02*
X145366619Y-58909857D01*
X146382619Y-58329285D01*
X145366619Y-58329285D01*
X146382619Y-57845476D02*
X145366619Y-57845476D01*
X145366619Y-57603571D01*
X145415000Y-57458428D01*
X145511761Y-57361666D01*
X145608523Y-57313285D01*
X145802047Y-57264904D01*
X145947190Y-57264904D01*
X146140714Y-57313285D01*
X146237476Y-57361666D01*
X146334238Y-57458428D01*
X146382619Y-57603571D01*
X146382619Y-57845476D01*
D13*
X123406800Y-77060000D02*
X123406800Y-75960000D01*
X121596800Y-77060000D02*
X123406800Y-77060000D01*
X121596800Y-78560000D02*
X121596800Y-77060000D01*
X130186800Y-77060000D02*
X130186800Y-71935000D01*
X131996800Y-77060000D02*
X130186800Y-77060000D01*
X131996800Y-78560000D02*
X131996800Y-77060000D01*
D14*
X107061000Y-117246400D02*
X107061000Y-89306400D01*
X127381000Y-117246400D02*
X107061000Y-117246400D01*
X127381000Y-89306400D02*
X127381000Y-117246400D01*
X107061000Y-89306400D02*
X127381000Y-89306400D01*
X99295000Y-104050000D02*
X96247000Y-104050000D01*
X97771000Y-103034000D02*
X97771000Y-102526000D01*
X97771000Y-105574000D02*
X97771000Y-103034000D01*
D13*
X81978000Y-101910000D02*
X81978000Y-92719000D01*
X82338000Y-101910000D02*
X82338000Y-92558000D01*
X82338000Y-115622000D02*
X82338000Y-106270000D01*
X81858000Y-101910000D02*
X81858000Y-92775000D01*
X82298000Y-115605000D02*
X82298000Y-106270000D01*
X81898000Y-101910000D02*
X81898000Y-92756000D01*
X82098000Y-115516000D02*
X82098000Y-106270000D01*
X82378000Y-115639000D02*
X82378000Y-106270000D01*
X81618000Y-101910000D02*
X81618000Y-92894000D01*
X81738000Y-101910000D02*
X81738000Y-92834000D01*
X81938000Y-101910000D02*
X81938000Y-92737000D01*
X81538000Y-115246000D02*
X81538000Y-106270000D01*
X82098000Y-101910000D02*
X82098000Y-92664000D01*
X82178000Y-101910000D02*
X82178000Y-92628000D01*
X81418000Y-115183000D02*
X81418000Y-106270000D01*
X81578000Y-101910000D02*
X81578000Y-92914000D01*
X82258000Y-115588000D02*
X82258000Y-106270000D01*
X81378000Y-101910000D02*
X81378000Y-93018000D01*
X82298000Y-101910000D02*
X82298000Y-92575000D01*
X82378000Y-101910000D02*
X82378000Y-92541000D01*
X82418000Y-101910000D02*
X82418000Y-92524000D01*
X82418000Y-115656000D02*
X82418000Y-106270000D01*
X82138000Y-101910000D02*
X82138000Y-92645000D01*
X82458000Y-101910000D02*
X82458000Y-92507000D01*
X81858000Y-115405000D02*
X81858000Y-106270000D01*
X81938000Y-115443000D02*
X81938000Y-106270000D01*
X81458000Y-115204000D02*
X81458000Y-106270000D01*
X82258000Y-101910000D02*
X82258000Y-92592000D01*
X82498000Y-101910000D02*
X82498000Y-92490000D01*
X81378000Y-115162000D02*
X81378000Y-106270000D01*
X81658000Y-115307000D02*
X81658000Y-106270000D01*
X81698000Y-115326000D02*
X81698000Y-106270000D01*
X82018000Y-101910000D02*
X82018000Y-92700000D01*
X81458000Y-101910000D02*
X81458000Y-92976000D01*
X82018000Y-115480000D02*
X82018000Y-106270000D01*
X82538000Y-101910000D02*
X82538000Y-92474000D01*
X82618000Y-115738000D02*
X82618000Y-106270000D01*
X81498000Y-115225000D02*
X81498000Y-106270000D01*
X82578000Y-101910000D02*
X82578000Y-92458000D01*
X82138000Y-115535000D02*
X82138000Y-106270000D01*
X82218000Y-115570000D02*
X82218000Y-106270000D01*
X81818000Y-101910000D02*
X81818000Y-92795000D01*
X81578000Y-115266000D02*
X81578000Y-106270000D01*
X81618000Y-115286000D02*
X81618000Y-106270000D01*
X81658000Y-101910000D02*
X81658000Y-92873000D01*
X81698000Y-101910000D02*
X81698000Y-92854000D01*
X81778000Y-115366000D02*
X81778000Y-106270000D01*
X82058000Y-101910000D02*
X82058000Y-92682000D01*
X82058000Y-115498000D02*
X82058000Y-106270000D01*
X81538000Y-101910000D02*
X81538000Y-92934000D01*
X81898000Y-115424000D02*
X81898000Y-106270000D01*
X82178000Y-115552000D02*
X82178000Y-106270000D01*
X82218000Y-101910000D02*
X82218000Y-92610000D01*
X81498000Y-101910000D02*
X81498000Y-92955000D01*
X81818000Y-115385000D02*
X81818000Y-106270000D01*
X81778000Y-101910000D02*
X81778000Y-92814000D01*
X82458000Y-115673000D02*
X82458000Y-106270000D01*
X81738000Y-115346000D02*
X81738000Y-106270000D01*
X82498000Y-115690000D02*
X82498000Y-106270000D01*
X82538000Y-115706000D02*
X82538000Y-106270000D01*
X81418000Y-101910000D02*
X81418000Y-92997000D01*
X81978000Y-115461000D02*
X81978000Y-106270000D01*
X82578000Y-115722000D02*
X82578000Y-106270000D01*
X82618000Y-101910000D02*
X82618000Y-92442000D01*
X83338000Y-101910000D02*
X83338000Y-92178000D01*
X83658000Y-101910000D02*
X83658000Y-92077000D01*
X83738000Y-101910000D02*
X83738000Y-92053000D01*
X83778000Y-101910000D02*
X83778000Y-92042000D01*
X83298000Y-101910000D02*
X83298000Y-92192000D01*
X82698000Y-101910000D02*
X82698000Y-92410000D01*
X82698000Y-115770000D02*
X82698000Y-106270000D01*
X83738000Y-116127000D02*
X83738000Y-106270000D01*
X83778000Y-116138000D02*
X83778000Y-92042000D01*
X83818000Y-101910000D02*
X83818000Y-92030000D01*
X83818000Y-116150000D02*
X83818000Y-91990000D01*
X83298000Y-115988000D02*
X83298000Y-92192000D01*
X83418000Y-116028000D02*
X83418000Y-92152000D01*
X82938000Y-101910000D02*
X82938000Y-92319000D01*
X83858000Y-101910000D02*
X83858000Y-92019000D01*
X83858000Y-116161000D02*
X83858000Y-106270000D01*
X83898000Y-101910000D02*
X83898000Y-92007000D01*
X83418000Y-101910000D02*
X83418000Y-92152000D01*
X83538000Y-101910000D02*
X83538000Y-92114000D01*
X83578000Y-116078000D02*
X83578000Y-106270000D01*
X83098000Y-101910000D02*
X83098000Y-92261000D01*
X83658000Y-116103000D02*
X83658000Y-106270000D01*
X83058000Y-101910000D02*
X83058000Y-92275000D01*
X83898000Y-116173000D02*
X83898000Y-92007000D01*
X82658000Y-101910000D02*
X82658000Y-92426000D01*
X82738000Y-101910000D02*
X82738000Y-92394000D01*
X82858000Y-115832000D02*
X82858000Y-106270000D01*
X82898000Y-115847000D02*
X82898000Y-106270000D01*
X82858000Y-101910000D02*
X82858000Y-92348000D01*
X83058000Y-115905000D02*
X83058000Y-106265000D01*
X83218000Y-101910000D02*
X83218000Y-92219000D01*
X83258000Y-115975000D02*
X83258000Y-92190000D01*
X83378000Y-101910000D02*
X83378000Y-92165000D01*
X83098000Y-115919000D02*
X83099000Y-106265000D01*
X82818000Y-101910000D02*
X82818000Y-92364000D01*
X83018000Y-115891000D02*
X83018000Y-106270000D01*
X82778000Y-101910000D02*
X82778000Y-92379000D01*
X83458000Y-101910000D02*
X83458000Y-92139000D01*
X82898000Y-101910000D02*
X82898000Y-92333000D01*
X83458000Y-116041000D02*
X83458000Y-92139000D01*
X83618000Y-116091000D02*
X83618000Y-92090000D01*
X83018000Y-101910000D02*
X83018000Y-92289000D01*
X83578000Y-101910000D02*
X83578000Y-92102000D01*
X82978000Y-101910000D02*
X82978000Y-92304000D01*
X83138000Y-101910000D02*
X83138000Y-92247000D01*
X83538000Y-116066000D02*
X83538000Y-92114000D01*
X82778000Y-115801000D02*
X82778000Y-106270000D01*
X82818000Y-115816000D02*
X82818000Y-106270000D01*
X82978000Y-115876000D02*
X82978000Y-106270000D01*
X82938000Y-115861000D02*
X82938000Y-106270000D01*
X82738000Y-115786000D02*
X82738000Y-106270000D01*
X83138000Y-115933000D02*
X83138000Y-106265000D01*
X82658000Y-115754000D02*
X82658000Y-106270000D01*
X83178000Y-101910000D02*
X83178000Y-92233000D01*
X83218000Y-115961000D02*
X83224000Y-106265000D01*
X83378000Y-116015000D02*
X83378000Y-92165000D01*
X83498000Y-101910000D02*
X83498000Y-92127000D01*
X83498000Y-116053000D02*
X83498000Y-92127000D01*
X83178000Y-115947000D02*
X83199000Y-106290000D01*
X83618000Y-101910000D02*
X83618000Y-92089000D01*
X83698000Y-101910000D02*
X83698000Y-92065000D01*
X83258000Y-101910000D02*
X83258000Y-92205000D01*
X83338000Y-116002000D02*
X83338000Y-92190000D01*
X83698000Y-116115000D02*
X83698000Y-92065000D01*
X83978000Y-101910000D02*
X83978000Y-91985000D01*
X84538000Y-116334000D02*
X84538000Y-91846000D01*
X85178000Y-116461000D02*
X85178000Y-91719000D01*
X84018000Y-116206000D02*
X84018000Y-106270000D01*
X85298000Y-116481000D02*
X85298000Y-91699000D01*
X85138000Y-116454000D02*
X85138000Y-91726000D01*
X84698000Y-116369000D02*
X84698000Y-91811000D01*
X84658000Y-116361000D02*
X84658000Y-91819000D01*
X85338000Y-116487000D02*
X85338000Y-91693000D01*
X84858000Y-116402000D02*
X84858000Y-91778000D01*
X83938000Y-116184000D02*
X83938000Y-91996000D01*
X84738000Y-116377000D02*
X84738000Y-91803000D01*
X85018000Y-116432000D02*
X85018000Y-91748000D01*
X85418000Y-116499000D02*
X85418000Y-91681000D01*
X84218000Y-116258000D02*
X84218000Y-91890000D01*
X84018000Y-101910000D02*
X84018000Y-91974000D01*
X85458000Y-116505000D02*
X85458000Y-91675000D01*
X85538000Y-116517000D02*
X85538000Y-91663000D01*
X85578000Y-116522000D02*
X85578000Y-91658000D01*
X85618000Y-116528000D02*
X85618000Y-91652000D01*
X85658000Y-116533000D02*
X85658000Y-91647000D01*
X85738000Y-116543000D02*
X85738000Y-91637000D01*
X85778000Y-116548000D02*
X85778000Y-91632000D01*
X85818000Y-116553000D02*
X85818000Y-91627000D01*
X84498000Y-116325000D02*
X84498000Y-91855000D01*
X84578000Y-116343000D02*
X84578000Y-91837000D01*
X85218000Y-116467000D02*
X85218000Y-91713000D01*
X85098000Y-116447000D02*
X85098000Y-91733000D01*
X84058000Y-116216000D02*
X84058000Y-91964000D01*
X84378000Y-116297000D02*
X84378000Y-106270000D01*
X85258000Y-116474000D02*
X85258000Y-91706000D01*
X85858000Y-116558000D02*
X85858000Y-91622000D01*
X83978000Y-116195000D02*
X83978000Y-91990000D01*
X85698000Y-116538000D02*
X85698000Y-91642000D01*
X85898000Y-116562000D02*
X85898000Y-91618000D01*
X85058000Y-116440000D02*
X85058000Y-91740000D01*
X84618000Y-116352000D02*
X84618000Y-91828000D01*
X84178000Y-116248000D02*
X84178000Y-106270000D01*
X84298000Y-116278000D02*
X84298000Y-91890000D01*
X85378000Y-116493000D02*
X85378000Y-91687000D01*
X85498000Y-116511000D02*
X85498000Y-91669000D01*
X84098000Y-101910000D02*
X84098000Y-91953000D01*
X84258000Y-116268000D02*
X84258000Y-91890000D01*
X84138000Y-116237000D02*
X84138000Y-91943000D01*
X84058000Y-101910000D02*
X84058000Y-91964000D01*
X84138000Y-101910000D02*
X84138000Y-91943000D01*
X83938000Y-101910000D02*
X83938000Y-91996000D01*
X84458000Y-116316000D02*
X84458000Y-106270000D01*
X84778000Y-116386000D02*
X84778000Y-91794000D01*
X84418000Y-116307000D02*
X84418000Y-91890000D01*
X84818000Y-116394000D02*
X84818000Y-91786000D01*
X84338000Y-116288000D02*
X84338000Y-91890000D01*
X84898000Y-116410000D02*
X84898000Y-91770000D01*
X84098000Y-116227000D02*
X84098000Y-91953000D01*
X84938000Y-116417000D02*
X84938000Y-91763000D01*
X84978000Y-116425000D02*
X84978000Y-91755000D01*
X86699000Y-116626000D02*
X86699000Y-91554000D01*
X86979000Y-116636000D02*
X86979000Y-91544000D01*
X87059000Y-116638000D02*
X87059000Y-91542000D01*
X86619000Y-116622000D02*
X86619000Y-91558000D01*
X86899000Y-116634000D02*
X86899000Y-91546000D01*
X87099000Y-116639000D02*
X87099000Y-91541000D01*
X86178000Y-116591000D02*
X86178000Y-91589000D01*
X85978000Y-116571000D02*
X85978000Y-91609000D01*
X87259000Y-116640000D02*
X87259000Y-91540000D01*
X86458000Y-116612000D02*
X86458000Y-91568000D01*
X87299000Y-116640000D02*
X87299000Y-91540000D01*
X86258000Y-116597000D02*
X86258000Y-91583000D01*
X86819000Y-116631000D02*
X86819000Y-91549000D01*
X86498000Y-116615000D02*
X86498000Y-91565000D01*
X86298000Y-116601000D02*
X86298000Y-91579000D01*
X85938000Y-116567000D02*
X85938000Y-91613000D01*
X86578000Y-116620000D02*
X86578000Y-91560000D01*
X86939000Y-116635000D02*
X86939000Y-91545000D01*
X86138000Y-116587000D02*
X86138000Y-91593000D01*
X87139000Y-116639000D02*
X87139000Y-91541000D01*
X86218000Y-116594000D02*
X86218000Y-91586000D01*
X86378000Y-116607000D02*
X86378000Y-91573000D01*
X86779000Y-116630000D02*
X86779000Y-91550000D01*
X99889000Y-104090000D02*
G75*
G03X99889000Y-104090000I-12590000J0D01*
G01*
X86418000Y-116610000D02*
X86418000Y-91570000D01*
X86739000Y-116628000D02*
X86739000Y-91552000D01*
X87019000Y-116637000D02*
X87019000Y-91543000D01*
X86859000Y-116633000D02*
X86859000Y-91547000D01*
X86538000Y-116618000D02*
X86538000Y-91562000D01*
X86018000Y-116575000D02*
X86018000Y-91605000D01*
X86659000Y-116624000D02*
X86659000Y-91556000D01*
X87179000Y-116640000D02*
X87179000Y-91540000D01*
X87219000Y-116640000D02*
X87219000Y-91540000D01*
X86058000Y-116579000D02*
X86058000Y-91601000D01*
X86098000Y-116583000D02*
X86098000Y-91597000D01*
X86338000Y-116604000D02*
X86338000Y-91576000D01*
X81218000Y-101910000D02*
X81218000Y-93105000D01*
X81218000Y-115075000D02*
X81218000Y-106270000D01*
X81258000Y-101910000D02*
X81258000Y-93083000D01*
X81258000Y-115097000D02*
X81258000Y-106270000D01*
X81298000Y-101910000D02*
X81298000Y-93061000D01*
X81138000Y-101910000D02*
X81138000Y-93149000D01*
X81338000Y-101910000D02*
X81338000Y-93040000D01*
X81338000Y-115140000D02*
X81338000Y-106270000D01*
X81298000Y-115119000D02*
X81298000Y-106270000D01*
X81098000Y-101910000D02*
X81098000Y-93172000D01*
X81098000Y-115008000D02*
X81098000Y-106270000D01*
X81058000Y-101910000D02*
X81058000Y-93195000D01*
X81058000Y-114985000D02*
X81058000Y-106270000D01*
X81138000Y-115031000D02*
X81138000Y-106270000D01*
X81178000Y-101910000D02*
X81178000Y-93127000D01*
X81178000Y-115053000D02*
X81178000Y-106270000D01*
X74739000Y-104919000D02*
X74739000Y-103261000D01*
X76979000Y-111262000D02*
X76979000Y-96918000D01*
X77019000Y-111319000D02*
X77019000Y-96861000D01*
X77059000Y-111375000D02*
X77059000Y-96805000D01*
X77099000Y-111431000D02*
X77099000Y-96749000D01*
X74979000Y-106644000D02*
X74979000Y-101536000D01*
X75859000Y-109307000D02*
X75859000Y-98873000D01*
X74819000Y-105711000D02*
X74819000Y-102469000D01*
X75499000Y-108440000D02*
X75499000Y-99740000D01*
X76899000Y-111146000D02*
X76899000Y-97034000D01*
X75019000Y-106827000D02*
X75019000Y-101353000D01*
X77139000Y-111486000D02*
X77139000Y-96694000D01*
X75779000Y-109130000D02*
X75779000Y-99050000D01*
X75179000Y-107458000D02*
X75179000Y-100722000D01*
X75979000Y-109561000D02*
X75979000Y-98619000D01*
X76259000Y-110102000D02*
X76259000Y-98078000D01*
X75219000Y-107598000D02*
X75219000Y-100582000D01*
X75619000Y-108750000D02*
X75619000Y-99430000D01*
X76419000Y-110386000D02*
X76419000Y-97794000D01*
X76539000Y-110587000D02*
X76539000Y-97593000D01*
X75379000Y-108103000D02*
X75379000Y-100077000D01*
X75579000Y-108649000D02*
X75579000Y-99531000D01*
X76299000Y-110175000D02*
X76299000Y-98005000D01*
X76779000Y-110967000D02*
X76779000Y-97213000D01*
X76819000Y-111027000D02*
X76819000Y-97153000D01*
X77179000Y-111540000D02*
X77179000Y-96640000D01*
X77219000Y-111594000D02*
X77219000Y-96586000D01*
X76619000Y-110717000D02*
X76619000Y-97463000D01*
X77259000Y-111647000D02*
X77259000Y-96533000D01*
X77299000Y-111700000D02*
X77299000Y-96480000D01*
X75059000Y-106998000D02*
X75059000Y-101182000D01*
X75419000Y-108219000D02*
X75419000Y-99961000D01*
X74859000Y-105988000D02*
X74859000Y-102192000D01*
X76459000Y-110454000D02*
X76459000Y-97726000D01*
X75739000Y-109038000D02*
X75739000Y-99142000D01*
X76379000Y-110316000D02*
X76379000Y-97864000D01*
X76139000Y-109878000D02*
X76139000Y-98302000D01*
X75259000Y-107731000D02*
X75259000Y-100449000D01*
X75539000Y-108546000D02*
X75539000Y-99634000D01*
X76059000Y-109722000D02*
X76059000Y-98458000D01*
X76179000Y-109954000D02*
X76179000Y-98226000D01*
X76219000Y-110029000D02*
X76219000Y-98151000D01*
X75339000Y-107983000D02*
X75339000Y-100197000D01*
X75459000Y-108331000D02*
X75459000Y-99849000D01*
X75299000Y-107859000D02*
X75299000Y-100321000D01*
X76099000Y-109801000D02*
X76099000Y-98379000D01*
X76339000Y-110246000D02*
X76339000Y-97934000D01*
X76579000Y-110653000D02*
X76579000Y-97527000D01*
X74939000Y-106446000D02*
X74939000Y-101734000D01*
X76699000Y-110844000D02*
X76699000Y-97336000D01*
X75819000Y-109219000D02*
X75819000Y-98961000D01*
X74779000Y-105376000D02*
X74779000Y-102804000D01*
X75699000Y-108944000D02*
X75699000Y-99236000D01*
X75899000Y-109394000D02*
X75899000Y-98786000D01*
X75099000Y-107160000D02*
X75099000Y-101020000D01*
X75139000Y-107313000D02*
X75139000Y-100867000D01*
X76019000Y-109642000D02*
X76019000Y-98538000D01*
X76659000Y-110781000D02*
X76659000Y-97399000D01*
X76739000Y-110906000D02*
X76739000Y-97274000D01*
X76859000Y-111087000D02*
X76859000Y-97093000D01*
X75659000Y-108848000D02*
X75659000Y-99332000D01*
X75939000Y-109478000D02*
X75939000Y-98702000D01*
X76499000Y-110521000D02*
X76499000Y-97659000D01*
X74899000Y-106230000D02*
X74899000Y-101950000D01*
X76939000Y-111204000D02*
X76939000Y-96976000D01*
X77619000Y-112101000D02*
X77619000Y-96079000D01*
X78339000Y-112895000D02*
X78339000Y-95285000D01*
X78379000Y-112935000D02*
X78379000Y-95245000D01*
X77379000Y-111803000D02*
X77379000Y-96377000D01*
X78299000Y-112854000D02*
X78299000Y-95326000D01*
X77459000Y-111904000D02*
X77459000Y-96276000D01*
X77899000Y-112426000D02*
X77899000Y-95754000D01*
X78459000Y-113015000D02*
X78459000Y-95165000D01*
X78499000Y-113054000D02*
X78499000Y-95126000D01*
X77539000Y-112004000D02*
X77539000Y-96176000D01*
X78219000Y-112772000D02*
X78219000Y-95408000D01*
X78539000Y-113093000D02*
X78539000Y-95087000D01*
X77859000Y-112381000D02*
X77859000Y-95799000D01*
X78019000Y-112559000D02*
X78019000Y-95621000D01*
X78579000Y-113132000D02*
X78579000Y-95048000D01*
X78259000Y-112813000D02*
X78259000Y-95367000D01*
X78659000Y-113208000D02*
X78659000Y-94972000D01*
X78739000Y-113283000D02*
X78739000Y-94897000D01*
X78419000Y-112975000D02*
X78419000Y-95205000D01*
X78939000Y-113464000D02*
X78939000Y-106265000D01*
X79059000Y-113569000D02*
X79059000Y-106265000D01*
X79099000Y-113604000D02*
X79099000Y-106265000D01*
X77939000Y-112471000D02*
X77939000Y-95709000D01*
X79538000Y-113965000D02*
X79524000Y-106265000D01*
X77419000Y-111854000D02*
X77419000Y-96326000D01*
X77579000Y-112052000D02*
X77579000Y-96128000D01*
X78179000Y-112730000D02*
X78179000Y-95450000D01*
X78979000Y-113500000D02*
X78979000Y-106265000D01*
X79138000Y-113638000D02*
X79138000Y-106265000D01*
X77699000Y-112196000D02*
X77699000Y-95984000D01*
X77739000Y-112243000D02*
X77739000Y-95937000D01*
X79378000Y-113837000D02*
X79378000Y-106265000D01*
X79418000Y-113870000D02*
X79418000Y-106265000D01*
X79498000Y-113933000D02*
X79498000Y-106265000D01*
X79298000Y-113772000D02*
X79298000Y-106265000D01*
X79738000Y-114118000D02*
X79738000Y-106265000D01*
X79218000Y-113706000D02*
X79218000Y-106265000D01*
X79778000Y-114148000D02*
X79778000Y-106265000D01*
X78819000Y-113356000D02*
X78819000Y-94824000D01*
X77979000Y-112515000D02*
X77979000Y-95665000D01*
X78139000Y-112688000D02*
X78139000Y-95492000D01*
X79458000Y-113902000D02*
X79458000Y-106265000D01*
X77779000Y-112289000D02*
X77779000Y-95891000D01*
X77819000Y-112335000D02*
X77819000Y-95845000D01*
X78699000Y-113246000D02*
X78699000Y-94934000D01*
X78899000Y-113429000D02*
X78899000Y-106265000D01*
X79258000Y-113739000D02*
X79258000Y-106265000D01*
X79338000Y-113805000D02*
X79338000Y-106265000D01*
X78059000Y-112602000D02*
X78059000Y-95578000D01*
X77499000Y-111954000D02*
X77499000Y-96226000D01*
X78099000Y-112645000D02*
X78099000Y-95535000D01*
X78619000Y-113170000D02*
X78619000Y-95010000D01*
X79019000Y-113535000D02*
X79019000Y-106265000D01*
X77339000Y-111752000D02*
X77339000Y-96428000D01*
X79178000Y-113672000D02*
X79178000Y-106265000D01*
X78859000Y-113393000D02*
X78859000Y-94787000D01*
X79578000Y-113996000D02*
X79578000Y-106265000D01*
X78779000Y-113320000D02*
X78779000Y-94860000D01*
X79618000Y-114027000D02*
X79618000Y-106265000D01*
X79658000Y-114057000D02*
X79658000Y-106265000D01*
X79698000Y-114088000D02*
X79698000Y-106265000D01*
X77659000Y-112149000D02*
X77659000Y-96031000D01*
X79818000Y-114178000D02*
X79818000Y-106265000D01*
X79858000Y-114207000D02*
X79858000Y-106265000D01*
X80218000Y-114461000D02*
X80218000Y-106270000D01*
X80538000Y-114672000D02*
X80538000Y-106270000D01*
X80698000Y-101910000D02*
X80698000Y-93408000D01*
X80178000Y-114434000D02*
X80178000Y-106270000D01*
X80858000Y-114869000D02*
X80858000Y-106270000D01*
X80658000Y-101910000D02*
X80658000Y-93433000D01*
X80778000Y-101910000D02*
X80778000Y-93359000D01*
X80818000Y-101910000D02*
X80818000Y-93335000D01*
X80218000Y-101910000D02*
X80218000Y-93719000D01*
X80938000Y-114916000D02*
X80938000Y-106270000D01*
X80338000Y-101910000D02*
X80338000Y-93638000D01*
X80938000Y-101910000D02*
X80938000Y-93264000D01*
X80978000Y-101910000D02*
X80978000Y-93241000D01*
X80858000Y-101910000D02*
X80858000Y-93311000D01*
X80978000Y-114939000D02*
X80978000Y-106270000D01*
X80298000Y-114515000D02*
X80298000Y-106270000D01*
X80418000Y-114594000D02*
X80418000Y-106270000D01*
X80498000Y-101910000D02*
X80498000Y-93534000D01*
X80578000Y-101910000D02*
X80578000Y-93483000D01*
X81018000Y-101910000D02*
X81018000Y-93218000D01*
X80258000Y-114488000D02*
X80258000Y-106270000D01*
X81018000Y-114962000D02*
X81018000Y-106270000D01*
X80178000Y-101910000D02*
X80178000Y-93746000D01*
X80098000Y-114379000D02*
X80098000Y-106265000D01*
X80338000Y-114542000D02*
X80338000Y-106270000D01*
X80658000Y-114747000D02*
X80658000Y-106270000D01*
X80618000Y-101910000D02*
X80618000Y-93458000D01*
X79898000Y-114236000D02*
X79898000Y-106265000D01*
X80538000Y-101910000D02*
X80538000Y-93508000D01*
X80698000Y-114772000D02*
X80698000Y-106270000D01*
X80738000Y-101910000D02*
X80738000Y-93384000D01*
X80378000Y-101910000D02*
X80378000Y-93612000D01*
X80618000Y-114722000D02*
X80618000Y-106270000D01*
X80778000Y-114821000D02*
X80778000Y-106270000D01*
X79938000Y-114265000D02*
X79938000Y-106265000D01*
X80458000Y-114620000D02*
X80458000Y-106270000D01*
X80898000Y-101910000D02*
X80898000Y-93288000D01*
X80458000Y-101910000D02*
X80458000Y-93560000D01*
X80018000Y-114322000D02*
X80018000Y-106265000D01*
X79978000Y-114294000D02*
X79978000Y-106265000D01*
X80738000Y-114796000D02*
X80738000Y-106270000D01*
X80138000Y-101910000D02*
X80138000Y-93774000D01*
X80298000Y-101910000D02*
X80298000Y-93665000D01*
X80418000Y-101910000D02*
X80418000Y-93586000D01*
X80378000Y-114568000D02*
X80378000Y-106270000D01*
X80578000Y-114697000D02*
X80578000Y-106270000D01*
X80498000Y-114646000D02*
X80498000Y-106270000D01*
X80058000Y-114351000D02*
X80058000Y-106265000D01*
X80818000Y-114845000D02*
X80818000Y-106270000D01*
X80138000Y-114406000D02*
X80138000Y-106270000D01*
X80258000Y-101910000D02*
X80258000Y-93692000D01*
X80898000Y-114892000D02*
X80898000Y-106270000D01*
X80099000Y-101915000D02*
X80099000Y-93790000D01*
X80058000Y-101915000D02*
X80058000Y-93815000D01*
X80058000Y-101915000D02*
X80058000Y-93815000D01*
X80018000Y-101915000D02*
X80018000Y-93840000D01*
X79978000Y-101915000D02*
X79978000Y-93865000D01*
X79938000Y-101915000D02*
X79938000Y-93915000D01*
X79898000Y-101915000D02*
X79898000Y-93940000D01*
X79858000Y-101915000D02*
X79858000Y-93965000D01*
X79818000Y-101915000D02*
X79818000Y-93990000D01*
X79818000Y-101915000D02*
X79818000Y-93990000D01*
X79778000Y-101915000D02*
X79778000Y-94015000D01*
X79738000Y-101915000D02*
X79738000Y-94040000D01*
X79698000Y-101915000D02*
X79698000Y-94090000D01*
X79658000Y-101915000D02*
X79658000Y-94115000D01*
X79618000Y-101915000D02*
X79618000Y-94140000D01*
X79578000Y-101915000D02*
X79578000Y-94165000D01*
X79524000Y-101915000D02*
X79524000Y-94215000D01*
X79498000Y-101915000D02*
X79498000Y-94240000D01*
X79458000Y-101915000D02*
X79458000Y-94265000D01*
X79418000Y-101915000D02*
X79418000Y-94290000D01*
X79378000Y-101915000D02*
X79378000Y-94340000D01*
X79338000Y-101915000D02*
X79338000Y-94365000D01*
X79299000Y-101915000D02*
X79299000Y-94415000D01*
X79258000Y-101915000D02*
X79258000Y-94415000D01*
X79218000Y-101915000D02*
X79218000Y-94465000D01*
X79178000Y-101915000D02*
X79178000Y-94490000D01*
X79138000Y-101915000D02*
X79138000Y-94540000D01*
X79099000Y-101915000D02*
X79099000Y-94565000D01*
X79059000Y-101915000D02*
X79059000Y-94590000D01*
X79059000Y-101915000D02*
X79059000Y-94615000D01*
X79019000Y-101915000D02*
X79019000Y-94640000D01*
X78979000Y-101915000D02*
X78979000Y-94665000D01*
X78939000Y-101915000D02*
X78939000Y-94690000D01*
X78899000Y-101915000D02*
X78899000Y-94740000D01*
X83212000Y-101915000D02*
X83218000Y-92219000D01*
D14*
X108483400Y-76454000D02*
X104876600Y-76454000D01*
X108483400Y-54102000D02*
X108483400Y-76454000D01*
X104876600Y-54102000D02*
X108483400Y-54102000D01*
X104876600Y-76454000D02*
X104876600Y-54102000D01*
X104902000Y-74676000D02*
X108508800Y-74676000D01*
X104902000Y-76962000D02*
X108458000Y-76962000D01*
X89382600Y-84607400D02*
X89382600Y-61595000D01*
X89382600Y-61595000D02*
X103200200Y-61595000D01*
X103200200Y-61595000D02*
X103200200Y-84607400D01*
X103200200Y-84607400D02*
X89382600Y-84607400D01*
X91973400Y-71577200D02*
G75*
G03X91973400Y-71577200I-254000J0D01*
G01*
X91973400Y-74625200D02*
G75*
G03X91973400Y-74625200I-254000J0D01*
G01*
X100101400Y-70815200D02*
G75*
G02X98577400Y-70815200I-762000J0D01*
G01*
X98577400Y-70815200D02*
G75*
G02X97053400Y-70815200I-762000J0D01*
G01*
X97053400Y-70815200D02*
G75*
G02X95529400Y-70815200I-762000J0D01*
G01*
X95529400Y-70815200D02*
G75*
G02X94005400Y-70815200I-762000J0D01*
G01*
X94005400Y-70815200D02*
G75*
G02X92481400Y-70815200I-762000J0D01*
G01*
X94005400Y-75387200D02*
G75*
G02X95529400Y-75387200I762000J0D01*
G01*
X95529400Y-75387200D02*
G75*
G02X97053400Y-75387200I762000J0D01*
G01*
X97053400Y-75387200D02*
G75*
G02X98577400Y-75387200I762000J0D01*
G01*
X98577400Y-75387200D02*
G75*
G02X100101400Y-75387200I762000J0D01*
G01*
X92481400Y-75387200D02*
G75*
G02X94005400Y-75387200I762000J0D01*
G01*
X92227400Y-73609200D02*
X100355400Y-73609200D01*
X92227400Y-72593200D02*
X100355400Y-72593200D01*
X92481400Y-75387200D02*
X91465400Y-75387200D01*
X100101400Y-75387200D02*
X101117400Y-75387200D01*
X100101400Y-70815200D02*
X101117400Y-70815200D01*
X92481400Y-70815200D02*
X91465400Y-70815200D01*
X74243800Y-88277700D02*
X74243800Y-79743300D01*
X74243800Y-79743300D02*
X80238200Y-79743300D01*
X80238200Y-79743300D02*
X80238200Y-88277700D01*
X80238200Y-88277700D02*
X74243800Y-88277700D01*
X93027500Y-58039000D02*
X82359500Y-58039000D01*
X82359500Y-58039000D02*
X82359500Y-53975000D01*
X82359500Y-53975000D02*
X93027500Y-53975000D01*
X93027500Y-53975000D02*
X93027500Y-58039000D01*
D15*
X75438000Y-64135000D02*
X78232000Y-64135000D01*
X78232000Y-64135000D02*
X77470000Y-63373000D01*
X78232000Y-64135000D02*
X77470000Y-64897000D01*
X78232000Y-67945000D02*
X77470000Y-67183000D01*
X78232000Y-67945000D02*
X77470000Y-68707000D01*
X75438000Y-67945000D02*
X78232000Y-67945000D01*
X74295000Y-69977000D02*
X85471000Y-69977000D01*
X74295000Y-62357000D02*
X85471000Y-62357000D01*
X74295000Y-69977000D02*
X74295000Y-62357000D01*
X85471000Y-69977000D02*
X85471000Y-62357000D01*
D14*
X82804000Y-71755000D02*
X87884000Y-71755000D01*
X87884000Y-71755000D02*
X87884000Y-89789000D01*
X87884000Y-89789000D02*
X82804000Y-89789000D01*
X82804000Y-89789000D02*
X82804000Y-71755000D01*
D13*
X131703000Y-92712800D02*
X131703000Y-90712800D01*
X129663000Y-90712800D02*
X129663000Y-92712800D01*
X133219000Y-90712800D02*
X133219000Y-92712800D01*
X135259000Y-92712800D02*
X135259000Y-90712800D01*
X136775000Y-90712800D02*
X136775000Y-92712800D01*
X138815000Y-92712800D02*
X138815000Y-90712800D01*
X142625000Y-92712800D02*
X142625000Y-90712800D01*
X140585000Y-90712800D02*
X140585000Y-92712800D01*
X144395000Y-90712800D02*
X144395000Y-92712800D01*
X146435000Y-92712800D02*
X146435000Y-90712800D01*
X105955200Y-101368800D02*
X105955200Y-100368800D01*
X104255200Y-100368800D02*
X104255200Y-101368800D01*
X136749000Y-115808200D02*
X137449000Y-115808200D01*
X137449000Y-117008200D02*
X136749000Y-117008200D01*
X129663000Y-97602800D02*
X129663000Y-99602800D01*
X131703000Y-99602800D02*
X131703000Y-97602800D01*
X135259000Y-99634800D02*
X135259000Y-97634800D01*
X133219000Y-97634800D02*
X133219000Y-99634800D01*
X136775000Y-97634800D02*
X136775000Y-99634800D01*
X138815000Y-99634800D02*
X138815000Y-97634800D01*
X140585000Y-97634800D02*
X140585000Y-99634800D01*
X142625000Y-99634800D02*
X142625000Y-97634800D01*
X146435000Y-99634800D02*
X146435000Y-97634800D01*
X144395000Y-97634800D02*
X144395000Y-99634800D01*
X111544800Y-83349200D02*
X112544800Y-83349200D01*
X112544800Y-81649200D02*
X111544800Y-81649200D01*
X125961700Y-60051200D02*
X125961700Y-60751200D01*
X124761700Y-60751200D02*
X124761700Y-60051200D01*
X125961700Y-64176200D02*
X125961700Y-64876200D01*
X124761700Y-64876200D02*
X124761700Y-64176200D01*
X143773600Y-84674000D02*
X143073600Y-84674000D01*
X143073600Y-83474000D02*
X143773600Y-83474000D01*
X139212800Y-83474000D02*
X139912800Y-83474000D01*
X139912800Y-84674000D02*
X139212800Y-84674000D01*
X118334000Y-67980000D02*
X119034000Y-67980000D01*
X119034000Y-69180000D02*
X118334000Y-69180000D01*
X119103700Y-58466200D02*
X119103700Y-59166200D01*
X117903700Y-59166200D02*
X117903700Y-58466200D01*
X118329000Y-66202000D02*
X119029000Y-66202000D01*
X119029000Y-67402000D02*
X118329000Y-67402000D01*
X117903700Y-63291200D02*
X117903700Y-62591200D01*
X119103700Y-62591200D02*
X119103700Y-63291200D01*
X104105200Y-97168800D02*
X104105200Y-93268800D01*
X106105200Y-97168800D02*
X106105200Y-93268800D01*
X104105200Y-97168800D02*
X106105200Y-97168800D01*
X120463200Y-78872000D02*
X120463200Y-86172000D01*
X116163200Y-78872000D02*
X116163200Y-86172000D01*
X120463200Y-78872000D02*
X116163200Y-78872000D01*
X136117600Y-67939200D02*
X136117600Y-74839200D01*
X132817600Y-67939200D02*
X132817600Y-74839200D01*
X136117600Y-67939200D02*
X132817600Y-67939200D01*
X102954200Y-111638800D02*
X103954200Y-111638800D01*
X103954200Y-112998800D02*
X102954200Y-112998800D01*
X103985199Y-109956799D02*
X102985199Y-109956799D01*
X102985199Y-108596799D02*
X103985199Y-108596799D01*
X104208200Y-106902800D02*
X103208200Y-106902800D01*
X103208200Y-105542800D02*
X104208200Y-105542800D01*
X132877000Y-117088200D02*
X131877000Y-117088200D01*
X131877000Y-115728200D02*
X132877000Y-115728200D01*
X106699600Y-82558000D02*
X106699600Y-83558000D01*
X105339600Y-83558000D02*
X105339600Y-82558000D01*
X149647200Y-83292400D02*
X150647200Y-83292400D01*
X150647200Y-84652400D02*
X149647200Y-84652400D01*
X150647200Y-82874400D02*
X149647200Y-82874400D01*
X149647200Y-81514400D02*
X150647200Y-81514400D01*
X150626700Y-86493900D02*
X149626700Y-86493900D01*
X149626700Y-85133900D02*
X150626700Y-85133900D01*
X142638400Y-65958000D02*
X141638400Y-65958000D01*
X141638400Y-64598000D02*
X142638400Y-64598000D01*
X145991200Y-82874400D02*
X144991200Y-82874400D01*
X144991200Y-81514400D02*
X145991200Y-81514400D01*
X145392700Y-85133900D02*
X146392700Y-85133900D01*
X146392700Y-86493900D02*
X145392700Y-86493900D01*
X141894000Y-86481200D02*
X140894000Y-86481200D01*
X140894000Y-85121200D02*
X141894000Y-85121200D01*
X148965200Y-64465400D02*
X148965200Y-65465400D01*
X147605200Y-65465400D02*
X147605200Y-64465400D01*
X137880800Y-86481200D02*
X136880800Y-86481200D01*
X136880800Y-85121200D02*
X137880800Y-85121200D01*
X122993700Y-58166200D02*
X122993700Y-59166200D01*
X121633700Y-59166200D02*
X121633700Y-58166200D01*
X127736800Y-69779600D02*
X128736800Y-69779600D01*
X128736800Y-71139600D02*
X127736800Y-71139600D01*
X136925600Y-82474000D02*
X136925600Y-83474000D01*
X135565600Y-83474000D02*
X135565600Y-82474000D01*
X130555800Y-58388800D02*
X129555800Y-58388800D01*
X129555800Y-57028800D02*
X130555800Y-57028800D01*
X117532700Y-58334200D02*
X117532700Y-59334200D01*
X116172700Y-59334200D02*
X116172700Y-58334200D01*
X119601700Y-59293200D02*
X119601700Y-58293200D01*
X120961700Y-58293200D02*
X120961700Y-59293200D01*
X118161000Y-69805000D02*
X119161000Y-69805000D01*
X119161000Y-71165000D02*
X118161000Y-71165000D01*
X129471800Y-59060800D02*
X130471800Y-59060800D01*
X130471800Y-60420800D02*
X129471800Y-60420800D01*
X130555800Y-62452800D02*
X129555800Y-62452800D01*
X129555800Y-61092800D02*
X130555800Y-61092800D01*
X117405700Y-62484200D02*
X117405700Y-63484200D01*
X116045700Y-63484200D02*
X116045700Y-62484200D01*
X129555800Y-63124800D02*
X130555800Y-63124800D01*
X130555800Y-64484800D02*
X129555800Y-64484800D01*
X115246700Y-60409200D02*
X115246700Y-61409200D01*
X113886700Y-61409200D02*
X113886700Y-60409200D01*
X129641800Y-65156800D02*
X130641800Y-65156800D01*
X130641800Y-66516800D02*
X129641800Y-66516800D01*
X113886700Y-65557200D02*
X113886700Y-64557200D01*
X115246700Y-64557200D02*
X115246700Y-65557200D01*
X145153000Y-64002200D02*
X144153000Y-64002200D01*
X144153000Y-62642200D02*
X145153000Y-62642200D01*
D15*
X156083000Y-87553800D02*
X156083000Y-95173800D01*
X167259000Y-87553800D02*
X167259000Y-95173800D01*
X167259000Y-95173800D02*
X156083000Y-95173800D01*
X167259000Y-87553800D02*
X156083000Y-87553800D01*
X166116000Y-89585800D02*
X163322000Y-89585800D01*
X163322000Y-89585800D02*
X164084000Y-88823800D01*
X163322000Y-89585800D02*
X164084000Y-90347800D01*
X163322000Y-93395800D02*
X164084000Y-92633800D01*
X163322000Y-93395800D02*
X164084000Y-94157800D01*
X166116000Y-93395800D02*
X163322000Y-93395800D01*
D16*
X123733700Y-64951200D02*
X123733700Y-64451200D01*
X120483700Y-64951200D02*
X120483700Y-64451200D01*
X120483700Y-61701200D02*
X120483700Y-62201200D01*
X123733700Y-61701200D02*
X123733700Y-62201200D01*
X120483700Y-64951200D02*
X120983700Y-64951200D01*
X120483700Y-61701200D02*
X120983700Y-61701200D01*
X123733700Y-64951200D02*
X123233700Y-64951200D01*
D17*
X113030000Y-78994000D02*
G75*
G03X113030000Y-78994000I-1270000J0D01*
G01*
X110490000Y-78994000D02*
X107696000Y-78994000D01*
X102514400Y-89103200D02*
X99720400Y-89103200D01*
X105054400Y-89103200D02*
G75*
G03X105054400Y-89103200I-1270000J0D01*
G01*
D13*
X110677200Y-87230400D02*
X112677200Y-87230400D01*
X112677200Y-84270400D02*
X110677200Y-84270400D01*
X134905000Y-112940200D02*
X133805000Y-112940200D01*
X134905000Y-114750200D02*
X134905000Y-112940200D01*
X136405000Y-114750200D02*
X134905000Y-114750200D01*
X134905000Y-106160200D02*
X129780000Y-106160200D01*
X134905000Y-104350200D02*
X134905000Y-106160200D01*
X136405000Y-104350200D02*
X134905000Y-104350200D01*
X136748400Y-77585600D02*
X136748400Y-76125600D01*
X139908400Y-77585600D02*
X139908400Y-75425600D01*
X139908400Y-77585600D02*
X138978400Y-77585600D01*
X136748400Y-77585600D02*
X137678400Y-77585600D01*
X136947600Y-57006800D02*
X136947600Y-55676800D01*
X138277600Y-57006800D02*
X136947600Y-57006800D01*
X139547600Y-57006800D02*
X139547600Y-54346800D01*
X139547600Y-54346800D02*
X147227600Y-54346800D01*
X139547600Y-57006800D02*
X147227600Y-57006800D01*
X147227600Y-57006800D02*
X147227600Y-54346800D01*
X149675200Y-67450400D02*
X141815200Y-67450400D01*
X141815200Y-67450400D02*
X141815200Y-79920400D01*
X149675200Y-79920400D02*
X149675200Y-67450400D01*
X141815200Y-79920400D02*
X149675200Y-79920400D01*
X141875200Y-71150400D02*
X141875200Y-72685400D01*
X149615200Y-71150400D02*
X141875200Y-71150400D01*
X149615200Y-76220400D02*
X149615200Y-71150400D01*
X141875200Y-72685400D02*
G75*
G02X141875200Y-74685400I0J-1000000D01*
G01*
X141875200Y-76220400D02*
X149615200Y-76220400D01*
X141875200Y-74685400D02*
X141875200Y-76220400D01*
X124745000Y-66710000D02*
X125445000Y-66710000D01*
X125445000Y-67910000D02*
X124745000Y-67910000D01*
D17*
X98933000Y-119126000D02*
X101727000Y-119126000D01*
X98933000Y-119126000D02*
G75*
G03X98933000Y-119126000I-1270000J0D01*
G01*
X102108000Y-56388000D02*
G75*
G03X102108000Y-56388000I-1270000J0D01*
G01*
X99568000Y-56388000D02*
X96774000Y-56388000D01*
X140081000Y-68580000D02*
G75*
G03X140081000Y-68580000I-1270000J0D01*
G01*
X138811000Y-69850000D02*
X138811000Y-72644000D01*
D13*
X85792000Y-120964000D02*
X85792000Y-119634000D01*
X87122000Y-120964000D02*
X85792000Y-120964000D01*
X88392000Y-120964000D02*
X88392000Y-118304000D01*
X88392000Y-118304000D02*
X90992000Y-118304000D01*
X88392000Y-120964000D02*
X90992000Y-120964000D01*
X90992000Y-120964000D02*
X90992000Y-118304000D01*
X164278000Y-84337200D02*
X166938000Y-84337200D01*
X164278000Y-81737200D02*
X164278000Y-84337200D01*
X166938000Y-81737200D02*
X166938000Y-84337200D01*
X164278000Y-81737200D02*
X166938000Y-81737200D01*
X164278000Y-80467200D02*
X164278000Y-79137200D01*
X164278000Y-79137200D02*
X165608000Y-79137200D01*
X152213000Y-56956000D02*
X152213000Y-55626000D01*
X153543000Y-56956000D02*
X152213000Y-56956000D01*
X154813000Y-56956000D02*
X154813000Y-54296000D01*
X154813000Y-54296000D02*
X157413000Y-54296000D01*
X154813000Y-56956000D02*
X157413000Y-56956000D01*
X157413000Y-56956000D02*
X157413000Y-54296000D01*
D17*
X152400000Y-93268800D02*
G75*
G03X152400000Y-93268800I-1270000J0D01*
G01*
X151130000Y-94538800D02*
X151130000Y-97332800D01*
D13*
X114621000Y-72602000D02*
X119821000Y-72602000D01*
X119821000Y-76242000D02*
X114621000Y-76242000D01*
D16*
X133994419Y-80105238D02*
X133946800Y-80200476D01*
X133851561Y-80295714D01*
X133708704Y-80438571D01*
X133661085Y-80533809D01*
X133661085Y-80629047D01*
X133899180Y-80581428D02*
X133851561Y-80676666D01*
X133756323Y-80771904D01*
X133565847Y-80819523D01*
X133232514Y-80819523D01*
X133042038Y-80771904D01*
X132946800Y-80676666D01*
X132899180Y-80581428D01*
X132899180Y-80390952D01*
X132946800Y-80295714D01*
X133042038Y-80200476D01*
X133232514Y-80152857D01*
X133565847Y-80152857D01*
X133756323Y-80200476D01*
X133851561Y-80295714D01*
X133899180Y-80390952D01*
X133899180Y-80581428D01*
X133899180Y-79200476D02*
X133899180Y-79771904D01*
X133899180Y-79486190D02*
X132899180Y-79486190D01*
X133042038Y-79581428D01*
X133137276Y-79676666D01*
X133184895Y-79771904D01*
X127762095Y-89292180D02*
X128333523Y-89292180D01*
X128047809Y-90292180D02*
X128047809Y-89292180D01*
X129190666Y-90292180D02*
X128619238Y-90292180D01*
X128904952Y-90292180D02*
X128904952Y-89292180D01*
X128809714Y-89435038D01*
X128714476Y-89530276D01*
X128619238Y-89577895D01*
X76065142Y-94337142D02*
X76017523Y-94384761D01*
X75874666Y-94432380D01*
X75779428Y-94432380D01*
X75636571Y-94384761D01*
X75541333Y-94289523D01*
X75493714Y-94194285D01*
X75446095Y-94003809D01*
X75446095Y-93860952D01*
X75493714Y-93670476D01*
X75541333Y-93575238D01*
X75636571Y-93480000D01*
X75779428Y-93432380D01*
X75874666Y-93432380D01*
X76017523Y-93480000D01*
X76065142Y-93527619D01*
X77017523Y-94432380D02*
X76446095Y-94432380D01*
X76731809Y-94432380D02*
X76731809Y-93432380D01*
X76636571Y-93575238D01*
X76541333Y-93670476D01*
X76446095Y-93718095D01*
X77922285Y-93432380D02*
X77446095Y-93432380D01*
X77398476Y-93908571D01*
X77446095Y-93860952D01*
X77541333Y-93813333D01*
X77779428Y-93813333D01*
X77874666Y-93860952D01*
X77922285Y-93908571D01*
X77969904Y-94003809D01*
X77969904Y-94241904D01*
X77922285Y-94337142D01*
X77874666Y-94384761D01*
X77779428Y-94432380D01*
X77541333Y-94432380D01*
X77446095Y-94384761D01*
X77398476Y-94337142D01*
X104338380Y-55856095D02*
X103338380Y-55856095D01*
X103338380Y-55618000D01*
X103386000Y-55475142D01*
X103481238Y-55379904D01*
X103576476Y-55332285D01*
X103766952Y-55284666D01*
X103909809Y-55284666D01*
X104100285Y-55332285D01*
X104195523Y-55379904D01*
X104290761Y-55475142D01*
X104338380Y-55618000D01*
X104338380Y-55856095D01*
X103338380Y-54951333D02*
X103338380Y-54332285D01*
X103719333Y-54665619D01*
X103719333Y-54522761D01*
X103766952Y-54427523D01*
X103814571Y-54379904D01*
X103909809Y-54332285D01*
X104147904Y-54332285D01*
X104243142Y-54379904D01*
X104290761Y-54427523D01*
X104338380Y-54522761D01*
X104338380Y-54808476D01*
X104290761Y-54903714D01*
X104243142Y-54951333D01*
D18*
X105482571Y-74428047D02*
X105482571Y-73653952D01*
X105869619Y-74041000D02*
X105095523Y-74041000D01*
X105482571Y-56521047D02*
X105482571Y-55746952D01*
X105482571Y-69608095D02*
X105434190Y-69559714D01*
X105385809Y-69462952D01*
X105482571Y-69269428D01*
X105434190Y-69172666D01*
X105385809Y-69124285D01*
X105482571Y-64528095D02*
X105434190Y-64479714D01*
X105385809Y-64382952D01*
X105482571Y-64189428D01*
X105434190Y-64092666D01*
X105385809Y-64044285D01*
D16*
X95650904Y-85532571D02*
X95317571Y-85532571D01*
X95317571Y-86056380D02*
X95317571Y-85056380D01*
X95793761Y-85056380D01*
X96650904Y-86056380D02*
X96174714Y-86056380D01*
X96174714Y-85056380D01*
X97508047Y-86056380D02*
X96936619Y-86056380D01*
X97222333Y-86056380D02*
X97222333Y-85056380D01*
X97127095Y-85199238D01*
X97031857Y-85294476D01*
X96936619Y-85342095D01*
X81541380Y-84558119D02*
X81065190Y-84891452D01*
X81541380Y-85129547D02*
X80541380Y-85129547D01*
X80541380Y-84748595D01*
X80589000Y-84653357D01*
X80636619Y-84605738D01*
X80731857Y-84558119D01*
X80874714Y-84558119D01*
X80969952Y-84605738D01*
X81017571Y-84653357D01*
X81065190Y-84748595D01*
X81065190Y-85129547D01*
X80541380Y-84272404D02*
X80541380Y-83700976D01*
X81541380Y-83986690D02*
X80541380Y-83986690D01*
X81541380Y-82843833D02*
X81541380Y-83415261D01*
X81541380Y-83129547D02*
X80541380Y-83129547D01*
X80684238Y-83224785D01*
X80779476Y-83320023D01*
X80827095Y-83415261D01*
X82851666Y-59186771D02*
X82518333Y-59186771D01*
X82518333Y-59710580D02*
X82518333Y-58710580D01*
X82994523Y-58710580D01*
X83899285Y-59710580D02*
X83327857Y-59710580D01*
X83613571Y-59710580D02*
X83613571Y-58710580D01*
X83518333Y-58853438D01*
X83423095Y-58948676D01*
X83327857Y-58996295D01*
X89146142Y-88846857D02*
X89193761Y-88894476D01*
X89241380Y-89037333D01*
X89241380Y-89132571D01*
X89193761Y-89275428D01*
X89098523Y-89370666D01*
X89003285Y-89418285D01*
X88812809Y-89465904D01*
X88669952Y-89465904D01*
X88479476Y-89418285D01*
X88384238Y-89370666D01*
X88289000Y-89275428D01*
X88241380Y-89132571D01*
X88241380Y-89037333D01*
X88289000Y-88894476D01*
X88336619Y-88846857D01*
X89241380Y-87894476D02*
X89241380Y-88465904D01*
X89241380Y-88180190D02*
X88241380Y-88180190D01*
X88384238Y-88275428D01*
X88479476Y-88370666D01*
X88527095Y-88465904D01*
X88574714Y-87037333D02*
X89241380Y-87037333D01*
X88193761Y-87275428D02*
X88908047Y-87513523D01*
X88908047Y-86894476D01*
X132818142Y-91879466D02*
X132865761Y-91927085D01*
X132913380Y-92069942D01*
X132913380Y-92165180D01*
X132865761Y-92308038D01*
X132770523Y-92403276D01*
X132675285Y-92450895D01*
X132484809Y-92498514D01*
X132341952Y-92498514D01*
X132151476Y-92450895D01*
X132056238Y-92403276D01*
X131961000Y-92308038D01*
X131913380Y-92165180D01*
X131913380Y-92069942D01*
X131961000Y-91927085D01*
X132008619Y-91879466D01*
X132913380Y-90927085D02*
X132913380Y-91498514D01*
X132913380Y-91212800D02*
X131913380Y-91212800D01*
X132056238Y-91308038D01*
X132151476Y-91403276D01*
X132199095Y-91498514D01*
X136374142Y-91879466D02*
X136421761Y-91927085D01*
X136469380Y-92069942D01*
X136469380Y-92165180D01*
X136421761Y-92308038D01*
X136326523Y-92403276D01*
X136231285Y-92450895D01*
X136040809Y-92498514D01*
X135897952Y-92498514D01*
X135707476Y-92450895D01*
X135612238Y-92403276D01*
X135517000Y-92308038D01*
X135469380Y-92165180D01*
X135469380Y-92069942D01*
X135517000Y-91927085D01*
X135564619Y-91879466D01*
X135564619Y-91498514D02*
X135517000Y-91450895D01*
X135469380Y-91355657D01*
X135469380Y-91117561D01*
X135517000Y-91022323D01*
X135564619Y-90974704D01*
X135659857Y-90927085D01*
X135755095Y-90927085D01*
X135897952Y-90974704D01*
X136469380Y-91546133D01*
X136469380Y-90927085D01*
X139930142Y-91879466D02*
X139977761Y-91927085D01*
X140025380Y-92069942D01*
X140025380Y-92165180D01*
X139977761Y-92308038D01*
X139882523Y-92403276D01*
X139787285Y-92450895D01*
X139596809Y-92498514D01*
X139453952Y-92498514D01*
X139263476Y-92450895D01*
X139168238Y-92403276D01*
X139073000Y-92308038D01*
X139025380Y-92165180D01*
X139025380Y-92069942D01*
X139073000Y-91927085D01*
X139120619Y-91879466D01*
X139025380Y-91546133D02*
X139025380Y-90927085D01*
X139406333Y-91260419D01*
X139406333Y-91117561D01*
X139453952Y-91022323D01*
X139501571Y-90974704D01*
X139596809Y-90927085D01*
X139834904Y-90927085D01*
X139930142Y-90974704D01*
X139977761Y-91022323D01*
X140025380Y-91117561D01*
X140025380Y-91403276D01*
X139977761Y-91498514D01*
X139930142Y-91546133D01*
X143867142Y-91879466D02*
X143914761Y-91927085D01*
X143962380Y-92069942D01*
X143962380Y-92165180D01*
X143914761Y-92308038D01*
X143819523Y-92403276D01*
X143724285Y-92450895D01*
X143533809Y-92498514D01*
X143390952Y-92498514D01*
X143200476Y-92450895D01*
X143105238Y-92403276D01*
X143010000Y-92308038D01*
X142962380Y-92165180D01*
X142962380Y-92069942D01*
X143010000Y-91927085D01*
X143057619Y-91879466D01*
X143295714Y-91022323D02*
X143962380Y-91022323D01*
X142914761Y-91260419D02*
X143629047Y-91498514D01*
X143629047Y-90879466D01*
X147550142Y-91879466D02*
X147597761Y-91927085D01*
X147645380Y-92069942D01*
X147645380Y-92165180D01*
X147597761Y-92308038D01*
X147502523Y-92403276D01*
X147407285Y-92450895D01*
X147216809Y-92498514D01*
X147073952Y-92498514D01*
X146883476Y-92450895D01*
X146788238Y-92403276D01*
X146693000Y-92308038D01*
X146645380Y-92165180D01*
X146645380Y-92069942D01*
X146693000Y-91927085D01*
X146740619Y-91879466D01*
X146645380Y-90974704D02*
X146645380Y-91450895D01*
X147121571Y-91498514D01*
X147073952Y-91450895D01*
X147026333Y-91355657D01*
X147026333Y-91117561D01*
X147073952Y-91022323D01*
X147121571Y-90974704D01*
X147216809Y-90927085D01*
X147454904Y-90927085D01*
X147550142Y-90974704D01*
X147597761Y-91022323D01*
X147645380Y-91117561D01*
X147645380Y-91355657D01*
X147597761Y-91450895D01*
X147550142Y-91498514D01*
X103735142Y-102773561D02*
X103782761Y-102821180D01*
X103830380Y-102964038D01*
X103830380Y-103059276D01*
X103782761Y-103202133D01*
X103687523Y-103297371D01*
X103592285Y-103344990D01*
X103401809Y-103392609D01*
X103258952Y-103392609D01*
X103068476Y-103344990D01*
X102973238Y-103297371D01*
X102878000Y-103202133D01*
X102830380Y-103059276D01*
X102830380Y-102964038D01*
X102878000Y-102821180D01*
X102925619Y-102773561D01*
X103782761Y-102392609D02*
X103830380Y-102297371D01*
X103830380Y-102106895D01*
X103782761Y-102011657D01*
X103687523Y-101964038D01*
X103639904Y-101964038D01*
X103544666Y-102011657D01*
X103497047Y-102106895D01*
X103497047Y-102249752D01*
X103449428Y-102344990D01*
X103354190Y-102392609D01*
X103306571Y-102392609D01*
X103211333Y-102344990D01*
X103163714Y-102249752D01*
X103163714Y-102106895D01*
X103211333Y-102011657D01*
X103163714Y-101678323D02*
X103163714Y-101297371D01*
X102830380Y-101535466D02*
X103687523Y-101535466D01*
X103782761Y-101487847D01*
X103830380Y-101392609D01*
X103830380Y-101297371D01*
X103830380Y-100535466D02*
X103306571Y-100535466D01*
X103211333Y-100583085D01*
X103163714Y-100678323D01*
X103163714Y-100868800D01*
X103211333Y-100964038D01*
X103782761Y-100535466D02*
X103830380Y-100630704D01*
X103830380Y-100868800D01*
X103782761Y-100964038D01*
X103687523Y-101011657D01*
X103592285Y-101011657D01*
X103497047Y-100964038D01*
X103449428Y-100868800D01*
X103449428Y-100630704D01*
X103401809Y-100535466D01*
X103830380Y-100059276D02*
X103163714Y-100059276D01*
X103354190Y-100059276D02*
X103258952Y-100011657D01*
X103211333Y-99964038D01*
X103163714Y-99868800D01*
X103163714Y-99773561D01*
X103163714Y-99583085D02*
X103163714Y-99202133D01*
X102830380Y-99440228D02*
X103687523Y-99440228D01*
X103782761Y-99392609D01*
X103830380Y-99297371D01*
X103830380Y-99202133D01*
X103830380Y-98344990D02*
X103830380Y-98916419D01*
X103830380Y-98630704D02*
X102830380Y-98630704D01*
X102973238Y-98725942D01*
X103068476Y-98821180D01*
X103116095Y-98916419D01*
X140041333Y-116765342D02*
X139993714Y-116812961D01*
X139850857Y-116860580D01*
X139755619Y-116860580D01*
X139612761Y-116812961D01*
X139517523Y-116717723D01*
X139469904Y-116622485D01*
X139422285Y-116432009D01*
X139422285Y-116289152D01*
X139469904Y-116098676D01*
X139517523Y-116003438D01*
X139612761Y-115908200D01*
X139755619Y-115860580D01*
X139850857Y-115860580D01*
X139993714Y-115908200D01*
X140041333Y-115955819D01*
X140374666Y-115860580D02*
X141041333Y-115860580D01*
X140612761Y-116860580D01*
X132818142Y-98769466D02*
X132865761Y-98817085D01*
X132913380Y-98959942D01*
X132913380Y-99055180D01*
X132865761Y-99198038D01*
X132770523Y-99293276D01*
X132675285Y-99340895D01*
X132484809Y-99388514D01*
X132341952Y-99388514D01*
X132151476Y-99340895D01*
X132056238Y-99293276D01*
X131961000Y-99198038D01*
X131913380Y-99055180D01*
X131913380Y-98959942D01*
X131961000Y-98817085D01*
X132008619Y-98769466D01*
X132341952Y-98198038D02*
X132294333Y-98293276D01*
X132246714Y-98340895D01*
X132151476Y-98388514D01*
X132103857Y-98388514D01*
X132008619Y-98340895D01*
X131961000Y-98293276D01*
X131913380Y-98198038D01*
X131913380Y-98007561D01*
X131961000Y-97912323D01*
X132008619Y-97864704D01*
X132103857Y-97817085D01*
X132151476Y-97817085D01*
X132246714Y-97864704D01*
X132294333Y-97912323D01*
X132341952Y-98007561D01*
X132341952Y-98198038D01*
X132389571Y-98293276D01*
X132437190Y-98340895D01*
X132532428Y-98388514D01*
X132722904Y-98388514D01*
X132818142Y-98340895D01*
X132865761Y-98293276D01*
X132913380Y-98198038D01*
X132913380Y-98007561D01*
X132865761Y-97912323D01*
X132818142Y-97864704D01*
X132722904Y-97817085D01*
X132532428Y-97817085D01*
X132437190Y-97864704D01*
X132389571Y-97912323D01*
X132341952Y-98007561D01*
X136374142Y-98769466D02*
X136421761Y-98817085D01*
X136469380Y-98959942D01*
X136469380Y-99055180D01*
X136421761Y-99198038D01*
X136326523Y-99293276D01*
X136231285Y-99340895D01*
X136040809Y-99388514D01*
X135897952Y-99388514D01*
X135707476Y-99340895D01*
X135612238Y-99293276D01*
X135517000Y-99198038D01*
X135469380Y-99055180D01*
X135469380Y-98959942D01*
X135517000Y-98817085D01*
X135564619Y-98769466D01*
X136469380Y-98293276D02*
X136469380Y-98102800D01*
X136421761Y-98007561D01*
X136374142Y-97959942D01*
X136231285Y-97864704D01*
X136040809Y-97817085D01*
X135659857Y-97817085D01*
X135564619Y-97864704D01*
X135517000Y-97912323D01*
X135469380Y-98007561D01*
X135469380Y-98198038D01*
X135517000Y-98293276D01*
X135564619Y-98340895D01*
X135659857Y-98388514D01*
X135897952Y-98388514D01*
X135993190Y-98340895D01*
X136040809Y-98293276D01*
X136088428Y-98198038D01*
X136088428Y-98007561D01*
X136040809Y-97912323D01*
X135993190Y-97864704D01*
X135897952Y-97817085D01*
X139930142Y-99118657D02*
X139977761Y-99166276D01*
X140025380Y-99309133D01*
X140025380Y-99404371D01*
X139977761Y-99547228D01*
X139882523Y-99642466D01*
X139787285Y-99690085D01*
X139596809Y-99737704D01*
X139453952Y-99737704D01*
X139263476Y-99690085D01*
X139168238Y-99642466D01*
X139073000Y-99547228D01*
X139025380Y-99404371D01*
X139025380Y-99309133D01*
X139073000Y-99166276D01*
X139120619Y-99118657D01*
X140025380Y-98166276D02*
X140025380Y-98737704D01*
X140025380Y-98451990D02*
X139025380Y-98451990D01*
X139168238Y-98547228D01*
X139263476Y-98642466D01*
X139311095Y-98737704D01*
X139025380Y-97547228D02*
X139025380Y-97451990D01*
X139073000Y-97356752D01*
X139120619Y-97309133D01*
X139215857Y-97261514D01*
X139406333Y-97213895D01*
X139644428Y-97213895D01*
X139834904Y-97261514D01*
X139930142Y-97309133D01*
X139977761Y-97356752D01*
X140025380Y-97451990D01*
X140025380Y-97547228D01*
X139977761Y-97642466D01*
X139930142Y-97690085D01*
X139834904Y-97737704D01*
X139644428Y-97785323D01*
X139406333Y-97785323D01*
X139215857Y-97737704D01*
X139120619Y-97690085D01*
X139073000Y-97642466D01*
X139025380Y-97547228D01*
X143740142Y-99245657D02*
X143787761Y-99293276D01*
X143835380Y-99436133D01*
X143835380Y-99531371D01*
X143787761Y-99674228D01*
X143692523Y-99769466D01*
X143597285Y-99817085D01*
X143406809Y-99864704D01*
X143263952Y-99864704D01*
X143073476Y-99817085D01*
X142978238Y-99769466D01*
X142883000Y-99674228D01*
X142835380Y-99531371D01*
X142835380Y-99436133D01*
X142883000Y-99293276D01*
X142930619Y-99245657D01*
X143835380Y-98293276D02*
X143835380Y-98864704D01*
X143835380Y-98578990D02*
X142835380Y-98578990D01*
X142978238Y-98674228D01*
X143073476Y-98769466D01*
X143121095Y-98864704D01*
X143835380Y-97340895D02*
X143835380Y-97912323D01*
X143835380Y-97626609D02*
X142835380Y-97626609D01*
X142978238Y-97721847D01*
X143073476Y-97817085D01*
X143121095Y-97912323D01*
X147550142Y-99245657D02*
X147597761Y-99293276D01*
X147645380Y-99436133D01*
X147645380Y-99531371D01*
X147597761Y-99674228D01*
X147502523Y-99769466D01*
X147407285Y-99817085D01*
X147216809Y-99864704D01*
X147073952Y-99864704D01*
X146883476Y-99817085D01*
X146788238Y-99769466D01*
X146693000Y-99674228D01*
X146645380Y-99531371D01*
X146645380Y-99436133D01*
X146693000Y-99293276D01*
X146740619Y-99245657D01*
X147645380Y-98293276D02*
X147645380Y-98864704D01*
X147645380Y-98578990D02*
X146645380Y-98578990D01*
X146788238Y-98674228D01*
X146883476Y-98769466D01*
X146931095Y-98864704D01*
X146740619Y-97912323D02*
X146693000Y-97864704D01*
X146645380Y-97769466D01*
X146645380Y-97531371D01*
X146693000Y-97436133D01*
X146740619Y-97388514D01*
X146835857Y-97340895D01*
X146931095Y-97340895D01*
X147073952Y-97388514D01*
X147645380Y-97959942D01*
X147645380Y-97340895D01*
X107662742Y-82856342D02*
X107615123Y-82903961D01*
X107472266Y-82951580D01*
X107377028Y-82951580D01*
X107234171Y-82903961D01*
X107138933Y-82808723D01*
X107091314Y-82713485D01*
X107043695Y-82523009D01*
X107043695Y-82380152D01*
X107091314Y-82189676D01*
X107138933Y-82094438D01*
X107234171Y-81999200D01*
X107377028Y-81951580D01*
X107472266Y-81951580D01*
X107615123Y-81999200D01*
X107662742Y-82046819D01*
X108615123Y-82951580D02*
X108043695Y-82951580D01*
X108329409Y-82951580D02*
X108329409Y-81951580D01*
X108234171Y-82094438D01*
X108138933Y-82189676D01*
X108043695Y-82237295D01*
X108948457Y-81951580D02*
X109567504Y-81951580D01*
X109234171Y-82332533D01*
X109377028Y-82332533D01*
X109472266Y-82380152D01*
X109519885Y-82427771D01*
X109567504Y-82523009D01*
X109567504Y-82761104D01*
X109519885Y-82856342D01*
X109472266Y-82903961D01*
X109377028Y-82951580D01*
X109091314Y-82951580D01*
X108996076Y-82903961D01*
X108948457Y-82856342D01*
X125718842Y-57792857D02*
X125766461Y-57840476D01*
X125814080Y-57983333D01*
X125814080Y-58078571D01*
X125766461Y-58221428D01*
X125671223Y-58316666D01*
X125575985Y-58364285D01*
X125385509Y-58411904D01*
X125242652Y-58411904D01*
X125052176Y-58364285D01*
X124956938Y-58316666D01*
X124861700Y-58221428D01*
X124814080Y-58078571D01*
X124814080Y-57983333D01*
X124861700Y-57840476D01*
X124909319Y-57792857D01*
X125814080Y-56840476D02*
X125814080Y-57411904D01*
X125814080Y-57126190D02*
X124814080Y-57126190D01*
X124956938Y-57221428D01*
X125052176Y-57316666D01*
X125099795Y-57411904D01*
X124814080Y-55983333D02*
X124814080Y-56173809D01*
X124861700Y-56269047D01*
X124909319Y-56316666D01*
X125052176Y-56411904D01*
X125242652Y-56459523D01*
X125623604Y-56459523D01*
X125718842Y-56411904D01*
X125766461Y-56364285D01*
X125814080Y-56269047D01*
X125814080Y-56078571D01*
X125766461Y-55983333D01*
X125718842Y-55935714D01*
X125623604Y-55888095D01*
X125385509Y-55888095D01*
X125290271Y-55935714D01*
X125242652Y-55983333D01*
X125195033Y-56078571D01*
X125195033Y-56269047D01*
X125242652Y-56364285D01*
X125290271Y-56411904D01*
X125385509Y-56459523D01*
X127230142Y-65158857D02*
X127277761Y-65206476D01*
X127325380Y-65349333D01*
X127325380Y-65444571D01*
X127277761Y-65587428D01*
X127182523Y-65682666D01*
X127087285Y-65730285D01*
X126896809Y-65777904D01*
X126753952Y-65777904D01*
X126563476Y-65730285D01*
X126468238Y-65682666D01*
X126373000Y-65587428D01*
X126325380Y-65444571D01*
X126325380Y-65349333D01*
X126373000Y-65206476D01*
X126420619Y-65158857D01*
X127325380Y-64206476D02*
X127325380Y-64777904D01*
X127325380Y-64492190D02*
X126325380Y-64492190D01*
X126468238Y-64587428D01*
X126563476Y-64682666D01*
X126611095Y-64777904D01*
X126325380Y-63873142D02*
X126325380Y-63206476D01*
X127325380Y-63635047D01*
X141292342Y-83059542D02*
X141244723Y-83107161D01*
X141101866Y-83154780D01*
X141006628Y-83154780D01*
X140863771Y-83107161D01*
X140768533Y-83011923D01*
X140720914Y-82916685D01*
X140673295Y-82726209D01*
X140673295Y-82583352D01*
X140720914Y-82392876D01*
X140768533Y-82297638D01*
X140863771Y-82202400D01*
X141006628Y-82154780D01*
X141101866Y-82154780D01*
X141244723Y-82202400D01*
X141292342Y-82250019D01*
X142244723Y-83154780D02*
X141673295Y-83154780D01*
X141959009Y-83154780D02*
X141959009Y-82154780D01*
X141863771Y-82297638D01*
X141768533Y-82392876D01*
X141673295Y-82440495D01*
X142816152Y-82583352D02*
X142720914Y-82535733D01*
X142673295Y-82488114D01*
X142625676Y-82392876D01*
X142625676Y-82345257D01*
X142673295Y-82250019D01*
X142720914Y-82202400D01*
X142816152Y-82154780D01*
X143006628Y-82154780D01*
X143101866Y-82202400D01*
X143149485Y-82250019D01*
X143197104Y-82345257D01*
X143197104Y-82392876D01*
X143149485Y-82488114D01*
X143101866Y-82535733D01*
X143006628Y-82583352D01*
X142816152Y-82583352D01*
X142720914Y-82630971D01*
X142673295Y-82678590D01*
X142625676Y-82773828D01*
X142625676Y-82964304D01*
X142673295Y-83059542D01*
X142720914Y-83107161D01*
X142816152Y-83154780D01*
X143006628Y-83154780D01*
X143101866Y-83107161D01*
X143149485Y-83059542D01*
X143197104Y-82964304D01*
X143197104Y-82773828D01*
X143149485Y-82678590D01*
X143101866Y-82630971D01*
X143006628Y-82583352D01*
X138041142Y-83034142D02*
X137993523Y-83081761D01*
X137850666Y-83129380D01*
X137755428Y-83129380D01*
X137612571Y-83081761D01*
X137517333Y-82986523D01*
X137469714Y-82891285D01*
X137422095Y-82700809D01*
X137422095Y-82557952D01*
X137469714Y-82367476D01*
X137517333Y-82272238D01*
X137612571Y-82177000D01*
X137755428Y-82129380D01*
X137850666Y-82129380D01*
X137993523Y-82177000D01*
X138041142Y-82224619D01*
X138993523Y-83129380D02*
X138422095Y-83129380D01*
X138707809Y-83129380D02*
X138707809Y-82129380D01*
X138612571Y-82272238D01*
X138517333Y-82367476D01*
X138422095Y-82415095D01*
X139469714Y-83129380D02*
X139660190Y-83129380D01*
X139755428Y-83081761D01*
X139803047Y-83034142D01*
X139898285Y-82891285D01*
X139945904Y-82700809D01*
X139945904Y-82319857D01*
X139898285Y-82224619D01*
X139850666Y-82177000D01*
X139755428Y-82129380D01*
X139564952Y-82129380D01*
X139469714Y-82177000D01*
X139422095Y-82224619D01*
X139374476Y-82319857D01*
X139374476Y-82557952D01*
X139422095Y-82653190D01*
X139469714Y-82700809D01*
X139564952Y-82748428D01*
X139755428Y-82748428D01*
X139850666Y-82700809D01*
X139898285Y-82653190D01*
X139945904Y-82557952D01*
X114673142Y-68937142D02*
X114625523Y-68984761D01*
X114482666Y-69032380D01*
X114387428Y-69032380D01*
X114244571Y-68984761D01*
X114149333Y-68889523D01*
X114101714Y-68794285D01*
X114054095Y-68603809D01*
X114054095Y-68460952D01*
X114101714Y-68270476D01*
X114149333Y-68175238D01*
X114244571Y-68080000D01*
X114387428Y-68032380D01*
X114482666Y-68032380D01*
X114625523Y-68080000D01*
X114673142Y-68127619D01*
X115054095Y-68127619D02*
X115101714Y-68080000D01*
X115196952Y-68032380D01*
X115435047Y-68032380D01*
X115530285Y-68080000D01*
X115577904Y-68127619D01*
X115625523Y-68222857D01*
X115625523Y-68318095D01*
X115577904Y-68460952D01*
X115006476Y-69032380D01*
X115625523Y-69032380D01*
X116244571Y-68032380D02*
X116339809Y-68032380D01*
X116435047Y-68080000D01*
X116482666Y-68127619D01*
X116530285Y-68222857D01*
X116577904Y-68413333D01*
X116577904Y-68651428D01*
X116530285Y-68841904D01*
X116482666Y-68937142D01*
X116435047Y-68984761D01*
X116339809Y-69032380D01*
X116244571Y-69032380D01*
X116149333Y-68984761D01*
X116101714Y-68937142D01*
X116054095Y-68841904D01*
X116006476Y-68651428D01*
X116006476Y-68413333D01*
X116054095Y-68222857D01*
X116101714Y-68127619D01*
X116149333Y-68080000D01*
X116244571Y-68032380D01*
X118987842Y-56091057D02*
X119035461Y-56138676D01*
X119083080Y-56281533D01*
X119083080Y-56376771D01*
X119035461Y-56519628D01*
X118940223Y-56614866D01*
X118844985Y-56662485D01*
X118654509Y-56710104D01*
X118511652Y-56710104D01*
X118321176Y-56662485D01*
X118225938Y-56614866D01*
X118130700Y-56519628D01*
X118083080Y-56376771D01*
X118083080Y-56281533D01*
X118130700Y-56138676D01*
X118178319Y-56091057D01*
X118178319Y-55710104D02*
X118130700Y-55662485D01*
X118083080Y-55567247D01*
X118083080Y-55329152D01*
X118130700Y-55233914D01*
X118178319Y-55186295D01*
X118273557Y-55138676D01*
X118368795Y-55138676D01*
X118511652Y-55186295D01*
X119083080Y-55757723D01*
X119083080Y-55138676D01*
X119083080Y-54186295D02*
X119083080Y-54757723D01*
X119083080Y-54472009D02*
X118083080Y-54472009D01*
X118225938Y-54567247D01*
X118321176Y-54662485D01*
X118368795Y-54757723D01*
X121277142Y-67159142D02*
X121229523Y-67206761D01*
X121086666Y-67254380D01*
X120991428Y-67254380D01*
X120848571Y-67206761D01*
X120753333Y-67111523D01*
X120705714Y-67016285D01*
X120658095Y-66825809D01*
X120658095Y-66682952D01*
X120705714Y-66492476D01*
X120753333Y-66397238D01*
X120848571Y-66302000D01*
X120991428Y-66254380D01*
X121086666Y-66254380D01*
X121229523Y-66302000D01*
X121277142Y-66349619D01*
X121658095Y-66349619D02*
X121705714Y-66302000D01*
X121800952Y-66254380D01*
X122039047Y-66254380D01*
X122134285Y-66302000D01*
X122181904Y-66349619D01*
X122229523Y-66444857D01*
X122229523Y-66540095D01*
X122181904Y-66682952D01*
X121610476Y-67254380D01*
X122229523Y-67254380D01*
X122610476Y-66349619D02*
X122658095Y-66302000D01*
X122753333Y-66254380D01*
X122991428Y-66254380D01*
X123086666Y-66302000D01*
X123134285Y-66349619D01*
X123181904Y-66444857D01*
X123181904Y-66540095D01*
X123134285Y-66682952D01*
X122562857Y-67254380D01*
X123181904Y-67254380D01*
X113133142Y-63634857D02*
X113180761Y-63682476D01*
X113228380Y-63825333D01*
X113228380Y-63920571D01*
X113180761Y-64063428D01*
X113085523Y-64158666D01*
X112990285Y-64206285D01*
X112799809Y-64253904D01*
X112656952Y-64253904D01*
X112466476Y-64206285D01*
X112371238Y-64158666D01*
X112276000Y-64063428D01*
X112228380Y-63920571D01*
X112228380Y-63825333D01*
X112276000Y-63682476D01*
X112323619Y-63634857D01*
X112323619Y-63253904D02*
X112276000Y-63206285D01*
X112228380Y-63111047D01*
X112228380Y-62872952D01*
X112276000Y-62777714D01*
X112323619Y-62730095D01*
X112418857Y-62682476D01*
X112514095Y-62682476D01*
X112656952Y-62730095D01*
X113228380Y-63301523D01*
X113228380Y-62682476D01*
X112228380Y-62349142D02*
X112228380Y-61730095D01*
X112609333Y-62063428D01*
X112609333Y-61920571D01*
X112656952Y-61825333D01*
X112704571Y-61777714D01*
X112799809Y-61730095D01*
X113037904Y-61730095D01*
X113133142Y-61777714D01*
X113180761Y-61825333D01*
X113228380Y-61920571D01*
X113228380Y-62206285D01*
X113180761Y-62301523D01*
X113133142Y-62349142D01*
X103557580Y-95656895D02*
X102557580Y-95656895D01*
X102557580Y-95418800D01*
X102605200Y-95275942D01*
X102700438Y-95180704D01*
X102795676Y-95133085D01*
X102986152Y-95085466D01*
X103129009Y-95085466D01*
X103319485Y-95133085D01*
X103414723Y-95180704D01*
X103509961Y-95275942D01*
X103557580Y-95418800D01*
X103557580Y-95656895D01*
X103557580Y-94133085D02*
X103557580Y-94704514D01*
X103557580Y-94418800D02*
X102557580Y-94418800D01*
X102700438Y-94514038D01*
X102795676Y-94609276D01*
X102843295Y-94704514D01*
X115768380Y-84210095D02*
X114768380Y-84210095D01*
X114768380Y-83972000D01*
X114816000Y-83829142D01*
X114911238Y-83733904D01*
X115006476Y-83686285D01*
X115196952Y-83638666D01*
X115339809Y-83638666D01*
X115530285Y-83686285D01*
X115625523Y-83733904D01*
X115720761Y-83829142D01*
X115768380Y-83972000D01*
X115768380Y-84210095D01*
X115101714Y-82781523D02*
X115768380Y-82781523D01*
X114720761Y-83019619D02*
X115435047Y-83257714D01*
X115435047Y-82638666D01*
X137409180Y-74141104D02*
X136409180Y-74141104D01*
X136409180Y-73903009D01*
X136456800Y-73760152D01*
X136552038Y-73664914D01*
X136647276Y-73617295D01*
X136837752Y-73569676D01*
X136980609Y-73569676D01*
X137171085Y-73617295D01*
X137266323Y-73664914D01*
X137361561Y-73760152D01*
X137409180Y-73903009D01*
X137409180Y-74141104D01*
X137409180Y-72998247D02*
X137361561Y-73093485D01*
X137313942Y-73141104D01*
X137218704Y-73188723D01*
X136932990Y-73188723D01*
X136837752Y-73141104D01*
X136790133Y-73093485D01*
X136742514Y-72998247D01*
X136742514Y-72855390D01*
X136790133Y-72760152D01*
X136837752Y-72712533D01*
X136932990Y-72664914D01*
X137218704Y-72664914D01*
X137313942Y-72712533D01*
X137361561Y-72760152D01*
X137409180Y-72855390D01*
X137409180Y-72998247D01*
X136742514Y-72379200D02*
X136742514Y-71998247D01*
X137409180Y-72236342D02*
X136552038Y-72236342D01*
X136456800Y-72188723D01*
X136409180Y-72093485D01*
X136409180Y-71998247D01*
X136742514Y-71807771D02*
X136742514Y-71426819D01*
X137409180Y-71664914D02*
X136552038Y-71664914D01*
X136456800Y-71617295D01*
X136409180Y-71522057D01*
X136409180Y-71426819D01*
X137409180Y-70569676D02*
X137409180Y-71141104D01*
X137409180Y-70855390D02*
X136409180Y-70855390D01*
X136552038Y-70950628D01*
X136647276Y-71045866D01*
X136694895Y-71141104D01*
X103287533Y-114221180D02*
X102954200Y-113744990D01*
X102716104Y-114221180D02*
X102716104Y-113221180D01*
X103097057Y-113221180D01*
X103192295Y-113268800D01*
X103239914Y-113316419D01*
X103287533Y-113411657D01*
X103287533Y-113554514D01*
X103239914Y-113649752D01*
X103192295Y-113697371D01*
X103097057Y-113744990D01*
X102716104Y-113744990D01*
X104239914Y-114221180D02*
X103668485Y-114221180D01*
X103954200Y-114221180D02*
X103954200Y-113221180D01*
X103858961Y-113364038D01*
X103763723Y-113459276D01*
X103668485Y-113506895D01*
X103318532Y-111179179D02*
X102985199Y-110702989D01*
X102747103Y-111179179D02*
X102747103Y-110179179D01*
X103128056Y-110179179D01*
X103223294Y-110226799D01*
X103270913Y-110274418D01*
X103318532Y-110369656D01*
X103318532Y-110512513D01*
X103270913Y-110607751D01*
X103223294Y-110655370D01*
X103128056Y-110702989D01*
X102747103Y-110702989D01*
X103699484Y-110274418D02*
X103747103Y-110226799D01*
X103842341Y-110179179D01*
X104080437Y-110179179D01*
X104175675Y-110226799D01*
X104223294Y-110274418D01*
X104270913Y-110369656D01*
X104270913Y-110464894D01*
X104223294Y-110607751D01*
X103651865Y-111179179D01*
X104270913Y-111179179D01*
X103541533Y-108125180D02*
X103208200Y-107648990D01*
X102970104Y-108125180D02*
X102970104Y-107125180D01*
X103351057Y-107125180D01*
X103446295Y-107172800D01*
X103493914Y-107220419D01*
X103541533Y-107315657D01*
X103541533Y-107458514D01*
X103493914Y-107553752D01*
X103446295Y-107601371D01*
X103351057Y-107648990D01*
X102970104Y-107648990D01*
X103874866Y-107125180D02*
X104493914Y-107125180D01*
X104160580Y-107506133D01*
X104303438Y-107506133D01*
X104398676Y-107553752D01*
X104446295Y-107601371D01*
X104493914Y-107696609D01*
X104493914Y-107934704D01*
X104446295Y-108029942D01*
X104398676Y-108077561D01*
X104303438Y-108125180D01*
X104017723Y-108125180D01*
X103922485Y-108077561D01*
X103874866Y-108029942D01*
X129119333Y-116860580D02*
X128786000Y-116384390D01*
X128547904Y-116860580D02*
X128547904Y-115860580D01*
X128928857Y-115860580D01*
X129024095Y-115908200D01*
X129071714Y-115955819D01*
X129119333Y-116051057D01*
X129119333Y-116193914D01*
X129071714Y-116289152D01*
X129024095Y-116336771D01*
X128928857Y-116384390D01*
X128547904Y-116384390D01*
X129976476Y-116193914D02*
X129976476Y-116860580D01*
X129738380Y-115812961D02*
X129500285Y-116527247D01*
X130119333Y-116527247D01*
X105021980Y-83224666D02*
X104545790Y-83558000D01*
X105021980Y-83796095D02*
X104021980Y-83796095D01*
X104021980Y-83415142D01*
X104069600Y-83319904D01*
X104117219Y-83272285D01*
X104212457Y-83224666D01*
X104355314Y-83224666D01*
X104450552Y-83272285D01*
X104498171Y-83319904D01*
X104545790Y-83415142D01*
X104545790Y-83796095D01*
X104021980Y-82319904D02*
X104021980Y-82796095D01*
X104498171Y-82843714D01*
X104450552Y-82796095D01*
X104402933Y-82700857D01*
X104402933Y-82462761D01*
X104450552Y-82367523D01*
X104498171Y-82319904D01*
X104593409Y-82272285D01*
X104831504Y-82272285D01*
X104926742Y-82319904D01*
X104974361Y-82367523D01*
X105021980Y-82462761D01*
X105021980Y-82700857D01*
X104974361Y-82796095D01*
X104926742Y-82843714D01*
X152817533Y-84424780D02*
X152484200Y-83948590D01*
X152246104Y-84424780D02*
X152246104Y-83424780D01*
X152627057Y-83424780D01*
X152722295Y-83472400D01*
X152769914Y-83520019D01*
X152817533Y-83615257D01*
X152817533Y-83758114D01*
X152769914Y-83853352D01*
X152722295Y-83900971D01*
X152627057Y-83948590D01*
X152246104Y-83948590D01*
X153388961Y-83853352D02*
X153293723Y-83805733D01*
X153246104Y-83758114D01*
X153198485Y-83662876D01*
X153198485Y-83615257D01*
X153246104Y-83520019D01*
X153293723Y-83472400D01*
X153388961Y-83424780D01*
X153579438Y-83424780D01*
X153674676Y-83472400D01*
X153722295Y-83520019D01*
X153769914Y-83615257D01*
X153769914Y-83662876D01*
X153722295Y-83758114D01*
X153674676Y-83805733D01*
X153579438Y-83853352D01*
X153388961Y-83853352D01*
X153293723Y-83900971D01*
X153246104Y-83948590D01*
X153198485Y-84043828D01*
X153198485Y-84234304D01*
X153246104Y-84329542D01*
X153293723Y-84377161D01*
X153388961Y-84424780D01*
X153579438Y-84424780D01*
X153674676Y-84377161D01*
X153722295Y-84329542D01*
X153769914Y-84234304D01*
X153769914Y-84043828D01*
X153722295Y-83948590D01*
X153674676Y-83900971D01*
X153579438Y-83853352D01*
X152817533Y-82710280D02*
X152484200Y-82234090D01*
X152246104Y-82710280D02*
X152246104Y-81710280D01*
X152627057Y-81710280D01*
X152722295Y-81757900D01*
X152769914Y-81805519D01*
X152817533Y-81900757D01*
X152817533Y-82043614D01*
X152769914Y-82138852D01*
X152722295Y-82186471D01*
X152627057Y-82234090D01*
X152246104Y-82234090D01*
X153293723Y-82710280D02*
X153484200Y-82710280D01*
X153579438Y-82662661D01*
X153627057Y-82615042D01*
X153722295Y-82472185D01*
X153769914Y-82281709D01*
X153769914Y-81900757D01*
X153722295Y-81805519D01*
X153674676Y-81757900D01*
X153579438Y-81710280D01*
X153388961Y-81710280D01*
X153293723Y-81757900D01*
X153246104Y-81805519D01*
X153198485Y-81900757D01*
X153198485Y-82138852D01*
X153246104Y-82234090D01*
X153293723Y-82281709D01*
X153388961Y-82329328D01*
X153579438Y-82329328D01*
X153674676Y-82281709D01*
X153722295Y-82234090D01*
X153769914Y-82138852D01*
X149483842Y-87853780D02*
X149150509Y-87377590D01*
X148912414Y-87853780D02*
X148912414Y-86853780D01*
X149293366Y-86853780D01*
X149388604Y-86901400D01*
X149436223Y-86949019D01*
X149483842Y-87044257D01*
X149483842Y-87187114D01*
X149436223Y-87282352D01*
X149388604Y-87329971D01*
X149293366Y-87377590D01*
X148912414Y-87377590D01*
X150436223Y-87853780D02*
X149864795Y-87853780D01*
X150150509Y-87853780D02*
X150150509Y-86853780D01*
X150055271Y-86996638D01*
X149960033Y-87091876D01*
X149864795Y-87139495D01*
X151055271Y-86853780D02*
X151150509Y-86853780D01*
X151245747Y-86901400D01*
X151293366Y-86949019D01*
X151340985Y-87044257D01*
X151388604Y-87234733D01*
X151388604Y-87472828D01*
X151340985Y-87663304D01*
X151293366Y-87758542D01*
X151245747Y-87806161D01*
X151150509Y-87853780D01*
X151055271Y-87853780D01*
X150960033Y-87806161D01*
X150912414Y-87758542D01*
X150864795Y-87663304D01*
X150817176Y-87472828D01*
X150817176Y-87234733D01*
X150864795Y-87044257D01*
X150912414Y-86949019D01*
X150960033Y-86901400D01*
X151055271Y-86853780D01*
X139819142Y-67000380D02*
X139485809Y-66524190D01*
X139247714Y-67000380D02*
X139247714Y-66000380D01*
X139628666Y-66000380D01*
X139723904Y-66048000D01*
X139771523Y-66095619D01*
X139819142Y-66190857D01*
X139819142Y-66333714D01*
X139771523Y-66428952D01*
X139723904Y-66476571D01*
X139628666Y-66524190D01*
X139247714Y-66524190D01*
X140771523Y-67000380D02*
X140200095Y-67000380D01*
X140485809Y-67000380D02*
X140485809Y-66000380D01*
X140390571Y-66143238D01*
X140295333Y-66238476D01*
X140200095Y-66286095D01*
X141723904Y-67000380D02*
X141152476Y-67000380D01*
X141438190Y-67000380D02*
X141438190Y-66000380D01*
X141342952Y-66143238D01*
X141247714Y-66238476D01*
X141152476Y-66286095D01*
X146169142Y-84170780D02*
X145835809Y-83694590D01*
X145597714Y-84170780D02*
X145597714Y-83170780D01*
X145978666Y-83170780D01*
X146073904Y-83218400D01*
X146121523Y-83266019D01*
X146169142Y-83361257D01*
X146169142Y-83504114D01*
X146121523Y-83599352D01*
X146073904Y-83646971D01*
X145978666Y-83694590D01*
X145597714Y-83694590D01*
X147121523Y-84170780D02*
X146550095Y-84170780D01*
X146835809Y-84170780D02*
X146835809Y-83170780D01*
X146740571Y-83313638D01*
X146645333Y-83408876D01*
X146550095Y-83456495D01*
X147502476Y-83266019D02*
X147550095Y-83218400D01*
X147645333Y-83170780D01*
X147883428Y-83170780D01*
X147978666Y-83218400D01*
X148026285Y-83266019D01*
X148073904Y-83361257D01*
X148073904Y-83456495D01*
X148026285Y-83599352D01*
X147454857Y-84170780D01*
X148073904Y-84170780D01*
X145249842Y-87716280D02*
X144916509Y-87240090D01*
X144678414Y-87716280D02*
X144678414Y-86716280D01*
X145059366Y-86716280D01*
X145154604Y-86763900D01*
X145202223Y-86811519D01*
X145249842Y-86906757D01*
X145249842Y-87049614D01*
X145202223Y-87144852D01*
X145154604Y-87192471D01*
X145059366Y-87240090D01*
X144678414Y-87240090D01*
X146202223Y-87716280D02*
X145630795Y-87716280D01*
X145916509Y-87716280D02*
X145916509Y-86716280D01*
X145821271Y-86859138D01*
X145726033Y-86954376D01*
X145630795Y-87001995D01*
X146535557Y-86716280D02*
X147154604Y-86716280D01*
X146821271Y-87097233D01*
X146964128Y-87097233D01*
X147059366Y-87144852D01*
X147106985Y-87192471D01*
X147154604Y-87287709D01*
X147154604Y-87525804D01*
X147106985Y-87621042D01*
X147059366Y-87668661D01*
X146964128Y-87716280D01*
X146678414Y-87716280D01*
X146583176Y-87668661D01*
X146535557Y-87621042D01*
X140784342Y-87777580D02*
X140451009Y-87301390D01*
X140212914Y-87777580D02*
X140212914Y-86777580D01*
X140593866Y-86777580D01*
X140689104Y-86825200D01*
X140736723Y-86872819D01*
X140784342Y-86968057D01*
X140784342Y-87110914D01*
X140736723Y-87206152D01*
X140689104Y-87253771D01*
X140593866Y-87301390D01*
X140212914Y-87301390D01*
X141736723Y-87777580D02*
X141165295Y-87777580D01*
X141451009Y-87777580D02*
X141451009Y-86777580D01*
X141355771Y-86920438D01*
X141260533Y-87015676D01*
X141165295Y-87063295D01*
X142593866Y-87110914D02*
X142593866Y-87777580D01*
X142355771Y-86729961D02*
X142117676Y-87444247D01*
X142736723Y-87444247D01*
X150261580Y-65692257D02*
X149785390Y-66025590D01*
X150261580Y-66263685D02*
X149261580Y-66263685D01*
X149261580Y-65882733D01*
X149309200Y-65787495D01*
X149356819Y-65739876D01*
X149452057Y-65692257D01*
X149594914Y-65692257D01*
X149690152Y-65739876D01*
X149737771Y-65787495D01*
X149785390Y-65882733D01*
X149785390Y-66263685D01*
X150261580Y-64739876D02*
X150261580Y-65311304D01*
X150261580Y-65025590D02*
X149261580Y-65025590D01*
X149404438Y-65120828D01*
X149499676Y-65216066D01*
X149547295Y-65311304D01*
X149261580Y-63835114D02*
X149261580Y-64311304D01*
X149737771Y-64358923D01*
X149690152Y-64311304D01*
X149642533Y-64216066D01*
X149642533Y-63977971D01*
X149690152Y-63882733D01*
X149737771Y-63835114D01*
X149833009Y-63787495D01*
X150071104Y-63787495D01*
X150166342Y-63835114D01*
X150213961Y-63882733D01*
X150261580Y-63977971D01*
X150261580Y-64216066D01*
X150213961Y-64311304D01*
X150166342Y-64358923D01*
X136737942Y-87703580D02*
X136404609Y-87227390D01*
X136166514Y-87703580D02*
X136166514Y-86703580D01*
X136547466Y-86703580D01*
X136642704Y-86751200D01*
X136690323Y-86798819D01*
X136737942Y-86894057D01*
X136737942Y-87036914D01*
X136690323Y-87132152D01*
X136642704Y-87179771D01*
X136547466Y-87227390D01*
X136166514Y-87227390D01*
X137690323Y-87703580D02*
X137118895Y-87703580D01*
X137404609Y-87703580D02*
X137404609Y-86703580D01*
X137309371Y-86846438D01*
X137214133Y-86941676D01*
X137118895Y-86989295D01*
X138547466Y-86703580D02*
X138356990Y-86703580D01*
X138261752Y-86751200D01*
X138214133Y-86798819D01*
X138118895Y-86941676D01*
X138071276Y-87132152D01*
X138071276Y-87513104D01*
X138118895Y-87608342D01*
X138166514Y-87655961D01*
X138261752Y-87703580D01*
X138452228Y-87703580D01*
X138547466Y-87655961D01*
X138595085Y-87608342D01*
X138642704Y-87513104D01*
X138642704Y-87275009D01*
X138595085Y-87179771D01*
X138547466Y-87132152D01*
X138452228Y-87084533D01*
X138261752Y-87084533D01*
X138166514Y-87132152D01*
X138118895Y-87179771D01*
X138071276Y-87275009D01*
X122753380Y-56014857D02*
X122277190Y-56348190D01*
X122753380Y-56586285D02*
X121753380Y-56586285D01*
X121753380Y-56205333D01*
X121801000Y-56110095D01*
X121848619Y-56062476D01*
X121943857Y-56014857D01*
X122086714Y-56014857D01*
X122181952Y-56062476D01*
X122229571Y-56110095D01*
X122277190Y-56205333D01*
X122277190Y-56586285D01*
X122753380Y-55062476D02*
X122753380Y-55633904D01*
X122753380Y-55348190D02*
X121753380Y-55348190D01*
X121896238Y-55443428D01*
X121991476Y-55538666D01*
X122039095Y-55633904D01*
X121753380Y-54729142D02*
X121753380Y-54062476D01*
X122753380Y-54491047D01*
X127644742Y-69489580D02*
X127311409Y-69013390D01*
X127073314Y-69489580D02*
X127073314Y-68489580D01*
X127454266Y-68489580D01*
X127549504Y-68537200D01*
X127597123Y-68584819D01*
X127644742Y-68680057D01*
X127644742Y-68822914D01*
X127597123Y-68918152D01*
X127549504Y-68965771D01*
X127454266Y-69013390D01*
X127073314Y-69013390D01*
X128597123Y-69489580D02*
X128025695Y-69489580D01*
X128311409Y-69489580D02*
X128311409Y-68489580D01*
X128216171Y-68632438D01*
X128120933Y-68727676D01*
X128025695Y-68775295D01*
X129168552Y-68918152D02*
X129073314Y-68870533D01*
X129025695Y-68822914D01*
X128978076Y-68727676D01*
X128978076Y-68680057D01*
X129025695Y-68584819D01*
X129073314Y-68537200D01*
X129168552Y-68489580D01*
X129359028Y-68489580D01*
X129454266Y-68537200D01*
X129501885Y-68584819D01*
X129549504Y-68680057D01*
X129549504Y-68727676D01*
X129501885Y-68822914D01*
X129454266Y-68870533D01*
X129359028Y-68918152D01*
X129168552Y-68918152D01*
X129073314Y-68965771D01*
X129025695Y-69013390D01*
X128978076Y-69108628D01*
X128978076Y-69299104D01*
X129025695Y-69394342D01*
X129073314Y-69441961D01*
X129168552Y-69489580D01*
X129359028Y-69489580D01*
X129454266Y-69441961D01*
X129501885Y-69394342D01*
X129549504Y-69299104D01*
X129549504Y-69108628D01*
X129501885Y-69013390D01*
X129454266Y-68965771D01*
X129359028Y-68918152D01*
X135247980Y-83616857D02*
X134771790Y-83950190D01*
X135247980Y-84188285D02*
X134247980Y-84188285D01*
X134247980Y-83807333D01*
X134295600Y-83712095D01*
X134343219Y-83664476D01*
X134438457Y-83616857D01*
X134581314Y-83616857D01*
X134676552Y-83664476D01*
X134724171Y-83712095D01*
X134771790Y-83807333D01*
X134771790Y-84188285D01*
X135247980Y-82664476D02*
X135247980Y-83235904D01*
X135247980Y-82950190D02*
X134247980Y-82950190D01*
X134390838Y-83045428D01*
X134486076Y-83140666D01*
X134533695Y-83235904D01*
X135247980Y-82188285D02*
X135247980Y-81997809D01*
X135200361Y-81902571D01*
X135152742Y-81854952D01*
X135009885Y-81759714D01*
X134819409Y-81712095D01*
X134438457Y-81712095D01*
X134343219Y-81759714D01*
X134295600Y-81807333D01*
X134247980Y-81902571D01*
X134247980Y-82093047D01*
X134295600Y-82188285D01*
X134343219Y-82235904D01*
X134438457Y-82283523D01*
X134676552Y-82283523D01*
X134771790Y-82235904D01*
X134819409Y-82188285D01*
X134867028Y-82093047D01*
X134867028Y-81902571D01*
X134819409Y-81807333D01*
X134771790Y-81759714D01*
X134676552Y-81712095D01*
X132859542Y-58161180D02*
X132526209Y-57684990D01*
X132288114Y-58161180D02*
X132288114Y-57161180D01*
X132669066Y-57161180D01*
X132764304Y-57208800D01*
X132811923Y-57256419D01*
X132859542Y-57351657D01*
X132859542Y-57494514D01*
X132811923Y-57589752D01*
X132764304Y-57637371D01*
X132669066Y-57684990D01*
X132288114Y-57684990D01*
X133240495Y-57256419D02*
X133288114Y-57208800D01*
X133383352Y-57161180D01*
X133621447Y-57161180D01*
X133716685Y-57208800D01*
X133764304Y-57256419D01*
X133811923Y-57351657D01*
X133811923Y-57446895D01*
X133764304Y-57589752D01*
X133192876Y-58161180D01*
X133811923Y-58161180D01*
X134430971Y-57161180D02*
X134526209Y-57161180D01*
X134621447Y-57208800D01*
X134669066Y-57256419D01*
X134716685Y-57351657D01*
X134764304Y-57542133D01*
X134764304Y-57780228D01*
X134716685Y-57970704D01*
X134669066Y-58065942D01*
X134621447Y-58113561D01*
X134526209Y-58161180D01*
X134430971Y-58161180D01*
X134335733Y-58113561D01*
X134288114Y-58065942D01*
X134240495Y-57970704D01*
X134192876Y-57780228D01*
X134192876Y-57542133D01*
X134240495Y-57351657D01*
X134288114Y-57256419D01*
X134335733Y-57208800D01*
X134430971Y-57161180D01*
X117305080Y-55964057D02*
X116828890Y-56297390D01*
X117305080Y-56535485D02*
X116305080Y-56535485D01*
X116305080Y-56154533D01*
X116352700Y-56059295D01*
X116400319Y-56011676D01*
X116495557Y-55964057D01*
X116638414Y-55964057D01*
X116733652Y-56011676D01*
X116781271Y-56059295D01*
X116828890Y-56154533D01*
X116828890Y-56535485D01*
X116400319Y-55583104D02*
X116352700Y-55535485D01*
X116305080Y-55440247D01*
X116305080Y-55202152D01*
X116352700Y-55106914D01*
X116400319Y-55059295D01*
X116495557Y-55011676D01*
X116590795Y-55011676D01*
X116733652Y-55059295D01*
X117305080Y-55630723D01*
X117305080Y-55011676D01*
X117305080Y-54059295D02*
X117305080Y-54630723D01*
X117305080Y-54345009D02*
X116305080Y-54345009D01*
X116447938Y-54440247D01*
X116543176Y-54535485D01*
X116590795Y-54630723D01*
X120734080Y-55964057D02*
X120257890Y-56297390D01*
X120734080Y-56535485D02*
X119734080Y-56535485D01*
X119734080Y-56154533D01*
X119781700Y-56059295D01*
X119829319Y-56011676D01*
X119924557Y-55964057D01*
X120067414Y-55964057D01*
X120162652Y-56011676D01*
X120210271Y-56059295D01*
X120257890Y-56154533D01*
X120257890Y-56535485D01*
X119829319Y-55583104D02*
X119781700Y-55535485D01*
X119734080Y-55440247D01*
X119734080Y-55202152D01*
X119781700Y-55106914D01*
X119829319Y-55059295D01*
X119924557Y-55011676D01*
X120019795Y-55011676D01*
X120162652Y-55059295D01*
X120734080Y-55630723D01*
X120734080Y-55011676D01*
X119829319Y-54630723D02*
X119781700Y-54583104D01*
X119734080Y-54487866D01*
X119734080Y-54249771D01*
X119781700Y-54154533D01*
X119829319Y-54106914D01*
X119924557Y-54059295D01*
X120019795Y-54059295D01*
X120162652Y-54106914D01*
X120734080Y-54678342D01*
X120734080Y-54059295D01*
X114419142Y-70810380D02*
X114085809Y-70334190D01*
X113847714Y-70810380D02*
X113847714Y-69810380D01*
X114228666Y-69810380D01*
X114323904Y-69858000D01*
X114371523Y-69905619D01*
X114419142Y-70000857D01*
X114419142Y-70143714D01*
X114371523Y-70238952D01*
X114323904Y-70286571D01*
X114228666Y-70334190D01*
X113847714Y-70334190D01*
X114800095Y-69905619D02*
X114847714Y-69858000D01*
X114942952Y-69810380D01*
X115181047Y-69810380D01*
X115276285Y-69858000D01*
X115323904Y-69905619D01*
X115371523Y-70000857D01*
X115371523Y-70096095D01*
X115323904Y-70238952D01*
X114752476Y-70810380D01*
X115371523Y-70810380D01*
X115704857Y-69810380D02*
X116323904Y-69810380D01*
X115990571Y-70191333D01*
X116133428Y-70191333D01*
X116228666Y-70238952D01*
X116276285Y-70286571D01*
X116323904Y-70381809D01*
X116323904Y-70619904D01*
X116276285Y-70715142D01*
X116228666Y-70762761D01*
X116133428Y-70810380D01*
X115847714Y-70810380D01*
X115752476Y-70762761D01*
X115704857Y-70715142D01*
X132757942Y-60193180D02*
X132424609Y-59716990D01*
X132186514Y-60193180D02*
X132186514Y-59193180D01*
X132567466Y-59193180D01*
X132662704Y-59240800D01*
X132710323Y-59288419D01*
X132757942Y-59383657D01*
X132757942Y-59526514D01*
X132710323Y-59621752D01*
X132662704Y-59669371D01*
X132567466Y-59716990D01*
X132186514Y-59716990D01*
X133138895Y-59288419D02*
X133186514Y-59240800D01*
X133281752Y-59193180D01*
X133519847Y-59193180D01*
X133615085Y-59240800D01*
X133662704Y-59288419D01*
X133710323Y-59383657D01*
X133710323Y-59478895D01*
X133662704Y-59621752D01*
X133091276Y-60193180D01*
X133710323Y-60193180D01*
X134615085Y-59193180D02*
X134138895Y-59193180D01*
X134091276Y-59669371D01*
X134138895Y-59621752D01*
X134234133Y-59574133D01*
X134472228Y-59574133D01*
X134567466Y-59621752D01*
X134615085Y-59669371D01*
X134662704Y-59764609D01*
X134662704Y-60002704D01*
X134615085Y-60097942D01*
X134567466Y-60145561D01*
X134472228Y-60193180D01*
X134234133Y-60193180D01*
X134138895Y-60145561D01*
X134091276Y-60097942D01*
X132808742Y-62174380D02*
X132475409Y-61698190D01*
X132237314Y-62174380D02*
X132237314Y-61174380D01*
X132618266Y-61174380D01*
X132713504Y-61222000D01*
X132761123Y-61269619D01*
X132808742Y-61364857D01*
X132808742Y-61507714D01*
X132761123Y-61602952D01*
X132713504Y-61650571D01*
X132618266Y-61698190D01*
X132237314Y-61698190D01*
X133189695Y-61269619D02*
X133237314Y-61222000D01*
X133332552Y-61174380D01*
X133570647Y-61174380D01*
X133665885Y-61222000D01*
X133713504Y-61269619D01*
X133761123Y-61364857D01*
X133761123Y-61460095D01*
X133713504Y-61602952D01*
X133142076Y-62174380D01*
X133761123Y-62174380D01*
X134618266Y-61174380D02*
X134427790Y-61174380D01*
X134332552Y-61222000D01*
X134284933Y-61269619D01*
X134189695Y-61412476D01*
X134142076Y-61602952D01*
X134142076Y-61983904D01*
X134189695Y-62079142D01*
X134237314Y-62126761D01*
X134332552Y-62174380D01*
X134523028Y-62174380D01*
X134618266Y-62126761D01*
X134665885Y-62079142D01*
X134713504Y-61983904D01*
X134713504Y-61745809D01*
X134665885Y-61650571D01*
X134618266Y-61602952D01*
X134523028Y-61555333D01*
X134332552Y-61555333D01*
X134237314Y-61602952D01*
X134189695Y-61650571D01*
X134142076Y-61745809D01*
X111450380Y-63380857D02*
X110974190Y-63714190D01*
X111450380Y-63952285D02*
X110450380Y-63952285D01*
X110450380Y-63571333D01*
X110498000Y-63476095D01*
X110545619Y-63428476D01*
X110640857Y-63380857D01*
X110783714Y-63380857D01*
X110878952Y-63428476D01*
X110926571Y-63476095D01*
X110974190Y-63571333D01*
X110974190Y-63952285D01*
X110545619Y-62999904D02*
X110498000Y-62952285D01*
X110450380Y-62857047D01*
X110450380Y-62618952D01*
X110498000Y-62523714D01*
X110545619Y-62476095D01*
X110640857Y-62428476D01*
X110736095Y-62428476D01*
X110878952Y-62476095D01*
X111450380Y-63047523D01*
X111450380Y-62428476D01*
X110450380Y-62095142D02*
X110450380Y-61428476D01*
X111450380Y-61857047D01*
X132859542Y-64257180D02*
X132526209Y-63780990D01*
X132288114Y-64257180D02*
X132288114Y-63257180D01*
X132669066Y-63257180D01*
X132764304Y-63304800D01*
X132811923Y-63352419D01*
X132859542Y-63447657D01*
X132859542Y-63590514D01*
X132811923Y-63685752D01*
X132764304Y-63733371D01*
X132669066Y-63780990D01*
X132288114Y-63780990D01*
X133240495Y-63352419D02*
X133288114Y-63304800D01*
X133383352Y-63257180D01*
X133621447Y-63257180D01*
X133716685Y-63304800D01*
X133764304Y-63352419D01*
X133811923Y-63447657D01*
X133811923Y-63542895D01*
X133764304Y-63685752D01*
X133192876Y-64257180D01*
X133811923Y-64257180D01*
X134383352Y-63685752D02*
X134288114Y-63638133D01*
X134240495Y-63590514D01*
X134192876Y-63495276D01*
X134192876Y-63447657D01*
X134240495Y-63352419D01*
X134288114Y-63304800D01*
X134383352Y-63257180D01*
X134573828Y-63257180D01*
X134669066Y-63304800D01*
X134716685Y-63352419D01*
X134764304Y-63447657D01*
X134764304Y-63495276D01*
X134716685Y-63590514D01*
X134669066Y-63638133D01*
X134573828Y-63685752D01*
X134383352Y-63685752D01*
X134288114Y-63733371D01*
X134240495Y-63780990D01*
X134192876Y-63876228D01*
X134192876Y-64066704D01*
X134240495Y-64161942D01*
X134288114Y-64209561D01*
X134383352Y-64257180D01*
X134573828Y-64257180D01*
X134669066Y-64209561D01*
X134716685Y-64161942D01*
X134764304Y-64066704D01*
X134764304Y-63876228D01*
X134716685Y-63780990D01*
X134669066Y-63733371D01*
X134573828Y-63685752D01*
X109926380Y-61348857D02*
X109450190Y-61682190D01*
X109926380Y-61920285D02*
X108926380Y-61920285D01*
X108926380Y-61539333D01*
X108974000Y-61444095D01*
X109021619Y-61396476D01*
X109116857Y-61348857D01*
X109259714Y-61348857D01*
X109354952Y-61396476D01*
X109402571Y-61444095D01*
X109450190Y-61539333D01*
X109450190Y-61920285D01*
X109021619Y-60967904D02*
X108974000Y-60920285D01*
X108926380Y-60825047D01*
X108926380Y-60586952D01*
X108974000Y-60491714D01*
X109021619Y-60444095D01*
X109116857Y-60396476D01*
X109212095Y-60396476D01*
X109354952Y-60444095D01*
X109926380Y-61015523D01*
X109926380Y-60396476D01*
X109926380Y-59920285D02*
X109926380Y-59729809D01*
X109878761Y-59634571D01*
X109831142Y-59586952D01*
X109688285Y-59491714D01*
X109497809Y-59444095D01*
X109116857Y-59444095D01*
X109021619Y-59491714D01*
X108974000Y-59539333D01*
X108926380Y-59634571D01*
X108926380Y-59825047D01*
X108974000Y-59920285D01*
X109021619Y-59967904D01*
X109116857Y-60015523D01*
X109354952Y-60015523D01*
X109450190Y-59967904D01*
X109497809Y-59920285D01*
X109545428Y-59825047D01*
X109545428Y-59634571D01*
X109497809Y-59539333D01*
X109450190Y-59491714D01*
X109354952Y-59444095D01*
X133011942Y-66289180D02*
X132678609Y-65812990D01*
X132440514Y-66289180D02*
X132440514Y-65289180D01*
X132821466Y-65289180D01*
X132916704Y-65336800D01*
X132964323Y-65384419D01*
X133011942Y-65479657D01*
X133011942Y-65622514D01*
X132964323Y-65717752D01*
X132916704Y-65765371D01*
X132821466Y-65812990D01*
X132440514Y-65812990D01*
X133345276Y-65289180D02*
X133964323Y-65289180D01*
X133630990Y-65670133D01*
X133773847Y-65670133D01*
X133869085Y-65717752D01*
X133916704Y-65765371D01*
X133964323Y-65860609D01*
X133964323Y-66098704D01*
X133916704Y-66193942D01*
X133869085Y-66241561D01*
X133773847Y-66289180D01*
X133488133Y-66289180D01*
X133392895Y-66241561D01*
X133345276Y-66193942D01*
X134583371Y-65289180D02*
X134678609Y-65289180D01*
X134773847Y-65336800D01*
X134821466Y-65384419D01*
X134869085Y-65479657D01*
X134916704Y-65670133D01*
X134916704Y-65908228D01*
X134869085Y-66098704D01*
X134821466Y-66193942D01*
X134773847Y-66241561D01*
X134678609Y-66289180D01*
X134583371Y-66289180D01*
X134488133Y-66241561D01*
X134440514Y-66193942D01*
X134392895Y-66098704D01*
X134345276Y-65908228D01*
X134345276Y-65670133D01*
X134392895Y-65479657D01*
X134440514Y-65384419D01*
X134488133Y-65336800D01*
X134583371Y-65289180D01*
X109926380Y-65666857D02*
X109450190Y-66000190D01*
X109926380Y-66238285D02*
X108926380Y-66238285D01*
X108926380Y-65857333D01*
X108974000Y-65762095D01*
X109021619Y-65714476D01*
X109116857Y-65666857D01*
X109259714Y-65666857D01*
X109354952Y-65714476D01*
X109402571Y-65762095D01*
X109450190Y-65857333D01*
X109450190Y-66238285D01*
X108926380Y-65333523D02*
X108926380Y-64714476D01*
X109307333Y-65047809D01*
X109307333Y-64904952D01*
X109354952Y-64809714D01*
X109402571Y-64762095D01*
X109497809Y-64714476D01*
X109735904Y-64714476D01*
X109831142Y-64762095D01*
X109878761Y-64809714D01*
X109926380Y-64904952D01*
X109926380Y-65190666D01*
X109878761Y-65285904D01*
X109831142Y-65333523D01*
X109926380Y-63762095D02*
X109926380Y-64333523D01*
X109926380Y-64047809D02*
X108926380Y-64047809D01*
X109069238Y-64143047D01*
X109164476Y-64238285D01*
X109212095Y-64333523D01*
X140581142Y-63698380D02*
X140247809Y-63222190D01*
X140009714Y-63698380D02*
X140009714Y-62698380D01*
X140390666Y-62698380D01*
X140485904Y-62746000D01*
X140533523Y-62793619D01*
X140581142Y-62888857D01*
X140581142Y-63031714D01*
X140533523Y-63126952D01*
X140485904Y-63174571D01*
X140390666Y-63222190D01*
X140009714Y-63222190D01*
X140914476Y-62698380D02*
X141533523Y-62698380D01*
X141200190Y-63079333D01*
X141343047Y-63079333D01*
X141438285Y-63126952D01*
X141485904Y-63174571D01*
X141533523Y-63269809D01*
X141533523Y-63507904D01*
X141485904Y-63603142D01*
X141438285Y-63650761D01*
X141343047Y-63698380D01*
X141057333Y-63698380D01*
X140962095Y-63650761D01*
X140914476Y-63603142D01*
X141914476Y-62793619D02*
X141962095Y-62746000D01*
X142057333Y-62698380D01*
X142295428Y-62698380D01*
X142390666Y-62746000D01*
X142438285Y-62793619D01*
X142485904Y-62888857D01*
X142485904Y-62984095D01*
X142438285Y-63126952D01*
X141866857Y-63698380D01*
X142485904Y-63698380D01*
D14*
X118962714Y-66112571D02*
X119579571Y-66112571D01*
X119652142Y-66076285D01*
X119688428Y-66040000D01*
X119724714Y-65967428D01*
X119724714Y-65822285D01*
X119688428Y-65749714D01*
X119652142Y-65713428D01*
X119579571Y-65677142D01*
X118962714Y-65677142D01*
X119035285Y-65350571D02*
X118999000Y-65314285D01*
X118962714Y-65241714D01*
X118962714Y-65060285D01*
X118999000Y-64987714D01*
X119035285Y-64951428D01*
X119107857Y-64915142D01*
X119180428Y-64915142D01*
X119289285Y-64951428D01*
X119724714Y-65386857D01*
X119724714Y-64915142D01*
D16*
X107072133Y-86558380D02*
X106738800Y-86082190D01*
X106500704Y-86558380D02*
X106500704Y-85558380D01*
X106881657Y-85558380D01*
X106976895Y-85606000D01*
X107024514Y-85653619D01*
X107072133Y-85748857D01*
X107072133Y-85891714D01*
X107024514Y-85986952D01*
X106976895Y-86034571D01*
X106881657Y-86082190D01*
X106500704Y-86082190D01*
X107929276Y-85558380D02*
X107738800Y-85558380D01*
X107643561Y-85606000D01*
X107595942Y-85653619D01*
X107500704Y-85796476D01*
X107453085Y-85986952D01*
X107453085Y-86367904D01*
X107500704Y-86463142D01*
X107548323Y-86510761D01*
X107643561Y-86558380D01*
X107834038Y-86558380D01*
X107929276Y-86510761D01*
X107976895Y-86463142D01*
X108024514Y-86367904D01*
X108024514Y-86129809D01*
X107976895Y-86034571D01*
X107929276Y-85986952D01*
X107834038Y-85939333D01*
X107643561Y-85939333D01*
X107548323Y-85986952D01*
X107500704Y-86034571D01*
X107453085Y-86129809D01*
X146531104Y-105887780D02*
X146531104Y-104887780D01*
X146769200Y-104887780D01*
X146912057Y-104935400D01*
X147007295Y-105030638D01*
X147054914Y-105125876D01*
X147102533Y-105316352D01*
X147102533Y-105459209D01*
X147054914Y-105649685D01*
X147007295Y-105744923D01*
X146912057Y-105840161D01*
X146769200Y-105887780D01*
X146531104Y-105887780D01*
X147483485Y-104983019D02*
X147531104Y-104935400D01*
X147626342Y-104887780D01*
X147864438Y-104887780D01*
X147959676Y-104935400D01*
X148007295Y-104983019D01*
X148054914Y-105078257D01*
X148054914Y-105173495D01*
X148007295Y-105316352D01*
X147435866Y-105887780D01*
X148054914Y-105887780D01*
X135342380Y-79120904D02*
X136151904Y-79120904D01*
X136247142Y-79073285D01*
X136294761Y-79025666D01*
X136342380Y-78930428D01*
X136342380Y-78739952D01*
X136294761Y-78644714D01*
X136247142Y-78597095D01*
X136151904Y-78549476D01*
X135342380Y-78549476D01*
X135342380Y-78168523D02*
X135342380Y-77549476D01*
X135723333Y-77882809D01*
X135723333Y-77739952D01*
X135770952Y-77644714D01*
X135818571Y-77597095D01*
X135913809Y-77549476D01*
X136151904Y-77549476D01*
X136247142Y-77597095D01*
X136294761Y-77644714D01*
X136342380Y-77739952D01*
X136342380Y-78025666D01*
X136294761Y-78120904D01*
X136247142Y-78168523D01*
X140549380Y-74421904D02*
X141358904Y-74421904D01*
X141454142Y-74374285D01*
X141501761Y-74326666D01*
X141549380Y-74231428D01*
X141549380Y-74040952D01*
X141501761Y-73945714D01*
X141454142Y-73898095D01*
X141358904Y-73850476D01*
X140549380Y-73850476D01*
X141549380Y-72850476D02*
X141549380Y-73421904D01*
X141549380Y-73136190D02*
X140549380Y-73136190D01*
X140692238Y-73231428D01*
X140787476Y-73326666D01*
X140835095Y-73421904D01*
X124452142Y-69064142D02*
X124404523Y-69111761D01*
X124261666Y-69159380D01*
X124166428Y-69159380D01*
X124023571Y-69111761D01*
X123928333Y-69016523D01*
X123880714Y-68921285D01*
X123833095Y-68730809D01*
X123833095Y-68587952D01*
X123880714Y-68397476D01*
X123928333Y-68302238D01*
X124023571Y-68207000D01*
X124166428Y-68159380D01*
X124261666Y-68159380D01*
X124404523Y-68207000D01*
X124452142Y-68254619D01*
X124833095Y-68254619D02*
X124880714Y-68207000D01*
X124975952Y-68159380D01*
X125214047Y-68159380D01*
X125309285Y-68207000D01*
X125356904Y-68254619D01*
X125404523Y-68349857D01*
X125404523Y-68445095D01*
X125356904Y-68587952D01*
X124785476Y-69159380D01*
X125404523Y-69159380D01*
X126261666Y-68492714D02*
X126261666Y-69159380D01*
X126023571Y-68111761D02*
X125785476Y-68826047D01*
X126404523Y-68826047D01*
X116578142Y-72274380D02*
X116244809Y-71798190D01*
X116006714Y-72274380D02*
X116006714Y-71274380D01*
X116387666Y-71274380D01*
X116482904Y-71322000D01*
X116530523Y-71369619D01*
X116578142Y-71464857D01*
X116578142Y-71607714D01*
X116530523Y-71702952D01*
X116482904Y-71750571D01*
X116387666Y-71798190D01*
X116006714Y-71798190D01*
X116959095Y-71369619D02*
X117006714Y-71322000D01*
X117101952Y-71274380D01*
X117340047Y-71274380D01*
X117435285Y-71322000D01*
X117482904Y-71369619D01*
X117530523Y-71464857D01*
X117530523Y-71560095D01*
X117482904Y-71702952D01*
X116911476Y-72274380D01*
X117530523Y-72274380D01*
X118387666Y-71607714D02*
X118387666Y-72274380D01*
X118149571Y-71226761D02*
X117911476Y-71941047D01*
X118530523Y-71941047D01*
M02*
