G04 #@! TF.GenerationSoftware,KiCad,Pcbnew,(5.1.5)-3*
G04 #@! TF.CreationDate,2020-01-12T00:37:19-05:00*
G04 #@! TF.ProjectId,MAX17595_offline_20V_supply_v1,4d415831-3735-4393-955f-6f66666c696e,rev?*
G04 #@! TF.SameCoordinates,Original*
G04 #@! TF.FileFunction,Copper,L1,Top*
G04 #@! TF.FilePolarity,Positive*
%FSLAX46Y46*%
G04 Gerber Fmt 4.6, Leading zero omitted, Abs format (unit mm)*
G04 Created by KiCad (PCBNEW (5.1.5)-3) date 2020-01-12 00:37:19*
%MOMM*%
%LPD*%
G04 APERTURE LIST*
%ADD10R,5.250000X4.550000*%
%ADD11R,10.800000X9.400000*%
%ADD12R,1.100000X4.600000*%
%ADD13C,2.413000*%
%ADD14C,4.000000*%
%ADD15R,4.000000X4.000000*%
%ADD16C,2.159000*%
%ADD17C,1.905000*%
%ADD18C,1.524000*%
%ADD19R,2.032000X3.810000*%
%ADD20C,2.540000*%
%ADD21C,1.651000*%
%ADD22C,5.715000*%
%ADD23R,1.600000X2.000000*%
%ADD24R,1.250000X1.500000*%
%ADD25R,1.200000X0.750000*%
%ADD26R,1.500000X1.250000*%
%ADD27R,0.750000X1.200000*%
%ADD28R,1.200000X0.900000*%
%ADD29R,2.300000X3.500000*%
%ADD30R,1.800000X3.500000*%
%ADD31R,0.900000X1.200000*%
%ADD32R,0.900000X0.900000*%
%ADD33O,0.750000X0.300000*%
%ADD34O,0.300000X0.750000*%
%ADD35R,2.000000X2.500000*%
%ADD36R,4.550000X5.250000*%
%ADD37R,9.400000X10.800000*%
%ADD38R,4.600000X1.100000*%
%ADD39R,0.800000X0.900000*%
%ADD40O,1.700000X1.700000*%
%ADD41R,1.700000X1.700000*%
%ADD42R,1.600000X3.100000*%
%ADD43R,1.600000X3.099999*%
%ADD44R,2.700000X3.200000*%
%ADD45C,0.609600*%
%ADD46C,0.635000*%
%ADD47C,0.762000*%
%ADD48C,1.016000*%
%ADD49C,1.270000*%
%ADD50C,0.254000*%
%ADD51C,0.762000*%
%ADD52C,0.508000*%
%ADD53C,0.381000*%
%ADD54C,1.270000*%
%ADD55C,1.016000*%
%ADD56C,1.905000*%
%ADD57C,2.540000*%
G04 APERTURE END LIST*
D10*
X124021800Y-80960000D03*
X129571800Y-85810000D03*
X129571800Y-80960000D03*
X124021800Y-85810000D03*
D11*
X126796800Y-83385000D03*
D12*
X124256800Y-74235000D03*
X129336800Y-74235000D03*
D13*
X110871000Y-93268800D03*
X110871000Y-98272600D03*
X110871000Y-103276400D03*
X110871000Y-108280200D03*
X110871000Y-113284000D03*
X123571000Y-113284000D03*
X123571000Y-108280200D03*
X123571000Y-103276400D03*
X123571000Y-98272600D03*
X123571000Y-93268800D03*
D14*
X81049000Y-104090000D03*
D15*
X93549000Y-104090000D03*
D16*
X106680000Y-57658000D03*
X106680000Y-62738000D03*
X106680000Y-67818000D03*
X106680000Y-72898000D03*
D17*
X90932000Y-69342000D03*
X90932000Y-76860400D03*
X101650800Y-76860400D03*
X101650800Y-69342000D03*
D18*
X77241000Y-81521300D03*
X77241000Y-86499700D03*
D19*
X91948000Y-56007000D03*
X83439000Y-56007000D03*
D20*
X80518000Y-64262000D03*
X80518000Y-68072000D03*
D21*
X85344000Y-73279000D03*
X85344000Y-88265000D03*
D22*
X77470000Y-118110000D03*
X163322000Y-57150000D03*
X163322000Y-118110000D03*
X77470000Y-57150000D03*
D23*
X130683000Y-89712800D03*
X130683000Y-93712800D03*
X134239000Y-93712800D03*
X134239000Y-89712800D03*
X137795000Y-93712800D03*
X137795000Y-89712800D03*
X141605000Y-89712800D03*
X141605000Y-93712800D03*
X145415000Y-93712800D03*
X145415000Y-89712800D03*
D24*
X105105200Y-99618800D03*
X105105200Y-102118800D03*
D25*
X136149000Y-116408200D03*
X138049000Y-116408200D03*
D23*
X130683000Y-100602800D03*
X130683000Y-96602800D03*
X134239000Y-96634800D03*
X134239000Y-100634800D03*
X137795000Y-100634800D03*
X137795000Y-96634800D03*
X141605000Y-100634800D03*
X141605000Y-96634800D03*
X145415000Y-96634800D03*
X145415000Y-100634800D03*
D26*
X113294800Y-82499200D03*
X110794800Y-82499200D03*
D27*
X125361700Y-59451200D03*
X125361700Y-61351200D03*
X125361700Y-63576200D03*
X125361700Y-65476200D03*
D25*
X144373600Y-84074000D03*
X142473600Y-84074000D03*
X138612800Y-84074000D03*
X140512800Y-84074000D03*
X117734000Y-68580000D03*
X119634000Y-68580000D03*
D27*
X118503700Y-57866200D03*
X118503700Y-59766200D03*
D25*
X117729000Y-66802000D03*
X119629000Y-66802000D03*
D27*
X118503700Y-63891200D03*
X118503700Y-61991200D03*
D28*
X105105200Y-93268800D03*
X105105200Y-96568800D03*
D29*
X118313200Y-86172000D03*
X118313200Y-80772000D03*
D30*
X134467600Y-74839200D03*
X134467600Y-69839200D03*
D28*
X104554200Y-112318800D03*
X102354200Y-112318800D03*
X102385199Y-109276799D03*
X104585199Y-109276799D03*
X102608200Y-106222800D03*
X104808200Y-106222800D03*
X131277000Y-116408200D03*
X133477000Y-116408200D03*
D31*
X106019600Y-84158000D03*
X106019600Y-81958000D03*
D28*
X151247200Y-83972400D03*
X149047200Y-83972400D03*
X149047200Y-82194400D03*
X151247200Y-82194400D03*
X149026700Y-85813900D03*
X151226700Y-85813900D03*
X141038400Y-65278000D03*
X143238400Y-65278000D03*
X144391200Y-82194400D03*
X146591200Y-82194400D03*
X146992700Y-85813900D03*
X144792700Y-85813900D03*
X140294000Y-85801200D03*
X142494000Y-85801200D03*
D31*
X148285200Y-66065400D03*
X148285200Y-63865400D03*
D28*
X136280800Y-85801200D03*
X138480800Y-85801200D03*
D31*
X122313700Y-59766200D03*
X122313700Y-57566200D03*
D28*
X129336800Y-70459600D03*
X127136800Y-70459600D03*
D31*
X136245600Y-84074000D03*
X136245600Y-81874000D03*
D28*
X128955800Y-57708800D03*
X131155800Y-57708800D03*
D31*
X116852700Y-59934200D03*
X116852700Y-57734200D03*
X120281700Y-57693200D03*
X120281700Y-59893200D03*
D28*
X119761000Y-70485000D03*
X117561000Y-70485000D03*
X131071800Y-59740800D03*
X128871800Y-59740800D03*
X128955800Y-61772800D03*
X131155800Y-61772800D03*
D31*
X116725700Y-64084200D03*
X116725700Y-61884200D03*
D28*
X131155800Y-63804800D03*
X128955800Y-63804800D03*
D31*
X114566700Y-62009200D03*
X114566700Y-59809200D03*
D28*
X131241800Y-65836800D03*
X129041800Y-65836800D03*
D31*
X114566700Y-63957200D03*
X114566700Y-66157200D03*
D28*
X143553000Y-63322200D03*
X145753000Y-63322200D03*
D20*
X161036000Y-89458800D03*
X161036000Y-93268800D03*
D32*
X122558700Y-62876200D03*
X121658700Y-62876200D03*
X122558700Y-63776200D03*
X121658700Y-63776200D03*
D33*
X123583700Y-62576200D03*
X123583700Y-63076200D03*
X123583700Y-63576200D03*
X123583700Y-64076200D03*
D34*
X122858700Y-64801200D03*
X122358700Y-64801200D03*
X121858700Y-64801200D03*
X121358700Y-64801200D03*
D33*
X120633700Y-64076200D03*
X120633700Y-63576200D03*
X120633700Y-63076200D03*
X120633700Y-62576200D03*
D34*
X121358700Y-61851200D03*
X121858700Y-61851200D03*
X122358700Y-61851200D03*
X122858700Y-61851200D03*
D18*
X111760000Y-78994000D03*
X106680000Y-78994000D03*
X98704400Y-89103200D03*
X103784400Y-89103200D03*
D35*
X113677200Y-85750400D03*
X109677200Y-85750400D03*
D36*
X138805000Y-112325200D03*
X143655000Y-106775200D03*
X138805000Y-106775200D03*
X143655000Y-112325200D03*
D37*
X141230000Y-109550200D03*
D38*
X132080000Y-112090200D03*
X132080000Y-107010200D03*
D39*
X138328400Y-77825600D03*
X137378400Y-75825600D03*
X139278400Y-75825600D03*
D40*
X145897600Y-55676800D03*
X143357600Y-55676800D03*
X140817600Y-55676800D03*
D41*
X138277600Y-55676800D03*
D42*
X143205200Y-78130400D03*
D43*
X145745200Y-69240400D03*
X148285200Y-69240400D03*
D42*
X148285200Y-78130400D03*
X145745200Y-78130400D03*
D43*
X143205200Y-69240400D03*
D25*
X124145000Y-67310000D03*
X126045000Y-67310000D03*
D18*
X102743000Y-119126000D03*
X97663000Y-119126000D03*
X100838000Y-56388000D03*
X95758000Y-56388000D03*
X138811000Y-68580000D03*
X138811000Y-73660000D03*
D40*
X89662000Y-119634000D03*
D41*
X87122000Y-119634000D03*
X165608000Y-80467200D03*
D40*
X165608000Y-83007200D03*
X156083000Y-55626000D03*
D41*
X153543000Y-55626000D03*
D18*
X151130000Y-93268800D03*
X151130000Y-98348800D03*
D44*
X121171000Y-74422000D03*
X113271000Y-74422000D03*
D45*
X122567700Y-62814200D03*
X122567700Y-63830200D03*
X121551700Y-63830200D03*
X121551700Y-62814200D03*
X122108700Y-63326200D03*
D46*
X115980700Y-59766200D03*
D47*
X148285200Y-62509400D03*
X127711200Y-65836800D03*
D46*
X122313700Y-56210200D03*
X124091700Y-59385200D03*
D47*
X139700000Y-65278000D03*
D46*
X118503700Y-56603910D03*
D47*
X105105200Y-103936800D03*
D48*
X127508000Y-67056000D03*
D18*
X113284000Y-76962000D03*
X115824000Y-74422000D03*
X99060000Y-93980000D03*
D47*
X145415000Y-95173800D03*
X141605000Y-95173800D03*
X137795000Y-95173800D03*
X134239000Y-95173800D03*
X130683000Y-95173800D03*
X139547600Y-78790800D03*
X143637000Y-93522800D03*
X139827000Y-93522800D03*
X136017000Y-93522800D03*
X132461000Y-93522800D03*
X143637000Y-96824800D03*
X139827000Y-96824800D03*
X136017000Y-96824800D03*
X132461000Y-96824800D03*
D18*
X123063000Y-70612000D03*
D47*
X136271000Y-80137000D03*
X126492000Y-64922400D03*
D18*
X101219000Y-82981800D03*
X114935000Y-69596000D03*
D49*
X109220000Y-74168000D03*
D18*
X115062000Y-90170000D03*
X116840000Y-90170000D03*
D47*
X128168400Y-62280800D03*
X126492000Y-61341000D03*
D18*
X134493000Y-57785000D03*
X138811000Y-62103008D03*
D47*
X117636050Y-64023771D03*
X143205200Y-80924400D03*
X146558000Y-81280002D03*
X123800679Y-61518800D03*
X127635000Y-63754010D03*
D48*
X122174000Y-54610000D03*
D47*
X120256300Y-59867800D03*
D18*
X136398000Y-66294000D03*
X145542006Y-66294000D03*
D50*
X121358700Y-64076200D02*
X121658700Y-63776200D01*
X120633700Y-64076200D02*
X121358700Y-64076200D01*
X122558700Y-62876200D02*
X122550786Y-62876200D01*
X122567700Y-63767200D02*
X122558700Y-63776200D01*
X122567700Y-62814200D02*
X122567700Y-63767200D01*
X121605700Y-63776200D02*
X121551700Y-63830200D01*
X122558700Y-63776200D02*
X121605700Y-63776200D01*
X121658700Y-63776200D02*
X121658700Y-62876200D01*
X122496700Y-62814200D02*
X122558700Y-62876200D01*
X121551700Y-62814200D02*
X122496700Y-62814200D01*
X122567700Y-62867200D02*
X121658700Y-63776200D01*
X122567700Y-62814200D02*
X122567700Y-62867200D01*
X116148700Y-59934200D02*
X115980700Y-59766200D01*
X116852700Y-59934200D02*
X116148700Y-59934200D01*
D51*
X148285200Y-62509400D02*
X148285200Y-63865400D01*
D52*
X122313700Y-57566200D02*
X122313700Y-56210200D01*
X124157700Y-59451200D02*
X124091700Y-59385200D01*
X125107700Y-59451200D02*
X124157700Y-59451200D01*
X129041800Y-65836800D02*
X127711200Y-65836800D01*
X141038400Y-65278000D02*
X139700000Y-65278000D01*
D50*
X120633700Y-64480200D02*
X120633700Y-64076200D01*
D53*
X119629000Y-66173000D02*
X120633700Y-65168300D01*
D50*
X120633700Y-65168300D02*
X120633700Y-64480200D01*
D53*
X119629000Y-66802000D02*
X119629000Y-66173000D01*
D52*
X117734000Y-68697000D02*
X119629000Y-66802000D01*
X118503700Y-57866200D02*
X118503700Y-56603910D01*
D50*
X130683000Y-89458800D02*
X134493000Y-89458800D01*
X134493000Y-89458800D02*
X138303000Y-89458800D01*
X138303000Y-89458800D02*
X141859000Y-89458800D01*
X141859000Y-89458800D02*
X145415000Y-89458800D01*
D51*
X138049000Y-116408200D02*
X138049000Y-109724200D01*
D50*
X146977000Y-89458800D02*
X147701000Y-90182800D01*
X145415000Y-89458800D02*
X146977000Y-89458800D01*
D51*
X151163200Y-85877400D02*
X151247200Y-85793400D01*
X151247200Y-85793400D02*
X151226700Y-85813900D01*
X151247200Y-83972400D02*
X151247200Y-85793400D01*
X151247200Y-83972400D02*
X151247200Y-82194400D01*
D50*
X147701000Y-91998800D02*
X147701000Y-93268800D01*
X147701000Y-90182800D02*
X147701000Y-90982800D01*
X147701000Y-90982800D02*
X147701000Y-91998800D01*
X147701000Y-93268800D02*
X147701000Y-94538800D01*
X147701000Y-94538800D02*
X147701000Y-99872800D01*
X147701000Y-93268800D02*
X151130000Y-93268800D01*
D51*
X151257000Y-93268800D02*
X151226700Y-93238500D01*
X141605000Y-103975200D02*
X138805000Y-106775200D01*
X141605000Y-100888800D02*
X141605000Y-103975200D01*
X151226700Y-85813900D02*
X151226700Y-88676300D01*
X105105200Y-102118800D02*
X105105200Y-103936800D01*
D52*
X127254000Y-67310000D02*
X127508000Y-67056000D01*
X126045000Y-67310000D02*
X127254000Y-67310000D01*
X126045000Y-66159500D02*
X125361700Y-65476200D01*
X126045000Y-67310000D02*
X126045000Y-66159500D01*
D51*
X106019600Y-86868000D02*
X103784400Y-89103200D01*
X106019600Y-84158000D02*
X106019600Y-86868000D01*
D54*
X93599000Y-104040000D02*
X93549000Y-104090000D01*
D51*
X93549000Y-99491000D02*
X99060000Y-93980000D01*
X93549000Y-104090000D02*
X93549000Y-99491000D01*
X129336800Y-74743000D02*
X129336800Y-70459600D01*
X129433000Y-74839200D02*
X129336800Y-74743000D01*
X134467600Y-74839200D02*
X129433000Y-74839200D01*
D50*
X122358700Y-64801200D02*
X122358700Y-65684400D01*
D51*
X127558800Y-69342000D02*
X127136800Y-69764000D01*
X131521200Y-69342000D02*
X127558800Y-69342000D01*
X127136800Y-69764000D02*
X127136800Y-70459600D01*
X133654800Y-70082400D02*
X132261600Y-70082400D01*
X132261600Y-70082400D02*
X131521200Y-69342000D01*
D52*
X126282800Y-70459600D02*
X127136800Y-70459600D01*
X125038200Y-69215000D02*
X126282800Y-70459600D01*
X124333000Y-69215000D02*
X125038200Y-69215000D01*
D53*
X122358700Y-67240700D02*
X124333000Y-69215000D01*
X122358700Y-65684400D02*
X122358700Y-67240700D01*
D54*
X83439000Y-61595000D02*
X83439000Y-56007000D01*
X80518000Y-64262000D02*
X80772000Y-64262000D01*
X80772000Y-64262000D02*
X83439000Y-61595000D01*
D51*
X105105200Y-93268800D02*
X110871000Y-93268800D01*
X134239000Y-93458800D02*
X134239000Y-96888800D01*
X137795000Y-93458800D02*
X137795000Y-96888800D01*
X141605000Y-93458800D02*
X141605000Y-96888800D01*
X130683000Y-95300800D02*
X130683000Y-96856800D01*
X130683000Y-93458800D02*
X130683000Y-95300800D01*
X145415000Y-95300800D02*
X145415000Y-96888800D01*
X145415000Y-93458800D02*
X145415000Y-95300800D01*
X130715000Y-96888800D02*
X130683000Y-96856800D01*
D52*
X139293600Y-78790800D02*
X138328400Y-77825600D01*
X139547600Y-78790800D02*
X139293600Y-78790800D01*
D51*
X136230000Y-81635600D02*
X136271000Y-81594600D01*
X136271000Y-81594600D02*
X136271000Y-80675815D01*
X136271000Y-80675815D02*
X136271000Y-80137000D01*
D53*
X121858700Y-69407700D02*
X123063000Y-70612000D01*
X121858700Y-67625300D02*
X121858700Y-69407700D01*
D50*
X121858700Y-64801200D02*
X121858700Y-67625300D01*
D51*
X105105200Y-96568800D02*
X105105200Y-99618800D01*
X102606200Y-106220800D02*
X102608200Y-106222800D01*
D55*
X102565200Y-99618800D02*
X105105200Y-99618800D01*
D51*
X102565200Y-99618800D02*
X102565200Y-106144800D01*
X99695000Y-109171000D02*
X102643200Y-106222800D01*
X97663000Y-119126000D02*
X99695000Y-117094000D01*
X99695000Y-117094000D02*
X99695000Y-109171000D01*
D50*
X123583700Y-63576200D02*
X125361700Y-63576200D01*
D52*
X126492000Y-63823500D02*
X126244700Y-63576200D01*
X126492000Y-64922400D02*
X126492000Y-63823500D01*
X126244700Y-63576200D02*
X125361700Y-63576200D01*
X127660400Y-56515000D02*
X129962000Y-56515000D01*
X127660400Y-61337956D02*
X127660400Y-56515000D01*
X125361700Y-63576200D02*
X125422156Y-63576200D01*
X129962000Y-56515000D02*
X131155800Y-57708800D01*
X125422156Y-63576200D02*
X127660400Y-61337956D01*
D51*
X102565200Y-99618800D02*
X101219000Y-98272600D01*
X101219000Y-98272600D02*
X101219000Y-82981800D01*
X113792000Y-69596000D02*
X109220000Y-74168000D01*
X114935000Y-69596000D02*
X113792000Y-69596000D01*
X133477000Y-116408200D02*
X136149000Y-116408200D01*
X113677200Y-82881600D02*
X113294800Y-82499200D01*
X113677200Y-85750400D02*
X113677200Y-82881600D01*
X115022000Y-80772000D02*
X113294800Y-82499200D01*
X118313200Y-80772000D02*
X115022000Y-80772000D01*
D55*
X106713200Y-81958000D02*
X106019600Y-81958000D01*
X111760000Y-78994000D02*
X109677200Y-78994000D01*
X109677200Y-78994000D02*
X106713200Y-81958000D01*
D50*
X109677200Y-83616800D02*
X110794800Y-82499200D01*
X109677200Y-85750400D02*
X109677200Y-83616800D01*
X111760000Y-81534000D02*
X111760000Y-78994000D01*
X110794800Y-82499200D02*
X111760000Y-81534000D01*
D51*
X105519400Y-113284000D02*
X104554200Y-112318800D01*
D55*
X110617000Y-78994000D02*
X111760000Y-78994000D01*
X106680000Y-72898000D02*
X106680000Y-75057000D01*
X106680000Y-75057000D02*
X110617000Y-78994000D01*
D54*
X112084800Y-90170000D02*
X115062000Y-90170000D01*
X109677200Y-85750400D02*
X109677200Y-87762400D01*
X109677200Y-87762400D02*
X112084800Y-90170000D01*
D51*
X110871000Y-113284000D02*
X105519400Y-113284000D01*
D54*
X115062000Y-90170000D02*
X116840000Y-90170000D01*
X90932000Y-82677000D02*
X85344000Y-88265000D01*
X90932000Y-76860400D02*
X90932000Y-82677000D01*
X85283000Y-88204000D02*
X85344000Y-88265000D01*
X80772000Y-86614000D02*
X82362000Y-88204000D01*
X77241000Y-86499700D02*
X77355300Y-86614000D01*
X82362000Y-88204000D02*
X85283000Y-88204000D01*
X77355300Y-86614000D02*
X80772000Y-86614000D01*
D52*
X130987800Y-63804800D02*
X128955800Y-61772800D01*
D51*
X131155800Y-63804800D02*
X130987800Y-63804800D01*
X131507600Y-63804800D02*
X131155800Y-63804800D01*
D52*
X138277600Y-57034800D02*
X131507600Y-63804800D01*
X138277600Y-55422800D02*
X138277600Y-57034800D01*
X128955800Y-61772800D02*
X128676400Y-61772800D01*
X128676400Y-61772800D02*
X128168400Y-62280800D01*
X125361700Y-61351200D02*
X126481800Y-61351200D01*
X126481800Y-61351200D02*
X126492000Y-61341000D01*
D50*
X123915977Y-63076200D02*
X123583700Y-63076200D01*
X125107700Y-61351200D02*
X125107700Y-61884477D01*
X125107700Y-61884477D02*
X123915977Y-63076200D01*
D52*
X145661200Y-78214400D02*
X145745200Y-78130400D01*
D51*
X144373600Y-82212000D02*
X144391200Y-82194400D01*
X144373600Y-84074000D02*
X144373600Y-82212000D01*
D52*
X140512800Y-82937000D02*
X140512800Y-84074000D01*
X141255400Y-82194400D02*
X140512800Y-82937000D01*
X144391200Y-82194400D02*
X141255400Y-82194400D01*
X139278400Y-75825600D02*
X145370800Y-75825600D01*
X145745200Y-76200000D02*
X145745200Y-78130400D01*
X145370800Y-75825600D02*
X145745200Y-76200000D01*
D51*
X145796000Y-80391000D02*
X145796000Y-78181200D01*
X145796000Y-78181200D02*
X145745200Y-78130400D01*
X144391200Y-82194400D02*
X144391200Y-81795800D01*
X144391200Y-81795800D02*
X145796000Y-80391000D01*
X142473600Y-85780800D02*
X142494000Y-85801200D01*
X142473600Y-84074000D02*
X142473600Y-85780800D01*
X140444000Y-85801200D02*
X140294000Y-85801200D01*
D52*
X141656000Y-87013200D02*
X140444000Y-85801200D01*
X143443400Y-87013200D02*
X141656000Y-87013200D01*
X144642700Y-85813900D02*
X143443400Y-87013200D01*
D51*
X144792700Y-85813900D02*
X144642700Y-85813900D01*
X140294000Y-85801200D02*
X138480800Y-85801200D01*
D52*
X138480800Y-84206000D02*
X138612800Y-84074000D01*
D51*
X138480800Y-85801200D02*
X138480800Y-84206000D01*
D52*
X138612800Y-81412000D02*
X138612800Y-82937000D01*
X137160000Y-76044000D02*
X137160000Y-79121000D01*
X138612800Y-82937000D02*
X138612800Y-84074000D01*
X137795000Y-79756000D02*
X137795000Y-80594200D01*
X137160000Y-79121000D02*
X137795000Y-79756000D01*
X137378400Y-75825600D02*
X137160000Y-76044000D01*
X137795000Y-80594200D02*
X138612800Y-81412000D01*
D50*
X121358700Y-67109300D02*
X121358700Y-64801200D01*
D53*
X117983000Y-70485000D02*
X121358700Y-67109300D01*
X117561000Y-70485000D02*
X117983000Y-70485000D01*
D50*
X120633700Y-63605200D02*
X120633700Y-63576200D01*
X117729000Y-66548000D02*
X119646700Y-64630300D01*
X120604700Y-63576200D02*
X120633700Y-63605200D01*
X119646700Y-64630300D02*
X119646700Y-64230923D01*
X117729000Y-66802000D02*
X117729000Y-66548000D01*
X119646700Y-64230923D02*
X120301423Y-63576200D01*
X120301423Y-63576200D02*
X120604700Y-63576200D01*
X119955700Y-63076200D02*
X120633700Y-63076200D01*
X118503700Y-63891200D02*
X119140700Y-63891200D01*
X119140700Y-63891200D02*
X119955700Y-63076200D01*
D52*
X116639700Y-64084200D02*
X114566700Y-66157200D01*
D51*
X116725700Y-64084200D02*
X116639700Y-64084200D01*
X142191000Y-63322200D02*
X143553000Y-63322200D01*
D52*
X139369800Y-63322200D02*
X142191000Y-63322200D01*
X138952562Y-63322200D02*
X139369800Y-63322200D01*
X138811000Y-63180638D02*
X138952562Y-63322200D01*
X138811000Y-62103008D02*
X138811000Y-63180638D01*
X138811000Y-68580000D02*
X138811000Y-63180638D01*
D53*
X132207000Y-55499000D02*
X133731001Y-57023001D01*
X120840744Y-55105290D02*
X121234454Y-55499000D01*
X121234454Y-55499000D02*
X132207000Y-55499000D01*
X114566700Y-66007200D02*
X112903000Y-64343500D01*
X114566700Y-66157200D02*
X114566700Y-66007200D01*
X112903000Y-64343500D02*
X112903000Y-57531000D01*
X115328710Y-55105290D02*
X120840744Y-55105290D01*
X133731001Y-57023001D02*
X134493000Y-57785000D01*
X112903000Y-57531000D02*
X115328710Y-55105290D01*
D51*
X118174865Y-64023771D02*
X117636050Y-64023771D01*
X116786129Y-64023771D02*
X117097235Y-64023771D01*
X118310700Y-64084200D02*
X118250271Y-64023771D01*
X117097235Y-64023771D02*
X117636050Y-64023771D01*
X116725700Y-64084200D02*
X116786129Y-64023771D01*
X118250271Y-64023771D02*
X118174865Y-64023771D01*
X116725700Y-61884200D02*
X118396700Y-61884200D01*
D52*
X116641700Y-61884200D02*
X114566700Y-59809200D01*
D51*
X116725700Y-61884200D02*
X116641700Y-61884200D01*
D50*
X118503700Y-61991200D02*
X120284200Y-61991200D01*
X120633700Y-62340700D02*
X120633700Y-62576200D01*
X120284200Y-61991200D02*
X120633700Y-62340700D01*
D51*
X123571000Y-108204000D02*
X123571000Y-113207800D01*
X124764800Y-107010200D02*
X123571000Y-108204000D01*
X132080000Y-107010200D02*
X124764800Y-107010200D01*
X124688600Y-112090200D02*
X123571000Y-113207800D01*
X132080000Y-112090200D02*
X124688600Y-112090200D01*
X132080000Y-112090200D02*
X132080000Y-113614200D01*
X131277000Y-114417200D02*
X131277000Y-116408200D01*
X132080000Y-113614200D02*
X131277000Y-114417200D01*
D54*
X102603299Y-75907901D02*
X101650800Y-76860400D01*
X104076500Y-74434700D02*
X102603299Y-75907901D01*
X104076500Y-63814857D02*
X104076500Y-74434700D01*
X106680000Y-62738000D02*
X105153357Y-62738000D01*
X105153357Y-62738000D02*
X104076500Y-63814857D01*
D51*
X126796800Y-83893000D02*
X123342400Y-87347400D01*
X123875800Y-86172000D02*
X124021800Y-86318000D01*
D56*
X118313200Y-86172000D02*
X123875800Y-86172000D01*
D50*
X112369600Y-103276400D02*
X110871000Y-103276400D01*
X117322600Y-93243400D02*
X117322600Y-98323400D01*
X117322600Y-98323400D02*
X112369600Y-103276400D01*
D57*
X124021800Y-86318000D02*
X124021800Y-86544200D01*
D50*
X124021800Y-86544200D02*
X117322600Y-93243400D01*
D51*
X119193000Y-74786800D02*
X119176800Y-74803000D01*
X119617800Y-74362000D02*
X119176800Y-74803000D01*
X119684800Y-74295000D02*
X119176800Y-74803000D01*
X119236800Y-74743000D02*
X119176800Y-74803000D01*
X124256800Y-74743000D02*
X119236800Y-74743000D01*
X119684800Y-70561200D02*
X119684800Y-74295000D01*
X119761000Y-70485000D02*
X119684800Y-70561200D01*
D52*
X104585199Y-110425801D02*
X104585199Y-109276799D01*
X104216200Y-110794800D02*
X104585199Y-110425801D01*
X102354200Y-112318800D02*
X102354200Y-111119800D01*
X102679200Y-110794800D02*
X104216200Y-110794800D01*
X102354200Y-111119800D02*
X102679200Y-110794800D01*
X104808200Y-107180800D02*
X104808200Y-106222800D01*
X104242200Y-107746800D02*
X104808200Y-107180800D01*
X102957198Y-107746800D02*
X104242200Y-107746800D01*
X102385199Y-108318799D02*
X102957198Y-107746800D01*
X102385199Y-109276799D02*
X102385199Y-108318799D01*
D51*
X147685200Y-82194400D02*
X146632610Y-82194400D01*
X149047200Y-82194400D02*
X147685200Y-82194400D01*
X143205200Y-78130400D02*
X143205200Y-80924400D01*
X149047200Y-82194400D02*
X149047200Y-83972400D01*
X146558000Y-82161200D02*
X146558000Y-81818817D01*
X146558000Y-81818817D02*
X146558000Y-81280002D01*
X146591200Y-82194400D02*
X146558000Y-82161200D01*
X149026700Y-85813900D02*
X146992700Y-85813900D01*
X143230600Y-65285800D02*
X143238400Y-65278000D01*
X143230600Y-69291200D02*
X143230600Y-65285800D01*
X136245600Y-85766000D02*
X136280800Y-85801200D01*
X136245600Y-84074000D02*
X136245600Y-85766000D01*
D50*
X122313700Y-59766200D02*
X122351800Y-59804300D01*
X122351800Y-61844300D02*
X122358700Y-61851200D01*
X122351800Y-59804300D02*
X122351800Y-61844300D01*
D52*
X130987800Y-59740800D02*
X128955800Y-57708800D01*
D51*
X131071800Y-59740800D02*
X130987800Y-59740800D01*
D50*
X121858700Y-61222200D02*
X121297700Y-60661200D01*
X121858700Y-61851200D02*
X121858700Y-61222200D01*
D51*
X116938700Y-57820200D02*
X116852700Y-57734200D01*
D52*
X116852700Y-56372200D02*
X116852700Y-57734200D01*
X117471900Y-55753000D02*
X116852700Y-56372200D01*
X119703500Y-55753000D02*
X117471900Y-55753000D01*
X120281700Y-57693200D02*
X120281700Y-56331200D01*
X120281700Y-56331200D02*
X119703500Y-55753000D01*
D50*
X120985700Y-57693200D02*
X120281700Y-57693200D01*
X121297700Y-60661200D02*
X121297700Y-58005200D01*
X121297700Y-58005200D02*
X120985700Y-57693200D01*
D52*
X130903800Y-61772800D02*
X128871800Y-59740800D01*
D51*
X131155800Y-61772800D02*
X130903800Y-61772800D01*
D52*
X130987800Y-65836800D02*
X128955800Y-63804800D01*
D51*
X131241800Y-65836800D02*
X130987800Y-65836800D01*
D52*
X140817600Y-57623000D02*
X132603800Y-65836800D01*
X132603800Y-65836800D02*
X131241800Y-65836800D01*
X140817600Y-55422800D02*
X140817600Y-57623000D01*
D50*
X123583700Y-61735779D02*
X123800679Y-61518800D01*
X123583700Y-62576200D02*
X123583700Y-61735779D01*
D52*
X127685790Y-63804800D02*
X127635000Y-63754010D01*
X128955800Y-63804800D02*
X127685790Y-63804800D01*
D51*
X114566700Y-63957200D02*
X114566700Y-62009200D01*
X148285200Y-66065400D02*
X148285200Y-69189600D01*
X145745200Y-63330000D02*
X145753000Y-63322200D01*
X145753000Y-63533200D02*
X148285200Y-66065400D01*
X145753000Y-63322200D02*
X145753000Y-63533200D01*
X118630700Y-59893200D02*
X118503700Y-59766200D01*
D52*
X120281700Y-59893200D02*
X118630700Y-59893200D01*
X143357600Y-55422800D02*
X142163800Y-54229000D01*
D50*
X120281700Y-61075450D02*
X120281700Y-59893200D01*
X121358700Y-61851200D02*
X121057450Y-61851200D01*
X121057450Y-61851200D02*
X120281700Y-61075450D01*
D52*
X122555000Y-54229000D02*
X122174000Y-54610000D01*
X142163800Y-54229000D02*
X122555000Y-54229000D01*
D50*
X86995000Y-73279000D02*
X90932000Y-69342000D01*
X85344000Y-73279000D02*
X86995000Y-73279000D01*
X100838000Y-59436000D02*
X90932000Y-69342000D01*
X100838000Y-56388000D02*
X100838000Y-59436000D01*
X98856800Y-54406800D02*
X100838000Y-56388000D01*
X94818200Y-54406800D02*
X98856800Y-54406800D01*
X91948000Y-56007000D02*
X93218000Y-56007000D01*
X93218000Y-56007000D02*
X94818200Y-54406800D01*
D54*
X77241000Y-81521300D02*
X77289000Y-81473300D01*
D50*
X95758000Y-58547000D02*
X95758000Y-56388000D01*
X93091000Y-61214000D02*
X95758000Y-58547000D01*
X77289000Y-81473300D02*
X77289000Y-71047000D01*
X80264000Y-68072000D02*
X86868000Y-68072000D01*
X77289000Y-71047000D02*
X80264000Y-68072000D01*
X86868000Y-68072000D02*
X93091000Y-61849000D01*
X93091000Y-61849000D02*
X93091000Y-61214000D01*
X123583700Y-64076200D02*
X123698000Y-64190500D01*
D53*
X145745200Y-66497194D02*
X145542006Y-66294000D01*
X145745200Y-69240400D02*
X145745200Y-66497194D01*
X123698000Y-66863000D02*
X124145000Y-67310000D01*
X123698000Y-64190500D02*
X123698000Y-66863000D01*
X133858000Y-66294000D02*
X136398000Y-66294000D01*
X131826000Y-68326000D02*
X133858000Y-66294000D01*
X124370000Y-67310000D02*
X125386000Y-68326000D01*
X125386000Y-68326000D02*
X131826000Y-68326000D01*
D50*
G36*
X162433000Y-93164186D02*
G01*
X162396922Y-92924667D01*
X162303636Y-92665777D01*
X162241656Y-92549820D01*
X162091794Y-92392611D01*
X161215605Y-93268800D01*
X162091794Y-94144989D01*
X162241656Y-93987780D01*
X162358756Y-93738752D01*
X162425023Y-93471665D01*
X162433000Y-93301514D01*
X162433000Y-94919800D01*
X147955000Y-94919800D01*
X147955000Y-94324594D01*
X160159811Y-94324594D01*
X160317020Y-94474456D01*
X160566048Y-94591556D01*
X160833135Y-94657823D01*
X161108017Y-94670710D01*
X161380133Y-94629722D01*
X161639023Y-94536436D01*
X161754980Y-94474456D01*
X161912189Y-94324594D01*
X161036000Y-93448405D01*
X160159811Y-94324594D01*
X147955000Y-94324594D01*
X147955000Y-93961156D01*
X150617249Y-93961156D01*
X150713009Y-94058804D01*
X150875143Y-94124975D01*
X151047071Y-94158243D01*
X151222186Y-94157331D01*
X151393759Y-94122274D01*
X151546991Y-94058804D01*
X151642751Y-93961156D01*
X151130000Y-93448405D01*
X150617249Y-93961156D01*
X147955000Y-93961156D01*
X147955000Y-93185871D01*
X150240557Y-93185871D01*
X150241469Y-93360986D01*
X150276526Y-93532559D01*
X150339996Y-93685791D01*
X150437644Y-93781551D01*
X150950395Y-93268800D01*
X151309605Y-93268800D01*
X151822356Y-93781551D01*
X151920004Y-93685791D01*
X151986175Y-93523657D01*
X152019443Y-93351729D01*
X152019387Y-93340817D01*
X159634090Y-93340817D01*
X159675078Y-93612933D01*
X159768364Y-93871823D01*
X159830344Y-93987780D01*
X159980206Y-94144989D01*
X160856395Y-93268800D01*
X159980206Y-92392611D01*
X159830344Y-92549820D01*
X159713244Y-92798848D01*
X159646977Y-93065935D01*
X159634090Y-93340817D01*
X152019387Y-93340817D01*
X152018531Y-93176614D01*
X151983474Y-93005041D01*
X151920004Y-92851809D01*
X151822356Y-92756049D01*
X151309605Y-93268800D01*
X150950395Y-93268800D01*
X150437644Y-92756049D01*
X150339996Y-92851809D01*
X150273825Y-93013943D01*
X150240557Y-93185871D01*
X147955000Y-93185871D01*
X147955000Y-92576444D01*
X150617249Y-92576444D01*
X151130000Y-93089195D01*
X151642751Y-92576444D01*
X151546991Y-92478796D01*
X151384857Y-92412625D01*
X151212929Y-92379357D01*
X151037814Y-92380269D01*
X150866241Y-92415326D01*
X150713009Y-92478796D01*
X150617249Y-92576444D01*
X147955000Y-92576444D01*
X147955000Y-92213006D01*
X160159811Y-92213006D01*
X161036000Y-93089195D01*
X161912189Y-92213006D01*
X161754980Y-92063144D01*
X161505952Y-91946044D01*
X161238865Y-91879777D01*
X160963983Y-91866890D01*
X160691867Y-91907878D01*
X160432977Y-92001164D01*
X160317020Y-92063144D01*
X160159811Y-92213006D01*
X147955000Y-92213006D01*
X147955000Y-91363800D01*
X162433000Y-91363800D01*
X162433000Y-93164186D01*
G37*
X162433000Y-93164186D02*
X162396922Y-92924667D01*
X162303636Y-92665777D01*
X162241656Y-92549820D01*
X162091794Y-92392611D01*
X161215605Y-93268800D01*
X162091794Y-94144989D01*
X162241656Y-93987780D01*
X162358756Y-93738752D01*
X162425023Y-93471665D01*
X162433000Y-93301514D01*
X162433000Y-94919800D01*
X147955000Y-94919800D01*
X147955000Y-94324594D01*
X160159811Y-94324594D01*
X160317020Y-94474456D01*
X160566048Y-94591556D01*
X160833135Y-94657823D01*
X161108017Y-94670710D01*
X161380133Y-94629722D01*
X161639023Y-94536436D01*
X161754980Y-94474456D01*
X161912189Y-94324594D01*
X161036000Y-93448405D01*
X160159811Y-94324594D01*
X147955000Y-94324594D01*
X147955000Y-93961156D01*
X150617249Y-93961156D01*
X150713009Y-94058804D01*
X150875143Y-94124975D01*
X151047071Y-94158243D01*
X151222186Y-94157331D01*
X151393759Y-94122274D01*
X151546991Y-94058804D01*
X151642751Y-93961156D01*
X151130000Y-93448405D01*
X150617249Y-93961156D01*
X147955000Y-93961156D01*
X147955000Y-93185871D01*
X150240557Y-93185871D01*
X150241469Y-93360986D01*
X150276526Y-93532559D01*
X150339996Y-93685791D01*
X150437644Y-93781551D01*
X150950395Y-93268800D01*
X151309605Y-93268800D01*
X151822356Y-93781551D01*
X151920004Y-93685791D01*
X151986175Y-93523657D01*
X152019443Y-93351729D01*
X152019387Y-93340817D01*
X159634090Y-93340817D01*
X159675078Y-93612933D01*
X159768364Y-93871823D01*
X159830344Y-93987780D01*
X159980206Y-94144989D01*
X160856395Y-93268800D01*
X159980206Y-92392611D01*
X159830344Y-92549820D01*
X159713244Y-92798848D01*
X159646977Y-93065935D01*
X159634090Y-93340817D01*
X152019387Y-93340817D01*
X152018531Y-93176614D01*
X151983474Y-93005041D01*
X151920004Y-92851809D01*
X151822356Y-92756049D01*
X151309605Y-93268800D01*
X150950395Y-93268800D01*
X150437644Y-92756049D01*
X150339996Y-92851809D01*
X150273825Y-93013943D01*
X150240557Y-93185871D01*
X147955000Y-93185871D01*
X147955000Y-92576444D01*
X150617249Y-92576444D01*
X151130000Y-93089195D01*
X151642751Y-92576444D01*
X151546991Y-92478796D01*
X151384857Y-92412625D01*
X151212929Y-92379357D01*
X151037814Y-92380269D01*
X150866241Y-92415326D01*
X150713009Y-92478796D01*
X150617249Y-92576444D01*
X147955000Y-92576444D01*
X147955000Y-92213006D01*
X160159811Y-92213006D01*
X161036000Y-93089195D01*
X161912189Y-92213006D01*
X161754980Y-92063144D01*
X161505952Y-91946044D01*
X161238865Y-91879777D01*
X160963983Y-91866890D01*
X160691867Y-91907878D01*
X160432977Y-92001164D01*
X160317020Y-92063144D01*
X160159811Y-92213006D01*
X147955000Y-92213006D01*
X147955000Y-91363800D01*
X162433000Y-91363800D01*
X162433000Y-93164186D01*
G36*
X134493000Y-106502187D02*
G01*
X134493000Y-114631476D01*
X122047000Y-114757206D01*
X122047000Y-106500918D01*
X134493000Y-106502187D01*
G37*
X134493000Y-106502187D02*
X134493000Y-114631476D01*
X122047000Y-114757206D01*
X122047000Y-106500918D01*
X134493000Y-106502187D01*
G36*
X152019000Y-88391209D02*
G01*
X152019000Y-94994194D01*
X149516197Y-97496997D01*
X149500403Y-97516243D01*
X149488667Y-97538199D01*
X149481440Y-97562024D01*
X149479000Y-97586800D01*
X149479000Y-102539800D01*
X127635000Y-102539800D01*
X127635000Y-90982800D01*
X129159000Y-90982800D01*
X129159000Y-99364800D01*
X129161440Y-99389576D01*
X129168667Y-99413401D01*
X129180403Y-99435357D01*
X129196197Y-99454603D01*
X129215443Y-99470397D01*
X129237399Y-99482133D01*
X129261224Y-99489360D01*
X129286000Y-99491800D01*
X146812000Y-99491800D01*
X146836776Y-99489360D01*
X146860601Y-99482133D01*
X146882557Y-99470397D01*
X146901803Y-99454603D01*
X146917597Y-99435357D01*
X146929333Y-99413401D01*
X146936560Y-99389576D01*
X146939000Y-99364800D01*
X146939000Y-90982800D01*
X146936560Y-90958024D01*
X146929333Y-90934199D01*
X146917597Y-90912243D01*
X146901803Y-90892997D01*
X146882557Y-90877203D01*
X146860601Y-90865467D01*
X146836776Y-90858240D01*
X146812000Y-90855800D01*
X129286000Y-90855800D01*
X129261224Y-90858240D01*
X129237399Y-90865467D01*
X129215443Y-90877203D01*
X129196197Y-90892997D01*
X129180403Y-90912243D01*
X129168667Y-90934199D01*
X129161440Y-90958024D01*
X129159000Y-90982800D01*
X127635000Y-90982800D01*
X127635000Y-88467843D01*
X132196800Y-88467843D01*
X132271489Y-88460487D01*
X132343308Y-88438701D01*
X132409496Y-88403322D01*
X132467511Y-88355711D01*
X132500265Y-88315800D01*
X139953526Y-88315800D01*
X152019000Y-88391209D01*
G37*
X152019000Y-88391209D02*
X152019000Y-94994194D01*
X149516197Y-97496997D01*
X149500403Y-97516243D01*
X149488667Y-97538199D01*
X149481440Y-97562024D01*
X149479000Y-97586800D01*
X149479000Y-102539800D01*
X127635000Y-102539800D01*
X127635000Y-90982800D01*
X129159000Y-90982800D01*
X129159000Y-99364800D01*
X129161440Y-99389576D01*
X129168667Y-99413401D01*
X129180403Y-99435357D01*
X129196197Y-99454603D01*
X129215443Y-99470397D01*
X129237399Y-99482133D01*
X129261224Y-99489360D01*
X129286000Y-99491800D01*
X146812000Y-99491800D01*
X146836776Y-99489360D01*
X146860601Y-99482133D01*
X146882557Y-99470397D01*
X146901803Y-99454603D01*
X146917597Y-99435357D01*
X146929333Y-99413401D01*
X146936560Y-99389576D01*
X146939000Y-99364800D01*
X146939000Y-90982800D01*
X146936560Y-90958024D01*
X146929333Y-90934199D01*
X146917597Y-90912243D01*
X146901803Y-90892997D01*
X146882557Y-90877203D01*
X146860601Y-90865467D01*
X146836776Y-90858240D01*
X146812000Y-90855800D01*
X129286000Y-90855800D01*
X129261224Y-90858240D01*
X129237399Y-90865467D01*
X129215443Y-90877203D01*
X129196197Y-90892997D01*
X129180403Y-90912243D01*
X129168667Y-90934199D01*
X129161440Y-90958024D01*
X129159000Y-90982800D01*
X127635000Y-90982800D01*
X127635000Y-88467843D01*
X132196800Y-88467843D01*
X132271489Y-88460487D01*
X132343308Y-88438701D01*
X132409496Y-88403322D01*
X132467511Y-88355711D01*
X132500265Y-88315800D01*
X139953526Y-88315800D01*
X152019000Y-88391209D01*
G36*
X146177000Y-97967800D02*
G01*
X129921000Y-97967800D01*
X129921000Y-92379800D01*
X146177000Y-92379800D01*
X146177000Y-97967800D01*
G37*
X146177000Y-97967800D02*
X129921000Y-97967800D01*
X129921000Y-92379800D01*
X146177000Y-92379800D01*
X146177000Y-97967800D01*
G36*
X147554783Y-104210120D02*
G01*
X136738767Y-104210120D01*
X135197833Y-102559120D01*
X149288481Y-102559120D01*
X147554783Y-104210120D01*
G37*
X147554783Y-104210120D02*
X136738767Y-104210120D01*
X135197833Y-102559120D01*
X149288481Y-102559120D01*
X147554783Y-104210120D01*
G36*
X96647000Y-56186606D02*
G01*
X96647000Y-59891394D01*
X86561394Y-69977000D01*
X81534000Y-69977000D01*
X81509224Y-69979440D01*
X81485399Y-69986667D01*
X81463443Y-69998403D01*
X81444197Y-70014197D01*
X80174197Y-71284197D01*
X80158403Y-71303443D01*
X80146667Y-71325399D01*
X80139440Y-71349224D01*
X80137000Y-71374000D01*
X80137000Y-82677000D01*
X76327000Y-82677000D01*
X76327000Y-69394606D01*
X79046606Y-66675000D01*
X86614000Y-66675000D01*
X86638776Y-66672560D01*
X86662601Y-66665333D01*
X86684557Y-66653597D01*
X86703803Y-66637803D01*
X94831803Y-58509803D01*
X94847597Y-58490557D01*
X94859333Y-58468601D01*
X94866560Y-58444776D01*
X94869000Y-58420000D01*
X94869000Y-56186606D01*
X95302606Y-55753000D01*
X96213394Y-55753000D01*
X96647000Y-56186606D01*
G37*
X96647000Y-56186606D02*
X96647000Y-59891394D01*
X86561394Y-69977000D01*
X81534000Y-69977000D01*
X81509224Y-69979440D01*
X81485399Y-69986667D01*
X81463443Y-69998403D01*
X81444197Y-70014197D01*
X80174197Y-71284197D01*
X80158403Y-71303443D01*
X80146667Y-71325399D01*
X80139440Y-71349224D01*
X80137000Y-71374000D01*
X80137000Y-82677000D01*
X76327000Y-82677000D01*
X76327000Y-69394606D01*
X79046606Y-66675000D01*
X86614000Y-66675000D01*
X86638776Y-66672560D01*
X86662601Y-66665333D01*
X86684557Y-66653597D01*
X86703803Y-66637803D01*
X94831803Y-58509803D01*
X94847597Y-58490557D01*
X94859333Y-58468601D01*
X94866560Y-58444776D01*
X94869000Y-58420000D01*
X94869000Y-56186606D01*
X95302606Y-55753000D01*
X96213394Y-55753000D01*
X96647000Y-56186606D01*
G36*
X101473000Y-56186606D02*
G01*
X101473000Y-56261000D01*
X100203000Y-56261000D01*
X100203000Y-56134000D01*
X100200560Y-56109224D01*
X100193333Y-56085399D01*
X100181597Y-56063443D01*
X100165803Y-56044197D01*
X98641803Y-54520197D01*
X98622557Y-54504403D01*
X98600601Y-54492667D01*
X98576776Y-54485440D01*
X98552000Y-54483000D01*
X94996000Y-54483000D01*
X94971224Y-54485440D01*
X94947399Y-54492667D01*
X94925443Y-54504403D01*
X94900423Y-54526370D01*
X93122423Y-56558370D01*
X93107944Y-56578623D01*
X93097694Y-56601312D01*
X93092068Y-56625564D01*
X93091000Y-56642000D01*
X93091000Y-58039000D01*
X91059000Y-58039000D01*
X91059000Y-53975000D01*
X99261394Y-53975000D01*
X101473000Y-56186606D01*
G37*
X101473000Y-56186606D02*
X101473000Y-56261000D01*
X100203000Y-56261000D01*
X100203000Y-56134000D01*
X100200560Y-56109224D01*
X100193333Y-56085399D01*
X100181597Y-56063443D01*
X100165803Y-56044197D01*
X98641803Y-54520197D01*
X98622557Y-54504403D01*
X98600601Y-54492667D01*
X98576776Y-54485440D01*
X98552000Y-54483000D01*
X94996000Y-54483000D01*
X94971224Y-54485440D01*
X94947399Y-54492667D01*
X94925443Y-54504403D01*
X94900423Y-54526370D01*
X93122423Y-56558370D01*
X93107944Y-56578623D01*
X93097694Y-56601312D01*
X93092068Y-56625564D01*
X93091000Y-56642000D01*
X93091000Y-58039000D01*
X91059000Y-58039000D01*
X91059000Y-53975000D01*
X99261394Y-53975000D01*
X101473000Y-56186606D01*
G36*
X101473000Y-60399394D02*
G01*
X87831394Y-74041000D01*
X84455000Y-74041000D01*
X84455000Y-72517000D01*
X86360000Y-72517000D01*
X86384776Y-72514560D01*
X86408601Y-72507333D01*
X86430557Y-72495597D01*
X86449803Y-72479803D01*
X100165803Y-58763803D01*
X100181597Y-58744557D01*
X100193333Y-58722601D01*
X100200560Y-58698776D01*
X100203000Y-58674000D01*
X100203000Y-56515000D01*
X101473000Y-56515000D01*
X101473000Y-60399394D01*
G37*
X101473000Y-60399394D02*
X87831394Y-74041000D01*
X84455000Y-74041000D01*
X84455000Y-72517000D01*
X86360000Y-72517000D01*
X86384776Y-72514560D01*
X86408601Y-72507333D01*
X86430557Y-72495597D01*
X86449803Y-72479803D01*
X100165803Y-58763803D01*
X100181597Y-58744557D01*
X100193333Y-58722601D01*
X100200560Y-58698776D01*
X100203000Y-58674000D01*
X100203000Y-56515000D01*
X101473000Y-56515000D01*
X101473000Y-60399394D01*
G36*
X92075000Y-83767394D02*
G01*
X86561394Y-89281000D01*
X77776606Y-89281000D01*
X76327000Y-87831394D01*
X76327000Y-86158606D01*
X77014606Y-85471000D01*
X85598000Y-85471000D01*
X85622776Y-85468560D01*
X85646601Y-85461333D01*
X85668557Y-85449597D01*
X85687803Y-85433803D01*
X89751803Y-81369803D01*
X89767597Y-81350557D01*
X89779333Y-81328601D01*
X89786560Y-81304776D01*
X89789000Y-81280000D01*
X89789000Y-75819000D01*
X92075000Y-75819000D01*
X92075000Y-83767394D01*
G37*
X92075000Y-83767394D02*
X86561394Y-89281000D01*
X77776606Y-89281000D01*
X76327000Y-87831394D01*
X76327000Y-86158606D01*
X77014606Y-85471000D01*
X85598000Y-85471000D01*
X85622776Y-85468560D01*
X85646601Y-85461333D01*
X85668557Y-85449597D01*
X85687803Y-85433803D01*
X89751803Y-81369803D01*
X89767597Y-81350557D01*
X89779333Y-81328601D01*
X89786560Y-81304776D01*
X89789000Y-81280000D01*
X89789000Y-75819000D01*
X92075000Y-75819000D01*
X92075000Y-83767394D01*
G36*
X99949000Y-93524606D02*
G01*
X99949000Y-94975390D01*
X98694216Y-98739742D01*
X95448619Y-102235000D01*
X91567000Y-102235000D01*
X91567000Y-99623381D01*
X98601872Y-93091000D01*
X99515394Y-93091000D01*
X99949000Y-93524606D01*
G37*
X99949000Y-93524606D02*
X99949000Y-94975390D01*
X98694216Y-98739742D01*
X95448619Y-102235000D01*
X91567000Y-102235000D01*
X91567000Y-99623381D01*
X98601872Y-93091000D01*
X99515394Y-93091000D01*
X99949000Y-93524606D01*
G36*
X125095000Y-88593394D02*
G01*
X118528197Y-95160197D01*
X118512403Y-95179443D01*
X118500667Y-95201399D01*
X118493440Y-95225224D01*
X118491000Y-95250000D01*
X118491000Y-99515394D01*
X113231394Y-104775000D01*
X110288606Y-104775000D01*
X109601000Y-104087394D01*
X109601000Y-102414606D01*
X110288606Y-101727000D01*
X112014000Y-101727000D01*
X112038776Y-101724560D01*
X112062601Y-101717333D01*
X112084557Y-101705597D01*
X112103803Y-101689803D01*
X115659803Y-98133803D01*
X115675597Y-98114557D01*
X115687333Y-98092601D01*
X115694560Y-98068776D01*
X115697000Y-98044000D01*
X115697000Y-93524606D01*
X122226606Y-86995000D01*
X125095000Y-86995000D01*
X125095000Y-88593394D01*
G37*
X125095000Y-88593394D02*
X118528197Y-95160197D01*
X118512403Y-95179443D01*
X118500667Y-95201399D01*
X118493440Y-95225224D01*
X118491000Y-95250000D01*
X118491000Y-99515394D01*
X113231394Y-104775000D01*
X110288606Y-104775000D01*
X109601000Y-104087394D01*
X109601000Y-102414606D01*
X110288606Y-101727000D01*
X112014000Y-101727000D01*
X112038776Y-101724560D01*
X112062601Y-101717333D01*
X112084557Y-101705597D01*
X112103803Y-101689803D01*
X115659803Y-98133803D01*
X115675597Y-98114557D01*
X115687333Y-98092601D01*
X115694560Y-98068776D01*
X115697000Y-98044000D01*
X115697000Y-93524606D01*
X122226606Y-86995000D01*
X125095000Y-86995000D01*
X125095000Y-88593394D01*
G36*
X120269000Y-71247000D02*
G01*
X120271440Y-71271776D01*
X120278667Y-71295601D01*
X120290403Y-71317557D01*
X120306197Y-71336803D01*
X120941197Y-71971803D01*
X120960443Y-71987597D01*
X120982399Y-71999333D01*
X121006224Y-72006560D01*
X121031000Y-72009000D01*
X124841000Y-72009000D01*
X124841000Y-76581000D01*
X122734606Y-76581000D01*
X122009803Y-75856197D01*
X121990557Y-75840403D01*
X121968601Y-75828667D01*
X121944776Y-75821440D01*
X121920000Y-75819000D01*
X118237000Y-75819000D01*
X118237000Y-73279000D01*
X119126000Y-73279000D01*
X119150776Y-73276560D01*
X119174601Y-73269333D01*
X119196557Y-73257597D01*
X119215803Y-73241803D01*
X119231597Y-73222557D01*
X119243333Y-73200601D01*
X119250560Y-73176776D01*
X119253000Y-73152000D01*
X119253000Y-70104000D01*
X120269000Y-70104000D01*
X120269000Y-71247000D01*
G37*
X120269000Y-71247000D02*
X120271440Y-71271776D01*
X120278667Y-71295601D01*
X120290403Y-71317557D01*
X120306197Y-71336803D01*
X120941197Y-71971803D01*
X120960443Y-71987597D01*
X120982399Y-71999333D01*
X121006224Y-72006560D01*
X121031000Y-72009000D01*
X124841000Y-72009000D01*
X124841000Y-76581000D01*
X122734606Y-76581000D01*
X122009803Y-75856197D01*
X121990557Y-75840403D01*
X121968601Y-75828667D01*
X121944776Y-75821440D01*
X121920000Y-75819000D01*
X118237000Y-75819000D01*
X118237000Y-73279000D01*
X119126000Y-73279000D01*
X119150776Y-73276560D01*
X119174601Y-73269333D01*
X119196557Y-73257597D01*
X119215803Y-73241803D01*
X119231597Y-73222557D01*
X119243333Y-73200601D01*
X119250560Y-73176776D01*
X119253000Y-73152000D01*
X119253000Y-70104000D01*
X120269000Y-70104000D01*
X120269000Y-71247000D01*
G36*
X116459000Y-77597000D02*
G01*
X111887000Y-77597000D01*
X111887000Y-72771000D01*
X116459000Y-72771000D01*
X116459000Y-77597000D01*
G37*
X116459000Y-77597000D02*
X111887000Y-77597000D01*
X111887000Y-72771000D01*
X116459000Y-72771000D01*
X116459000Y-77597000D01*
G36*
X107823000Y-75692000D02*
G01*
X107825440Y-75716776D01*
X107832667Y-75740601D01*
X107844403Y-75762557D01*
X107860197Y-75781803D01*
X110400197Y-78321803D01*
X110419443Y-78337597D01*
X110441399Y-78349333D01*
X110465224Y-78356560D01*
X110490000Y-78359000D01*
X111961394Y-78359000D01*
X112395000Y-78792606D01*
X112395000Y-80973394D01*
X111670197Y-81698197D01*
X111654403Y-81717443D01*
X111642667Y-81739399D01*
X111635440Y-81763224D01*
X111633000Y-81788000D01*
X111633000Y-83185000D01*
X110998000Y-83185000D01*
X110973224Y-83187440D01*
X110949399Y-83194667D01*
X110927443Y-83206403D01*
X110908197Y-83222197D01*
X110892403Y-83241443D01*
X110880667Y-83263399D01*
X110873440Y-83287224D01*
X110871000Y-83312000D01*
X110871000Y-87630000D01*
X110873440Y-87654776D01*
X110880667Y-87678601D01*
X110892403Y-87700557D01*
X110908197Y-87719803D01*
X112432197Y-89243803D01*
X112451443Y-89259597D01*
X112473399Y-89271333D01*
X112497224Y-89278560D01*
X112522793Y-89280998D01*
X116828145Y-89254119D01*
X117475000Y-89726514D01*
X117475000Y-90610032D01*
X116801548Y-91059000D01*
X111558606Y-91059000D01*
X108585000Y-88085394D01*
X108585000Y-82804000D01*
X108582560Y-82779224D01*
X108575333Y-82755399D01*
X108563597Y-82733443D01*
X108547803Y-82714197D01*
X108528557Y-82698403D01*
X108506601Y-82686667D01*
X108482776Y-82679440D01*
X108458000Y-82677000D01*
X105537000Y-82677000D01*
X105537000Y-81407000D01*
X106426000Y-81407000D01*
X106450776Y-81404560D01*
X106474601Y-81397333D01*
X106496557Y-81385597D01*
X106515803Y-81369803D01*
X108293803Y-79591803D01*
X108309597Y-79572557D01*
X108321333Y-79550601D01*
X108328560Y-79526776D01*
X108331000Y-79502000D01*
X108331000Y-78486000D01*
X108328560Y-78461224D01*
X108321333Y-78437399D01*
X108309597Y-78415443D01*
X108293803Y-78396197D01*
X105537000Y-75639394D01*
X105537000Y-72517000D01*
X107823000Y-72517000D01*
X107823000Y-75692000D01*
G37*
X107823000Y-75692000D02*
X107825440Y-75716776D01*
X107832667Y-75740601D01*
X107844403Y-75762557D01*
X107860197Y-75781803D01*
X110400197Y-78321803D01*
X110419443Y-78337597D01*
X110441399Y-78349333D01*
X110465224Y-78356560D01*
X110490000Y-78359000D01*
X111961394Y-78359000D01*
X112395000Y-78792606D01*
X112395000Y-80973394D01*
X111670197Y-81698197D01*
X111654403Y-81717443D01*
X111642667Y-81739399D01*
X111635440Y-81763224D01*
X111633000Y-81788000D01*
X111633000Y-83185000D01*
X110998000Y-83185000D01*
X110973224Y-83187440D01*
X110949399Y-83194667D01*
X110927443Y-83206403D01*
X110908197Y-83222197D01*
X110892403Y-83241443D01*
X110880667Y-83263399D01*
X110873440Y-83287224D01*
X110871000Y-83312000D01*
X110871000Y-87630000D01*
X110873440Y-87654776D01*
X110880667Y-87678601D01*
X110892403Y-87700557D01*
X110908197Y-87719803D01*
X112432197Y-89243803D01*
X112451443Y-89259597D01*
X112473399Y-89271333D01*
X112497224Y-89278560D01*
X112522793Y-89280998D01*
X116828145Y-89254119D01*
X117475000Y-89726514D01*
X117475000Y-90610032D01*
X116801548Y-91059000D01*
X111558606Y-91059000D01*
X108585000Y-88085394D01*
X108585000Y-82804000D01*
X108582560Y-82779224D01*
X108575333Y-82755399D01*
X108563597Y-82733443D01*
X108547803Y-82714197D01*
X108528557Y-82698403D01*
X108506601Y-82686667D01*
X108482776Y-82679440D01*
X108458000Y-82677000D01*
X105537000Y-82677000D01*
X105537000Y-81407000D01*
X106426000Y-81407000D01*
X106450776Y-81404560D01*
X106474601Y-81397333D01*
X106496557Y-81385597D01*
X106515803Y-81369803D01*
X108293803Y-79591803D01*
X108309597Y-79572557D01*
X108321333Y-79550601D01*
X108328560Y-79526776D01*
X108331000Y-79502000D01*
X108331000Y-78486000D01*
X108328560Y-78461224D01*
X108321333Y-78437399D01*
X108309597Y-78415443D01*
X108293803Y-78396197D01*
X105537000Y-75639394D01*
X105537000Y-72517000D01*
X107823000Y-72517000D01*
X107823000Y-75692000D01*
M02*
