M48
; DRILL file {KiCad (5.1.5)-3} date 1/12/2020 12:37:24 AM
; FORMAT={-:-/ absolute / inch / decimal}
; #@! TF.CreationDate,2020-01-12T00:37:24-05:00
; #@! TF.GenerationSoftware,Kicad,Pcbnew,(5.1.5)-3
; #@! TF.FileFunction,Plated,1,2,PTH
FMAT,2
INCH
T1C0.0120
T2C0.0150
T3C0.0200
T4C0.0300
T5C0.0315
T6C0.0320
T7C0.0360
T8C0.0394
T9C0.0430
T10C0.0520
T11C0.0530
T12C0.0787
T13C0.1160
%
G90
G05
T1
X4.7855Y-2.473
X4.7855Y-2.513
X4.8074Y-2.4932
X4.8255Y-2.473
X4.8255Y-2.513
T2
X4.138Y-4.092
X4.5662Y-2.353
X4.6313Y-2.5206
X4.6655Y-2.2285
X4.7345Y-2.357
X4.8155Y-2.213
X4.874Y-2.422
X4.8855Y-2.338
X4.98Y-2.415
X4.98Y-2.556
X5.025Y-2.51
X5.028Y-2.592
X5.046Y-2.452
X5.145Y-3.747
X5.215Y-3.682
X5.215Y-3.812
X5.285Y-3.747
X5.355Y-3.682
X5.355Y-3.812
X5.365Y-3.155
X5.425Y-3.747
X5.494Y-3.102
X5.5Y-2.57
X5.505Y-3.682
X5.505Y-3.812
X5.575Y-3.747
X5.638Y-3.186
X5.655Y-3.682
X5.655Y-3.812
X5.725Y-3.747
X5.77Y-3.2
X5.838Y-2.461
T3
X4.81Y-2.15
X5.02Y-2.64
X3.77Y-2.22
X4.045Y-4.69
X5.95Y-3.872
X4.2Y-3.11
X3.886Y-3.508
X5.465Y-2.9
T4
X3.041Y-3.2095
X3.041Y-3.4055
T5
X3.9Y-3.7
X3.985Y-3.267
X4.3Y-2.92
X4.46Y-3.03
X4.525Y-2.74
X4.53Y-3.55
X4.56Y-2.93
X4.6Y-3.55
X4.845Y-2.78
X5.295Y-2.275
X5.37Y-2.61
X5.465Y-2.445
X5.73Y-2.61
T6
X4.086Y-3.508
X5.465Y-2.7
X3.97Y-2.22
X3.845Y-4.69
X5.95Y-3.672
X4.4Y-3.11
T7
X3.36Y-2.885
X3.36Y-3.475
T8
X6.045Y-2.19
X6.145Y-2.19
X6.52Y-3.168
X6.52Y-3.268
X5.444Y-2.192
X5.544Y-2.192
X5.644Y-2.192
X5.744Y-2.192
X3.43Y-4.71
X3.53Y-4.71
T9
X3.17Y-2.53
X3.17Y-2.68
X3.58Y-2.73
X3.58Y-3.026
X4.002Y-2.73
X4.002Y-3.026
X6.34Y-3.522
X6.34Y-3.672
T10
X4.365Y-3.672
X4.365Y-3.869
X4.365Y-4.066
X4.365Y-4.263
X4.365Y-4.46
X4.865Y-3.672
X4.865Y-3.869
X4.865Y-4.066
X4.865Y-4.263
X4.865Y-4.46
T11
X4.2Y-2.27
X4.2Y-2.47
X4.2Y-2.67
X4.2Y-2.87
T12
X3.1909Y-4.098
X3.683Y-4.098
T13
X6.43Y-4.65
X3.05Y-2.25
X6.43Y-2.25
X3.05Y-4.65
T0
M30
