G04 #@! TF.GenerationSoftware,KiCad,Pcbnew,(5.1.5)-3*
G04 #@! TF.CreationDate,2020-01-12T00:37:19-05:00*
G04 #@! TF.ProjectId,MAX17595_offline_20V_supply_v1,4d415831-3735-4393-955f-6f66666c696e,rev?*
G04 #@! TF.SameCoordinates,Original*
G04 #@! TF.FileFunction,Soldermask,Top*
G04 #@! TF.FilePolarity,Negative*
%FSLAX46Y46*%
G04 Gerber Fmt 4.6, Leading zero omitted, Abs format (unit mm)*
G04 Created by KiCad (PCBNEW (5.1.5)-3) date 2020-01-12 00:37:19*
%MOMM*%
%LPD*%
G04 APERTURE LIST*
%ADD10C,0.100000*%
G04 APERTURE END LIST*
D10*
G36*
X163741073Y-115072696D02*
G01*
X164214772Y-115166920D01*
X164493279Y-115282282D01*
X164771785Y-115397643D01*
X164771786Y-115397644D01*
X165273083Y-115732599D01*
X165699401Y-116158917D01*
X165923211Y-116493873D01*
X166034357Y-116660215D01*
X166149718Y-116938721D01*
X166265080Y-117217228D01*
X166382700Y-117808548D01*
X166382700Y-118411452D01*
X166265080Y-119002772D01*
X166210258Y-119135123D01*
X166034357Y-119559785D01*
X165923211Y-119726127D01*
X165699401Y-120061083D01*
X165273083Y-120487401D01*
X164974062Y-120687200D01*
X164771785Y-120822357D01*
X164493279Y-120937718D01*
X164214772Y-121053080D01*
X163741073Y-121147304D01*
X163623453Y-121170700D01*
X163020547Y-121170700D01*
X162902927Y-121147304D01*
X162429228Y-121053080D01*
X162150721Y-120937718D01*
X161872215Y-120822357D01*
X161669938Y-120687200D01*
X161370917Y-120487401D01*
X160944599Y-120061083D01*
X160720789Y-119726127D01*
X160609643Y-119559785D01*
X160433742Y-119135123D01*
X160378920Y-119002772D01*
X160261300Y-118411452D01*
X160261300Y-117808548D01*
X160378920Y-117217228D01*
X160494282Y-116938721D01*
X160609643Y-116660215D01*
X160720789Y-116493873D01*
X160944599Y-116158917D01*
X161370917Y-115732599D01*
X161872214Y-115397644D01*
X161872215Y-115397643D01*
X162150721Y-115282282D01*
X162429228Y-115166920D01*
X162902927Y-115072696D01*
X163020547Y-115049300D01*
X163623453Y-115049300D01*
X163741073Y-115072696D01*
G37*
G36*
X77889073Y-115072696D02*
G01*
X78362772Y-115166920D01*
X78641279Y-115282282D01*
X78919785Y-115397643D01*
X78919786Y-115397644D01*
X79421083Y-115732599D01*
X79847401Y-116158917D01*
X80071211Y-116493873D01*
X80182357Y-116660215D01*
X80297718Y-116938721D01*
X80413080Y-117217228D01*
X80530700Y-117808548D01*
X80530700Y-118411452D01*
X80413080Y-119002772D01*
X80358258Y-119135123D01*
X80182357Y-119559785D01*
X80071211Y-119726127D01*
X79847401Y-120061083D01*
X79421083Y-120487401D01*
X79122062Y-120687200D01*
X78919785Y-120822357D01*
X78641279Y-120937718D01*
X78362772Y-121053080D01*
X77889073Y-121147304D01*
X77771453Y-121170700D01*
X77168547Y-121170700D01*
X77050927Y-121147304D01*
X76577228Y-121053080D01*
X76298721Y-120937718D01*
X76020215Y-120822357D01*
X75817938Y-120687200D01*
X75518917Y-120487401D01*
X75092599Y-120061083D01*
X74868789Y-119726127D01*
X74757643Y-119559785D01*
X74581742Y-119135123D01*
X74526920Y-119002772D01*
X74409300Y-118411452D01*
X74409300Y-117808548D01*
X74526920Y-117217228D01*
X74642282Y-116938721D01*
X74757643Y-116660215D01*
X74868789Y-116493873D01*
X75092599Y-116158917D01*
X75518917Y-115732599D01*
X76020214Y-115397644D01*
X76020215Y-115397643D01*
X76298721Y-115282282D01*
X76577228Y-115166920D01*
X77050927Y-115072696D01*
X77168547Y-115049300D01*
X77771453Y-115049300D01*
X77889073Y-115072696D01*
G37*
G36*
X88175200Y-120687200D02*
G01*
X86068800Y-120687200D01*
X86068800Y-118580800D01*
X88175200Y-118580800D01*
X88175200Y-120687200D01*
G37*
G36*
X89969207Y-118621274D02*
G01*
X90160877Y-118700666D01*
X90333376Y-118815926D01*
X90480074Y-118962624D01*
X90595334Y-119135123D01*
X90674726Y-119326793D01*
X90715200Y-119530269D01*
X90715200Y-119737731D01*
X90674726Y-119941207D01*
X90595334Y-120132877D01*
X90480074Y-120305376D01*
X90333376Y-120452074D01*
X90160877Y-120567334D01*
X89969207Y-120646726D01*
X89765731Y-120687200D01*
X89558269Y-120687200D01*
X89354793Y-120646726D01*
X89163123Y-120567334D01*
X88990624Y-120452074D01*
X88843926Y-120305376D01*
X88728666Y-120132877D01*
X88649274Y-119941207D01*
X88608800Y-119737731D01*
X88608800Y-119530269D01*
X88649274Y-119326793D01*
X88728666Y-119135123D01*
X88843926Y-118962624D01*
X88990624Y-118815926D01*
X89163123Y-118700666D01*
X89354793Y-118621274D01*
X89558269Y-118580800D01*
X89765731Y-118580800D01*
X89969207Y-118621274D01*
G37*
G36*
X102875155Y-118168178D02*
G01*
X103024537Y-118197891D01*
X103089424Y-118224769D01*
X103200194Y-118270651D01*
X103358279Y-118376280D01*
X103492720Y-118510721D01*
X103598349Y-118668806D01*
X103611546Y-118700667D01*
X103671109Y-118844463D01*
X103708200Y-119030937D01*
X103708200Y-119221063D01*
X103671109Y-119407537D01*
X103644231Y-119472424D01*
X103598349Y-119583194D01*
X103492720Y-119741279D01*
X103358279Y-119875720D01*
X103200194Y-119981349D01*
X103089424Y-120027231D01*
X103024537Y-120054109D01*
X102875155Y-120083822D01*
X102838064Y-120091200D01*
X102647936Y-120091200D01*
X102610845Y-120083822D01*
X102461463Y-120054109D01*
X102396576Y-120027231D01*
X102285806Y-119981349D01*
X102127721Y-119875720D01*
X101993280Y-119741279D01*
X101887651Y-119583194D01*
X101841769Y-119472424D01*
X101814891Y-119407537D01*
X101777800Y-119221063D01*
X101777800Y-119030937D01*
X101814891Y-118844463D01*
X101874454Y-118700667D01*
X101887651Y-118668806D01*
X101993280Y-118510721D01*
X102127721Y-118376280D01*
X102285806Y-118270651D01*
X102396576Y-118224769D01*
X102461463Y-118197891D01*
X102610845Y-118168178D01*
X102647936Y-118160800D01*
X102838064Y-118160800D01*
X102875155Y-118168178D01*
G37*
G36*
X97795155Y-118168178D02*
G01*
X97944537Y-118197891D01*
X98009424Y-118224769D01*
X98120194Y-118270651D01*
X98278279Y-118376280D01*
X98412720Y-118510721D01*
X98518349Y-118668806D01*
X98531546Y-118700667D01*
X98591109Y-118844463D01*
X98628200Y-119030937D01*
X98628200Y-119221063D01*
X98591109Y-119407537D01*
X98564231Y-119472424D01*
X98518349Y-119583194D01*
X98412720Y-119741279D01*
X98278279Y-119875720D01*
X98120194Y-119981349D01*
X98009424Y-120027231D01*
X97944537Y-120054109D01*
X97795155Y-120083822D01*
X97758064Y-120091200D01*
X97567936Y-120091200D01*
X97530845Y-120083822D01*
X97381463Y-120054109D01*
X97316576Y-120027231D01*
X97205806Y-119981349D01*
X97047721Y-119875720D01*
X96913280Y-119741279D01*
X96807651Y-119583194D01*
X96761769Y-119472424D01*
X96734891Y-119407537D01*
X96697800Y-119221063D01*
X96697800Y-119030937D01*
X96734891Y-118844463D01*
X96794454Y-118700667D01*
X96807651Y-118668806D01*
X96913280Y-118510721D01*
X97047721Y-118376280D01*
X97205806Y-118270651D01*
X97316576Y-118224769D01*
X97381463Y-118197891D01*
X97530845Y-118168178D01*
X97567936Y-118160800D01*
X97758064Y-118160800D01*
X97795155Y-118168178D01*
G37*
G36*
X134280200Y-117061400D02*
G01*
X132673800Y-117061400D01*
X132673800Y-115755000D01*
X134280200Y-115755000D01*
X134280200Y-117061400D01*
G37*
G36*
X132080200Y-117061400D02*
G01*
X130473800Y-117061400D01*
X130473800Y-115755000D01*
X132080200Y-115755000D01*
X132080200Y-117061400D01*
G37*
G36*
X136952200Y-116986400D02*
G01*
X135345800Y-116986400D01*
X135345800Y-115830000D01*
X136952200Y-115830000D01*
X136952200Y-116986400D01*
G37*
G36*
X138852200Y-116986400D02*
G01*
X137245800Y-116986400D01*
X137245800Y-115830000D01*
X138852200Y-115830000D01*
X138852200Y-116986400D01*
G37*
G36*
X146133200Y-115153400D02*
G01*
X136326800Y-115153400D01*
X136326800Y-103947000D01*
X146133200Y-103947000D01*
X146133200Y-115153400D01*
G37*
G36*
X123982194Y-111928474D02*
G01*
X124238743Y-112034740D01*
X124469631Y-112189014D01*
X124665986Y-112385369D01*
X124820260Y-112616257D01*
X124926526Y-112872806D01*
X124980700Y-113145157D01*
X124980700Y-113422843D01*
X124926526Y-113695194D01*
X124820260Y-113951743D01*
X124665986Y-114182631D01*
X124469631Y-114378986D01*
X124238743Y-114533260D01*
X123982194Y-114639526D01*
X123709843Y-114693700D01*
X123432157Y-114693700D01*
X123159806Y-114639526D01*
X122903257Y-114533260D01*
X122672369Y-114378986D01*
X122476014Y-114182631D01*
X122321740Y-113951743D01*
X122215474Y-113695194D01*
X122161300Y-113422843D01*
X122161300Y-113145157D01*
X122215474Y-112872806D01*
X122321740Y-112616257D01*
X122476014Y-112385369D01*
X122672369Y-112189014D01*
X122903257Y-112034740D01*
X123159806Y-111928474D01*
X123432157Y-111874300D01*
X123709843Y-111874300D01*
X123982194Y-111928474D01*
G37*
G36*
X111282194Y-111928474D02*
G01*
X111538743Y-112034740D01*
X111769631Y-112189014D01*
X111965986Y-112385369D01*
X112120260Y-112616257D01*
X112226526Y-112872806D01*
X112280700Y-113145157D01*
X112280700Y-113422843D01*
X112226526Y-113695194D01*
X112120260Y-113951743D01*
X111965986Y-114182631D01*
X111769631Y-114378986D01*
X111538743Y-114533260D01*
X111282194Y-114639526D01*
X111009843Y-114693700D01*
X110732157Y-114693700D01*
X110459806Y-114639526D01*
X110203257Y-114533260D01*
X109972369Y-114378986D01*
X109776014Y-114182631D01*
X109621740Y-113951743D01*
X109515474Y-113695194D01*
X109461300Y-113422843D01*
X109461300Y-113145157D01*
X109515474Y-112872806D01*
X109621740Y-112616257D01*
X109776014Y-112385369D01*
X109972369Y-112189014D01*
X110203257Y-112034740D01*
X110459806Y-111928474D01*
X110732157Y-111874300D01*
X111009843Y-111874300D01*
X111282194Y-111928474D01*
G37*
G36*
X105357400Y-112972000D02*
G01*
X103751000Y-112972000D01*
X103751000Y-111665600D01*
X105357400Y-111665600D01*
X105357400Y-112972000D01*
G37*
G36*
X103157400Y-112972000D02*
G01*
X101551000Y-112972000D01*
X101551000Y-111665600D01*
X103157400Y-111665600D01*
X103157400Y-112972000D01*
G37*
G36*
X134583200Y-112843400D02*
G01*
X129576800Y-112843400D01*
X129576800Y-111337000D01*
X134583200Y-111337000D01*
X134583200Y-112843400D01*
G37*
G36*
X105388399Y-109929999D02*
G01*
X103781999Y-109929999D01*
X103781999Y-108623599D01*
X105388399Y-108623599D01*
X105388399Y-109929999D01*
G37*
G36*
X103188399Y-109929999D02*
G01*
X101581999Y-109929999D01*
X101581999Y-108623599D01*
X103188399Y-108623599D01*
X103188399Y-109929999D01*
G37*
G36*
X123982194Y-106924674D02*
G01*
X124238743Y-107030940D01*
X124469631Y-107185214D01*
X124665986Y-107381569D01*
X124820260Y-107612457D01*
X124926526Y-107869006D01*
X124980700Y-108141357D01*
X124980700Y-108419043D01*
X124926526Y-108691394D01*
X124820260Y-108947943D01*
X124665986Y-109178831D01*
X124469631Y-109375186D01*
X124238743Y-109529460D01*
X123982194Y-109635726D01*
X123709843Y-109689900D01*
X123432157Y-109689900D01*
X123159806Y-109635726D01*
X122903257Y-109529460D01*
X122672369Y-109375186D01*
X122476014Y-109178831D01*
X122321740Y-108947943D01*
X122215474Y-108691394D01*
X122161300Y-108419043D01*
X122161300Y-108141357D01*
X122215474Y-107869006D01*
X122321740Y-107612457D01*
X122476014Y-107381569D01*
X122672369Y-107185214D01*
X122903257Y-107030940D01*
X123159806Y-106924674D01*
X123432157Y-106870500D01*
X123709843Y-106870500D01*
X123982194Y-106924674D01*
G37*
G36*
X111282194Y-106924674D02*
G01*
X111538743Y-107030940D01*
X111769631Y-107185214D01*
X111965986Y-107381569D01*
X112120260Y-107612457D01*
X112226526Y-107869006D01*
X112280700Y-108141357D01*
X112280700Y-108419043D01*
X112226526Y-108691394D01*
X112120260Y-108947943D01*
X111965986Y-109178831D01*
X111769631Y-109375186D01*
X111538743Y-109529460D01*
X111282194Y-109635726D01*
X111009843Y-109689900D01*
X110732157Y-109689900D01*
X110459806Y-109635726D01*
X110203257Y-109529460D01*
X109972369Y-109375186D01*
X109776014Y-109178831D01*
X109621740Y-108947943D01*
X109515474Y-108691394D01*
X109461300Y-108419043D01*
X109461300Y-108141357D01*
X109515474Y-107869006D01*
X109621740Y-107612457D01*
X109776014Y-107381569D01*
X109972369Y-107185214D01*
X110203257Y-107030940D01*
X110459806Y-106924674D01*
X110732157Y-106870500D01*
X111009843Y-106870500D01*
X111282194Y-106924674D01*
G37*
G36*
X134583200Y-107763400D02*
G01*
X129576800Y-107763400D01*
X129576800Y-106257000D01*
X134583200Y-106257000D01*
X134583200Y-107763400D01*
G37*
G36*
X103411400Y-106876000D02*
G01*
X101805000Y-106876000D01*
X101805000Y-105569600D01*
X103411400Y-105569600D01*
X103411400Y-106876000D01*
G37*
G36*
X105611400Y-106876000D02*
G01*
X104005000Y-106876000D01*
X104005000Y-105569600D01*
X105611400Y-105569600D01*
X105611400Y-106876000D01*
G37*
G36*
X81691650Y-101971468D02*
G01*
X82092605Y-102137549D01*
X82453458Y-102378663D01*
X82760337Y-102685542D01*
X83001451Y-103046395D01*
X83167532Y-103447350D01*
X83252200Y-103873004D01*
X83252200Y-104306996D01*
X83167532Y-104732650D01*
X83001451Y-105133605D01*
X82760337Y-105494458D01*
X82453458Y-105801337D01*
X82092605Y-106042451D01*
X81691650Y-106208532D01*
X81265996Y-106293200D01*
X80832004Y-106293200D01*
X80406350Y-106208532D01*
X80005395Y-106042451D01*
X79644542Y-105801337D01*
X79337663Y-105494458D01*
X79096549Y-105133605D01*
X78930468Y-104732650D01*
X78845800Y-104306996D01*
X78845800Y-103873004D01*
X78930468Y-103447350D01*
X79096549Y-103046395D01*
X79337663Y-102685542D01*
X79644542Y-102378663D01*
X80005395Y-102137549D01*
X80406350Y-101971468D01*
X80832004Y-101886800D01*
X81265996Y-101886800D01*
X81691650Y-101971468D01*
G37*
G36*
X95752200Y-106293200D02*
G01*
X91345800Y-106293200D01*
X91345800Y-101886800D01*
X95752200Y-101886800D01*
X95752200Y-106293200D01*
G37*
G36*
X123982194Y-101920874D02*
G01*
X124238743Y-102027140D01*
X124469631Y-102181414D01*
X124665986Y-102377769D01*
X124820260Y-102608657D01*
X124926526Y-102865206D01*
X124980700Y-103137557D01*
X124980700Y-103415243D01*
X124926526Y-103687594D01*
X124820260Y-103944143D01*
X124665986Y-104175031D01*
X124469631Y-104371386D01*
X124238743Y-104525660D01*
X123982194Y-104631926D01*
X123709843Y-104686100D01*
X123432157Y-104686100D01*
X123159806Y-104631926D01*
X122903257Y-104525660D01*
X122672369Y-104371386D01*
X122476014Y-104175031D01*
X122321740Y-103944143D01*
X122215474Y-103687594D01*
X122161300Y-103415243D01*
X122161300Y-103137557D01*
X122215474Y-102865206D01*
X122321740Y-102608657D01*
X122476014Y-102377769D01*
X122672369Y-102181414D01*
X122903257Y-102027140D01*
X123159806Y-101920874D01*
X123432157Y-101866700D01*
X123709843Y-101866700D01*
X123982194Y-101920874D01*
G37*
G36*
X111282194Y-101920874D02*
G01*
X111538743Y-102027140D01*
X111769631Y-102181414D01*
X111965986Y-102377769D01*
X112120260Y-102608657D01*
X112226526Y-102865206D01*
X112280700Y-103137557D01*
X112280700Y-103415243D01*
X112226526Y-103687594D01*
X112120260Y-103944143D01*
X111965986Y-104175031D01*
X111769631Y-104371386D01*
X111538743Y-104525660D01*
X111282194Y-104631926D01*
X111009843Y-104686100D01*
X110732157Y-104686100D01*
X110459806Y-104631926D01*
X110203257Y-104525660D01*
X109972369Y-104371386D01*
X109776014Y-104175031D01*
X109621740Y-103944143D01*
X109515474Y-103687594D01*
X109461300Y-103415243D01*
X109461300Y-103137557D01*
X109515474Y-102865206D01*
X109621740Y-102608657D01*
X109776014Y-102377769D01*
X109972369Y-102181414D01*
X110203257Y-102027140D01*
X110459806Y-101920874D01*
X110732157Y-101866700D01*
X111009843Y-101866700D01*
X111282194Y-101920874D01*
G37*
G36*
X105933400Y-103072000D02*
G01*
X104277000Y-103072000D01*
X104277000Y-101165600D01*
X105933400Y-101165600D01*
X105933400Y-103072000D01*
G37*
G36*
X146418200Y-101838000D02*
G01*
X144411800Y-101838000D01*
X144411800Y-99431600D01*
X146418200Y-99431600D01*
X146418200Y-101838000D01*
G37*
G36*
X142608200Y-101838000D02*
G01*
X140601800Y-101838000D01*
X140601800Y-99431600D01*
X142608200Y-99431600D01*
X142608200Y-101838000D01*
G37*
G36*
X138798200Y-101838000D02*
G01*
X136791800Y-101838000D01*
X136791800Y-99431600D01*
X138798200Y-99431600D01*
X138798200Y-101838000D01*
G37*
G36*
X135242200Y-101838000D02*
G01*
X133235800Y-101838000D01*
X133235800Y-99431600D01*
X135242200Y-99431600D01*
X135242200Y-101838000D01*
G37*
G36*
X131686200Y-101806000D02*
G01*
X129679800Y-101806000D01*
X129679800Y-99399600D01*
X131686200Y-99399600D01*
X131686200Y-101806000D01*
G37*
G36*
X105933400Y-100572000D02*
G01*
X104277000Y-100572000D01*
X104277000Y-98665600D01*
X105933400Y-98665600D01*
X105933400Y-100572000D01*
G37*
G36*
X111282194Y-96917074D02*
G01*
X111538743Y-97023340D01*
X111769631Y-97177614D01*
X111965986Y-97373969D01*
X112120260Y-97604857D01*
X112226526Y-97861406D01*
X112280700Y-98133757D01*
X112280700Y-98411443D01*
X112226526Y-98683794D01*
X112120260Y-98940343D01*
X111965986Y-99171231D01*
X111769631Y-99367586D01*
X111538743Y-99521860D01*
X111282194Y-99628126D01*
X111009843Y-99682300D01*
X110732157Y-99682300D01*
X110459806Y-99628126D01*
X110203257Y-99521860D01*
X109972369Y-99367586D01*
X109776014Y-99171231D01*
X109621740Y-98940343D01*
X109515474Y-98683794D01*
X109461300Y-98411443D01*
X109461300Y-98133757D01*
X109515474Y-97861406D01*
X109621740Y-97604857D01*
X109776014Y-97373969D01*
X109972369Y-97177614D01*
X110203257Y-97023340D01*
X110459806Y-96917074D01*
X110732157Y-96862900D01*
X111009843Y-96862900D01*
X111282194Y-96917074D01*
G37*
G36*
X123982194Y-96917074D02*
G01*
X124238743Y-97023340D01*
X124469631Y-97177614D01*
X124665986Y-97373969D01*
X124820260Y-97604857D01*
X124926526Y-97861406D01*
X124980700Y-98133757D01*
X124980700Y-98411443D01*
X124926526Y-98683794D01*
X124820260Y-98940343D01*
X124665986Y-99171231D01*
X124469631Y-99367586D01*
X124238743Y-99521860D01*
X123982194Y-99628126D01*
X123709843Y-99682300D01*
X123432157Y-99682300D01*
X123159806Y-99628126D01*
X122903257Y-99521860D01*
X122672369Y-99367586D01*
X122476014Y-99171231D01*
X122321740Y-98940343D01*
X122215474Y-98683794D01*
X122161300Y-98411443D01*
X122161300Y-98133757D01*
X122215474Y-97861406D01*
X122321740Y-97604857D01*
X122476014Y-97373969D01*
X122672369Y-97177614D01*
X122903257Y-97023340D01*
X123159806Y-96917074D01*
X123432157Y-96862900D01*
X123709843Y-96862900D01*
X123982194Y-96917074D01*
G37*
G36*
X151262155Y-97390978D02*
G01*
X151411537Y-97420691D01*
X151476424Y-97447569D01*
X151587194Y-97493451D01*
X151745279Y-97599080D01*
X151879720Y-97733521D01*
X151985349Y-97891606D01*
X152031231Y-98002376D01*
X152058109Y-98067263D01*
X152095200Y-98253737D01*
X152095200Y-98443863D01*
X152058109Y-98630337D01*
X152031231Y-98695224D01*
X151985349Y-98805994D01*
X151879720Y-98964079D01*
X151745279Y-99098520D01*
X151587194Y-99204149D01*
X151476424Y-99250031D01*
X151411537Y-99276909D01*
X151262155Y-99306622D01*
X151225064Y-99314000D01*
X151034936Y-99314000D01*
X150997845Y-99306622D01*
X150848463Y-99276909D01*
X150783576Y-99250031D01*
X150672806Y-99204149D01*
X150514721Y-99098520D01*
X150380280Y-98964079D01*
X150274651Y-98805994D01*
X150228769Y-98695224D01*
X150201891Y-98630337D01*
X150164800Y-98443863D01*
X150164800Y-98253737D01*
X150201891Y-98067263D01*
X150228769Y-98002376D01*
X150274651Y-97891606D01*
X150380280Y-97733521D01*
X150514721Y-97599080D01*
X150672806Y-97493451D01*
X150783576Y-97447569D01*
X150848463Y-97420691D01*
X150997845Y-97390978D01*
X151034936Y-97383600D01*
X151225064Y-97383600D01*
X151262155Y-97390978D01*
G37*
G36*
X138798200Y-97838000D02*
G01*
X136791800Y-97838000D01*
X136791800Y-95431600D01*
X138798200Y-95431600D01*
X138798200Y-97838000D01*
G37*
G36*
X146418200Y-97838000D02*
G01*
X144411800Y-97838000D01*
X144411800Y-95431600D01*
X146418200Y-95431600D01*
X146418200Y-97838000D01*
G37*
G36*
X142608200Y-97838000D02*
G01*
X140601800Y-97838000D01*
X140601800Y-95431600D01*
X142608200Y-95431600D01*
X142608200Y-97838000D01*
G37*
G36*
X135242200Y-97838000D02*
G01*
X133235800Y-97838000D01*
X133235800Y-95431600D01*
X135242200Y-95431600D01*
X135242200Y-97838000D01*
G37*
G36*
X131686200Y-97806000D02*
G01*
X129679800Y-97806000D01*
X129679800Y-95399600D01*
X131686200Y-95399600D01*
X131686200Y-97806000D01*
G37*
G36*
X105908400Y-97222000D02*
G01*
X104302000Y-97222000D01*
X104302000Y-95915600D01*
X105908400Y-95915600D01*
X105908400Y-97222000D01*
G37*
G36*
X138798200Y-94916000D02*
G01*
X136791800Y-94916000D01*
X136791800Y-92509600D01*
X138798200Y-92509600D01*
X138798200Y-94916000D01*
G37*
G36*
X146418200Y-94916000D02*
G01*
X144411800Y-94916000D01*
X144411800Y-92509600D01*
X146418200Y-92509600D01*
X146418200Y-94916000D01*
G37*
G36*
X142608200Y-94916000D02*
G01*
X140601800Y-94916000D01*
X140601800Y-92509600D01*
X142608200Y-92509600D01*
X142608200Y-94916000D01*
G37*
G36*
X135242200Y-94916000D02*
G01*
X133235800Y-94916000D01*
X133235800Y-92509600D01*
X135242200Y-92509600D01*
X135242200Y-94916000D01*
G37*
G36*
X131686200Y-94916000D02*
G01*
X129679800Y-94916000D01*
X129679800Y-92509600D01*
X131686200Y-92509600D01*
X131686200Y-94916000D01*
G37*
G36*
X161237711Y-91806861D02*
G01*
X161465716Y-91852213D01*
X161599770Y-91907741D01*
X161733822Y-91963267D01*
X161733823Y-91963268D01*
X161975111Y-92124491D01*
X162180309Y-92329689D01*
X162236277Y-92413452D01*
X162341533Y-92570978D01*
X162452587Y-92839084D01*
X162509200Y-93123703D01*
X162509200Y-93413897D01*
X162452587Y-93698516D01*
X162441205Y-93725994D01*
X162341533Y-93966622D01*
X162341532Y-93966623D01*
X162180309Y-94207911D01*
X161975111Y-94413109D01*
X161818040Y-94518060D01*
X161733822Y-94574333D01*
X161465716Y-94685387D01*
X161237711Y-94730739D01*
X161181098Y-94742000D01*
X160890902Y-94742000D01*
X160834289Y-94730739D01*
X160606284Y-94685387D01*
X160338178Y-94574333D01*
X160253960Y-94518060D01*
X160096889Y-94413109D01*
X159891691Y-94207911D01*
X159730468Y-93966623D01*
X159730467Y-93966622D01*
X159630795Y-93725994D01*
X159619413Y-93698516D01*
X159562800Y-93413897D01*
X159562800Y-93123703D01*
X159619413Y-92839084D01*
X159730467Y-92570978D01*
X159835723Y-92413452D01*
X159891691Y-92329689D01*
X160096889Y-92124491D01*
X160338177Y-91963268D01*
X160338178Y-91963267D01*
X160472230Y-91907741D01*
X160606284Y-91852213D01*
X160834289Y-91806861D01*
X160890902Y-91795600D01*
X161181098Y-91795600D01*
X161237711Y-91806861D01*
G37*
G36*
X123982194Y-91913274D02*
G01*
X124238743Y-92019540D01*
X124469631Y-92173814D01*
X124665986Y-92370169D01*
X124820260Y-92601057D01*
X124926526Y-92857606D01*
X124980700Y-93129957D01*
X124980700Y-93407643D01*
X124926526Y-93679994D01*
X124820260Y-93936543D01*
X124665986Y-94167431D01*
X124469631Y-94363786D01*
X124238743Y-94518060D01*
X123982194Y-94624326D01*
X123709843Y-94678500D01*
X123432157Y-94678500D01*
X123159806Y-94624326D01*
X122903257Y-94518060D01*
X122672369Y-94363786D01*
X122476014Y-94167431D01*
X122321740Y-93936543D01*
X122215474Y-93679994D01*
X122161300Y-93407643D01*
X122161300Y-93129957D01*
X122215474Y-92857606D01*
X122321740Y-92601057D01*
X122476014Y-92370169D01*
X122672369Y-92173814D01*
X122903257Y-92019540D01*
X123159806Y-91913274D01*
X123432157Y-91859100D01*
X123709843Y-91859100D01*
X123982194Y-91913274D01*
G37*
G36*
X111282194Y-91913274D02*
G01*
X111538743Y-92019540D01*
X111769631Y-92173814D01*
X111965986Y-92370169D01*
X112120260Y-92601057D01*
X112226526Y-92857606D01*
X112280700Y-93129957D01*
X112280700Y-93407643D01*
X112226526Y-93679994D01*
X112120260Y-93936543D01*
X111965986Y-94167431D01*
X111769631Y-94363786D01*
X111538743Y-94518060D01*
X111282194Y-94624326D01*
X111009843Y-94678500D01*
X110732157Y-94678500D01*
X110459806Y-94624326D01*
X110203257Y-94518060D01*
X109972369Y-94363786D01*
X109776014Y-94167431D01*
X109621740Y-93936543D01*
X109515474Y-93679994D01*
X109461300Y-93407643D01*
X109461300Y-93129957D01*
X109515474Y-92857606D01*
X109621740Y-92601057D01*
X109776014Y-92370169D01*
X109972369Y-92173814D01*
X110203257Y-92019540D01*
X110459806Y-91913274D01*
X110732157Y-91859100D01*
X111009843Y-91859100D01*
X111282194Y-91913274D01*
G37*
G36*
X151262155Y-92310978D02*
G01*
X151411537Y-92340691D01*
X151476424Y-92367569D01*
X151587194Y-92413451D01*
X151745279Y-92519080D01*
X151879720Y-92653521D01*
X151985349Y-92811606D01*
X152031231Y-92922376D01*
X152058109Y-92987263D01*
X152095200Y-93173737D01*
X152095200Y-93363863D01*
X152058109Y-93550337D01*
X152031231Y-93615224D01*
X151985349Y-93725994D01*
X151879720Y-93884079D01*
X151745279Y-94018520D01*
X151587194Y-94124149D01*
X151482702Y-94167431D01*
X151411537Y-94196909D01*
X151262155Y-94226622D01*
X151225064Y-94234000D01*
X151034936Y-94234000D01*
X150997845Y-94226622D01*
X150848463Y-94196909D01*
X150777298Y-94167431D01*
X150672806Y-94124149D01*
X150514721Y-94018520D01*
X150380280Y-93884079D01*
X150274651Y-93725994D01*
X150228769Y-93615224D01*
X150201891Y-93550337D01*
X150164800Y-93363863D01*
X150164800Y-93173737D01*
X150201891Y-92987263D01*
X150228769Y-92922376D01*
X150274651Y-92811606D01*
X150380280Y-92653521D01*
X150514721Y-92519080D01*
X150672806Y-92413451D01*
X150783576Y-92367569D01*
X150848463Y-92340691D01*
X150997845Y-92310978D01*
X151034936Y-92303600D01*
X151225064Y-92303600D01*
X151262155Y-92310978D01*
G37*
G36*
X105908400Y-93922000D02*
G01*
X104302000Y-93922000D01*
X104302000Y-92615600D01*
X105908400Y-92615600D01*
X105908400Y-93922000D01*
G37*
G36*
X161237711Y-87996861D02*
G01*
X161465716Y-88042213D01*
X161599770Y-88097741D01*
X161733822Y-88153267D01*
X161766484Y-88175091D01*
X161975111Y-88314491D01*
X162180309Y-88519689D01*
X162264711Y-88646006D01*
X162341533Y-88760978D01*
X162452587Y-89029084D01*
X162509200Y-89313703D01*
X162509200Y-89603897D01*
X162452587Y-89888516D01*
X162423578Y-89958548D01*
X162341533Y-90156622D01*
X162341532Y-90156623D01*
X162180309Y-90397911D01*
X161975111Y-90603109D01*
X161813887Y-90710835D01*
X161733822Y-90764333D01*
X161465716Y-90875387D01*
X161261536Y-90916000D01*
X161181098Y-90932000D01*
X160890902Y-90932000D01*
X160810464Y-90916000D01*
X160606284Y-90875387D01*
X160338178Y-90764333D01*
X160258113Y-90710835D01*
X160096889Y-90603109D01*
X159891691Y-90397911D01*
X159730468Y-90156623D01*
X159730467Y-90156622D01*
X159648422Y-89958548D01*
X159619413Y-89888516D01*
X159562800Y-89603897D01*
X159562800Y-89313703D01*
X159619413Y-89029084D01*
X159730467Y-88760978D01*
X159807289Y-88646006D01*
X159891691Y-88519689D01*
X160096889Y-88314491D01*
X160305516Y-88175091D01*
X160338178Y-88153267D01*
X160472230Y-88097741D01*
X160606284Y-88042213D01*
X160834289Y-87996861D01*
X160890902Y-87985600D01*
X161181098Y-87985600D01*
X161237711Y-87996861D01*
G37*
G36*
X132400000Y-88288200D02*
G01*
X131813199Y-88288200D01*
X131788423Y-88290640D01*
X131764599Y-88297867D01*
X131742642Y-88309603D01*
X131723397Y-88325397D01*
X131707603Y-88344642D01*
X131695867Y-88366599D01*
X131688640Y-88390423D01*
X131686200Y-88415199D01*
X131686200Y-90916000D01*
X129679800Y-90916000D01*
X129679800Y-88415199D01*
X129677360Y-88390423D01*
X129670133Y-88366599D01*
X129658397Y-88344642D01*
X129642603Y-88325397D01*
X129623358Y-88309603D01*
X129601401Y-88297867D01*
X129577577Y-88290640D01*
X129552801Y-88288200D01*
X121193600Y-88288200D01*
X121193600Y-78481800D01*
X132400000Y-78481800D01*
X132400000Y-88288200D01*
G37*
G36*
X135242200Y-90916000D02*
G01*
X133235800Y-90916000D01*
X133235800Y-88509600D01*
X135242200Y-88509600D01*
X135242200Y-90916000D01*
G37*
G36*
X138798200Y-90916000D02*
G01*
X136791800Y-90916000D01*
X136791800Y-88509600D01*
X138798200Y-88509600D01*
X138798200Y-90916000D01*
G37*
G36*
X142608200Y-90916000D02*
G01*
X140601800Y-90916000D01*
X140601800Y-88509600D01*
X142608200Y-88509600D01*
X142608200Y-90916000D01*
G37*
G36*
X146418200Y-90916000D02*
G01*
X144411800Y-90916000D01*
X144411800Y-88509600D01*
X146418200Y-88509600D01*
X146418200Y-90916000D01*
G37*
G36*
X98836555Y-88145378D02*
G01*
X98985937Y-88175091D01*
X99050824Y-88201969D01*
X99161594Y-88247851D01*
X99319679Y-88353480D01*
X99454120Y-88487921D01*
X99559749Y-88646006D01*
X99603765Y-88752271D01*
X99632509Y-88821663D01*
X99669600Y-89008137D01*
X99669600Y-89198263D01*
X99632509Y-89384737D01*
X99605631Y-89449624D01*
X99559749Y-89560394D01*
X99454120Y-89718479D01*
X99319679Y-89852920D01*
X99161594Y-89958549D01*
X99050824Y-90004431D01*
X98985937Y-90031309D01*
X98836555Y-90061022D01*
X98799464Y-90068400D01*
X98609336Y-90068400D01*
X98572245Y-90061022D01*
X98422863Y-90031309D01*
X98357976Y-90004431D01*
X98247206Y-89958549D01*
X98089121Y-89852920D01*
X97954680Y-89718479D01*
X97849051Y-89560394D01*
X97803169Y-89449624D01*
X97776291Y-89384737D01*
X97739200Y-89198263D01*
X97739200Y-89008137D01*
X97776291Y-88821663D01*
X97805035Y-88752271D01*
X97849051Y-88646006D01*
X97954680Y-88487921D01*
X98089121Y-88353480D01*
X98247206Y-88247851D01*
X98357976Y-88201969D01*
X98422863Y-88175091D01*
X98572245Y-88145378D01*
X98609336Y-88138000D01*
X98799464Y-88138000D01*
X98836555Y-88145378D01*
G37*
G36*
X103916555Y-88145378D02*
G01*
X104065937Y-88175091D01*
X104130824Y-88201969D01*
X104241594Y-88247851D01*
X104399679Y-88353480D01*
X104534120Y-88487921D01*
X104639749Y-88646006D01*
X104683765Y-88752271D01*
X104712509Y-88821663D01*
X104749600Y-89008137D01*
X104749600Y-89198263D01*
X104712509Y-89384737D01*
X104685631Y-89449624D01*
X104639749Y-89560394D01*
X104534120Y-89718479D01*
X104399679Y-89852920D01*
X104241594Y-89958549D01*
X104130824Y-90004431D01*
X104065937Y-90031309D01*
X103916555Y-90061022D01*
X103879464Y-90068400D01*
X103689336Y-90068400D01*
X103652245Y-90061022D01*
X103502863Y-90031309D01*
X103437976Y-90004431D01*
X103327206Y-89958549D01*
X103169121Y-89852920D01*
X103034680Y-89718479D01*
X102929051Y-89560394D01*
X102883169Y-89449624D01*
X102856291Y-89384737D01*
X102819200Y-89198263D01*
X102819200Y-89008137D01*
X102856291Y-88821663D01*
X102885035Y-88752271D01*
X102929051Y-88646006D01*
X103034680Y-88487921D01*
X103169121Y-88353480D01*
X103327206Y-88247851D01*
X103437976Y-88201969D01*
X103502863Y-88175091D01*
X103652245Y-88145378D01*
X103689336Y-88138000D01*
X103879464Y-88138000D01*
X103916555Y-88145378D01*
G37*
G36*
X85644061Y-87275833D02*
G01*
X85831272Y-87353378D01*
X85999758Y-87465957D01*
X86143043Y-87609242D01*
X86255622Y-87777728D01*
X86333167Y-87964939D01*
X86372700Y-88163682D01*
X86372700Y-88366318D01*
X86333167Y-88565061D01*
X86255622Y-88752272D01*
X86143043Y-88920758D01*
X85999758Y-89064043D01*
X85831272Y-89176622D01*
X85644061Y-89254167D01*
X85445318Y-89293700D01*
X85242682Y-89293700D01*
X85043939Y-89254167D01*
X84856728Y-89176622D01*
X84688242Y-89064043D01*
X84544957Y-88920758D01*
X84432378Y-88752272D01*
X84354833Y-88565061D01*
X84315300Y-88366318D01*
X84315300Y-88163682D01*
X84354833Y-87964939D01*
X84432378Y-87777728D01*
X84544957Y-87609242D01*
X84688242Y-87465957D01*
X84856728Y-87353378D01*
X85043939Y-87275833D01*
X85242682Y-87236300D01*
X85445318Y-87236300D01*
X85644061Y-87275833D01*
G37*
G36*
X119666400Y-88125200D02*
G01*
X116960000Y-88125200D01*
X116960000Y-84218800D01*
X119666400Y-84218800D01*
X119666400Y-88125200D01*
G37*
G36*
X77373155Y-85541878D02*
G01*
X77522537Y-85571591D01*
X77587424Y-85598469D01*
X77698194Y-85644351D01*
X77856279Y-85749980D01*
X77990720Y-85884421D01*
X78096349Y-86042506D01*
X78142231Y-86153276D01*
X78169109Y-86218163D01*
X78206200Y-86404637D01*
X78206200Y-86594763D01*
X78169109Y-86781237D01*
X78142231Y-86846124D01*
X78096349Y-86956894D01*
X77990720Y-87114979D01*
X77856279Y-87249420D01*
X77698194Y-87355049D01*
X77587424Y-87400931D01*
X77522537Y-87427809D01*
X77373155Y-87457522D01*
X77336064Y-87464900D01*
X77145936Y-87464900D01*
X77108845Y-87457522D01*
X76959463Y-87427809D01*
X76894576Y-87400931D01*
X76783806Y-87355049D01*
X76625721Y-87249420D01*
X76491280Y-87114979D01*
X76385651Y-86956894D01*
X76339769Y-86846124D01*
X76312891Y-86781237D01*
X76275800Y-86594763D01*
X76275800Y-86404637D01*
X76312891Y-86218163D01*
X76339769Y-86153276D01*
X76385651Y-86042506D01*
X76491280Y-85884421D01*
X76625721Y-85749980D01*
X76783806Y-85644351D01*
X76894576Y-85598469D01*
X76959463Y-85571591D01*
X77108845Y-85541878D01*
X77145936Y-85534500D01*
X77336064Y-85534500D01*
X77373155Y-85541878D01*
G37*
G36*
X110880400Y-87203600D02*
G01*
X108474000Y-87203600D01*
X108474000Y-84297200D01*
X110880400Y-84297200D01*
X110880400Y-87203600D01*
G37*
G36*
X114880400Y-87203600D02*
G01*
X112474000Y-87203600D01*
X112474000Y-84297200D01*
X114880400Y-84297200D01*
X114880400Y-87203600D01*
G37*
G36*
X152029900Y-86467100D02*
G01*
X150423500Y-86467100D01*
X150423500Y-85160700D01*
X152029900Y-85160700D01*
X152029900Y-86467100D01*
G37*
G36*
X149829900Y-86467100D02*
G01*
X148223500Y-86467100D01*
X148223500Y-85160700D01*
X149829900Y-85160700D01*
X149829900Y-86467100D01*
G37*
G36*
X147795900Y-86467100D02*
G01*
X146189500Y-86467100D01*
X146189500Y-85160700D01*
X147795900Y-85160700D01*
X147795900Y-86467100D01*
G37*
G36*
X145595900Y-86467100D02*
G01*
X143989500Y-86467100D01*
X143989500Y-85160700D01*
X145595900Y-85160700D01*
X145595900Y-86467100D01*
G37*
G36*
X137084000Y-86454400D02*
G01*
X135477600Y-86454400D01*
X135477600Y-85148000D01*
X137084000Y-85148000D01*
X137084000Y-86454400D01*
G37*
G36*
X141097200Y-86454400D02*
G01*
X137677600Y-86454400D01*
X137677600Y-85148000D01*
X141097200Y-85148000D01*
X141097200Y-86454400D01*
G37*
G36*
X143297200Y-86454400D02*
G01*
X141690800Y-86454400D01*
X141690800Y-85148000D01*
X143297200Y-85148000D01*
X143297200Y-86454400D01*
G37*
G36*
X106672800Y-84961200D02*
G01*
X105366400Y-84961200D01*
X105366400Y-83354800D01*
X106672800Y-83354800D01*
X106672800Y-84961200D01*
G37*
G36*
X136898800Y-84877200D02*
G01*
X135592400Y-84877200D01*
X135592400Y-83270800D01*
X136898800Y-83270800D01*
X136898800Y-84877200D01*
G37*
G36*
X141316000Y-84652200D02*
G01*
X139709600Y-84652200D01*
X139709600Y-83495800D01*
X141316000Y-83495800D01*
X141316000Y-84652200D01*
G37*
G36*
X139416000Y-84652200D02*
G01*
X137809600Y-84652200D01*
X137809600Y-83495800D01*
X139416000Y-83495800D01*
X139416000Y-84652200D01*
G37*
G36*
X143276800Y-84652200D02*
G01*
X141670400Y-84652200D01*
X141670400Y-83495800D01*
X143276800Y-83495800D01*
X143276800Y-84652200D01*
G37*
G36*
X145176800Y-84652200D02*
G01*
X143570400Y-84652200D01*
X143570400Y-83495800D01*
X145176800Y-83495800D01*
X145176800Y-84652200D01*
G37*
G36*
X149850400Y-84625600D02*
G01*
X148244000Y-84625600D01*
X148244000Y-83319200D01*
X149850400Y-83319200D01*
X149850400Y-84625600D01*
G37*
G36*
X152050400Y-84625600D02*
G01*
X150444000Y-84625600D01*
X150444000Y-83319200D01*
X152050400Y-83319200D01*
X152050400Y-84625600D01*
G37*
G36*
X165915207Y-81994474D02*
G01*
X166106877Y-82073866D01*
X166279376Y-82189126D01*
X166426074Y-82335824D01*
X166541334Y-82508323D01*
X166620726Y-82699993D01*
X166661200Y-82903469D01*
X166661200Y-83110931D01*
X166620726Y-83314407D01*
X166541334Y-83506077D01*
X166426074Y-83678576D01*
X166279376Y-83825274D01*
X166106877Y-83940534D01*
X165915207Y-84019926D01*
X165711731Y-84060400D01*
X165504269Y-84060400D01*
X165300793Y-84019926D01*
X165109123Y-83940534D01*
X164936624Y-83825274D01*
X164789926Y-83678576D01*
X164674666Y-83506077D01*
X164595274Y-83314407D01*
X164554800Y-83110931D01*
X164554800Y-82903469D01*
X164595274Y-82699993D01*
X164674666Y-82508323D01*
X164789926Y-82335824D01*
X164936624Y-82189126D01*
X165109123Y-82073866D01*
X165300793Y-81994474D01*
X165504269Y-81954000D01*
X165711731Y-81954000D01*
X165915207Y-81994474D01*
G37*
G36*
X114248000Y-83327400D02*
G01*
X112341600Y-83327400D01*
X112341600Y-81671000D01*
X114248000Y-81671000D01*
X114248000Y-83327400D01*
G37*
G36*
X111748000Y-83327400D02*
G01*
X109841600Y-83327400D01*
X109841600Y-81671000D01*
X111748000Y-81671000D01*
X111748000Y-83327400D01*
G37*
G36*
X149850400Y-82847600D02*
G01*
X148244000Y-82847600D01*
X148244000Y-81541200D01*
X149850400Y-81541200D01*
X149850400Y-82847600D01*
G37*
G36*
X145194400Y-82847600D02*
G01*
X143588000Y-82847600D01*
X143588000Y-81541200D01*
X145194400Y-81541200D01*
X145194400Y-82847600D01*
G37*
G36*
X147394400Y-82847600D02*
G01*
X145788000Y-82847600D01*
X145788000Y-81541200D01*
X147394400Y-81541200D01*
X147394400Y-82847600D01*
G37*
G36*
X152050400Y-82847600D02*
G01*
X150444000Y-82847600D01*
X150444000Y-81541200D01*
X152050400Y-81541200D01*
X152050400Y-82847600D01*
G37*
G36*
X106672800Y-82761200D02*
G01*
X105366400Y-82761200D01*
X105366400Y-81154800D01*
X106672800Y-81154800D01*
X106672800Y-82761200D01*
G37*
G36*
X119666400Y-82725200D02*
G01*
X116960000Y-82725200D01*
X116960000Y-78818800D01*
X119666400Y-78818800D01*
X119666400Y-82725200D01*
G37*
G36*
X136898800Y-82677200D02*
G01*
X135592400Y-82677200D01*
X135592400Y-81070800D01*
X136898800Y-81070800D01*
X136898800Y-82677200D01*
G37*
G36*
X77373155Y-80563478D02*
G01*
X77522537Y-80593191D01*
X77587424Y-80620069D01*
X77698194Y-80665951D01*
X77856279Y-80771580D01*
X77990720Y-80906021D01*
X78096349Y-81064106D01*
X78142231Y-81174876D01*
X78169109Y-81239763D01*
X78206200Y-81426237D01*
X78206200Y-81616363D01*
X78169109Y-81802837D01*
X78142231Y-81867724D01*
X78096349Y-81978494D01*
X77990720Y-82136579D01*
X77856279Y-82271020D01*
X77698194Y-82376649D01*
X77587424Y-82422531D01*
X77522537Y-82449409D01*
X77373155Y-82479122D01*
X77336064Y-82486500D01*
X77145936Y-82486500D01*
X77108845Y-82479122D01*
X76959463Y-82449409D01*
X76894576Y-82422531D01*
X76783806Y-82376649D01*
X76625721Y-82271020D01*
X76491280Y-82136579D01*
X76385651Y-81978494D01*
X76339769Y-81867724D01*
X76312891Y-81802837D01*
X76275800Y-81616363D01*
X76275800Y-81426237D01*
X76312891Y-81239763D01*
X76339769Y-81174876D01*
X76385651Y-81064106D01*
X76491280Y-80906021D01*
X76625721Y-80771580D01*
X76783806Y-80665951D01*
X76894576Y-80620069D01*
X76959463Y-80593191D01*
X77108845Y-80563478D01*
X77145936Y-80556100D01*
X77336064Y-80556100D01*
X77373155Y-80563478D01*
G37*
G36*
X166661200Y-81520400D02*
G01*
X164554800Y-81520400D01*
X164554800Y-79414000D01*
X166661200Y-79414000D01*
X166661200Y-81520400D01*
G37*
G36*
X106812155Y-78036178D02*
G01*
X106961537Y-78065891D01*
X107026424Y-78092769D01*
X107137194Y-78138651D01*
X107295279Y-78244280D01*
X107429720Y-78378721D01*
X107535349Y-78536806D01*
X107581231Y-78647576D01*
X107608109Y-78712463D01*
X107645200Y-78898937D01*
X107645200Y-79089063D01*
X107608109Y-79275537D01*
X107581231Y-79340424D01*
X107535349Y-79451194D01*
X107429720Y-79609279D01*
X107295279Y-79743720D01*
X107137194Y-79849349D01*
X107026424Y-79895231D01*
X106961537Y-79922109D01*
X106812155Y-79951822D01*
X106775064Y-79959200D01*
X106584936Y-79959200D01*
X106547845Y-79951822D01*
X106398463Y-79922109D01*
X106333576Y-79895231D01*
X106222806Y-79849349D01*
X106064721Y-79743720D01*
X105930280Y-79609279D01*
X105824651Y-79451194D01*
X105778769Y-79340424D01*
X105751891Y-79275537D01*
X105714800Y-79089063D01*
X105714800Y-78898937D01*
X105751891Y-78712463D01*
X105778769Y-78647576D01*
X105824651Y-78536806D01*
X105930280Y-78378721D01*
X106064721Y-78244280D01*
X106222806Y-78138651D01*
X106333576Y-78092769D01*
X106398463Y-78065891D01*
X106547845Y-78036178D01*
X106584936Y-78028800D01*
X106775064Y-78028800D01*
X106812155Y-78036178D01*
G37*
G36*
X111892155Y-78036178D02*
G01*
X112041537Y-78065891D01*
X112106424Y-78092769D01*
X112217194Y-78138651D01*
X112375279Y-78244280D01*
X112509720Y-78378721D01*
X112615349Y-78536806D01*
X112661231Y-78647576D01*
X112688109Y-78712463D01*
X112725200Y-78898937D01*
X112725200Y-79089063D01*
X112688109Y-79275537D01*
X112661231Y-79340424D01*
X112615349Y-79451194D01*
X112509720Y-79609279D01*
X112375279Y-79743720D01*
X112217194Y-79849349D01*
X112106424Y-79895231D01*
X112041537Y-79922109D01*
X111892155Y-79951822D01*
X111855064Y-79959200D01*
X111664936Y-79959200D01*
X111627845Y-79951822D01*
X111478463Y-79922109D01*
X111413576Y-79895231D01*
X111302806Y-79849349D01*
X111144721Y-79743720D01*
X111010280Y-79609279D01*
X110904651Y-79451194D01*
X110858769Y-79340424D01*
X110831891Y-79275537D01*
X110794800Y-79089063D01*
X110794800Y-78898937D01*
X110831891Y-78712463D01*
X110858769Y-78647576D01*
X110904651Y-78536806D01*
X111010280Y-78378721D01*
X111144721Y-78244280D01*
X111302806Y-78138651D01*
X111413576Y-78092769D01*
X111478463Y-78065891D01*
X111627845Y-78036178D01*
X111664936Y-78028800D01*
X111855064Y-78028800D01*
X111892155Y-78036178D01*
G37*
G36*
X149288400Y-79883600D02*
G01*
X147282000Y-79883600D01*
X147282000Y-76377200D01*
X149288400Y-76377200D01*
X149288400Y-79883600D01*
G37*
G36*
X146748400Y-79883600D02*
G01*
X144742000Y-79883600D01*
X144742000Y-76377200D01*
X146748400Y-76377200D01*
X146748400Y-79883600D01*
G37*
G36*
X144208400Y-79883600D02*
G01*
X142202000Y-79883600D01*
X142202000Y-76377200D01*
X144208400Y-76377200D01*
X144208400Y-79883600D01*
G37*
G36*
X138931600Y-78478800D02*
G01*
X137725200Y-78478800D01*
X137725200Y-77172400D01*
X138931600Y-77172400D01*
X138931600Y-78478800D01*
G37*
G36*
X101987905Y-75749113D02*
G01*
X102198229Y-75836232D01*
X102387516Y-75962709D01*
X102548491Y-76123684D01*
X102674968Y-76312971D01*
X102762087Y-76523295D01*
X102806500Y-76746573D01*
X102806500Y-76974227D01*
X102762087Y-77197505D01*
X102674968Y-77407829D01*
X102548491Y-77597116D01*
X102387516Y-77758091D01*
X102198229Y-77884568D01*
X101987905Y-77971687D01*
X101764627Y-78016100D01*
X101536973Y-78016100D01*
X101313695Y-77971687D01*
X101103371Y-77884568D01*
X100914084Y-77758091D01*
X100753109Y-77597116D01*
X100626632Y-77407829D01*
X100539513Y-77197505D01*
X100495100Y-76974227D01*
X100495100Y-76746573D01*
X100539513Y-76523295D01*
X100626632Y-76312971D01*
X100753109Y-76123684D01*
X100914084Y-75962709D01*
X101103371Y-75836232D01*
X101313695Y-75749113D01*
X101536973Y-75704700D01*
X101764627Y-75704700D01*
X101987905Y-75749113D01*
G37*
G36*
X91269105Y-75749113D02*
G01*
X91479429Y-75836232D01*
X91668716Y-75962709D01*
X91829691Y-76123684D01*
X91956168Y-76312971D01*
X92043287Y-76523295D01*
X92087700Y-76746573D01*
X92087700Y-76974227D01*
X92043287Y-77197505D01*
X91956168Y-77407829D01*
X91829691Y-77597116D01*
X91668716Y-77758091D01*
X91479429Y-77884568D01*
X91269105Y-77971687D01*
X91045827Y-78016100D01*
X90818173Y-78016100D01*
X90594895Y-77971687D01*
X90384571Y-77884568D01*
X90195284Y-77758091D01*
X90034309Y-77597116D01*
X89907832Y-77407829D01*
X89820713Y-77197505D01*
X89776300Y-76974227D01*
X89776300Y-76746573D01*
X89820713Y-76523295D01*
X89907832Y-76312971D01*
X90034309Y-76123684D01*
X90195284Y-75962709D01*
X90384571Y-75836232D01*
X90594895Y-75749113D01*
X90818173Y-75704700D01*
X91045827Y-75704700D01*
X91269105Y-75749113D01*
G37*
G36*
X135570800Y-76792400D02*
G01*
X133364400Y-76792400D01*
X133364400Y-72886000D01*
X135570800Y-72886000D01*
X135570800Y-76792400D01*
G37*
G36*
X130090000Y-76738200D02*
G01*
X128583600Y-76738200D01*
X128583600Y-71731800D01*
X130090000Y-71731800D01*
X130090000Y-76738200D01*
G37*
G36*
X125010000Y-76738200D02*
G01*
X123503600Y-76738200D01*
X123503600Y-71731800D01*
X125010000Y-71731800D01*
X125010000Y-76738200D01*
G37*
G36*
X137981600Y-76478800D02*
G01*
X136775200Y-76478800D01*
X136775200Y-75172400D01*
X137981600Y-75172400D01*
X137981600Y-76478800D01*
G37*
G36*
X139881600Y-76478800D02*
G01*
X138675200Y-76478800D01*
X138675200Y-75172400D01*
X139881600Y-75172400D01*
X139881600Y-76478800D01*
G37*
G36*
X122724200Y-76225200D02*
G01*
X119617800Y-76225200D01*
X119617800Y-72618800D01*
X122724200Y-72618800D01*
X122724200Y-76225200D01*
G37*
G36*
X114824200Y-76225200D02*
G01*
X111717800Y-76225200D01*
X111717800Y-72618800D01*
X114824200Y-72618800D01*
X114824200Y-76225200D01*
G37*
G36*
X138943155Y-72702178D02*
G01*
X139092537Y-72731891D01*
X139157424Y-72758769D01*
X139268194Y-72804651D01*
X139426279Y-72910280D01*
X139560720Y-73044721D01*
X139666349Y-73202806D01*
X139695072Y-73272150D01*
X139739109Y-73378463D01*
X139764395Y-73505586D01*
X139776200Y-73564936D01*
X139776200Y-73755064D01*
X139768822Y-73792155D01*
X139739109Y-73941537D01*
X139712231Y-74006424D01*
X139666349Y-74117194D01*
X139560720Y-74275279D01*
X139426279Y-74409720D01*
X139268194Y-74515349D01*
X139157424Y-74561231D01*
X139092537Y-74588109D01*
X138943155Y-74617822D01*
X138906064Y-74625200D01*
X138715936Y-74625200D01*
X138678845Y-74617822D01*
X138529463Y-74588109D01*
X138464576Y-74561231D01*
X138353806Y-74515349D01*
X138195721Y-74409720D01*
X138061280Y-74275279D01*
X137955651Y-74117194D01*
X137909769Y-74006424D01*
X137882891Y-73941537D01*
X137853178Y-73792155D01*
X137845800Y-73755064D01*
X137845800Y-73564936D01*
X137857605Y-73505586D01*
X137882891Y-73378463D01*
X137926928Y-73272150D01*
X137955651Y-73202806D01*
X138061280Y-73044721D01*
X138195721Y-72910280D01*
X138353806Y-72804651D01*
X138464576Y-72758769D01*
X138529463Y-72731891D01*
X138678845Y-72702178D01*
X138715936Y-72694800D01*
X138906064Y-72694800D01*
X138943155Y-72702178D01*
G37*
G36*
X85644061Y-72289833D02*
G01*
X85831272Y-72367378D01*
X85999758Y-72479957D01*
X86143043Y-72623242D01*
X86255622Y-72791728D01*
X86333167Y-72978939D01*
X86372700Y-73177682D01*
X86372700Y-73380318D01*
X86333167Y-73579061D01*
X86255622Y-73766272D01*
X86143043Y-73934758D01*
X85999758Y-74078043D01*
X85831272Y-74190622D01*
X85644061Y-74268167D01*
X85445318Y-74307700D01*
X85242682Y-74307700D01*
X85043939Y-74268167D01*
X84856728Y-74190622D01*
X84688242Y-74078043D01*
X84544957Y-73934758D01*
X84432378Y-73766272D01*
X84354833Y-73579061D01*
X84315300Y-73380318D01*
X84315300Y-73177682D01*
X84354833Y-72978939D01*
X84432378Y-72791728D01*
X84544957Y-72623242D01*
X84688242Y-72479957D01*
X84856728Y-72367378D01*
X85043939Y-72289833D01*
X85242682Y-72250300D01*
X85445318Y-72250300D01*
X85644061Y-72289833D01*
G37*
G36*
X107054150Y-71664594D02*
G01*
X107287586Y-71761286D01*
X107497674Y-71901662D01*
X107676338Y-72080326D01*
X107789911Y-72250300D01*
X107816714Y-72290414D01*
X107913406Y-72523850D01*
X107962700Y-72771665D01*
X107962700Y-73024335D01*
X107913406Y-73272150D01*
X107816714Y-73505586D01*
X107676338Y-73715674D01*
X107497674Y-73894338D01*
X107287586Y-74034714D01*
X107054150Y-74131406D01*
X106806335Y-74180700D01*
X106553665Y-74180700D01*
X106305850Y-74131406D01*
X106072414Y-74034714D01*
X105862326Y-73894338D01*
X105683662Y-73715674D01*
X105543286Y-73505586D01*
X105446594Y-73272150D01*
X105397300Y-73024335D01*
X105397300Y-72771665D01*
X105446594Y-72523850D01*
X105543286Y-72290414D01*
X105570089Y-72250300D01*
X105683662Y-72080326D01*
X105862326Y-71901662D01*
X106072414Y-71761286D01*
X106305850Y-71664594D01*
X106553665Y-71615300D01*
X106806335Y-71615300D01*
X107054150Y-71664594D01*
G37*
G36*
X135570800Y-71792400D02*
G01*
X133364400Y-71792400D01*
X133364400Y-67886000D01*
X135570800Y-67886000D01*
X135570800Y-71792400D01*
G37*
G36*
X120564200Y-71138200D02*
G01*
X118957800Y-71138200D01*
X118957800Y-69831800D01*
X120564200Y-69831800D01*
X120564200Y-71138200D01*
G37*
G36*
X118364200Y-71138200D02*
G01*
X116757800Y-71138200D01*
X116757800Y-69831800D01*
X118364200Y-69831800D01*
X118364200Y-71138200D01*
G37*
G36*
X130140000Y-71112800D02*
G01*
X128533600Y-71112800D01*
X128533600Y-69806400D01*
X130140000Y-69806400D01*
X130140000Y-71112800D01*
G37*
G36*
X127940000Y-71112800D02*
G01*
X126333600Y-71112800D01*
X126333600Y-69806400D01*
X127940000Y-69806400D01*
X127940000Y-71112800D01*
G37*
G36*
X144208400Y-70993599D02*
G01*
X142202000Y-70993599D01*
X142202000Y-67487201D01*
X144208400Y-67487201D01*
X144208400Y-70993599D01*
G37*
G36*
X149288400Y-70993599D02*
G01*
X147282000Y-70993599D01*
X147282000Y-67487201D01*
X149288400Y-67487201D01*
X149288400Y-70993599D01*
G37*
G36*
X146748400Y-70993599D02*
G01*
X144742000Y-70993599D01*
X144742000Y-67487201D01*
X146748400Y-67487201D01*
X146748400Y-70993599D01*
G37*
G36*
X101987905Y-68230713D02*
G01*
X102198229Y-68317832D01*
X102387516Y-68444309D01*
X102548491Y-68605284D01*
X102674968Y-68794571D01*
X102762087Y-69004895D01*
X102806500Y-69228173D01*
X102806500Y-69455827D01*
X102762087Y-69679105D01*
X102674968Y-69889429D01*
X102548491Y-70078716D01*
X102387516Y-70239691D01*
X102198229Y-70366168D01*
X101987905Y-70453287D01*
X101764627Y-70497700D01*
X101536973Y-70497700D01*
X101313695Y-70453287D01*
X101103371Y-70366168D01*
X100914084Y-70239691D01*
X100753109Y-70078716D01*
X100626632Y-69889429D01*
X100539513Y-69679105D01*
X100495100Y-69455827D01*
X100495100Y-69228173D01*
X100539513Y-69004895D01*
X100626632Y-68794571D01*
X100753109Y-68605284D01*
X100914084Y-68444309D01*
X101103371Y-68317832D01*
X101313695Y-68230713D01*
X101536973Y-68186300D01*
X101764627Y-68186300D01*
X101987905Y-68230713D01*
G37*
G36*
X91269105Y-68230713D02*
G01*
X91479429Y-68317832D01*
X91668716Y-68444309D01*
X91829691Y-68605284D01*
X91956168Y-68794571D01*
X92043287Y-69004895D01*
X92087700Y-69228173D01*
X92087700Y-69455827D01*
X92043287Y-69679105D01*
X91956168Y-69889429D01*
X91829691Y-70078716D01*
X91668716Y-70239691D01*
X91479429Y-70366168D01*
X91269105Y-70453287D01*
X91045827Y-70497700D01*
X90818173Y-70497700D01*
X90594895Y-70453287D01*
X90384571Y-70366168D01*
X90195284Y-70239691D01*
X90034309Y-70078716D01*
X89907832Y-69889429D01*
X89820713Y-69679105D01*
X89776300Y-69455827D01*
X89776300Y-69228173D01*
X89820713Y-69004895D01*
X89907832Y-68794571D01*
X90034309Y-68605284D01*
X90195284Y-68444309D01*
X90384571Y-68317832D01*
X90594895Y-68230713D01*
X90818173Y-68186300D01*
X91045827Y-68186300D01*
X91269105Y-68230713D01*
G37*
G36*
X80719711Y-66610061D02*
G01*
X80947716Y-66655413D01*
X81215822Y-66766467D01*
X81215823Y-66766468D01*
X81457111Y-66927691D01*
X81662309Y-67132889D01*
X81714109Y-67210414D01*
X81823533Y-67374178D01*
X81826027Y-67380200D01*
X81934587Y-67642284D01*
X81971981Y-67830280D01*
X81991200Y-67926902D01*
X81991200Y-68217098D01*
X81979939Y-68273711D01*
X81934587Y-68501716D01*
X81891687Y-68605284D01*
X81823533Y-68769822D01*
X81823532Y-68769823D01*
X81662309Y-69011111D01*
X81457111Y-69216309D01*
X81295887Y-69324035D01*
X81215822Y-69377533D01*
X81081770Y-69433059D01*
X80947716Y-69488587D01*
X80719711Y-69533939D01*
X80663098Y-69545200D01*
X80372902Y-69545200D01*
X80316289Y-69533939D01*
X80088284Y-69488587D01*
X79954230Y-69433059D01*
X79820178Y-69377533D01*
X79740113Y-69324035D01*
X79578889Y-69216309D01*
X79373691Y-69011111D01*
X79212468Y-68769823D01*
X79212467Y-68769822D01*
X79144313Y-68605284D01*
X79101413Y-68501716D01*
X79056061Y-68273711D01*
X79044800Y-68217098D01*
X79044800Y-67926902D01*
X79064019Y-67830280D01*
X79101413Y-67642284D01*
X79209973Y-67380200D01*
X79212467Y-67374178D01*
X79321891Y-67210414D01*
X79373691Y-67132889D01*
X79578889Y-66927691D01*
X79820177Y-66766468D01*
X79820178Y-66766467D01*
X80088284Y-66655413D01*
X80316289Y-66610061D01*
X80372902Y-66598800D01*
X80663098Y-66598800D01*
X80719711Y-66610061D01*
G37*
G36*
X138943155Y-67622178D02*
G01*
X139092537Y-67651891D01*
X139157424Y-67678769D01*
X139268194Y-67724651D01*
X139426279Y-67830280D01*
X139560720Y-67964721D01*
X139666349Y-68122806D01*
X139705406Y-68217098D01*
X139739109Y-68298463D01*
X139776200Y-68484937D01*
X139776200Y-68675063D01*
X139739109Y-68861537D01*
X139712231Y-68926424D01*
X139666349Y-69037194D01*
X139560720Y-69195279D01*
X139426279Y-69329720D01*
X139268194Y-69435349D01*
X139157424Y-69481231D01*
X139092537Y-69508109D01*
X138943155Y-69537822D01*
X138906064Y-69545200D01*
X138715936Y-69545200D01*
X138678845Y-69537822D01*
X138529463Y-69508109D01*
X138464576Y-69481231D01*
X138353806Y-69435349D01*
X138195721Y-69329720D01*
X138061280Y-69195279D01*
X137955651Y-69037194D01*
X137909769Y-68926424D01*
X137882891Y-68861537D01*
X137845800Y-68675063D01*
X137845800Y-68484937D01*
X137882891Y-68298463D01*
X137916594Y-68217098D01*
X137955651Y-68122806D01*
X138061280Y-67964721D01*
X138195721Y-67830280D01*
X138353806Y-67724651D01*
X138464576Y-67678769D01*
X138529463Y-67651891D01*
X138678845Y-67622178D01*
X138715936Y-67614800D01*
X138906064Y-67614800D01*
X138943155Y-67622178D01*
G37*
G36*
X118537200Y-69158200D02*
G01*
X116930800Y-69158200D01*
X116930800Y-68001800D01*
X118537200Y-68001800D01*
X118537200Y-69158200D01*
G37*
G36*
X120437200Y-69158200D02*
G01*
X118830800Y-69158200D01*
X118830800Y-68001800D01*
X120437200Y-68001800D01*
X120437200Y-69158200D01*
G37*
G36*
X107054150Y-66584594D02*
G01*
X107287586Y-66681286D01*
X107497674Y-66821662D01*
X107676338Y-67000326D01*
X107764914Y-67132890D01*
X107816714Y-67210414D01*
X107913406Y-67443850D01*
X107962700Y-67691665D01*
X107962700Y-67944335D01*
X107914570Y-68186300D01*
X107913406Y-68192150D01*
X107816714Y-68425586D01*
X107676338Y-68635674D01*
X107497674Y-68814338D01*
X107287586Y-68954714D01*
X107054150Y-69051406D01*
X106806335Y-69100700D01*
X106553665Y-69100700D01*
X106305850Y-69051406D01*
X106072414Y-68954714D01*
X105862326Y-68814338D01*
X105683662Y-68635674D01*
X105543286Y-68425586D01*
X105446594Y-68192150D01*
X105445430Y-68186300D01*
X105397300Y-67944335D01*
X105397300Y-67691665D01*
X105446594Y-67443850D01*
X105543286Y-67210414D01*
X105595086Y-67132890D01*
X105683662Y-67000326D01*
X105862326Y-66821662D01*
X106072414Y-66681286D01*
X106305850Y-66584594D01*
X106553665Y-66535300D01*
X106806335Y-66535300D01*
X107054150Y-66584594D01*
G37*
G36*
X124948200Y-67888200D02*
G01*
X123341800Y-67888200D01*
X123341800Y-66731800D01*
X124948200Y-66731800D01*
X124948200Y-67888200D01*
G37*
G36*
X126848200Y-67888200D02*
G01*
X125241800Y-67888200D01*
X125241800Y-66731800D01*
X126848200Y-66731800D01*
X126848200Y-67888200D01*
G37*
G36*
X120432200Y-67380200D02*
G01*
X118825800Y-67380200D01*
X118825800Y-66223800D01*
X120432200Y-66223800D01*
X120432200Y-67380200D01*
G37*
G36*
X118532200Y-67380200D02*
G01*
X116925800Y-67380200D01*
X116925800Y-66223800D01*
X118532200Y-66223800D01*
X118532200Y-67380200D01*
G37*
G36*
X115219900Y-66960400D02*
G01*
X113913500Y-66960400D01*
X113913500Y-65354000D01*
X115219900Y-65354000D01*
X115219900Y-66960400D01*
G37*
G36*
X148938400Y-66868600D02*
G01*
X147632000Y-66868600D01*
X147632000Y-65262200D01*
X148938400Y-65262200D01*
X148938400Y-66868600D01*
G37*
G36*
X129845000Y-66490000D02*
G01*
X128238600Y-66490000D01*
X128238600Y-65183600D01*
X129845000Y-65183600D01*
X129845000Y-66490000D01*
G37*
G36*
X132045000Y-66490000D02*
G01*
X130438600Y-66490000D01*
X130438600Y-65183600D01*
X132045000Y-65183600D01*
X132045000Y-66490000D01*
G37*
G36*
X125939900Y-66279400D02*
G01*
X124783500Y-66279400D01*
X124783500Y-64673000D01*
X125939900Y-64673000D01*
X125939900Y-66279400D01*
G37*
G36*
X144041600Y-65931200D02*
G01*
X142435200Y-65931200D01*
X142435200Y-64624800D01*
X144041600Y-64624800D01*
X144041600Y-65931200D01*
G37*
G36*
X141841600Y-65931200D02*
G01*
X140235200Y-65931200D01*
X140235200Y-64624800D01*
X141841600Y-64624800D01*
X141841600Y-65931200D01*
G37*
G36*
X80691251Y-62794400D02*
G01*
X80947716Y-62845413D01*
X81028859Y-62879024D01*
X81215822Y-62956467D01*
X81215823Y-62956468D01*
X81457111Y-63117691D01*
X81662309Y-63322889D01*
X81699817Y-63379024D01*
X81823533Y-63564178D01*
X81857191Y-63645436D01*
X81934587Y-63832284D01*
X81969332Y-64006964D01*
X81991200Y-64116902D01*
X81991200Y-64407098D01*
X81984841Y-64439067D01*
X81934587Y-64691716D01*
X81823533Y-64959822D01*
X81823532Y-64959823D01*
X81662309Y-65201111D01*
X81457111Y-65406309D01*
X81295887Y-65514035D01*
X81215822Y-65567533D01*
X80947716Y-65678587D01*
X80719711Y-65723939D01*
X80663098Y-65735200D01*
X80372902Y-65735200D01*
X80316289Y-65723939D01*
X80088284Y-65678587D01*
X79820178Y-65567533D01*
X79740113Y-65514035D01*
X79578889Y-65406309D01*
X79373691Y-65201111D01*
X79212468Y-64959823D01*
X79212467Y-64959822D01*
X79101413Y-64691716D01*
X79051159Y-64439067D01*
X79044800Y-64407098D01*
X79044800Y-64116902D01*
X79066668Y-64006964D01*
X79101413Y-63832284D01*
X79178809Y-63645436D01*
X79212467Y-63564178D01*
X79336183Y-63379024D01*
X79373691Y-63322889D01*
X79578889Y-63117691D01*
X79820177Y-62956468D01*
X79820178Y-62956467D01*
X80007141Y-62879024D01*
X80088284Y-62845413D01*
X80344749Y-62794400D01*
X80372902Y-62788800D01*
X80663098Y-62788800D01*
X80691251Y-62794400D01*
G37*
G36*
X122912145Y-61276556D02*
G01*
X122927939Y-61278111D01*
X122967886Y-61290229D01*
X122994519Y-61298308D01*
X123055879Y-61331106D01*
X123109659Y-61375241D01*
X123153794Y-61429021D01*
X123186592Y-61490381D01*
X123190903Y-61504594D01*
X123206789Y-61556961D01*
X123206789Y-61556964D01*
X123211900Y-61608852D01*
X123211900Y-62096001D01*
X123214340Y-62120777D01*
X123221567Y-62144601D01*
X123233303Y-62166558D01*
X123249097Y-62185803D01*
X123268342Y-62201597D01*
X123290299Y-62213333D01*
X123314123Y-62220560D01*
X123338899Y-62223000D01*
X123826049Y-62223000D01*
X123860640Y-62226407D01*
X123877939Y-62228111D01*
X123917886Y-62240229D01*
X123944519Y-62248308D01*
X124005879Y-62281106D01*
X124059659Y-62325241D01*
X124103794Y-62379021D01*
X124136592Y-62440381D01*
X124144671Y-62467014D01*
X124156789Y-62506961D01*
X124156789Y-62506964D01*
X124163609Y-62576200D01*
X124160115Y-62611666D01*
X124156789Y-62645439D01*
X124144671Y-62685386D01*
X124136592Y-62712019D01*
X124107560Y-62766333D01*
X124098033Y-62789334D01*
X124093176Y-62813751D01*
X124093175Y-62838648D01*
X124098032Y-62863065D01*
X124107560Y-62886067D01*
X124136592Y-62940381D01*
X124141471Y-62956467D01*
X124156789Y-63006961D01*
X124156789Y-63006964D01*
X124163609Y-63076200D01*
X124159522Y-63117691D01*
X124156789Y-63145439D01*
X124144671Y-63185386D01*
X124136592Y-63212019D01*
X124107560Y-63266333D01*
X124098033Y-63289334D01*
X124093176Y-63313751D01*
X124093175Y-63338648D01*
X124098032Y-63363065D01*
X124107560Y-63386067D01*
X124136592Y-63440381D01*
X124144671Y-63467014D01*
X124156789Y-63506961D01*
X124156789Y-63506964D01*
X124163609Y-63576200D01*
X124158344Y-63629645D01*
X124156789Y-63645439D01*
X124144671Y-63685386D01*
X124136592Y-63712019D01*
X124107560Y-63766333D01*
X124098033Y-63789334D01*
X124093176Y-63813751D01*
X124093175Y-63838648D01*
X124098032Y-63863065D01*
X124107560Y-63886067D01*
X124136592Y-63940381D01*
X124144671Y-63967014D01*
X124156789Y-64006961D01*
X124156789Y-64006964D01*
X124163609Y-64076200D01*
X124158344Y-64129645D01*
X124156789Y-64145439D01*
X124144671Y-64185386D01*
X124136592Y-64212019D01*
X124103794Y-64273379D01*
X124059659Y-64327159D01*
X124005879Y-64371294D01*
X123944519Y-64404092D01*
X123917886Y-64412171D01*
X123877939Y-64424289D01*
X123860640Y-64425993D01*
X123826049Y-64429400D01*
X123338899Y-64429400D01*
X123314123Y-64431840D01*
X123290299Y-64439067D01*
X123268342Y-64450803D01*
X123249097Y-64466597D01*
X123233303Y-64485842D01*
X123221567Y-64507799D01*
X123214340Y-64531623D01*
X123211900Y-64556399D01*
X123211900Y-65043549D01*
X123208493Y-65078140D01*
X123206789Y-65095439D01*
X123194671Y-65135386D01*
X123186592Y-65162019D01*
X123153794Y-65223379D01*
X123109659Y-65277159D01*
X123055878Y-65321295D01*
X122994521Y-65354091D01*
X122970404Y-65361406D01*
X122927938Y-65374289D01*
X122912144Y-65375844D01*
X122858700Y-65381109D01*
X122805255Y-65375844D01*
X122789461Y-65374289D01*
X122749514Y-65362171D01*
X122722881Y-65354092D01*
X122668567Y-65325060D01*
X122645566Y-65315533D01*
X122621149Y-65310676D01*
X122596252Y-65310675D01*
X122571835Y-65315532D01*
X122548833Y-65325060D01*
X122494518Y-65354092D01*
X122467885Y-65362171D01*
X122427938Y-65374289D01*
X122412144Y-65375844D01*
X122358700Y-65381109D01*
X122305255Y-65375844D01*
X122289461Y-65374289D01*
X122249514Y-65362171D01*
X122222881Y-65354092D01*
X122168567Y-65325060D01*
X122145566Y-65315533D01*
X122121149Y-65310676D01*
X122096252Y-65310675D01*
X122071835Y-65315532D01*
X122048833Y-65325060D01*
X121994518Y-65354092D01*
X121967885Y-65362171D01*
X121927938Y-65374289D01*
X121912144Y-65375844D01*
X121858700Y-65381109D01*
X121805255Y-65375844D01*
X121789461Y-65374289D01*
X121749514Y-65362171D01*
X121722881Y-65354092D01*
X121668567Y-65325060D01*
X121645566Y-65315533D01*
X121621149Y-65310676D01*
X121596252Y-65310675D01*
X121571835Y-65315532D01*
X121548833Y-65325060D01*
X121494518Y-65354092D01*
X121467885Y-65362171D01*
X121427938Y-65374289D01*
X121412144Y-65375844D01*
X121358700Y-65381109D01*
X121305255Y-65375844D01*
X121289461Y-65374289D01*
X121249514Y-65362171D01*
X121222881Y-65354092D01*
X121161521Y-65321294D01*
X121107741Y-65277159D01*
X121063605Y-65223378D01*
X121030809Y-65162021D01*
X121023494Y-65137904D01*
X121010611Y-65095438D01*
X121008907Y-65078139D01*
X121005500Y-65043548D01*
X121005500Y-64556399D01*
X121003060Y-64531623D01*
X120995833Y-64507799D01*
X120984097Y-64485842D01*
X120968303Y-64466597D01*
X120949058Y-64450803D01*
X120927101Y-64439067D01*
X120903277Y-64431840D01*
X120878501Y-64429400D01*
X120391351Y-64429400D01*
X120356760Y-64425993D01*
X120339461Y-64424289D01*
X120299514Y-64412171D01*
X120272881Y-64404092D01*
X120211521Y-64371294D01*
X120157741Y-64327159D01*
X120113606Y-64273379D01*
X120080808Y-64212019D01*
X120072729Y-64185386D01*
X120060611Y-64145439D01*
X120059056Y-64129645D01*
X120053791Y-64076200D01*
X120060611Y-64006964D01*
X120060611Y-64006961D01*
X120072729Y-63967014D01*
X120080808Y-63940381D01*
X120109840Y-63886067D01*
X120119367Y-63863066D01*
X120124224Y-63838649D01*
X120124225Y-63813752D01*
X120119368Y-63789335D01*
X120109840Y-63766333D01*
X120080808Y-63712019D01*
X120072729Y-63685386D01*
X120060611Y-63645439D01*
X120059056Y-63629645D01*
X120053791Y-63576200D01*
X120060611Y-63506964D01*
X120060611Y-63506961D01*
X120072729Y-63467014D01*
X120080808Y-63440381D01*
X120109840Y-63386067D01*
X120119367Y-63363066D01*
X120124224Y-63338649D01*
X120124225Y-63313752D01*
X120119368Y-63289335D01*
X120109840Y-63266333D01*
X120080808Y-63212019D01*
X120072729Y-63185386D01*
X120060611Y-63145439D01*
X120057878Y-63117691D01*
X120053791Y-63076200D01*
X120060611Y-63006964D01*
X120060611Y-63006961D01*
X120075929Y-62956467D01*
X120080808Y-62940381D01*
X120109840Y-62886067D01*
X120119367Y-62863066D01*
X120124224Y-62838649D01*
X120124225Y-62813752D01*
X120119368Y-62789335D01*
X120109840Y-62766333D01*
X120080808Y-62712019D01*
X120072729Y-62685386D01*
X120060611Y-62645439D01*
X120057285Y-62611666D01*
X120053791Y-62576200D01*
X120060611Y-62506964D01*
X120060611Y-62506961D01*
X120072729Y-62467014D01*
X120080808Y-62440381D01*
X120113606Y-62379021D01*
X120157741Y-62325241D01*
X120211521Y-62281106D01*
X120272881Y-62248308D01*
X120299514Y-62240229D01*
X120339461Y-62228111D01*
X120356760Y-62226407D01*
X120391351Y-62223000D01*
X120878501Y-62223000D01*
X120903277Y-62220560D01*
X120927101Y-62213333D01*
X120949058Y-62201597D01*
X120968303Y-62185803D01*
X120984097Y-62166558D01*
X120995833Y-62144601D01*
X121003060Y-62120777D01*
X121005500Y-62096001D01*
X121005500Y-61608854D01*
X121010612Y-61556964D01*
X121010612Y-61556961D01*
X121026498Y-61504594D01*
X121030809Y-61490381D01*
X121063607Y-61429021D01*
X121107742Y-61375241D01*
X121161522Y-61331106D01*
X121222882Y-61298308D01*
X121249515Y-61290229D01*
X121289462Y-61278111D01*
X121305256Y-61276556D01*
X121358700Y-61271291D01*
X121412145Y-61276556D01*
X121427939Y-61278111D01*
X121467886Y-61290229D01*
X121494519Y-61298308D01*
X121548834Y-61327340D01*
X121571835Y-61336868D01*
X121596253Y-61341724D01*
X121621149Y-61341724D01*
X121645567Y-61336867D01*
X121668568Y-61327340D01*
X121722882Y-61298308D01*
X121749515Y-61290229D01*
X121789462Y-61278111D01*
X121805256Y-61276556D01*
X121858700Y-61271291D01*
X121912145Y-61276556D01*
X121927939Y-61278111D01*
X121967886Y-61290229D01*
X121994519Y-61298308D01*
X122048834Y-61327340D01*
X122071835Y-61336868D01*
X122096253Y-61341724D01*
X122121149Y-61341724D01*
X122145567Y-61336867D01*
X122168568Y-61327340D01*
X122222882Y-61298308D01*
X122249515Y-61290229D01*
X122289462Y-61278111D01*
X122305256Y-61276556D01*
X122358700Y-61271291D01*
X122412145Y-61276556D01*
X122427939Y-61278111D01*
X122467886Y-61290229D01*
X122494519Y-61298308D01*
X122548834Y-61327340D01*
X122571835Y-61336868D01*
X122596253Y-61341724D01*
X122621149Y-61341724D01*
X122645567Y-61336867D01*
X122668568Y-61327340D01*
X122722882Y-61298308D01*
X122749515Y-61290229D01*
X122789462Y-61278111D01*
X122805256Y-61276556D01*
X122858700Y-61271291D01*
X122912145Y-61276556D01*
G37*
G36*
X117378900Y-64887400D02*
G01*
X116072500Y-64887400D01*
X116072500Y-63281000D01*
X117378900Y-63281000D01*
X117378900Y-64887400D01*
G37*
G36*
X115219900Y-64760400D02*
G01*
X113913500Y-64760400D01*
X113913500Y-63154000D01*
X115219900Y-63154000D01*
X115219900Y-64760400D01*
G37*
G36*
X119081900Y-64694400D02*
G01*
X117925500Y-64694400D01*
X117925500Y-63088000D01*
X119081900Y-63088000D01*
X119081900Y-64694400D01*
G37*
G36*
X148938400Y-64668600D02*
G01*
X147632000Y-64668600D01*
X147632000Y-63062200D01*
X148938400Y-63062200D01*
X148938400Y-64668600D01*
G37*
G36*
X131959000Y-64458000D02*
G01*
X130352600Y-64458000D01*
X130352600Y-63151600D01*
X131959000Y-63151600D01*
X131959000Y-64458000D01*
G37*
G36*
X129759000Y-64458000D02*
G01*
X128152600Y-64458000D01*
X128152600Y-63151600D01*
X129759000Y-63151600D01*
X129759000Y-64458000D01*
G37*
G36*
X125939900Y-64379400D02*
G01*
X124783500Y-64379400D01*
X124783500Y-62773000D01*
X125939900Y-62773000D01*
X125939900Y-64379400D01*
G37*
G36*
X106982697Y-61490381D02*
G01*
X107054150Y-61504594D01*
X107287586Y-61601286D01*
X107497674Y-61741662D01*
X107676338Y-61920326D01*
X107792077Y-62093542D01*
X107816714Y-62130414D01*
X107913406Y-62363850D01*
X107962700Y-62611665D01*
X107962700Y-62864335D01*
X107944373Y-62956468D01*
X107913406Y-63112150D01*
X107816714Y-63345586D01*
X107676338Y-63555674D01*
X107497674Y-63734338D01*
X107292703Y-63871295D01*
X107287586Y-63874714D01*
X107054150Y-63971406D01*
X106806335Y-64020700D01*
X106553665Y-64020700D01*
X106305850Y-63971406D01*
X106072414Y-63874714D01*
X106067297Y-63871295D01*
X105862326Y-63734338D01*
X105683662Y-63555674D01*
X105543286Y-63345586D01*
X105446594Y-63112150D01*
X105415627Y-62956468D01*
X105397300Y-62864335D01*
X105397300Y-62611665D01*
X105446594Y-62363850D01*
X105543286Y-62130414D01*
X105567923Y-62093542D01*
X105683662Y-61920326D01*
X105862326Y-61741662D01*
X106072414Y-61601286D01*
X106305850Y-61504594D01*
X106377303Y-61490381D01*
X106553665Y-61455300D01*
X106806335Y-61455300D01*
X106982697Y-61490381D01*
G37*
G36*
X144356200Y-63975400D02*
G01*
X142749800Y-63975400D01*
X142749800Y-62669000D01*
X144356200Y-62669000D01*
X144356200Y-63975400D01*
G37*
G36*
X146556200Y-63975400D02*
G01*
X144949800Y-63975400D01*
X144949800Y-62669000D01*
X146556200Y-62669000D01*
X146556200Y-63975400D01*
G37*
G36*
X115219900Y-62812400D02*
G01*
X113913500Y-62812400D01*
X113913500Y-61206000D01*
X115219900Y-61206000D01*
X115219900Y-62812400D01*
G37*
G36*
X119081900Y-62794400D02*
G01*
X117925500Y-62794400D01*
X117925500Y-61188000D01*
X119081900Y-61188000D01*
X119081900Y-62794400D01*
G37*
G36*
X117378900Y-62687400D02*
G01*
X116072500Y-62687400D01*
X116072500Y-61081000D01*
X117378900Y-61081000D01*
X117378900Y-62687400D01*
G37*
G36*
X131959000Y-62426000D02*
G01*
X130352600Y-62426000D01*
X130352600Y-61119600D01*
X131959000Y-61119600D01*
X131959000Y-62426000D01*
G37*
G36*
X129759000Y-62426000D02*
G01*
X128152600Y-62426000D01*
X128152600Y-61119600D01*
X129759000Y-61119600D01*
X129759000Y-62426000D01*
G37*
G36*
X125939900Y-62154400D02*
G01*
X124783500Y-62154400D01*
X124783500Y-60548000D01*
X125939900Y-60548000D01*
X125939900Y-62154400D01*
G37*
G36*
X117505900Y-60737400D02*
G01*
X116199500Y-60737400D01*
X116199500Y-59131000D01*
X117505900Y-59131000D01*
X117505900Y-60737400D01*
G37*
G36*
X120934900Y-60696400D02*
G01*
X119628500Y-60696400D01*
X119628500Y-59090000D01*
X120934900Y-59090000D01*
X120934900Y-60696400D01*
G37*
G36*
X115219900Y-60612400D02*
G01*
X113913500Y-60612400D01*
X113913500Y-59006000D01*
X115219900Y-59006000D01*
X115219900Y-60612400D01*
G37*
G36*
X122966900Y-60569400D02*
G01*
X121660500Y-60569400D01*
X121660500Y-58963000D01*
X122966900Y-58963000D01*
X122966900Y-60569400D01*
G37*
G36*
X119081900Y-60569400D02*
G01*
X117925500Y-60569400D01*
X117925500Y-58963000D01*
X119081900Y-58963000D01*
X119081900Y-60569400D01*
G37*
G36*
X129675000Y-60394000D02*
G01*
X128068600Y-60394000D01*
X128068600Y-59087600D01*
X129675000Y-59087600D01*
X129675000Y-60394000D01*
G37*
G36*
X131875000Y-60394000D02*
G01*
X130268600Y-60394000D01*
X130268600Y-59087600D01*
X131875000Y-59087600D01*
X131875000Y-60394000D01*
G37*
G36*
X125939900Y-60254400D02*
G01*
X124783500Y-60254400D01*
X124783500Y-58648000D01*
X125939900Y-58648000D01*
X125939900Y-60254400D01*
G37*
G36*
X77889073Y-54112696D02*
G01*
X78362772Y-54206920D01*
X78641279Y-54322282D01*
X78919785Y-54437643D01*
X78919786Y-54437644D01*
X79421083Y-54772599D01*
X79847401Y-55198917D01*
X79996994Y-55422800D01*
X80182357Y-55700215D01*
X80212390Y-55772721D01*
X80413080Y-56257228D01*
X80530700Y-56848548D01*
X80530700Y-57451452D01*
X80413080Y-58042772D01*
X80383079Y-58115200D01*
X80182357Y-58599785D01*
X80182356Y-58599786D01*
X79847401Y-59101083D01*
X79421083Y-59527401D01*
X79086127Y-59751211D01*
X78919785Y-59862357D01*
X78641279Y-59977718D01*
X78362772Y-60093080D01*
X77889073Y-60187304D01*
X77771453Y-60210700D01*
X77168547Y-60210700D01*
X77050927Y-60187304D01*
X76577228Y-60093080D01*
X76298721Y-59977718D01*
X76020215Y-59862357D01*
X75853873Y-59751211D01*
X75518917Y-59527401D01*
X75092599Y-59101083D01*
X74757644Y-58599786D01*
X74757643Y-58599785D01*
X74556921Y-58115200D01*
X74526920Y-58042772D01*
X74409300Y-57451452D01*
X74409300Y-56848548D01*
X74526920Y-56257228D01*
X74727610Y-55772721D01*
X74757643Y-55700215D01*
X74943006Y-55422800D01*
X75092599Y-55198917D01*
X75518917Y-54772599D01*
X76020214Y-54437644D01*
X76020215Y-54437643D01*
X76298721Y-54322282D01*
X76577228Y-54206920D01*
X77050927Y-54112696D01*
X77168547Y-54089300D01*
X77771453Y-54089300D01*
X77889073Y-54112696D01*
G37*
G36*
X163741073Y-54112696D02*
G01*
X164214772Y-54206920D01*
X164493279Y-54322282D01*
X164771785Y-54437643D01*
X164771786Y-54437644D01*
X165273083Y-54772599D01*
X165699401Y-55198917D01*
X165848994Y-55422800D01*
X166034357Y-55700215D01*
X166064390Y-55772721D01*
X166265080Y-56257228D01*
X166382700Y-56848548D01*
X166382700Y-57451452D01*
X166265080Y-58042772D01*
X166235079Y-58115200D01*
X166034357Y-58599785D01*
X166034356Y-58599786D01*
X165699401Y-59101083D01*
X165273083Y-59527401D01*
X164938127Y-59751211D01*
X164771785Y-59862357D01*
X164493279Y-59977718D01*
X164214772Y-60093080D01*
X163741073Y-60187304D01*
X163623453Y-60210700D01*
X163020547Y-60210700D01*
X162902927Y-60187304D01*
X162429228Y-60093080D01*
X162150721Y-59977718D01*
X161872215Y-59862357D01*
X161705873Y-59751211D01*
X161370917Y-59527401D01*
X160944599Y-59101083D01*
X160609644Y-58599786D01*
X160609643Y-58599785D01*
X160408921Y-58115200D01*
X160378920Y-58042772D01*
X160261300Y-57451452D01*
X160261300Y-56848548D01*
X160378920Y-56257228D01*
X160579610Y-55772721D01*
X160609643Y-55700215D01*
X160795006Y-55422800D01*
X160944599Y-55198917D01*
X161370917Y-54772599D01*
X161872214Y-54437644D01*
X161872215Y-54437643D01*
X162150721Y-54322282D01*
X162429228Y-54206920D01*
X162902927Y-54112696D01*
X163020547Y-54089300D01*
X163623453Y-54089300D01*
X163741073Y-54112696D01*
G37*
G36*
X107054150Y-56424594D02*
G01*
X107287586Y-56521286D01*
X107497674Y-56661662D01*
X107676338Y-56840326D01*
X107816714Y-57050414D01*
X107913406Y-57283850D01*
X107962700Y-57531666D01*
X107962700Y-57784334D01*
X107913406Y-58032150D01*
X107816714Y-58265586D01*
X107676338Y-58475674D01*
X107497674Y-58654338D01*
X107287586Y-58794714D01*
X107054150Y-58891406D01*
X106806335Y-58940700D01*
X106553665Y-58940700D01*
X106305850Y-58891406D01*
X106072414Y-58794714D01*
X105862326Y-58654338D01*
X105683662Y-58475674D01*
X105543286Y-58265586D01*
X105446594Y-58032150D01*
X105397300Y-57784334D01*
X105397300Y-57531666D01*
X105446594Y-57283850D01*
X105543286Y-57050414D01*
X105683662Y-56840326D01*
X105862326Y-56661662D01*
X106072414Y-56521286D01*
X106305850Y-56424594D01*
X106553665Y-56375300D01*
X106806335Y-56375300D01*
X107054150Y-56424594D01*
G37*
G36*
X119081900Y-58669400D02*
G01*
X117925500Y-58669400D01*
X117925500Y-57063000D01*
X119081900Y-57063000D01*
X119081900Y-58669400D01*
G37*
G36*
X117505900Y-58537400D02*
G01*
X116199500Y-58537400D01*
X116199500Y-56931000D01*
X117505900Y-56931000D01*
X117505900Y-58537400D01*
G37*
G36*
X120934900Y-58496400D02*
G01*
X119628500Y-58496400D01*
X119628500Y-56890000D01*
X120934900Y-56890000D01*
X120934900Y-58496400D01*
G37*
G36*
X122966900Y-58369400D02*
G01*
X121660500Y-58369400D01*
X121660500Y-56763000D01*
X122966900Y-56763000D01*
X122966900Y-58369400D01*
G37*
G36*
X129759000Y-58362000D02*
G01*
X128152600Y-58362000D01*
X128152600Y-57055600D01*
X129759000Y-57055600D01*
X129759000Y-58362000D01*
G37*
G36*
X131959000Y-58362000D02*
G01*
X130352600Y-58362000D01*
X130352600Y-57055600D01*
X131959000Y-57055600D01*
X131959000Y-58362000D01*
G37*
G36*
X93167200Y-58115200D02*
G01*
X90728800Y-58115200D01*
X90728800Y-53898800D01*
X93167200Y-53898800D01*
X93167200Y-58115200D01*
G37*
G36*
X84658200Y-58115200D02*
G01*
X82219800Y-58115200D01*
X82219800Y-53898800D01*
X84658200Y-53898800D01*
X84658200Y-58115200D01*
G37*
G36*
X100970155Y-55430178D02*
G01*
X101119537Y-55459891D01*
X101184424Y-55486769D01*
X101295194Y-55532651D01*
X101453279Y-55638280D01*
X101587720Y-55772721D01*
X101693349Y-55930806D01*
X101739231Y-56041576D01*
X101766109Y-56106463D01*
X101803200Y-56292937D01*
X101803200Y-56483063D01*
X101766109Y-56669537D01*
X101757829Y-56689526D01*
X101693349Y-56845194D01*
X101587720Y-57003279D01*
X101453279Y-57137720D01*
X101295194Y-57243349D01*
X101197416Y-57283850D01*
X101119537Y-57316109D01*
X100970155Y-57345822D01*
X100933064Y-57353200D01*
X100742936Y-57353200D01*
X100705845Y-57345822D01*
X100556463Y-57316109D01*
X100478584Y-57283850D01*
X100380806Y-57243349D01*
X100222721Y-57137720D01*
X100088280Y-57003279D01*
X99982651Y-56845194D01*
X99918171Y-56689526D01*
X99909891Y-56669537D01*
X99872800Y-56483063D01*
X99872800Y-56292937D01*
X99909891Y-56106463D01*
X99936769Y-56041576D01*
X99982651Y-55930806D01*
X100088280Y-55772721D01*
X100222721Y-55638280D01*
X100380806Y-55532651D01*
X100491576Y-55486769D01*
X100556463Y-55459891D01*
X100705845Y-55430178D01*
X100742936Y-55422800D01*
X100933064Y-55422800D01*
X100970155Y-55430178D01*
G37*
G36*
X95890155Y-55430178D02*
G01*
X96039537Y-55459891D01*
X96104424Y-55486769D01*
X96215194Y-55532651D01*
X96373279Y-55638280D01*
X96507720Y-55772721D01*
X96613349Y-55930806D01*
X96659231Y-56041576D01*
X96686109Y-56106463D01*
X96723200Y-56292937D01*
X96723200Y-56483063D01*
X96686109Y-56669537D01*
X96677829Y-56689526D01*
X96613349Y-56845194D01*
X96507720Y-57003279D01*
X96373279Y-57137720D01*
X96215194Y-57243349D01*
X96117416Y-57283850D01*
X96039537Y-57316109D01*
X95890155Y-57345822D01*
X95853064Y-57353200D01*
X95662936Y-57353200D01*
X95625845Y-57345822D01*
X95476463Y-57316109D01*
X95398584Y-57283850D01*
X95300806Y-57243349D01*
X95142721Y-57137720D01*
X95008280Y-57003279D01*
X94902651Y-56845194D01*
X94838171Y-56689526D01*
X94829891Y-56669537D01*
X94792800Y-56483063D01*
X94792800Y-56292937D01*
X94829891Y-56106463D01*
X94856769Y-56041576D01*
X94902651Y-55930806D01*
X95008280Y-55772721D01*
X95142721Y-55638280D01*
X95300806Y-55532651D01*
X95411576Y-55486769D01*
X95476463Y-55459891D01*
X95625845Y-55430178D01*
X95662936Y-55422800D01*
X95853064Y-55422800D01*
X95890155Y-55430178D01*
G37*
G36*
X146204807Y-54664074D02*
G01*
X146396477Y-54743466D01*
X146568976Y-54858726D01*
X146715674Y-55005424D01*
X146830934Y-55177923D01*
X146910326Y-55369593D01*
X146950800Y-55573069D01*
X146950800Y-55780531D01*
X146910326Y-55984007D01*
X146830934Y-56175677D01*
X146715674Y-56348176D01*
X146568976Y-56494874D01*
X146396477Y-56610134D01*
X146204807Y-56689526D01*
X146001331Y-56730000D01*
X145793869Y-56730000D01*
X145590393Y-56689526D01*
X145398723Y-56610134D01*
X145226224Y-56494874D01*
X145079526Y-56348176D01*
X144964266Y-56175677D01*
X144884874Y-55984007D01*
X144844400Y-55780531D01*
X144844400Y-55573069D01*
X144884874Y-55369593D01*
X144964266Y-55177923D01*
X145079526Y-55005424D01*
X145226224Y-54858726D01*
X145398723Y-54743466D01*
X145590393Y-54664074D01*
X145793869Y-54623600D01*
X146001331Y-54623600D01*
X146204807Y-54664074D01*
G37*
G36*
X143664807Y-54664074D02*
G01*
X143856477Y-54743466D01*
X144028976Y-54858726D01*
X144175674Y-55005424D01*
X144290934Y-55177923D01*
X144370326Y-55369593D01*
X144410800Y-55573069D01*
X144410800Y-55780531D01*
X144370326Y-55984007D01*
X144290934Y-56175677D01*
X144175674Y-56348176D01*
X144028976Y-56494874D01*
X143856477Y-56610134D01*
X143664807Y-56689526D01*
X143461331Y-56730000D01*
X143253869Y-56730000D01*
X143050393Y-56689526D01*
X142858723Y-56610134D01*
X142686224Y-56494874D01*
X142539526Y-56348176D01*
X142424266Y-56175677D01*
X142344874Y-55984007D01*
X142304400Y-55780531D01*
X142304400Y-55573069D01*
X142344874Y-55369593D01*
X142424266Y-55177923D01*
X142539526Y-55005424D01*
X142686224Y-54858726D01*
X142858723Y-54743466D01*
X143050393Y-54664074D01*
X143253869Y-54623600D01*
X143461331Y-54623600D01*
X143664807Y-54664074D01*
G37*
G36*
X141124807Y-54664074D02*
G01*
X141316477Y-54743466D01*
X141488976Y-54858726D01*
X141635674Y-55005424D01*
X141750934Y-55177923D01*
X141830326Y-55369593D01*
X141870800Y-55573069D01*
X141870800Y-55780531D01*
X141830326Y-55984007D01*
X141750934Y-56175677D01*
X141635674Y-56348176D01*
X141488976Y-56494874D01*
X141316477Y-56610134D01*
X141124807Y-56689526D01*
X140921331Y-56730000D01*
X140713869Y-56730000D01*
X140510393Y-56689526D01*
X140318723Y-56610134D01*
X140146224Y-56494874D01*
X139999526Y-56348176D01*
X139884266Y-56175677D01*
X139804874Y-55984007D01*
X139764400Y-55780531D01*
X139764400Y-55573069D01*
X139804874Y-55369593D01*
X139884266Y-55177923D01*
X139999526Y-55005424D01*
X140146224Y-54858726D01*
X140318723Y-54743466D01*
X140510393Y-54664074D01*
X140713869Y-54623600D01*
X140921331Y-54623600D01*
X141124807Y-54664074D01*
G37*
G36*
X139330800Y-56730000D02*
G01*
X137224400Y-56730000D01*
X137224400Y-54623600D01*
X139330800Y-54623600D01*
X139330800Y-56730000D01*
G37*
G36*
X156390207Y-54613274D02*
G01*
X156581877Y-54692666D01*
X156754376Y-54807926D01*
X156901074Y-54954624D01*
X157016334Y-55127123D01*
X157095726Y-55318793D01*
X157136200Y-55522269D01*
X157136200Y-55729731D01*
X157095726Y-55933207D01*
X157016334Y-56124877D01*
X156901074Y-56297376D01*
X156754376Y-56444074D01*
X156581877Y-56559334D01*
X156390207Y-56638726D01*
X156186731Y-56679200D01*
X155979269Y-56679200D01*
X155775793Y-56638726D01*
X155584123Y-56559334D01*
X155411624Y-56444074D01*
X155264926Y-56297376D01*
X155149666Y-56124877D01*
X155070274Y-55933207D01*
X155029800Y-55729731D01*
X155029800Y-55522269D01*
X155070274Y-55318793D01*
X155149666Y-55127123D01*
X155264926Y-54954624D01*
X155411624Y-54807926D01*
X155584123Y-54692666D01*
X155775793Y-54613274D01*
X155979269Y-54572800D01*
X156186731Y-54572800D01*
X156390207Y-54613274D01*
G37*
G36*
X154596200Y-56679200D02*
G01*
X152489800Y-56679200D01*
X152489800Y-54572800D01*
X154596200Y-54572800D01*
X154596200Y-56679200D01*
G37*
M02*
